%TF.GenerationSoftware,KiCad,Pcbnew,(7.0.0)*%
%TF.CreationDate,2023-05-27T11:58:37+01:00*%
%TF.ProjectId,all,616c6c2e-6b69-4636-9164-5f7063625858,rev?*%
%TF.SameCoordinates,Original*%
%TF.FileFunction,Legend,Top*%
%TF.FilePolarity,Positive*%
%FSLAX46Y46*%
G04 Gerber Fmt 4.6, Leading zero omitted, Abs format (unit mm)*
G04 Created by KiCad (PCBNEW (7.0.0)) date 2023-05-27 11:58:37*
%MOMM*%
%LPD*%
G01*
G04 APERTURE LIST*
%ADD10C,0.150000*%
%ADD11C,0.300000*%
%ADD12C,0.000000*%
%ADD13C,0.120000*%
%ADD14C,0.200000*%
%ADD15C,0.152400*%
%ADD16C,0.508000*%
G04 APERTURE END LIST*
D10*
X42769028Y-82564751D02*
X42769028Y-83326656D01*
X42388076Y-82945703D02*
X43149980Y-82945703D01*
X45069028Y-85364751D02*
X45069028Y-86126656D01*
X44688076Y-85745703D02*
X45449980Y-85745703D01*
X43511885Y-80798084D02*
X43511885Y-80464751D01*
X42988076Y-80464751D02*
X43988076Y-80464751D01*
X43988076Y-80464751D02*
X43988076Y-80940941D01*
X43511885Y-81655227D02*
X43511885Y-81321894D01*
X42988076Y-81321894D02*
X43988076Y-81321894D01*
X43988076Y-81321894D02*
X43988076Y-81798084D01*
D11*
G36*
X78860363Y-54441800D02*
G01*
X81966466Y-50115276D01*
X81996374Y-49773421D01*
X78880746Y-49500839D01*
X78835830Y-50014230D01*
X81253149Y-50225718D01*
X78479483Y-54087297D01*
X78451596Y-54406038D01*
X78860363Y-54441800D01*
G37*
G36*
X77484425Y-54321421D02*
G01*
X77512737Y-53997814D01*
X76568082Y-52044476D01*
X77675159Y-52141333D01*
X77720074Y-51627941D01*
X76306423Y-51504263D01*
X75454990Y-49718445D01*
X77868659Y-49929614D01*
X77913575Y-49416222D01*
X74797946Y-49143640D01*
X74768570Y-49479413D01*
X75711522Y-51452216D01*
X74604446Y-51355359D01*
X74559530Y-51868751D01*
X75973181Y-51992429D01*
X77079309Y-54285978D01*
X77484425Y-54321421D01*
G37*
G36*
X71059435Y-48816563D02*
G01*
X72061955Y-50879163D01*
X73400111Y-49021345D01*
X73791845Y-49055618D01*
X73761830Y-49398690D01*
X73760979Y-49408422D01*
X72314839Y-51407576D01*
X73391114Y-53635993D01*
X73362696Y-53960816D01*
X72956363Y-53925267D01*
X71974145Y-51882831D01*
X70644885Y-53723039D01*
X70209354Y-53684935D01*
X70308319Y-52553764D01*
X70857512Y-52553764D01*
X71719938Y-51355529D01*
X71078899Y-50023305D01*
X70857512Y-52553764D01*
X70308319Y-52553764D01*
X70638503Y-48779736D01*
X71059435Y-48816563D01*
G37*
D10*
X43711885Y-75898084D02*
X43711885Y-75564751D01*
X43188076Y-75564751D02*
X44188076Y-75564751D01*
X44188076Y-75564751D02*
X44188076Y-76040941D01*
X43711885Y-76755227D02*
X43664266Y-76898084D01*
X43664266Y-76898084D02*
X43616647Y-76945703D01*
X43616647Y-76945703D02*
X43521409Y-76993322D01*
X43521409Y-76993322D02*
X43378552Y-76993322D01*
X43378552Y-76993322D02*
X43283314Y-76945703D01*
X43283314Y-76945703D02*
X43235695Y-76898084D01*
X43235695Y-76898084D02*
X43188076Y-76802846D01*
X43188076Y-76802846D02*
X43188076Y-76421894D01*
X43188076Y-76421894D02*
X44188076Y-76421894D01*
X44188076Y-76421894D02*
X44188076Y-76755227D01*
X44188076Y-76755227D02*
X44140457Y-76850465D01*
X44140457Y-76850465D02*
X44092837Y-76898084D01*
X44092837Y-76898084D02*
X43997599Y-76945703D01*
X43997599Y-76945703D02*
X43902361Y-76945703D01*
X43902361Y-76945703D02*
X43807123Y-76898084D01*
X43807123Y-76898084D02*
X43759504Y-76850465D01*
X43759504Y-76850465D02*
X43711885Y-76755227D01*
X43711885Y-76755227D02*
X43711885Y-76421894D01*
X42688076Y-86264751D02*
X43688076Y-86264751D01*
X43211885Y-86264751D02*
X43211885Y-86836179D01*
X42688076Y-86836179D02*
X43688076Y-86836179D01*
X42688076Y-87312370D02*
X43688076Y-87312370D01*
X43688076Y-87312370D02*
X43688076Y-87693322D01*
X43688076Y-87693322D02*
X43640457Y-87788560D01*
X43640457Y-87788560D02*
X43592837Y-87836179D01*
X43592837Y-87836179D02*
X43497599Y-87883798D01*
X43497599Y-87883798D02*
X43354742Y-87883798D01*
X43354742Y-87883798D02*
X43259504Y-87836179D01*
X43259504Y-87836179D02*
X43211885Y-87788560D01*
X43211885Y-87788560D02*
X43164266Y-87693322D01*
X43164266Y-87693322D02*
X43164266Y-87312370D01*
X42769028Y-77564751D02*
X42769028Y-78326656D01*
X42388076Y-77945703D02*
X43149980Y-77945703D01*
X49070457Y-82926656D02*
X49770457Y-82626656D01*
X47670457Y-83426656D02*
X48170457Y-82826656D01*
X47170457Y-83426656D02*
X48170457Y-83426656D01*
X47170457Y-82826656D02*
X47670457Y-83426656D01*
X49570457Y-82726656D02*
X49370457Y-82626656D01*
X49070457Y-82426656D02*
X49070457Y-84226656D01*
X48170457Y-82826656D02*
X47170457Y-82826656D01*
X49570457Y-82726656D02*
X49470457Y-82926656D01*
X49670457Y-83926656D02*
X49070457Y-83626656D01*
X47670457Y-82826656D02*
X47670457Y-82626656D01*
X49070457Y-83626656D02*
X49070457Y-82926656D01*
X47670457Y-83426656D02*
X47670457Y-83726656D01*
X157035588Y-64870131D02*
X156702255Y-64870131D01*
X156702255Y-65393940D02*
X156702255Y-64393940D01*
X156702255Y-64393940D02*
X157178445Y-64393940D01*
X157892731Y-64870131D02*
X158035588Y-64917750D01*
X158035588Y-64917750D02*
X158083207Y-64965369D01*
X158083207Y-64965369D02*
X158130826Y-65060607D01*
X158130826Y-65060607D02*
X158130826Y-65203464D01*
X158130826Y-65203464D02*
X158083207Y-65298702D01*
X158083207Y-65298702D02*
X158035588Y-65346321D01*
X158035588Y-65346321D02*
X157940350Y-65393940D01*
X157940350Y-65393940D02*
X157559398Y-65393940D01*
X157559398Y-65393940D02*
X157559398Y-64393940D01*
X157559398Y-64393940D02*
X157892731Y-64393940D01*
X157892731Y-64393940D02*
X157987969Y-64441560D01*
X157987969Y-64441560D02*
X158035588Y-64489179D01*
X158035588Y-64489179D02*
X158083207Y-64584417D01*
X158083207Y-64584417D02*
X158083207Y-64679655D01*
X158083207Y-64679655D02*
X158035588Y-64774893D01*
X158035588Y-64774893D02*
X157987969Y-64822512D01*
X157987969Y-64822512D02*
X157892731Y-64870131D01*
X157892731Y-64870131D02*
X157559398Y-64870131D01*
X159492731Y-64870131D02*
X159159398Y-64870131D01*
X159159398Y-65393940D02*
X159159398Y-64393940D01*
X159159398Y-64393940D02*
X159635588Y-64393940D01*
X160016541Y-65393940D02*
X160016541Y-64727274D01*
X160016541Y-64393940D02*
X159968922Y-64441560D01*
X159968922Y-64441560D02*
X160016541Y-64489179D01*
X160016541Y-64489179D02*
X160064160Y-64441560D01*
X160064160Y-64441560D02*
X160016541Y-64393940D01*
X160016541Y-64393940D02*
X160016541Y-64489179D01*
X160635588Y-65393940D02*
X160540350Y-65346321D01*
X160540350Y-65346321D02*
X160492731Y-65251083D01*
X160492731Y-65251083D02*
X160492731Y-64393940D01*
X160873684Y-64727274D02*
X161254636Y-64727274D01*
X161016541Y-64393940D02*
X161016541Y-65251083D01*
X161016541Y-65251083D02*
X161064160Y-65346321D01*
X161064160Y-65346321D02*
X161159398Y-65393940D01*
X161159398Y-65393940D02*
X161254636Y-65393940D01*
X161968922Y-65346321D02*
X161873684Y-65393940D01*
X161873684Y-65393940D02*
X161683208Y-65393940D01*
X161683208Y-65393940D02*
X161587970Y-65346321D01*
X161587970Y-65346321D02*
X161540351Y-65251083D01*
X161540351Y-65251083D02*
X161540351Y-64870131D01*
X161540351Y-64870131D02*
X161587970Y-64774893D01*
X161587970Y-64774893D02*
X161683208Y-64727274D01*
X161683208Y-64727274D02*
X161873684Y-64727274D01*
X161873684Y-64727274D02*
X161968922Y-64774893D01*
X161968922Y-64774893D02*
X162016541Y-64870131D01*
X162016541Y-64870131D02*
X162016541Y-64965369D01*
X162016541Y-64965369D02*
X161540351Y-65060607D01*
X162445113Y-65393940D02*
X162445113Y-64727274D01*
X162445113Y-64917750D02*
X162492732Y-64822512D01*
X162492732Y-64822512D02*
X162540351Y-64774893D01*
X162540351Y-64774893D02*
X162635589Y-64727274D01*
X162635589Y-64727274D02*
X162730827Y-64727274D01*
X163664161Y-65393940D02*
X163664161Y-64393940D01*
X163664161Y-64393940D02*
X164045113Y-64393940D01*
X164045113Y-64393940D02*
X164140351Y-64441560D01*
X164140351Y-64441560D02*
X164187970Y-64489179D01*
X164187970Y-64489179D02*
X164235589Y-64584417D01*
X164235589Y-64584417D02*
X164235589Y-64727274D01*
X164235589Y-64727274D02*
X164187970Y-64822512D01*
X164187970Y-64822512D02*
X164140351Y-64870131D01*
X164140351Y-64870131D02*
X164045113Y-64917750D01*
X164045113Y-64917750D02*
X163664161Y-64917750D01*
X165235589Y-65298702D02*
X165187970Y-65346321D01*
X165187970Y-65346321D02*
X165045113Y-65393940D01*
X165045113Y-65393940D02*
X164949875Y-65393940D01*
X164949875Y-65393940D02*
X164807018Y-65346321D01*
X164807018Y-65346321D02*
X164711780Y-65251083D01*
X164711780Y-65251083D02*
X164664161Y-65155845D01*
X164664161Y-65155845D02*
X164616542Y-64965369D01*
X164616542Y-64965369D02*
X164616542Y-64822512D01*
X164616542Y-64822512D02*
X164664161Y-64632036D01*
X164664161Y-64632036D02*
X164711780Y-64536798D01*
X164711780Y-64536798D02*
X164807018Y-64441560D01*
X164807018Y-64441560D02*
X164949875Y-64393940D01*
X164949875Y-64393940D02*
X165045113Y-64393940D01*
X165045113Y-64393940D02*
X165187970Y-64441560D01*
X165187970Y-64441560D02*
X165235589Y-64489179D01*
X165997494Y-64870131D02*
X166140351Y-64917750D01*
X166140351Y-64917750D02*
X166187970Y-64965369D01*
X166187970Y-64965369D02*
X166235589Y-65060607D01*
X166235589Y-65060607D02*
X166235589Y-65203464D01*
X166235589Y-65203464D02*
X166187970Y-65298702D01*
X166187970Y-65298702D02*
X166140351Y-65346321D01*
X166140351Y-65346321D02*
X166045113Y-65393940D01*
X166045113Y-65393940D02*
X165664161Y-65393940D01*
X165664161Y-65393940D02*
X165664161Y-64393940D01*
X165664161Y-64393940D02*
X165997494Y-64393940D01*
X165997494Y-64393940D02*
X166092732Y-64441560D01*
X166092732Y-64441560D02*
X166140351Y-64489179D01*
X166140351Y-64489179D02*
X166187970Y-64584417D01*
X166187970Y-64584417D02*
X166187970Y-64679655D01*
X166187970Y-64679655D02*
X166140351Y-64774893D01*
X166140351Y-64774893D02*
X166092732Y-64822512D01*
X166092732Y-64822512D02*
X165997494Y-64870131D01*
X165997494Y-64870131D02*
X165664161Y-64870131D01*
X167121304Y-64393940D02*
X167454637Y-65393940D01*
X167454637Y-65393940D02*
X167787970Y-64393940D01*
X168311780Y-64393940D02*
X168407018Y-64393940D01*
X168407018Y-64393940D02*
X168502256Y-64441560D01*
X168502256Y-64441560D02*
X168549875Y-64489179D01*
X168549875Y-64489179D02*
X168597494Y-64584417D01*
X168597494Y-64584417D02*
X168645113Y-64774893D01*
X168645113Y-64774893D02*
X168645113Y-65012988D01*
X168645113Y-65012988D02*
X168597494Y-65203464D01*
X168597494Y-65203464D02*
X168549875Y-65298702D01*
X168549875Y-65298702D02*
X168502256Y-65346321D01*
X168502256Y-65346321D02*
X168407018Y-65393940D01*
X168407018Y-65393940D02*
X168311780Y-65393940D01*
X168311780Y-65393940D02*
X168216542Y-65346321D01*
X168216542Y-65346321D02*
X168168923Y-65298702D01*
X168168923Y-65298702D02*
X168121304Y-65203464D01*
X168121304Y-65203464D02*
X168073685Y-65012988D01*
X168073685Y-65012988D02*
X168073685Y-64774893D01*
X168073685Y-64774893D02*
X168121304Y-64584417D01*
X168121304Y-64584417D02*
X168168923Y-64489179D01*
X168168923Y-64489179D02*
X168216542Y-64441560D01*
X168216542Y-64441560D02*
X168311780Y-64393940D01*
X169073685Y-65298702D02*
X169121304Y-65346321D01*
X169121304Y-65346321D02*
X169073685Y-65393940D01*
X169073685Y-65393940D02*
X169026066Y-65346321D01*
X169026066Y-65346321D02*
X169073685Y-65298702D01*
X169073685Y-65298702D02*
X169073685Y-65393940D01*
X169740351Y-64393940D02*
X169835589Y-64393940D01*
X169835589Y-64393940D02*
X169930827Y-64441560D01*
X169930827Y-64441560D02*
X169978446Y-64489179D01*
X169978446Y-64489179D02*
X170026065Y-64584417D01*
X170026065Y-64584417D02*
X170073684Y-64774893D01*
X170073684Y-64774893D02*
X170073684Y-65012988D01*
X170073684Y-65012988D02*
X170026065Y-65203464D01*
X170026065Y-65203464D02*
X169978446Y-65298702D01*
X169978446Y-65298702D02*
X169930827Y-65346321D01*
X169930827Y-65346321D02*
X169835589Y-65393940D01*
X169835589Y-65393940D02*
X169740351Y-65393940D01*
X169740351Y-65393940D02*
X169645113Y-65346321D01*
X169645113Y-65346321D02*
X169597494Y-65298702D01*
X169597494Y-65298702D02*
X169549875Y-65203464D01*
X169549875Y-65203464D02*
X169502256Y-65012988D01*
X169502256Y-65012988D02*
X169502256Y-64774893D01*
X169502256Y-64774893D02*
X169549875Y-64584417D01*
X169549875Y-64584417D02*
X169597494Y-64489179D01*
X169597494Y-64489179D02*
X169645113Y-64441560D01*
X169645113Y-64441560D02*
X169740351Y-64393940D01*
X156588571Y-53478571D02*
X156588571Y-53811904D01*
X157112380Y-53811904D02*
X156112380Y-53811904D01*
X156112380Y-53811904D02*
X156112380Y-53335714D01*
X156588571Y-52621428D02*
X156588571Y-52954761D01*
X157112380Y-52954761D02*
X156112380Y-52954761D01*
X156112380Y-52954761D02*
X156112380Y-52478571D01*
X156588571Y-51164285D02*
X156588571Y-51497618D01*
X157112380Y-51497618D02*
X156112380Y-51497618D01*
X156112380Y-51497618D02*
X156112380Y-51021428D01*
X157112380Y-50640475D02*
X156445714Y-50640475D01*
X156112380Y-50640475D02*
X156160000Y-50688094D01*
X156160000Y-50688094D02*
X156207619Y-50640475D01*
X156207619Y-50640475D02*
X156160000Y-50592856D01*
X156160000Y-50592856D02*
X156112380Y-50640475D01*
X156112380Y-50640475D02*
X156207619Y-50640475D01*
X157112380Y-50021428D02*
X157064761Y-50116666D01*
X157064761Y-50116666D02*
X156969523Y-50164285D01*
X156969523Y-50164285D02*
X156112380Y-50164285D01*
X156445714Y-49783332D02*
X156445714Y-49402380D01*
X156112380Y-49640475D02*
X156969523Y-49640475D01*
X156969523Y-49640475D02*
X157064761Y-49592856D01*
X157064761Y-49592856D02*
X157112380Y-49497618D01*
X157112380Y-49497618D02*
X157112380Y-49402380D01*
X157064761Y-48688094D02*
X157112380Y-48783332D01*
X157112380Y-48783332D02*
X157112380Y-48973808D01*
X157112380Y-48973808D02*
X157064761Y-49069046D01*
X157064761Y-49069046D02*
X156969523Y-49116665D01*
X156969523Y-49116665D02*
X156588571Y-49116665D01*
X156588571Y-49116665D02*
X156493333Y-49069046D01*
X156493333Y-49069046D02*
X156445714Y-48973808D01*
X156445714Y-48973808D02*
X156445714Y-48783332D01*
X156445714Y-48783332D02*
X156493333Y-48688094D01*
X156493333Y-48688094D02*
X156588571Y-48640475D01*
X156588571Y-48640475D02*
X156683809Y-48640475D01*
X156683809Y-48640475D02*
X156779047Y-49116665D01*
X157112380Y-48211903D02*
X156445714Y-48211903D01*
X156636190Y-48211903D02*
X156540952Y-48164284D01*
X156540952Y-48164284D02*
X156493333Y-48116665D01*
X156493333Y-48116665D02*
X156445714Y-48021427D01*
X156445714Y-48021427D02*
X156445714Y-47926189D01*
X158732380Y-53811904D02*
X157732380Y-53811904D01*
X157732380Y-53811904D02*
X157732380Y-53430952D01*
X157732380Y-53430952D02*
X157780000Y-53335714D01*
X157780000Y-53335714D02*
X157827619Y-53288095D01*
X157827619Y-53288095D02*
X157922857Y-53240476D01*
X157922857Y-53240476D02*
X158065714Y-53240476D01*
X158065714Y-53240476D02*
X158160952Y-53288095D01*
X158160952Y-53288095D02*
X158208571Y-53335714D01*
X158208571Y-53335714D02*
X158256190Y-53430952D01*
X158256190Y-53430952D02*
X158256190Y-53811904D01*
X158637142Y-52240476D02*
X158684761Y-52288095D01*
X158684761Y-52288095D02*
X158732380Y-52430952D01*
X158732380Y-52430952D02*
X158732380Y-52526190D01*
X158732380Y-52526190D02*
X158684761Y-52669047D01*
X158684761Y-52669047D02*
X158589523Y-52764285D01*
X158589523Y-52764285D02*
X158494285Y-52811904D01*
X158494285Y-52811904D02*
X158303809Y-52859523D01*
X158303809Y-52859523D02*
X158160952Y-52859523D01*
X158160952Y-52859523D02*
X157970476Y-52811904D01*
X157970476Y-52811904D02*
X157875238Y-52764285D01*
X157875238Y-52764285D02*
X157780000Y-52669047D01*
X157780000Y-52669047D02*
X157732380Y-52526190D01*
X157732380Y-52526190D02*
X157732380Y-52430952D01*
X157732380Y-52430952D02*
X157780000Y-52288095D01*
X157780000Y-52288095D02*
X157827619Y-52240476D01*
X158208571Y-51478571D02*
X158256190Y-51335714D01*
X158256190Y-51335714D02*
X158303809Y-51288095D01*
X158303809Y-51288095D02*
X158399047Y-51240476D01*
X158399047Y-51240476D02*
X158541904Y-51240476D01*
X158541904Y-51240476D02*
X158637142Y-51288095D01*
X158637142Y-51288095D02*
X158684761Y-51335714D01*
X158684761Y-51335714D02*
X158732380Y-51430952D01*
X158732380Y-51430952D02*
X158732380Y-51811904D01*
X158732380Y-51811904D02*
X157732380Y-51811904D01*
X157732380Y-51811904D02*
X157732380Y-51478571D01*
X157732380Y-51478571D02*
X157780000Y-51383333D01*
X157780000Y-51383333D02*
X157827619Y-51335714D01*
X157827619Y-51335714D02*
X157922857Y-51288095D01*
X157922857Y-51288095D02*
X158018095Y-51288095D01*
X158018095Y-51288095D02*
X158113333Y-51335714D01*
X158113333Y-51335714D02*
X158160952Y-51383333D01*
X158160952Y-51383333D02*
X158208571Y-51478571D01*
X158208571Y-51478571D02*
X158208571Y-51811904D01*
X157732380Y-50354761D02*
X158732380Y-50021428D01*
X158732380Y-50021428D02*
X157732380Y-49688095D01*
X157732380Y-49164285D02*
X157732380Y-49069047D01*
X157732380Y-49069047D02*
X157780000Y-48973809D01*
X157780000Y-48973809D02*
X157827619Y-48926190D01*
X157827619Y-48926190D02*
X157922857Y-48878571D01*
X157922857Y-48878571D02*
X158113333Y-48830952D01*
X158113333Y-48830952D02*
X158351428Y-48830952D01*
X158351428Y-48830952D02*
X158541904Y-48878571D01*
X158541904Y-48878571D02*
X158637142Y-48926190D01*
X158637142Y-48926190D02*
X158684761Y-48973809D01*
X158684761Y-48973809D02*
X158732380Y-49069047D01*
X158732380Y-49069047D02*
X158732380Y-49164285D01*
X158732380Y-49164285D02*
X158684761Y-49259523D01*
X158684761Y-49259523D02*
X158637142Y-49307142D01*
X158637142Y-49307142D02*
X158541904Y-49354761D01*
X158541904Y-49354761D02*
X158351428Y-49402380D01*
X158351428Y-49402380D02*
X158113333Y-49402380D01*
X158113333Y-49402380D02*
X157922857Y-49354761D01*
X157922857Y-49354761D02*
X157827619Y-49307142D01*
X157827619Y-49307142D02*
X157780000Y-49259523D01*
X157780000Y-49259523D02*
X157732380Y-49164285D01*
X158637142Y-48402380D02*
X158684761Y-48354761D01*
X158684761Y-48354761D02*
X158732380Y-48402380D01*
X158732380Y-48402380D02*
X158684761Y-48449999D01*
X158684761Y-48449999D02*
X158637142Y-48402380D01*
X158637142Y-48402380D02*
X158732380Y-48402380D01*
X157732380Y-47735714D02*
X157732380Y-47640476D01*
X157732380Y-47640476D02*
X157780000Y-47545238D01*
X157780000Y-47545238D02*
X157827619Y-47497619D01*
X157827619Y-47497619D02*
X157922857Y-47450000D01*
X157922857Y-47450000D02*
X158113333Y-47402381D01*
X158113333Y-47402381D02*
X158351428Y-47402381D01*
X158351428Y-47402381D02*
X158541904Y-47450000D01*
X158541904Y-47450000D02*
X158637142Y-47497619D01*
X158637142Y-47497619D02*
X158684761Y-47545238D01*
X158684761Y-47545238D02*
X158732380Y-47640476D01*
X158732380Y-47640476D02*
X158732380Y-47735714D01*
X158732380Y-47735714D02*
X158684761Y-47830952D01*
X158684761Y-47830952D02*
X158637142Y-47878571D01*
X158637142Y-47878571D02*
X158541904Y-47926190D01*
X158541904Y-47926190D02*
X158351428Y-47973809D01*
X158351428Y-47973809D02*
X158113333Y-47973809D01*
X158113333Y-47973809D02*
X157922857Y-47926190D01*
X157922857Y-47926190D02*
X157827619Y-47878571D01*
X157827619Y-47878571D02*
X157780000Y-47830952D01*
X157780000Y-47830952D02*
X157732380Y-47735714D01*
D12*
G36*
X116698277Y-70911424D02*
G01*
X115313130Y-70913330D01*
X110097770Y-67773360D01*
X110095547Y-66171467D01*
X115310907Y-69292598D01*
X115306463Y-66164165D01*
X116691715Y-66162260D01*
X116698277Y-70911424D01*
G37*
G36*
X116677851Y-56315209D02*
G01*
X114973511Y-57146741D01*
X116680179Y-57964198D01*
X116682402Y-59528414D01*
X113382095Y-57921759D01*
X110086234Y-59537622D01*
X110084117Y-57973406D01*
X111788457Y-57151293D01*
X110081789Y-56324417D01*
X110079672Y-54788458D01*
X116675735Y-54779251D01*
X116677851Y-56315209D01*
G37*
G36*
X116690340Y-65219920D02*
G01*
X115305193Y-65221825D01*
X115300748Y-62093391D01*
X114086205Y-62820678D01*
X114089591Y-65223518D01*
X112704445Y-65225529D01*
X112702222Y-63661312D01*
X110094277Y-65229127D01*
X110092055Y-63627233D01*
X112700000Y-62050000D01*
X112697777Y-60476259D01*
X114082924Y-60474353D01*
X114083982Y-61209365D01*
X115298525Y-60472660D01*
X116683672Y-60470756D01*
X116690340Y-65219920D01*
G37*
D10*
X120838095Y-93951428D02*
X121600000Y-93951428D01*
X121219047Y-94332380D02*
X121219047Y-93570476D01*
X117271428Y-88008571D02*
X116938095Y-88008571D01*
X116938095Y-88532380D02*
X116938095Y-87532380D01*
X116938095Y-87532380D02*
X117414285Y-87532380D01*
X118128571Y-88008571D02*
X118271428Y-88056190D01*
X118271428Y-88056190D02*
X118319047Y-88103809D01*
X118319047Y-88103809D02*
X118366666Y-88199047D01*
X118366666Y-88199047D02*
X118366666Y-88341904D01*
X118366666Y-88341904D02*
X118319047Y-88437142D01*
X118319047Y-88437142D02*
X118271428Y-88484761D01*
X118271428Y-88484761D02*
X118176190Y-88532380D01*
X118176190Y-88532380D02*
X117795238Y-88532380D01*
X117795238Y-88532380D02*
X117795238Y-87532380D01*
X117795238Y-87532380D02*
X118128571Y-87532380D01*
X118128571Y-87532380D02*
X118223809Y-87580000D01*
X118223809Y-87580000D02*
X118271428Y-87627619D01*
X118271428Y-87627619D02*
X118319047Y-87722857D01*
X118319047Y-87722857D02*
X118319047Y-87818095D01*
X118319047Y-87818095D02*
X118271428Y-87913333D01*
X118271428Y-87913333D02*
X118223809Y-87960952D01*
X118223809Y-87960952D02*
X118128571Y-88008571D01*
X118128571Y-88008571D02*
X117795238Y-88008571D01*
X119395238Y-88532380D02*
X119395238Y-87865714D01*
X119395238Y-87960952D02*
X119442857Y-87913333D01*
X119442857Y-87913333D02*
X119538095Y-87865714D01*
X119538095Y-87865714D02*
X119680952Y-87865714D01*
X119680952Y-87865714D02*
X119776190Y-87913333D01*
X119776190Y-87913333D02*
X119823809Y-88008571D01*
X119823809Y-88008571D02*
X119823809Y-88532380D01*
X119823809Y-88008571D02*
X119871428Y-87913333D01*
X119871428Y-87913333D02*
X119966666Y-87865714D01*
X119966666Y-87865714D02*
X120109523Y-87865714D01*
X120109523Y-87865714D02*
X120204762Y-87913333D01*
X120204762Y-87913333D02*
X120252381Y-88008571D01*
X120252381Y-88008571D02*
X120252381Y-88532380D01*
X120728571Y-88532380D02*
X120728571Y-87865714D01*
X120728571Y-87532380D02*
X120680952Y-87580000D01*
X120680952Y-87580000D02*
X120728571Y-87627619D01*
X120728571Y-87627619D02*
X120776190Y-87580000D01*
X120776190Y-87580000D02*
X120728571Y-87532380D01*
X120728571Y-87532380D02*
X120728571Y-87627619D01*
X121633332Y-88484761D02*
X121538094Y-88532380D01*
X121538094Y-88532380D02*
X121347618Y-88532380D01*
X121347618Y-88532380D02*
X121252380Y-88484761D01*
X121252380Y-88484761D02*
X121204761Y-88437142D01*
X121204761Y-88437142D02*
X121157142Y-88341904D01*
X121157142Y-88341904D02*
X121157142Y-88056190D01*
X121157142Y-88056190D02*
X121204761Y-87960952D01*
X121204761Y-87960952D02*
X121252380Y-87913333D01*
X121252380Y-87913333D02*
X121347618Y-87865714D01*
X121347618Y-87865714D02*
X121538094Y-87865714D01*
X121538094Y-87865714D02*
X121633332Y-87913333D01*
X130538095Y-47751428D02*
X131300000Y-47751428D01*
X130919047Y-48132380D02*
X130919047Y-47370476D01*
X123938095Y-86732380D02*
X123938095Y-85732380D01*
X123938095Y-85732380D02*
X124271428Y-86446666D01*
X124271428Y-86446666D02*
X124604761Y-85732380D01*
X124604761Y-85732380D02*
X124604761Y-86732380D01*
X125080952Y-86732380D02*
X125080952Y-86065714D01*
X125080952Y-85732380D02*
X125033333Y-85780000D01*
X125033333Y-85780000D02*
X125080952Y-85827619D01*
X125080952Y-85827619D02*
X125128571Y-85780000D01*
X125128571Y-85780000D02*
X125080952Y-85732380D01*
X125080952Y-85732380D02*
X125080952Y-85827619D01*
X125985713Y-86684761D02*
X125890475Y-86732380D01*
X125890475Y-86732380D02*
X125699999Y-86732380D01*
X125699999Y-86732380D02*
X125604761Y-86684761D01*
X125604761Y-86684761D02*
X125557142Y-86637142D01*
X125557142Y-86637142D02*
X125509523Y-86541904D01*
X125509523Y-86541904D02*
X125509523Y-86256190D01*
X125509523Y-86256190D02*
X125557142Y-86160952D01*
X125557142Y-86160952D02*
X125604761Y-86113333D01*
X125604761Y-86113333D02*
X125699999Y-86065714D01*
X125699999Y-86065714D02*
X125890475Y-86065714D01*
X125890475Y-86065714D02*
X125985713Y-86113333D01*
X127490475Y-86732380D02*
X127014285Y-86732380D01*
X127014285Y-86732380D02*
X127014285Y-85732380D01*
X116738095Y-90651428D02*
X117500000Y-90651428D01*
X117119047Y-91032380D02*
X117119047Y-90270476D01*
X141258571Y-50878571D02*
X141306190Y-50735714D01*
X141306190Y-50735714D02*
X141353809Y-50688095D01*
X141353809Y-50688095D02*
X141449047Y-50640476D01*
X141449047Y-50640476D02*
X141591904Y-50640476D01*
X141591904Y-50640476D02*
X141687142Y-50688095D01*
X141687142Y-50688095D02*
X141734761Y-50735714D01*
X141734761Y-50735714D02*
X141782380Y-50830952D01*
X141782380Y-50830952D02*
X141782380Y-51211904D01*
X141782380Y-51211904D02*
X140782380Y-51211904D01*
X140782380Y-51211904D02*
X140782380Y-50878571D01*
X140782380Y-50878571D02*
X140830000Y-50783333D01*
X140830000Y-50783333D02*
X140877619Y-50735714D01*
X140877619Y-50735714D02*
X140972857Y-50688095D01*
X140972857Y-50688095D02*
X141068095Y-50688095D01*
X141068095Y-50688095D02*
X141163333Y-50735714D01*
X141163333Y-50735714D02*
X141210952Y-50783333D01*
X141210952Y-50783333D02*
X141258571Y-50878571D01*
X141258571Y-50878571D02*
X141258571Y-51211904D01*
X141782380Y-49783333D02*
X141258571Y-49783333D01*
X141258571Y-49783333D02*
X141163333Y-49830952D01*
X141163333Y-49830952D02*
X141115714Y-49926190D01*
X141115714Y-49926190D02*
X141115714Y-50116666D01*
X141115714Y-50116666D02*
X141163333Y-50211904D01*
X141734761Y-49783333D02*
X141782380Y-49878571D01*
X141782380Y-49878571D02*
X141782380Y-50116666D01*
X141782380Y-50116666D02*
X141734761Y-50211904D01*
X141734761Y-50211904D02*
X141639523Y-50259523D01*
X141639523Y-50259523D02*
X141544285Y-50259523D01*
X141544285Y-50259523D02*
X141449047Y-50211904D01*
X141449047Y-50211904D02*
X141401428Y-50116666D01*
X141401428Y-50116666D02*
X141401428Y-49878571D01*
X141401428Y-49878571D02*
X141353809Y-49783333D01*
X141115714Y-49449999D02*
X141115714Y-49069047D01*
X140782380Y-49307142D02*
X141639523Y-49307142D01*
X141639523Y-49307142D02*
X141734761Y-49259523D01*
X141734761Y-49259523D02*
X141782380Y-49164285D01*
X141782380Y-49164285D02*
X141782380Y-49069047D01*
X141115714Y-48878570D02*
X141115714Y-48497618D01*
X140782380Y-48735713D02*
X141639523Y-48735713D01*
X141639523Y-48735713D02*
X141734761Y-48688094D01*
X141734761Y-48688094D02*
X141782380Y-48592856D01*
X141782380Y-48592856D02*
X141782380Y-48497618D01*
X133758571Y-54378571D02*
X133758571Y-54711904D01*
X134282380Y-54711904D02*
X133282380Y-54711904D01*
X133282380Y-54711904D02*
X133282380Y-54235714D01*
X133758571Y-53521428D02*
X133806190Y-53378571D01*
X133806190Y-53378571D02*
X133853809Y-53330952D01*
X133853809Y-53330952D02*
X133949047Y-53283333D01*
X133949047Y-53283333D02*
X134091904Y-53283333D01*
X134091904Y-53283333D02*
X134187142Y-53330952D01*
X134187142Y-53330952D02*
X134234761Y-53378571D01*
X134234761Y-53378571D02*
X134282380Y-53473809D01*
X134282380Y-53473809D02*
X134282380Y-53854761D01*
X134282380Y-53854761D02*
X133282380Y-53854761D01*
X133282380Y-53854761D02*
X133282380Y-53521428D01*
X133282380Y-53521428D02*
X133330000Y-53426190D01*
X133330000Y-53426190D02*
X133377619Y-53378571D01*
X133377619Y-53378571D02*
X133472857Y-53330952D01*
X133472857Y-53330952D02*
X133568095Y-53330952D01*
X133568095Y-53330952D02*
X133663333Y-53378571D01*
X133663333Y-53378571D02*
X133710952Y-53426190D01*
X133710952Y-53426190D02*
X133758571Y-53521428D01*
X133758571Y-53521428D02*
X133758571Y-53854761D01*
X134282380Y-52254761D02*
X133615714Y-52254761D01*
X133710952Y-52254761D02*
X133663333Y-52207142D01*
X133663333Y-52207142D02*
X133615714Y-52111904D01*
X133615714Y-52111904D02*
X133615714Y-51969047D01*
X133615714Y-51969047D02*
X133663333Y-51873809D01*
X133663333Y-51873809D02*
X133758571Y-51826190D01*
X133758571Y-51826190D02*
X134282380Y-51826190D01*
X133758571Y-51826190D02*
X133663333Y-51778571D01*
X133663333Y-51778571D02*
X133615714Y-51683333D01*
X133615714Y-51683333D02*
X133615714Y-51540476D01*
X133615714Y-51540476D02*
X133663333Y-51445237D01*
X133663333Y-51445237D02*
X133758571Y-51397618D01*
X133758571Y-51397618D02*
X134282380Y-51397618D01*
X134282380Y-50921428D02*
X133615714Y-50921428D01*
X133282380Y-50921428D02*
X133330000Y-50969047D01*
X133330000Y-50969047D02*
X133377619Y-50921428D01*
X133377619Y-50921428D02*
X133330000Y-50873809D01*
X133330000Y-50873809D02*
X133282380Y-50921428D01*
X133282380Y-50921428D02*
X133377619Y-50921428D01*
X134234761Y-50016667D02*
X134282380Y-50111905D01*
X134282380Y-50111905D02*
X134282380Y-50302381D01*
X134282380Y-50302381D02*
X134234761Y-50397619D01*
X134234761Y-50397619D02*
X134187142Y-50445238D01*
X134187142Y-50445238D02*
X134091904Y-50492857D01*
X134091904Y-50492857D02*
X133806190Y-50492857D01*
X133806190Y-50492857D02*
X133710952Y-50445238D01*
X133710952Y-50445238D02*
X133663333Y-50397619D01*
X133663333Y-50397619D02*
X133615714Y-50302381D01*
X133615714Y-50302381D02*
X133615714Y-50111905D01*
X133615714Y-50111905D02*
X133663333Y-50016667D01*
X134282380Y-48416667D02*
X133806190Y-48750000D01*
X134282380Y-48988095D02*
X133282380Y-48988095D01*
X133282380Y-48988095D02*
X133282380Y-48607143D01*
X133282380Y-48607143D02*
X133330000Y-48511905D01*
X133330000Y-48511905D02*
X133377619Y-48464286D01*
X133377619Y-48464286D02*
X133472857Y-48416667D01*
X133472857Y-48416667D02*
X133615714Y-48416667D01*
X133615714Y-48416667D02*
X133710952Y-48464286D01*
X133710952Y-48464286D02*
X133758571Y-48511905D01*
X133758571Y-48511905D02*
X133806190Y-48607143D01*
X133806190Y-48607143D02*
X133806190Y-48988095D01*
X135538095Y-47751428D02*
X136300000Y-47751428D01*
X135919047Y-48132380D02*
X135919047Y-47370476D01*
X129838095Y-69832380D02*
X129838095Y-68832380D01*
X129838095Y-68832380D02*
X130171428Y-69546666D01*
X130171428Y-69546666D02*
X130504761Y-68832380D01*
X130504761Y-68832380D02*
X130504761Y-69832380D01*
X130980952Y-69832380D02*
X130980952Y-69165714D01*
X130980952Y-68832380D02*
X130933333Y-68880000D01*
X130933333Y-68880000D02*
X130980952Y-68927619D01*
X130980952Y-68927619D02*
X131028571Y-68880000D01*
X131028571Y-68880000D02*
X130980952Y-68832380D01*
X130980952Y-68832380D02*
X130980952Y-68927619D01*
X131885713Y-69784761D02*
X131790475Y-69832380D01*
X131790475Y-69832380D02*
X131599999Y-69832380D01*
X131599999Y-69832380D02*
X131504761Y-69784761D01*
X131504761Y-69784761D02*
X131457142Y-69737142D01*
X131457142Y-69737142D02*
X131409523Y-69641904D01*
X131409523Y-69641904D02*
X131409523Y-69356190D01*
X131409523Y-69356190D02*
X131457142Y-69260952D01*
X131457142Y-69260952D02*
X131504761Y-69213333D01*
X131504761Y-69213333D02*
X131599999Y-69165714D01*
X131599999Y-69165714D02*
X131790475Y-69165714D01*
X131790475Y-69165714D02*
X131885713Y-69213333D01*
X133485713Y-69832380D02*
X133152380Y-69356190D01*
X132914285Y-69832380D02*
X132914285Y-68832380D01*
X132914285Y-68832380D02*
X133295237Y-68832380D01*
X133295237Y-68832380D02*
X133390475Y-68880000D01*
X133390475Y-68880000D02*
X133438094Y-68927619D01*
X133438094Y-68927619D02*
X133485713Y-69022857D01*
X133485713Y-69022857D02*
X133485713Y-69165714D01*
X133485713Y-69165714D02*
X133438094Y-69260952D01*
X133438094Y-69260952D02*
X133390475Y-69308571D01*
X133390475Y-69308571D02*
X133295237Y-69356190D01*
X133295237Y-69356190D02*
X132914285Y-69356190D01*
X136682380Y-51611904D02*
X135682380Y-51611904D01*
X136158571Y-51611904D02*
X136158571Y-51040476D01*
X136682380Y-51040476D02*
X135682380Y-51040476D01*
X136682380Y-50564285D02*
X135682380Y-50564285D01*
X135682380Y-50564285D02*
X135682380Y-50183333D01*
X135682380Y-50183333D02*
X135730000Y-50088095D01*
X135730000Y-50088095D02*
X135777619Y-50040476D01*
X135777619Y-50040476D02*
X135872857Y-49992857D01*
X135872857Y-49992857D02*
X136015714Y-49992857D01*
X136015714Y-49992857D02*
X136110952Y-50040476D01*
X136110952Y-50040476D02*
X136158571Y-50088095D01*
X136158571Y-50088095D02*
X136206190Y-50183333D01*
X136206190Y-50183333D02*
X136206190Y-50564285D01*
X136682380Y-48392857D02*
X136206190Y-48726190D01*
X136682380Y-48964285D02*
X135682380Y-48964285D01*
X135682380Y-48964285D02*
X135682380Y-48583333D01*
X135682380Y-48583333D02*
X135730000Y-48488095D01*
X135730000Y-48488095D02*
X135777619Y-48440476D01*
X135777619Y-48440476D02*
X135872857Y-48392857D01*
X135872857Y-48392857D02*
X136015714Y-48392857D01*
X136015714Y-48392857D02*
X136110952Y-48440476D01*
X136110952Y-48440476D02*
X136158571Y-48488095D01*
X136158571Y-48488095D02*
X136206190Y-48583333D01*
X136206190Y-48583333D02*
X136206190Y-48964285D01*
X133038095Y-47751428D02*
X133800000Y-47751428D01*
X133419047Y-48132380D02*
X133419047Y-47370476D01*
X138282380Y-55207142D02*
X138282380Y-54588095D01*
X138282380Y-54588095D02*
X138663333Y-54921428D01*
X138663333Y-54921428D02*
X138663333Y-54778571D01*
X138663333Y-54778571D02*
X138710952Y-54683333D01*
X138710952Y-54683333D02*
X138758571Y-54635714D01*
X138758571Y-54635714D02*
X138853809Y-54588095D01*
X138853809Y-54588095D02*
X139091904Y-54588095D01*
X139091904Y-54588095D02*
X139187142Y-54635714D01*
X139187142Y-54635714D02*
X139234761Y-54683333D01*
X139234761Y-54683333D02*
X139282380Y-54778571D01*
X139282380Y-54778571D02*
X139282380Y-55064285D01*
X139282380Y-55064285D02*
X139234761Y-55159523D01*
X139234761Y-55159523D02*
X139187142Y-55207142D01*
X138282380Y-54302380D02*
X139282380Y-53969047D01*
X139282380Y-53969047D02*
X138282380Y-53635714D01*
X138282380Y-53397618D02*
X138282380Y-52778571D01*
X138282380Y-52778571D02*
X138663333Y-53111904D01*
X138663333Y-53111904D02*
X138663333Y-52969047D01*
X138663333Y-52969047D02*
X138710952Y-52873809D01*
X138710952Y-52873809D02*
X138758571Y-52826190D01*
X138758571Y-52826190D02*
X138853809Y-52778571D01*
X138853809Y-52778571D02*
X139091904Y-52778571D01*
X139091904Y-52778571D02*
X139187142Y-52826190D01*
X139187142Y-52826190D02*
X139234761Y-52873809D01*
X139234761Y-52873809D02*
X139282380Y-52969047D01*
X139282380Y-52969047D02*
X139282380Y-53254761D01*
X139282380Y-53254761D02*
X139234761Y-53349999D01*
X139234761Y-53349999D02*
X139187142Y-53397618D01*
X139615714Y-52111904D02*
X138187142Y-52111904D01*
X139282380Y-50969047D02*
X138282380Y-50969047D01*
X139234761Y-50969047D02*
X139282380Y-51064285D01*
X139282380Y-51064285D02*
X139282380Y-51254761D01*
X139282380Y-51254761D02*
X139234761Y-51349999D01*
X139234761Y-51349999D02*
X139187142Y-51397618D01*
X139187142Y-51397618D02*
X139091904Y-51445237D01*
X139091904Y-51445237D02*
X138806190Y-51445237D01*
X138806190Y-51445237D02*
X138710952Y-51397618D01*
X138710952Y-51397618D02*
X138663333Y-51349999D01*
X138663333Y-51349999D02*
X138615714Y-51254761D01*
X138615714Y-51254761D02*
X138615714Y-51064285D01*
X138615714Y-51064285D02*
X138663333Y-50969047D01*
X139282380Y-50064285D02*
X138758571Y-50064285D01*
X138758571Y-50064285D02*
X138663333Y-50111904D01*
X138663333Y-50111904D02*
X138615714Y-50207142D01*
X138615714Y-50207142D02*
X138615714Y-50397618D01*
X138615714Y-50397618D02*
X138663333Y-50492856D01*
X139234761Y-50064285D02*
X139282380Y-50159523D01*
X139282380Y-50159523D02*
X139282380Y-50397618D01*
X139282380Y-50397618D02*
X139234761Y-50492856D01*
X139234761Y-50492856D02*
X139139523Y-50540475D01*
X139139523Y-50540475D02*
X139044285Y-50540475D01*
X139044285Y-50540475D02*
X138949047Y-50492856D01*
X138949047Y-50492856D02*
X138901428Y-50397618D01*
X138901428Y-50397618D02*
X138901428Y-50159523D01*
X138901428Y-50159523D02*
X138853809Y-50064285D01*
X138615714Y-49730951D02*
X138615714Y-49349999D01*
X138282380Y-49588094D02*
X139139523Y-49588094D01*
X139139523Y-49588094D02*
X139234761Y-49540475D01*
X139234761Y-49540475D02*
X139282380Y-49445237D01*
X139282380Y-49445237D02*
X139282380Y-49349999D01*
X139282380Y-48588094D02*
X138758571Y-48588094D01*
X138758571Y-48588094D02*
X138663333Y-48635713D01*
X138663333Y-48635713D02*
X138615714Y-48730951D01*
X138615714Y-48730951D02*
X138615714Y-48921427D01*
X138615714Y-48921427D02*
X138663333Y-49016665D01*
X139234761Y-48588094D02*
X139282380Y-48683332D01*
X139282380Y-48683332D02*
X139282380Y-48921427D01*
X139282380Y-48921427D02*
X139234761Y-49016665D01*
X139234761Y-49016665D02*
X139139523Y-49064284D01*
X139139523Y-49064284D02*
X139044285Y-49064284D01*
X139044285Y-49064284D02*
X138949047Y-49016665D01*
X138949047Y-49016665D02*
X138901428Y-48921427D01*
X138901428Y-48921427D02*
X138901428Y-48683332D01*
X138901428Y-48683332D02*
X138853809Y-48588094D01*
X112771428Y-74608571D02*
X112438095Y-74608571D01*
X112438095Y-75132380D02*
X112438095Y-74132380D01*
X112438095Y-74132380D02*
X112914285Y-74132380D01*
X113628571Y-74608571D02*
X113295238Y-74608571D01*
X113295238Y-75132380D02*
X113295238Y-74132380D01*
X113295238Y-74132380D02*
X113771428Y-74132380D01*
X114609524Y-74465714D02*
X114990476Y-74465714D01*
X114752381Y-75132380D02*
X114752381Y-74275238D01*
X114752381Y-74275238D02*
X114800000Y-74180000D01*
X114800000Y-74180000D02*
X114895238Y-74132380D01*
X114895238Y-74132380D02*
X114990476Y-74132380D01*
X115323810Y-75132380D02*
X115323810Y-74465714D01*
X115323810Y-74132380D02*
X115276191Y-74180000D01*
X115276191Y-74180000D02*
X115323810Y-74227619D01*
X115323810Y-74227619D02*
X115371429Y-74180000D01*
X115371429Y-74180000D02*
X115323810Y-74132380D01*
X115323810Y-74132380D02*
X115323810Y-74227619D01*
X115942857Y-75132380D02*
X115847619Y-75084761D01*
X115847619Y-75084761D02*
X115800000Y-74989523D01*
X115800000Y-74989523D02*
X115800000Y-74132380D01*
X116180953Y-74465714D02*
X116561905Y-74465714D01*
X116323810Y-74132380D02*
X116323810Y-74989523D01*
X116323810Y-74989523D02*
X116371429Y-75084761D01*
X116371429Y-75084761D02*
X116466667Y-75132380D01*
X116466667Y-75132380D02*
X116561905Y-75132380D01*
X117276191Y-75084761D02*
X117180953Y-75132380D01*
X117180953Y-75132380D02*
X116990477Y-75132380D01*
X116990477Y-75132380D02*
X116895239Y-75084761D01*
X116895239Y-75084761D02*
X116847620Y-74989523D01*
X116847620Y-74989523D02*
X116847620Y-74608571D01*
X116847620Y-74608571D02*
X116895239Y-74513333D01*
X116895239Y-74513333D02*
X116990477Y-74465714D01*
X116990477Y-74465714D02*
X117180953Y-74465714D01*
X117180953Y-74465714D02*
X117276191Y-74513333D01*
X117276191Y-74513333D02*
X117323810Y-74608571D01*
X117323810Y-74608571D02*
X117323810Y-74703809D01*
X117323810Y-74703809D02*
X116847620Y-74799047D01*
X117752382Y-75132380D02*
X117752382Y-74465714D01*
X117752382Y-74656190D02*
X117800001Y-74560952D01*
X117800001Y-74560952D02*
X117847620Y-74513333D01*
X117847620Y-74513333D02*
X117942858Y-74465714D01*
X117942858Y-74465714D02*
X118038096Y-74465714D01*
X118323811Y-75084761D02*
X118419049Y-75132380D01*
X118419049Y-75132380D02*
X118609525Y-75132380D01*
X118609525Y-75132380D02*
X118704763Y-75084761D01*
X118704763Y-75084761D02*
X118752382Y-74989523D01*
X118752382Y-74989523D02*
X118752382Y-74941904D01*
X118752382Y-74941904D02*
X118704763Y-74846666D01*
X118704763Y-74846666D02*
X118609525Y-74799047D01*
X118609525Y-74799047D02*
X118466668Y-74799047D01*
X118466668Y-74799047D02*
X118371430Y-74751428D01*
X118371430Y-74751428D02*
X118323811Y-74656190D01*
X118323811Y-74656190D02*
X118323811Y-74608571D01*
X118323811Y-74608571D02*
X118371430Y-74513333D01*
X118371430Y-74513333D02*
X118466668Y-74465714D01*
X118466668Y-74465714D02*
X118609525Y-74465714D01*
X118609525Y-74465714D02*
X118704763Y-74513333D01*
X140438095Y-47651428D02*
X141200000Y-47651428D01*
X140819047Y-48032380D02*
X140819047Y-47270476D01*
X140171428Y-72408571D02*
X139838095Y-72408571D01*
X139838095Y-72932380D02*
X139838095Y-71932380D01*
X139838095Y-71932380D02*
X140314285Y-71932380D01*
X141028571Y-72408571D02*
X141171428Y-72456190D01*
X141171428Y-72456190D02*
X141219047Y-72503809D01*
X141219047Y-72503809D02*
X141266666Y-72599047D01*
X141266666Y-72599047D02*
X141266666Y-72741904D01*
X141266666Y-72741904D02*
X141219047Y-72837142D01*
X141219047Y-72837142D02*
X141171428Y-72884761D01*
X141171428Y-72884761D02*
X141076190Y-72932380D01*
X141076190Y-72932380D02*
X140695238Y-72932380D01*
X140695238Y-72932380D02*
X140695238Y-71932380D01*
X140695238Y-71932380D02*
X141028571Y-71932380D01*
X141028571Y-71932380D02*
X141123809Y-71980000D01*
X141123809Y-71980000D02*
X141171428Y-72027619D01*
X141171428Y-72027619D02*
X141219047Y-72122857D01*
X141219047Y-72122857D02*
X141219047Y-72218095D01*
X141219047Y-72218095D02*
X141171428Y-72313333D01*
X141171428Y-72313333D02*
X141123809Y-72360952D01*
X141123809Y-72360952D02*
X141028571Y-72408571D01*
X141028571Y-72408571D02*
X140695238Y-72408571D01*
X142152381Y-72265714D02*
X142533333Y-72265714D01*
X142295238Y-72932380D02*
X142295238Y-72075238D01*
X142295238Y-72075238D02*
X142342857Y-71980000D01*
X142342857Y-71980000D02*
X142438095Y-71932380D01*
X142438095Y-71932380D02*
X142533333Y-71932380D01*
X142866667Y-72932380D02*
X142866667Y-72265714D01*
X142866667Y-71932380D02*
X142819048Y-71980000D01*
X142819048Y-71980000D02*
X142866667Y-72027619D01*
X142866667Y-72027619D02*
X142914286Y-71980000D01*
X142914286Y-71980000D02*
X142866667Y-71932380D01*
X142866667Y-71932380D02*
X142866667Y-72027619D01*
X143485714Y-72932380D02*
X143390476Y-72884761D01*
X143390476Y-72884761D02*
X143342857Y-72789523D01*
X143342857Y-72789523D02*
X143342857Y-71932380D01*
X143723810Y-72265714D02*
X144104762Y-72265714D01*
X143866667Y-71932380D02*
X143866667Y-72789523D01*
X143866667Y-72789523D02*
X143914286Y-72884761D01*
X143914286Y-72884761D02*
X144009524Y-72932380D01*
X144009524Y-72932380D02*
X144104762Y-72932380D01*
X144819048Y-72884761D02*
X144723810Y-72932380D01*
X144723810Y-72932380D02*
X144533334Y-72932380D01*
X144533334Y-72932380D02*
X144438096Y-72884761D01*
X144438096Y-72884761D02*
X144390477Y-72789523D01*
X144390477Y-72789523D02*
X144390477Y-72408571D01*
X144390477Y-72408571D02*
X144438096Y-72313333D01*
X144438096Y-72313333D02*
X144533334Y-72265714D01*
X144533334Y-72265714D02*
X144723810Y-72265714D01*
X144723810Y-72265714D02*
X144819048Y-72313333D01*
X144819048Y-72313333D02*
X144866667Y-72408571D01*
X144866667Y-72408571D02*
X144866667Y-72503809D01*
X144866667Y-72503809D02*
X144390477Y-72599047D01*
X145295239Y-72932380D02*
X145295239Y-72265714D01*
X145295239Y-72456190D02*
X145342858Y-72360952D01*
X145342858Y-72360952D02*
X145390477Y-72313333D01*
X145390477Y-72313333D02*
X145485715Y-72265714D01*
X145485715Y-72265714D02*
X145580953Y-72265714D01*
X145866668Y-72884761D02*
X145961906Y-72932380D01*
X145961906Y-72932380D02*
X146152382Y-72932380D01*
X146152382Y-72932380D02*
X146247620Y-72884761D01*
X146247620Y-72884761D02*
X146295239Y-72789523D01*
X146295239Y-72789523D02*
X146295239Y-72741904D01*
X146295239Y-72741904D02*
X146247620Y-72646666D01*
X146247620Y-72646666D02*
X146152382Y-72599047D01*
X146152382Y-72599047D02*
X146009525Y-72599047D01*
X146009525Y-72599047D02*
X145914287Y-72551428D01*
X145914287Y-72551428D02*
X145866668Y-72456190D01*
X145866668Y-72456190D02*
X145866668Y-72408571D01*
X145866668Y-72408571D02*
X145914287Y-72313333D01*
X145914287Y-72313333D02*
X146009525Y-72265714D01*
X146009525Y-72265714D02*
X146152382Y-72265714D01*
X146152382Y-72265714D02*
X146247620Y-72313333D01*
X131158571Y-54178571D02*
X131158571Y-54511904D01*
X131682380Y-54511904D02*
X130682380Y-54511904D01*
X130682380Y-54511904D02*
X130682380Y-54035714D01*
X131158571Y-53321428D02*
X131158571Y-53654761D01*
X131682380Y-53654761D02*
X130682380Y-53654761D01*
X130682380Y-53654761D02*
X130682380Y-53178571D01*
X131682380Y-52197618D02*
X131015714Y-52197618D01*
X131110952Y-52197618D02*
X131063333Y-52149999D01*
X131063333Y-52149999D02*
X131015714Y-52054761D01*
X131015714Y-52054761D02*
X131015714Y-51911904D01*
X131015714Y-51911904D02*
X131063333Y-51816666D01*
X131063333Y-51816666D02*
X131158571Y-51769047D01*
X131158571Y-51769047D02*
X131682380Y-51769047D01*
X131158571Y-51769047D02*
X131063333Y-51721428D01*
X131063333Y-51721428D02*
X131015714Y-51626190D01*
X131015714Y-51626190D02*
X131015714Y-51483333D01*
X131015714Y-51483333D02*
X131063333Y-51388094D01*
X131063333Y-51388094D02*
X131158571Y-51340475D01*
X131158571Y-51340475D02*
X131682380Y-51340475D01*
X131682380Y-50864285D02*
X131015714Y-50864285D01*
X130682380Y-50864285D02*
X130730000Y-50911904D01*
X130730000Y-50911904D02*
X130777619Y-50864285D01*
X130777619Y-50864285D02*
X130730000Y-50816666D01*
X130730000Y-50816666D02*
X130682380Y-50864285D01*
X130682380Y-50864285D02*
X130777619Y-50864285D01*
X131634761Y-49959524D02*
X131682380Y-50054762D01*
X131682380Y-50054762D02*
X131682380Y-50245238D01*
X131682380Y-50245238D02*
X131634761Y-50340476D01*
X131634761Y-50340476D02*
X131587142Y-50388095D01*
X131587142Y-50388095D02*
X131491904Y-50435714D01*
X131491904Y-50435714D02*
X131206190Y-50435714D01*
X131206190Y-50435714D02*
X131110952Y-50388095D01*
X131110952Y-50388095D02*
X131063333Y-50340476D01*
X131063333Y-50340476D02*
X131015714Y-50245238D01*
X131015714Y-50245238D02*
X131015714Y-50054762D01*
X131015714Y-50054762D02*
X131063333Y-49959524D01*
X131682380Y-48359524D02*
X131206190Y-48692857D01*
X131682380Y-48930952D02*
X130682380Y-48930952D01*
X130682380Y-48930952D02*
X130682380Y-48550000D01*
X130682380Y-48550000D02*
X130730000Y-48454762D01*
X130730000Y-48454762D02*
X130777619Y-48407143D01*
X130777619Y-48407143D02*
X130872857Y-48359524D01*
X130872857Y-48359524D02*
X131015714Y-48359524D01*
X131015714Y-48359524D02*
X131110952Y-48407143D01*
X131110952Y-48407143D02*
X131158571Y-48454762D01*
X131158571Y-48454762D02*
X131206190Y-48550000D01*
X131206190Y-48550000D02*
X131206190Y-48930952D01*
X150267142Y-73740476D02*
X150314761Y-73788095D01*
X150314761Y-73788095D02*
X150362380Y-73930952D01*
X150362380Y-73930952D02*
X150362380Y-74026190D01*
X150362380Y-74026190D02*
X150314761Y-74169047D01*
X150314761Y-74169047D02*
X150219523Y-74264285D01*
X150219523Y-74264285D02*
X150124285Y-74311904D01*
X150124285Y-74311904D02*
X149933809Y-74359523D01*
X149933809Y-74359523D02*
X149790952Y-74359523D01*
X149790952Y-74359523D02*
X149600476Y-74311904D01*
X149600476Y-74311904D02*
X149505238Y-74264285D01*
X149505238Y-74264285D02*
X149410000Y-74169047D01*
X149410000Y-74169047D02*
X149362380Y-74026190D01*
X149362380Y-74026190D02*
X149362380Y-73930952D01*
X149362380Y-73930952D02*
X149410000Y-73788095D01*
X149410000Y-73788095D02*
X149457619Y-73740476D01*
X150362380Y-73311904D02*
X149362380Y-73311904D01*
X149838571Y-73311904D02*
X149838571Y-72740476D01*
X150362380Y-72740476D02*
X149362380Y-72740476D01*
X150362380Y-71692857D02*
X149886190Y-72026190D01*
X150362380Y-72264285D02*
X149362380Y-72264285D01*
X149362380Y-72264285D02*
X149362380Y-71883333D01*
X149362380Y-71883333D02*
X149410000Y-71788095D01*
X149410000Y-71788095D02*
X149457619Y-71740476D01*
X149457619Y-71740476D02*
X149552857Y-71692857D01*
X149552857Y-71692857D02*
X149695714Y-71692857D01*
X149695714Y-71692857D02*
X149790952Y-71740476D01*
X149790952Y-71740476D02*
X149838571Y-71788095D01*
X149838571Y-71788095D02*
X149886190Y-71883333D01*
X149886190Y-71883333D02*
X149886190Y-72264285D01*
X149410000Y-70740476D02*
X149362380Y-70835714D01*
X149362380Y-70835714D02*
X149362380Y-70978571D01*
X149362380Y-70978571D02*
X149410000Y-71121428D01*
X149410000Y-71121428D02*
X149505238Y-71216666D01*
X149505238Y-71216666D02*
X149600476Y-71264285D01*
X149600476Y-71264285D02*
X149790952Y-71311904D01*
X149790952Y-71311904D02*
X149933809Y-71311904D01*
X149933809Y-71311904D02*
X150124285Y-71264285D01*
X150124285Y-71264285D02*
X150219523Y-71216666D01*
X150219523Y-71216666D02*
X150314761Y-71121428D01*
X150314761Y-71121428D02*
X150362380Y-70978571D01*
X150362380Y-70978571D02*
X150362380Y-70883333D01*
X150362380Y-70883333D02*
X150314761Y-70740476D01*
X150314761Y-70740476D02*
X150267142Y-70692857D01*
X150267142Y-70692857D02*
X149933809Y-70692857D01*
X149933809Y-70692857D02*
X149933809Y-70883333D01*
X151982380Y-74311904D02*
X151315714Y-74311904D01*
X151506190Y-74311904D02*
X151410952Y-74264285D01*
X151410952Y-74264285D02*
X151363333Y-74216666D01*
X151363333Y-74216666D02*
X151315714Y-74121428D01*
X151315714Y-74121428D02*
X151315714Y-74026190D01*
X151982380Y-73264285D02*
X151458571Y-73264285D01*
X151458571Y-73264285D02*
X151363333Y-73311904D01*
X151363333Y-73311904D02*
X151315714Y-73407142D01*
X151315714Y-73407142D02*
X151315714Y-73597618D01*
X151315714Y-73597618D02*
X151363333Y-73692856D01*
X151934761Y-73264285D02*
X151982380Y-73359523D01*
X151982380Y-73359523D02*
X151982380Y-73597618D01*
X151982380Y-73597618D02*
X151934761Y-73692856D01*
X151934761Y-73692856D02*
X151839523Y-73740475D01*
X151839523Y-73740475D02*
X151744285Y-73740475D01*
X151744285Y-73740475D02*
X151649047Y-73692856D01*
X151649047Y-73692856D02*
X151601428Y-73597618D01*
X151601428Y-73597618D02*
X151601428Y-73359523D01*
X151601428Y-73359523D02*
X151553809Y-73264285D01*
X151315714Y-72930951D02*
X151315714Y-72549999D01*
X150982380Y-72788094D02*
X151839523Y-72788094D01*
X151839523Y-72788094D02*
X151934761Y-72740475D01*
X151934761Y-72740475D02*
X151982380Y-72645237D01*
X151982380Y-72645237D02*
X151982380Y-72549999D01*
X151934761Y-71835713D02*
X151982380Y-71930951D01*
X151982380Y-71930951D02*
X151982380Y-72121427D01*
X151982380Y-72121427D02*
X151934761Y-72216665D01*
X151934761Y-72216665D02*
X151839523Y-72264284D01*
X151839523Y-72264284D02*
X151458571Y-72264284D01*
X151458571Y-72264284D02*
X151363333Y-72216665D01*
X151363333Y-72216665D02*
X151315714Y-72121427D01*
X151315714Y-72121427D02*
X151315714Y-71930951D01*
X151315714Y-71930951D02*
X151363333Y-71835713D01*
X151363333Y-71835713D02*
X151458571Y-71788094D01*
X151458571Y-71788094D02*
X151553809Y-71788094D01*
X151553809Y-71788094D02*
X151649047Y-72264284D01*
X123938095Y-56732380D02*
X123938095Y-56065714D01*
X123938095Y-56256190D02*
X123985714Y-56160952D01*
X123985714Y-56160952D02*
X124033333Y-56113333D01*
X124033333Y-56113333D02*
X124128571Y-56065714D01*
X124128571Y-56065714D02*
X124223809Y-56065714D01*
X124938095Y-56684761D02*
X124842857Y-56732380D01*
X124842857Y-56732380D02*
X124652381Y-56732380D01*
X124652381Y-56732380D02*
X124557143Y-56684761D01*
X124557143Y-56684761D02*
X124509524Y-56589523D01*
X124509524Y-56589523D02*
X124509524Y-56208571D01*
X124509524Y-56208571D02*
X124557143Y-56113333D01*
X124557143Y-56113333D02*
X124652381Y-56065714D01*
X124652381Y-56065714D02*
X124842857Y-56065714D01*
X124842857Y-56065714D02*
X124938095Y-56113333D01*
X124938095Y-56113333D02*
X124985714Y-56208571D01*
X124985714Y-56208571D02*
X124985714Y-56303809D01*
X124985714Y-56303809D02*
X124509524Y-56399047D01*
X125366667Y-56684761D02*
X125461905Y-56732380D01*
X125461905Y-56732380D02*
X125652381Y-56732380D01*
X125652381Y-56732380D02*
X125747619Y-56684761D01*
X125747619Y-56684761D02*
X125795238Y-56589523D01*
X125795238Y-56589523D02*
X125795238Y-56541904D01*
X125795238Y-56541904D02*
X125747619Y-56446666D01*
X125747619Y-56446666D02*
X125652381Y-56399047D01*
X125652381Y-56399047D02*
X125509524Y-56399047D01*
X125509524Y-56399047D02*
X125414286Y-56351428D01*
X125414286Y-56351428D02*
X125366667Y-56256190D01*
X125366667Y-56256190D02*
X125366667Y-56208571D01*
X125366667Y-56208571D02*
X125414286Y-56113333D01*
X125414286Y-56113333D02*
X125509524Y-56065714D01*
X125509524Y-56065714D02*
X125652381Y-56065714D01*
X125652381Y-56065714D02*
X125747619Y-56113333D01*
X126604762Y-56684761D02*
X126509524Y-56732380D01*
X126509524Y-56732380D02*
X126319048Y-56732380D01*
X126319048Y-56732380D02*
X126223810Y-56684761D01*
X126223810Y-56684761D02*
X126176191Y-56589523D01*
X126176191Y-56589523D02*
X126176191Y-56208571D01*
X126176191Y-56208571D02*
X126223810Y-56113333D01*
X126223810Y-56113333D02*
X126319048Y-56065714D01*
X126319048Y-56065714D02*
X126509524Y-56065714D01*
X126509524Y-56065714D02*
X126604762Y-56113333D01*
X126604762Y-56113333D02*
X126652381Y-56208571D01*
X126652381Y-56208571D02*
X126652381Y-56303809D01*
X126652381Y-56303809D02*
X126176191Y-56399047D01*
X126938096Y-56065714D02*
X127319048Y-56065714D01*
X127080953Y-55732380D02*
X127080953Y-56589523D01*
X127080953Y-56589523D02*
X127128572Y-56684761D01*
X127128572Y-56684761D02*
X127223810Y-56732380D01*
X127223810Y-56732380D02*
X127319048Y-56732380D01*
X123219047Y-51384761D02*
X123123809Y-51432380D01*
X123123809Y-51432380D02*
X122933333Y-51432380D01*
X122933333Y-51432380D02*
X122838095Y-51384761D01*
X122838095Y-51384761D02*
X122790476Y-51289523D01*
X122790476Y-51289523D02*
X122790476Y-50908571D01*
X122790476Y-50908571D02*
X122838095Y-50813333D01*
X122838095Y-50813333D02*
X122933333Y-50765714D01*
X122933333Y-50765714D02*
X123123809Y-50765714D01*
X123123809Y-50765714D02*
X123219047Y-50813333D01*
X123219047Y-50813333D02*
X123266666Y-50908571D01*
X123266666Y-50908571D02*
X123266666Y-51003809D01*
X123266666Y-51003809D02*
X122790476Y-51099047D01*
X124123809Y-51432380D02*
X124123809Y-50908571D01*
X124123809Y-50908571D02*
X124076190Y-50813333D01*
X124076190Y-50813333D02*
X123980952Y-50765714D01*
X123980952Y-50765714D02*
X123790476Y-50765714D01*
X123790476Y-50765714D02*
X123695238Y-50813333D01*
X124123809Y-51384761D02*
X124028571Y-51432380D01*
X124028571Y-51432380D02*
X123790476Y-51432380D01*
X123790476Y-51432380D02*
X123695238Y-51384761D01*
X123695238Y-51384761D02*
X123647619Y-51289523D01*
X123647619Y-51289523D02*
X123647619Y-51194285D01*
X123647619Y-51194285D02*
X123695238Y-51099047D01*
X123695238Y-51099047D02*
X123790476Y-51051428D01*
X123790476Y-51051428D02*
X124028571Y-51051428D01*
X124028571Y-51051428D02*
X124123809Y-51003809D01*
X124600000Y-51432380D02*
X124600000Y-50765714D01*
X124600000Y-50956190D02*
X124647619Y-50860952D01*
X124647619Y-50860952D02*
X124695238Y-50813333D01*
X124695238Y-50813333D02*
X124790476Y-50765714D01*
X124790476Y-50765714D02*
X124885714Y-50765714D01*
X124980953Y-51527619D02*
X125742857Y-51527619D01*
X125933334Y-51384761D02*
X126028572Y-51432380D01*
X126028572Y-51432380D02*
X126219048Y-51432380D01*
X126219048Y-51432380D02*
X126314286Y-51384761D01*
X126314286Y-51384761D02*
X126361905Y-51289523D01*
X126361905Y-51289523D02*
X126361905Y-51241904D01*
X126361905Y-51241904D02*
X126314286Y-51146666D01*
X126314286Y-51146666D02*
X126219048Y-51099047D01*
X126219048Y-51099047D02*
X126076191Y-51099047D01*
X126076191Y-51099047D02*
X125980953Y-51051428D01*
X125980953Y-51051428D02*
X125933334Y-50956190D01*
X125933334Y-50956190D02*
X125933334Y-50908571D01*
X125933334Y-50908571D02*
X125980953Y-50813333D01*
X125980953Y-50813333D02*
X126076191Y-50765714D01*
X126076191Y-50765714D02*
X126219048Y-50765714D01*
X126219048Y-50765714D02*
X126314286Y-50813333D01*
X127171429Y-51384761D02*
X127076191Y-51432380D01*
X127076191Y-51432380D02*
X126885715Y-51432380D01*
X126885715Y-51432380D02*
X126790477Y-51384761D01*
X126790477Y-51384761D02*
X126742858Y-51289523D01*
X126742858Y-51289523D02*
X126742858Y-50908571D01*
X126742858Y-50908571D02*
X126790477Y-50813333D01*
X126790477Y-50813333D02*
X126885715Y-50765714D01*
X126885715Y-50765714D02*
X127076191Y-50765714D01*
X127076191Y-50765714D02*
X127171429Y-50813333D01*
X127171429Y-50813333D02*
X127219048Y-50908571D01*
X127219048Y-50908571D02*
X127219048Y-51003809D01*
X127219048Y-51003809D02*
X126742858Y-51099047D01*
X127647620Y-50765714D02*
X127647620Y-51432380D01*
X127647620Y-50860952D02*
X127695239Y-50813333D01*
X127695239Y-50813333D02*
X127790477Y-50765714D01*
X127790477Y-50765714D02*
X127933334Y-50765714D01*
X127933334Y-50765714D02*
X128028572Y-50813333D01*
X128028572Y-50813333D02*
X128076191Y-50908571D01*
X128076191Y-50908571D02*
X128076191Y-51432380D01*
X128504763Y-51384761D02*
X128600001Y-51432380D01*
X128600001Y-51432380D02*
X128790477Y-51432380D01*
X128790477Y-51432380D02*
X128885715Y-51384761D01*
X128885715Y-51384761D02*
X128933334Y-51289523D01*
X128933334Y-51289523D02*
X128933334Y-51241904D01*
X128933334Y-51241904D02*
X128885715Y-51146666D01*
X128885715Y-51146666D02*
X128790477Y-51099047D01*
X128790477Y-51099047D02*
X128647620Y-51099047D01*
X128647620Y-51099047D02*
X128552382Y-51051428D01*
X128552382Y-51051428D02*
X128504763Y-50956190D01*
X128504763Y-50956190D02*
X128504763Y-50908571D01*
X128504763Y-50908571D02*
X128552382Y-50813333D01*
X128552382Y-50813333D02*
X128647620Y-50765714D01*
X128647620Y-50765714D02*
X128790477Y-50765714D01*
X128790477Y-50765714D02*
X128885715Y-50813333D01*
X129742858Y-51384761D02*
X129647620Y-51432380D01*
X129647620Y-51432380D02*
X129457144Y-51432380D01*
X129457144Y-51432380D02*
X129361906Y-51384761D01*
X129361906Y-51384761D02*
X129314287Y-51289523D01*
X129314287Y-51289523D02*
X129314287Y-50908571D01*
X129314287Y-50908571D02*
X129361906Y-50813333D01*
X129361906Y-50813333D02*
X129457144Y-50765714D01*
X129457144Y-50765714D02*
X129647620Y-50765714D01*
X129647620Y-50765714D02*
X129742858Y-50813333D01*
X129742858Y-50813333D02*
X129790477Y-50908571D01*
X129790477Y-50908571D02*
X129790477Y-51003809D01*
X129790477Y-51003809D02*
X129314287Y-51099047D01*
X119351428Y-89808571D02*
X119018095Y-89808571D01*
X119018095Y-90332380D02*
X119018095Y-89332380D01*
X119018095Y-89332380D02*
X119494285Y-89332380D01*
X120208571Y-89808571D02*
X119875238Y-89808571D01*
X119875238Y-90332380D02*
X119875238Y-89332380D01*
X119875238Y-89332380D02*
X120351428Y-89332380D01*
X121332381Y-90332380D02*
X121332381Y-89665714D01*
X121332381Y-89760952D02*
X121380000Y-89713333D01*
X121380000Y-89713333D02*
X121475238Y-89665714D01*
X121475238Y-89665714D02*
X121618095Y-89665714D01*
X121618095Y-89665714D02*
X121713333Y-89713333D01*
X121713333Y-89713333D02*
X121760952Y-89808571D01*
X121760952Y-89808571D02*
X121760952Y-90332380D01*
X121760952Y-89808571D02*
X121808571Y-89713333D01*
X121808571Y-89713333D02*
X121903809Y-89665714D01*
X121903809Y-89665714D02*
X122046666Y-89665714D01*
X122046666Y-89665714D02*
X122141905Y-89713333D01*
X122141905Y-89713333D02*
X122189524Y-89808571D01*
X122189524Y-89808571D02*
X122189524Y-90332380D01*
X122665714Y-90332380D02*
X122665714Y-89665714D01*
X122665714Y-89332380D02*
X122618095Y-89380000D01*
X122618095Y-89380000D02*
X122665714Y-89427619D01*
X122665714Y-89427619D02*
X122713333Y-89380000D01*
X122713333Y-89380000D02*
X122665714Y-89332380D01*
X122665714Y-89332380D02*
X122665714Y-89427619D01*
X123570475Y-90284761D02*
X123475237Y-90332380D01*
X123475237Y-90332380D02*
X123284761Y-90332380D01*
X123284761Y-90332380D02*
X123189523Y-90284761D01*
X123189523Y-90284761D02*
X123141904Y-90237142D01*
X123141904Y-90237142D02*
X123094285Y-90141904D01*
X123094285Y-90141904D02*
X123094285Y-89856190D01*
X123094285Y-89856190D02*
X123141904Y-89760952D01*
X123141904Y-89760952D02*
X123189523Y-89713333D01*
X123189523Y-89713333D02*
X123284761Y-89665714D01*
X123284761Y-89665714D02*
X123475237Y-89665714D01*
X123475237Y-89665714D02*
X123570475Y-89713333D01*
X122338095Y-44251428D02*
X123100000Y-44251428D01*
X122719047Y-44632380D02*
X122719047Y-43870476D01*
X122082380Y-51311904D02*
X121082380Y-51311904D01*
X121558571Y-51311904D02*
X121558571Y-50740476D01*
X122082380Y-50740476D02*
X121082380Y-50740476D01*
X122082380Y-50264285D02*
X121082380Y-50264285D01*
X121082380Y-50264285D02*
X121082380Y-49883333D01*
X121082380Y-49883333D02*
X121130000Y-49788095D01*
X121130000Y-49788095D02*
X121177619Y-49740476D01*
X121177619Y-49740476D02*
X121272857Y-49692857D01*
X121272857Y-49692857D02*
X121415714Y-49692857D01*
X121415714Y-49692857D02*
X121510952Y-49740476D01*
X121510952Y-49740476D02*
X121558571Y-49788095D01*
X121558571Y-49788095D02*
X121606190Y-49883333D01*
X121606190Y-49883333D02*
X121606190Y-50264285D01*
X122082380Y-48188095D02*
X122082380Y-48664285D01*
X122082380Y-48664285D02*
X121082380Y-48664285D01*
X124400000Y-46350000D02*
X123500000Y-45650000D01*
X130200000Y-51950000D02*
X130200000Y-46650000D01*
X126914859Y-47271874D02*
X127414859Y-46871874D01*
X125100000Y-45450000D02*
X125300000Y-46250000D01*
X123500000Y-45650000D02*
X123500000Y-43750000D01*
X128900000Y-45450000D02*
X128900000Y-43750000D01*
X122500000Y-51950000D02*
X130200000Y-51950000D01*
X126814859Y-47271874D02*
X126601007Y-47273352D01*
X127414859Y-47271874D02*
X127710380Y-47271878D01*
X122500000Y-51950000D02*
X122500000Y-48150000D01*
X126559117Y-45547911D02*
X126700000Y-45850000D01*
X127414859Y-47671874D02*
X126914859Y-47271874D01*
X126814859Y-47671874D02*
X126814859Y-46871874D01*
X123200000Y-75950000D02*
X128800000Y-75950000D01*
X128800000Y-75950000D02*
X128800000Y-85350000D01*
X128800000Y-85350000D02*
X123200000Y-85350000D01*
X123200000Y-85350000D02*
X123200000Y-75950000D01*
X124400000Y-48150000D02*
X124400000Y-46350000D01*
X124700000Y-46250000D02*
X127000000Y-46250000D01*
X122500000Y-48150000D02*
X124400000Y-48150000D01*
X126300000Y-46250000D02*
X126600000Y-45450000D01*
X126559117Y-45547911D02*
X126249831Y-45689448D01*
X128900000Y-70250000D02*
X134700000Y-70250000D01*
X134700000Y-70250000D02*
X134700000Y-79350000D01*
X134700000Y-79350000D02*
X128900000Y-79350000D01*
X128900000Y-79350000D02*
X128900000Y-70250000D01*
X130200000Y-46650000D02*
X128900000Y-45450000D01*
X127414859Y-46871874D02*
X127414859Y-47671874D01*
%TO.C,J6*%
X46437257Y-74558884D02*
X47151541Y-74560131D01*
X47151541Y-74560131D02*
X47294315Y-74607999D01*
X47294315Y-74607999D02*
X47389387Y-74703403D01*
X47389387Y-74703403D02*
X47436756Y-74846344D01*
X47436756Y-74846344D02*
X47436590Y-74941581D01*
X46438836Y-73654124D02*
X46438503Y-73844599D01*
X46438503Y-73844599D02*
X46485956Y-73939921D01*
X46485956Y-73939921D02*
X46533492Y-73987623D01*
X46533492Y-73987623D02*
X46676183Y-74083110D01*
X46676183Y-74083110D02*
X46866575Y-74131061D01*
X46866575Y-74131061D02*
X47247527Y-74131726D01*
X47247527Y-74131726D02*
X47342848Y-74084273D01*
X47342848Y-74084273D02*
X47390550Y-74036738D01*
X47390550Y-74036738D02*
X47438336Y-73941583D01*
X47438336Y-73941583D02*
X47438668Y-73751107D01*
X47438668Y-73751107D02*
X47391215Y-73655786D01*
X47391215Y-73655786D02*
X47343679Y-73608084D01*
X47343679Y-73608084D02*
X47248525Y-73560299D01*
X47248525Y-73560299D02*
X47010430Y-73559883D01*
X47010430Y-73559883D02*
X46915109Y-73607336D01*
X46915109Y-73607336D02*
X46867407Y-73654872D01*
X46867407Y-73654872D02*
X46819621Y-73750026D01*
X46819621Y-73750026D02*
X46819289Y-73940502D01*
X46819289Y-73940502D02*
X46866742Y-74035823D01*
X46866742Y-74035823D02*
X46914277Y-74083525D01*
X46914277Y-74083525D02*
X47009432Y-74131311D01*
%TO.C,J5*%
X62603851Y-51667898D02*
X63072465Y-52206977D01*
X63072465Y-52206977D02*
X63130249Y-52346033D01*
X63130249Y-52346033D02*
X63120854Y-52480392D01*
X63120854Y-52480392D02*
X63044279Y-52610053D01*
X63044279Y-52610053D02*
X62972402Y-52672535D01*
X63322622Y-51043080D02*
X62963237Y-51355489D01*
X62963237Y-51355489D02*
X63239707Y-51746115D01*
X63239707Y-51746115D02*
X63244405Y-51678936D01*
X63244405Y-51678936D02*
X63285041Y-51580516D01*
X63285041Y-51580516D02*
X63464734Y-51424311D01*
X63464734Y-51424311D02*
X63567852Y-51397768D01*
X63567852Y-51397768D02*
X63635031Y-51402466D01*
X63635031Y-51402466D02*
X63733452Y-51443102D01*
X63733452Y-51443102D02*
X63889656Y-51622794D01*
X63889656Y-51622794D02*
X63916200Y-51725912D01*
X63916200Y-51725912D02*
X63911502Y-51793092D01*
X63911502Y-51793092D02*
X63870866Y-51891512D01*
X63870866Y-51891512D02*
X63691173Y-52047717D01*
X63691173Y-52047717D02*
X63588055Y-52074260D01*
X63588055Y-52074260D02*
X63520875Y-52069562D01*
%TO.C,R4*%
X50637837Y-79193322D02*
X50161647Y-79526655D01*
X50637837Y-79764750D02*
X49637837Y-79764750D01*
X49637837Y-79764750D02*
X49637837Y-79383798D01*
X49637837Y-79383798D02*
X49685457Y-79288560D01*
X49685457Y-79288560D02*
X49733076Y-79240941D01*
X49733076Y-79240941D02*
X49828314Y-79193322D01*
X49828314Y-79193322D02*
X49971171Y-79193322D01*
X49971171Y-79193322D02*
X50066409Y-79240941D01*
X50066409Y-79240941D02*
X50114028Y-79288560D01*
X50114028Y-79288560D02*
X50161647Y-79383798D01*
X50161647Y-79383798D02*
X50161647Y-79764750D01*
X49971171Y-78336179D02*
X50637837Y-78336179D01*
X49590218Y-78574274D02*
X50304504Y-78812369D01*
X50304504Y-78812369D02*
X50304504Y-78193322D01*
%TO.C,D1*%
X45807837Y-79764750D02*
X44807837Y-79764750D01*
X44807837Y-79764750D02*
X44807837Y-79526655D01*
X44807837Y-79526655D02*
X44855457Y-79383798D01*
X44855457Y-79383798D02*
X44950695Y-79288560D01*
X44950695Y-79288560D02*
X45045933Y-79240941D01*
X45045933Y-79240941D02*
X45236409Y-79193322D01*
X45236409Y-79193322D02*
X45379266Y-79193322D01*
X45379266Y-79193322D02*
X45569742Y-79240941D01*
X45569742Y-79240941D02*
X45664980Y-79288560D01*
X45664980Y-79288560D02*
X45760218Y-79383798D01*
X45760218Y-79383798D02*
X45807837Y-79526655D01*
X45807837Y-79526655D02*
X45807837Y-79764750D01*
X45807837Y-78240941D02*
X45807837Y-78812369D01*
X45807837Y-78526655D02*
X44807837Y-78526655D01*
X44807837Y-78526655D02*
X44950695Y-78621893D01*
X44950695Y-78621893D02*
X45045933Y-78717131D01*
X45045933Y-78717131D02*
X45093552Y-78812369D01*
%TO.C,J23*%
X145282619Y-75240476D02*
X144568333Y-75240476D01*
X144568333Y-75240476D02*
X144425476Y-75192857D01*
X144425476Y-75192857D02*
X144330238Y-75097619D01*
X144330238Y-75097619D02*
X144282619Y-74954762D01*
X144282619Y-74954762D02*
X144282619Y-74859524D01*
X145187380Y-75669048D02*
X145235000Y-75716667D01*
X145235000Y-75716667D02*
X145282619Y-75811905D01*
X145282619Y-75811905D02*
X145282619Y-76050000D01*
X145282619Y-76050000D02*
X145235000Y-76145238D01*
X145235000Y-76145238D02*
X145187380Y-76192857D01*
X145187380Y-76192857D02*
X145092142Y-76240476D01*
X145092142Y-76240476D02*
X144996904Y-76240476D01*
X144996904Y-76240476D02*
X144854047Y-76192857D01*
X144854047Y-76192857D02*
X144282619Y-75621429D01*
X144282619Y-75621429D02*
X144282619Y-76240476D01*
X145282619Y-76573810D02*
X145282619Y-77192857D01*
X145282619Y-77192857D02*
X144901666Y-76859524D01*
X144901666Y-76859524D02*
X144901666Y-77002381D01*
X144901666Y-77002381D02*
X144854047Y-77097619D01*
X144854047Y-77097619D02*
X144806428Y-77145238D01*
X144806428Y-77145238D02*
X144711190Y-77192857D01*
X144711190Y-77192857D02*
X144473095Y-77192857D01*
X144473095Y-77192857D02*
X144377857Y-77145238D01*
X144377857Y-77145238D02*
X144330238Y-77097619D01*
X144330238Y-77097619D02*
X144282619Y-77002381D01*
X144282619Y-77002381D02*
X144282619Y-76716667D01*
X144282619Y-76716667D02*
X144330238Y-76621429D01*
X144330238Y-76621429D02*
X144377857Y-76573810D01*
%TO.C,J24*%
X110667380Y-79459523D02*
X111381666Y-79459523D01*
X111381666Y-79459523D02*
X111524523Y-79507142D01*
X111524523Y-79507142D02*
X111619761Y-79602380D01*
X111619761Y-79602380D02*
X111667380Y-79745237D01*
X111667380Y-79745237D02*
X111667380Y-79840475D01*
X110762619Y-79030951D02*
X110715000Y-78983332D01*
X110715000Y-78983332D02*
X110667380Y-78888094D01*
X110667380Y-78888094D02*
X110667380Y-78649999D01*
X110667380Y-78649999D02*
X110715000Y-78554761D01*
X110715000Y-78554761D02*
X110762619Y-78507142D01*
X110762619Y-78507142D02*
X110857857Y-78459523D01*
X110857857Y-78459523D02*
X110953095Y-78459523D01*
X110953095Y-78459523D02*
X111095952Y-78507142D01*
X111095952Y-78507142D02*
X111667380Y-79078570D01*
X111667380Y-79078570D02*
X111667380Y-78459523D01*
X111000714Y-77602380D02*
X111667380Y-77602380D01*
X110619761Y-77840475D02*
X111334047Y-78078570D01*
X111334047Y-78078570D02*
X111334047Y-77459523D01*
%TO.C,R5*%
X73079789Y-78752189D02*
X72746456Y-78275999D01*
X72508361Y-78752189D02*
X72508361Y-77752189D01*
X72508361Y-77752189D02*
X72889313Y-77752189D01*
X72889313Y-77752189D02*
X72984551Y-77799809D01*
X72984551Y-77799809D02*
X73032170Y-77847428D01*
X73032170Y-77847428D02*
X73079789Y-77942666D01*
X73079789Y-77942666D02*
X73079789Y-78085523D01*
X73079789Y-78085523D02*
X73032170Y-78180761D01*
X73032170Y-78180761D02*
X72984551Y-78228380D01*
X72984551Y-78228380D02*
X72889313Y-78275999D01*
X72889313Y-78275999D02*
X72508361Y-78275999D01*
X73984551Y-77752189D02*
X73508361Y-77752189D01*
X73508361Y-77752189D02*
X73460742Y-78228380D01*
X73460742Y-78228380D02*
X73508361Y-78180761D01*
X73508361Y-78180761D02*
X73603599Y-78133142D01*
X73603599Y-78133142D02*
X73841694Y-78133142D01*
X73841694Y-78133142D02*
X73936932Y-78180761D01*
X73936932Y-78180761D02*
X73984551Y-78228380D01*
X73984551Y-78228380D02*
X74032170Y-78323618D01*
X74032170Y-78323618D02*
X74032170Y-78561713D01*
X74032170Y-78561713D02*
X73984551Y-78656951D01*
X73984551Y-78656951D02*
X73936932Y-78704570D01*
X73936932Y-78704570D02*
X73841694Y-78752189D01*
X73841694Y-78752189D02*
X73603599Y-78752189D01*
X73603599Y-78752189D02*
X73508361Y-78704570D01*
X73508361Y-78704570D02*
X73460742Y-78656951D01*
%TO.C,J3*%
X72683788Y-69745228D02*
X72683788Y-69030942D01*
X72683788Y-69030942D02*
X72731407Y-68888085D01*
X72731407Y-68888085D02*
X72826645Y-68792847D01*
X72826645Y-68792847D02*
X72969502Y-68745228D01*
X72969502Y-68745228D02*
X73064740Y-68745228D01*
X72302835Y-69745228D02*
X71683788Y-69745228D01*
X71683788Y-69745228D02*
X72017121Y-69364275D01*
X72017121Y-69364275D02*
X71874264Y-69364275D01*
X71874264Y-69364275D02*
X71779026Y-69316656D01*
X71779026Y-69316656D02*
X71731407Y-69269037D01*
X71731407Y-69269037D02*
X71683788Y-69173799D01*
X71683788Y-69173799D02*
X71683788Y-68935704D01*
X71683788Y-68935704D02*
X71731407Y-68840466D01*
X71731407Y-68840466D02*
X71779026Y-68792847D01*
X71779026Y-68792847D02*
X71874264Y-68745228D01*
X71874264Y-68745228D02*
X72159978Y-68745228D01*
X72159978Y-68745228D02*
X72255216Y-68792847D01*
X72255216Y-68792847D02*
X72302835Y-68840466D01*
D13*
%TO.C,J6*%
X50467446Y-72226492D02*
X49317447Y-72224485D01*
X49317447Y-72224485D02*
X49315615Y-73274483D01*
X49315615Y-73274483D02*
X48325616Y-73272755D01*
X52435401Y-73399929D02*
X52432119Y-75279926D01*
X50460080Y-76446486D02*
X49310082Y-76444478D01*
X49310082Y-76444478D02*
X49311915Y-75394480D01*
%TO.C,TP12*%
X46422494Y-59938771D02*
G75*
G03*
X46422494Y-59938771I-700000J0D01*
G01*
%TO.C,TP15*%
X46422494Y-62438771D02*
G75*
G03*
X46422494Y-62438771I-700000J0D01*
G01*
%TO.C,TP9*%
X48922495Y-69938771D02*
G75*
G03*
X48922495Y-69938771I-700000J0D01*
G01*
%TO.C,TP6*%
X42470457Y-84926656D02*
G75*
G03*
X42470457Y-84926656I-700000J0D01*
G01*
%TO.C,TP7*%
X48922495Y-67438771D02*
G75*
G03*
X48922495Y-67438771I-700000J0D01*
G01*
%TO.C,TP3*%
X42461881Y-77086893D02*
G75*
G03*
X42461881Y-77086893I-700000J0D01*
G01*
%TO.C,TP18*%
X48370457Y-84426656D02*
G75*
G03*
X48370457Y-84426656I-700000J0D01*
G01*
%TO.C,TP17*%
X48370457Y-81926656D02*
G75*
G03*
X48370457Y-81926656I-700000J0D01*
G01*
%TO.C,TP13*%
X48922495Y-65038771D02*
G75*
G03*
X48922495Y-65038771I-700000J0D01*
G01*
%TO.C,TP16*%
X46422494Y-64938771D02*
G75*
G03*
X46422494Y-64938771I-700000J0D01*
G01*
%TO.C,TP8*%
X48922495Y-59938771D02*
G75*
G03*
X48922495Y-59938771I-700000J0D01*
G01*
%TO.C,TP11*%
X46422494Y-67438771D02*
G75*
G03*
X46422494Y-67438771I-700000J0D01*
G01*
D14*
%TO.C,J5*%
X63751073Y-50218910D02*
X52120999Y-60328780D01*
X59945931Y-45841594D02*
X63751073Y-50218910D01*
X52120999Y-60328780D02*
X48315857Y-55951464D01*
X48315857Y-55951464D02*
X59945931Y-45841594D01*
X54105131Y-57763420D02*
G75*
G03*
X54105131Y-57763420I-100000J0D01*
G01*
D13*
%TO.C,TP10*%
X46422494Y-69938771D02*
G75*
G03*
X46422494Y-69938771I-700000J0D01*
G01*
%TO.C,R4*%
X48590457Y-79194277D02*
X48590457Y-78859035D01*
X49350457Y-79194277D02*
X49350457Y-78859035D01*
%TO.C,TP2*%
X42461881Y-79586893D02*
G75*
G03*
X42461881Y-79586893I-700000J0D01*
G01*
%TO.C,TP14*%
X48922495Y-62438771D02*
G75*
G03*
X48922495Y-62438771I-700000J0D01*
G01*
%TO.C,TP20*%
X50870457Y-84426656D02*
G75*
G03*
X50870457Y-84426656I-700000J0D01*
G01*
%TO.C,TP4*%
X42461881Y-74586892D02*
G75*
G03*
X42461881Y-74586892I-700000J0D01*
G01*
%TO.C,TP5*%
X44870457Y-84926656D02*
G75*
G03*
X44870457Y-84926656I-700000J0D01*
G01*
%TO.C,TP1*%
X42461881Y-82086892D02*
G75*
G03*
X42461881Y-82086892I-700000J0D01*
G01*
%TO.C,TP19*%
X50870457Y-81926656D02*
G75*
G03*
X50870457Y-81926656I-700000J0D01*
G01*
%TO.C,D1*%
X46135457Y-80686656D02*
X47605457Y-80686656D01*
X47605457Y-80686656D02*
X47605457Y-78226656D01*
X46135457Y-78226656D02*
X46135457Y-80686656D01*
%TO.C,C16*%
X133650165Y-82254000D02*
X133881835Y-82254000D01*
X133650165Y-82974000D02*
X133881835Y-82974000D01*
%TO.C,J11*%
X135100000Y-47050000D02*
G75*
G03*
X135100000Y-47050000I-700000J0D01*
G01*
%TO.C,J23*%
X137440000Y-73990000D02*
X138490000Y-73990000D01*
X137440000Y-78010000D02*
X137440000Y-73990000D01*
X138490000Y-78010000D02*
X137440000Y-78010000D01*
X138490000Y-78433333D02*
X138490000Y-78010000D01*
X142310000Y-78010000D02*
X143360000Y-78010000D01*
X143360000Y-73990000D02*
X142310000Y-73990000D01*
X143360000Y-78010000D02*
X143360000Y-73990000D01*
%TO.C,J12*%
X133805627Y-44890795D02*
G75*
G03*
X133805627Y-44890795I-700000J0D01*
G01*
%TO.C,J20*%
X126592000Y-47308000D02*
G75*
G03*
X126592000Y-47308000I-700000J0D01*
G01*
%TO.C,SW2*%
X127800000Y-53900000D02*
X127800000Y-54000000D01*
X127800000Y-52400000D02*
X123400000Y-52400000D01*
X123400000Y-55500000D02*
X127800000Y-55500000D01*
X123400000Y-53900000D02*
X123400000Y-54000000D01*
%TO.C,C77*%
X143646335Y-55400500D02*
X143414665Y-55400500D01*
X143646335Y-54680500D02*
X143414665Y-54680500D01*
%TO.C,R47*%
X127617621Y-85030000D02*
X127282379Y-85030000D01*
X127617621Y-84270000D02*
X127282379Y-84270000D01*
%TO.C,J9*%
X132600000Y-47050000D02*
G75*
G03*
X132600000Y-47050000I-700000J0D01*
G01*
%TO.C,C78*%
X126760000Y-49478165D02*
X126760000Y-49709835D01*
X126040000Y-49478165D02*
X126040000Y-49709835D01*
%TO.C,C10*%
X132860000Y-72784165D02*
X132860000Y-73015835D01*
X132140000Y-72784165D02*
X132140000Y-73015835D01*
%TO.C,J21*%
X127862000Y-44890795D02*
G75*
G03*
X127862000Y-44890795I-700000J0D01*
G01*
%TO.C,J15*%
X138805627Y-44890795D02*
G75*
G03*
X138805627Y-44890795I-700000J0D01*
G01*
%TO.C,C58*%
X121690000Y-74565835D02*
X121690000Y-74334165D01*
X122410000Y-74565835D02*
X122410000Y-74334165D01*
%TO.C,J6*%
X115400000Y-87650000D02*
G75*
G03*
X115400000Y-87650000I-700000J0D01*
G01*
%TO.C,C79*%
X128343500Y-49478165D02*
X128343500Y-49709835D01*
X127623500Y-49478165D02*
X127623500Y-49709835D01*
%TO.C,C75*%
X143615835Y-67510000D02*
X143384165Y-67510000D01*
X143615835Y-66790000D02*
X143384165Y-66790000D01*
%TO.C,R7*%
X131370000Y-78315121D02*
X131370000Y-77979879D01*
X132130000Y-78315121D02*
X132130000Y-77979879D01*
%TO.C,R2*%
X150910500Y-53622879D02*
X150910500Y-53958121D01*
X150150500Y-53622879D02*
X150150500Y-53958121D01*
%TO.C,C13*%
X133612500Y-75266665D02*
X133612500Y-75498335D01*
X132892500Y-75266665D02*
X132892500Y-75498335D01*
%TO.C,R43*%
X127822500Y-82617621D02*
X127822500Y-82282379D01*
X128582500Y-82617621D02*
X128582500Y-82282379D01*
%TO.C,R73*%
X123732000Y-49426379D02*
X123732000Y-49761621D01*
X122972000Y-49426379D02*
X122972000Y-49761621D01*
%TO.C,R72*%
X125256000Y-49426379D02*
X125256000Y-49761621D01*
X124496000Y-49426379D02*
X124496000Y-49761621D01*
%TO.C,C14*%
X133360000Y-78031665D02*
X133360000Y-78263335D01*
X132640000Y-78031665D02*
X132640000Y-78263335D01*
%TO.C,R4*%
X151270000Y-70620121D02*
X151270000Y-70284879D01*
X152030000Y-70620121D02*
X152030000Y-70284879D01*
%TO.C,C4*%
X143452500Y-52008665D02*
X143452500Y-52240335D01*
X142732500Y-52008665D02*
X142732500Y-52240335D01*
%TO.C,J14*%
X136305627Y-44890795D02*
G75*
G03*
X136305627Y-44890795I-700000J0D01*
G01*
%TO.C,R5*%
X143698121Y-59170500D02*
X143362879Y-59170500D01*
X143698121Y-58410500D02*
X143362879Y-58410500D01*
%TO.C,C1*%
X141340000Y-61133335D02*
X141340000Y-60901665D01*
X142060000Y-61133335D02*
X142060000Y-60901665D01*
%TO.C,R74*%
X142320000Y-65317621D02*
X142320000Y-64982379D01*
X143080000Y-65317621D02*
X143080000Y-64982379D01*
%TO.C,C6*%
X150784165Y-68092500D02*
X151015835Y-68092500D01*
X150784165Y-68812500D02*
X151015835Y-68812500D01*
%TO.C,J8*%
X123671000Y-47054000D02*
G75*
G03*
X123671000Y-47054000I-700000J0D01*
G01*
%TO.C,R1*%
X149362879Y-60910500D02*
X149698121Y-60910500D01*
X149362879Y-61670500D02*
X149698121Y-61670500D01*
%TO.C,J7*%
X122401000Y-44895000D02*
G75*
G03*
X122401000Y-44895000I-700000J0D01*
G01*
%TO.C,J13*%
X137600000Y-47050000D02*
G75*
G03*
X137600000Y-47050000I-700000J0D01*
G01*
%TO.C,C9*%
X130640000Y-73015835D02*
X130640000Y-72784165D01*
X131360000Y-73015835D02*
X131360000Y-72784165D01*
%TO.C,C54*%
X123810000Y-74334165D02*
X123810000Y-74565835D01*
X123090000Y-74334165D02*
X123090000Y-74565835D01*
%TO.C,C49*%
X127712500Y-79734165D02*
X127712500Y-79965835D01*
X126992500Y-79734165D02*
X126992500Y-79965835D01*
%TO.C,C15*%
X136010000Y-81736165D02*
X136010000Y-81967835D01*
X135290000Y-81736165D02*
X135290000Y-81967835D01*
%TO.C,C47*%
X122853500Y-72810000D02*
X122621830Y-72810000D01*
X122853500Y-72090000D02*
X122621830Y-72090000D01*
%TO.C,C12*%
X129892500Y-75465835D02*
X129892500Y-75234165D01*
X130612500Y-75465835D02*
X130612500Y-75234165D01*
%TO.C,R6*%
X130880000Y-77979879D02*
X130880000Y-78315121D01*
X130120000Y-77979879D02*
X130120000Y-78315121D01*
%TO.C,J10*%
X131329627Y-44890795D02*
G75*
G03*
X131329627Y-44890795I-700000J0D01*
G01*
%TO.C,J24*%
X118360000Y-80760000D02*
X117310000Y-80760000D01*
X118360000Y-76740000D02*
X118360000Y-80760000D01*
X117310000Y-76740000D02*
X118360000Y-76740000D01*
X117310000Y-76316667D02*
X117310000Y-76740000D01*
X113490000Y-76740000D02*
X112440000Y-76740000D01*
X112440000Y-80760000D02*
X113490000Y-80760000D01*
X112440000Y-76740000D02*
X112440000Y-80760000D01*
%TO.C,R42*%
X125620000Y-77417621D02*
X125620000Y-77082379D01*
X126380000Y-77417621D02*
X126380000Y-77082379D01*
%TO.C,R44*%
X126972500Y-77417621D02*
X126972500Y-77082379D01*
X127732500Y-77417621D02*
X127732500Y-77082379D01*
%TO.C,C5*%
X145702500Y-52008665D02*
X145702500Y-52240335D01*
X144982500Y-52008665D02*
X144982500Y-52240335D01*
%TO.C,R10*%
X134380000Y-72732379D02*
X134380000Y-73067621D01*
X133620000Y-72732379D02*
X133620000Y-73067621D01*
%TO.C,C8*%
X146184165Y-64474000D02*
X146415835Y-64474000D01*
X146184165Y-65194000D02*
X146415835Y-65194000D01*
%TO.C,C43*%
X125110000Y-77134165D02*
X125110000Y-77365835D01*
X124390000Y-77134165D02*
X124390000Y-77365835D01*
%TO.C,J18*%
X141305627Y-44890795D02*
G75*
G03*
X141305627Y-44890795I-700000J0D01*
G01*
%TO.C,J17*%
X140100000Y-47050000D02*
G75*
G03*
X140100000Y-47050000I-700000J0D01*
G01*
%TO.C,C17*%
X133887500Y-80965835D02*
X133887500Y-80734165D01*
X134607500Y-80965835D02*
X134607500Y-80734165D01*
%TO.C,R53*%
X123322500Y-82617621D02*
X123322500Y-82282379D01*
X124082500Y-82617621D02*
X124082500Y-82282379D01*
%TO.C,J19*%
X129132000Y-47308000D02*
G75*
G03*
X129132000Y-47308000I-700000J0D01*
G01*
%TO.C,C7*%
X145340000Y-66727835D02*
X145340000Y-66496165D01*
X146060000Y-66727835D02*
X146060000Y-66496165D01*
%TO.C,C11*%
X132110000Y-75284165D02*
X132110000Y-75515835D01*
X131390000Y-75284165D02*
X131390000Y-75515835D01*
%TO.C,R8*%
X130082379Y-70470000D02*
X130417621Y-70470000D01*
X130082379Y-71230000D02*
X130417621Y-71230000D01*
%TO.C,C76*%
X142740000Y-69565835D02*
X142740000Y-69334165D01*
X143460000Y-69565835D02*
X143460000Y-69334165D01*
%TO.C,D1*%
X151015500Y-57555500D02*
X149545500Y-57555500D01*
X149545500Y-57555500D02*
X149545500Y-59840500D01*
X151015500Y-59840500D02*
X151015500Y-57555500D01*
%TO.C,C52*%
X124192500Y-79933335D02*
X124192500Y-79701665D01*
X124912500Y-79933335D02*
X124912500Y-79701665D01*
%TO.C,R9*%
X133082379Y-70470000D02*
X133417621Y-70470000D01*
X133082379Y-71230000D02*
X133417621Y-71230000D01*
%TO.C,J4*%
X119400000Y-91250000D02*
G75*
G03*
X119400000Y-91250000I-700000J0D01*
G01*
%TO.C,R11*%
X129880000Y-72732379D02*
X129880000Y-73067621D01*
X129120000Y-72732379D02*
X129120000Y-73067621D01*
%TO.C,C50*%
X125592500Y-79965835D02*
X125592500Y-79734165D01*
X126312500Y-79965835D02*
X126312500Y-79734165D01*
%TO.C,C3*%
X143414665Y-57180500D02*
X143646335Y-57180500D01*
X143414665Y-57900500D02*
X143646335Y-57900500D01*
%TO.C,R3*%
X148948121Y-54670500D02*
X148612879Y-54670500D01*
X148948121Y-53910500D02*
X148612879Y-53910500D01*
%TO.C,R49*%
X124617621Y-85030000D02*
X124282379Y-85030000D01*
X124617621Y-84270000D02*
X124282379Y-84270000D01*
%TO.C,J16*%
X142600000Y-47050000D02*
G75*
G03*
X142600000Y-47050000I-700000J0D01*
G01*
%TO.C,J3*%
X121150000Y-93000000D02*
G75*
G03*
X121150000Y-93000000I-700000J0D01*
G01*
%TO.C,C48*%
X127062500Y-82334165D02*
X127062500Y-82565835D01*
X126342500Y-82334165D02*
X126342500Y-82565835D01*
%TO.C,R75*%
X143720000Y-65317621D02*
X143720000Y-64982379D01*
X144480000Y-65317621D02*
X144480000Y-64982379D01*
%TO.C,C2*%
X143414665Y-55930500D02*
X143646335Y-55930500D01*
X143414665Y-56650500D02*
X143646335Y-56650500D01*
D15*
%TO.C,J1*%
X138278700Y-95522500D02*
X138278700Y-93936569D01*
X123521300Y-95522500D02*
X138278700Y-95522500D01*
X123521300Y-93936569D02*
X123521300Y-95522500D01*
D13*
%TO.C,J22*%
X125322000Y-44890795D02*
G75*
G03*
X125322000Y-44890795I-700000J0D01*
G01*
%TO.C,C56*%
X124842500Y-82565835D02*
X124842500Y-82334165D01*
X125562500Y-82565835D02*
X125562500Y-82334165D01*
%TO.C,J5*%
X117400000Y-89450000D02*
G75*
G03*
X117400000Y-89450000I-700000J0D01*
G01*
%TO.C,R5*%
X73414077Y-77594809D02*
X73078835Y-77594809D01*
X73414077Y-76834809D02*
X73078835Y-76834809D01*
D15*
%TO.C,J3*%
X78319455Y-74700609D02*
X78319455Y-70636609D01*
X65873455Y-70636609D02*
X65873455Y-74700609D01*
D16*
X65619455Y-74014809D02*
G75*
G03*
X65619455Y-74014809I-381000J0D01*
G01*
%TD*%
M02*
