%TF.GenerationSoftware,KiCad,Pcbnew,(7.0.0)*%
%TF.CreationDate,2023-05-27T11:58:37+01:00*%
%TF.ProjectId,all,616c6c2e-6b69-4636-9164-5f7063625858,rev?*%
%TF.SameCoordinates,Original*%
%TF.FileFunction,Profile,NP*%
%FSLAX46Y46*%
G04 Gerber Fmt 4.6, Leading zero omitted, Abs format (unit mm)*
G04 Created by KiCad (PCBNEW (7.0.0)) date 2023-05-27 11:58:37*
%MOMM*%
%LPD*%
G01*
G04 APERTURE LIST*
%TA.AperFunction,Profile*%
%ADD10C,0.200000*%
%TD*%
%TA.AperFunction,Profile*%
%ADD11C,0.100000*%
%TD*%
G04 APERTURE END LIST*
D10*
X78628546Y-56554483D02*
X87309154Y-59452228D01*
X40267553Y-63957838D02*
X40236116Y-93983244D01*
X58189574Y-66200089D02*
X56824246Y-68026526D01*
X47866241Y-48960753D02*
X68752029Y-43372794D01*
X68688433Y-49236831D02*
G75*
G03*
X68688433Y-49236831I-1400000J0D01*
G01*
X54803434Y-72301706D02*
X53450932Y-70762703D01*
X52865598Y-60241089D02*
G75*
G03*
X53032926Y-61832165I680443J-732777D01*
G01*
X50513665Y-93994005D02*
X53303265Y-91213955D01*
X53032926Y-61832165D02*
X57901771Y-64743051D01*
X88216073Y-52622172D02*
X89491395Y-52986044D01*
X78628546Y-56554483D02*
X78726153Y-55721118D01*
X39997807Y-56700927D02*
X37924065Y-60442057D01*
X49655350Y-88910489D02*
G75*
G03*
X49655350Y-88910489I-1499999J0D01*
G01*
X70475058Y-53833956D02*
X76859108Y-55962658D01*
X44264058Y-91236906D02*
G75*
G03*
X44264058Y-91236906I-1400000J0D01*
G01*
X47866241Y-48960753D02*
X43599594Y-56657986D01*
X70802766Y-47653848D02*
X75195620Y-45211265D01*
X75195620Y-45211265D02*
X85773491Y-48229319D01*
X55162175Y-67730861D02*
G75*
G03*
X54116713Y-68222922I-175115J-984597D01*
G01*
X43599594Y-56657986D02*
X39997807Y-56700927D01*
X55162175Y-67730861D02*
X56824246Y-68026526D01*
X56406775Y-56952660D02*
X60641367Y-53830414D01*
X40236116Y-93983244D02*
X50513665Y-93994005D01*
X78726152Y-55721118D02*
G75*
G03*
X77270458Y-55326656I-755695J94463D01*
G01*
X61919736Y-53442253D02*
G75*
G03*
X60641367Y-53830415I-91466J-1997930D01*
G01*
X67815642Y-46801568D02*
X68752029Y-43372794D01*
X53331765Y-69610094D02*
G75*
G03*
X53450932Y-70762703I870223J-492493D01*
G01*
X90091647Y-54432478D02*
G75*
G03*
X89491395Y-52986044I-874589J484822D01*
G01*
X85773491Y-48229319D02*
X88216073Y-52622172D01*
X42828767Y-59972663D02*
G75*
G03*
X42828767Y-59972663I-1499999J0D01*
G01*
X61919736Y-53442252D02*
X70475058Y-53833956D01*
X58189574Y-66200089D02*
G75*
G03*
X57901771Y-64743051I-801041J598717D01*
G01*
X54803435Y-72301706D02*
G75*
G03*
X53303266Y-91213955I19897669J-11093958D01*
G01*
X53331764Y-69610094D02*
X54116712Y-68222922D01*
X87309154Y-59452228D02*
X90091646Y-54432478D01*
X70802766Y-47653848D02*
X67815642Y-46801568D01*
X87552344Y-55607816D02*
G75*
G03*
X87552344Y-55607816I-1500001J0D01*
G01*
X76859108Y-55962658D02*
X77270457Y-55326656D01*
X56406775Y-56952660D02*
X52865598Y-60241089D01*
X37924065Y-60442057D02*
X40267553Y-63957838D01*
D11*
X173214160Y-79861560D02*
X162214160Y-91611560D01*
X154714160Y-91611560D01*
X154714160Y-63611560D01*
X173214160Y-63611560D01*
X173214160Y-79861560D01*
X174700000Y-54550000D02*
X168850000Y-61800000D01*
X158450000Y-61800000D01*
X158450000Y-54800000D01*
X155450000Y-54800000D01*
X155450000Y-45300000D01*
X174700000Y-45300000D01*
X174700000Y-54550000D01*
D10*
X115374832Y-52101304D02*
G75*
G03*
X115374832Y-52101304I-1500000J0D01*
G01*
X107874832Y-53201304D02*
X112801372Y-47330082D01*
X141362463Y-43601304D02*
X152874832Y-53201304D01*
X138993897Y-94601304D02*
X120362463Y-94601304D01*
X144966746Y-88899298D02*
G75*
G03*
X147182875Y-88305488I684024J1879444D01*
G01*
X116255494Y-50228434D02*
G75*
G03*
X120362463Y-48313323I1606968J1915113D01*
G01*
X120362463Y-94601304D02*
X107874832Y-83601304D01*
X107874832Y-83601304D02*
X107874832Y-53201304D01*
X120374832Y-53601304D02*
G75*
G03*
X120374832Y-53601304I-1000000J0D01*
G01*
X150374832Y-81101304D02*
G75*
G03*
X150374832Y-81101304I-1000000J0D01*
G01*
X138993897Y-90295729D02*
X138993897Y-94601304D01*
X152874832Y-53201304D02*
X152874832Y-81522077D01*
X112801372Y-47330082D02*
X116255494Y-50228434D01*
X147874832Y-84601304D02*
G75*
G03*
X147874832Y-84601304I-1500000J0D01*
G01*
X142348947Y-87946497D02*
G75*
G03*
X138993897Y-90295729I-855083J-2349184D01*
G01*
X152874832Y-81522077D02*
X147182875Y-88305488D01*
X120362463Y-48313323D02*
X120362463Y-43601304D01*
X144966746Y-88899298D02*
X142348947Y-87946497D01*
X120362463Y-43601304D02*
X141362463Y-43601304D01*
X80629607Y-71809245D02*
G75*
G03*
X83461805Y-73662208I1999755J-34380D01*
G01*
X102685678Y-49200409D02*
X103936196Y-49513583D01*
X62566447Y-80819645D02*
G75*
G03*
X62165837Y-79849946I-987169J159774D01*
G01*
X80689221Y-68349882D02*
X80629606Y-71809245D01*
X80689220Y-68349882D02*
G75*
G03*
X79584668Y-67338152I-999895J17178D01*
G01*
X97665622Y-49604682D02*
G75*
G03*
X100143898Y-49604682I1239138J164426D01*
G01*
X94979773Y-54288580D02*
G75*
G03*
X93627733Y-55164440I-353793J-935343D01*
G01*
X102685678Y-49200409D02*
G75*
G03*
X102442745Y-49170452I-242908J-969836D01*
G01*
X93009924Y-62869788D02*
G75*
G03*
X93214630Y-62100102I-1791525J888540D01*
G01*
X105398474Y-51906143D02*
X101324121Y-69448455D01*
X101324121Y-69448455D02*
X86311151Y-85006481D01*
X94932314Y-50652354D02*
X95663695Y-49301428D01*
X95883543Y-49170453D02*
G75*
G03*
X95663696Y-49301428I-78J-249868D01*
G01*
X100639555Y-49170452D02*
X102442745Y-49170452D01*
X69259911Y-67623156D02*
X69950248Y-69552205D01*
X58646456Y-76014809D02*
X59775590Y-67185997D01*
X64951990Y-67185997D02*
X69259911Y-67623156D01*
X94979773Y-54288579D02*
G75*
G03*
X95406630Y-51389203I530693J1402979D01*
G01*
X61973644Y-84482063D02*
X62566448Y-80819645D01*
X88245553Y-71472245D02*
G75*
G03*
X89204812Y-70542343I-832603J1818612D01*
G01*
X70900569Y-70215227D02*
X72494367Y-70201211D01*
X86311151Y-85006481D02*
X86385185Y-87095319D01*
X69950249Y-69552205D02*
G75*
G03*
X70900569Y-70215226I941516J336926D01*
G01*
X71449313Y-88135857D02*
X70894885Y-87265039D01*
X93214630Y-62100102D02*
X93627732Y-55164440D01*
X76856046Y-89793839D02*
X75726750Y-88135857D01*
X61973645Y-84482063D02*
G75*
G03*
X63248878Y-86207593I1480671J-239715D01*
G01*
X83461805Y-73662208D02*
X88245553Y-71472245D01*
X58646456Y-76014809D02*
G75*
G03*
X59457214Y-77888365I1983971J-253662D01*
G01*
X73978777Y-67928362D02*
X79584668Y-67338152D01*
X62165837Y-79849945D02*
X59457214Y-77888365D01*
X100639555Y-49170452D02*
G75*
G03*
X100143899Y-49604682I-72J-499918D01*
G01*
X96510488Y-57385603D02*
G75*
G03*
X96510488Y-57385603I-1000000J0D01*
G01*
X59775590Y-67185997D02*
X64951990Y-67185997D01*
X86385185Y-87095319D02*
X76856046Y-89793839D01*
X94932315Y-50652354D02*
G75*
G03*
X95406630Y-51389202I439768J-238002D01*
G01*
X75010488Y-85385603D02*
G75*
G03*
X75010488Y-85385603I-1500000J0D01*
G01*
X97073126Y-62490351D02*
G75*
G03*
X97073126Y-62490351I-1350000J0D01*
G01*
X75726750Y-88135857D02*
X71449313Y-88135857D01*
X89204813Y-70542343D02*
X93009924Y-62869788D01*
X72494367Y-70201211D02*
G75*
G03*
X73431584Y-69525384I-8836J1000019D01*
G01*
X73431584Y-69525384D02*
X73978777Y-67928362D01*
X105398473Y-51906143D02*
G75*
G03*
X103936196Y-49513583I-1948043J452536D01*
G01*
X70894885Y-87265039D02*
X63248878Y-86207593D01*
X95883543Y-49170452D02*
X97169967Y-49170452D01*
X97665622Y-49604682D02*
G75*
G03*
X97169967Y-49170452I-495702J-65823D01*
G01*
M02*
