%TF.GenerationSoftware,KiCad,Pcbnew,(7.0.0)*%
%TF.CreationDate,2023-05-27T11:58:37+01:00*%
%TF.ProjectId,all,616c6c2e-6b69-4636-9164-5f7063625858,rev?*%
%TF.SameCoordinates,Original*%
%TF.FileFunction,Legend,Bot*%
%TF.FilePolarity,Positive*%
%FSLAX46Y46*%
G04 Gerber Fmt 4.6, Leading zero omitted, Abs format (unit mm)*
G04 Created by KiCad (PCBNEW (7.0.0)) date 2023-05-27 11:58:37*
%MOMM*%
%LPD*%
G01*
G04 APERTURE LIST*
%ADD10C,0.150000*%
%ADD11C,0.254000*%
%ADD12C,0.152400*%
%ADD13C,0.120000*%
%ADD14C,0.200000*%
%ADD15C,0.100000*%
%ADD16C,0.508000*%
G04 APERTURE END LIST*
D10*
X162714160Y-87861560D02*
X162714160Y-85111560D01*
X155523160Y-73081560D02*
X163905160Y-73081560D01*
X163905160Y-73081560D02*
X163905160Y-81971560D01*
X163905160Y-81971560D02*
X155523160Y-81971560D01*
X155523160Y-81971560D02*
X155523160Y-73081560D01*
X163905160Y-81971560D02*
X164213569Y-81973034D01*
X155523160Y-85019560D02*
X164214160Y-85019560D01*
X163905160Y-70033560D02*
X172287160Y-70033560D01*
X155523160Y-78923560D02*
X163905160Y-78923560D01*
X155523160Y-76129560D02*
X163905160Y-76129560D01*
X155523160Y-90861560D02*
X161964160Y-90861560D01*
X155523160Y-64191560D02*
X163905160Y-64191560D01*
X163905160Y-64191560D02*
X163905160Y-73081560D01*
X163905160Y-73081560D02*
X155523160Y-73081560D01*
X155523160Y-73081560D02*
X155523160Y-64191560D01*
X164214160Y-88611560D02*
X164213569Y-81973034D01*
X161964160Y-90861560D02*
X164214160Y-88611560D01*
X159714160Y-70033560D02*
X159714160Y-67239560D01*
X155523160Y-90861560D02*
X155523160Y-81971560D01*
X163905160Y-67239560D02*
X155523160Y-67239560D01*
X163905160Y-64191560D02*
X172287160Y-64191560D01*
X172287160Y-64191560D02*
X172287160Y-74331560D01*
X172287160Y-74331560D02*
X163905160Y-74331560D01*
X163905160Y-74331560D02*
X163905160Y-64191560D01*
X163905160Y-70033560D02*
X155523160Y-70033560D01*
X159714160Y-85019560D02*
X159714160Y-87813560D01*
X163905160Y-67239560D02*
X172287160Y-67239560D01*
X168096160Y-67239560D02*
X168096160Y-70033560D01*
X155523160Y-87813560D02*
X162714160Y-87861560D01*
X159714160Y-76129560D02*
X159714160Y-78923560D01*
X170802000Y-54522000D02*
X170802000Y-46140000D01*
X156070000Y-54522000D02*
X164960000Y-54522000D01*
X164960000Y-54522000D02*
X164960000Y-46140000D01*
X164960000Y-46140000D02*
X156070000Y-46140000D01*
X156070000Y-46140000D02*
X156070000Y-54522000D01*
X161912000Y-50331000D02*
X159118000Y-50331000D01*
X161912000Y-46140000D02*
X161912000Y-54522000D01*
X161694380Y-55236285D02*
X161694380Y-54760095D01*
X161694380Y-54760095D02*
X160694380Y-54760095D01*
X168008000Y-54522000D02*
X168008000Y-46140000D01*
X164960000Y-54522000D02*
X173850000Y-54522000D01*
X173850000Y-54522000D02*
X173850000Y-46140000D01*
X173850000Y-46140000D02*
X164960000Y-46140000D01*
X164960000Y-46140000D02*
X164960000Y-54522000D01*
X168008000Y-50331000D02*
X170802000Y-50331000D01*
X170584380Y-55331523D02*
X170108190Y-54998190D01*
X170584380Y-54760095D02*
X169584380Y-54760095D01*
X169584380Y-54760095D02*
X169584380Y-55141047D01*
X169584380Y-55141047D02*
X169632000Y-55236285D01*
X169632000Y-55236285D02*
X169679619Y-55283904D01*
X169679619Y-55283904D02*
X169774857Y-55331523D01*
X169774857Y-55331523D02*
X169917714Y-55331523D01*
X169917714Y-55331523D02*
X170012952Y-55283904D01*
X170012952Y-55283904D02*
X170060571Y-55236285D01*
X170060571Y-55236285D02*
X170108190Y-55141047D01*
X170108190Y-55141047D02*
X170108190Y-54760095D01*
X159118000Y-46140000D02*
X159118000Y-54522000D01*
%TO.C,SW2*%
X65406682Y-47397317D02*
X65323712Y-47271652D01*
X65323712Y-47271652D02*
X65262088Y-47041670D01*
X65262088Y-47041670D02*
X65283435Y-46937352D01*
X65283435Y-46937352D02*
X65317107Y-46879031D01*
X65317107Y-46879031D02*
X65396775Y-46808385D01*
X65396775Y-46808385D02*
X65488768Y-46783735D01*
X65488768Y-46783735D02*
X65593086Y-46805082D01*
X65593086Y-46805082D02*
X65651407Y-46838754D01*
X65651407Y-46838754D02*
X65722053Y-46918422D01*
X65722053Y-46918422D02*
X65817348Y-47090084D01*
X65817348Y-47090084D02*
X65887994Y-47169752D01*
X65887994Y-47169752D02*
X65946315Y-47203424D01*
X65946315Y-47203424D02*
X66050633Y-47224771D01*
X66050633Y-47224771D02*
X66142626Y-47200121D01*
X66142626Y-47200121D02*
X66222294Y-47129475D01*
X66222294Y-47129475D02*
X66255966Y-47071154D01*
X66255966Y-47071154D02*
X66277313Y-46966836D01*
X66277313Y-46966836D02*
X66215689Y-46736854D01*
X66215689Y-46736854D02*
X66132718Y-46611189D01*
X66092442Y-46276889D02*
X65064892Y-46305726D01*
X65064892Y-46305726D02*
X65705541Y-45936869D01*
X65705541Y-45936869D02*
X64966295Y-45937754D01*
X64966295Y-45937754D02*
X65870597Y-45448953D01*
X65692331Y-45151627D02*
X65726003Y-45093306D01*
X65726003Y-45093306D02*
X65747350Y-44988988D01*
X65747350Y-44988988D02*
X65685726Y-44759006D01*
X65685726Y-44759006D02*
X65615080Y-44679338D01*
X65615080Y-44679338D02*
X65556759Y-44645666D01*
X65556759Y-44645666D02*
X65452442Y-44624319D01*
X65452442Y-44624319D02*
X65360449Y-44648968D01*
X65360449Y-44648968D02*
X65234784Y-44731939D01*
X65234784Y-44731939D02*
X64830723Y-45431793D01*
X64830723Y-45431793D02*
X64670502Y-44833839D01*
%TO.C,C5*%
X44842599Y-82959989D02*
X44890218Y-82912370D01*
X44890218Y-82912370D02*
X44937837Y-82769513D01*
X44937837Y-82769513D02*
X44937837Y-82674275D01*
X44937837Y-82674275D02*
X44890218Y-82531418D01*
X44890218Y-82531418D02*
X44794980Y-82436180D01*
X44794980Y-82436180D02*
X44699742Y-82388561D01*
X44699742Y-82388561D02*
X44509266Y-82340942D01*
X44509266Y-82340942D02*
X44366409Y-82340942D01*
X44366409Y-82340942D02*
X44175933Y-82388561D01*
X44175933Y-82388561D02*
X44080695Y-82436180D01*
X44080695Y-82436180D02*
X43985457Y-82531418D01*
X43985457Y-82531418D02*
X43937837Y-82674275D01*
X43937837Y-82674275D02*
X43937837Y-82769513D01*
X43937837Y-82769513D02*
X43985457Y-82912370D01*
X43985457Y-82912370D02*
X44033076Y-82959989D01*
X43937837Y-83864751D02*
X43937837Y-83388561D01*
X43937837Y-83388561D02*
X44414028Y-83340942D01*
X44414028Y-83340942D02*
X44366409Y-83388561D01*
X44366409Y-83388561D02*
X44318790Y-83483799D01*
X44318790Y-83483799D02*
X44318790Y-83721894D01*
X44318790Y-83721894D02*
X44366409Y-83817132D01*
X44366409Y-83817132D02*
X44414028Y-83864751D01*
X44414028Y-83864751D02*
X44509266Y-83912370D01*
X44509266Y-83912370D02*
X44747361Y-83912370D01*
X44747361Y-83912370D02*
X44842599Y-83864751D01*
X44842599Y-83864751D02*
X44890218Y-83817132D01*
X44890218Y-83817132D02*
X44937837Y-83721894D01*
X44937837Y-83721894D02*
X44937837Y-83483799D01*
X44937837Y-83483799D02*
X44890218Y-83388561D01*
X44890218Y-83388561D02*
X44842599Y-83340942D01*
%TO.C,C2*%
X45142599Y-62359989D02*
X45190218Y-62312370D01*
X45190218Y-62312370D02*
X45237837Y-62169513D01*
X45237837Y-62169513D02*
X45237837Y-62074275D01*
X45237837Y-62074275D02*
X45190218Y-61931418D01*
X45190218Y-61931418D02*
X45094980Y-61836180D01*
X45094980Y-61836180D02*
X44999742Y-61788561D01*
X44999742Y-61788561D02*
X44809266Y-61740942D01*
X44809266Y-61740942D02*
X44666409Y-61740942D01*
X44666409Y-61740942D02*
X44475933Y-61788561D01*
X44475933Y-61788561D02*
X44380695Y-61836180D01*
X44380695Y-61836180D02*
X44285457Y-61931418D01*
X44285457Y-61931418D02*
X44237837Y-62074275D01*
X44237837Y-62074275D02*
X44237837Y-62169513D01*
X44237837Y-62169513D02*
X44285457Y-62312370D01*
X44285457Y-62312370D02*
X44333076Y-62359989D01*
X44333076Y-62740942D02*
X44285457Y-62788561D01*
X44285457Y-62788561D02*
X44237837Y-62883799D01*
X44237837Y-62883799D02*
X44237837Y-63121894D01*
X44237837Y-63121894D02*
X44285457Y-63217132D01*
X44285457Y-63217132D02*
X44333076Y-63264751D01*
X44333076Y-63264751D02*
X44428314Y-63312370D01*
X44428314Y-63312370D02*
X44523552Y-63312370D01*
X44523552Y-63312370D02*
X44666409Y-63264751D01*
X44666409Y-63264751D02*
X45237837Y-62693323D01*
X45237837Y-62693323D02*
X45237837Y-63312370D01*
%TO.C,C4*%
X47537123Y-74998798D02*
X47584742Y-75046417D01*
X47584742Y-75046417D02*
X47727599Y-75094036D01*
X47727599Y-75094036D02*
X47822837Y-75094036D01*
X47822837Y-75094036D02*
X47965694Y-75046417D01*
X47965694Y-75046417D02*
X48060932Y-74951179D01*
X48060932Y-74951179D02*
X48108551Y-74855941D01*
X48108551Y-74855941D02*
X48156170Y-74665465D01*
X48156170Y-74665465D02*
X48156170Y-74522608D01*
X48156170Y-74522608D02*
X48108551Y-74332132D01*
X48108551Y-74332132D02*
X48060932Y-74236894D01*
X48060932Y-74236894D02*
X47965694Y-74141656D01*
X47965694Y-74141656D02*
X47822837Y-74094036D01*
X47822837Y-74094036D02*
X47727599Y-74094036D01*
X47727599Y-74094036D02*
X47584742Y-74141656D01*
X47584742Y-74141656D02*
X47537123Y-74189275D01*
X46679980Y-74427370D02*
X46679980Y-75094036D01*
X46918075Y-74046417D02*
X47156170Y-74760703D01*
X47156170Y-74760703D02*
X46537123Y-74760703D01*
%TO.C,Y1*%
X46461647Y-68850465D02*
X46937837Y-68850465D01*
X45937837Y-68517132D02*
X46461647Y-68850465D01*
X46461647Y-68850465D02*
X45937837Y-69183798D01*
X46937837Y-70040941D02*
X46937837Y-69469513D01*
X46937837Y-69755227D02*
X45937837Y-69755227D01*
X45937837Y-69755227D02*
X46080695Y-69659989D01*
X46080695Y-69659989D02*
X46175933Y-69564751D01*
X46175933Y-69564751D02*
X46223552Y-69469513D01*
%TO.C,SW1*%
X71797643Y-53321492D02*
X71790981Y-53171055D01*
X71790981Y-53171055D02*
X71856205Y-52942067D01*
X71856205Y-52942067D02*
X71928092Y-52863517D01*
X71928092Y-52863517D02*
X71986934Y-52830765D01*
X71986934Y-52830765D02*
X72091574Y-52811057D01*
X72091574Y-52811057D02*
X72183169Y-52837147D01*
X72183169Y-52837147D02*
X72261719Y-52909034D01*
X72261719Y-52909034D02*
X72294472Y-52967876D01*
X72294472Y-52967876D02*
X72314179Y-53072516D01*
X72314179Y-53072516D02*
X72307797Y-53268751D01*
X72307797Y-53268751D02*
X72327505Y-53373391D01*
X72327505Y-53373391D02*
X72360257Y-53432233D01*
X72360257Y-53432233D02*
X72438807Y-53504120D01*
X72438807Y-53504120D02*
X72530402Y-53530210D01*
X72530402Y-53530210D02*
X72635042Y-53510502D01*
X72635042Y-53510502D02*
X72693884Y-53477750D01*
X72693884Y-53477750D02*
X72765771Y-53399200D01*
X72765771Y-53399200D02*
X72830996Y-53170212D01*
X72830996Y-53170212D02*
X72824333Y-53019775D01*
X72961445Y-52712238D02*
X72064923Y-52209308D01*
X72064923Y-52209308D02*
X72804064Y-52221792D01*
X72804064Y-52221792D02*
X72169282Y-51842929D01*
X72169282Y-51842929D02*
X73196252Y-51887884D01*
X72482359Y-50743791D02*
X72325820Y-51293360D01*
X72404090Y-51018575D02*
X73365836Y-51292518D01*
X73365836Y-51292518D02*
X73202354Y-51344978D01*
X73202354Y-51344978D02*
X73084669Y-51410483D01*
X73084669Y-51410483D02*
X73012782Y-51489033D01*
%TO.C,R3*%
X44937837Y-85159989D02*
X44461647Y-84826656D01*
X44937837Y-84588561D02*
X43937837Y-84588561D01*
X43937837Y-84588561D02*
X43937837Y-84969513D01*
X43937837Y-84969513D02*
X43985457Y-85064751D01*
X43985457Y-85064751D02*
X44033076Y-85112370D01*
X44033076Y-85112370D02*
X44128314Y-85159989D01*
X44128314Y-85159989D02*
X44271171Y-85159989D01*
X44271171Y-85159989D02*
X44366409Y-85112370D01*
X44366409Y-85112370D02*
X44414028Y-85064751D01*
X44414028Y-85064751D02*
X44461647Y-84969513D01*
X44461647Y-84969513D02*
X44461647Y-84588561D01*
X43937837Y-85493323D02*
X43937837Y-86112370D01*
X43937837Y-86112370D02*
X44318790Y-85779037D01*
X44318790Y-85779037D02*
X44318790Y-85921894D01*
X44318790Y-85921894D02*
X44366409Y-86017132D01*
X44366409Y-86017132D02*
X44414028Y-86064751D01*
X44414028Y-86064751D02*
X44509266Y-86112370D01*
X44509266Y-86112370D02*
X44747361Y-86112370D01*
X44747361Y-86112370D02*
X44842599Y-86064751D01*
X44842599Y-86064751D02*
X44890218Y-86017132D01*
X44890218Y-86017132D02*
X44937837Y-85921894D01*
X44937837Y-85921894D02*
X44937837Y-85636180D01*
X44937837Y-85636180D02*
X44890218Y-85540942D01*
X44890218Y-85540942D02*
X44842599Y-85493323D01*
%TO.C,U2*%
X44437837Y-78764751D02*
X45247361Y-78764751D01*
X45247361Y-78764751D02*
X45342599Y-78812370D01*
X45342599Y-78812370D02*
X45390218Y-78859989D01*
X45390218Y-78859989D02*
X45437837Y-78955227D01*
X45437837Y-78955227D02*
X45437837Y-79145703D01*
X45437837Y-79145703D02*
X45390218Y-79240941D01*
X45390218Y-79240941D02*
X45342599Y-79288560D01*
X45342599Y-79288560D02*
X45247361Y-79336179D01*
X45247361Y-79336179D02*
X44437837Y-79336179D01*
X44533076Y-79764751D02*
X44485457Y-79812370D01*
X44485457Y-79812370D02*
X44437837Y-79907608D01*
X44437837Y-79907608D02*
X44437837Y-80145703D01*
X44437837Y-80145703D02*
X44485457Y-80240941D01*
X44485457Y-80240941D02*
X44533076Y-80288560D01*
X44533076Y-80288560D02*
X44628314Y-80336179D01*
X44628314Y-80336179D02*
X44723552Y-80336179D01*
X44723552Y-80336179D02*
X44866409Y-80288560D01*
X44866409Y-80288560D02*
X45437837Y-79717132D01*
X45437837Y-79717132D02*
X45437837Y-80336179D01*
%TO.C,C1*%
X44142599Y-72659989D02*
X44190218Y-72612370D01*
X44190218Y-72612370D02*
X44237837Y-72469513D01*
X44237837Y-72469513D02*
X44237837Y-72374275D01*
X44237837Y-72374275D02*
X44190218Y-72231418D01*
X44190218Y-72231418D02*
X44094980Y-72136180D01*
X44094980Y-72136180D02*
X43999742Y-72088561D01*
X43999742Y-72088561D02*
X43809266Y-72040942D01*
X43809266Y-72040942D02*
X43666409Y-72040942D01*
X43666409Y-72040942D02*
X43475933Y-72088561D01*
X43475933Y-72088561D02*
X43380695Y-72136180D01*
X43380695Y-72136180D02*
X43285457Y-72231418D01*
X43285457Y-72231418D02*
X43237837Y-72374275D01*
X43237837Y-72374275D02*
X43237837Y-72469513D01*
X43237837Y-72469513D02*
X43285457Y-72612370D01*
X43285457Y-72612370D02*
X43333076Y-72659989D01*
X44237837Y-73612370D02*
X44237837Y-73040942D01*
X44237837Y-73326656D02*
X43237837Y-73326656D01*
X43237837Y-73326656D02*
X43380695Y-73231418D01*
X43380695Y-73231418D02*
X43475933Y-73136180D01*
X43475933Y-73136180D02*
X43523552Y-73040942D01*
%TO.C,R2*%
X50837837Y-83959989D02*
X50361647Y-83626656D01*
X50837837Y-83388561D02*
X49837837Y-83388561D01*
X49837837Y-83388561D02*
X49837837Y-83769513D01*
X49837837Y-83769513D02*
X49885457Y-83864751D01*
X49885457Y-83864751D02*
X49933076Y-83912370D01*
X49933076Y-83912370D02*
X50028314Y-83959989D01*
X50028314Y-83959989D02*
X50171171Y-83959989D01*
X50171171Y-83959989D02*
X50266409Y-83912370D01*
X50266409Y-83912370D02*
X50314028Y-83864751D01*
X50314028Y-83864751D02*
X50361647Y-83769513D01*
X50361647Y-83769513D02*
X50361647Y-83388561D01*
X49933076Y-84340942D02*
X49885457Y-84388561D01*
X49885457Y-84388561D02*
X49837837Y-84483799D01*
X49837837Y-84483799D02*
X49837837Y-84721894D01*
X49837837Y-84721894D02*
X49885457Y-84817132D01*
X49885457Y-84817132D02*
X49933076Y-84864751D01*
X49933076Y-84864751D02*
X50028314Y-84912370D01*
X50028314Y-84912370D02*
X50123552Y-84912370D01*
X50123552Y-84912370D02*
X50266409Y-84864751D01*
X50266409Y-84864751D02*
X50837837Y-84293323D01*
X50837837Y-84293323D02*
X50837837Y-84912370D01*
%TO.C,SW3*%
X55206682Y-50197317D02*
X55123712Y-50071652D01*
X55123712Y-50071652D02*
X55062088Y-49841670D01*
X55062088Y-49841670D02*
X55083435Y-49737352D01*
X55083435Y-49737352D02*
X55117107Y-49679031D01*
X55117107Y-49679031D02*
X55196775Y-49608385D01*
X55196775Y-49608385D02*
X55288768Y-49583735D01*
X55288768Y-49583735D02*
X55393086Y-49605082D01*
X55393086Y-49605082D02*
X55451407Y-49638754D01*
X55451407Y-49638754D02*
X55522053Y-49718422D01*
X55522053Y-49718422D02*
X55617348Y-49890084D01*
X55617348Y-49890084D02*
X55687994Y-49969752D01*
X55687994Y-49969752D02*
X55746315Y-50003424D01*
X55746315Y-50003424D02*
X55850633Y-50024771D01*
X55850633Y-50024771D02*
X55942626Y-50000121D01*
X55942626Y-50000121D02*
X56022294Y-49929475D01*
X56022294Y-49929475D02*
X56055966Y-49871154D01*
X56055966Y-49871154D02*
X56077313Y-49766836D01*
X56077313Y-49766836D02*
X56015689Y-49536854D01*
X56015689Y-49536854D02*
X55932718Y-49411189D01*
X55892442Y-49076889D02*
X54864892Y-49105726D01*
X54864892Y-49105726D02*
X55505541Y-48736869D01*
X55505541Y-48736869D02*
X54766295Y-48737754D01*
X54766295Y-48737754D02*
X55670597Y-48248953D01*
X55596649Y-47972974D02*
X55436427Y-47375020D01*
X55436427Y-47375020D02*
X55154729Y-47795593D01*
X55154729Y-47795593D02*
X55117755Y-47657604D01*
X55117755Y-47657604D02*
X55047109Y-47577936D01*
X55047109Y-47577936D02*
X54988787Y-47544264D01*
X54988787Y-47544264D02*
X54884470Y-47522917D01*
X54884470Y-47522917D02*
X54654487Y-47584540D01*
X54654487Y-47584540D02*
X54574819Y-47655186D01*
X54574819Y-47655186D02*
X54541147Y-47713507D01*
X54541147Y-47713507D02*
X54519800Y-47817825D01*
X54519800Y-47817825D02*
X54593749Y-48093804D01*
X54593749Y-48093804D02*
X54664395Y-48173472D01*
X54664395Y-48173472D02*
X54722716Y-48207144D01*
%TO.C,R1*%
X49837837Y-52759989D02*
X49361647Y-52426656D01*
X49837837Y-52188561D02*
X48837837Y-52188561D01*
X48837837Y-52188561D02*
X48837837Y-52569513D01*
X48837837Y-52569513D02*
X48885457Y-52664751D01*
X48885457Y-52664751D02*
X48933076Y-52712370D01*
X48933076Y-52712370D02*
X49028314Y-52759989D01*
X49028314Y-52759989D02*
X49171171Y-52759989D01*
X49171171Y-52759989D02*
X49266409Y-52712370D01*
X49266409Y-52712370D02*
X49314028Y-52664751D01*
X49314028Y-52664751D02*
X49361647Y-52569513D01*
X49361647Y-52569513D02*
X49361647Y-52188561D01*
X49837837Y-53712370D02*
X49837837Y-53140942D01*
X49837837Y-53426656D02*
X48837837Y-53426656D01*
X48837837Y-53426656D02*
X48980695Y-53331418D01*
X48980695Y-53331418D02*
X49075933Y-53236180D01*
X49075933Y-53236180D02*
X49123552Y-53140942D01*
%TO.C,U1*%
X51537837Y-62264751D02*
X52347361Y-62264751D01*
X52347361Y-62264751D02*
X52442599Y-62312370D01*
X52442599Y-62312370D02*
X52490218Y-62359989D01*
X52490218Y-62359989D02*
X52537837Y-62455227D01*
X52537837Y-62455227D02*
X52537837Y-62645703D01*
X52537837Y-62645703D02*
X52490218Y-62740941D01*
X52490218Y-62740941D02*
X52442599Y-62788560D01*
X52442599Y-62788560D02*
X52347361Y-62836179D01*
X52347361Y-62836179D02*
X51537837Y-62836179D01*
X52537837Y-63836179D02*
X52537837Y-63264751D01*
X52537837Y-63550465D02*
X51537837Y-63550465D01*
X51537837Y-63550465D02*
X51680695Y-63455227D01*
X51680695Y-63455227D02*
X51775933Y-63359989D01*
X51775933Y-63359989D02*
X51823552Y-63264751D01*
%TO.C,C3*%
X47504623Y-66438798D02*
X47552242Y-66486417D01*
X47552242Y-66486417D02*
X47695099Y-66534036D01*
X47695099Y-66534036D02*
X47790337Y-66534036D01*
X47790337Y-66534036D02*
X47933194Y-66486417D01*
X47933194Y-66486417D02*
X48028432Y-66391179D01*
X48028432Y-66391179D02*
X48076051Y-66295941D01*
X48076051Y-66295941D02*
X48123670Y-66105465D01*
X48123670Y-66105465D02*
X48123670Y-65962608D01*
X48123670Y-65962608D02*
X48076051Y-65772132D01*
X48076051Y-65772132D02*
X48028432Y-65676894D01*
X48028432Y-65676894D02*
X47933194Y-65581656D01*
X47933194Y-65581656D02*
X47790337Y-65534036D01*
X47790337Y-65534036D02*
X47695099Y-65534036D01*
X47695099Y-65534036D02*
X47552242Y-65581656D01*
X47552242Y-65581656D02*
X47504623Y-65629275D01*
X47171289Y-65534036D02*
X46552242Y-65534036D01*
X46552242Y-65534036D02*
X46885575Y-65914989D01*
X46885575Y-65914989D02*
X46742718Y-65914989D01*
X46742718Y-65914989D02*
X46647480Y-65962608D01*
X46647480Y-65962608D02*
X46599861Y-66010227D01*
X46599861Y-66010227D02*
X46552242Y-66105465D01*
X46552242Y-66105465D02*
X46552242Y-66343560D01*
X46552242Y-66343560D02*
X46599861Y-66438798D01*
X46599861Y-66438798D02*
X46647480Y-66486417D01*
X46647480Y-66486417D02*
X46742718Y-66534036D01*
X46742718Y-66534036D02*
X47028432Y-66534036D01*
X47028432Y-66534036D02*
X47123670Y-66486417D01*
X47123670Y-66486417D02*
X47171289Y-66438798D01*
%TO.C,J1*%
X171047493Y-78228940D02*
X171047493Y-78943226D01*
X171047493Y-78943226D02*
X171095112Y-79086083D01*
X171095112Y-79086083D02*
X171190350Y-79181321D01*
X171190350Y-79181321D02*
X171333207Y-79228940D01*
X171333207Y-79228940D02*
X171428445Y-79228940D01*
X170047493Y-79228940D02*
X170618921Y-79228940D01*
X170333207Y-79228940D02*
X170333207Y-78228940D01*
X170333207Y-78228940D02*
X170428445Y-78371798D01*
X170428445Y-78371798D02*
X170523683Y-78467036D01*
X170523683Y-78467036D02*
X170618921Y-78514655D01*
X160217380Y-57363928D02*
X160931666Y-57363928D01*
X160931666Y-57363928D02*
X161074523Y-57316309D01*
X161074523Y-57316309D02*
X161169761Y-57221071D01*
X161169761Y-57221071D02*
X161217380Y-57078214D01*
X161217380Y-57078214D02*
X161217380Y-56982976D01*
X161217380Y-58363928D02*
X161217380Y-57792500D01*
X161217380Y-58078214D02*
X160217380Y-58078214D01*
X160217380Y-58078214D02*
X160360238Y-57982976D01*
X160360238Y-57982976D02*
X160455476Y-57887738D01*
X160455476Y-57887738D02*
X160503095Y-57792500D01*
%TO.C,U6*%
X144061904Y-72517380D02*
X144061904Y-73326904D01*
X144061904Y-73326904D02*
X144014285Y-73422142D01*
X144014285Y-73422142D02*
X143966666Y-73469761D01*
X143966666Y-73469761D02*
X143871428Y-73517380D01*
X143871428Y-73517380D02*
X143680952Y-73517380D01*
X143680952Y-73517380D02*
X143585714Y-73469761D01*
X143585714Y-73469761D02*
X143538095Y-73422142D01*
X143538095Y-73422142D02*
X143490476Y-73326904D01*
X143490476Y-73326904D02*
X143490476Y-72517380D01*
X142585714Y-72517380D02*
X142776190Y-72517380D01*
X142776190Y-72517380D02*
X142871428Y-72565000D01*
X142871428Y-72565000D02*
X142919047Y-72612619D01*
X142919047Y-72612619D02*
X143014285Y-72755476D01*
X143014285Y-72755476D02*
X143061904Y-72945952D01*
X143061904Y-72945952D02*
X143061904Y-73326904D01*
X143061904Y-73326904D02*
X143014285Y-73422142D01*
X143014285Y-73422142D02*
X142966666Y-73469761D01*
X142966666Y-73469761D02*
X142871428Y-73517380D01*
X142871428Y-73517380D02*
X142680952Y-73517380D01*
X142680952Y-73517380D02*
X142585714Y-73469761D01*
X142585714Y-73469761D02*
X142538095Y-73422142D01*
X142538095Y-73422142D02*
X142490476Y-73326904D01*
X142490476Y-73326904D02*
X142490476Y-73088809D01*
X142490476Y-73088809D02*
X142538095Y-72993571D01*
X142538095Y-72993571D02*
X142585714Y-72945952D01*
X142585714Y-72945952D02*
X142680952Y-72898333D01*
X142680952Y-72898333D02*
X142871428Y-72898333D01*
X142871428Y-72898333D02*
X142966666Y-72945952D01*
X142966666Y-72945952D02*
X143014285Y-72993571D01*
X143014285Y-72993571D02*
X143061904Y-73088809D01*
%TO.C,D2*%
X147638094Y-73617380D02*
X147638094Y-72617380D01*
X147638094Y-72617380D02*
X147399999Y-72617380D01*
X147399999Y-72617380D02*
X147257142Y-72665000D01*
X147257142Y-72665000D02*
X147161904Y-72760238D01*
X147161904Y-72760238D02*
X147114285Y-72855476D01*
X147114285Y-72855476D02*
X147066666Y-73045952D01*
X147066666Y-73045952D02*
X147066666Y-73188809D01*
X147066666Y-73188809D02*
X147114285Y-73379285D01*
X147114285Y-73379285D02*
X147161904Y-73474523D01*
X147161904Y-73474523D02*
X147257142Y-73569761D01*
X147257142Y-73569761D02*
X147399999Y-73617380D01*
X147399999Y-73617380D02*
X147638094Y-73617380D01*
X146685713Y-72712619D02*
X146638094Y-72665000D01*
X146638094Y-72665000D02*
X146542856Y-72617380D01*
X146542856Y-72617380D02*
X146304761Y-72617380D01*
X146304761Y-72617380D02*
X146209523Y-72665000D01*
X146209523Y-72665000D02*
X146161904Y-72712619D01*
X146161904Y-72712619D02*
X146114285Y-72807857D01*
X146114285Y-72807857D02*
X146114285Y-72903095D01*
X146114285Y-72903095D02*
X146161904Y-73045952D01*
X146161904Y-73045952D02*
X146733332Y-73617380D01*
X146733332Y-73617380D02*
X146114285Y-73617380D01*
%TO.C,U2*%
X148961904Y-51517380D02*
X148961904Y-52326904D01*
X148961904Y-52326904D02*
X148914285Y-52422142D01*
X148914285Y-52422142D02*
X148866666Y-52469761D01*
X148866666Y-52469761D02*
X148771428Y-52517380D01*
X148771428Y-52517380D02*
X148580952Y-52517380D01*
X148580952Y-52517380D02*
X148485714Y-52469761D01*
X148485714Y-52469761D02*
X148438095Y-52422142D01*
X148438095Y-52422142D02*
X148390476Y-52326904D01*
X148390476Y-52326904D02*
X148390476Y-51517380D01*
X147961904Y-51612619D02*
X147914285Y-51565000D01*
X147914285Y-51565000D02*
X147819047Y-51517380D01*
X147819047Y-51517380D02*
X147580952Y-51517380D01*
X147580952Y-51517380D02*
X147485714Y-51565000D01*
X147485714Y-51565000D02*
X147438095Y-51612619D01*
X147438095Y-51612619D02*
X147390476Y-51707857D01*
X147390476Y-51707857D02*
X147390476Y-51803095D01*
X147390476Y-51803095D02*
X147438095Y-51945952D01*
X147438095Y-51945952D02*
X148009523Y-52517380D01*
X148009523Y-52517380D02*
X147390476Y-52517380D01*
%TO.C,IC1*%
X133797617Y-82517380D02*
X133797617Y-81517380D01*
X132749999Y-82422142D02*
X132797618Y-82469761D01*
X132797618Y-82469761D02*
X132940475Y-82517380D01*
X132940475Y-82517380D02*
X133035713Y-82517380D01*
X133035713Y-82517380D02*
X133178570Y-82469761D01*
X133178570Y-82469761D02*
X133273808Y-82374523D01*
X133273808Y-82374523D02*
X133321427Y-82279285D01*
X133321427Y-82279285D02*
X133369046Y-82088809D01*
X133369046Y-82088809D02*
X133369046Y-81945952D01*
X133369046Y-81945952D02*
X133321427Y-81755476D01*
X133321427Y-81755476D02*
X133273808Y-81660238D01*
X133273808Y-81660238D02*
X133178570Y-81565000D01*
X133178570Y-81565000D02*
X133035713Y-81517380D01*
X133035713Y-81517380D02*
X132940475Y-81517380D01*
X132940475Y-81517380D02*
X132797618Y-81565000D01*
X132797618Y-81565000D02*
X132749999Y-81612619D01*
X131797618Y-82517380D02*
X132369046Y-82517380D01*
X132083332Y-82517380D02*
X132083332Y-81517380D01*
X132083332Y-81517380D02*
X132178570Y-81660238D01*
X132178570Y-81660238D02*
X132273808Y-81755476D01*
X132273808Y-81755476D02*
X132369046Y-81803095D01*
%TO.C,U3*%
X151361904Y-72517380D02*
X151361904Y-73326904D01*
X151361904Y-73326904D02*
X151314285Y-73422142D01*
X151314285Y-73422142D02*
X151266666Y-73469761D01*
X151266666Y-73469761D02*
X151171428Y-73517380D01*
X151171428Y-73517380D02*
X150980952Y-73517380D01*
X150980952Y-73517380D02*
X150885714Y-73469761D01*
X150885714Y-73469761D02*
X150838095Y-73422142D01*
X150838095Y-73422142D02*
X150790476Y-73326904D01*
X150790476Y-73326904D02*
X150790476Y-72517380D01*
X150409523Y-72517380D02*
X149790476Y-72517380D01*
X149790476Y-72517380D02*
X150123809Y-72898333D01*
X150123809Y-72898333D02*
X149980952Y-72898333D01*
X149980952Y-72898333D02*
X149885714Y-72945952D01*
X149885714Y-72945952D02*
X149838095Y-72993571D01*
X149838095Y-72993571D02*
X149790476Y-73088809D01*
X149790476Y-73088809D02*
X149790476Y-73326904D01*
X149790476Y-73326904D02*
X149838095Y-73422142D01*
X149838095Y-73422142D02*
X149885714Y-73469761D01*
X149885714Y-73469761D02*
X149980952Y-73517380D01*
X149980952Y-73517380D02*
X150266666Y-73517380D01*
X150266666Y-73517380D02*
X150361904Y-73469761D01*
X150361904Y-73469761D02*
X150409523Y-73422142D01*
%TO.C,U8*%
X127294404Y-49649380D02*
X127294404Y-50458904D01*
X127294404Y-50458904D02*
X127246785Y-50554142D01*
X127246785Y-50554142D02*
X127199166Y-50601761D01*
X127199166Y-50601761D02*
X127103928Y-50649380D01*
X127103928Y-50649380D02*
X126913452Y-50649380D01*
X126913452Y-50649380D02*
X126818214Y-50601761D01*
X126818214Y-50601761D02*
X126770595Y-50554142D01*
X126770595Y-50554142D02*
X126722976Y-50458904D01*
X126722976Y-50458904D02*
X126722976Y-49649380D01*
X126103928Y-50077952D02*
X126199166Y-50030333D01*
X126199166Y-50030333D02*
X126246785Y-49982714D01*
X126246785Y-49982714D02*
X126294404Y-49887476D01*
X126294404Y-49887476D02*
X126294404Y-49839857D01*
X126294404Y-49839857D02*
X126246785Y-49744619D01*
X126246785Y-49744619D02*
X126199166Y-49697000D01*
X126199166Y-49697000D02*
X126103928Y-49649380D01*
X126103928Y-49649380D02*
X125913452Y-49649380D01*
X125913452Y-49649380D02*
X125818214Y-49697000D01*
X125818214Y-49697000D02*
X125770595Y-49744619D01*
X125770595Y-49744619D02*
X125722976Y-49839857D01*
X125722976Y-49839857D02*
X125722976Y-49887476D01*
X125722976Y-49887476D02*
X125770595Y-49982714D01*
X125770595Y-49982714D02*
X125818214Y-50030333D01*
X125818214Y-50030333D02*
X125913452Y-50077952D01*
X125913452Y-50077952D02*
X126103928Y-50077952D01*
X126103928Y-50077952D02*
X126199166Y-50125571D01*
X126199166Y-50125571D02*
X126246785Y-50173190D01*
X126246785Y-50173190D02*
X126294404Y-50268428D01*
X126294404Y-50268428D02*
X126294404Y-50458904D01*
X126294404Y-50458904D02*
X126246785Y-50554142D01*
X126246785Y-50554142D02*
X126199166Y-50601761D01*
X126199166Y-50601761D02*
X126103928Y-50649380D01*
X126103928Y-50649380D02*
X125913452Y-50649380D01*
X125913452Y-50649380D02*
X125818214Y-50601761D01*
X125818214Y-50601761D02*
X125770595Y-50554142D01*
X125770595Y-50554142D02*
X125722976Y-50458904D01*
X125722976Y-50458904D02*
X125722976Y-50268428D01*
X125722976Y-50268428D02*
X125770595Y-50173190D01*
X125770595Y-50173190D02*
X125818214Y-50125571D01*
X125818214Y-50125571D02*
X125913452Y-50077952D01*
%TO.C,IC2*%
X126076189Y-82417380D02*
X126076189Y-81417380D01*
X125028571Y-82322142D02*
X125076190Y-82369761D01*
X125076190Y-82369761D02*
X125219047Y-82417380D01*
X125219047Y-82417380D02*
X125314285Y-82417380D01*
X125314285Y-82417380D02*
X125457142Y-82369761D01*
X125457142Y-82369761D02*
X125552380Y-82274523D01*
X125552380Y-82274523D02*
X125599999Y-82179285D01*
X125599999Y-82179285D02*
X125647618Y-81988809D01*
X125647618Y-81988809D02*
X125647618Y-81845952D01*
X125647618Y-81845952D02*
X125599999Y-81655476D01*
X125599999Y-81655476D02*
X125552380Y-81560238D01*
X125552380Y-81560238D02*
X125457142Y-81465000D01*
X125457142Y-81465000D02*
X125314285Y-81417380D01*
X125314285Y-81417380D02*
X125219047Y-81417380D01*
X125219047Y-81417380D02*
X125076190Y-81465000D01*
X125076190Y-81465000D02*
X125028571Y-81512619D01*
X124647618Y-81512619D02*
X124599999Y-81465000D01*
X124599999Y-81465000D02*
X124504761Y-81417380D01*
X124504761Y-81417380D02*
X124266666Y-81417380D01*
X124266666Y-81417380D02*
X124171428Y-81465000D01*
X124171428Y-81465000D02*
X124123809Y-81512619D01*
X124123809Y-81512619D02*
X124076190Y-81607857D01*
X124076190Y-81607857D02*
X124076190Y-81703095D01*
X124076190Y-81703095D02*
X124123809Y-81845952D01*
X124123809Y-81845952D02*
X124695237Y-82417380D01*
X124695237Y-82417380D02*
X124076190Y-82417380D01*
%TO.C,U4*%
X147961904Y-62117380D02*
X147961904Y-62926904D01*
X147961904Y-62926904D02*
X147914285Y-63022142D01*
X147914285Y-63022142D02*
X147866666Y-63069761D01*
X147866666Y-63069761D02*
X147771428Y-63117380D01*
X147771428Y-63117380D02*
X147580952Y-63117380D01*
X147580952Y-63117380D02*
X147485714Y-63069761D01*
X147485714Y-63069761D02*
X147438095Y-63022142D01*
X147438095Y-63022142D02*
X147390476Y-62926904D01*
X147390476Y-62926904D02*
X147390476Y-62117380D01*
X146485714Y-62450714D02*
X146485714Y-63117380D01*
X146723809Y-62069761D02*
X146961904Y-62784047D01*
X146961904Y-62784047D02*
X146342857Y-62784047D01*
%TO.C,U7*%
X143861904Y-62117380D02*
X143861904Y-62926904D01*
X143861904Y-62926904D02*
X143814285Y-63022142D01*
X143814285Y-63022142D02*
X143766666Y-63069761D01*
X143766666Y-63069761D02*
X143671428Y-63117380D01*
X143671428Y-63117380D02*
X143480952Y-63117380D01*
X143480952Y-63117380D02*
X143385714Y-63069761D01*
X143385714Y-63069761D02*
X143338095Y-63022142D01*
X143338095Y-63022142D02*
X143290476Y-62926904D01*
X143290476Y-62926904D02*
X143290476Y-62117380D01*
X142909523Y-62117380D02*
X142242857Y-62117380D01*
X142242857Y-62117380D02*
X142671428Y-63117380D01*
%TO.C,Y1*%
X144802690Y-49507690D02*
X144802690Y-49983880D01*
X145136023Y-48983880D02*
X144802690Y-49507690D01*
X144802690Y-49507690D02*
X144469357Y-48983880D01*
X143612214Y-49983880D02*
X144183642Y-49983880D01*
X143897928Y-49983880D02*
X143897928Y-48983880D01*
X143897928Y-48983880D02*
X143993166Y-49126738D01*
X143993166Y-49126738D02*
X144088404Y-49221976D01*
X144088404Y-49221976D02*
X144183642Y-49269595D01*
%TO.C,U5*%
X151661904Y-62117380D02*
X151661904Y-62926904D01*
X151661904Y-62926904D02*
X151614285Y-63022142D01*
X151614285Y-63022142D02*
X151566666Y-63069761D01*
X151566666Y-63069761D02*
X151471428Y-63117380D01*
X151471428Y-63117380D02*
X151280952Y-63117380D01*
X151280952Y-63117380D02*
X151185714Y-63069761D01*
X151185714Y-63069761D02*
X151138095Y-63022142D01*
X151138095Y-63022142D02*
X151090476Y-62926904D01*
X151090476Y-62926904D02*
X151090476Y-62117380D01*
X150138095Y-62117380D02*
X150614285Y-62117380D01*
X150614285Y-62117380D02*
X150661904Y-62593571D01*
X150661904Y-62593571D02*
X150614285Y-62545952D01*
X150614285Y-62545952D02*
X150519047Y-62498333D01*
X150519047Y-62498333D02*
X150280952Y-62498333D01*
X150280952Y-62498333D02*
X150185714Y-62545952D01*
X150185714Y-62545952D02*
X150138095Y-62593571D01*
X150138095Y-62593571D02*
X150090476Y-62688809D01*
X150090476Y-62688809D02*
X150090476Y-62926904D01*
X150090476Y-62926904D02*
X150138095Y-63022142D01*
X150138095Y-63022142D02*
X150185714Y-63069761D01*
X150185714Y-63069761D02*
X150280952Y-63117380D01*
X150280952Y-63117380D02*
X150519047Y-63117380D01*
X150519047Y-63117380D02*
X150614285Y-63069761D01*
X150614285Y-63069761D02*
X150661904Y-63022142D01*
%TO.C,U1*%
X139761904Y-54517380D02*
X139761904Y-55326904D01*
X139761904Y-55326904D02*
X139714285Y-55422142D01*
X139714285Y-55422142D02*
X139666666Y-55469761D01*
X139666666Y-55469761D02*
X139571428Y-55517380D01*
X139571428Y-55517380D02*
X139380952Y-55517380D01*
X139380952Y-55517380D02*
X139285714Y-55469761D01*
X139285714Y-55469761D02*
X139238095Y-55422142D01*
X139238095Y-55422142D02*
X139190476Y-55326904D01*
X139190476Y-55326904D02*
X139190476Y-54517380D01*
X138190476Y-55517380D02*
X138761904Y-55517380D01*
X138476190Y-55517380D02*
X138476190Y-54517380D01*
X138476190Y-54517380D02*
X138571428Y-54660238D01*
X138571428Y-54660238D02*
X138666666Y-54755476D01*
X138666666Y-54755476D02*
X138761904Y-54803095D01*
%TO.C,SW1*%
X103972893Y-55527894D02*
X103822968Y-55541963D01*
X103822968Y-55541963D02*
X103591044Y-55488104D01*
X103591044Y-55488104D02*
X103509046Y-55420175D01*
X103509046Y-55420175D02*
X103473434Y-55363019D01*
X103473434Y-55363019D02*
X103448593Y-55259477D01*
X103448593Y-55259477D02*
X103470136Y-55166708D01*
X103470136Y-55166708D02*
X103538065Y-55084711D01*
X103538065Y-55084711D02*
X103595221Y-55049098D01*
X103595221Y-55049098D02*
X103698763Y-55024257D01*
X103698763Y-55024257D02*
X103895073Y-55020960D01*
X103895073Y-55020960D02*
X103998615Y-54996119D01*
X103998615Y-54996119D02*
X104055771Y-54960506D01*
X104055771Y-54960506D02*
X104123700Y-54878508D01*
X104123700Y-54878508D02*
X104145243Y-54785739D01*
X104145243Y-54785739D02*
X104120402Y-54682198D01*
X104120402Y-54682198D02*
X104084790Y-54625041D01*
X104084790Y-54625041D02*
X104002792Y-54557113D01*
X104002792Y-54557113D02*
X103770869Y-54503253D01*
X103770869Y-54503253D02*
X103620943Y-54517322D01*
X103307022Y-54395534D02*
X102848889Y-55315754D01*
X102848889Y-55315754D02*
X102824928Y-54576896D01*
X102824928Y-54576896D02*
X102477811Y-55229579D01*
X102477811Y-55229579D02*
X102472097Y-54201641D01*
X101364578Y-54971054D02*
X101921195Y-55100316D01*
X101642887Y-55035685D02*
X101869096Y-54061606D01*
X101869096Y-54061606D02*
X101929550Y-54222304D01*
X101929550Y-54222304D02*
X102000775Y-54336617D01*
X102000775Y-54336617D02*
X102082773Y-54404546D01*
%TO.C,J2*%
X67663322Y-73833826D02*
X67565456Y-74541376D01*
X67565456Y-74541376D02*
X67593053Y-74689410D01*
X67593053Y-74689410D02*
X67674344Y-74796799D01*
X67674344Y-74796799D02*
X67809330Y-74863542D01*
X67809330Y-74863542D02*
X67903669Y-74876591D01*
X67225743Y-73869447D02*
X67185098Y-73815752D01*
X67185098Y-73815752D02*
X67097282Y-73755533D01*
X67097282Y-73755533D02*
X66861432Y-73722911D01*
X66861432Y-73722911D02*
X66760568Y-73757033D01*
X66760568Y-73757033D02*
X66706874Y-73797678D01*
X66706874Y-73797678D02*
X66646655Y-73885494D01*
X66646655Y-73885494D02*
X66633606Y-73979834D01*
X66633606Y-73979834D02*
X66661203Y-74127868D01*
X66661203Y-74127868D02*
X67148950Y-74772200D01*
X67148950Y-74772200D02*
X66535740Y-74687383D01*
%TO.C,C2*%
X103713122Y-52486951D02*
X103760741Y-52534570D01*
X103760741Y-52534570D02*
X103903598Y-52582189D01*
X103903598Y-52582189D02*
X103998836Y-52582189D01*
X103998836Y-52582189D02*
X104141693Y-52534570D01*
X104141693Y-52534570D02*
X104236931Y-52439332D01*
X104236931Y-52439332D02*
X104284550Y-52344094D01*
X104284550Y-52344094D02*
X104332169Y-52153618D01*
X104332169Y-52153618D02*
X104332169Y-52010761D01*
X104332169Y-52010761D02*
X104284550Y-51820285D01*
X104284550Y-51820285D02*
X104236931Y-51725047D01*
X104236931Y-51725047D02*
X104141693Y-51629809D01*
X104141693Y-51629809D02*
X103998836Y-51582189D01*
X103998836Y-51582189D02*
X103903598Y-51582189D01*
X103903598Y-51582189D02*
X103760741Y-51629809D01*
X103760741Y-51629809D02*
X103713122Y-51677428D01*
X103332169Y-51677428D02*
X103284550Y-51629809D01*
X103284550Y-51629809D02*
X103189312Y-51582189D01*
X103189312Y-51582189D02*
X102951217Y-51582189D01*
X102951217Y-51582189D02*
X102855979Y-51629809D01*
X102855979Y-51629809D02*
X102808360Y-51677428D01*
X102808360Y-51677428D02*
X102760741Y-51772666D01*
X102760741Y-51772666D02*
X102760741Y-51867904D01*
X102760741Y-51867904D02*
X102808360Y-52010761D01*
X102808360Y-52010761D02*
X103379788Y-52582189D01*
X103379788Y-52582189D02*
X102760741Y-52582189D01*
%TO.C,J1*%
X87794811Y-80115302D02*
X87989429Y-80802564D01*
X87989429Y-80802564D02*
X88074170Y-80927041D01*
X88074170Y-80927041D02*
X88191754Y-80992727D01*
X88191754Y-80992727D02*
X88342180Y-80999621D01*
X88342180Y-80999621D02*
X88433815Y-80973672D01*
X87105110Y-81349933D02*
X87654919Y-81194239D01*
X87380015Y-81272086D02*
X87107550Y-80309920D01*
X87107550Y-80309920D02*
X87238108Y-80421424D01*
X87238108Y-80421424D02*
X87355692Y-80487109D01*
X87355692Y-80487109D02*
X87460301Y-80506978D01*
%TO.C,C1*%
X96113122Y-65386951D02*
X96160741Y-65434570D01*
X96160741Y-65434570D02*
X96303598Y-65482189D01*
X96303598Y-65482189D02*
X96398836Y-65482189D01*
X96398836Y-65482189D02*
X96541693Y-65434570D01*
X96541693Y-65434570D02*
X96636931Y-65339332D01*
X96636931Y-65339332D02*
X96684550Y-65244094D01*
X96684550Y-65244094D02*
X96732169Y-65053618D01*
X96732169Y-65053618D02*
X96732169Y-64910761D01*
X96732169Y-64910761D02*
X96684550Y-64720285D01*
X96684550Y-64720285D02*
X96636931Y-64625047D01*
X96636931Y-64625047D02*
X96541693Y-64529809D01*
X96541693Y-64529809D02*
X96398836Y-64482189D01*
X96398836Y-64482189D02*
X96303598Y-64482189D01*
X96303598Y-64482189D02*
X96160741Y-64529809D01*
X96160741Y-64529809D02*
X96113122Y-64577428D01*
X95160741Y-65482189D02*
X95732169Y-65482189D01*
X95446455Y-65482189D02*
X95446455Y-64482189D01*
X95446455Y-64482189D02*
X95541693Y-64625047D01*
X95541693Y-64625047D02*
X95636931Y-64720285D01*
X95636931Y-64720285D02*
X95732169Y-64767904D01*
%TO.C,D3*%
X74713836Y-72676714D02*
X73713836Y-72676714D01*
X73713836Y-72676714D02*
X73713836Y-72914809D01*
X73713836Y-72914809D02*
X73761456Y-73057666D01*
X73761456Y-73057666D02*
X73856694Y-73152904D01*
X73856694Y-73152904D02*
X73951932Y-73200523D01*
X73951932Y-73200523D02*
X74142408Y-73248142D01*
X74142408Y-73248142D02*
X74285265Y-73248142D01*
X74285265Y-73248142D02*
X74475741Y-73200523D01*
X74475741Y-73200523D02*
X74570979Y-73152904D01*
X74570979Y-73152904D02*
X74666217Y-73057666D01*
X74666217Y-73057666D02*
X74713836Y-72914809D01*
X74713836Y-72914809D02*
X74713836Y-72676714D01*
X73713836Y-73581476D02*
X73713836Y-74200523D01*
X73713836Y-74200523D02*
X74094789Y-73867190D01*
X74094789Y-73867190D02*
X74094789Y-74010047D01*
X74094789Y-74010047D02*
X74142408Y-74105285D01*
X74142408Y-74105285D02*
X74190027Y-74152904D01*
X74190027Y-74152904D02*
X74285265Y-74200523D01*
X74285265Y-74200523D02*
X74523360Y-74200523D01*
X74523360Y-74200523D02*
X74618598Y-74152904D01*
X74618598Y-74152904D02*
X74666217Y-74105285D01*
X74666217Y-74105285D02*
X74713836Y-74010047D01*
X74713836Y-74010047D02*
X74713836Y-73724333D01*
X74713836Y-73724333D02*
X74666217Y-73629095D01*
X74666217Y-73629095D02*
X74618598Y-73581476D01*
%TO.C,D1*%
X101784550Y-65882189D02*
X101784550Y-64882189D01*
X101784550Y-64882189D02*
X101546455Y-64882189D01*
X101546455Y-64882189D02*
X101403598Y-64929809D01*
X101403598Y-64929809D02*
X101308360Y-65025047D01*
X101308360Y-65025047D02*
X101260741Y-65120285D01*
X101260741Y-65120285D02*
X101213122Y-65310761D01*
X101213122Y-65310761D02*
X101213122Y-65453618D01*
X101213122Y-65453618D02*
X101260741Y-65644094D01*
X101260741Y-65644094D02*
X101308360Y-65739332D01*
X101308360Y-65739332D02*
X101403598Y-65834570D01*
X101403598Y-65834570D02*
X101546455Y-65882189D01*
X101546455Y-65882189D02*
X101784550Y-65882189D01*
X100260741Y-65882189D02*
X100832169Y-65882189D01*
X100546455Y-65882189D02*
X100546455Y-64882189D01*
X100546455Y-64882189D02*
X100641693Y-65025047D01*
X100641693Y-65025047D02*
X100736931Y-65120285D01*
X100736931Y-65120285D02*
X100832169Y-65167904D01*
%TO.C,R4*%
X62613836Y-74548142D02*
X62137646Y-74214809D01*
X62613836Y-73976714D02*
X61613836Y-73976714D01*
X61613836Y-73976714D02*
X61613836Y-74357666D01*
X61613836Y-74357666D02*
X61661456Y-74452904D01*
X61661456Y-74452904D02*
X61709075Y-74500523D01*
X61709075Y-74500523D02*
X61804313Y-74548142D01*
X61804313Y-74548142D02*
X61947170Y-74548142D01*
X61947170Y-74548142D02*
X62042408Y-74500523D01*
X62042408Y-74500523D02*
X62090027Y-74452904D01*
X62090027Y-74452904D02*
X62137646Y-74357666D01*
X62137646Y-74357666D02*
X62137646Y-73976714D01*
X61947170Y-75405285D02*
X62613836Y-75405285D01*
X61566217Y-75167190D02*
X62280503Y-74929095D01*
X62280503Y-74929095D02*
X62280503Y-75548142D01*
%TO.C,R3*%
X82106914Y-78722879D02*
X82297891Y-78173883D01*
X82656723Y-78567185D02*
X82384258Y-77605019D01*
X82384258Y-77605019D02*
X82017719Y-77708815D01*
X82017719Y-77708815D02*
X81939059Y-77780582D01*
X81939059Y-77780582D02*
X81906216Y-77839374D01*
X81906216Y-77839374D02*
X81886348Y-77943983D01*
X81886348Y-77943983D02*
X81925271Y-78081435D01*
X81925271Y-78081435D02*
X81997038Y-78160096D01*
X81997038Y-78160096D02*
X82055830Y-78192939D01*
X82055830Y-78192939D02*
X82160439Y-78212807D01*
X82160439Y-78212807D02*
X82526978Y-78109011D01*
X81513728Y-77851535D02*
X80918101Y-78020204D01*
X80918101Y-78020204D02*
X81342619Y-78295922D01*
X81342619Y-78295922D02*
X81205167Y-78334845D01*
X81205167Y-78334845D02*
X81126507Y-78406612D01*
X81126507Y-78406612D02*
X81093664Y-78465404D01*
X81093664Y-78465404D02*
X81073795Y-78570013D01*
X81073795Y-78570013D02*
X81138668Y-78799100D01*
X81138668Y-78799100D02*
X81210435Y-78877760D01*
X81210435Y-78877760D02*
X81269226Y-78910603D01*
X81269226Y-78910603D02*
X81373836Y-78930472D01*
X81373836Y-78930472D02*
X81648740Y-78852624D01*
X81648740Y-78852624D02*
X81727401Y-78780858D01*
X81727401Y-78780858D02*
X81760243Y-78722066D01*
%TO.C,R2*%
X77106914Y-80522879D02*
X77297891Y-79973883D01*
X77656723Y-80367185D02*
X77384258Y-79405019D01*
X77384258Y-79405019D02*
X77017719Y-79508815D01*
X77017719Y-79508815D02*
X76939059Y-79580582D01*
X76939059Y-79580582D02*
X76906216Y-79639374D01*
X76906216Y-79639374D02*
X76886348Y-79743983D01*
X76886348Y-79743983D02*
X76925271Y-79881435D01*
X76925271Y-79881435D02*
X76997038Y-79960096D01*
X76997038Y-79960096D02*
X77055830Y-79992939D01*
X77055830Y-79992939D02*
X77160439Y-80012807D01*
X77160439Y-80012807D02*
X77526978Y-79909011D01*
X76493859Y-79756144D02*
X76435067Y-79723302D01*
X76435067Y-79723302D02*
X76330458Y-79703433D01*
X76330458Y-79703433D02*
X76101371Y-79768306D01*
X76101371Y-79768306D02*
X76022711Y-79840072D01*
X76022711Y-79840072D02*
X75989868Y-79898864D01*
X75989868Y-79898864D02*
X75969999Y-80003474D01*
X75969999Y-80003474D02*
X75995948Y-80095108D01*
X75995948Y-80095108D02*
X76080689Y-80219586D01*
X76080689Y-80219586D02*
X76786193Y-80613701D01*
X76786193Y-80613701D02*
X76190566Y-80782370D01*
D11*
%TO.C,SW2*%
X94514506Y-68878262D02*
X94432045Y-69050813D01*
X94432045Y-69050813D02*
X94222077Y-69268408D01*
X94222077Y-69268408D02*
X94094570Y-69313452D01*
X94094570Y-69313452D02*
X94009058Y-69314978D01*
X94009058Y-69314978D02*
X93880026Y-69274510D01*
X93880026Y-69274510D02*
X93792988Y-69190523D01*
X93792988Y-69190523D02*
X93747943Y-69063016D01*
X93747943Y-69063016D02*
X93746418Y-68977504D01*
X93746418Y-68977504D02*
X93786886Y-68848472D01*
X93786886Y-68848472D02*
X93911341Y-68632402D01*
X93911341Y-68632402D02*
X93951809Y-68503371D01*
X93951809Y-68503371D02*
X93950284Y-68417858D01*
X93950284Y-68417858D02*
X93905239Y-68290352D01*
X93905239Y-68290352D02*
X93818201Y-68206364D01*
X93818201Y-68206364D02*
X93689170Y-68165896D01*
X93689170Y-68165896D02*
X93603657Y-68167422D01*
X93603657Y-68167422D02*
X93476151Y-68212466D01*
X93476151Y-68212466D02*
X93266183Y-68430062D01*
X93266183Y-68430062D02*
X93183721Y-68602612D01*
X92846247Y-68865252D02*
X93550179Y-69964713D01*
X93550179Y-69964713D02*
X92729419Y-69508885D01*
X92729419Y-69508885D02*
X93214230Y-70312865D01*
X93214230Y-70312865D02*
X92090362Y-69648595D01*
X91883445Y-70037216D02*
X91797932Y-70038742D01*
X91797932Y-70038742D02*
X91670426Y-70083786D01*
X91670426Y-70083786D02*
X91460458Y-70301382D01*
X91460458Y-70301382D02*
X91419990Y-70430413D01*
X91419990Y-70430413D02*
X91421516Y-70515926D01*
X91421516Y-70515926D02*
X91466560Y-70643432D01*
X91466560Y-70643432D02*
X91553598Y-70727419D01*
X91553598Y-70727419D02*
X91726149Y-70809881D01*
X91726149Y-70809881D02*
X92752301Y-70791575D01*
X92752301Y-70791575D02*
X92206384Y-71357323D01*
D10*
%TO.C,D2*%
X104484550Y-51182189D02*
X104484550Y-50182189D01*
X104484550Y-50182189D02*
X104246455Y-50182189D01*
X104246455Y-50182189D02*
X104103598Y-50229809D01*
X104103598Y-50229809D02*
X104008360Y-50325047D01*
X104008360Y-50325047D02*
X103960741Y-50420285D01*
X103960741Y-50420285D02*
X103913122Y-50610761D01*
X103913122Y-50610761D02*
X103913122Y-50753618D01*
X103913122Y-50753618D02*
X103960741Y-50944094D01*
X103960741Y-50944094D02*
X104008360Y-51039332D01*
X104008360Y-51039332D02*
X104103598Y-51134570D01*
X104103598Y-51134570D02*
X104246455Y-51182189D01*
X104246455Y-51182189D02*
X104484550Y-51182189D01*
X103532169Y-50277428D02*
X103484550Y-50229809D01*
X103484550Y-50229809D02*
X103389312Y-50182189D01*
X103389312Y-50182189D02*
X103151217Y-50182189D01*
X103151217Y-50182189D02*
X103055979Y-50229809D01*
X103055979Y-50229809D02*
X103008360Y-50277428D01*
X103008360Y-50277428D02*
X102960741Y-50372666D01*
X102960741Y-50372666D02*
X102960741Y-50467904D01*
X102960741Y-50467904D02*
X103008360Y-50610761D01*
X103008360Y-50610761D02*
X103579788Y-51182189D01*
X103579788Y-51182189D02*
X102960741Y-51182189D01*
D12*
%TO.C,SW2*%
X64734837Y-48017425D02*
X61103729Y-48990378D01*
X64604895Y-47532474D02*
X64734837Y-48017425D01*
X64221842Y-46102902D02*
X64261732Y-46251772D01*
X63748737Y-44337248D02*
X63878679Y-44822200D01*
X61103729Y-48990378D02*
X60973787Y-48505426D01*
X60630624Y-47224724D02*
X60590734Y-47075854D01*
X60247571Y-45795152D02*
X60117629Y-45310201D01*
X60117629Y-45310201D02*
X63748737Y-44337248D01*
X66378803Y-44865844D02*
G75*
G03*
X66378803Y-44865844I-101600J0D01*
G01*
D13*
%TO.C,C5*%
X46686292Y-83486656D02*
X46454622Y-83486656D01*
X46686292Y-82766656D02*
X46454622Y-82766656D01*
%TO.C,C2*%
X44986292Y-64386656D02*
X44754622Y-64386656D01*
X44986292Y-63666656D02*
X44754622Y-63666656D01*
%TO.C,C4*%
X47054622Y-75566656D02*
X47286292Y-75566656D01*
X47054622Y-76286656D02*
X47286292Y-76286656D01*
%TO.C,Y1*%
X45670457Y-64676656D02*
X45670457Y-70426656D01*
X42070457Y-64676656D02*
X45670457Y-64676656D01*
X42070457Y-70426656D02*
X42070457Y-64676656D01*
D10*
%TO.C,SW1*%
X78771432Y-53431090D02*
G75*
G03*
X78771432Y-53431090I-200001J0D01*
G01*
D13*
%TO.C,R3*%
X46738078Y-85606656D02*
X46402836Y-85606656D01*
X46738078Y-84846656D02*
X46402836Y-84846656D01*
%TO.C,U2*%
X49330457Y-79526656D02*
X49330457Y-78726656D01*
X49330457Y-79526656D02*
X49330457Y-80326656D01*
X46210457Y-79526656D02*
X46210457Y-77726656D01*
X46210457Y-79526656D02*
X46210457Y-80326656D01*
%TO.C,C1*%
X43986292Y-71786656D02*
X43754622Y-71786656D01*
X43986292Y-71066656D02*
X43754622Y-71066656D01*
%TO.C,R2*%
X49550457Y-83859035D02*
X49550457Y-84194277D01*
X48790457Y-83859035D02*
X48790457Y-84194277D01*
D12*
%TO.C,SW3*%
X54636079Y-50766077D02*
X51004971Y-51739030D01*
X54506137Y-50281126D02*
X54636079Y-50766077D01*
X54123084Y-48851554D02*
X54162974Y-49000424D01*
X53649979Y-47085900D02*
X53779921Y-47570852D01*
X51004971Y-51739030D02*
X50875029Y-51254078D01*
X50531866Y-49973376D02*
X50491976Y-49824506D01*
X50148813Y-48543804D02*
X50018871Y-48058853D01*
X50018871Y-48058853D02*
X53649979Y-47085900D01*
X56280045Y-47614496D02*
G75*
G03*
X56280045Y-47614496I-101600J0D01*
G01*
D13*
%TO.C,R1*%
X51638078Y-53306656D02*
X51302836Y-53306656D01*
X51638078Y-52546656D02*
X51302836Y-52546656D01*
%TO.C,U1*%
X50805457Y-64036656D02*
X50805457Y-63311656D01*
X50080457Y-64036656D02*
X50805457Y-64036656D01*
X50080457Y-59816656D02*
X50805457Y-59816656D01*
X47310457Y-64036656D02*
X46585457Y-64036656D01*
X47310457Y-59816656D02*
X46585457Y-59816656D01*
X46585457Y-64036656D02*
X46585457Y-63311656D01*
X46585457Y-59816656D02*
X46585457Y-60541656D01*
%TO.C,C3*%
X47453792Y-67686656D02*
X47222122Y-67686656D01*
X47453792Y-66966656D02*
X47222122Y-66966656D01*
%TO.C,C9*%
X158512495Y-82481560D02*
X158280825Y-82481560D01*
X158512495Y-83201560D02*
X158280825Y-83201560D01*
%TO.C,C10*%
X163506660Y-83707395D02*
X163506660Y-83475725D01*
X162786660Y-83707395D02*
X162786660Y-83475725D01*
%TO.C,R33*%
X156049160Y-71456439D02*
X156049160Y-71791681D01*
X156809160Y-71456439D02*
X156809160Y-71791681D01*
%TO.C,R5*%
X156745539Y-78776560D02*
X157080781Y-78776560D01*
X156745539Y-78016560D02*
X157080781Y-78016560D01*
%TO.C,C37*%
X157134995Y-68999060D02*
X156903325Y-68999060D01*
X157134995Y-69719060D02*
X156903325Y-69719060D01*
%TO.C,R12*%
X161314281Y-83961560D02*
X160979039Y-83961560D01*
X161314281Y-84721560D02*
X160979039Y-84721560D01*
%TO.C,R36*%
X156911539Y-68356560D02*
X157246781Y-68356560D01*
X156911539Y-67596560D02*
X157246781Y-67596560D01*
%TO.C,C40*%
X158313325Y-65466560D02*
X158544995Y-65466560D01*
X158313325Y-64746560D02*
X158544995Y-64746560D01*
%TO.C,C13*%
X158512495Y-88249060D02*
X158280825Y-88249060D01*
X158512495Y-88969060D02*
X158280825Y-88969060D01*
%TO.C,R9*%
X161240781Y-80903086D02*
X160905539Y-80903086D01*
X161240781Y-81663086D02*
X160905539Y-81663086D01*
%TO.C,R32*%
X161011539Y-72754060D02*
X161346781Y-72754060D01*
X161011539Y-71994060D02*
X161346781Y-71994060D01*
%TO.C,R34*%
X161346781Y-70494060D02*
X161011539Y-70494060D01*
X161346781Y-71254060D02*
X161011539Y-71254060D01*
%TO.C,R7*%
X160093160Y-77465465D02*
X160093160Y-77800707D01*
X160853160Y-77465465D02*
X160853160Y-77800707D01*
%TO.C,C6*%
X162713160Y-80417251D02*
X162713160Y-80648921D01*
X163433160Y-80417251D02*
X163433160Y-80648921D01*
%TO.C,R40*%
X161346781Y-64726560D02*
X161011539Y-64726560D01*
X161346781Y-65486560D02*
X161011539Y-65486560D01*
%TO.C,C2*%
X163433160Y-74881421D02*
X163433160Y-74649751D01*
X162713160Y-74881421D02*
X162713160Y-74649751D01*
%TO.C,R1*%
X160905539Y-74395586D02*
X161240781Y-74395586D01*
X160905539Y-73635586D02*
X161240781Y-73635586D01*
%TO.C,R27*%
X170946781Y-69124060D02*
X170611539Y-69124060D01*
X170946781Y-69884060D02*
X170611539Y-69884060D01*
%TO.C,C29*%
X170723325Y-68481560D02*
X170954995Y-68481560D01*
X170723325Y-67761560D02*
X170954995Y-67761560D01*
%TO.C,R35*%
X158699160Y-68558939D02*
X158699160Y-68894181D01*
X159459160Y-68558939D02*
X159459160Y-68894181D01*
%TO.C,R38*%
X160959160Y-68891681D02*
X160959160Y-68556439D01*
X160199160Y-68891681D02*
X160199160Y-68556439D01*
%TO.C,C32*%
X169544995Y-72014060D02*
X169313325Y-72014060D01*
X169544995Y-72734060D02*
X169313325Y-72734060D01*
%TO.C,R39*%
X156049160Y-65688939D02*
X156049160Y-66024181D01*
X156809160Y-65688939D02*
X156809160Y-66024181D01*
%TO.C,R25*%
X166511539Y-66986560D02*
X166846781Y-66986560D01*
X166511539Y-66226560D02*
X166846781Y-66226560D01*
%TO.C,C11*%
X158280825Y-84701560D02*
X158512495Y-84701560D01*
X158280825Y-83981560D02*
X158512495Y-83981560D01*
%TO.C,R16*%
X160166660Y-86291439D02*
X160166660Y-86626681D01*
X160926660Y-86291439D02*
X160926660Y-86626681D01*
%TO.C,R30*%
X171809160Y-71791681D02*
X171809160Y-71456439D01*
X171049160Y-71791681D02*
X171049160Y-71456439D01*
%TO.C,C33*%
X166139160Y-68872395D02*
X166139160Y-68640725D01*
X165419160Y-68872395D02*
X165419160Y-68640725D01*
%TO.C,R29*%
X166899160Y-68588939D02*
X166899160Y-68924181D01*
X167659160Y-68588939D02*
X167659160Y-68924181D01*
%TO.C,C5*%
X158438995Y-79423086D02*
X158207325Y-79423086D01*
X158438995Y-80143086D02*
X158207325Y-80143086D01*
%TO.C,C14*%
X163974160Y-87827395D02*
X163974160Y-87595725D01*
X163254160Y-87827395D02*
X163254160Y-87595725D01*
%TO.C,R26*%
X169159160Y-68921681D02*
X169159160Y-68586439D01*
X168399160Y-68921681D02*
X168399160Y-68586439D01*
%TO.C,C12*%
X157162495Y-85491274D02*
X156930825Y-85491274D01*
X157162495Y-86211274D02*
X156930825Y-86211274D01*
%TO.C,C35*%
X162819160Y-71508225D02*
X162819160Y-71739895D01*
X163539160Y-71508225D02*
X163539160Y-71739895D01*
%TO.C,R24*%
X171809160Y-66024181D02*
X171809160Y-65688939D01*
X171049160Y-66024181D02*
X171049160Y-65688939D01*
%TO.C,R18*%
X161314281Y-89729060D02*
X160979039Y-89729060D01*
X161314281Y-90489060D02*
X160979039Y-90489060D01*
%TO.C,C4*%
X157001038Y-76651991D02*
X156769368Y-76651991D01*
X157001038Y-77371991D02*
X156769368Y-77371991D01*
%TO.C,R31*%
X166511539Y-72754060D02*
X166846781Y-72754060D01*
X166511539Y-71994060D02*
X166846781Y-71994060D01*
%TO.C,R4*%
X159353160Y-77803207D02*
X159353160Y-77467965D01*
X158593160Y-77803207D02*
X158593160Y-77467965D01*
%TO.C,R28*%
X166846781Y-70494060D02*
X166511539Y-70494060D01*
X166846781Y-71254060D02*
X166511539Y-71254060D01*
%TO.C,C15*%
X158280825Y-90469060D02*
X158512495Y-90469060D01*
X158280825Y-89749060D02*
X158512495Y-89749060D01*
%TO.C,R10*%
X160979039Y-83221560D02*
X161314281Y-83221560D01*
X160979039Y-82461560D02*
X161314281Y-82461560D01*
%TO.C,C28*%
X169544995Y-66246560D02*
X169313325Y-66246560D01*
X169544995Y-66966560D02*
X169313325Y-66966560D01*
%TO.C,C27*%
X165039160Y-65972395D02*
X165039160Y-65740725D01*
X164319160Y-65972395D02*
X164319160Y-65740725D01*
%TO.C,C31*%
X169330825Y-74171560D02*
X169562495Y-74171560D01*
X169330825Y-73451560D02*
X169562495Y-73451560D01*
%TO.C,C41*%
X161719160Y-68608225D02*
X161719160Y-68839895D01*
X162439160Y-68608225D02*
X162439160Y-68839895D01*
%TO.C,C36*%
X158313325Y-71234060D02*
X158544995Y-71234060D01*
X158313325Y-70514060D02*
X158544995Y-70514060D01*
%TO.C,R11*%
X156776660Y-83759181D02*
X156776660Y-83423939D01*
X156016660Y-83759181D02*
X156016660Y-83423939D01*
%TO.C,C39*%
X162819160Y-65740725D02*
X162819160Y-65972395D01*
X163539160Y-65740725D02*
X163539160Y-65972395D01*
%TO.C,J1*%
X169874160Y-80771560D02*
X168874160Y-80771560D01*
X169874160Y-76951560D02*
X169874160Y-80771560D01*
X168874160Y-76951560D02*
X169874160Y-76951560D01*
X165054160Y-80771560D02*
X165054160Y-81194893D01*
X165054160Y-76951560D02*
X164054160Y-76951560D01*
X164054160Y-80771560D02*
X165054160Y-80771560D01*
X164054160Y-76951560D02*
X164054160Y-80771560D01*
%TO.C,C8*%
X162333160Y-77748921D02*
X162333160Y-77517251D01*
X161613160Y-77748921D02*
X161613160Y-77517251D01*
%TO.C,C30*%
X169313325Y-71234060D02*
X169544995Y-71234060D01*
X169313325Y-70514060D02*
X169544995Y-70514060D01*
%TO.C,C38*%
X158544995Y-66246560D02*
X158313325Y-66246560D01*
X158544995Y-66966560D02*
X158313325Y-66966560D01*
%TO.C,R6*%
X160905539Y-80163086D02*
X161240781Y-80163086D01*
X160905539Y-79403086D02*
X161240781Y-79403086D01*
%TO.C,R17*%
X156776660Y-89526681D02*
X156776660Y-89191439D01*
X156016660Y-89526681D02*
X156016660Y-89191439D01*
%TO.C,C16*%
X162406660Y-86574895D02*
X162406660Y-86343225D01*
X161686660Y-86574895D02*
X161686660Y-86343225D01*
%TO.C,R2*%
X156703160Y-74933207D02*
X156703160Y-74597965D01*
X155943160Y-74933207D02*
X155943160Y-74597965D01*
%TO.C,C7*%
X158207325Y-81643086D02*
X158438995Y-81643086D01*
X158207325Y-80923086D02*
X158438995Y-80923086D01*
%TO.C,C3*%
X158207325Y-75875586D02*
X158438995Y-75875586D01*
X158207325Y-75155586D02*
X158438995Y-75155586D01*
%TO.C,C34*%
X158544995Y-72014060D02*
X158313325Y-72014060D01*
X158544995Y-72734060D02*
X158313325Y-72734060D01*
%TO.C,R3*%
X161240781Y-75135586D02*
X160905539Y-75135586D01*
X161240781Y-75895586D02*
X160905539Y-75895586D01*
%TO.C,C1*%
X158438995Y-73655586D02*
X158207325Y-73655586D01*
X158438995Y-74375586D02*
X158207325Y-74375586D01*
%TO.C,R15*%
X160979039Y-88989060D02*
X161314281Y-88989060D01*
X160979039Y-88229060D02*
X161314281Y-88229060D01*
%TO.C,R8*%
X156703160Y-80700707D02*
X156703160Y-80365465D01*
X155943160Y-80700707D02*
X155943160Y-80365465D01*
%TO.C,R37*%
X161011539Y-66986560D02*
X161346781Y-66986560D01*
X161011539Y-66226560D02*
X161346781Y-66226560D01*
%TO.C,R13*%
X159426660Y-86629181D02*
X159426660Y-86293939D01*
X158666660Y-86629181D02*
X158666660Y-86293939D01*
%TO.C,R23*%
X166846781Y-64726560D02*
X166511539Y-64726560D01*
X166846781Y-65486560D02*
X166511539Y-65486560D01*
%TO.C,R14*%
X156819039Y-87613774D02*
X157154281Y-87613774D01*
X156819039Y-86853774D02*
X157154281Y-86853774D01*
%TO.C,C26*%
X169313325Y-65466560D02*
X169544995Y-65466560D01*
X169313325Y-64746560D02*
X169544995Y-64746560D01*
%TO.C,R18*%
X163771000Y-51811621D02*
X163771000Y-51476379D01*
X164531000Y-51811621D02*
X164531000Y-51476379D01*
%TO.C,C6*%
X172468335Y-54050000D02*
X172236665Y-54050000D01*
X172468335Y-53330000D02*
X172236665Y-53330000D01*
%TO.C,R4*%
X169650121Y-49970000D02*
X169314879Y-49970000D01*
X169650121Y-49210000D02*
X169314879Y-49210000D01*
%TO.C,R12*%
X158003500Y-51811621D02*
X158003500Y-51476379D01*
X158763500Y-51811621D02*
X158763500Y-51476379D01*
%TO.C,C8*%
X169600835Y-52950000D02*
X169369165Y-52950000D01*
X169600835Y-52230000D02*
X169369165Y-52230000D01*
%TO.C,C2*%
X166700835Y-54050000D02*
X166469165Y-54050000D01*
X166700835Y-53330000D02*
X166469165Y-53330000D01*
%TO.C,C11*%
X158743500Y-48778165D02*
X158743500Y-49009835D01*
X158023500Y-48778165D02*
X158023500Y-49009835D01*
%TO.C,R1*%
X166215000Y-51522379D02*
X166215000Y-51857621D01*
X165455000Y-51522379D02*
X165455000Y-51857621D01*
%TO.C,C10*%
X157749335Y-54004000D02*
X157517665Y-54004000D01*
X157749335Y-53284000D02*
X157517665Y-53284000D01*
%TO.C,R9*%
X172722500Y-51857621D02*
X172722500Y-51522379D01*
X173482500Y-51857621D02*
X173482500Y-51522379D01*
%TO.C,R16*%
X160365879Y-50664000D02*
X160701121Y-50664000D01*
X160365879Y-51424000D02*
X160701121Y-51424000D01*
%TO.C,C16*%
X160649335Y-52904000D02*
X160417665Y-52904000D01*
X160649335Y-52184000D02*
X160417665Y-52184000D01*
%TO.C,R14*%
X161661000Y-47376379D02*
X161661000Y-47711621D01*
X160901000Y-47376379D02*
X160901000Y-47711621D01*
%TO.C,C7*%
X173462500Y-48824165D02*
X173462500Y-49055835D01*
X172742500Y-48824165D02*
X172742500Y-49055835D01*
%TO.C,R5*%
X170612500Y-47422379D02*
X170612500Y-47757621D01*
X169852500Y-47422379D02*
X169852500Y-47757621D01*
%TO.C,C1*%
X165475000Y-49055835D02*
X165475000Y-48824165D01*
X166195000Y-49055835D02*
X166195000Y-48824165D01*
%TO.C,C12*%
X159538500Y-47599835D02*
X159538500Y-47368165D01*
X160258500Y-47599835D02*
X160258500Y-47368165D01*
%TO.C,R7*%
X169317379Y-50710000D02*
X169652621Y-50710000D01*
X169317379Y-51470000D02*
X169652621Y-51470000D01*
%TO.C,R13*%
X160698621Y-49924000D02*
X160363379Y-49924000D01*
X160698621Y-49164000D02*
X160363379Y-49164000D01*
%TO.C,C14*%
X163285165Y-53284000D02*
X163516835Y-53284000D01*
X163285165Y-54004000D02*
X163516835Y-54004000D01*
%TO.C,R11*%
X157801121Y-47274000D02*
X157465879Y-47274000D01*
X157801121Y-46514000D02*
X157465879Y-46514000D01*
%TO.C,C4*%
X168490000Y-47645835D02*
X168490000Y-47414165D01*
X169210000Y-47645835D02*
X169210000Y-47414165D01*
%TO.C,R6*%
X171982500Y-51522379D02*
X171982500Y-51857621D01*
X171222500Y-51522379D02*
X171222500Y-51857621D01*
%TO.C,C15*%
X164511000Y-48778165D02*
X164511000Y-49009835D01*
X163791000Y-48778165D02*
X163791000Y-49009835D01*
%TO.C,R10*%
X157263500Y-51476379D02*
X157263500Y-51811621D01*
X156503500Y-51476379D02*
X156503500Y-51811621D01*
%TO.C,R2*%
X166752621Y-47320000D02*
X166417379Y-47320000D01*
X166752621Y-46560000D02*
X166417379Y-46560000D01*
%TO.C,R17*%
X163568621Y-47274000D02*
X163233379Y-47274000D01*
X163568621Y-46514000D02*
X163233379Y-46514000D01*
%TO.C,R15*%
X163031000Y-51476379D02*
X163031000Y-51811621D01*
X162271000Y-51476379D02*
X162271000Y-51811621D01*
%TO.C,C5*%
X171242500Y-49055835D02*
X171242500Y-48824165D01*
X171962500Y-49055835D02*
X171962500Y-48824165D01*
%TO.C,R3*%
X166955000Y-51857621D02*
X166955000Y-51522379D01*
X167715000Y-51857621D02*
X167715000Y-51522379D01*
%TO.C,C9*%
X156523500Y-49009835D02*
X156523500Y-48778165D01*
X157243500Y-49009835D02*
X157243500Y-48778165D01*
%TO.C,C13*%
X162291000Y-49009835D02*
X162291000Y-48778165D01*
X163011000Y-49009835D02*
X163011000Y-48778165D01*
%TO.C,J1*%
X166760000Y-54787262D02*
X162940000Y-54787262D01*
X162940000Y-54787262D02*
X162940000Y-55787262D01*
X166760000Y-55787262D02*
X166760000Y-54787262D01*
X162940000Y-55787262D02*
X162516667Y-55787262D01*
X166760000Y-59607262D02*
X166760000Y-60607262D01*
X166760000Y-60607262D02*
X162940000Y-60607262D01*
X162940000Y-60607262D02*
X162940000Y-59607262D01*
%TO.C,R8*%
X172520121Y-47320000D02*
X172184879Y-47320000D01*
X172520121Y-46560000D02*
X172184879Y-46560000D01*
%TO.C,C3*%
X167695000Y-48824165D02*
X167695000Y-49055835D01*
X166975000Y-48824165D02*
X166975000Y-49055835D01*
%TO.C,U6*%
X144710000Y-70112500D02*
X144710000Y-69312500D01*
X144710000Y-70112500D02*
X144710000Y-70912500D01*
X141590000Y-70112500D02*
X141590000Y-68312500D01*
X141590000Y-70112500D02*
X141590000Y-70912500D01*
%TO.C,D2*%
X145900000Y-72210000D02*
X145900000Y-68200000D01*
X147900000Y-72210000D02*
X145900000Y-72210000D01*
X147900000Y-72210000D02*
X147900000Y-68200000D01*
%TO.C,U2*%
X150358000Y-54230500D02*
X149883000Y-54230500D01*
X150358000Y-54705500D02*
X150358000Y-54230500D01*
X143138000Y-54705500D02*
X143138000Y-54230500D01*
X150358000Y-60975500D02*
X150358000Y-61450500D01*
X143138000Y-60975500D02*
X143138000Y-61450500D01*
X150358000Y-61450500D02*
X149883000Y-61450500D01*
X143138000Y-61450500D02*
X143613000Y-61450500D01*
%TO.C,IC1*%
X129721428Y-74550000D02*
X129721428Y-75650000D01*
X130821428Y-74550000D02*
X129721428Y-74550000D01*
X130821428Y-80750000D02*
X129546428Y-80750000D01*
X134821428Y-74550000D02*
X135921428Y-74550000D01*
X134821428Y-80750000D02*
X135921428Y-80750000D01*
X135921428Y-74550000D02*
X135921428Y-75650000D01*
X135921428Y-80750000D02*
X135921428Y-79650000D01*
%TO.C,U3*%
X152260000Y-69815000D02*
X152260000Y-69015000D01*
X152260000Y-69815000D02*
X152260000Y-70615000D01*
X149140000Y-69815000D02*
X149140000Y-68015000D01*
X149140000Y-69815000D02*
X149140000Y-70615000D01*
%TO.C,U8*%
X126532500Y-46322000D02*
X125732500Y-46322000D01*
X126532500Y-46322000D02*
X127332500Y-46322000D01*
X126532500Y-49442000D02*
X124732500Y-49442000D01*
X126532500Y-49442000D02*
X127332500Y-49442000D01*
%TO.C,IC2*%
X127925000Y-80750000D02*
X127925000Y-79650000D01*
X126825000Y-80750000D02*
X127925000Y-80750000D01*
X126825000Y-74550000D02*
X128100000Y-74550000D01*
X122825000Y-80750000D02*
X121725000Y-80750000D01*
X122825000Y-74550000D02*
X121725000Y-74550000D01*
X121725000Y-80750000D02*
X121725000Y-79650000D01*
X121725000Y-74550000D02*
X121725000Y-75650000D01*
%TO.C,U4*%
X147300000Y-66860000D02*
X148100000Y-66860000D01*
X147300000Y-66860000D02*
X146500000Y-66860000D01*
X147300000Y-63740000D02*
X149100000Y-63740000D01*
X147300000Y-63740000D02*
X146500000Y-63740000D01*
%TO.C,U7*%
X141540000Y-65650000D02*
X141540000Y-66450000D01*
X141540000Y-65650000D02*
X141540000Y-64850000D01*
X144660000Y-65650000D02*
X144660000Y-67450000D01*
X144660000Y-65650000D02*
X144660000Y-64850000D01*
%TO.C,Y1*%
X145001500Y-52491500D02*
X143651500Y-52491500D01*
X145001500Y-50741500D02*
X143651500Y-50741500D01*
D12*
%TO.C,U5*%
X149844901Y-65333945D02*
X149844901Y-64308655D01*
X152207101Y-64308655D02*
X152207101Y-65333945D01*
X151877601Y-66731000D02*
G75*
G03*
X151877601Y-66731000I-101600J0D01*
G01*
D13*
%TO.C,U1*%
X139930000Y-56560000D02*
X107930000Y-56560000D01*
X117930000Y-56560000D02*
X117930000Y-71560000D01*
X107930000Y-56560000D02*
X107930000Y-71560000D01*
X121930000Y-65460000D02*
X121930000Y-70460000D01*
X117930000Y-65460000D02*
X121930000Y-65460000D01*
X121930000Y-70460000D02*
X117930000Y-70460000D01*
X139930000Y-71560000D02*
X139930000Y-56560000D01*
X107930000Y-71560000D02*
X139930000Y-71560000D01*
X113430000Y-56560000D02*
G75*
G03*
X114430000Y-56560000I500000J0D01*
G01*
X118130000Y-55960000D02*
G75*
G03*
X118130000Y-55960000I-200000J0D01*
G01*
D12*
%TO.C,SW1*%
X100146130Y-60002826D02*
X100996496Y-56341069D01*
X100635175Y-60116396D02*
X100146130Y-60002826D01*
X102076813Y-60451186D02*
X101926687Y-60416322D01*
X103857370Y-60864683D02*
X103368325Y-60751113D01*
X100996496Y-56341069D02*
X101485541Y-56454639D01*
X102777053Y-56754566D02*
X102927179Y-56789430D01*
X104218691Y-57089356D02*
X104707736Y-57202926D01*
X104707736Y-57202926D02*
X103857370Y-60864683D01*
X102302644Y-62846888D02*
G75*
G03*
X102302644Y-62846888I-101601J0D01*
G01*
D13*
%TO.C,J2*%
X70951286Y-75710723D02*
X65007870Y-74888649D01*
X65007870Y-74888649D02*
X63432229Y-86280197D01*
X63432229Y-86280197D02*
X69375644Y-87102271D01*
X69375644Y-87102271D02*
X70951286Y-75710723D01*
X68880359Y-87033765D02*
X63927512Y-86348703D01*
X63927512Y-86348703D02*
X63584981Y-88825126D01*
X63584981Y-88825126D02*
X68537828Y-89510188D01*
X68537828Y-89510188D02*
X68880359Y-87033765D01*
%TO.C,C2*%
X100729791Y-52674809D02*
X100498121Y-52674809D01*
X100729791Y-51954809D02*
X100498121Y-51954809D01*
D14*
%TO.C,J1*%
X86427661Y-88811878D02*
X77825899Y-91247715D01*
X86021688Y-87378251D02*
X86427661Y-88811878D01*
X84950901Y-83596940D02*
X85280583Y-84761161D01*
X77825899Y-91247715D02*
X77419927Y-89814088D01*
X76349139Y-86032777D02*
X76678822Y-87196997D01*
X83545088Y-80811849D02*
G75*
G03*
X83545088Y-80811849I-99999J0D01*
G01*
D13*
%TO.C,C1*%
X97186456Y-65230644D02*
X97186456Y-64998974D01*
X97906456Y-65230644D02*
X97906456Y-64998974D01*
%TO.C,D3*%
X77346456Y-71054809D02*
X77346456Y-75064809D01*
X75346456Y-71054809D02*
X77346456Y-71054809D01*
X75346456Y-71054809D02*
X75346456Y-75064809D01*
D15*
%TO.C,D1*%
X98396456Y-64914809D02*
X98396456Y-64264809D01*
X98396456Y-64264809D02*
X99046456Y-64264809D01*
D13*
%TO.C,R4*%
X63166456Y-74882430D02*
X63166456Y-74547188D01*
X63926456Y-74882430D02*
X63926456Y-74547188D01*
%TO.C,R3*%
X81781640Y-79494857D02*
X82104198Y-79403515D01*
X81988714Y-80226103D02*
X82311272Y-80134761D01*
%TO.C,R2*%
X77514605Y-81870267D02*
X77192047Y-81961609D01*
X77307531Y-81139021D02*
X76984973Y-81230363D01*
D14*
%TO.C,SW2*%
X99026367Y-68846965D02*
X99602052Y-69402470D01*
X98066249Y-68545844D02*
X97510743Y-69121529D01*
X99798349Y-70495159D02*
X93965540Y-76539853D01*
D15*
X95942744Y-68442281D02*
X95942744Y-68442281D01*
X95870783Y-68372843D02*
X95870783Y-68372843D01*
D14*
X95635911Y-71064466D02*
X94386024Y-72359758D01*
X98412703Y-74091335D02*
X97510006Y-75026823D01*
X97333293Y-73049762D02*
X98412703Y-74091335D01*
X97510006Y-75026823D02*
X96430596Y-73985250D01*
X92511192Y-74302696D02*
X91955686Y-74878381D01*
X92290860Y-75827148D02*
X92866545Y-76382653D01*
D15*
X95870783Y-68372843D02*
G75*
G03*
X95942744Y-68442281I35980J-34719D01*
G01*
X95942743Y-68442280D02*
G75*
G03*
X95870783Y-68372843I-35980J34718D01*
G01*
%TO.C,D2*%
X100796456Y-50614809D02*
X100796456Y-49964809D01*
X100796456Y-49964809D02*
X101446456Y-49964809D01*
D16*
%TO.C,J3*%
X65619455Y-74014809D02*
G75*
G03*
X65619455Y-74014809I-381000J0D01*
G01*
%TD*%
M02*
