%TF.GenerationSoftware,KiCad,Pcbnew,(7.0.0)*%
%TF.CreationDate,2023-05-27T11:58:37+01:00*%
%TF.ProjectId,all,616c6c2e-6b69-4636-9164-5f7063625858,rev?*%
%TF.SameCoordinates,Original*%
%TF.FileFunction,Copper,L1,Top*%
%TF.FilePolarity,Positive*%
%FSLAX46Y46*%
G04 Gerber Fmt 4.6, Leading zero omitted, Abs format (unit mm)*
G04 Created by KiCad (PCBNEW (7.0.0)) date 2023-05-27 11:58:37*
%MOMM*%
%LPD*%
G01*
G04 APERTURE LIST*
G04 Aperture macros list*
%AMRoundRect*
0 Rectangle with rounded corners*
0 $1 Rounding radius*
0 $2 $3 $4 $5 $6 $7 $8 $9 X,Y pos of 4 corners*
0 Add a 4 corners polygon primitive as box body*
4,1,4,$2,$3,$4,$5,$6,$7,$8,$9,$2,$3,0*
0 Add four circle primitives for the rounded corners*
1,1,$1+$1,$2,$3*
1,1,$1+$1,$4,$5*
1,1,$1+$1,$6,$7*
1,1,$1+$1,$8,$9*
0 Add four rect primitives between the rounded corners*
20,1,$1+$1,$2,$3,$4,$5,0*
20,1,$1+$1,$4,$5,$6,$7,0*
20,1,$1+$1,$6,$7,$8,$9,0*
20,1,$1+$1,$8,$9,$2,$3,0*%
G04 Aperture macros list end*
%TA.AperFunction,SMDPad,CuDef*%
%ADD10RoundRect,0.150000X-0.624737X0.151091X-0.625261X-0.148909X0.624737X-0.151091X0.625261X0.148909X0*%
%TD*%
%TA.AperFunction,SMDPad,CuDef*%
%ADD11RoundRect,0.250000X-0.649388X0.351134X-0.650610X-0.348865X0.649388X-0.351134X0.650610X0.348865X0*%
%TD*%
%TA.AperFunction,SMDPad,CuDef*%
%ADD12C,1.000000*%
%TD*%
%TA.AperFunction,ComponentPad*%
%ADD13C,1.750000*%
%TD*%
%TA.AperFunction,SMDPad,CuDef*%
%ADD14RoundRect,0.160000X0.160000X-0.197500X0.160000X0.197500X-0.160000X0.197500X-0.160000X-0.197500X0*%
%TD*%
%TA.AperFunction,SMDPad,CuDef*%
%ADD15RoundRect,0.237500X0.237500X-0.287500X0.237500X0.287500X-0.237500X0.287500X-0.237500X-0.287500X0*%
%TD*%
%TA.AperFunction,SMDPad,CuDef*%
%ADD16RoundRect,0.155000X-0.212500X-0.155000X0.212500X-0.155000X0.212500X0.155000X-0.212500X0.155000X0*%
%TD*%
%TA.AperFunction,SMDPad,CuDef*%
%ADD17R,0.300000X1.600000*%
%TD*%
%TA.AperFunction,SMDPad,CuDef*%
%ADD18R,0.900000X1.000000*%
%TD*%
%TA.AperFunction,SMDPad,CuDef*%
%ADD19RoundRect,0.155000X0.212500X0.155000X-0.212500X0.155000X-0.212500X-0.155000X0.212500X-0.155000X0*%
%TD*%
%TA.AperFunction,SMDPad,CuDef*%
%ADD20RoundRect,0.160000X0.197500X0.160000X-0.197500X0.160000X-0.197500X-0.160000X0.197500X-0.160000X0*%
%TD*%
%TA.AperFunction,SMDPad,CuDef*%
%ADD21RoundRect,0.155000X-0.155000X0.212500X-0.155000X-0.212500X0.155000X-0.212500X0.155000X0.212500X0*%
%TD*%
%TA.AperFunction,SMDPad,CuDef*%
%ADD22RoundRect,0.155000X0.155000X-0.212500X0.155000X0.212500X-0.155000X0.212500X-0.155000X-0.212500X0*%
%TD*%
%TA.AperFunction,SMDPad,CuDef*%
%ADD23RoundRect,0.160000X-0.160000X0.197500X-0.160000X-0.197500X0.160000X-0.197500X0.160000X0.197500X0*%
%TD*%
%TA.AperFunction,SMDPad,CuDef*%
%ADD24RoundRect,0.160000X-0.197500X-0.160000X0.197500X-0.160000X0.197500X0.160000X-0.197500X0.160000X0*%
%TD*%
%TA.AperFunction,SMDPad,CuDef*%
%ADD25RoundRect,0.218750X-0.256250X0.218750X-0.256250X-0.218750X0.256250X-0.218750X0.256250X0.218750X0*%
%TD*%
%TA.AperFunction,SMDPad,CuDef*%
%ADD26R,0.304800X1.397000*%
%TD*%
%TA.AperFunction,SMDPad,CuDef*%
%ADD27R,2.641600X2.311400*%
%TD*%
%TA.AperFunction,ComponentPad*%
%ADD28C,3.000000*%
%TD*%
%TA.AperFunction,ComponentPad*%
%ADD29C,2.700000*%
%TD*%
%TA.AperFunction,SMDPad,CuDef*%
%ADD30R,0.609600X1.524000*%
%TD*%
%TA.AperFunction,SMDPad,CuDef*%
%ADD31R,0.812800X1.803400*%
%TD*%
%TA.AperFunction,ViaPad*%
%ADD32C,0.800000*%
%TD*%
%TA.AperFunction,ViaPad*%
%ADD33C,0.450000*%
%TD*%
%TA.AperFunction,Conductor*%
%ADD34C,0.150000*%
%TD*%
%TA.AperFunction,Conductor*%
%ADD35C,0.500000*%
%TD*%
%TA.AperFunction,Conductor*%
%ADD36C,0.100000*%
%TD*%
%TA.AperFunction,Conductor*%
%ADD37C,0.200000*%
%TD*%
%TA.AperFunction,Conductor*%
%ADD38C,0.250000*%
%TD*%
%TA.AperFunction,Conductor*%
%ADD39C,0.127000*%
%TD*%
%TA.AperFunction,Conductor*%
%ADD40C,0.400000*%
%TD*%
G04 APERTURE END LIST*
D10*
%TO.P,J6,1,Pin_1*%
%TO.N,N/C*%
X49099638Y-73834107D03*
%TO.P,J6,2,Pin_2*%
X49097892Y-74834106D03*
D11*
%TO.P,J6,MP,MP*%
X51626903Y-72538516D03*
X51620620Y-76138511D03*
%TD*%
D12*
%TO.P,TP12,1,1*%
%TO.N,N/C*%
X45722494Y-59938771D03*
%TD*%
%TO.P,TP15,1,1*%
%TO.N,N/C*%
X45722494Y-62438771D03*
%TD*%
%TO.P,TP9,1,1*%
%TO.N,N/C*%
X48222495Y-69938771D03*
%TD*%
%TO.P,TP6,1,1*%
%TO.N,N/C*%
X41770457Y-84926656D03*
%TD*%
%TO.P,TP7,1,1*%
%TO.N,N/C*%
X48222495Y-67438771D03*
%TD*%
%TO.P,TP3,1,1*%
%TO.N,N/C*%
X41761881Y-77086893D03*
%TD*%
%TO.P,TP18,1,1*%
%TO.N,N/C*%
X47670457Y-84426656D03*
%TD*%
%TO.P,TP17,1,1*%
%TO.N,N/C*%
X47670457Y-81926656D03*
%TD*%
%TO.P,TP13,1,1*%
%TO.N,N/C*%
X48222495Y-65038771D03*
%TD*%
%TO.P,TP16,1,1*%
%TO.N,N/C*%
X45722494Y-64938771D03*
%TD*%
%TO.P,TP8,1,1*%
%TO.N,N/C*%
X48222495Y-59938771D03*
%TD*%
%TO.P,TP11,1,1*%
%TO.N,N/C*%
X45722494Y-67438771D03*
%TD*%
D13*
%TO.P,J5,1,Pin_1*%
%TO.N,N/C*%
X54470457Y-56126656D03*
%TO.P,J5,2,Pin_2*%
X53762548Y-53376498D03*
%TO.P,J5,3,Pin_3*%
X56387419Y-54460266D03*
%TO.P,J5,4,Pin_4*%
X55679511Y-51710108D03*
%TO.P,J5,5,Pin_5*%
X58304382Y-52793876D03*
%TO.P,J5,6,Pin_6*%
X57596473Y-50043718D03*
%TD*%
D12*
%TO.P,TP10,1,1*%
%TO.N,N/C*%
X45722494Y-69938771D03*
%TD*%
D14*
%TO.P,R4,1*%
%TO.N,N/C*%
X48970457Y-79624156D03*
%TO.P,R4,2*%
X48970457Y-78429156D03*
%TD*%
D12*
%TO.P,TP2,1,1*%
%TO.N,N/C*%
X41761881Y-79586893D03*
%TD*%
%TO.P,TP14,1,1*%
%TO.N,N/C*%
X48222495Y-62438771D03*
%TD*%
%TO.P,TP20,1,1*%
%TO.N,N/C*%
X50170457Y-84426656D03*
%TD*%
%TO.P,TP4,1,1*%
%TO.N,N/C*%
X41761881Y-74586892D03*
%TD*%
%TO.P,TP5,1,1*%
%TO.N,N/C*%
X44170457Y-84926656D03*
%TD*%
%TO.P,TP1,1,1*%
%TO.N,N/C*%
X41761881Y-82086892D03*
%TD*%
%TO.P,TP19,1,1*%
%TO.N,N/C*%
X50170457Y-81926656D03*
%TD*%
D15*
%TO.P,D1,1,K*%
%TO.N,N/C*%
X46870457Y-79901656D03*
%TO.P,D1,2,A*%
X46870457Y-78151656D03*
%TD*%
D16*
%TO.P,C16,1*%
%TO.N,N/C*%
X133198500Y-82614000D03*
%TO.P,C16,2*%
X134333500Y-82614000D03*
%TD*%
D12*
%TO.P,J11,1,1*%
%TO.N,N/C*%
X134400000Y-47050000D03*
%TD*%
D17*
%TO.P,J23,1,Pin_1*%
%TO.N,N/C*%
X138899999Y-77799999D03*
%TO.P,J23,2,Pin_2*%
X139399999Y-77799999D03*
%TO.P,J23,3,Pin_3*%
X139899999Y-77799999D03*
%TO.P,J23,4,Pin_4*%
X140399999Y-77799999D03*
%TO.P,J23,5,Pin_5*%
X140899999Y-77799999D03*
%TO.P,J23,6,Pin_6*%
X141399999Y-77799999D03*
%TO.P,J23,7,Pin_7*%
X141899999Y-77799999D03*
%TO.P,J23,8,Pin_8*%
X138899999Y-74199999D03*
%TO.P,J23,9,Pin_9*%
X139399999Y-74199999D03*
%TO.P,J23,10,Pin_10*%
X139899999Y-74199999D03*
%TO.P,J23,11,Pin_11*%
X140399999Y-74199999D03*
%TO.P,J23,12,Pin_12*%
X140899999Y-74199999D03*
%TO.P,J23,13,Pin_13*%
X141399999Y-74199999D03*
%TO.P,J23,14,Pin_14*%
X141899999Y-74199999D03*
%TD*%
D12*
%TO.P,J12,1,1*%
%TO.N,N/C*%
X133105627Y-44890795D03*
%TD*%
%TO.P,J20,1,1*%
%TO.N,N/C*%
X125892000Y-47308000D03*
%TD*%
D18*
%TO.P,SW2,1,A*%
%TO.N,N/C*%
X127649999Y-54749999D03*
X123549999Y-54749999D03*
%TO.P,SW2,2,B*%
X127649999Y-53149999D03*
X123549999Y-53149999D03*
%TD*%
D19*
%TO.P,C77,1*%
%TO.N,N/C*%
X144098000Y-55040500D03*
%TO.P,C77,2*%
X142963000Y-55040500D03*
%TD*%
D20*
%TO.P,R47,1*%
%TO.N,N/C*%
X128047500Y-84650000D03*
%TO.P,R47,2*%
X126852500Y-84650000D03*
%TD*%
D12*
%TO.P,J9,1,1*%
%TO.N,N/C*%
X131900000Y-47050000D03*
%TD*%
D21*
%TO.P,C78,1*%
%TO.N,N/C*%
X126400000Y-49026500D03*
%TO.P,C78,2*%
X126400000Y-50161500D03*
%TD*%
%TO.P,C10,1*%
%TO.N,N/C*%
X132500000Y-72332500D03*
%TO.P,C10,2*%
X132500000Y-73467500D03*
%TD*%
D12*
%TO.P,J21,1,1*%
%TO.N,N/C*%
X127162000Y-44890795D03*
%TD*%
%TO.P,J15,1,1*%
%TO.N,N/C*%
X138105627Y-44890795D03*
%TD*%
D22*
%TO.P,C58,1*%
%TO.N,N/C*%
X122050000Y-75017500D03*
%TO.P,C58,2*%
X122050000Y-73882500D03*
%TD*%
D12*
%TO.P,J6,1,1*%
%TO.N,N/C*%
X114700000Y-87650000D03*
%TD*%
D21*
%TO.P,C79,1*%
%TO.N,N/C*%
X127983500Y-49026500D03*
%TO.P,C79,2*%
X127983500Y-50161500D03*
%TD*%
D19*
%TO.P,C75,1*%
%TO.N,N/C*%
X144067500Y-67150000D03*
%TO.P,C75,2*%
X142932500Y-67150000D03*
%TD*%
D14*
%TO.P,R7,1*%
%TO.N,N/C*%
X131750000Y-78745000D03*
%TO.P,R7,2*%
X131750000Y-77550000D03*
%TD*%
D23*
%TO.P,R2,1*%
%TO.N,N/C*%
X150530500Y-53193000D03*
%TO.P,R2,2*%
X150530500Y-54388000D03*
%TD*%
D21*
%TO.P,C13,1*%
%TO.N,N/C*%
X133252500Y-74815000D03*
%TO.P,C13,2*%
X133252500Y-75950000D03*
%TD*%
D14*
%TO.P,R43,1*%
%TO.N,N/C*%
X128202500Y-83047500D03*
%TO.P,R43,2*%
X128202500Y-81852500D03*
%TD*%
D23*
%TO.P,R73,1*%
%TO.N,N/C*%
X123352000Y-48996500D03*
%TO.P,R73,2*%
X123352000Y-50191500D03*
%TD*%
%TO.P,R72,1*%
%TO.N,N/C*%
X124876000Y-48996500D03*
%TO.P,R72,2*%
X124876000Y-50191500D03*
%TD*%
D21*
%TO.P,C14,1*%
%TO.N,N/C*%
X133000000Y-77580000D03*
%TO.P,C14,2*%
X133000000Y-78715000D03*
%TD*%
D14*
%TO.P,R4,1*%
%TO.N,N/C*%
X151650000Y-71050000D03*
%TO.P,R4,2*%
X151650000Y-69855000D03*
%TD*%
D21*
%TO.P,C4,1*%
%TO.N,N/C*%
X143092500Y-51557000D03*
%TO.P,C4,2*%
X143092500Y-52692000D03*
%TD*%
D12*
%TO.P,J14,1,1*%
%TO.N,N/C*%
X135605627Y-44890795D03*
%TD*%
D20*
%TO.P,R5,1*%
%TO.N,N/C*%
X144128000Y-58790500D03*
%TO.P,R5,2*%
X142933000Y-58790500D03*
%TD*%
D22*
%TO.P,C1,1*%
%TO.N,N/C*%
X141700000Y-61585000D03*
%TO.P,C1,2*%
X141700000Y-60450000D03*
%TD*%
D14*
%TO.P,R74,1*%
%TO.N,N/C*%
X142700000Y-65747500D03*
%TO.P,R74,2*%
X142700000Y-64552500D03*
%TD*%
D16*
%TO.P,C6,1*%
%TO.N,N/C*%
X150332500Y-68452500D03*
%TO.P,C6,2*%
X151467500Y-68452500D03*
%TD*%
D12*
%TO.P,J8,1,1*%
%TO.N,N/C*%
X122971000Y-47054000D03*
%TD*%
D24*
%TO.P,R1,1*%
%TO.N,N/C*%
X148933000Y-61290500D03*
%TO.P,R1,2*%
X150128000Y-61290500D03*
%TD*%
D12*
%TO.P,J7,1,1*%
%TO.N,N/C*%
X121701000Y-44895000D03*
%TD*%
%TO.P,J13,1,1*%
%TO.N,N/C*%
X136900000Y-47050000D03*
%TD*%
D22*
%TO.P,C9,1*%
%TO.N,N/C*%
X131000000Y-73467500D03*
%TO.P,C9,2*%
X131000000Y-72332500D03*
%TD*%
D21*
%TO.P,C54,1*%
%TO.N,N/C*%
X123450000Y-73882500D03*
%TO.P,C54,2*%
X123450000Y-75017500D03*
%TD*%
%TO.P,C49,1*%
%TO.N,N/C*%
X127352500Y-79282500D03*
%TO.P,C49,2*%
X127352500Y-80417500D03*
%TD*%
%TO.P,C15,1*%
%TO.N,N/C*%
X135650000Y-81284500D03*
%TO.P,C15,2*%
X135650000Y-82419500D03*
%TD*%
D19*
%TO.P,C47,1*%
%TO.N,N/C*%
X123305165Y-72450000D03*
%TO.P,C47,2*%
X122170165Y-72450000D03*
%TD*%
D22*
%TO.P,C12,1*%
%TO.N,N/C*%
X130252500Y-75917500D03*
%TO.P,C12,2*%
X130252500Y-74782500D03*
%TD*%
D23*
%TO.P,R6,1*%
%TO.N,N/C*%
X130500000Y-77550000D03*
%TO.P,R6,2*%
X130500000Y-78745000D03*
%TD*%
D12*
%TO.P,J10,1,1*%
%TO.N,N/C*%
X130629627Y-44890795D03*
%TD*%
D17*
%TO.P,J24,1,Pin_1*%
%TO.N,N/C*%
X116899999Y-76949999D03*
%TO.P,J24,2,Pin_2*%
X116399999Y-76949999D03*
%TO.P,J24,3,Pin_3*%
X115899999Y-76949999D03*
%TO.P,J24,4,Pin_4*%
X115399999Y-76949999D03*
%TO.P,J24,5,Pin_5*%
X114899999Y-76949999D03*
%TO.P,J24,6,Pin_6*%
X114399999Y-76949999D03*
%TO.P,J24,7,Pin_7*%
X113899999Y-76949999D03*
%TO.P,J24,8,Pin_8*%
X116899999Y-80549999D03*
%TO.P,J24,9,Pin_9*%
X116399999Y-80549999D03*
%TO.P,J24,10,Pin_10*%
X115899999Y-80549999D03*
%TO.P,J24,11,Pin_11*%
X115399999Y-80549999D03*
%TO.P,J24,12,Pin_12*%
X114899999Y-80549999D03*
%TO.P,J24,13,Pin_13*%
X114399999Y-80549999D03*
%TO.P,J24,14,Pin_14*%
X113899999Y-80549999D03*
%TD*%
D14*
%TO.P,R42,1*%
%TO.N,N/C*%
X126000000Y-77847500D03*
%TO.P,R42,2*%
X126000000Y-76652500D03*
%TD*%
%TO.P,R44,1*%
%TO.N,N/C*%
X127352500Y-77847500D03*
%TO.P,R44,2*%
X127352500Y-76652500D03*
%TD*%
D21*
%TO.P,C5,1*%
%TO.N,N/C*%
X145342500Y-51557000D03*
%TO.P,C5,2*%
X145342500Y-52692000D03*
%TD*%
D23*
%TO.P,R10,1*%
%TO.N,N/C*%
X134000000Y-72302500D03*
%TO.P,R10,2*%
X134000000Y-73497500D03*
%TD*%
D16*
%TO.P,C8,1*%
%TO.N,N/C*%
X145732500Y-64834000D03*
%TO.P,C8,2*%
X146867500Y-64834000D03*
%TD*%
D21*
%TO.P,C43,1*%
%TO.N,N/C*%
X124750000Y-76682500D03*
%TO.P,C43,2*%
X124750000Y-77817500D03*
%TD*%
D12*
%TO.P,J18,1,1*%
%TO.N,N/C*%
X140605627Y-44890795D03*
%TD*%
%TO.P,J17,1,1*%
%TO.N,N/C*%
X139400000Y-47050000D03*
%TD*%
D22*
%TO.P,C17,1*%
%TO.N,N/C*%
X134247500Y-81417500D03*
%TO.P,C17,2*%
X134247500Y-80282500D03*
%TD*%
D14*
%TO.P,R53,1*%
%TO.N,N/C*%
X123702500Y-83047500D03*
%TO.P,R53,2*%
X123702500Y-81852500D03*
%TD*%
D12*
%TO.P,J19,1,1*%
%TO.N,N/C*%
X128432000Y-47308000D03*
%TD*%
D22*
%TO.P,C7,1*%
%TO.N,N/C*%
X145700000Y-67179500D03*
%TO.P,C7,2*%
X145700000Y-66044500D03*
%TD*%
D21*
%TO.P,C11,1*%
%TO.N,N/C*%
X131750000Y-74832500D03*
%TO.P,C11,2*%
X131750000Y-75967500D03*
%TD*%
D24*
%TO.P,R8,1*%
%TO.N,N/C*%
X129652500Y-70850000D03*
%TO.P,R8,2*%
X130847500Y-70850000D03*
%TD*%
D22*
%TO.P,C76,1*%
%TO.N,N/C*%
X143100000Y-70017500D03*
%TO.P,C76,2*%
X143100000Y-68882500D03*
%TD*%
D25*
%TO.P,D1,1,C*%
%TO.N,N/C*%
X150280500Y-58253000D03*
%TO.P,D1,2,A*%
X150280500Y-59828000D03*
%TD*%
D22*
%TO.P,C52,1*%
%TO.N,N/C*%
X124552500Y-80385000D03*
%TO.P,C52,2*%
X124552500Y-79250000D03*
%TD*%
D24*
%TO.P,R9,1*%
%TO.N,N/C*%
X132652500Y-70850000D03*
%TO.P,R9,2*%
X133847500Y-70850000D03*
%TD*%
D12*
%TO.P,J4,1,1*%
%TO.N,N/C*%
X118700000Y-91250000D03*
%TD*%
D23*
%TO.P,R11,1*%
%TO.N,N/C*%
X129500000Y-72302500D03*
%TO.P,R11,2*%
X129500000Y-73497500D03*
%TD*%
D22*
%TO.P,C50,1*%
%TO.N,N/C*%
X125952500Y-80417500D03*
%TO.P,C50,2*%
X125952500Y-79282500D03*
%TD*%
D16*
%TO.P,C3,1*%
%TO.N,N/C*%
X142963000Y-57540500D03*
%TO.P,C3,2*%
X144098000Y-57540500D03*
%TD*%
D20*
%TO.P,R3,1*%
%TO.N,N/C*%
X149378000Y-54290500D03*
%TO.P,R3,2*%
X148183000Y-54290500D03*
%TD*%
%TO.P,R49,1*%
%TO.N,N/C*%
X125047500Y-84650000D03*
%TO.P,R49,2*%
X123852500Y-84650000D03*
%TD*%
D12*
%TO.P,J16,1,1*%
%TO.N,N/C*%
X141900000Y-47050000D03*
%TD*%
%TO.P,J3,1,1*%
%TO.N,N/C*%
X120450000Y-93000000D03*
%TD*%
D21*
%TO.P,C48,1*%
%TO.N,N/C*%
X126702500Y-81882500D03*
%TO.P,C48,2*%
X126702500Y-83017500D03*
%TD*%
D14*
%TO.P,R75,1*%
%TO.N,N/C*%
X144100000Y-65747500D03*
%TO.P,R75,2*%
X144100000Y-64552500D03*
%TD*%
D16*
%TO.P,C2,1*%
%TO.N,N/C*%
X142963000Y-56290500D03*
%TO.P,C2,2*%
X144098000Y-56290500D03*
%TD*%
D26*
%TO.P,J1,1,Pin_1*%
%TO.N,N/C*%
X126650000Y-91204499D03*
%TO.P,J1,2,Pin_2*%
X127149999Y-91204499D03*
%TO.P,J1,3,Pin_3*%
X127650000Y-91204499D03*
%TO.P,J1,4,Pin_4*%
X128149999Y-91204499D03*
%TO.P,J1,5,Pin_5*%
X128650001Y-91204499D03*
%TO.P,J1,6,Pin_6*%
X129150000Y-91204499D03*
%TO.P,J1,7,Pin_7*%
X129649999Y-91204499D03*
%TO.P,J1,8,Pin_8*%
X130150001Y-91204499D03*
%TO.P,J1,9,Pin_9*%
X130649999Y-91204499D03*
%TO.P,J1,10,Pin_10*%
X131150001Y-91204499D03*
%TO.P,J1,11,Pin_11*%
X131650000Y-91204499D03*
%TO.P,J1,12,Pin_12*%
X132149999Y-91204499D03*
%TO.P,J1,13,Pin_13*%
X132650001Y-91204499D03*
%TO.P,J1,14,Pin_14*%
X133150000Y-91204499D03*
%TO.P,J1,15,Pin_15*%
X133650001Y-91204499D03*
%TO.P,J1,16,Pin_16*%
X134150000Y-91204499D03*
%TO.P,J1,17,Pin_17*%
X134649999Y-91204499D03*
%TO.P,J1,18,Pin_18*%
X135150001Y-91204499D03*
D27*
%TO.P,J1,19,Pin_19*%
X136932499Y-92449099D03*
%TO.P,J1,20,Pin_20*%
X124867499Y-92449099D03*
%TD*%
D12*
%TO.P,J22,1,1*%
%TO.N,N/C*%
X124622000Y-44890795D03*
%TD*%
D22*
%TO.P,C56,1*%
%TO.N,N/C*%
X125202500Y-83017500D03*
%TO.P,C56,2*%
X125202500Y-81882500D03*
%TD*%
D12*
%TO.P,J5,1,1*%
%TO.N,N/C*%
X116700000Y-89450000D03*
%TD*%
D28*
%TO.P,J2,R*%
%TO.N,N/C*%
X69538018Y-82279032D03*
%TO.P,J2,S*%
X64187836Y-84466621D03*
%TO.P,J2,T*%
X65133221Y-77631693D03*
D29*
%TO.P,J2,TN*%
X70035519Y-76492626D03*
%TD*%
D20*
%TO.P,R5,1*%
%TO.N,N/C*%
X73843956Y-77214809D03*
%TO.P,R5,2*%
X72648956Y-77214809D03*
%TD*%
D30*
%TO.P,J3,1,Pin_1*%
%TO.N,N/C*%
X67846455Y-74014808D03*
%TO.P,J3,2,Pin_2*%
X68346454Y-71322408D03*
%TO.P,J3,3,Pin_3*%
X68846453Y-74014808D03*
%TO.P,J3,4,Pin_4*%
X69346454Y-71322408D03*
%TO.P,J3,5,Pin_5*%
X69846453Y-74014808D03*
%TO.P,J3,6,Pin_6*%
X70346455Y-71322408D03*
%TO.P,J3,7,Pin_7*%
X70846454Y-74014808D03*
%TO.P,J3,8,Pin_8*%
X71346453Y-71322408D03*
%TO.P,J3,9,Pin_9*%
X71846454Y-74014808D03*
%TO.P,J3,10,Pin_10*%
X72346454Y-71322408D03*
%TO.P,J3,11,Pin_11*%
X72846452Y-74014808D03*
%TO.P,J3,12,Pin_12*%
X73346454Y-71322408D03*
%TO.P,J3,13,Pin_13*%
X73846453Y-74014808D03*
%TO.P,J3,14,Pin_14*%
X74346455Y-71322408D03*
%TO.P,J3,15,Pin_15*%
X74846454Y-74014808D03*
%TO.P,J3,16,Pin_16*%
X75346453Y-71322408D03*
%TO.P,J3,17,Pin_17*%
X75846454Y-74014808D03*
%TO.P,J3,18,Pin_18*%
X76346453Y-71322408D03*
D31*
%TO.P,J3,19,Pin_19*%
X77341554Y-71322408D03*
%TO.P,J3,20,Pin_20*%
X66851354Y-71322408D03*
%TO.P,J3,21,Pin_21*%
X77341554Y-74014808D03*
%TO.P,J3,22,Pin_22*%
X66851354Y-74014808D03*
%TD*%
D32*
%TO.N,*%
X66970457Y-47126656D03*
X75770457Y-54826656D03*
X59070457Y-48526656D03*
X38970457Y-60426656D03*
X52370457Y-49326656D03*
X41070457Y-86826656D03*
X48270457Y-52626656D03*
X53470457Y-63426656D03*
X48470457Y-49926656D03*
X89270457Y-53926656D03*
X45970457Y-54426656D03*
X51570457Y-65226656D03*
X40570457Y-57726656D03*
X43870457Y-57626656D03*
X52070457Y-70226656D03*
X56970457Y-65926656D03*
X51070457Y-68626656D03*
X50198651Y-83354850D03*
X49418627Y-55938409D03*
X52696922Y-57681752D03*
X47670457Y-81926656D03*
X50170457Y-81926656D03*
X62270457Y-46126656D03*
X51699222Y-57741727D03*
X44970457Y-61226656D03*
X80970457Y-52526656D03*
X47670457Y-84426656D03*
X45722494Y-59938771D03*
X49550803Y-54690147D03*
X50144957Y-65226656D03*
X49470457Y-57026656D03*
X47670457Y-58626656D03*
X62970457Y-48426656D03*
X52170457Y-90926656D03*
X70970457Y-48426656D03*
X53870457Y-67026656D03*
X40970457Y-93226656D03*
X45670457Y-74826656D03*
X79970457Y-56026656D03*
X47670457Y-74426656D03*
X49070457Y-76826656D03*
X62070457Y-51426656D03*
X50870457Y-86626656D03*
X48970457Y-81926656D03*
X55770457Y-49026656D03*
X46870457Y-66226656D03*
X53770457Y-72426656D03*
X49170457Y-68626656D03*
X49070457Y-72426656D03*
X41270457Y-64426656D03*
X46870457Y-57126656D03*
X46170457Y-71926656D03*
X65370457Y-50826656D03*
X75270457Y-46226656D03*
X46470457Y-58726656D03*
X57270457Y-47226656D03*
X45670457Y-81426656D03*
X49870457Y-93026656D03*
X41270457Y-72626656D03*
X69870457Y-50926656D03*
X41170457Y-78326656D03*
X76870457Y-51426656D03*
X41170457Y-68926656D03*
X85170457Y-48926656D03*
X50295957Y-58926656D03*
X46870457Y-68826656D03*
X45670457Y-93026656D03*
X42970457Y-82326656D03*
X49141853Y-66218933D03*
X67670457Y-44426656D03*
X73170457Y-50326656D03*
X43670457Y-62226656D03*
X51770457Y-77826656D03*
X45970457Y-86726656D03*
X53970457Y-58226656D03*
X86870457Y-58426656D03*
D33*
X120000000Y-60650000D03*
X151026001Y-64821300D03*
X138300000Y-74200000D03*
X142400000Y-77800000D03*
X129762944Y-69962444D03*
X140900000Y-60450000D03*
X144900000Y-67850000D03*
X128686000Y-48832000D03*
X148447496Y-59577343D03*
X134900000Y-92450000D03*
X138300000Y-77800000D03*
X148463914Y-56129448D03*
X144100000Y-67850000D03*
X139400000Y-47050000D03*
X140900000Y-61585000D03*
X151292000Y-56198000D03*
X143418000Y-62548000D03*
X151038000Y-60516000D03*
X142148000Y-63056000D03*
X148030500Y-53540500D03*
X142910000Y-63564000D03*
X125638000Y-54750000D03*
X151038000Y-55040500D03*
X140878000Y-63010000D03*
X149260000Y-52896000D03*
X146866500Y-51870500D03*
X151546000Y-56960000D03*
X140878000Y-63818000D03*
X124622000Y-44890795D03*
X149006000Y-62040000D03*
X138105627Y-44890795D03*
X120600000Y-75850000D03*
X145648000Y-63310000D03*
X149260000Y-63056000D03*
X147030500Y-62040500D03*
X137068000Y-90488000D03*
X131734000Y-90071000D03*
X119700000Y-77650000D03*
X144848000Y-63310000D03*
X147990000Y-62040000D03*
X127162000Y-44890795D03*
X118018000Y-73104974D03*
X147990000Y-63056000D03*
X128300000Y-90050000D03*
X138338000Y-90488000D03*
X126900000Y-89850000D03*
X151292000Y-59246000D03*
X150530000Y-62548000D03*
X142280500Y-58790500D03*
X150650000Y-70952500D03*
X150008140Y-53902500D03*
X146963188Y-63056000D03*
X129128000Y-76518000D03*
X126900000Y-72850000D03*
X129194000Y-77550000D03*
X142000000Y-65650000D03*
X146030500Y-62040500D03*
X142000000Y-79800000D03*
X129448000Y-78550000D03*
X126025000Y-73350000D03*
X118800000Y-73550000D03*
X128178000Y-78296000D03*
X128178000Y-76264000D03*
X136052000Y-77280000D03*
X141386000Y-65088000D03*
X127162000Y-48070000D03*
X121320000Y-77436405D03*
X145530500Y-53640500D03*
X125200000Y-73950000D03*
X125202500Y-81132500D03*
X137000000Y-79750000D03*
X137700000Y-78750000D03*
X127800000Y-74650000D03*
X136560000Y-78042000D03*
X131777500Y-81427500D03*
X124450000Y-81598000D03*
X122000000Y-84150000D03*
X141900000Y-72800000D03*
X139900000Y-75550000D03*
X138800000Y-72800000D03*
X122000000Y-82350000D03*
X125952500Y-81598000D03*
X127446428Y-81598000D03*
X135036000Y-80836000D03*
X141400000Y-75550000D03*
X122000000Y-83250000D03*
X122896884Y-74567929D03*
X123998041Y-74262687D03*
X141200000Y-80300000D03*
X140150000Y-72800000D03*
X126702500Y-81132500D03*
X140400000Y-80800000D03*
X138800000Y-81800000D03*
X125900000Y-58050000D03*
X139600000Y-81300000D03*
X130255000Y-73724000D03*
X135575900Y-90519900D03*
X143100000Y-71850000D03*
X126900000Y-58050000D03*
X146498000Y-53640500D03*
X133258000Y-73724000D03*
X133706050Y-81050000D03*
X133258000Y-81852000D03*
X123500000Y-73050000D03*
X146300000Y-67050000D03*
X145000000Y-64350000D03*
X132500000Y-74150000D03*
X151292000Y-57976000D03*
X142280500Y-56665500D03*
X143100000Y-71050000D03*
X131000000Y-74150000D03*
X143630500Y-61240500D03*
X131750000Y-73724000D03*
X141300000Y-71850000D03*
X122500000Y-75550000D03*
X141300000Y-71050000D03*
X135925000Y-80709000D03*
X143818500Y-53140500D03*
X119400000Y-70050000D03*
X137900000Y-93250000D03*
X113200000Y-80550000D03*
X145024228Y-56096611D03*
X123900000Y-93250000D03*
X129557894Y-75150000D03*
X124114000Y-48324000D03*
X121000000Y-78850000D03*
X125638000Y-53150000D03*
X137900000Y-91650000D03*
X127162000Y-75550000D03*
X135900000Y-93250000D03*
X145032438Y-59577343D03*
X144834500Y-53140500D03*
X142280500Y-57540500D03*
X135029131Y-81852000D03*
X125638000Y-50102000D03*
X117600000Y-80550000D03*
X134000000Y-57950000D03*
X114750000Y-87700000D03*
X151150000Y-67050000D03*
X113200000Y-76950000D03*
X122715500Y-73470000D03*
X144267000Y-51557000D03*
X143100000Y-67850000D03*
X137100000Y-77050000D03*
X134100000Y-92450000D03*
X144830926Y-57540500D03*
X142400000Y-74200000D03*
X123900000Y-91650000D03*
X126700000Y-92350000D03*
X148530500Y-57790500D03*
X118700000Y-91250000D03*
X125900000Y-93250000D03*
X132800000Y-70050000D03*
X140605627Y-44890795D03*
X117600000Y-76950000D03*
X147228000Y-65850000D03*
X125900000Y-91650000D03*
X150650000Y-69952500D03*
X128900000Y-73450000D03*
X135900000Y-91650000D03*
X129194000Y-79566000D03*
D32*
X62946456Y-79114809D03*
X91753402Y-72707863D03*
X95372025Y-68040378D03*
X65046456Y-74014809D03*
X68046456Y-80114809D03*
X68346456Y-72514809D03*
X95140298Y-70908651D03*
X59946456Y-76514809D03*
X69546456Y-72514809D03*
X68446456Y-68814809D03*
X69846456Y-86114809D03*
X67146456Y-76214809D03*
X65146456Y-71314809D03*
X60946456Y-68514809D03*
X101646456Y-58414809D03*
X92446456Y-71114809D03*
X99273400Y-66541753D03*
X97846456Y-57014809D03*
X80446456Y-79014809D03*
X97646456Y-60114809D03*
X103946456Y-51114809D03*
X100146456Y-54014809D03*
X77263964Y-82596981D03*
X103046456Y-58814809D03*
X89646456Y-72714809D03*
X90046456Y-77514809D03*
X60146456Y-72314809D03*
X64946456Y-68514809D03*
X72746456Y-72653307D03*
X85746456Y-84014809D03*
X93446456Y-64114809D03*
X78546456Y-88514809D03*
X72719512Y-75741753D03*
X82118716Y-81127194D03*
X76346456Y-70014809D03*
X84346456Y-86814809D03*
X80446456Y-81014809D03*
X99646456Y-57714809D03*
X99746456Y-60214809D03*
X71746456Y-82614809D03*
X96346456Y-50314809D03*
X101746456Y-64414809D03*
X96246456Y-64914809D03*
X91846456Y-68114809D03*
X98746456Y-51514809D03*
X77846456Y-75614809D03*
X100846456Y-68214809D03*
X75946456Y-86814809D03*
X99746456Y-63514809D03*
X80046456Y-72514809D03*
X71946456Y-87314809D03*
X91946456Y-77914809D03*
X96646456Y-73314809D03*
X74746456Y-82914809D03*
X85646456Y-77514809D03*
X94146456Y-60314809D03*
X79546456Y-68414809D03*
X77446456Y-69914809D03*
X85546456Y-73514809D03*
X94546456Y-55514809D03*
X79022331Y-78089309D03*
X78946456Y-75990309D03*
X84646456Y-80214809D03*
X75246456Y-70014809D03*
X103546456Y-54514809D03*
X101246456Y-53114809D03*
X79146456Y-74614809D03*
X96946456Y-66814809D03*
X87646456Y-82314809D03*
X75446456Y-78714809D03*
X80946456Y-77414809D03*
X76746456Y-80214809D03*
X78146456Y-72614809D03*
X71646456Y-78414809D03*
%TD*%
D34*
%TO.N,*%
X49470457Y-65592942D02*
X49470457Y-62026656D01*
X49816853Y-65939338D02*
X49470457Y-65592942D01*
X50198651Y-84398462D02*
X50170457Y-84426656D01*
X50198651Y-83354850D02*
X50198651Y-84398462D01*
X51070457Y-68159799D02*
X49816853Y-66906195D01*
X48670457Y-61226656D02*
X44970457Y-61226656D01*
X51557392Y-57066727D02*
X49550803Y-55060138D01*
X47110380Y-63926656D02*
X48222495Y-65038771D01*
X52081897Y-57066727D02*
X51557392Y-57066727D01*
X52696922Y-57681752D02*
X52081897Y-57066727D01*
X42397953Y-73950820D02*
X42397953Y-65056206D01*
D35*
X45722494Y-69938771D02*
X44670457Y-70990808D01*
D34*
X41761881Y-74586892D02*
X42397953Y-73950820D01*
X42397953Y-65056206D02*
X45015388Y-62438771D01*
X49816853Y-66906195D02*
X49816853Y-65939338D01*
X45070457Y-63526656D02*
X47134610Y-63526656D01*
X47134610Y-63526656D02*
X48222495Y-62438771D01*
X51699222Y-57703531D02*
X51699222Y-57741727D01*
X43446456Y-67214809D02*
X45722494Y-64938771D01*
X41761881Y-77086893D02*
X42747453Y-76101321D01*
X43096954Y-66100159D02*
X45270457Y-63926656D01*
D35*
X43970956Y-69190309D02*
X43970956Y-82726157D01*
D34*
X45015388Y-62438771D02*
X45722494Y-62438771D01*
X43096954Y-78251820D02*
X43096954Y-66100159D01*
D35*
X45722494Y-67438771D02*
X43970956Y-69190309D01*
X43970956Y-82726157D02*
X41770457Y-84926656D01*
D34*
X45270457Y-63926656D02*
X47110380Y-63926656D01*
X49550803Y-55060138D02*
X49550803Y-54690147D01*
X49934100Y-55938409D02*
X51699222Y-57703531D01*
D35*
X44670457Y-84426656D02*
X44170457Y-84926656D01*
D34*
X42747453Y-76101321D02*
X42747453Y-65849660D01*
X41761881Y-79586893D02*
X43096954Y-78251820D01*
D35*
X44670457Y-70990808D02*
X44670457Y-84426656D01*
D34*
X42747453Y-65849660D02*
X45070457Y-63526656D01*
X41761881Y-82086892D02*
X43446455Y-80402318D01*
X49418627Y-55938409D02*
X49934100Y-55938409D01*
X43446455Y-80402318D02*
X43446456Y-67214809D01*
D35*
X47970457Y-70190809D02*
X47970457Y-72965775D01*
X48222495Y-69938771D02*
X47970457Y-70190809D01*
X47970457Y-72965775D02*
X48838766Y-73834084D01*
X48838766Y-73834084D02*
X49099646Y-73834084D01*
D34*
X50587005Y-51710108D02*
X55679511Y-51710108D01*
X47670457Y-58626656D02*
X47670457Y-54626656D01*
X47670457Y-54626656D02*
X50587005Y-51710108D01*
D35*
X48077907Y-74834106D02*
X47670457Y-74426656D01*
X48782572Y-59938771D02*
X48222495Y-59938771D01*
X48569127Y-59592139D02*
X48569127Y-54470448D01*
X49097892Y-74834106D02*
X48077907Y-74834106D01*
D34*
X47670457Y-80924156D02*
X47670457Y-81926656D01*
X48970457Y-79624156D02*
X47670457Y-80924156D01*
D35*
X50144957Y-61301156D02*
X48782572Y-59938771D01*
X49707323Y-53332252D02*
X53718302Y-53332252D01*
X53718302Y-53332252D02*
X53762548Y-53376498D01*
X50144957Y-65226656D02*
X50144957Y-61301156D01*
X48222495Y-59938771D02*
X48569127Y-59592139D01*
X48569127Y-54470448D02*
X49707323Y-53332252D01*
D34*
X47197957Y-78429156D02*
X46870457Y-78101656D01*
X51070457Y-68626656D02*
X51070457Y-68159799D01*
X48970457Y-78429156D02*
X47197957Y-78429156D01*
X49470457Y-62026656D02*
X48670457Y-61226656D01*
D36*
X149260000Y-52896000D02*
X148870500Y-53285500D01*
X142247500Y-61940500D02*
X141178000Y-63010000D01*
X147980500Y-57562682D02*
X147980500Y-58590500D01*
X150476334Y-59027343D02*
X150905500Y-59456509D01*
X143864817Y-62140500D02*
X147580500Y-58424816D01*
X142330342Y-62140500D02*
X143864817Y-62140500D01*
X148870500Y-54945044D02*
X147380500Y-56435044D01*
X143781974Y-61940500D02*
X142247500Y-61940500D01*
X148870500Y-53285500D02*
X148870500Y-54945044D01*
X141178000Y-63010000D02*
X140878000Y-63010000D01*
X147980500Y-58590500D02*
X143515000Y-63056000D01*
X150905500Y-60383500D02*
X151038000Y-60516000D01*
X147580500Y-57396998D02*
X148136998Y-56840500D01*
X143289842Y-63564000D02*
X147826499Y-59027343D01*
X147826499Y-59027343D02*
X150476334Y-59027343D01*
X142910000Y-63564000D02*
X143289842Y-63564000D01*
X151038000Y-55283000D02*
X151038000Y-55040500D01*
X149480500Y-56840500D02*
X151038000Y-55283000D01*
X147580500Y-58424816D02*
X147580500Y-57396998D01*
X148136998Y-56840500D02*
X149480500Y-56840500D01*
X140878000Y-63818000D02*
X140878000Y-63592843D01*
X147380500Y-56435044D02*
X147380500Y-58341974D01*
X146866500Y-51870500D02*
X148030500Y-53034500D01*
X148030500Y-53034500D02*
X148030500Y-53540500D01*
X140878000Y-63592843D02*
X142330342Y-62140500D01*
X147380500Y-58341974D02*
X143781974Y-61940500D01*
X150905500Y-59456509D02*
X150905500Y-60383500D01*
D34*
X115400000Y-80550000D02*
X115400000Y-81350000D01*
X115400000Y-81350000D02*
X117300000Y-83250000D01*
X117300000Y-83250000D02*
X122000000Y-83250000D01*
D36*
X149100498Y-77895915D02*
X137016413Y-89980000D01*
X150530000Y-62802000D02*
X150530000Y-62548000D01*
X137068000Y-90488000D02*
X137068000Y-90210550D01*
X149300499Y-64031501D02*
X150530000Y-62802000D01*
D37*
X146001733Y-63663733D02*
X147581733Y-63663733D01*
X131734000Y-88710000D02*
X136306000Y-88710000D01*
X130650000Y-89794000D02*
X131734000Y-88710000D01*
D36*
X149100498Y-63215502D02*
X149100498Y-77895915D01*
X136852138Y-89580000D02*
X133406444Y-89580000D01*
X133150001Y-90357642D02*
X133150001Y-91204500D01*
X147990000Y-63335587D02*
X148701497Y-64047084D01*
X148701497Y-77730641D02*
X136852138Y-89580000D01*
D37*
X147802496Y-64598535D02*
X147340706Y-64136745D01*
X148252496Y-77397504D02*
X136520000Y-89130000D01*
D36*
X134020000Y-89980000D02*
X133650002Y-90349998D01*
D37*
X136306000Y-88710000D02*
X147802496Y-77213504D01*
D36*
X133727643Y-89780000D02*
X133150001Y-90357642D01*
D37*
X147340706Y-64136745D02*
X145674745Y-64136745D01*
D36*
X137016413Y-89980000D02*
X134020000Y-89980000D01*
D37*
X131150002Y-89801998D02*
X131150002Y-91204500D01*
X130650000Y-91204500D02*
X130650000Y-89794000D01*
X147802496Y-77213504D02*
X147802496Y-64598535D01*
D36*
X147990000Y-62040000D02*
X148752000Y-62802000D01*
D37*
X145674745Y-64136745D02*
X144848000Y-63310000D01*
D36*
X148752000Y-62802000D02*
X148752000Y-63702165D01*
X128300000Y-90050000D02*
X128150000Y-90200000D01*
D37*
X136520000Y-89130000D02*
X131822000Y-89130000D01*
D36*
X137068000Y-90210550D02*
X149300499Y-77978051D01*
X149300499Y-77978051D02*
X149300499Y-64031501D01*
X133406444Y-89580000D02*
X132650002Y-90336442D01*
D37*
X147581733Y-63663733D02*
X148252496Y-64334496D01*
D36*
X133650002Y-90349998D02*
X133650002Y-91204500D01*
X149260000Y-63056000D02*
X149100498Y-63215502D01*
X147990000Y-63056000D02*
X147990000Y-63335587D01*
X132650002Y-90336442D02*
X132650002Y-91204500D01*
D37*
X148252496Y-64334496D02*
X148252496Y-77397504D01*
D36*
X148900998Y-63851163D02*
X148900998Y-77813278D01*
D37*
X145648000Y-63310000D02*
X146001733Y-63663733D01*
D36*
X148701497Y-64047084D02*
X148701497Y-77730641D01*
X148752000Y-63702165D02*
X148900998Y-63851163D01*
X148900998Y-77813278D02*
X136934276Y-89780000D01*
D37*
X131822000Y-89130000D02*
X131150002Y-89801998D01*
D36*
X136934276Y-89780000D02*
X133727643Y-89780000D01*
X128150000Y-90200000D02*
X128150000Y-91204500D01*
X151292000Y-59246000D02*
X151546000Y-59500000D01*
X133323602Y-89380000D02*
X132150000Y-90553602D01*
X132150000Y-90553602D02*
X132150000Y-91204500D01*
X138338000Y-89223392D02*
X138338000Y-90488000D01*
X147482000Y-62802000D02*
X147482000Y-63210446D01*
X149500000Y-65102000D02*
X149500000Y-78061392D01*
X136770000Y-89380000D02*
X133323602Y-89380000D01*
X147482000Y-63210446D02*
X148501996Y-64230442D01*
D38*
X118360000Y-72762974D02*
X118018000Y-73104974D01*
X121050000Y-55100000D02*
X122000000Y-54150000D01*
D36*
X148501996Y-64230442D02*
X148501996Y-77648004D01*
D38*
X127801000Y-78296000D02*
X127352500Y-77847500D01*
X121050000Y-55100000D02*
X118710000Y-57440000D01*
D36*
X131734000Y-90071000D02*
X131650001Y-90154999D01*
X151546000Y-59500000D02*
X151546000Y-63056000D01*
X147030500Y-62040500D02*
X147030500Y-62350500D01*
X131650001Y-90154999D02*
X131650001Y-91204500D01*
D38*
X118710000Y-57440000D02*
X118710000Y-73460000D01*
D36*
X147030500Y-62350500D02*
X147482000Y-62802000D01*
D38*
X127150000Y-91204500D02*
X127150000Y-90100000D01*
D36*
X148501996Y-77648004D02*
X136770000Y-89380000D01*
D38*
X121650000Y-54005026D02*
X118360000Y-57295026D01*
X121650000Y-45050000D02*
X121650000Y-54005026D01*
X118360000Y-57295026D02*
X118360000Y-72762974D01*
X120600000Y-76750000D02*
X119700000Y-77650000D01*
X122000000Y-48025000D02*
X122971000Y-47054000D01*
X126157500Y-76652500D02*
X127352500Y-77847500D01*
X128178000Y-78296000D02*
X127801000Y-78296000D01*
X126000000Y-76652500D02*
X126157500Y-76652500D01*
D36*
X151546000Y-63056000D02*
X149500000Y-65102000D01*
D38*
X122000000Y-54150000D02*
X122000000Y-48025000D01*
D36*
X149500000Y-78061392D02*
X138338000Y-89223392D01*
D38*
X127150000Y-90100000D02*
X126900000Y-89850000D01*
X118710000Y-73460000D02*
X118800000Y-73550000D01*
X127789500Y-76652500D02*
X127352500Y-76652500D01*
X120600000Y-75850000D02*
X120600000Y-76750000D01*
X135605627Y-47455627D02*
X135605627Y-44890795D01*
X136052000Y-77280000D02*
X136750000Y-76582000D01*
D36*
X146030500Y-62040500D02*
X145212000Y-62040500D01*
X145212000Y-62040500D02*
X142700000Y-64552500D01*
X141921500Y-64552500D02*
X142700000Y-64552500D01*
D38*
X128178000Y-76264000D02*
X127789500Y-76652500D01*
X129781802Y-87750000D02*
X127650001Y-89881801D01*
X137700000Y-78750000D02*
X137700000Y-77013603D01*
X137600000Y-80350000D02*
X137600000Y-85650000D01*
X137100000Y-76413603D02*
X137100000Y-47250000D01*
X136750000Y-76582000D02*
X136750000Y-48600000D01*
X137600000Y-85650000D02*
X135500000Y-87750000D01*
X137000000Y-79750000D02*
X137600000Y-80350000D01*
X127650001Y-89881801D02*
X127650001Y-91204500D01*
X135500000Y-87750000D02*
X129781802Y-87750000D01*
D36*
X141386000Y-65088000D02*
X141921500Y-64552500D01*
D38*
X136750000Y-48600000D02*
X135605627Y-47455627D01*
X137700000Y-77013603D02*
X137100000Y-76413603D01*
X137100000Y-47250000D02*
X136900000Y-47050000D01*
D34*
X121596446Y-70400000D02*
X124403553Y-70400000D01*
X120350000Y-73946446D02*
X120350000Y-71646446D01*
X115400000Y-76950000D02*
X115400000Y-75750000D01*
X120350000Y-71646446D02*
X121596446Y-70400000D01*
X115807108Y-74842892D02*
X114900000Y-75750000D01*
X116057108Y-75092892D02*
X119203554Y-75092892D01*
D36*
X144100000Y-63435342D02*
X144100000Y-64552500D01*
X142562000Y-65088000D02*
X142000000Y-65650000D01*
D34*
X126900000Y-72850000D02*
X126900000Y-72542894D01*
X124403553Y-70400000D02*
X126025000Y-72021446D01*
X115400000Y-75750000D02*
X116057108Y-75092892D01*
D36*
X146455188Y-62548000D02*
X144987342Y-62548000D01*
X144987342Y-62548000D02*
X144100000Y-63435342D01*
X145530500Y-54340500D02*
X144830500Y-55040500D01*
D38*
X129194000Y-77550000D02*
X130500000Y-77550000D01*
X129448000Y-78550000D02*
X129643000Y-78745000D01*
X126400000Y-48832000D02*
X127162000Y-48070000D01*
D34*
X121492892Y-70150000D02*
X120100000Y-71542892D01*
D38*
X129643000Y-78745000D02*
X130500000Y-78745000D01*
D34*
X126900000Y-72542894D02*
X124507106Y-70150000D01*
X119100000Y-74842892D02*
X115807108Y-74842892D01*
X120100000Y-73842892D02*
X119100000Y-74842892D01*
X124507106Y-70150000D02*
X121492892Y-70150000D01*
D36*
X146963188Y-63056000D02*
X146455188Y-62548000D01*
X143564500Y-65088000D02*
X142562000Y-65088000D01*
X150128000Y-61290500D02*
X150280500Y-61138000D01*
D34*
X119203554Y-75092892D02*
X120350000Y-73946446D01*
X126025000Y-72021446D02*
X126025000Y-73350000D01*
D36*
X144100000Y-64552500D02*
X143564500Y-65088000D01*
X127800000Y-75190000D02*
X129128000Y-76518000D01*
D38*
X130500000Y-77550000D02*
X131750000Y-77550000D01*
D36*
X127800000Y-74650000D02*
X127800000Y-75190000D01*
D34*
X120100000Y-71542892D02*
X120100000Y-73842892D01*
D38*
X127162000Y-48070000D02*
X127924000Y-47308000D01*
D34*
X114900000Y-75750000D02*
X114900000Y-76950000D01*
D38*
X126400000Y-49026500D02*
X126400000Y-48832000D01*
X127924000Y-47308000D02*
X128432000Y-47308000D01*
D36*
X144830500Y-55040500D02*
X144098000Y-55040500D01*
X145530500Y-53640500D02*
X145530500Y-54340500D01*
X150280500Y-61138000D02*
X150280500Y-59828000D01*
D38*
X123852500Y-84650000D02*
X123852500Y-84367500D01*
D34*
X125952500Y-81598000D02*
X125952500Y-80417500D01*
D38*
X123934500Y-83047500D02*
X123702500Y-83047500D01*
X123852500Y-84650000D02*
X123852500Y-85797500D01*
X123852500Y-84367500D02*
X125202500Y-83017500D01*
D34*
X123998041Y-74262687D02*
X123617854Y-73882500D01*
X124450000Y-81598000D02*
X124450000Y-80487500D01*
X142000000Y-79800000D02*
X141400000Y-79200000D01*
D38*
X125047500Y-84452500D02*
X125952500Y-83547500D01*
X126852500Y-84447500D02*
X125952500Y-83547500D01*
D34*
X119307108Y-75342892D02*
X116307108Y-75342892D01*
D38*
X123852500Y-85797500D02*
X120200000Y-89450000D01*
X126852500Y-84650000D02*
X126852500Y-84447500D01*
D34*
X127446428Y-80511428D02*
X127352500Y-80417500D01*
X125200000Y-75350000D02*
X123113595Y-77436405D01*
D38*
X125202500Y-81882500D02*
X125202500Y-81132500D01*
D34*
X120600000Y-74050000D02*
X119307108Y-75342892D01*
D38*
X125047500Y-84650000D02*
X125047500Y-84452500D01*
D34*
X122896884Y-74567929D02*
X123000429Y-74567929D01*
X125200000Y-73950000D02*
X125200000Y-71550000D01*
X123113595Y-77436405D02*
X121320000Y-77436405D01*
D38*
X125099500Y-81882500D02*
X123934500Y-83047500D01*
X125202500Y-81882500D02*
X125099500Y-81882500D01*
X120200000Y-89450000D02*
X116700000Y-89450000D01*
D34*
X123000429Y-74567929D02*
X123450000Y-75017500D01*
X124450000Y-80487500D02*
X124552500Y-80385000D01*
X125200000Y-73950000D02*
X125200000Y-75350000D01*
X141400000Y-79200000D02*
X141400000Y-77800000D01*
D38*
X128047500Y-84650000D02*
X128047500Y-84362500D01*
D34*
X127446428Y-81598000D02*
X127446428Y-80511428D01*
X115900000Y-75750000D02*
X115900000Y-76950000D01*
X116307108Y-75342892D02*
X115900000Y-75750000D01*
X121700000Y-70650000D02*
X120600000Y-71750000D01*
X120600000Y-71750000D02*
X120600000Y-74050000D01*
X125200000Y-71550000D02*
X124300000Y-70650000D01*
X124300000Y-70650000D02*
X121700000Y-70650000D01*
X123617854Y-73882500D02*
X123450000Y-73882500D01*
D38*
X125952500Y-83547500D02*
X125952500Y-81598000D01*
D34*
X141200000Y-80300000D02*
X140900000Y-80000000D01*
D38*
X120450000Y-93000000D02*
X120450000Y-89700000D01*
X126702500Y-81882500D02*
X126702500Y-81132500D01*
D34*
X140900000Y-80000000D02*
X140900000Y-77800000D01*
D38*
X126861000Y-81882500D02*
X128026000Y-83047500D01*
X127700000Y-59850000D02*
X125900000Y-58050000D01*
X125970000Y-77817500D02*
X126000000Y-77847500D01*
X124100000Y-86050000D02*
X126647500Y-86050000D01*
X126647500Y-86050000D02*
X128047500Y-84650000D01*
X126702500Y-81882500D02*
X126861000Y-81882500D01*
X127700000Y-73550000D02*
X127700000Y-59850000D01*
D34*
X139900000Y-81000000D02*
X139900000Y-77800000D01*
X116900000Y-82350000D02*
X122000000Y-82350000D01*
X139600000Y-81300000D02*
X139900000Y-81000000D01*
X138800000Y-81800000D02*
X138800000Y-81342157D01*
D38*
X120450000Y-89700000D02*
X124100000Y-86050000D01*
D34*
X115900000Y-81350000D02*
X116900000Y-82350000D01*
X140400000Y-80800000D02*
X140400000Y-77800000D01*
D38*
X124750000Y-76500000D02*
X127700000Y-73550000D01*
X124750000Y-76682500D02*
X124750000Y-76500000D01*
X128026000Y-83047500D02*
X128202500Y-83047500D01*
X128047500Y-84362500D02*
X126702500Y-83017500D01*
D34*
X139400000Y-80742157D02*
X139400000Y-77800000D01*
X138800000Y-81342157D02*
X139400000Y-80742157D01*
X115900000Y-80550000D02*
X115900000Y-81350000D01*
D38*
X124750000Y-77817500D02*
X125970000Y-77817500D01*
X125638000Y-54750000D02*
X127650000Y-54750000D01*
D36*
X150008140Y-53902500D02*
X149620140Y-54290500D01*
D38*
X124876000Y-48996500D02*
X124876000Y-48324000D01*
D36*
X143740158Y-62548000D02*
X147780500Y-58507658D01*
X150008140Y-53902500D02*
X150045000Y-53902500D01*
X149006000Y-62040000D02*
X149006000Y-61363500D01*
X149006000Y-61363500D02*
X148933000Y-61290500D01*
X149620140Y-54290500D02*
X149378000Y-54290500D01*
D38*
X124876000Y-48324000D02*
X125892000Y-47308000D01*
D36*
X151552500Y-70952500D02*
X150650000Y-70952500D01*
D38*
X123352000Y-48324000D02*
X126785205Y-44890795D01*
X125638000Y-54750000D02*
X123550000Y-54750000D01*
D36*
X151546000Y-56960000D02*
X150784000Y-56960000D01*
X150784000Y-56960000D02*
X150503500Y-57240500D01*
X148302682Y-57240500D02*
X147980500Y-57562682D01*
X150503500Y-57240500D02*
X148302682Y-57240500D01*
X142933000Y-58790500D02*
X142280500Y-58790500D01*
X143418000Y-62548000D02*
X143740158Y-62548000D01*
X147780500Y-58507658D02*
X147780500Y-57479840D01*
X143515000Y-63056000D02*
X142148000Y-63056000D01*
X150045000Y-53902500D02*
X150530500Y-54388000D01*
X150623000Y-56198000D02*
X149780500Y-57040500D01*
D38*
X123352000Y-48996500D02*
X123352000Y-48324000D01*
X126785205Y-44890795D02*
X127162000Y-44890795D01*
D36*
X151292000Y-56198000D02*
X150623000Y-56198000D01*
X147780500Y-57479840D02*
X148219840Y-57040500D01*
X148219840Y-57040500D02*
X149780500Y-57040500D01*
X151650000Y-71050000D02*
X151552500Y-70952500D01*
D38*
X128400000Y-75100000D02*
X130072000Y-76772000D01*
X126900000Y-58050000D02*
X128400000Y-59550000D01*
X129850000Y-69271682D02*
X130312944Y-69734626D01*
X128400000Y-59550000D02*
X128400000Y-75100000D01*
X130255000Y-73724000D02*
X130255000Y-74732500D01*
X134400000Y-47050000D02*
X134024000Y-47050000D01*
X130847500Y-70850000D02*
X130847500Y-70997500D01*
X131000000Y-72332500D02*
X129652500Y-70985000D01*
X134024000Y-47050000D02*
X130560000Y-50514000D01*
X132500000Y-73467500D02*
X132500000Y-74150000D01*
X133747500Y-72302500D02*
X134000000Y-72302500D01*
X132192000Y-76772000D02*
X133000000Y-77580000D01*
X129652500Y-70985000D02*
X129652500Y-70850000D01*
X135650000Y-80984000D02*
X135650000Y-81284500D01*
X130312944Y-69734626D02*
X130312944Y-70189556D01*
X132652500Y-70997500D02*
X131750000Y-71900000D01*
X130312944Y-70189556D02*
X129652500Y-70850000D01*
X129835000Y-72302500D02*
X129500000Y-72302500D01*
X133847500Y-70985000D02*
X133847500Y-70850000D01*
X133252500Y-73729500D02*
X133258000Y-73724000D01*
X130847500Y-70997500D02*
X131750000Y-71900000D01*
X132652500Y-70850000D02*
X132652500Y-70997500D01*
X131000000Y-73467500D02*
X129835000Y-72302500D01*
X130560000Y-50514000D02*
X130560000Y-68232000D01*
X122050000Y-75100000D02*
X122500000Y-75550000D01*
X143100000Y-70017500D02*
X143100000Y-71050000D01*
X129850000Y-48684000D02*
X129850000Y-69271682D01*
X135925000Y-80709000D02*
X135650000Y-80984000D01*
X130072000Y-76772000D02*
X132192000Y-76772000D01*
X132500000Y-73467500D02*
X132582500Y-73467500D01*
X130560000Y-68232000D02*
X131734000Y-69406000D01*
X133252500Y-74815000D02*
X133252500Y-73729500D01*
X131484000Y-47050000D02*
X129850000Y-48684000D01*
X132582500Y-73467500D02*
X133747500Y-72302500D01*
X133847500Y-70228301D02*
X133847500Y-70850000D01*
X131750000Y-78745000D02*
X132970000Y-78745000D01*
X133025199Y-69406000D02*
X133847500Y-70228301D01*
X131734000Y-69406000D02*
X133025199Y-69406000D01*
X131000000Y-73467500D02*
X131000000Y-74150000D01*
X132500000Y-72332500D02*
X133847500Y-70985000D01*
X131900000Y-47050000D02*
X131484000Y-47050000D01*
X131750000Y-71900000D02*
X131750000Y-74832500D01*
X145283000Y-52692000D02*
X144834500Y-53140500D01*
D35*
X150530500Y-53150500D02*
X150530500Y-53193000D01*
D38*
X142655500Y-56290500D02*
X142963000Y-56290500D01*
D35*
X145000000Y-64847500D02*
X144100000Y-65747500D01*
D36*
X144128000Y-58790500D02*
X144128000Y-60743000D01*
D35*
X146300000Y-67050000D02*
X145829500Y-67050000D01*
X141900000Y-47050000D02*
X144430000Y-47050000D01*
D38*
X142280500Y-56665500D02*
X142655500Y-56290500D01*
D35*
X145000000Y-64350000D02*
X145000000Y-64847500D01*
X150332500Y-68452500D02*
X150332500Y-67867500D01*
X150332500Y-67867500D02*
X151150000Y-67050000D01*
X145829500Y-67050000D02*
X145700000Y-67179500D01*
X135575900Y-90519900D02*
X135252400Y-90843400D01*
D38*
X145342500Y-52692000D02*
X145283000Y-52692000D01*
D35*
X145484000Y-64834000D02*
X145000000Y-64350000D01*
X144430000Y-47050000D02*
X150530500Y-53150500D01*
X152308000Y-53658000D02*
X152308000Y-65892000D01*
X150530500Y-53193000D02*
X151843000Y-53193000D01*
D36*
X144128000Y-60743000D02*
X143630500Y-61240500D01*
X143480500Y-56808000D02*
X142963000Y-56290500D01*
X143480500Y-58143000D02*
X143480500Y-56808000D01*
D35*
X144100000Y-65747500D02*
X142700000Y-65747500D01*
D36*
X144128000Y-58790500D02*
X143480500Y-58143000D01*
D35*
X145732500Y-64834000D02*
X145484000Y-64834000D01*
X151843000Y-53193000D02*
X152308000Y-53658000D01*
X152308000Y-65892000D02*
X151150000Y-67050000D01*
D38*
X124500000Y-72739934D02*
X124500000Y-75150000D01*
X122170165Y-72450000D02*
X122705165Y-71915000D01*
X123702500Y-80100000D02*
X124552500Y-79250000D01*
D35*
X150747500Y-69855000D02*
X150650000Y-69952500D01*
D38*
X134333500Y-82614000D02*
X133797500Y-83150000D01*
X143370000Y-52692000D02*
X143818500Y-53140500D01*
X143092500Y-52692000D02*
X143370000Y-52692000D01*
X142280500Y-57540500D02*
X142963000Y-57540500D01*
X130629627Y-47409399D02*
X130629627Y-44890795D01*
X114400000Y-76950000D02*
X113900000Y-76950000D01*
X134150001Y-92399999D02*
X134100000Y-92450000D01*
X136400000Y-80350000D02*
X136400000Y-81950000D01*
D35*
X145894500Y-65850000D02*
X145700000Y-66044500D01*
D38*
X128202500Y-79330000D02*
X128250000Y-79282500D01*
X114400000Y-80550000D02*
X113900000Y-80550000D01*
X123300000Y-76350000D02*
X124500000Y-75150000D01*
X123675066Y-71915000D02*
X124500000Y-72739934D01*
X122303000Y-73882500D02*
X122050000Y-73882500D01*
X150280500Y-58253000D02*
X148993000Y-58253000D01*
X129194000Y-79566000D02*
X128910500Y-79282500D01*
X129500000Y-69699500D02*
X129500000Y-48539026D01*
X113900000Y-76950000D02*
X113200000Y-76950000D01*
X124876000Y-50191500D02*
X125548500Y-50191500D01*
X123702500Y-81852500D02*
X123702500Y-80100000D01*
X135740000Y-79690000D02*
X136400000Y-80350000D01*
X134000000Y-73497500D02*
X134000000Y-75202500D01*
D35*
X147228000Y-65850000D02*
X145894500Y-65850000D01*
D38*
X131616000Y-70050000D02*
X130210000Y-68644000D01*
X132600000Y-80950000D02*
X133860000Y-79690000D01*
X129762944Y-69962444D02*
X129500000Y-69699500D01*
X144098000Y-56175500D02*
X142963000Y-55040500D01*
X133797500Y-83150000D02*
X132600000Y-83150000D01*
D34*
X138900000Y-77800000D02*
X138300000Y-77800000D01*
D38*
X116900000Y-80550000D02*
X117600000Y-80550000D01*
X113900000Y-80550000D02*
X113200000Y-80550000D01*
X127352500Y-79282500D02*
X124585000Y-79282500D01*
X148993000Y-58253000D02*
X148530500Y-57790500D01*
X128202500Y-81852500D02*
X128202500Y-79330000D01*
X124585000Y-79282500D02*
X124552500Y-79250000D01*
X132800000Y-70050000D02*
X131616000Y-70050000D01*
D34*
X141900000Y-74200000D02*
X142400000Y-74200000D01*
D38*
X123352000Y-50191500D02*
X124876000Y-50191500D01*
D35*
X147228000Y-65850000D02*
X146867500Y-65489500D01*
D38*
X135082500Y-81852000D02*
X135650000Y-82419500D01*
X126650001Y-92300001D02*
X126700000Y-92350000D01*
X133252500Y-75950000D02*
X130285000Y-75950000D01*
X125548500Y-50191500D02*
X125638000Y-50102000D01*
X126400000Y-50161500D02*
X125697500Y-50161500D01*
X130210000Y-50340000D02*
X133105627Y-47444373D01*
D35*
X151650000Y-69855000D02*
X150747500Y-69855000D01*
D38*
X129452500Y-73450000D02*
X129500000Y-73497500D01*
X116400000Y-76950000D02*
X116900000Y-76950000D01*
X127983500Y-50161500D02*
X126400000Y-50161500D01*
X122705165Y-71915000D02*
X123675066Y-71915000D01*
X145024228Y-56096611D02*
X144291889Y-56096611D01*
X128910500Y-79282500D02*
X128250000Y-79282500D01*
X125638000Y-53150000D02*
X123550000Y-53150000D01*
X121515000Y-76065000D02*
X121515000Y-74417500D01*
X116900000Y-76950000D02*
X117600000Y-76950000D01*
D35*
X146867500Y-65489500D02*
X146867500Y-64834000D01*
D38*
X133105627Y-47444373D02*
X133105627Y-44890795D01*
X125638000Y-53150000D02*
X127650000Y-53150000D01*
X134150001Y-91204500D02*
X134150001Y-92399999D01*
X126650001Y-91204500D02*
X126650001Y-92300001D01*
D35*
X151650000Y-68635000D02*
X151467500Y-68452500D01*
X143100000Y-68882500D02*
X143100000Y-67850000D01*
D38*
X144098000Y-57540500D02*
X144830926Y-57540500D01*
X130285000Y-75950000D02*
X130252500Y-75917500D01*
X116400000Y-80550000D02*
X116900000Y-80550000D01*
D35*
X142932500Y-67682500D02*
X143100000Y-67850000D01*
D38*
X136400000Y-81950000D02*
X135930500Y-82419500D01*
X133860000Y-79690000D02*
X135740000Y-79690000D01*
X122715500Y-73470000D02*
X122303000Y-73882500D01*
D34*
X141900000Y-77800000D02*
X142400000Y-77800000D01*
D38*
X144067500Y-67817500D02*
X144100000Y-67850000D01*
D35*
X144067500Y-67150000D02*
X144067500Y-67817500D01*
D38*
X135029131Y-81918369D02*
X134333500Y-82614000D01*
X135029131Y-81852000D02*
X135029131Y-81918369D01*
X134000000Y-75202500D02*
X133252500Y-75950000D01*
X128491500Y-49026500D02*
X128686000Y-48832000D01*
X134650000Y-92200000D02*
X134900000Y-92450000D01*
D35*
X151650000Y-69855000D02*
X151650000Y-68635000D01*
D38*
X129557894Y-75222894D02*
X130252500Y-75917500D01*
X122715500Y-72995335D02*
X122170165Y-72450000D01*
X121800000Y-76350000D02*
X123300000Y-76350000D01*
X144267000Y-51557000D02*
X143092500Y-51557000D01*
X128900000Y-73450000D02*
X129452500Y-73450000D01*
X144267000Y-51557000D02*
X145342500Y-51557000D01*
X132600000Y-83150000D02*
X132600000Y-80950000D01*
X148183000Y-54290500D02*
X146830339Y-54290500D01*
X144291889Y-56096611D02*
X144098000Y-56290500D01*
X122715500Y-73470000D02*
X122715500Y-72995335D01*
X129500000Y-48539026D02*
X130629627Y-47409399D01*
X144098000Y-56290500D02*
X144098000Y-56175500D01*
X135029131Y-81852000D02*
X135082500Y-81852000D01*
X141700000Y-60450000D02*
X140900000Y-60450000D01*
X129557894Y-75150000D02*
X129557894Y-75222894D01*
X121515000Y-76065000D02*
X121800000Y-76350000D01*
X127983500Y-49026500D02*
X128491500Y-49026500D01*
X146830339Y-54290500D02*
X145024228Y-56096611D01*
X127352500Y-79282500D02*
X128250000Y-79282500D01*
X121515000Y-74417500D02*
X122050000Y-73882500D01*
X130210000Y-68644000D02*
X130210000Y-50340000D01*
D34*
X138900000Y-74200000D02*
X138300000Y-74200000D01*
D38*
X140900000Y-61585000D02*
X141700000Y-61585000D01*
D35*
X142932500Y-67150000D02*
X142932500Y-67682500D01*
D38*
X125697500Y-50161500D02*
X125638000Y-50102000D01*
X135930500Y-82419500D02*
X135650000Y-82419500D01*
X134650000Y-91204500D02*
X134650000Y-92200000D01*
D35*
X144900000Y-67850000D02*
X144100000Y-67850000D01*
D34*
X139900000Y-75550000D02*
X140400000Y-75050000D01*
X139900000Y-73050000D02*
X139900000Y-74200000D01*
X139400000Y-73400000D02*
X139400000Y-74200000D01*
X133258000Y-81852000D02*
X133258000Y-82554500D01*
X131777500Y-80772500D02*
X134508000Y-78042000D01*
X123500000Y-73050000D02*
X123500000Y-72644835D01*
X141400000Y-75550000D02*
X141400000Y-74200000D01*
D39*
X133880000Y-81050000D02*
X134247500Y-81417500D01*
D34*
X134801000Y-80836000D02*
X134247500Y-80282500D01*
X140400000Y-75050000D02*
X140400000Y-74200000D01*
X114900000Y-81350000D02*
X114900000Y-80550000D01*
X122000000Y-84150000D02*
X117700000Y-84150000D01*
X134508000Y-78042000D02*
X136560000Y-78042000D01*
X131777500Y-81427500D02*
X131777500Y-80772500D01*
X117700000Y-84150000D02*
X114900000Y-81350000D01*
X140150000Y-72800000D02*
X139900000Y-73050000D01*
X135036000Y-80836000D02*
X134801000Y-80836000D01*
X141500000Y-72800000D02*
X140900000Y-73400000D01*
D39*
X133706050Y-81050000D02*
X133880000Y-81050000D01*
D34*
X123500000Y-72644835D02*
X123305165Y-72450000D01*
X133258000Y-82554500D02*
X133198500Y-82614000D01*
X141900000Y-72800000D02*
X141500000Y-72800000D01*
X138800000Y-72800000D02*
X139400000Y-73400000D01*
X140900000Y-73400000D02*
X140900000Y-74200000D01*
X78946456Y-73214809D02*
X78946456Y-69814809D01*
X79976551Y-75914809D02*
X90490999Y-75914809D01*
X94446456Y-70414809D02*
X101646456Y-63214809D01*
X101646456Y-63214809D02*
X101646456Y-58414809D01*
X89596456Y-74864809D02*
X81091430Y-74864809D01*
X74846455Y-75414808D02*
X76096956Y-76665309D01*
X79226051Y-76665309D02*
X79976551Y-75914809D01*
X90635974Y-76264809D02*
X80121525Y-76264809D01*
X73726811Y-70942053D02*
X73346455Y-71322409D01*
X75934954Y-77015309D02*
X73846454Y-74926809D01*
X78946456Y-69814809D02*
X78246456Y-69114809D01*
X93746456Y-71669404D02*
X90201051Y-75214809D01*
X90201051Y-75214809D02*
X80946456Y-75214809D01*
X91753402Y-72707863D02*
X89596456Y-74864809D01*
X74701482Y-68764809D02*
X73726811Y-69739480D01*
X78246456Y-69114809D02*
X74846456Y-69114809D01*
X95140298Y-71760485D02*
X90635974Y-76264809D01*
X81091430Y-74864809D02*
X79296456Y-73069835D01*
X73846454Y-74926809D02*
X73846454Y-74014809D01*
X79296456Y-69669835D02*
X78391430Y-68764809D01*
X80946456Y-75214809D02*
X78946456Y-73214809D01*
X79296456Y-73069835D02*
X79296456Y-69669835D01*
X74346456Y-69614809D02*
X74346456Y-71322409D01*
X76096956Y-76665309D02*
X79226051Y-76665309D01*
X80121525Y-76264809D02*
X79371025Y-77015309D01*
X90490999Y-75914809D02*
X94446456Y-71959352D01*
X94446456Y-71959352D02*
X94446456Y-70414809D01*
X74846456Y-69114809D02*
X74346456Y-69614809D01*
X73726811Y-69739480D02*
X73726811Y-70942053D01*
X78391430Y-68764809D02*
X74701482Y-68764809D01*
X95372025Y-68040378D02*
X93746456Y-69665947D01*
X93746456Y-69665947D02*
X93746456Y-71669404D01*
X74846455Y-74014809D02*
X74846455Y-75414808D01*
X95140298Y-70908651D02*
X95140298Y-71760485D01*
X79371025Y-77015309D02*
X75934954Y-77015309D01*
X67846456Y-74014809D02*
X67646456Y-74214809D01*
D38*
X72346455Y-72253306D02*
X72346455Y-71322409D01*
D34*
X70757702Y-77214809D02*
X70035519Y-76492626D01*
D35*
X69346455Y-72314808D02*
X69546456Y-72514809D01*
D34*
X72648956Y-77214809D02*
X70757702Y-77214809D01*
D40*
X68140179Y-75579914D02*
X68812996Y-74916573D01*
X69523719Y-78768099D02*
X69538018Y-78782398D01*
X69538018Y-78782398D02*
X69538018Y-82279032D01*
D38*
X72746456Y-72653307D02*
X72346455Y-72253306D01*
D40*
X68130702Y-76878168D02*
X68140179Y-75579914D01*
X68130702Y-76878168D02*
X69523719Y-78768099D01*
X68812996Y-74916573D02*
X68846454Y-74014809D01*
D35*
X68346456Y-72514809D02*
X68346455Y-72514808D01*
D34*
X67646456Y-74214809D02*
X67646456Y-75414809D01*
D35*
X76346456Y-70014809D02*
X76346456Y-71322407D01*
D38*
X82094640Y-81113745D02*
X82118716Y-81127194D01*
X72719512Y-75741753D02*
X71846455Y-74868696D01*
D35*
X80746456Y-81495522D02*
X82094640Y-81113745D01*
D34*
X67646456Y-75414809D02*
X67146456Y-75914809D01*
D38*
X71846455Y-74868696D02*
X71846455Y-74014809D01*
D34*
X67146456Y-75914809D02*
X67146456Y-76214809D01*
D35*
X80746456Y-81314809D02*
X80746456Y-81495522D01*
X80446456Y-81014809D02*
X80746456Y-81314809D01*
X76346456Y-71322407D02*
X76346454Y-71322409D01*
X68346455Y-72514808D02*
X68346455Y-71322409D01*
X77263964Y-82596981D02*
X78546456Y-82214809D01*
X78546456Y-82214809D02*
X80746456Y-81495522D01*
X69346455Y-71322409D02*
X69346455Y-72314808D01*
D34*
X75296956Y-77365309D02*
X72846453Y-74914806D01*
X80266499Y-76614809D02*
X79515999Y-77365309D01*
X78697831Y-77764809D02*
X74393956Y-77764809D01*
X79515999Y-77365309D02*
X75296956Y-77365309D01*
X95815298Y-69645967D02*
X95815298Y-71580459D01*
X97551482Y-66814809D02*
X100846456Y-63519835D01*
D35*
X75346454Y-71322409D02*
X75346454Y-72289209D01*
X75346454Y-70114807D02*
X75246456Y-70014809D01*
D34*
X78946456Y-75990309D02*
X78621956Y-76314809D01*
X79022331Y-78089309D02*
X78697831Y-77764809D01*
D35*
X77346456Y-72614809D02*
X78146456Y-72614809D01*
X75672054Y-72614809D02*
X77346456Y-72614809D01*
D34*
X78946456Y-75990309D02*
X79371956Y-75564809D01*
X75846455Y-75714808D02*
X75846455Y-74014809D01*
X79371956Y-75564809D02*
X90346025Y-75564809D01*
X100846456Y-63519835D02*
X100846456Y-63514809D01*
X72846453Y-74914806D02*
X72846453Y-74014809D01*
X98919512Y-66541753D02*
X95815298Y-69645967D01*
D35*
X75659255Y-72602010D02*
X75672054Y-72614809D01*
X75346454Y-72289209D02*
X75659255Y-72602010D01*
D34*
X90346025Y-75564809D02*
X94096456Y-71814378D01*
X74393956Y-77764809D02*
X73843956Y-77214809D01*
X100846456Y-63514809D02*
X100971456Y-63389809D01*
X90780948Y-76614809D02*
X80266499Y-76614809D01*
D35*
X75346454Y-71322409D02*
X75346454Y-70114807D01*
D34*
X95815298Y-71580459D02*
X90780948Y-76614809D01*
X96946456Y-66814809D02*
X97551482Y-66814809D01*
X78621956Y-76314809D02*
X76446456Y-76314809D01*
X99273400Y-66541753D02*
X98919512Y-66541753D01*
X96946456Y-67419835D02*
X96946456Y-66814809D01*
X94096456Y-70269835D02*
X96946456Y-67419835D01*
X100971456Y-53389809D02*
X101246456Y-53114809D01*
X76446456Y-76314809D02*
X75846455Y-75714808D01*
X100971456Y-63389809D02*
X100971456Y-53389809D01*
X94096456Y-71814378D02*
X94096456Y-70269835D01*
%TD*%
%TA.AperFunction,NonConductor*%
G36*
X75780475Y-69458192D02*
G01*
X75826121Y-69506683D01*
X75840099Y-69571796D01*
X75818375Y-69634749D01*
X75770499Y-69704109D01*
X75770496Y-69704112D01*
X75766236Y-69710286D01*
X75763576Y-69717297D01*
X75763574Y-69717303D01*
X75720017Y-69832155D01*
X75710219Y-69857991D01*
X75709315Y-69865429D01*
X75709314Y-69865437D01*
X75698187Y-69957080D01*
X75682892Y-70003411D01*
X75650908Y-70040255D01*
X75607186Y-70061908D01*
X75599904Y-70063859D01*
X75596454Y-70076735D01*
X75596454Y-72568083D01*
X75599904Y-72580958D01*
X75612780Y-72584409D01*
X75695772Y-72584409D01*
X75702368Y-72584055D01*
X75750921Y-72578835D01*
X75765895Y-72575297D01*
X75885031Y-72530861D01*
X75900443Y-72522446D01*
X76001345Y-72446911D01*
X76013754Y-72434501D01*
X76051114Y-72384597D01*
X76094876Y-72348025D01*
X76150380Y-72334909D01*
X76356739Y-72334909D01*
X76405552Y-72344921D01*
X76446482Y-72373339D01*
X76472921Y-72415576D01*
X76488702Y-72457886D01*
X76497117Y-72473298D01*
X76572653Y-72574201D01*
X76579380Y-72580928D01*
X76611474Y-72636515D01*
X76611474Y-72700703D01*
X76579380Y-72756290D01*
X76572653Y-72763016D01*
X76497117Y-72863919D01*
X76488703Y-72879329D01*
X76454591Y-72970787D01*
X76424113Y-73017068D01*
X76376518Y-73045452D01*
X76321312Y-73050269D01*
X76269521Y-73030557D01*
X76259153Y-73023630D01*
X76259152Y-73023629D01*
X76248995Y-73016843D01*
X76237017Y-73014460D01*
X76237014Y-73014459D01*
X76181908Y-73003498D01*
X76181904Y-73003497D01*
X76175929Y-73002309D01*
X75516981Y-73002309D01*
X75511006Y-73003497D01*
X75511001Y-73003498D01*
X75455895Y-73014459D01*
X75455890Y-73014460D01*
X75443915Y-73016843D01*
X75433762Y-73023626D01*
X75433759Y-73023628D01*
X75415344Y-73035933D01*
X75370645Y-73054447D01*
X75322265Y-73054447D01*
X75277566Y-73035933D01*
X75259150Y-73023628D01*
X75259149Y-73023627D01*
X75248995Y-73016843D01*
X75237017Y-73014460D01*
X75237014Y-73014459D01*
X75181908Y-73003498D01*
X75181904Y-73003497D01*
X75175929Y-73002309D01*
X74516981Y-73002309D01*
X74511006Y-73003497D01*
X74511001Y-73003498D01*
X74455895Y-73014459D01*
X74455890Y-73014460D01*
X74443915Y-73016843D01*
X74433761Y-73023626D01*
X74433757Y-73023629D01*
X74415341Y-73035934D01*
X74370643Y-73054447D01*
X74322263Y-73054446D01*
X74277565Y-73035933D01*
X74259149Y-73023628D01*
X74259148Y-73023627D01*
X74248994Y-73016843D01*
X74237016Y-73014460D01*
X74237013Y-73014459D01*
X74181907Y-73003498D01*
X74181903Y-73003497D01*
X74175928Y-73002309D01*
X73516980Y-73002309D01*
X73511000Y-73003498D01*
X73504944Y-73004095D01*
X73504805Y-73002691D01*
X73447306Y-72998666D01*
X73393545Y-72961704D01*
X73365987Y-72902569D01*
X73372261Y-72837631D01*
X73382693Y-72810125D01*
X73401734Y-72653307D01*
X73382693Y-72496489D01*
X73380031Y-72489470D01*
X73379813Y-72488585D01*
X73378972Y-72432885D01*
X73402599Y-72382436D01*
X73445927Y-72347422D01*
X73500210Y-72334909D01*
X73669834Y-72334909D01*
X73675929Y-72334909D01*
X73748995Y-72320375D01*
X73777564Y-72301285D01*
X73822263Y-72282771D01*
X73870645Y-72282770D01*
X73915344Y-72301285D01*
X73933756Y-72313587D01*
X73933758Y-72313587D01*
X73943916Y-72320375D01*
X74016982Y-72334909D01*
X74023077Y-72334909D01*
X74542528Y-72334909D01*
X74598032Y-72348025D01*
X74641794Y-72384597D01*
X74679153Y-72434501D01*
X74691562Y-72446911D01*
X74792464Y-72522446D01*
X74807876Y-72530861D01*
X74927012Y-72575297D01*
X74941986Y-72578835D01*
X74990539Y-72584055D01*
X74997136Y-72584409D01*
X75080128Y-72584409D01*
X75093003Y-72580958D01*
X75096454Y-72568083D01*
X75096454Y-70076735D01*
X75093003Y-70063859D01*
X75080128Y-70060409D01*
X74997136Y-70060409D01*
X74990539Y-70060762D01*
X74941986Y-70065982D01*
X74927012Y-70069520D01*
X74839289Y-70102240D01*
X74780502Y-70109091D01*
X74725236Y-70087914D01*
X74686080Y-70043533D01*
X74671956Y-69986058D01*
X74671956Y-69800997D01*
X74681395Y-69753544D01*
X74708275Y-69713316D01*
X74944963Y-69476628D01*
X74985191Y-69449748D01*
X75032644Y-69440309D01*
X75716325Y-69440309D01*
X75780475Y-69458192D01*
G37*
%TD.AperFunction*%
%TA.AperFunction,NonConductor*%
G36*
X78107721Y-69449748D02*
G01*
X78147949Y-69476628D01*
X78584637Y-69913317D01*
X78611517Y-69953545D01*
X78620956Y-70000998D01*
X78620956Y-73195182D01*
X78620484Y-73205990D01*
X78618137Y-73232809D01*
X78618137Y-73232812D01*
X78617192Y-73243616D01*
X78619999Y-73254092D01*
X78626969Y-73280106D01*
X78629308Y-73290661D01*
X78633983Y-73317170D01*
X78633984Y-73317175D01*
X78635868Y-73327854D01*
X78641287Y-73337241D01*
X78642540Y-73340682D01*
X78644094Y-73344015D01*
X78646902Y-73354493D01*
X78668568Y-73385436D01*
X78674370Y-73394544D01*
X78687837Y-73417869D01*
X78687839Y-73417871D01*
X78693262Y-73427264D01*
X78722213Y-73451556D01*
X78730174Y-73458853D01*
X80298949Y-75027628D01*
X80329199Y-75076991D01*
X80333741Y-75134707D01*
X80311586Y-75188194D01*
X80267563Y-75225794D01*
X80211268Y-75239309D01*
X79391583Y-75239309D01*
X79380775Y-75238837D01*
X79353955Y-75236490D01*
X79353952Y-75236490D01*
X79343149Y-75235545D01*
X79306653Y-75245323D01*
X79296105Y-75247662D01*
X79269591Y-75252337D01*
X79269587Y-75252338D01*
X79258911Y-75254221D01*
X79249522Y-75259640D01*
X79246074Y-75260896D01*
X79242744Y-75262448D01*
X79232272Y-75265255D01*
X79201327Y-75286921D01*
X79192220Y-75292723D01*
X79168896Y-75306189D01*
X79168890Y-75306193D01*
X79159501Y-75311615D01*
X79153052Y-75319300D01*
X79101947Y-75344823D01*
X79044217Y-75344436D01*
X79032727Y-75341604D01*
X79032720Y-75341603D01*
X79025441Y-75339809D01*
X78867471Y-75339809D01*
X78860196Y-75341601D01*
X78860188Y-75341603D01*
X78721371Y-75375818D01*
X78721365Y-75375819D01*
X78714091Y-75377613D01*
X78707456Y-75381095D01*
X78707449Y-75381098D01*
X78580862Y-75447537D01*
X78580856Y-75447540D01*
X78574216Y-75451026D01*
X78568604Y-75455996D01*
X78568599Y-75456001D01*
X78461583Y-75550808D01*
X78461578Y-75550812D01*
X78455973Y-75555779D01*
X78451718Y-75561943D01*
X78451713Y-75561949D01*
X78370499Y-75679609D01*
X78370496Y-75679612D01*
X78366236Y-75685786D01*
X78363576Y-75692797D01*
X78363574Y-75692803D01*
X78312879Y-75826474D01*
X78312876Y-75826482D01*
X78310219Y-75833491D01*
X78309315Y-75840933D01*
X78309314Y-75840939D01*
X78304541Y-75880255D01*
X78283495Y-75935749D01*
X78239071Y-75975105D01*
X78181445Y-75989309D01*
X76632644Y-75989309D01*
X76585191Y-75979870D01*
X76544963Y-75952990D01*
X76208274Y-75616301D01*
X76181394Y-75576073D01*
X76171955Y-75528620D01*
X76171955Y-75124961D01*
X76181394Y-75077507D01*
X76208275Y-75037278D01*
X76243233Y-75013921D01*
X76248995Y-75012775D01*
X76269520Y-74999060D01*
X76321309Y-74979349D01*
X76376516Y-74984165D01*
X76424112Y-75012548D01*
X76454591Y-75058831D01*
X76488702Y-75150286D01*
X76497117Y-75165698D01*
X76572653Y-75266601D01*
X76585062Y-75279010D01*
X76685965Y-75354546D01*
X76701377Y-75362961D01*
X76820513Y-75407397D01*
X76835487Y-75410935D01*
X76884040Y-75416155D01*
X76890637Y-75416509D01*
X77075229Y-75416509D01*
X77088104Y-75413058D01*
X77091555Y-75400183D01*
X77591555Y-75400183D01*
X77595005Y-75413058D01*
X77607881Y-75416509D01*
X77792473Y-75416509D01*
X77799069Y-75416155D01*
X77847622Y-75410935D01*
X77862596Y-75407397D01*
X77981732Y-75362961D01*
X77997144Y-75354546D01*
X78098047Y-75279010D01*
X78110456Y-75266601D01*
X78185992Y-75165698D01*
X78194407Y-75150286D01*
X78238843Y-75031150D01*
X78242381Y-75016176D01*
X78247601Y-74967623D01*
X78247955Y-74961027D01*
X78247955Y-74281135D01*
X78244504Y-74268259D01*
X78231629Y-74264809D01*
X77607881Y-74264809D01*
X77595005Y-74268259D01*
X77591555Y-74281135D01*
X77591555Y-75400183D01*
X77091555Y-75400183D01*
X77091555Y-73748483D01*
X77591555Y-73748483D01*
X77595005Y-73761358D01*
X77607881Y-73764809D01*
X78231629Y-73764809D01*
X78244504Y-73761358D01*
X78247955Y-73748483D01*
X78247955Y-73068591D01*
X78247601Y-73061994D01*
X78242381Y-73013441D01*
X78238843Y-72998467D01*
X78194407Y-72879331D01*
X78185992Y-72863919D01*
X78110456Y-72763016D01*
X78103730Y-72756290D01*
X78071636Y-72700703D01*
X78071636Y-72636515D01*
X78103730Y-72580928D01*
X78110456Y-72574201D01*
X78185992Y-72473298D01*
X78194407Y-72457886D01*
X78238843Y-72338750D01*
X78242381Y-72323776D01*
X78247601Y-72275223D01*
X78247955Y-72268627D01*
X78247955Y-71588735D01*
X78244504Y-71575859D01*
X78231629Y-71572409D01*
X77607881Y-71572409D01*
X77595005Y-71575859D01*
X77591555Y-71588735D01*
X77591555Y-73748483D01*
X77091555Y-73748483D01*
X77091555Y-71056083D01*
X77591555Y-71056083D01*
X77595005Y-71068958D01*
X77607881Y-71072409D01*
X78231629Y-71072409D01*
X78244504Y-71068958D01*
X78247955Y-71056083D01*
X78247955Y-70376191D01*
X78247601Y-70369594D01*
X78242381Y-70321041D01*
X78238843Y-70306067D01*
X78194407Y-70186931D01*
X78185992Y-70171519D01*
X78110456Y-70070616D01*
X78098047Y-70058207D01*
X77997144Y-69982671D01*
X77981732Y-69974256D01*
X77862596Y-69929820D01*
X77847622Y-69926282D01*
X77799069Y-69921062D01*
X77792473Y-69920709D01*
X77607881Y-69920709D01*
X77595005Y-69924159D01*
X77591555Y-69937035D01*
X77591555Y-71056083D01*
X77091555Y-71056083D01*
X77091555Y-69937035D01*
X77088104Y-69924158D01*
X77060033Y-69916636D01*
X77008970Y-69888844D01*
X76976186Y-69840833D01*
X76953416Y-69780793D01*
X76926676Y-69710286D01*
X76874537Y-69634749D01*
X76852813Y-69571796D01*
X76866791Y-69506683D01*
X76912437Y-69458192D01*
X76976587Y-69440309D01*
X78060268Y-69440309D01*
X78107721Y-69449748D01*
G37*
%TD.AperFunction*%
%TA.AperFunction,NonConductor*%
G36*
X97178809Y-49372234D02*
G01*
X97186966Y-49373416D01*
X97237178Y-49380692D01*
X97271273Y-49390785D01*
X97316645Y-49411687D01*
X97346470Y-49431041D01*
X97384043Y-49463961D01*
X97407152Y-49490988D01*
X97433836Y-49533219D01*
X97448324Y-49565694D01*
X97464374Y-49622421D01*
X97464465Y-49622742D01*
X97468080Y-49640263D01*
X97481425Y-49741311D01*
X97481429Y-49741331D01*
X97482080Y-49746258D01*
X97483512Y-49751028D01*
X97483513Y-49751029D01*
X97547511Y-49964094D01*
X97547514Y-49964102D01*
X97548937Y-49968839D01*
X97650375Y-50177938D01*
X97783807Y-50368222D01*
X97945829Y-50534838D01*
X98132310Y-50673535D01*
X98338492Y-50780778D01*
X98559117Y-50853829D01*
X98788558Y-50890827D01*
X99016007Y-50890827D01*
X99020963Y-50890827D01*
X99250405Y-50853829D01*
X99471030Y-50780778D01*
X99677212Y-50673536D01*
X99863693Y-50534838D01*
X100025715Y-50368222D01*
X100159147Y-50177938D01*
X100260585Y-49968839D01*
X100327442Y-49746258D01*
X100341482Y-49639936D01*
X100345093Y-49622438D01*
X100361154Y-49565672D01*
X100375642Y-49533199D01*
X100392364Y-49506735D01*
X100402330Y-49490961D01*
X100425438Y-49463936D01*
X100463022Y-49431007D01*
X100492844Y-49411655D01*
X100538235Y-49390745D01*
X100572324Y-49380655D01*
X100616573Y-49374244D01*
X100630454Y-49372233D01*
X100648233Y-49370952D01*
X102402865Y-49370952D01*
X102440222Y-49370952D01*
X102445289Y-49371056D01*
X102448962Y-49371206D01*
X102503002Y-49373416D01*
X102513093Y-49374243D01*
X102567935Y-49381005D01*
X102577918Y-49382653D01*
X102634409Y-49394367D01*
X102639325Y-49395492D01*
X103883238Y-49707013D01*
X103891644Y-49709436D01*
X103989139Y-49741311D01*
X104120539Y-49784271D01*
X104136738Y-49790866D01*
X104328890Y-49885406D01*
X104348861Y-49895232D01*
X104363978Y-49904045D01*
X104559302Y-50037234D01*
X104573028Y-50048088D01*
X104747657Y-50207445D01*
X104759718Y-50220123D01*
X104829007Y-50304100D01*
X104881913Y-50368222D01*
X104910173Y-50402472D01*
X104920330Y-50416723D01*
X105043621Y-50618444D01*
X105051670Y-50633981D01*
X105145335Y-50851040D01*
X105151117Y-50867556D01*
X105213294Y-51095639D01*
X105216694Y-51112805D01*
X105246145Y-51347377D01*
X105247094Y-51364850D01*
X105243232Y-51601219D01*
X105241713Y-51618652D01*
X105204072Y-51855541D01*
X105202393Y-51864135D01*
X101149112Y-69315722D01*
X101117557Y-69373773D01*
X86192591Y-84840600D01*
X86188516Y-84844441D01*
X86177312Y-84850336D01*
X86168998Y-84861552D01*
X86168994Y-84861557D01*
X86162613Y-84870167D01*
X86160239Y-84872971D01*
X86160259Y-84872986D01*
X86156017Y-84878503D01*
X86151185Y-84883512D01*
X86147589Y-84889466D01*
X86147585Y-84889472D01*
X86147436Y-84889720D01*
X86140924Y-84899433D01*
X86131133Y-84912645D01*
X86131130Y-84912650D01*
X86122817Y-84923869D01*
X86120961Y-84933569D01*
X86115855Y-84942028D01*
X86114539Y-84955931D01*
X86114538Y-84955935D01*
X86112989Y-84972304D01*
X86111337Y-84983892D01*
X86111285Y-84984159D01*
X86111284Y-84984171D01*
X86109977Y-84991007D01*
X86110223Y-84997967D01*
X86109690Y-85004903D01*
X86109665Y-85004901D01*
X86109557Y-85008571D01*
X86108547Y-85019240D01*
X86108547Y-85019243D01*
X86107232Y-85033147D01*
X86111626Y-85045022D01*
X86112088Y-85050592D01*
X86175795Y-86848055D01*
X86165695Y-86901646D01*
X86133579Y-86945721D01*
X86085659Y-86971755D01*
X77026395Y-89537213D01*
X76975268Y-89540686D01*
X76927102Y-89523189D01*
X76890124Y-89487710D01*
X75906108Y-88043021D01*
X75896873Y-88027018D01*
X75887538Y-88007633D01*
X75861306Y-87986713D01*
X75854248Y-87980637D01*
X75829659Y-87957800D01*
X75822136Y-87955476D01*
X75815981Y-87950567D01*
X75802364Y-87947458D01*
X75802358Y-87947456D01*
X75783254Y-87943096D01*
X75774252Y-87940682D01*
X75755559Y-87934907D01*
X75755556Y-87934906D01*
X75742211Y-87930784D01*
X75728399Y-87932859D01*
X75728396Y-87932859D01*
X75720933Y-87933981D01*
X75702509Y-87935357D01*
X71627399Y-87935357D01*
X71567741Y-87920063D01*
X71522800Y-87877953D01*
X71086407Y-87192527D01*
X71082689Y-87184613D01*
X71076003Y-87173352D01*
X71071723Y-87160051D01*
X71053581Y-87140969D01*
X71053580Y-87140968D01*
X71055234Y-87139396D01*
X71052641Y-87137528D01*
X71051880Y-87138299D01*
X71046965Y-87133442D01*
X71046964Y-87133441D01*
X71046929Y-87133407D01*
X71046927Y-87133404D01*
X71039407Y-87125973D01*
X71036702Y-87123215D01*
X71016869Y-87102355D01*
X71016868Y-87102354D01*
X71008659Y-87093720D01*
X71005591Y-87092559D01*
X71003262Y-87090257D01*
X70992003Y-87086392D01*
X70985671Y-87082187D01*
X70941026Y-87029408D01*
X70931577Y-86960929D01*
X70941571Y-86892661D01*
X70946496Y-85385603D01*
X71805220Y-85385603D01*
X71805567Y-85390233D01*
X71810728Y-85459111D01*
X71824266Y-85639760D01*
X71825296Y-85644273D01*
X71825297Y-85644279D01*
X71879946Y-85883711D01*
X71880980Y-85888240D01*
X71882676Y-85892563D01*
X71882677Y-85892564D01*
X71928368Y-86008983D01*
X71974095Y-86125491D01*
X72101529Y-86346215D01*
X72260438Y-86545480D01*
X72447271Y-86718835D01*
X72657854Y-86862408D01*
X72887484Y-86972992D01*
X72891912Y-86974357D01*
X72891915Y-86974359D01*
X72992064Y-87005250D01*
X73131030Y-87048116D01*
X73383053Y-87086103D01*
X73633288Y-87086103D01*
X73637923Y-87086103D01*
X73889946Y-87048116D01*
X74133492Y-86972992D01*
X74363122Y-86862408D01*
X74573705Y-86718835D01*
X74760538Y-86545480D01*
X74919447Y-86346215D01*
X75046881Y-86125491D01*
X75139996Y-85888240D01*
X75196710Y-85639760D01*
X75215756Y-85385603D01*
X75196710Y-85131446D01*
X75139996Y-84882966D01*
X75097551Y-84774820D01*
X77054575Y-84774820D01*
X77055636Y-84782879D01*
X77073292Y-84916996D01*
X77073293Y-84917002D01*
X77074354Y-84925056D01*
X77077463Y-84932562D01*
X77077464Y-84932565D01*
X77119127Y-85033147D01*
X77132343Y-85065053D01*
X77137286Y-85071494D01*
X77137289Y-85071500D01*
X77183288Y-85131446D01*
X77224590Y-85185271D01*
X77231032Y-85190214D01*
X77338360Y-85272571D01*
X77338363Y-85272573D01*
X77344808Y-85277518D01*
X77484805Y-85335507D01*
X77597321Y-85350320D01*
X77668708Y-85350320D01*
X77672761Y-85350320D01*
X77785277Y-85335507D01*
X77925274Y-85277518D01*
X78045492Y-85185271D01*
X78137739Y-85065053D01*
X78195728Y-84925056D01*
X78215507Y-84774820D01*
X78195728Y-84624584D01*
X78137739Y-84484587D01*
X78132794Y-84478142D01*
X78132792Y-84478139D01*
X78050435Y-84370811D01*
X78045492Y-84364369D01*
X78030235Y-84352662D01*
X77931721Y-84277068D01*
X77931715Y-84277065D01*
X77925274Y-84272122D01*
X77917765Y-84269011D01*
X77917764Y-84269011D01*
X77792786Y-84217243D01*
X77792783Y-84217242D01*
X77785277Y-84214133D01*
X77777223Y-84213072D01*
X77777217Y-84213071D01*
X77676780Y-84199849D01*
X77676778Y-84199848D01*
X77672761Y-84199320D01*
X77597321Y-84199320D01*
X77593304Y-84199848D01*
X77593301Y-84199849D01*
X77492864Y-84213071D01*
X77492856Y-84213072D01*
X77484805Y-84214133D01*
X77477300Y-84217241D01*
X77477295Y-84217243D01*
X77352317Y-84269011D01*
X77352313Y-84269013D01*
X77344808Y-84272122D01*
X77338369Y-84277062D01*
X77338360Y-84277068D01*
X77231032Y-84359425D01*
X77231028Y-84359428D01*
X77224590Y-84364369D01*
X77219649Y-84370807D01*
X77219646Y-84370811D01*
X77137289Y-84478139D01*
X77137283Y-84478148D01*
X77132343Y-84484587D01*
X77129234Y-84492092D01*
X77129232Y-84492096D01*
X77077464Y-84617074D01*
X77077462Y-84617079D01*
X77074354Y-84624584D01*
X77073293Y-84632635D01*
X77073292Y-84632643D01*
X77060111Y-84732770D01*
X77054575Y-84774820D01*
X75097551Y-84774820D01*
X75046881Y-84645715D01*
X74919447Y-84424991D01*
X74760538Y-84225726D01*
X74573705Y-84052371D01*
X74363122Y-83908798D01*
X74358936Y-83906782D01*
X74137671Y-83800226D01*
X74137665Y-83800223D01*
X74133492Y-83798214D01*
X74129070Y-83796850D01*
X74129060Y-83796846D01*
X73894379Y-83724457D01*
X73894374Y-83724455D01*
X73889946Y-83723090D01*
X73885366Y-83722399D01*
X73885359Y-83722398D01*
X73642506Y-83685793D01*
X73642495Y-83685792D01*
X73637923Y-83685103D01*
X73383053Y-83685103D01*
X73378481Y-83685792D01*
X73378469Y-83685793D01*
X73135616Y-83722398D01*
X73135606Y-83722400D01*
X73131030Y-83723090D01*
X73126604Y-83724454D01*
X73126596Y-83724457D01*
X72891915Y-83796846D01*
X72891900Y-83796851D01*
X72887484Y-83798214D01*
X72883315Y-83800221D01*
X72883304Y-83800226D01*
X72662039Y-83906782D01*
X72662032Y-83906785D01*
X72657854Y-83908798D01*
X72654021Y-83911411D01*
X72654018Y-83911413D01*
X72451099Y-84049761D01*
X72447271Y-84052371D01*
X72443879Y-84055517D01*
X72443873Y-84055523D01*
X72263839Y-84222570D01*
X72260438Y-84225726D01*
X72257548Y-84229348D01*
X72257545Y-84229353D01*
X72104421Y-84421364D01*
X72101529Y-84424991D01*
X72099210Y-84429006D01*
X72099209Y-84429009D01*
X71976416Y-84641694D01*
X71976413Y-84641699D01*
X71974095Y-84645715D01*
X71972401Y-84650029D01*
X71972399Y-84650035D01*
X71883466Y-84876631D01*
X71880980Y-84882966D01*
X71879947Y-84887487D01*
X71879946Y-84887494D01*
X71825297Y-85126926D01*
X71825295Y-85126934D01*
X71824266Y-85131446D01*
X71823919Y-85136065D01*
X71823919Y-85136071D01*
X71809624Y-85326840D01*
X71805220Y-85385603D01*
X70946496Y-85385603D01*
X70951534Y-83844004D01*
X70942394Y-83775440D01*
X70924760Y-83711298D01*
X70897566Y-83647699D01*
X70854308Y-83593725D01*
X70854307Y-83593724D01*
X70855341Y-83592896D01*
X70830493Y-83548193D01*
X70828457Y-83490218D01*
X70853012Y-83437664D01*
X70988404Y-83267889D01*
X71119586Y-83040675D01*
X71215438Y-82796448D01*
X71260965Y-82596981D01*
X76608686Y-82596981D01*
X76609590Y-82604426D01*
X76626822Y-82746351D01*
X76626823Y-82746356D01*
X76627727Y-82753799D01*
X76630386Y-82760812D01*
X76630387Y-82760813D01*
X76643901Y-82796448D01*
X76683744Y-82901504D01*
X76688007Y-82907680D01*
X76769220Y-83025339D01*
X76773481Y-83031511D01*
X76891724Y-83136264D01*
X77031599Y-83209677D01*
X77184979Y-83247481D01*
X77335449Y-83247481D01*
X77342949Y-83247481D01*
X77496329Y-83209677D01*
X77514820Y-83199972D01*
X82615893Y-83199972D01*
X82616954Y-83208031D01*
X82634610Y-83342148D01*
X82634611Y-83342154D01*
X82635672Y-83350208D01*
X82638781Y-83357714D01*
X82638782Y-83357717D01*
X82690550Y-83482695D01*
X82693661Y-83490205D01*
X82698604Y-83496646D01*
X82698607Y-83496652D01*
X82756731Y-83572399D01*
X82785908Y-83610423D01*
X82792350Y-83615366D01*
X82899678Y-83697723D01*
X82899681Y-83697725D01*
X82906126Y-83702670D01*
X83046123Y-83760659D01*
X83158639Y-83775472D01*
X83230026Y-83775472D01*
X83234079Y-83775472D01*
X83346595Y-83760659D01*
X83486592Y-83702670D01*
X83606810Y-83610423D01*
X83699057Y-83490205D01*
X83757046Y-83350208D01*
X83776825Y-83199972D01*
X83757046Y-83049736D01*
X83699057Y-82909739D01*
X83694112Y-82903294D01*
X83694110Y-82903291D01*
X83611753Y-82795963D01*
X83606810Y-82789521D01*
X83600367Y-82784577D01*
X83493039Y-82702220D01*
X83493033Y-82702217D01*
X83486592Y-82697274D01*
X83479083Y-82694163D01*
X83479082Y-82694163D01*
X83354104Y-82642395D01*
X83354101Y-82642394D01*
X83346595Y-82639285D01*
X83338541Y-82638224D01*
X83338535Y-82638223D01*
X83238098Y-82625001D01*
X83238096Y-82625000D01*
X83234079Y-82624472D01*
X83158639Y-82624472D01*
X83154622Y-82625000D01*
X83154619Y-82625001D01*
X83054182Y-82638223D01*
X83054174Y-82638224D01*
X83046123Y-82639285D01*
X83038618Y-82642393D01*
X83038613Y-82642395D01*
X82913635Y-82694163D01*
X82913631Y-82694165D01*
X82906126Y-82697274D01*
X82899687Y-82702214D01*
X82899678Y-82702220D01*
X82792350Y-82784577D01*
X82792346Y-82784580D01*
X82785908Y-82789521D01*
X82780967Y-82795959D01*
X82780964Y-82795963D01*
X82698607Y-82903291D01*
X82698601Y-82903300D01*
X82693661Y-82909739D01*
X82690552Y-82917244D01*
X82690550Y-82917248D01*
X82638782Y-83042226D01*
X82638780Y-83042231D01*
X82635672Y-83049736D01*
X82634611Y-83057787D01*
X82634610Y-83057795D01*
X82624935Y-83131288D01*
X82615893Y-83199972D01*
X77514820Y-83199972D01*
X77636204Y-83136264D01*
X77754447Y-83031511D01*
X77780431Y-82993865D01*
X77809614Y-82963974D01*
X77847065Y-82945470D01*
X78655451Y-82704577D01*
X78660816Y-82703110D01*
X78663589Y-82702417D01*
X78667965Y-82701653D01*
X78694199Y-82693075D01*
X78697236Y-82692127D01*
X78723698Y-82684242D01*
X78727736Y-82682377D01*
X78730413Y-82681367D01*
X78735645Y-82679524D01*
X80890131Y-81975118D01*
X80894796Y-81973695D01*
X81780605Y-81722852D01*
X81827224Y-81718828D01*
X81872018Y-81732367D01*
X81886351Y-81739890D01*
X82039731Y-81777694D01*
X82190201Y-81777694D01*
X82197701Y-81777694D01*
X82351081Y-81739890D01*
X82490956Y-81666477D01*
X82609199Y-81561724D01*
X82698936Y-81431717D01*
X82754953Y-81284012D01*
X82773994Y-81127194D01*
X82754953Y-80970376D01*
X82698936Y-80822671D01*
X82609199Y-80692664D01*
X82603588Y-80687693D01*
X82496572Y-80592886D01*
X82496570Y-80592884D01*
X82490956Y-80587911D01*
X82484311Y-80584423D01*
X82484309Y-80584422D01*
X82357722Y-80517983D01*
X82357718Y-80517981D01*
X82351081Y-80514498D01*
X82343803Y-80512704D01*
X82343800Y-80512703D01*
X82204983Y-80478488D01*
X82204976Y-80478487D01*
X82197701Y-80476694D01*
X82039731Y-80476694D01*
X82032456Y-80478486D01*
X82032448Y-80478488D01*
X81893631Y-80512703D01*
X81893625Y-80512704D01*
X81886351Y-80514498D01*
X81879716Y-80517980D01*
X81879709Y-80517983D01*
X81753122Y-80584422D01*
X81753116Y-80584425D01*
X81746476Y-80587911D01*
X81740864Y-80592881D01*
X81740859Y-80592886D01*
X81633846Y-80687690D01*
X81633840Y-80687696D01*
X81628233Y-80692664D01*
X81623974Y-80698833D01*
X81618999Y-80704450D01*
X81618411Y-80703929D01*
X81595402Y-80727331D01*
X81557018Y-80745806D01*
X81199679Y-80846997D01*
X81138978Y-80848732D01*
X81084731Y-80821437D01*
X81049951Y-80771658D01*
X81035537Y-80733652D01*
X81026676Y-80710286D01*
X80936939Y-80580279D01*
X80860661Y-80512703D01*
X80824312Y-80480501D01*
X80824310Y-80480499D01*
X80818696Y-80475526D01*
X80812051Y-80472038D01*
X80812049Y-80472037D01*
X80685462Y-80405598D01*
X80685458Y-80405596D01*
X80678821Y-80402113D01*
X80671543Y-80400319D01*
X80671540Y-80400318D01*
X80532723Y-80366103D01*
X80532716Y-80366102D01*
X80525441Y-80364309D01*
X80367471Y-80364309D01*
X80360196Y-80366101D01*
X80360188Y-80366103D01*
X80221371Y-80400318D01*
X80221365Y-80400319D01*
X80214091Y-80402113D01*
X80207456Y-80405595D01*
X80207449Y-80405598D01*
X80080862Y-80472037D01*
X80080856Y-80472040D01*
X80074216Y-80475526D01*
X80068604Y-80480496D01*
X80068599Y-80480501D01*
X79961583Y-80575308D01*
X79961578Y-80575312D01*
X79955973Y-80580279D01*
X79951718Y-80586443D01*
X79951713Y-80586449D01*
X79870499Y-80704109D01*
X79870496Y-80704112D01*
X79866236Y-80710286D01*
X79863576Y-80717297D01*
X79863574Y-80717303D01*
X79814388Y-80846997D01*
X79810219Y-80857991D01*
X79809315Y-80865431D01*
X79809314Y-80865438D01*
X79795669Y-80977823D01*
X79791178Y-81014809D01*
X79792082Y-81022254D01*
X79810016Y-81169957D01*
X79803916Y-81225988D01*
X79773644Y-81273531D01*
X79725454Y-81302764D01*
X78398762Y-81736525D01*
X78395640Y-81737500D01*
X77566389Y-81984610D01*
X77526460Y-81989692D01*
X77496489Y-81983633D01*
X77496329Y-81984285D01*
X77350231Y-81948275D01*
X77350224Y-81948274D01*
X77342949Y-81946481D01*
X77184979Y-81946481D01*
X77177704Y-81948273D01*
X77177696Y-81948275D01*
X77038879Y-81982490D01*
X77038873Y-81982491D01*
X77031599Y-81984285D01*
X77024964Y-81987767D01*
X77024957Y-81987770D01*
X76898370Y-82054209D01*
X76898364Y-82054212D01*
X76891724Y-82057698D01*
X76886112Y-82062668D01*
X76886107Y-82062673D01*
X76779091Y-82157480D01*
X76779086Y-82157484D01*
X76773481Y-82162451D01*
X76769226Y-82168615D01*
X76769221Y-82168621D01*
X76688007Y-82286281D01*
X76688004Y-82286284D01*
X76683744Y-82292458D01*
X76681084Y-82299469D01*
X76681082Y-82299475D01*
X76630387Y-82433148D01*
X76627727Y-82440163D01*
X76626823Y-82447603D01*
X76626822Y-82447610D01*
X76610034Y-82585877D01*
X76608686Y-82596981D01*
X71260965Y-82596981D01*
X71273820Y-82540662D01*
X71293426Y-82279032D01*
X71273820Y-82017402D01*
X71215438Y-81761616D01*
X71119586Y-81517389D01*
X70988404Y-81290175D01*
X70860764Y-81130120D01*
X70836171Y-81077380D01*
X70838346Y-81019227D01*
X70864191Y-80973139D01*
X70863435Y-80972527D01*
X70870849Y-80963361D01*
X70906805Y-80918908D01*
X70934255Y-80855643D01*
X70952202Y-80791791D01*
X70961732Y-80723491D01*
X70970206Y-78130484D01*
X70962726Y-78068275D01*
X70948227Y-78009683D01*
X70925831Y-77951164D01*
X70926894Y-77950757D01*
X70914356Y-77898803D01*
X70930607Y-77839242D01*
X70971327Y-77797210D01*
X70971081Y-77796872D01*
X70973021Y-77795462D01*
X70973563Y-77794902D01*
X70979178Y-77791462D01*
X71170743Y-77627850D01*
X71203929Y-77588993D01*
X71208385Y-77583777D01*
X71250761Y-77551699D01*
X71302675Y-77540309D01*
X71999080Y-77540309D01*
X72063868Y-77558581D01*
X72104707Y-77602759D01*
X72105048Y-77602512D01*
X72107135Y-77605384D01*
X72109563Y-77608011D01*
X72110783Y-77610406D01*
X72110785Y-77610409D01*
X72115215Y-77619103D01*
X72207162Y-77711050D01*
X72323023Y-77770084D01*
X72419149Y-77785309D01*
X72878762Y-77785308D01*
X72974889Y-77770084D01*
X73090750Y-77711050D01*
X73158775Y-77643024D01*
X73214362Y-77610931D01*
X73278550Y-77610931D01*
X73334137Y-77643025D01*
X73402162Y-77711050D01*
X73518023Y-77770084D01*
X73614149Y-77785309D01*
X73902766Y-77785308D01*
X73950219Y-77794747D01*
X73990447Y-77821627D01*
X74149911Y-77981091D01*
X74157220Y-77989066D01*
X74181501Y-78018003D01*
X74190895Y-78023426D01*
X74190897Y-78023428D01*
X74214217Y-78036892D01*
X74223339Y-78042703D01*
X74254272Y-78064362D01*
X74264755Y-78067171D01*
X74268090Y-78068726D01*
X74271515Y-78069972D01*
X74280911Y-78075397D01*
X74318099Y-78081954D01*
X74328661Y-78084294D01*
X74365149Y-78094072D01*
X74402766Y-78090781D01*
X74413574Y-78090309D01*
X78257320Y-78090309D01*
X78314946Y-78104513D01*
X78359370Y-78143869D01*
X78380416Y-78199363D01*
X78385189Y-78238678D01*
X78385190Y-78238682D01*
X78386094Y-78246127D01*
X78388752Y-78253136D01*
X78388754Y-78253143D01*
X78439449Y-78386814D01*
X78442111Y-78393832D01*
X78531848Y-78523839D01*
X78650091Y-78628592D01*
X78789966Y-78702005D01*
X78943346Y-78739809D01*
X79093816Y-78739809D01*
X79101316Y-78739809D01*
X79254696Y-78702005D01*
X79394571Y-78628592D01*
X79512814Y-78523839D01*
X79602551Y-78393832D01*
X79658568Y-78246127D01*
X79677609Y-78089309D01*
X79658568Y-77932491D01*
X79611972Y-77809627D01*
X79604295Y-77755961D01*
X79620251Y-77704143D01*
X79656787Y-77664089D01*
X79686630Y-77643192D01*
X79695732Y-77637394D01*
X79728454Y-77618503D01*
X79752747Y-77589550D01*
X79760034Y-77581598D01*
X80365006Y-76976628D01*
X80405235Y-76949748D01*
X80452688Y-76940309D01*
X90761321Y-76940309D01*
X90772128Y-76940780D01*
X90809755Y-76944073D01*
X90846272Y-76934287D01*
X90856778Y-76931958D01*
X90893993Y-76925397D01*
X90903399Y-76919965D01*
X90906848Y-76918710D01*
X90910147Y-76917171D01*
X90920632Y-76914363D01*
X90951583Y-76892689D01*
X90960681Y-76886894D01*
X90993403Y-76868003D01*
X91017696Y-76839050D01*
X91024984Y-76831097D01*
X93324325Y-74531757D01*
X93380514Y-74499505D01*
X93445302Y-74499994D01*
X93500999Y-74533093D01*
X93532401Y-74589764D01*
X93550711Y-74664050D01*
X93554194Y-74670687D01*
X93554196Y-74670691D01*
X93616630Y-74789648D01*
X93629767Y-74814677D01*
X93742572Y-74942008D01*
X93882571Y-75038643D01*
X93889589Y-75041304D01*
X93889588Y-75041304D01*
X94032571Y-75095530D01*
X94041629Y-75098965D01*
X94168129Y-75114325D01*
X94249124Y-75114325D01*
X94252873Y-75114325D01*
X94379373Y-75098965D01*
X94538431Y-75038643D01*
X94678430Y-74942008D01*
X94791235Y-74814677D01*
X94870291Y-74664050D01*
X94911001Y-74498881D01*
X94911001Y-74328769D01*
X94870291Y-74163600D01*
X94791235Y-74012973D01*
X94678430Y-73885642D01*
X94672261Y-73881383D01*
X94672259Y-73881382D01*
X94544607Y-73793270D01*
X94544606Y-73793269D01*
X94538431Y-73789007D01*
X94531416Y-73786346D01*
X94531413Y-73786345D01*
X94379373Y-73728685D01*
X94380098Y-73726771D01*
X94333257Y-73700805D01*
X94300170Y-73645109D01*
X94299686Y-73580327D01*
X94331936Y-73524145D01*
X96031588Y-71824493D01*
X96039540Y-71817206D01*
X96068492Y-71792914D01*
X96087383Y-71760192D01*
X96093178Y-71751094D01*
X96114852Y-71720143D01*
X96117660Y-71709658D01*
X96119199Y-71706359D01*
X96120454Y-71702910D01*
X96125886Y-71693504D01*
X96132447Y-71656289D01*
X96134776Y-71645783D01*
X96144562Y-71609266D01*
X96141269Y-71571639D01*
X96140798Y-71560832D01*
X96140798Y-70900849D01*
X96981911Y-70900849D01*
X96983704Y-70908125D01*
X96983705Y-70908130D01*
X96994877Y-70953456D01*
X97022621Y-71066018D01*
X97026104Y-71072655D01*
X97026106Y-71072659D01*
X97088540Y-71191616D01*
X97101677Y-71216645D01*
X97214482Y-71343976D01*
X97354481Y-71440611D01*
X97434010Y-71470772D01*
X97466822Y-71483216D01*
X97513539Y-71500933D01*
X97640039Y-71516293D01*
X97721034Y-71516293D01*
X97724783Y-71516293D01*
X97851283Y-71500933D01*
X98010341Y-71440611D01*
X98150340Y-71343976D01*
X98263145Y-71216645D01*
X98342201Y-71066018D01*
X98382911Y-70900849D01*
X98382911Y-70730737D01*
X98342201Y-70565568D01*
X98263145Y-70414941D01*
X98251376Y-70401657D01*
X98214922Y-70360508D01*
X98150340Y-70287610D01*
X98144171Y-70283351D01*
X98144169Y-70283350D01*
X98016517Y-70195238D01*
X98016516Y-70195237D01*
X98010341Y-70190975D01*
X98003326Y-70188314D01*
X98003323Y-70188313D01*
X97858299Y-70133313D01*
X97858293Y-70133311D01*
X97851283Y-70130653D01*
X97843838Y-70129749D01*
X97843834Y-70129748D01*
X97728503Y-70115744D01*
X97728491Y-70115743D01*
X97724783Y-70115293D01*
X97640039Y-70115293D01*
X97636331Y-70115743D01*
X97636318Y-70115744D01*
X97520987Y-70129748D01*
X97520981Y-70129749D01*
X97513539Y-70130653D01*
X97506530Y-70133310D01*
X97506522Y-70133313D01*
X97361498Y-70188313D01*
X97361492Y-70188316D01*
X97354481Y-70190975D01*
X97348308Y-70195235D01*
X97348304Y-70195238D01*
X97220652Y-70283350D01*
X97220646Y-70283355D01*
X97214482Y-70287610D01*
X97209510Y-70293221D01*
X97209509Y-70293223D01*
X97106652Y-70409324D01*
X97106647Y-70409330D01*
X97101677Y-70414941D01*
X97098191Y-70421581D01*
X97098190Y-70421584D01*
X97026106Y-70558926D01*
X97026103Y-70558933D01*
X97022621Y-70565568D01*
X97020827Y-70572843D01*
X97020826Y-70572848D01*
X96983705Y-70723455D01*
X96983704Y-70723461D01*
X96981911Y-70730737D01*
X96981911Y-70900849D01*
X96140798Y-70900849D01*
X96140798Y-69832155D01*
X96150237Y-69784702D01*
X96177117Y-69744474D01*
X96644084Y-69277507D01*
X98796899Y-67124690D01*
X98840607Y-67096431D01*
X98892066Y-67088599D01*
X98942199Y-67102575D01*
X99041035Y-67154449D01*
X99194415Y-67192253D01*
X99344885Y-67192253D01*
X99352385Y-67192253D01*
X99505765Y-67154449D01*
X99645640Y-67081036D01*
X99763883Y-66976283D01*
X99853620Y-66846276D01*
X99909637Y-66698571D01*
X99928678Y-66541753D01*
X99909637Y-66384935D01*
X99853620Y-66237230D01*
X99763883Y-66107223D01*
X99645640Y-66002470D01*
X99580721Y-65968397D01*
X99537374Y-65930574D01*
X99515761Y-65877259D01*
X99520534Y-65819927D01*
X99550666Y-65770923D01*
X101862746Y-63458843D01*
X101870698Y-63451556D01*
X101899650Y-63427264D01*
X101918541Y-63394542D01*
X101924336Y-63385444D01*
X101946010Y-63354493D01*
X101948818Y-63344008D01*
X101950357Y-63340709D01*
X101951612Y-63337260D01*
X101957044Y-63327854D01*
X101963605Y-63290639D01*
X101965934Y-63280133D01*
X101975720Y-63243616D01*
X101972428Y-63205986D01*
X101971956Y-63195179D01*
X101971956Y-59050337D01*
X101986157Y-58992715D01*
X102019533Y-58955037D01*
X102018696Y-58954092D01*
X102018696Y-58954091D01*
X102136939Y-58849339D01*
X102226676Y-58719332D01*
X102282693Y-58571627D01*
X102301734Y-58414809D01*
X102282693Y-58257991D01*
X102226676Y-58110286D01*
X102136939Y-57980279D01*
X102018696Y-57875526D01*
X102012051Y-57872038D01*
X102012049Y-57872037D01*
X101885462Y-57805598D01*
X101885458Y-57805596D01*
X101878821Y-57802113D01*
X101871543Y-57800319D01*
X101871540Y-57800318D01*
X101732723Y-57766103D01*
X101732716Y-57766102D01*
X101725441Y-57764309D01*
X101567471Y-57764309D01*
X101560195Y-57766102D01*
X101560189Y-57766103D01*
X101450631Y-57793107D01*
X101394930Y-57793948D01*
X101344483Y-57770321D01*
X101309469Y-57726993D01*
X101296956Y-57672710D01*
X101296956Y-53869478D01*
X101308928Y-53816320D01*
X101342533Y-53773427D01*
X101391282Y-53749081D01*
X101471538Y-53729300D01*
X101471537Y-53729300D01*
X101478821Y-53727505D01*
X101618696Y-53654092D01*
X101736939Y-53549339D01*
X101826676Y-53419332D01*
X101882693Y-53271627D01*
X101901734Y-53114809D01*
X101882693Y-52957991D01*
X101826676Y-52810286D01*
X101736939Y-52680279D01*
X101618696Y-52575526D01*
X101612051Y-52572038D01*
X101612049Y-52572037D01*
X101485462Y-52505598D01*
X101485458Y-52505596D01*
X101478821Y-52502113D01*
X101471543Y-52500319D01*
X101471540Y-52500318D01*
X101332723Y-52466103D01*
X101332716Y-52466102D01*
X101325441Y-52464309D01*
X101167471Y-52464309D01*
X101160196Y-52466101D01*
X101160188Y-52466103D01*
X101021371Y-52500318D01*
X101021365Y-52500319D01*
X101014091Y-52502113D01*
X101007456Y-52505595D01*
X101007449Y-52505598D01*
X100880862Y-52572037D01*
X100880856Y-52572040D01*
X100874216Y-52575526D01*
X100868604Y-52580496D01*
X100868599Y-52580501D01*
X100761583Y-52675308D01*
X100761578Y-52675312D01*
X100755973Y-52680279D01*
X100751718Y-52686443D01*
X100751713Y-52686449D01*
X100670499Y-52804109D01*
X100670496Y-52804112D01*
X100666236Y-52810286D01*
X100663576Y-52817297D01*
X100663574Y-52817303D01*
X100612879Y-52950976D01*
X100610219Y-52957991D01*
X100609315Y-52965431D01*
X100609314Y-52965438D01*
X100592526Y-53103705D01*
X100591178Y-53114809D01*
X100592082Y-53122254D01*
X100608655Y-53258751D01*
X100610219Y-53271627D01*
X100612879Y-53278641D01*
X100612880Y-53278645D01*
X100635526Y-53338358D01*
X100643112Y-53371519D01*
X100645484Y-53398627D01*
X100645956Y-53409436D01*
X100645956Y-63200317D01*
X100634338Y-63252723D01*
X100608200Y-63286784D01*
X100608544Y-63287072D01*
X100601948Y-63294932D01*
X100601662Y-63295305D01*
X100593262Y-63302354D01*
X100587840Y-63311743D01*
X100587837Y-63311748D01*
X100587283Y-63312709D01*
X100567581Y-63338382D01*
X97566533Y-66339430D01*
X97513351Y-66370853D01*
X97451607Y-66372719D01*
X97396625Y-66344564D01*
X97324316Y-66280504D01*
X97324311Y-66280501D01*
X97318696Y-66275526D01*
X97312051Y-66272038D01*
X97312049Y-66272037D01*
X97185462Y-66205598D01*
X97185458Y-66205596D01*
X97178821Y-66202113D01*
X97171543Y-66200319D01*
X97171540Y-66200318D01*
X97032723Y-66166103D01*
X97032716Y-66166102D01*
X97025441Y-66164309D01*
X96867471Y-66164309D01*
X96860196Y-66166101D01*
X96860188Y-66166103D01*
X96721371Y-66200318D01*
X96721365Y-66200319D01*
X96714091Y-66202113D01*
X96707456Y-66205595D01*
X96707449Y-66205598D01*
X96580862Y-66272037D01*
X96580856Y-66272040D01*
X96574216Y-66275526D01*
X96568604Y-66280496D01*
X96568599Y-66280501D01*
X96461583Y-66375308D01*
X96461578Y-66375312D01*
X96455973Y-66380279D01*
X96451718Y-66386443D01*
X96451713Y-66386449D01*
X96370499Y-66504109D01*
X96370496Y-66504112D01*
X96366236Y-66510286D01*
X96363576Y-66517297D01*
X96363574Y-66517303D01*
X96312879Y-66650976D01*
X96310219Y-66657991D01*
X96309315Y-66665431D01*
X96309314Y-66665438D01*
X96304440Y-66705585D01*
X96291178Y-66814809D01*
X96292082Y-66822254D01*
X96309314Y-66964179D01*
X96309315Y-66964184D01*
X96310219Y-66971627D01*
X96312878Y-66978640D01*
X96312879Y-66978641D01*
X96359881Y-67102577D01*
X96366236Y-67119332D01*
X96370499Y-67125508D01*
X96416569Y-67192253D01*
X96455973Y-67249339D01*
X96461582Y-67254308D01*
X96461583Y-67254309D01*
X96463763Y-67256240D01*
X96465030Y-67258200D01*
X96466562Y-67259929D01*
X96466299Y-67260161D01*
X96499925Y-67312165D01*
X96501938Y-67378733D01*
X96469222Y-67436741D01*
X96145724Y-67760239D01*
X96096714Y-67790374D01*
X96039379Y-67795145D01*
X95986062Y-67773527D01*
X95952840Y-67735444D01*
X95952245Y-67735855D01*
X95947981Y-67729678D01*
X95866767Y-67612018D01*
X95866766Y-67612017D01*
X95862508Y-67605848D01*
X95853976Y-67598289D01*
X95749881Y-67506070D01*
X95749879Y-67506068D01*
X95744265Y-67501095D01*
X95737620Y-67497607D01*
X95737618Y-67497606D01*
X95611031Y-67431167D01*
X95611027Y-67431165D01*
X95604390Y-67427682D01*
X95597112Y-67425888D01*
X95597109Y-67425887D01*
X95458292Y-67391672D01*
X95458285Y-67391671D01*
X95451010Y-67389878D01*
X95293040Y-67389878D01*
X95285765Y-67391670D01*
X95285757Y-67391672D01*
X95146940Y-67425887D01*
X95146934Y-67425888D01*
X95139660Y-67427682D01*
X95133025Y-67431164D01*
X95133018Y-67431167D01*
X95006431Y-67497606D01*
X95006425Y-67497609D01*
X94999785Y-67501095D01*
X94994173Y-67506065D01*
X94994168Y-67506070D01*
X94887152Y-67600877D01*
X94887147Y-67600881D01*
X94881542Y-67605848D01*
X94877287Y-67612012D01*
X94877282Y-67612018D01*
X94796068Y-67729678D01*
X94796067Y-67729680D01*
X94791805Y-67735855D01*
X94789145Y-67742866D01*
X94789143Y-67742872D01*
X94738448Y-67876545D01*
X94735788Y-67883560D01*
X94734884Y-67891000D01*
X94734883Y-67891007D01*
X94730479Y-67927280D01*
X94716747Y-68040378D01*
X94717651Y-68047823D01*
X94717651Y-68047824D01*
X94730577Y-68154286D01*
X94724698Y-68209682D01*
X94695162Y-68256913D01*
X93530170Y-69421905D01*
X93522198Y-69429211D01*
X93501570Y-69446520D01*
X93501568Y-69446521D01*
X93493262Y-69453492D01*
X93487840Y-69462881D01*
X93487836Y-69462887D01*
X93474370Y-69486211D01*
X93468568Y-69495318D01*
X93446902Y-69526263D01*
X93444095Y-69536735D01*
X93442543Y-69540065D01*
X93441287Y-69543513D01*
X93435868Y-69552902D01*
X93433985Y-69563578D01*
X93433984Y-69563582D01*
X93429309Y-69590096D01*
X93426970Y-69600644D01*
X93417192Y-69637140D01*
X93418137Y-69647943D01*
X93418137Y-69647946D01*
X93420484Y-69674766D01*
X93420956Y-69685574D01*
X93420956Y-71483216D01*
X93411517Y-71530669D01*
X93384637Y-71570897D01*
X92527345Y-72428187D01*
X92478338Y-72458321D01*
X92421007Y-72463094D01*
X92367691Y-72441481D01*
X92334115Y-72402999D01*
X92333622Y-72403340D01*
X92330630Y-72399005D01*
X92330628Y-72399003D01*
X92263810Y-72302199D01*
X92248144Y-72279503D01*
X92248143Y-72279502D01*
X92243885Y-72273333D01*
X92226409Y-72257851D01*
X92131258Y-72173555D01*
X92131256Y-72173553D01*
X92125642Y-72168580D01*
X92118997Y-72165092D01*
X92118995Y-72165091D01*
X91992408Y-72098652D01*
X91992404Y-72098650D01*
X91985767Y-72095167D01*
X91978489Y-72093373D01*
X91978486Y-72093372D01*
X91839669Y-72059157D01*
X91839662Y-72059156D01*
X91832387Y-72057363D01*
X91674417Y-72057363D01*
X91667142Y-72059155D01*
X91667134Y-72059157D01*
X91528317Y-72093372D01*
X91528311Y-72093373D01*
X91521037Y-72095167D01*
X91514402Y-72098649D01*
X91514395Y-72098652D01*
X91387808Y-72165091D01*
X91387802Y-72165094D01*
X91381162Y-72168580D01*
X91375550Y-72173550D01*
X91375545Y-72173555D01*
X91268529Y-72268362D01*
X91268524Y-72268366D01*
X91262919Y-72273333D01*
X91258664Y-72279497D01*
X91258659Y-72279503D01*
X91177445Y-72397163D01*
X91177442Y-72397166D01*
X91173182Y-72403340D01*
X91170522Y-72410351D01*
X91170520Y-72410357D01*
X91119825Y-72544030D01*
X91117165Y-72551045D01*
X91116261Y-72558485D01*
X91116260Y-72558492D01*
X91106787Y-72636515D01*
X91098124Y-72707863D01*
X91099028Y-72715308D01*
X91099028Y-72715309D01*
X91111954Y-72821770D01*
X91106075Y-72877166D01*
X91076539Y-72924397D01*
X89497949Y-74502990D01*
X89457721Y-74529870D01*
X89410268Y-74539309D01*
X81277618Y-74539309D01*
X81230165Y-74529870D01*
X81189937Y-74502990D01*
X79658275Y-72971328D01*
X79631395Y-72931100D01*
X79621956Y-72883647D01*
X79621956Y-69689462D01*
X79622428Y-69678654D01*
X79624774Y-69651836D01*
X79625720Y-69641028D01*
X79615937Y-69604520D01*
X79613601Y-69593978D01*
X79608928Y-69567476D01*
X79607044Y-69556790D01*
X79601616Y-69547390D01*
X79600366Y-69543954D01*
X79598819Y-69540636D01*
X79596010Y-69530151D01*
X79574348Y-69499214D01*
X79568536Y-69490092D01*
X79549650Y-69457380D01*
X79541337Y-69450405D01*
X79541336Y-69450403D01*
X79520711Y-69433097D01*
X79512736Y-69425789D01*
X78635473Y-68548526D01*
X78628164Y-68540550D01*
X78610856Y-68519923D01*
X78603885Y-68511615D01*
X78594492Y-68506192D01*
X78594490Y-68506190D01*
X78571165Y-68492723D01*
X78562057Y-68486921D01*
X78531114Y-68465255D01*
X78520636Y-68462447D01*
X78517303Y-68460893D01*
X78513862Y-68459640D01*
X78504475Y-68454221D01*
X78493796Y-68452337D01*
X78493791Y-68452336D01*
X78467282Y-68447661D01*
X78456727Y-68445322D01*
X78430713Y-68438352D01*
X78420237Y-68435545D01*
X78409433Y-68436490D01*
X78409430Y-68436490D01*
X78382611Y-68438837D01*
X78371803Y-68439309D01*
X74721109Y-68439309D01*
X74710301Y-68438837D01*
X74683481Y-68436490D01*
X74683478Y-68436490D01*
X74672675Y-68435545D01*
X74636179Y-68445323D01*
X74625631Y-68447662D01*
X74599117Y-68452337D01*
X74599113Y-68452338D01*
X74588437Y-68454221D01*
X74579048Y-68459640D01*
X74575600Y-68460896D01*
X74572270Y-68462448D01*
X74561798Y-68465255D01*
X74530853Y-68486921D01*
X74521746Y-68492723D01*
X74498422Y-68506189D01*
X74498416Y-68506193D01*
X74489027Y-68511615D01*
X74482056Y-68519921D01*
X74482055Y-68519923D01*
X74464744Y-68540553D01*
X74457438Y-68548525D01*
X74106936Y-68899027D01*
X74049710Y-68931548D01*
X73983902Y-68930199D01*
X73928055Y-68895362D01*
X73897906Y-68836851D01*
X73901949Y-68771155D01*
X74101345Y-68189203D01*
X74141375Y-68132421D01*
X74205664Y-68106081D01*
X79599872Y-67538158D01*
X79611472Y-67537486D01*
X79744120Y-67536050D01*
X79767316Y-67537985D01*
X79863919Y-67555292D01*
X79892101Y-67560341D01*
X79914539Y-67566583D01*
X80032941Y-67611878D01*
X80053818Y-67622207D01*
X80161656Y-67688842D01*
X80180227Y-67702887D01*
X80273714Y-67788522D01*
X80289325Y-67805787D01*
X80365148Y-67907393D01*
X80377254Y-67927269D01*
X80432743Y-68041268D01*
X80440921Y-68063065D01*
X80474108Y-68185408D01*
X80478068Y-68208360D01*
X80488292Y-68341266D01*
X80488638Y-68352911D01*
X80488062Y-68386295D01*
X80488063Y-68386299D01*
X80432342Y-71619741D01*
X80429823Y-71765913D01*
X80429823Y-71765914D01*
X80429400Y-71790487D01*
X80429400Y-71790490D01*
X80428758Y-71827692D01*
X80428758Y-71827706D01*
X80428747Y-71828377D01*
X80428792Y-71828597D01*
X80428809Y-71829015D01*
X80426907Y-71940774D01*
X80426841Y-71944674D01*
X80427263Y-71948540D01*
X80427264Y-71948550D01*
X80456596Y-72216951D01*
X80457021Y-72220837D01*
X80457929Y-72224631D01*
X80457930Y-72224636D01*
X80520777Y-72487210D01*
X80520781Y-72487224D01*
X80521688Y-72491012D01*
X80523066Y-72494662D01*
X80523068Y-72494668D01*
X80600752Y-72700418D01*
X80619816Y-72750911D01*
X80749847Y-72996407D01*
X80769002Y-73023629D01*
X80803185Y-73072208D01*
X80909717Y-73223603D01*
X80927964Y-73243616D01*
X81065570Y-73394544D01*
X81096887Y-73428892D01*
X81099858Y-73431422D01*
X81099863Y-73431427D01*
X81151644Y-73475526D01*
X81308387Y-73609016D01*
X81540858Y-73761113D01*
X81790610Y-73882770D01*
X82053678Y-73972056D01*
X82325885Y-74027552D01*
X82602909Y-74048378D01*
X82880354Y-74034204D01*
X83153814Y-73985253D01*
X83418948Y-73902304D01*
X83524697Y-73853921D01*
X83524723Y-73853916D01*
X83545259Y-73844515D01*
X83581522Y-73827915D01*
X83581523Y-73827913D01*
X88349551Y-71645147D01*
X88349560Y-71645139D01*
X88349643Y-71645095D01*
X88442707Y-71602534D01*
X88656823Y-71473364D01*
X88854930Y-71320772D01*
X89034479Y-71146723D01*
X89193157Y-70953456D01*
X89328923Y-70743459D01*
X89382433Y-70635463D01*
X89384435Y-70631428D01*
X89387110Y-70632755D01*
X89387110Y-70632753D01*
X89384436Y-70631427D01*
X89394602Y-70610929D01*
X89394781Y-70610569D01*
X89394782Y-70610567D01*
X89402155Y-70595699D01*
X89402155Y-70595698D01*
X89511017Y-70376191D01*
X93171827Y-62994599D01*
X93171829Y-62994598D01*
X93189549Y-62958868D01*
X93189556Y-62958872D01*
X93238566Y-62859987D01*
X93316355Y-62653420D01*
X93359723Y-62490351D01*
X94167832Y-62490351D01*
X94168214Y-62495205D01*
X94180665Y-62653420D01*
X94186980Y-62733653D01*
X94188114Y-62738377D01*
X94188115Y-62738382D01*
X94217977Y-62862764D01*
X94243954Y-62970963D01*
X94245819Y-62975467D01*
X94245820Y-62975468D01*
X94335483Y-63191937D01*
X94335487Y-63191945D01*
X94337349Y-63196440D01*
X94395093Y-63290669D01*
X94458753Y-63394554D01*
X94464867Y-63404530D01*
X94468031Y-63408235D01*
X94468035Y-63408240D01*
X94620200Y-63586402D01*
X94623367Y-63590110D01*
X94627074Y-63593276D01*
X94805236Y-63745441D01*
X94805239Y-63745443D01*
X94808947Y-63748610D01*
X95017037Y-63876128D01*
X95021536Y-63877991D01*
X95021539Y-63877993D01*
X95082726Y-63903337D01*
X95242514Y-63969523D01*
X95479824Y-64026497D01*
X95723126Y-64045645D01*
X95966428Y-64026497D01*
X96203738Y-63969523D01*
X96429215Y-63876128D01*
X96637305Y-63748610D01*
X96822885Y-63590110D01*
X96981385Y-63404530D01*
X97108903Y-63196440D01*
X97202298Y-62970963D01*
X97259272Y-62733653D01*
X97278420Y-62490351D01*
X97259272Y-62247049D01*
X97202298Y-62009739D01*
X97108903Y-61784262D01*
X96981385Y-61576172D01*
X96822885Y-61390592D01*
X96770388Y-61345755D01*
X96641015Y-61235260D01*
X96641010Y-61235256D01*
X96637305Y-61232092D01*
X96633149Y-61229545D01*
X96633146Y-61229543D01*
X96541500Y-61173382D01*
X96429215Y-61104574D01*
X96424720Y-61102712D01*
X96424712Y-61102708D01*
X96208243Y-61013045D01*
X96208242Y-61013044D01*
X96203738Y-61011179D01*
X96199001Y-61010041D01*
X96198999Y-61010041D01*
X95971157Y-60955340D01*
X95971152Y-60955339D01*
X95966428Y-60954205D01*
X95961581Y-60953823D01*
X95961578Y-60953823D01*
X95727980Y-60935439D01*
X95723126Y-60935057D01*
X95718272Y-60935439D01*
X95484673Y-60953823D01*
X95484668Y-60953823D01*
X95479824Y-60954205D01*
X95475101Y-60955338D01*
X95475094Y-60955340D01*
X95247252Y-61010041D01*
X95247246Y-61010042D01*
X95242514Y-61011179D01*
X95238012Y-61013043D01*
X95238008Y-61013045D01*
X95021539Y-61102708D01*
X95021526Y-61102714D01*
X95017037Y-61104574D01*
X95012883Y-61107119D01*
X95012882Y-61107120D01*
X94813105Y-61229543D01*
X94813096Y-61229549D01*
X94808947Y-61232092D01*
X94805247Y-61235251D01*
X94805236Y-61235260D01*
X94627074Y-61387425D01*
X94627067Y-61387431D01*
X94623367Y-61390592D01*
X94620206Y-61394292D01*
X94620200Y-61394299D01*
X94468035Y-61572461D01*
X94468026Y-61572472D01*
X94464867Y-61576172D01*
X94462324Y-61580321D01*
X94462318Y-61580330D01*
X94379218Y-61715938D01*
X94337349Y-61784262D01*
X94335489Y-61788751D01*
X94335483Y-61788764D01*
X94245820Y-62005233D01*
X94243954Y-62009739D01*
X94242817Y-62014471D01*
X94242816Y-62014477D01*
X94188115Y-62242319D01*
X94188113Y-62242326D01*
X94186980Y-62247049D01*
X94186598Y-62251893D01*
X94186598Y-62251898D01*
X94184455Y-62279131D01*
X94167832Y-62490351D01*
X93359723Y-62490351D01*
X93373085Y-62440107D01*
X93408187Y-62222188D01*
X93413423Y-62134600D01*
X93413432Y-62134573D01*
X93696290Y-57385603D01*
X94304845Y-57385603D01*
X94325373Y-57607139D01*
X94326942Y-57612653D01*
X94384689Y-57815616D01*
X94384692Y-57815624D01*
X94386259Y-57821131D01*
X94388811Y-57826256D01*
X94388813Y-57826261D01*
X94482875Y-58015162D01*
X94482877Y-58015166D01*
X94485430Y-58020292D01*
X94488879Y-58024859D01*
X94488882Y-58024864D01*
X94616049Y-58193261D01*
X94616054Y-58193266D01*
X94619507Y-58197839D01*
X94623743Y-58201700D01*
X94623747Y-58201705D01*
X94677795Y-58250976D01*
X94783926Y-58347727D01*
X94973087Y-58464850D01*
X95180548Y-58545221D01*
X95399245Y-58586103D01*
X95616002Y-58586103D01*
X95621731Y-58586103D01*
X95840428Y-58545221D01*
X96047889Y-58464850D01*
X96237050Y-58347727D01*
X96401469Y-58197839D01*
X96535546Y-58020292D01*
X96634717Y-57821131D01*
X96695603Y-57607139D01*
X96716131Y-57385603D01*
X96695603Y-57164067D01*
X96634717Y-56950075D01*
X96535546Y-56750914D01*
X96470877Y-56665278D01*
X96404926Y-56577944D01*
X96404922Y-56577940D01*
X96401469Y-56573367D01*
X96397232Y-56569504D01*
X96397228Y-56569500D01*
X96241284Y-56427339D01*
X96241285Y-56427339D01*
X96237050Y-56423479D01*
X96232180Y-56420464D01*
X96232178Y-56420462D01*
X96052763Y-56309374D01*
X96052764Y-56309374D01*
X96047889Y-56306356D01*
X95840428Y-56225985D01*
X95834790Y-56224931D01*
X95627360Y-56186155D01*
X95627357Y-56186154D01*
X95621731Y-56185103D01*
X95399245Y-56185103D01*
X95393619Y-56186154D01*
X95393615Y-56186155D01*
X95186185Y-56224931D01*
X95186182Y-56224931D01*
X95180548Y-56225985D01*
X95175205Y-56228054D01*
X95175201Y-56228056D01*
X94978429Y-56304286D01*
X94978424Y-56304288D01*
X94973087Y-56306356D01*
X94968215Y-56309372D01*
X94968212Y-56309374D01*
X94788797Y-56420462D01*
X94788789Y-56420467D01*
X94783926Y-56423479D01*
X94779695Y-56427335D01*
X94779691Y-56427339D01*
X94623747Y-56569500D01*
X94623737Y-56569510D01*
X94619507Y-56573367D01*
X94616058Y-56577933D01*
X94616049Y-56577944D01*
X94488882Y-56746341D01*
X94488875Y-56746351D01*
X94485430Y-56750914D01*
X94482880Y-56756034D01*
X94482875Y-56756043D01*
X94388813Y-56944944D01*
X94388809Y-56944952D01*
X94386259Y-56950075D01*
X94384693Y-56955578D01*
X94384689Y-56955589D01*
X94361039Y-57038713D01*
X94325373Y-57164067D01*
X94304845Y-57385603D01*
X93696290Y-57385603D01*
X93827493Y-55182798D01*
X93828926Y-55170013D01*
X93852812Y-55025272D01*
X93859620Y-55000442D01*
X93910531Y-54869826D01*
X93922327Y-54846931D01*
X93999121Y-54729658D01*
X94015388Y-54709697D01*
X94114763Y-54610810D01*
X94134802Y-54594642D01*
X94252466Y-54518420D01*
X94275409Y-54506744D01*
X94406276Y-54456479D01*
X94431144Y-54449793D01*
X94569571Y-54427650D01*
X94595281Y-54426246D01*
X94735293Y-54433180D01*
X94760746Y-54437119D01*
X94796889Y-54446640D01*
X94902589Y-54474486D01*
X94914886Y-54478422D01*
X95027414Y-54521035D01*
X95275296Y-54574588D01*
X95528380Y-54590786D01*
X95781068Y-54569271D01*
X96027770Y-54510520D01*
X96263031Y-54415831D01*
X96481648Y-54287299D01*
X96678785Y-54127767D01*
X96850083Y-53940762D01*
X96991753Y-53730421D01*
X97100662Y-53501396D01*
X97174401Y-53258751D01*
X97211340Y-53007854D01*
X97210660Y-52754254D01*
X97172378Y-52503558D01*
X97097341Y-52261312D01*
X96987206Y-52032874D01*
X96844412Y-51823295D01*
X96672114Y-51637210D01*
X96627149Y-51601219D01*
X96477725Y-51481617D01*
X96477720Y-51481614D01*
X96474125Y-51478736D01*
X96470139Y-51476421D01*
X96470136Y-51476419D01*
X96258810Y-51353692D01*
X96258805Y-51353689D01*
X96254823Y-51351377D01*
X96019058Y-51257950D01*
X96014566Y-51256905D01*
X96014561Y-51256904D01*
X95776533Y-51201564D01*
X95776524Y-51201562D01*
X95772044Y-51200521D01*
X95767458Y-51200155D01*
X95767450Y-51200154D01*
X95523848Y-51180728D01*
X95523846Y-51180727D01*
X95519245Y-51180361D01*
X95402254Y-51188521D01*
X95383302Y-51188390D01*
X95321046Y-51183188D01*
X95284393Y-51174375D01*
X95235433Y-51154332D01*
X95203126Y-51134917D01*
X95162449Y-51101090D01*
X95137467Y-51072863D01*
X95108835Y-51028381D01*
X95093488Y-50993954D01*
X95079541Y-50942916D01*
X95075247Y-50905469D01*
X95077280Y-50852600D01*
X95084435Y-50815600D01*
X95105609Y-50756419D01*
X95113305Y-50739178D01*
X95671535Y-49708078D01*
X95818882Y-49435916D01*
X95864462Y-49388424D01*
X95927927Y-49370952D01*
X97161026Y-49370952D01*
X97178809Y-49372234D01*
G37*
%TD.AperFunction*%
%TA.AperFunction,NonConductor*%
G36*
X64948089Y-67387130D02*
G01*
X69035912Y-67801954D01*
X69099822Y-67827675D01*
X69140139Y-67883538D01*
X69769083Y-69641030D01*
X69769137Y-69641115D01*
X69769156Y-69641161D01*
X69792839Y-69707214D01*
X69795121Y-69711411D01*
X69795123Y-69711414D01*
X69879332Y-69866247D01*
X69879336Y-69866253D01*
X69881624Y-69870460D01*
X69884535Y-69874268D01*
X69991563Y-70014293D01*
X69991568Y-70014299D01*
X69994473Y-70018099D01*
X70078669Y-70098714D01*
X70113389Y-70158928D01*
X70110255Y-70228365D01*
X70070251Y-70285206D01*
X70016458Y-70307278D01*
X70016982Y-70309909D01*
X69955896Y-70322059D01*
X69955891Y-70322060D01*
X69943916Y-70324443D01*
X69933762Y-70331226D01*
X69933758Y-70331229D01*
X69915342Y-70343534D01*
X69870644Y-70362047D01*
X69822264Y-70362046D01*
X69777566Y-70343533D01*
X69759150Y-70331228D01*
X69759149Y-70331227D01*
X69748995Y-70324443D01*
X69737017Y-70322060D01*
X69737014Y-70322059D01*
X69681908Y-70311098D01*
X69681904Y-70311097D01*
X69675929Y-70309909D01*
X69016981Y-70309909D01*
X69011006Y-70311097D01*
X69011001Y-70311098D01*
X68955895Y-70322059D01*
X68955890Y-70322060D01*
X68943915Y-70324443D01*
X68933762Y-70331226D01*
X68933759Y-70331228D01*
X68915344Y-70343533D01*
X68870645Y-70362047D01*
X68822265Y-70362047D01*
X68777566Y-70343533D01*
X68759150Y-70331228D01*
X68759149Y-70331227D01*
X68748995Y-70324443D01*
X68737017Y-70322060D01*
X68737014Y-70322059D01*
X68681908Y-70311098D01*
X68681904Y-70311097D01*
X68675929Y-70309909D01*
X68016981Y-70309909D01*
X68011006Y-70311097D01*
X68011001Y-70311098D01*
X67955895Y-70322059D01*
X67955890Y-70322060D01*
X67943915Y-70324443D01*
X67933760Y-70331227D01*
X67933753Y-70331231D01*
X67923386Y-70338158D01*
X67871595Y-70357869D01*
X67816389Y-70353051D01*
X67768795Y-70324667D01*
X67738318Y-70278386D01*
X67704207Y-70186931D01*
X67695792Y-70171519D01*
X67620256Y-70070616D01*
X67607847Y-70058207D01*
X67506944Y-69982671D01*
X67491532Y-69974256D01*
X67372396Y-69929820D01*
X67357422Y-69926282D01*
X67308869Y-69921062D01*
X67302273Y-69920709D01*
X67117681Y-69920709D01*
X67104805Y-69924159D01*
X67101355Y-69937035D01*
X67101355Y-73748483D01*
X67104805Y-73761358D01*
X67117681Y-73764809D01*
X67972456Y-73764809D01*
X68034456Y-73781422D01*
X68079843Y-73826809D01*
X68096456Y-73888809D01*
X68096456Y-74140809D01*
X68079843Y-74202809D01*
X68034456Y-74248196D01*
X67972456Y-74264809D01*
X67117681Y-74264809D01*
X67104805Y-74268259D01*
X67101355Y-74281135D01*
X67101355Y-75400183D01*
X67104805Y-75413058D01*
X67117681Y-75416509D01*
X67302273Y-75416509D01*
X67308869Y-75416155D01*
X67357422Y-75410935D01*
X67372396Y-75407397D01*
X67491532Y-75362961D01*
X67514729Y-75350296D01*
X67516085Y-75352780D01*
X67554788Y-75336307D01*
X67613750Y-75340989D01*
X67663836Y-75372450D01*
X67693649Y-75423534D01*
X67696408Y-75482617D01*
X67696273Y-75483299D01*
X67693145Y-75492042D01*
X67692764Y-75500579D01*
X67690187Y-75508725D01*
X67690119Y-75518010D01*
X67690119Y-75518011D01*
X67689768Y-75565940D01*
X67689648Y-75570545D01*
X67687517Y-75618425D01*
X67687104Y-75627712D01*
X67688843Y-75634391D01*
X67689214Y-75641968D01*
X67680692Y-76809377D01*
X67680109Y-76819058D01*
X67678010Y-76826877D01*
X67678351Y-76836158D01*
X67678351Y-76836161D01*
X67680040Y-76882091D01*
X67680121Y-76887546D01*
X67680001Y-76904009D01*
X67680001Y-76904017D01*
X67679968Y-76908641D01*
X67680623Y-76913216D01*
X67680821Y-76916139D01*
X67681620Y-76925039D01*
X67682660Y-76953300D01*
X67683002Y-76962589D01*
X67686064Y-76971357D01*
X67686066Y-76971367D01*
X67686990Y-76974011D01*
X67692669Y-76997303D01*
X67693066Y-77000076D01*
X67693068Y-77000083D01*
X67694385Y-77009274D01*
X67698352Y-77017669D01*
X67698353Y-77017670D01*
X67710436Y-77043236D01*
X67715394Y-77055343D01*
X67715629Y-77056016D01*
X67721335Y-77114288D01*
X67699667Y-77168682D01*
X67655457Y-77207071D01*
X67598561Y-77220894D01*
X67516932Y-77220894D01*
X67513914Y-77221191D01*
X67513898Y-77221192D01*
X67368670Y-77235496D01*
X67368662Y-77235497D01*
X67362606Y-77236094D01*
X67356782Y-77237860D01*
X67356775Y-77237862D01*
X67170417Y-77294393D01*
X67170415Y-77294393D01*
X67164586Y-77296162D01*
X67159220Y-77299030D01*
X67159206Y-77299036D01*
X67029337Y-77368454D01*
X66974797Y-77383034D01*
X66919445Y-77371923D01*
X66874756Y-77337424D01*
X66849993Y-77286689D01*
X66843831Y-77259690D01*
X66810641Y-77114277D01*
X66714789Y-76870050D01*
X66583607Y-76642836D01*
X66420026Y-76437712D01*
X66227700Y-76259260D01*
X66010925Y-76111465D01*
X66006739Y-76109449D01*
X65778723Y-75999642D01*
X65778717Y-75999639D01*
X65774544Y-75997630D01*
X65770122Y-75996266D01*
X65770112Y-75996262D01*
X65528269Y-75921664D01*
X65528264Y-75921662D01*
X65523836Y-75920297D01*
X65519256Y-75919606D01*
X65519249Y-75919605D01*
X65268986Y-75881883D01*
X65268975Y-75881882D01*
X65264403Y-75881193D01*
X65002039Y-75881193D01*
X64997467Y-75881882D01*
X64997455Y-75881883D01*
X64747192Y-75919605D01*
X64747182Y-75919607D01*
X64742606Y-75920297D01*
X64738180Y-75921661D01*
X64738172Y-75921664D01*
X64496329Y-75996262D01*
X64496314Y-75996267D01*
X64491898Y-75997630D01*
X64487729Y-75999637D01*
X64487718Y-75999642D01*
X64259702Y-76109449D01*
X64259695Y-76109452D01*
X64255517Y-76111465D01*
X64251684Y-76114078D01*
X64251681Y-76114080D01*
X64064823Y-76241478D01*
X64038742Y-76259260D01*
X64035350Y-76262406D01*
X64035344Y-76262412D01*
X63849817Y-76434556D01*
X63846416Y-76437712D01*
X63843527Y-76441334D01*
X63843523Y-76441339D01*
X63685727Y-76639209D01*
X63682835Y-76642836D01*
X63680516Y-76646852D01*
X63680515Y-76646854D01*
X63553974Y-76866028D01*
X63553968Y-76866039D01*
X63551653Y-76870050D01*
X63549960Y-76874363D01*
X63549955Y-76874374D01*
X63457497Y-77109954D01*
X63457494Y-77109961D01*
X63455801Y-77114277D01*
X63454769Y-77118795D01*
X63454768Y-77118801D01*
X63398450Y-77365543D01*
X63398448Y-77365551D01*
X63397419Y-77370063D01*
X63397072Y-77374682D01*
X63397072Y-77374688D01*
X63381886Y-77577339D01*
X63377813Y-77631693D01*
X63378160Y-77636324D01*
X63385060Y-77728407D01*
X63397419Y-77893323D01*
X63398449Y-77897836D01*
X63398450Y-77897842D01*
X63446940Y-78110286D01*
X63455801Y-78149109D01*
X63457496Y-78153427D01*
X63457497Y-78153431D01*
X63549955Y-78389011D01*
X63549958Y-78389017D01*
X63551653Y-78393336D01*
X63553971Y-78397351D01*
X63553974Y-78397357D01*
X63626704Y-78523329D01*
X63682835Y-78620550D01*
X63846416Y-78825674D01*
X64038742Y-79004126D01*
X64255517Y-79151921D01*
X64491898Y-79265756D01*
X64496326Y-79267121D01*
X64496329Y-79267123D01*
X64599758Y-79299026D01*
X64742606Y-79343089D01*
X65002039Y-79382193D01*
X65259768Y-79382193D01*
X65264403Y-79382193D01*
X65523836Y-79343089D01*
X65774544Y-79265756D01*
X66010925Y-79151921D01*
X66227700Y-79004126D01*
X66420026Y-78825674D01*
X66454399Y-78782571D01*
X66502685Y-78745830D01*
X66562629Y-78736400D01*
X66619870Y-78756541D01*
X66660701Y-78801431D01*
X66675344Y-78828826D01*
X66690855Y-78857844D01*
X66822130Y-79017804D01*
X66982090Y-79149079D01*
X67164586Y-79246626D01*
X67362606Y-79306694D01*
X67516932Y-79321894D01*
X67617098Y-79321894D01*
X67620148Y-79321894D01*
X67774474Y-79306694D01*
X67972494Y-79246626D01*
X68154990Y-79149079D01*
X68314950Y-79017804D01*
X68446225Y-78857844D01*
X68543772Y-78675348D01*
X68574607Y-78573696D01*
X68611197Y-78516739D01*
X68672249Y-78487486D01*
X68739567Y-78494660D01*
X68793083Y-78536119D01*
X69003832Y-78822046D01*
X69063334Y-78902773D01*
X69081317Y-78937623D01*
X69087518Y-78976345D01*
X69087518Y-80494592D01*
X69076545Y-80545592D01*
X69045567Y-80587565D01*
X69000067Y-80613083D01*
X68901130Y-80643600D01*
X68901118Y-80643604D01*
X68896695Y-80644969D01*
X68892526Y-80646976D01*
X68892515Y-80646981D01*
X68664499Y-80756788D01*
X68664492Y-80756791D01*
X68660314Y-80758804D01*
X68656481Y-80761417D01*
X68656478Y-80761419D01*
X68532348Y-80846050D01*
X68443539Y-80906599D01*
X68440147Y-80909745D01*
X68440141Y-80909751D01*
X68254614Y-81081895D01*
X68251213Y-81085051D01*
X68248324Y-81088673D01*
X68248320Y-81088678D01*
X68090524Y-81286548D01*
X68087632Y-81290175D01*
X68085313Y-81294191D01*
X68085312Y-81294193D01*
X67958771Y-81513367D01*
X67958765Y-81513378D01*
X67956450Y-81517389D01*
X67954757Y-81521702D01*
X67954752Y-81521713D01*
X67862294Y-81757293D01*
X67862291Y-81757300D01*
X67860598Y-81761616D01*
X67859566Y-81766134D01*
X67859565Y-81766140D01*
X67803247Y-82012882D01*
X67803245Y-82012890D01*
X67802216Y-82017402D01*
X67782610Y-82279032D01*
X67782957Y-82283663D01*
X67797884Y-82482863D01*
X67802216Y-82540662D01*
X67803246Y-82545175D01*
X67803247Y-82545181D01*
X67856316Y-82777689D01*
X67860598Y-82796448D01*
X67862293Y-82800766D01*
X67862294Y-82800770D01*
X67954752Y-83036350D01*
X67954755Y-83036356D01*
X67956450Y-83040675D01*
X67958768Y-83044690D01*
X67958771Y-83044696D01*
X67972890Y-83069150D01*
X68087632Y-83267889D01*
X68251213Y-83473013D01*
X68443539Y-83651465D01*
X68660314Y-83799260D01*
X68896695Y-83913095D01*
X68901123Y-83914460D01*
X68901126Y-83914462D01*
X69004555Y-83946365D01*
X69147403Y-83990428D01*
X69406836Y-84029532D01*
X69664565Y-84029532D01*
X69669200Y-84029532D01*
X69928633Y-83990428D01*
X70179341Y-83913095D01*
X70415722Y-83799260D01*
X70502185Y-83740310D01*
X70565184Y-83718953D01*
X70630156Y-83733228D01*
X70678401Y-83779027D01*
X70696035Y-83843169D01*
X70686072Y-86891826D01*
X70666362Y-86958501D01*
X70613865Y-87004087D01*
X70545085Y-87014252D01*
X65286338Y-86286966D01*
X65229514Y-86263773D01*
X65190773Y-86216171D01*
X65178396Y-86189401D01*
X63911460Y-84515730D01*
X64542887Y-84515730D01*
X64547907Y-84528079D01*
X65574174Y-85883815D01*
X65585305Y-85892071D01*
X65597465Y-85885417D01*
X65700065Y-85782818D01*
X65705849Y-85776143D01*
X65871983Y-85554214D01*
X65876767Y-85546771D01*
X66009624Y-85303459D01*
X66013296Y-85295420D01*
X66051228Y-85193718D01*
X66092804Y-85138005D01*
X66157828Y-85113421D01*
X66225863Y-85127692D01*
X66337132Y-85187167D01*
X66337137Y-85187169D01*
X66342512Y-85190042D01*
X66540532Y-85250110D01*
X66694858Y-85265310D01*
X66795024Y-85265310D01*
X66798074Y-85265310D01*
X66952400Y-85250110D01*
X67150420Y-85190042D01*
X67332916Y-85092495D01*
X67492876Y-84961220D01*
X67624151Y-84801260D01*
X67721698Y-84618764D01*
X67781766Y-84420744D01*
X67802049Y-84214810D01*
X67781766Y-84008876D01*
X67721698Y-83810856D01*
X67624151Y-83628360D01*
X67492876Y-83468400D01*
X67332916Y-83337125D01*
X67327545Y-83334254D01*
X67155794Y-83242450D01*
X67155789Y-83242448D01*
X67150420Y-83239578D01*
X67112812Y-83228170D01*
X66958230Y-83181278D01*
X66958225Y-83181277D01*
X66952400Y-83179510D01*
X66946341Y-83178913D01*
X66946335Y-83178912D01*
X66801107Y-83164608D01*
X66801092Y-83164607D01*
X66798074Y-83164310D01*
X66694858Y-83164310D01*
X66691840Y-83164607D01*
X66691824Y-83164608D01*
X66546596Y-83178912D01*
X66546588Y-83178913D01*
X66540532Y-83179510D01*
X66534708Y-83181276D01*
X66534701Y-83181278D01*
X66348343Y-83237809D01*
X66348341Y-83237809D01*
X66342512Y-83239578D01*
X66337145Y-83242446D01*
X66337137Y-83242450D01*
X66165386Y-83334254D01*
X66165381Y-83334257D01*
X66160016Y-83337125D01*
X66155312Y-83340984D01*
X66155308Y-83340988D01*
X66029523Y-83444216D01*
X65966996Y-83471308D01*
X65947720Y-83468436D01*
X65947728Y-83470751D01*
X65921912Y-83470837D01*
X65910614Y-83476060D01*
X64551071Y-84505208D01*
X64542887Y-84515730D01*
X63911460Y-84515730D01*
X63837618Y-84418182D01*
X63837615Y-84418176D01*
X62801497Y-83049426D01*
X62790364Y-83041169D01*
X62778206Y-83047822D01*
X62675607Y-83150422D01*
X62669814Y-83157108D01*
X62616617Y-83228170D01*
X62565216Y-83268249D01*
X62500589Y-83276721D01*
X62440593Y-83251246D01*
X62401806Y-83198863D01*
X62394944Y-83134050D01*
X62459709Y-82733925D01*
X63192691Y-82733925D01*
X63197275Y-82743841D01*
X64226423Y-84103384D01*
X64236945Y-84111568D01*
X64249294Y-84106548D01*
X65605029Y-83080282D01*
X65613286Y-83069150D01*
X65606631Y-83056989D01*
X65504035Y-82954393D01*
X65497360Y-82948608D01*
X65275429Y-82782473D01*
X65267986Y-82777689D01*
X65024677Y-82644833D01*
X65016639Y-82641162D01*
X64756883Y-82544278D01*
X64748414Y-82541792D01*
X64477526Y-82482863D01*
X64468770Y-82481604D01*
X64192254Y-82461828D01*
X64183418Y-82461828D01*
X63906901Y-82481604D01*
X63898145Y-82482863D01*
X63627257Y-82541792D01*
X63618788Y-82544278D01*
X63359026Y-82641164D01*
X63351002Y-82644829D01*
X63200940Y-82726768D01*
X63192691Y-82733925D01*
X62459709Y-82733925D01*
X62767982Y-80829381D01*
X62767973Y-80829256D01*
X62767993Y-80829074D01*
X62778698Y-80762819D01*
X62779477Y-80758000D01*
X62779997Y-80568192D01*
X62750683Y-80380660D01*
X62692265Y-80200065D01*
X62606194Y-80030893D01*
X62575708Y-79988944D01*
X62497483Y-79881304D01*
X62494609Y-79877349D01*
X62360281Y-79743246D01*
X62356334Y-79740385D01*
X62356331Y-79740383D01*
X62301761Y-79700836D01*
X62301760Y-79700835D01*
X62301735Y-79700806D01*
X60827208Y-78632956D01*
X59578173Y-77728407D01*
X59571616Y-77723315D01*
X59396091Y-77577339D01*
X59384073Y-77565901D01*
X59232414Y-77400854D01*
X59222030Y-77387913D01*
X59093757Y-77204086D01*
X59085208Y-77189897D01*
X58982620Y-76990579D01*
X58976036Y-76975360D01*
X58945458Y-76889309D01*
X58900986Y-76764156D01*
X58896490Y-76748188D01*
X58850308Y-76528854D01*
X58847984Y-76512433D01*
X58831497Y-76288880D01*
X58831387Y-76272311D01*
X58845199Y-76043498D01*
X58845977Y-76035240D01*
X58850394Y-76000712D01*
X58850394Y-76000709D01*
X58850396Y-76000693D01*
X58850394Y-76000688D01*
X58983358Y-74961027D01*
X65944955Y-74961027D01*
X65945308Y-74967623D01*
X65950528Y-75016176D01*
X65954066Y-75031150D01*
X65998502Y-75150286D01*
X66006917Y-75165698D01*
X66082453Y-75266601D01*
X66094862Y-75279010D01*
X66195765Y-75354546D01*
X66211177Y-75362961D01*
X66330313Y-75407397D01*
X66345287Y-75410935D01*
X66393840Y-75416155D01*
X66400437Y-75416509D01*
X66585029Y-75416509D01*
X66597904Y-75413058D01*
X66601355Y-75400183D01*
X66601355Y-74281135D01*
X66597904Y-74268259D01*
X66585029Y-74264809D01*
X65961281Y-74264809D01*
X65948405Y-74268259D01*
X65944955Y-74281135D01*
X65944955Y-74961027D01*
X58983358Y-74961027D01*
X59138433Y-73748483D01*
X65944955Y-73748483D01*
X65948405Y-73761358D01*
X65961281Y-73764809D01*
X66585029Y-73764809D01*
X66597904Y-73761358D01*
X66601355Y-73748483D01*
X66601355Y-71588735D01*
X66597904Y-71575859D01*
X66585029Y-71572409D01*
X65961281Y-71572409D01*
X65948405Y-71575859D01*
X65944955Y-71588735D01*
X65944955Y-72268627D01*
X65945308Y-72275223D01*
X65950528Y-72323776D01*
X65954066Y-72338750D01*
X65998502Y-72457886D01*
X66006917Y-72473298D01*
X66082453Y-72574201D01*
X66089180Y-72580928D01*
X66121274Y-72636515D01*
X66121274Y-72700703D01*
X66089180Y-72756290D01*
X66082453Y-72763016D01*
X66006917Y-72863919D01*
X65998502Y-72879331D01*
X65954066Y-72998467D01*
X65950528Y-73013441D01*
X65945308Y-73061994D01*
X65944955Y-73068591D01*
X65944955Y-73748483D01*
X59138433Y-73748483D01*
X59482770Y-71056083D01*
X65944955Y-71056083D01*
X65948405Y-71068958D01*
X65961281Y-71072409D01*
X66585029Y-71072409D01*
X66597904Y-71068958D01*
X66601355Y-71056083D01*
X66601355Y-69937035D01*
X66597904Y-69924159D01*
X66585029Y-69920709D01*
X66400437Y-69920709D01*
X66393840Y-69921062D01*
X66345287Y-69926282D01*
X66330313Y-69929820D01*
X66211177Y-69974256D01*
X66195765Y-69982671D01*
X66094862Y-70058207D01*
X66082453Y-70070616D01*
X66006917Y-70171519D01*
X65998502Y-70186931D01*
X65954066Y-70306067D01*
X65950528Y-70321041D01*
X65945308Y-70369594D01*
X65944955Y-70376191D01*
X65944955Y-71056083D01*
X59482770Y-71056083D01*
X59938234Y-67494766D01*
X59959482Y-67439624D01*
X60003840Y-67400578D01*
X60061232Y-67386497D01*
X64935571Y-67386497D01*
X64948089Y-67387130D01*
G37*
%TD.AperFunction*%
%TA.AperFunction,NonConductor*%
G36*
X90012097Y-54020106D02*
G01*
X90009470Y-54044711D01*
X89988150Y-54146575D01*
X89981879Y-54176534D01*
X89974419Y-54200127D01*
X89918736Y-54329576D01*
X89913283Y-54340689D01*
X89896951Y-54370150D01*
X89889309Y-54383936D01*
X89889304Y-54383951D01*
X87273475Y-59103030D01*
X87264543Y-59119144D01*
X87226348Y-59161203D01*
X87173405Y-59181813D01*
X87116826Y-59176648D01*
X78942269Y-56447832D01*
X78894569Y-56418604D01*
X78864568Y-56371386D01*
X78858375Y-56315787D01*
X78925153Y-55745640D01*
X78925266Y-55744707D01*
X78936505Y-55654667D01*
X78925266Y-55485618D01*
X78924295Y-55471012D01*
X78877489Y-55293004D01*
X78797786Y-55127097D01*
X78688075Y-54979310D01*
X78688074Y-54979310D01*
X78552331Y-54854999D01*
X78395494Y-54758683D01*
X78223227Y-54693843D01*
X78041799Y-54662839D01*
X77857784Y-54666793D01*
X77677854Y-54705561D01*
X77508536Y-54777738D01*
X77355972Y-54880707D01*
X77225701Y-55010726D01*
X77225699Y-55010729D01*
X77225698Y-55010730D01*
X77122435Y-55163093D01*
X77110214Y-55191596D01*
X77097017Y-55222374D01*
X77087171Y-55240852D01*
X76827320Y-55642618D01*
X76788771Y-55680521D01*
X76737757Y-55698419D01*
X76683976Y-55692909D01*
X70600410Y-53664400D01*
X70587652Y-53657089D01*
X70536673Y-53642972D01*
X70530552Y-53641106D01*
X70513795Y-53635519D01*
X70510224Y-53634856D01*
X70492614Y-53634049D01*
X70486229Y-53633591D01*
X70433544Y-53628441D01*
X70419012Y-53630679D01*
X61968747Y-53243786D01*
X61928907Y-53241962D01*
X61921459Y-53241621D01*
X61921413Y-53241619D01*
X61804006Y-53236199D01*
X61554521Y-53253131D01*
X61308557Y-53298213D01*
X61069279Y-53370866D01*
X60839769Y-53470156D01*
X60622989Y-53594800D01*
X60522499Y-53668949D01*
X60522497Y-53668951D01*
X56302338Y-56780555D01*
X56290799Y-56788110D01*
X56286894Y-56790367D01*
X56283802Y-56793238D01*
X56273015Y-56802175D01*
X56269606Y-56804689D01*
X56266660Y-56808109D01*
X56257092Y-56818042D01*
X53236205Y-59623316D01*
X52749817Y-60074989D01*
X52744189Y-60080215D01*
X52744135Y-60080265D01*
X52654787Y-60163132D01*
X52654784Y-60163136D01*
X52531395Y-60324167D01*
X52436773Y-60503617D01*
X52373601Y-60696400D01*
X52347829Y-60869168D01*
X52343670Y-60897048D01*
X52343671Y-60897048D01*
X52343670Y-60897049D01*
X52347828Y-61099876D01*
X52385957Y-61299129D01*
X52456977Y-61489161D01*
X52558874Y-61664583D01*
X52688759Y-61820422D01*
X52842949Y-61952260D01*
X52928091Y-62003088D01*
X57793313Y-64911809D01*
X57804058Y-64919021D01*
X57922049Y-65007517D01*
X57941013Y-65025117D01*
X58033753Y-65131271D01*
X58048651Y-65152430D01*
X58117317Y-65275522D01*
X58127497Y-65299317D01*
X58169102Y-65433996D01*
X58174116Y-65459384D01*
X58186839Y-65599756D01*
X58186472Y-65625644D01*
X58169764Y-65765593D01*
X58164027Y-65790838D01*
X58118616Y-65924266D01*
X58107760Y-65947772D01*
X58032198Y-66074612D01*
X58024992Y-66085383D01*
X56783437Y-67746247D01*
X56729701Y-67787323D01*
X56662403Y-67794087D01*
X55245468Y-67542029D01*
X55245462Y-67542027D01*
X55245461Y-67542028D01*
X55197285Y-67533459D01*
X55161769Y-67527141D01*
X55161635Y-67527132D01*
X55106103Y-67517276D01*
X54920921Y-67513195D01*
X54737315Y-67537562D01*
X54559610Y-67589803D01*
X54392027Y-67668678D01*
X54392025Y-67668679D01*
X54392024Y-67668680D01*
X54238518Y-67772327D01*
X54238516Y-67772329D01*
X54238513Y-67772331D01*
X54102728Y-67898285D01*
X54102725Y-67898289D01*
X54102724Y-67898290D01*
X54003735Y-68023506D01*
X53987855Y-68043594D01*
X53960560Y-68091786D01*
X53960486Y-68091887D01*
X53953339Y-68104518D01*
X53953338Y-68104519D01*
X53942791Y-68123158D01*
X53942216Y-68124173D01*
X53922573Y-68158883D01*
X53914675Y-68172839D01*
X53914669Y-68172857D01*
X53192451Y-69449169D01*
X53182553Y-69466661D01*
X53182358Y-69466889D01*
X53157242Y-69511339D01*
X53157241Y-69511339D01*
X53111532Y-69592233D01*
X53045992Y-69766123D01*
X53007991Y-69948026D01*
X52998434Y-70133611D01*
X53017548Y-70318456D01*
X53064879Y-70498157D01*
X53111533Y-70604905D01*
X53139297Y-70668432D01*
X53139298Y-70668433D01*
X53139299Y-70668436D01*
X53239035Y-70825234D01*
X53275721Y-70867026D01*
X53275826Y-70867180D01*
X53285412Y-70878087D01*
X53285413Y-70878090D01*
X54501573Y-72261947D01*
X54526474Y-72305840D01*
X54531823Y-72356025D01*
X54516731Y-72404184D01*
X54409807Y-72595962D01*
X54051459Y-73302157D01*
X54003735Y-73396206D01*
X53629206Y-74211693D01*
X53376796Y-74823148D01*
X53286794Y-75041174D01*
X53285411Y-75044934D01*
X53152148Y-75407252D01*
X53111680Y-75462496D01*
X53048058Y-75487836D01*
X52980688Y-75475540D01*
X52930119Y-75429359D01*
X52864363Y-75322334D01*
X52740608Y-75198147D01*
X52591547Y-75105846D01*
X52425217Y-75050408D01*
X52322517Y-75039733D01*
X51872540Y-75038949D01*
X51871057Y-75888948D01*
X51871056Y-75888951D01*
X51868702Y-77238944D01*
X52318675Y-77239729D01*
X52384804Y-77233090D01*
X52443903Y-77241605D01*
X52492172Y-77276753D01*
X52518417Y-77330386D01*
X52516555Y-77390065D01*
X52457218Y-77600877D01*
X52343670Y-78074453D01*
X52247988Y-78473515D01*
X52247988Y-78473518D01*
X52247986Y-78473524D01*
X52072974Y-79353673D01*
X51932450Y-80239982D01*
X51826628Y-81131101D01*
X51755669Y-82025671D01*
X51719681Y-82922329D01*
X51718728Y-83811996D01*
X51718719Y-83819701D01*
X51718720Y-83819701D01*
X51718719Y-83819709D01*
X51752784Y-84716442D01*
X51752785Y-84716447D01*
X51752785Y-84716463D01*
X51813913Y-85508616D01*
X51821825Y-85611162D01*
X51925737Y-86502506D01*
X52064360Y-87389114D01*
X52237484Y-88269636D01*
X52325939Y-88642076D01*
X52444843Y-89142723D01*
X52527619Y-89439248D01*
X52686127Y-90007065D01*
X52686129Y-90007069D01*
X52686130Y-90007075D01*
X52960960Y-90861320D01*
X52977018Y-90905270D01*
X53043767Y-91087956D01*
X53048351Y-91157376D01*
X53014829Y-91218339D01*
X50467251Y-93757196D01*
X50427016Y-93783990D01*
X50379591Y-93793364D01*
X40560826Y-93783082D01*
X40498844Y-93766404D01*
X40453504Y-93720970D01*
X40436956Y-93658952D01*
X40468040Y-63971717D01*
X40468490Y-63961289D01*
X40471223Y-63929315D01*
X40463050Y-63907833D01*
X40458028Y-63891215D01*
X40452936Y-63868799D01*
X40432948Y-63843680D01*
X40426800Y-63835248D01*
X38200515Y-60495298D01*
X38179798Y-60431592D01*
X38195241Y-60366407D01*
X38200515Y-60356892D01*
X39666257Y-57712624D01*
X40081759Y-56963039D01*
X40126642Y-56916690D01*
X40188734Y-56899164D01*
X40429700Y-56896291D01*
X41328768Y-56885572D01*
X41328768Y-58267395D01*
X41074614Y-58286441D01*
X40826132Y-58343156D01*
X40588877Y-58436272D01*
X40368161Y-58563702D01*
X40368158Y-58563704D01*
X40368157Y-58563705D01*
X40169277Y-58722307D01*
X40168892Y-58722614D01*
X39995539Y-58909443D01*
X39995537Y-58909446D01*
X39851963Y-59120030D01*
X39741380Y-59349659D01*
X39666256Y-59593205D01*
X39628269Y-59845228D01*
X39628269Y-60100098D01*
X39666256Y-60352121D01*
X39741380Y-60595667D01*
X39851963Y-60825297D01*
X39995537Y-61035880D01*
X40168892Y-61222712D01*
X40368157Y-61381621D01*
X40588880Y-61509055D01*
X40826132Y-61602170D01*
X41074611Y-61658884D01*
X41328768Y-61677930D01*
X41582925Y-61658884D01*
X41831404Y-61602170D01*
X42068656Y-61509055D01*
X42071981Y-61507135D01*
X42289376Y-61381623D01*
X42324242Y-61353818D01*
X42488644Y-61222712D01*
X42498194Y-61212420D01*
X42661998Y-61035882D01*
X42771454Y-60875340D01*
X42805573Y-60825297D01*
X42805574Y-60825294D01*
X42805576Y-60825292D01*
X42916155Y-60595669D01*
X42916156Y-60595667D01*
X42991280Y-60352121D01*
X43029267Y-60100098D01*
X43029267Y-59845228D01*
X42991280Y-59593205D01*
X42916155Y-59349656D01*
X42805576Y-59120034D01*
X42661998Y-58909443D01*
X42488645Y-58722614D01*
X42289376Y-58563702D01*
X42068660Y-58436272D01*
X41831405Y-58343156D01*
X41582923Y-58286441D01*
X41328768Y-58267395D01*
X41328768Y-56885572D01*
X43590758Y-56858605D01*
X43599337Y-56858800D01*
X43633790Y-56860778D01*
X43652785Y-56852937D01*
X43671054Y-56847008D01*
X43692094Y-56841942D01*
X43717660Y-56826677D01*
X43732099Y-56810560D01*
X43745990Y-56797285D01*
X43761901Y-56784283D01*
X43776506Y-56753007D01*
X43780405Y-56745359D01*
X47974790Y-49178492D01*
X48006919Y-49140880D01*
X48051194Y-49118821D01*
X48699295Y-48945423D01*
X55679511Y-47077877D01*
X55679511Y-50579786D01*
X55471813Y-50599031D01*
X55271192Y-50656113D01*
X55084476Y-50749086D01*
X54918017Y-50874790D01*
X54777497Y-51028934D01*
X54777496Y-51028936D01*
X54777495Y-51028937D01*
X54667688Y-51206280D01*
X54629288Y-51305403D01*
X54602682Y-51346929D01*
X54561994Y-51374800D01*
X54513661Y-51384608D01*
X50606633Y-51384608D01*
X50595825Y-51384136D01*
X50558198Y-51380843D01*
X50521709Y-51390620D01*
X50511153Y-51392961D01*
X50472898Y-51399707D01*
X50448202Y-51409937D01*
X50447321Y-51410554D01*
X50416378Y-51432220D01*
X50407269Y-51438023D01*
X50374550Y-51456914D01*
X50350270Y-51485850D01*
X50342961Y-51493826D01*
X47454181Y-54382606D01*
X47446207Y-54389914D01*
X47417263Y-54414201D01*
X47403378Y-54438250D01*
X47398377Y-54446912D01*
X47392565Y-54456035D01*
X47370903Y-54486972D01*
X47370903Y-54486973D01*
X47370286Y-54487854D01*
X47360057Y-54512547D01*
X47359870Y-54513610D01*
X47359869Y-54513611D01*
X47353312Y-54550799D01*
X47350972Y-54561357D01*
X47341193Y-54597849D01*
X47344486Y-54635479D01*
X47344957Y-54646286D01*
X47344957Y-57995835D01*
X47330754Y-58053461D01*
X47291397Y-58097885D01*
X47235929Y-58136171D01*
X47235928Y-58136172D01*
X47235927Y-58136173D01*
X47131174Y-58254416D01*
X47057761Y-58394291D01*
X47019957Y-58547671D01*
X47019957Y-58705641D01*
X47057761Y-58859021D01*
X47131174Y-58998896D01*
X47235927Y-59117139D01*
X47365934Y-59206876D01*
X47513639Y-59262893D01*
X47549259Y-59267217D01*
X47606718Y-59289649D01*
X47646262Y-59336993D01*
X47658101Y-59397533D01*
X47639305Y-59456285D01*
X47632020Y-59467879D01*
X47632018Y-59467881D01*
X47542039Y-59611081D01*
X47486182Y-59770712D01*
X47467246Y-59938771D01*
X47486182Y-60106830D01*
X47542039Y-60266461D01*
X47632018Y-60409661D01*
X47751605Y-60529248D01*
X47894805Y-60619227D01*
X48011657Y-60660114D01*
X48067648Y-60699843D01*
X48093921Y-60763272D01*
X48082421Y-60830958D01*
X48036673Y-60882150D01*
X47970701Y-60901156D01*
X45974288Y-60901156D01*
X45908316Y-60882150D01*
X45862568Y-60830958D01*
X45851068Y-60763272D01*
X45877341Y-60699843D01*
X45933334Y-60660114D01*
X45960004Y-60650782D01*
X46050184Y-60619227D01*
X46193384Y-60529248D01*
X46312971Y-60409661D01*
X46402950Y-60266461D01*
X46458807Y-60106830D01*
X46458808Y-60106829D01*
X46458808Y-60106827D01*
X46477744Y-59938771D01*
X46458808Y-59770714D01*
X46402950Y-59611081D01*
X46312970Y-59467879D01*
X46193386Y-59348295D01*
X46050184Y-59258315D01*
X45890551Y-59202457D01*
X45722495Y-59183521D01*
X45554438Y-59202457D01*
X45554436Y-59202457D01*
X45554435Y-59202458D01*
X45394804Y-59258315D01*
X45251604Y-59348294D01*
X45132017Y-59467881D01*
X45042038Y-59611081D01*
X44986181Y-59770712D01*
X44967245Y-59938771D01*
X44986181Y-60106830D01*
X45042038Y-60266461D01*
X45116850Y-60385522D01*
X45135856Y-60451759D01*
X45116565Y-60517916D01*
X45064935Y-60563558D01*
X44996912Y-60574589D01*
X44970460Y-60571377D01*
X44813639Y-60590419D01*
X44665934Y-60646436D01*
X44535929Y-60736171D01*
X44535928Y-60736172D01*
X44535927Y-60736173D01*
X44431174Y-60854416D01*
X44357761Y-60994291D01*
X44319957Y-61147671D01*
X44319957Y-61305641D01*
X44357761Y-61459021D01*
X44431174Y-61598896D01*
X44535927Y-61717139D01*
X44665934Y-61806876D01*
X44813639Y-61862893D01*
X44929701Y-61876985D01*
X44993691Y-61904452D01*
X45032787Y-61962079D01*
X45034657Y-62031690D01*
X44998713Y-62091333D01*
X44936289Y-62122197D01*
X44901281Y-62128370D01*
X44876585Y-62138600D01*
X44875704Y-62139217D01*
X44844761Y-62160883D01*
X44835652Y-62166686D01*
X44802933Y-62185577D01*
X44778653Y-62214513D01*
X44771344Y-62222489D01*
X42181677Y-64812156D01*
X42173703Y-64819464D01*
X42144759Y-64843751D01*
X42135198Y-64860311D01*
X42125873Y-64876462D01*
X42120061Y-64885585D01*
X42098399Y-64916522D01*
X42098399Y-64916523D01*
X42097782Y-64917404D01*
X42087553Y-64942097D01*
X42087366Y-64943160D01*
X42087365Y-64943161D01*
X42080808Y-64980349D01*
X42078466Y-64990912D01*
X42068689Y-65027398D01*
X42068690Y-65027398D01*
X42068689Y-65027399D01*
X42071982Y-65065025D01*
X42072453Y-65075833D01*
X42072453Y-73727880D01*
X42053447Y-73793852D01*
X42002254Y-73839600D01*
X41934569Y-73851100D01*
X41761882Y-73831642D01*
X41593825Y-73850578D01*
X41593823Y-73850578D01*
X41593822Y-73850579D01*
X41434191Y-73906436D01*
X41290991Y-73996415D01*
X41171404Y-74116002D01*
X41081425Y-74259202D01*
X41025568Y-74418833D01*
X41006632Y-74586892D01*
X41025568Y-74754951D01*
X41081425Y-74914582D01*
X41171404Y-75057782D01*
X41290991Y-75177369D01*
X41434191Y-75267348D01*
X41593822Y-75323205D01*
X41761881Y-75342141D01*
X41929940Y-75323205D01*
X42089571Y-75267348D01*
X42231983Y-75177864D01*
X42294475Y-75158908D01*
X42357934Y-75174331D01*
X42404756Y-75219858D01*
X42421953Y-75282859D01*
X42421953Y-75915133D01*
X42412514Y-75962586D01*
X42385634Y-76002814D01*
X42064986Y-76323462D01*
X42004899Y-76356672D01*
X41936354Y-76352824D01*
X41929940Y-76350579D01*
X41761882Y-76331643D01*
X41593825Y-76350579D01*
X41593823Y-76350579D01*
X41593822Y-76350580D01*
X41434191Y-76406437D01*
X41290991Y-76496416D01*
X41171404Y-76616003D01*
X41081425Y-76759203D01*
X41025568Y-76918834D01*
X41006632Y-77086893D01*
X41025568Y-77254952D01*
X41081425Y-77414583D01*
X41171404Y-77557783D01*
X41290991Y-77677370D01*
X41434191Y-77767349D01*
X41593822Y-77823206D01*
X41761881Y-77842142D01*
X41929940Y-77823206D01*
X42089571Y-77767349D01*
X42232771Y-77677370D01*
X42352358Y-77557783D01*
X42442337Y-77414583D01*
X42498194Y-77254952D01*
X42498195Y-77254951D01*
X42498195Y-77254949D01*
X42517131Y-77086893D01*
X42498195Y-76918834D01*
X42495950Y-76912420D01*
X42492102Y-76843875D01*
X42525312Y-76783788D01*
X42559773Y-76749327D01*
X42609136Y-76719077D01*
X42666852Y-76714535D01*
X42720339Y-76736690D01*
X42757939Y-76780713D01*
X42771454Y-76837008D01*
X42771454Y-78065632D01*
X42762015Y-78113085D01*
X42735135Y-78153313D01*
X42064986Y-78823462D01*
X42004899Y-78856672D01*
X41936354Y-78852824D01*
X41929940Y-78850579D01*
X41761882Y-78831643D01*
X41593825Y-78850579D01*
X41593823Y-78850579D01*
X41593822Y-78850580D01*
X41434191Y-78906437D01*
X41290991Y-78996416D01*
X41171404Y-79116003D01*
X41081425Y-79259203D01*
X41025568Y-79418834D01*
X41006632Y-79586893D01*
X41025568Y-79754952D01*
X41081425Y-79914583D01*
X41171404Y-80057783D01*
X41290991Y-80177370D01*
X41434191Y-80267349D01*
X41593822Y-80323206D01*
X41761881Y-80342142D01*
X41929940Y-80323206D01*
X42089571Y-80267349D01*
X42232771Y-80177370D01*
X42352358Y-80057783D01*
X42442337Y-79914583D01*
X42498194Y-79754952D01*
X42498195Y-79754951D01*
X42498195Y-79754949D01*
X42517131Y-79586893D01*
X42498195Y-79418834D01*
X42495950Y-79412420D01*
X42492102Y-79343875D01*
X42525312Y-79283788D01*
X42909275Y-78899826D01*
X42958638Y-78869576D01*
X43016354Y-78865034D01*
X43069841Y-78887189D01*
X43107441Y-78931212D01*
X43120956Y-78987507D01*
X43120956Y-80216129D01*
X43111517Y-80263582D01*
X43084637Y-80303810D01*
X42064986Y-81323461D01*
X42004899Y-81356671D01*
X41936354Y-81352823D01*
X41929940Y-81350578D01*
X41761882Y-81331642D01*
X41593825Y-81350578D01*
X41593823Y-81350578D01*
X41593822Y-81350579D01*
X41434191Y-81406436D01*
X41290991Y-81496415D01*
X41171404Y-81616002D01*
X41081425Y-81759202D01*
X41025568Y-81918833D01*
X41006632Y-82086892D01*
X41025568Y-82254951D01*
X41081425Y-82414582D01*
X41171404Y-82557782D01*
X41290991Y-82677369D01*
X41434191Y-82767348D01*
X41593822Y-82823205D01*
X41761881Y-82842141D01*
X41929940Y-82823205D01*
X42089571Y-82767348D01*
X42232771Y-82677369D01*
X42352358Y-82557782D01*
X42442337Y-82414582D01*
X42498194Y-82254951D01*
X42498195Y-82254950D01*
X42498195Y-82254948D01*
X42517131Y-82086892D01*
X42498195Y-81918833D01*
X42495950Y-81912419D01*
X42492102Y-81843874D01*
X42525312Y-81783787D01*
X43258775Y-81050324D01*
X43308138Y-81020074D01*
X43365854Y-81015532D01*
X43419341Y-81037687D01*
X43456941Y-81081710D01*
X43470456Y-81138005D01*
X43470456Y-82467481D01*
X43461017Y-82514934D01*
X43434137Y-82555162D01*
X41854598Y-84134701D01*
X41820719Y-84158740D01*
X41780802Y-84170240D01*
X41602401Y-84190342D01*
X41602399Y-84190342D01*
X41602398Y-84190343D01*
X41442767Y-84246200D01*
X41299567Y-84336179D01*
X41179980Y-84455766D01*
X41090001Y-84598966D01*
X41034144Y-84758597D01*
X41015208Y-84926656D01*
X41034144Y-85094715D01*
X41090001Y-85254346D01*
X41179980Y-85397546D01*
X41299567Y-85517133D01*
X41442767Y-85607112D01*
X41602398Y-85662969D01*
X41770457Y-85681905D01*
X41938516Y-85662969D01*
X42098147Y-85607112D01*
X42241347Y-85517133D01*
X42360934Y-85397546D01*
X42450913Y-85254346D01*
X42506770Y-85094715D01*
X42506771Y-85094714D01*
X42506771Y-85094712D01*
X42526873Y-84916311D01*
X42538373Y-84876394D01*
X42562412Y-84842515D01*
X42864058Y-84540869D01*
X42864058Y-89631457D01*
X42612909Y-89651223D01*
X42367948Y-89710032D01*
X42324242Y-89728136D01*
X42135199Y-89806440D01*
X41920399Y-89938070D01*
X41728834Y-90101682D01*
X41565222Y-90293247D01*
X41433592Y-90508047D01*
X41337185Y-90740795D01*
X41278375Y-90985758D01*
X41258609Y-91236906D01*
X41278375Y-91488054D01*
X41337185Y-91733017D01*
X41433592Y-91965765D01*
X41565222Y-92180565D01*
X41728834Y-92372130D01*
X41920399Y-92535742D01*
X42135199Y-92667372D01*
X42367947Y-92763779D01*
X42612910Y-92822589D01*
X42864058Y-92842355D01*
X43115206Y-92822589D01*
X43360169Y-92763779D01*
X43592917Y-92667372D01*
X43807717Y-92535742D01*
X43999282Y-92372130D01*
X44162894Y-92180565D01*
X44294524Y-91965765D01*
X44357761Y-91813097D01*
X44390932Y-91733016D01*
X44449741Y-91488055D01*
X44469507Y-91236906D01*
X44449741Y-90985756D01*
X44390932Y-90740795D01*
X44294523Y-90508045D01*
X44162895Y-90293248D01*
X43999282Y-90101682D01*
X43807716Y-89938069D01*
X43592919Y-89806441D01*
X43360169Y-89710032D01*
X43115208Y-89651223D01*
X42864058Y-89631457D01*
X42864058Y-84540869D01*
X43958276Y-83446651D01*
X44007639Y-83416401D01*
X44065355Y-83411859D01*
X44118842Y-83434014D01*
X44156442Y-83478037D01*
X44169957Y-83534332D01*
X44169957Y-84060650D01*
X44155587Y-84118591D01*
X44115809Y-84163103D01*
X44059841Y-84183870D01*
X44002401Y-84190342D01*
X44002399Y-84190342D01*
X44002398Y-84190343D01*
X43842767Y-84246200D01*
X43699567Y-84336179D01*
X43579980Y-84455766D01*
X43490001Y-84598966D01*
X43434144Y-84758597D01*
X43415208Y-84926656D01*
X43434144Y-85094715D01*
X43490001Y-85254346D01*
X43579980Y-85397546D01*
X43699567Y-85517133D01*
X43842767Y-85607112D01*
X44002398Y-85662969D01*
X44170457Y-85681905D01*
X44338516Y-85662969D01*
X44498147Y-85607112D01*
X44641347Y-85517133D01*
X44760934Y-85397546D01*
X44850913Y-85254346D01*
X44906770Y-85094715D01*
X44906771Y-85094714D01*
X44906771Y-85094712D01*
X44926873Y-84916311D01*
X44938373Y-84876394D01*
X44962412Y-84842515D01*
X44976886Y-84828041D01*
X44997530Y-84811405D01*
X45001587Y-84808798D01*
X45034103Y-84771271D01*
X45040136Y-84764791D01*
X45049678Y-84755249D01*
X45057768Y-84744442D01*
X45063310Y-84737563D01*
X45095834Y-84700029D01*
X45095835Y-84700028D01*
X45097837Y-84695643D01*
X45111362Y-84672850D01*
X45114253Y-84668987D01*
X45114254Y-84668985D01*
X45131612Y-84622446D01*
X45134996Y-84614278D01*
X45145325Y-84591660D01*
X45155622Y-84569114D01*
X45155745Y-84568259D01*
X45156310Y-84564332D01*
X45162863Y-84538657D01*
X45164548Y-84534139D01*
X45168092Y-84484603D01*
X45169038Y-84475809D01*
X45170957Y-84462459D01*
X45170957Y-84462455D01*
X45170957Y-84448964D01*
X45171273Y-84440117D01*
X45174817Y-84390582D01*
X45173791Y-84385870D01*
X45170957Y-84359512D01*
X45170957Y-71249484D01*
X45180396Y-71202031D01*
X45207276Y-71161803D01*
X45638355Y-70730724D01*
X45672234Y-70706685D01*
X45712153Y-70695185D01*
X45862568Y-70678237D01*
X45890553Y-70675084D01*
X46050184Y-70619227D01*
X46193384Y-70529248D01*
X46312971Y-70409661D01*
X46402950Y-70266461D01*
X46458807Y-70106830D01*
X46458808Y-70106829D01*
X46458808Y-70106827D01*
X46477744Y-69938771D01*
X46458808Y-69770714D01*
X46402950Y-69611081D01*
X46312970Y-69467879D01*
X46193386Y-69348295D01*
X46050184Y-69258315D01*
X45890551Y-69202457D01*
X45722495Y-69183521D01*
X45554438Y-69202457D01*
X45554436Y-69202457D01*
X45554435Y-69202458D01*
X45394804Y-69258315D01*
X45251604Y-69348294D01*
X45132017Y-69467881D01*
X45042038Y-69611081D01*
X44986181Y-69770712D01*
X44967245Y-69938771D01*
X44967246Y-69938771D01*
X44966080Y-69949112D01*
X44954580Y-69989031D01*
X44930541Y-70022910D01*
X44683137Y-70270314D01*
X44633774Y-70300564D01*
X44576058Y-70305106D01*
X44522571Y-70282951D01*
X44484971Y-70238928D01*
X44471456Y-70182633D01*
X44471456Y-69448985D01*
X44480895Y-69401532D01*
X44507775Y-69361304D01*
X45638355Y-68230724D01*
X45672234Y-68206685D01*
X45712153Y-68195185D01*
X45862568Y-68178237D01*
X45890553Y-68175084D01*
X46050184Y-68119227D01*
X46193384Y-68029248D01*
X46312971Y-67909661D01*
X46402950Y-67766461D01*
X46458807Y-67606830D01*
X46458808Y-67606829D01*
X46458808Y-67606827D01*
X46477744Y-67438771D01*
X46458808Y-67270714D01*
X46402950Y-67111081D01*
X46312970Y-66967879D01*
X46193386Y-66848295D01*
X46050184Y-66758315D01*
X45890551Y-66702457D01*
X45722495Y-66683521D01*
X45554438Y-66702457D01*
X45554436Y-66702457D01*
X45554435Y-66702458D01*
X45394804Y-66758315D01*
X45251604Y-66848294D01*
X45132017Y-66967881D01*
X45042038Y-67111081D01*
X44986181Y-67270712D01*
X44967245Y-67438771D01*
X44967246Y-67438771D01*
X44966080Y-67449112D01*
X44954580Y-67489031D01*
X44930541Y-67522910D01*
X43983637Y-68469814D01*
X43934274Y-68500064D01*
X43876558Y-68504606D01*
X43823071Y-68482451D01*
X43785471Y-68438428D01*
X43771956Y-68382133D01*
X43771956Y-67400997D01*
X43781395Y-67353544D01*
X43808275Y-67313316D01*
X45419390Y-65702201D01*
X45479481Y-65668990D01*
X45548028Y-65672841D01*
X45554435Y-65675084D01*
X45722494Y-65694020D01*
X45890553Y-65675084D01*
X46050184Y-65619227D01*
X46193384Y-65529248D01*
X46312971Y-65409661D01*
X46402950Y-65266461D01*
X46458807Y-65106830D01*
X46458808Y-65106829D01*
X46458808Y-65106827D01*
X46477744Y-64938771D01*
X46458808Y-64770714D01*
X46402950Y-64611081D01*
X46312970Y-64467879D01*
X46308927Y-64463837D01*
X46278677Y-64414474D01*
X46274135Y-64356758D01*
X46296290Y-64303271D01*
X46340313Y-64265671D01*
X46396608Y-64252156D01*
X46586283Y-64252156D01*
X46586283Y-77376156D01*
X46528158Y-77382405D01*
X46396679Y-77431444D01*
X46284341Y-77515540D01*
X46200245Y-77627878D01*
X46151206Y-77759357D01*
X46144957Y-77817482D01*
X46144957Y-78485826D01*
X46144957Y-78485830D01*
X46151206Y-78543955D01*
X46200245Y-78675434D01*
X46284341Y-78787772D01*
X46284344Y-78787774D01*
X46292603Y-78798807D01*
X46316845Y-78862092D01*
X46304196Y-78928671D01*
X46258433Y-78978657D01*
X46172417Y-79031712D01*
X46050514Y-79153615D01*
X45960004Y-79300354D01*
X45905776Y-79464004D01*
X45895457Y-79565009D01*
X45895457Y-79651656D01*
X46620457Y-79651656D01*
X46620457Y-80151656D01*
X45895458Y-80151656D01*
X45895458Y-80238303D01*
X45905776Y-80339306D01*
X45960004Y-80502957D01*
X46050514Y-80649696D01*
X46172417Y-80771599D01*
X46319156Y-80862109D01*
X46482806Y-80916337D01*
X46583810Y-80926656D01*
X46620457Y-80926656D01*
X46620457Y-80151656D01*
X46620457Y-79651656D01*
X47845456Y-79651656D01*
X47845456Y-79565009D01*
X47835139Y-79464005D01*
X47780911Y-79300354D01*
X47690401Y-79153615D01*
X47568496Y-79031710D01*
X47491460Y-78984194D01*
X47447756Y-78938140D01*
X47432576Y-78876492D01*
X47449899Y-78815411D01*
X47495183Y-78770910D01*
X47556557Y-78754656D01*
X48338974Y-78754656D01*
X48403764Y-78772929D01*
X48449459Y-78822362D01*
X48474216Y-78870950D01*
X48542240Y-78938975D01*
X48574334Y-78994562D01*
X48574334Y-79058750D01*
X48542240Y-79114337D01*
X48474217Y-79182360D01*
X48474216Y-79182362D01*
X48415182Y-79298223D01*
X48399957Y-79394349D01*
X48399958Y-79682967D01*
X48390519Y-79730420D01*
X48363639Y-79770648D01*
X48001725Y-80132562D01*
X47946138Y-80164656D01*
X47881950Y-80164656D01*
X47859434Y-80151656D01*
X47120457Y-80151656D01*
X47120457Y-80926655D01*
X47157102Y-80926655D01*
X47208355Y-80921419D01*
X47275531Y-80933432D01*
X47326179Y-80979169D01*
X47344957Y-81044777D01*
X47344957Y-81176292D01*
X47329485Y-81236273D01*
X47286931Y-81281284D01*
X47199567Y-81336179D01*
X47079980Y-81455766D01*
X46990001Y-81598966D01*
X46934144Y-81758597D01*
X46915208Y-81926656D01*
X46934144Y-82094715D01*
X46990001Y-82254346D01*
X47079980Y-82397546D01*
X47199567Y-82517133D01*
X47342767Y-82607112D01*
X47502398Y-82662969D01*
X47670457Y-82681905D01*
X47670457Y-83671406D01*
X47502401Y-83690342D01*
X47502399Y-83690342D01*
X47502398Y-83690343D01*
X47342767Y-83746200D01*
X47199567Y-83836179D01*
X47079980Y-83955766D01*
X46990001Y-84098966D01*
X46934144Y-84258597D01*
X46915208Y-84426656D01*
X46934144Y-84594715D01*
X46990001Y-84754346D01*
X47079980Y-84897546D01*
X47199567Y-85017133D01*
X47342767Y-85107112D01*
X47502398Y-85162969D01*
X47670457Y-85181905D01*
X47838516Y-85162969D01*
X47998147Y-85107112D01*
X48141347Y-85017133D01*
X48155352Y-85003128D01*
X48155352Y-87205221D01*
X47901197Y-87224267D01*
X47652715Y-87280982D01*
X47415460Y-87374098D01*
X47194744Y-87501528D01*
X47194741Y-87501530D01*
X47194740Y-87501531D01*
X47154631Y-87533517D01*
X46995475Y-87660440D01*
X46822122Y-87847269D01*
X46822120Y-87847272D01*
X46678546Y-88057856D01*
X46567963Y-88287485D01*
X46492839Y-88531031D01*
X46454852Y-88783054D01*
X46454852Y-89037924D01*
X46492839Y-89289947D01*
X46567963Y-89533493D01*
X46678546Y-89763123D01*
X46822120Y-89973706D01*
X46995475Y-90160538D01*
X47194740Y-90319447D01*
X47415463Y-90446881D01*
X47652715Y-90539996D01*
X47901194Y-90596710D01*
X48155351Y-90615756D01*
X48409508Y-90596710D01*
X48657987Y-90539996D01*
X48895239Y-90446881D01*
X48902951Y-90442428D01*
X49115959Y-90319449D01*
X49144485Y-90296700D01*
X49315227Y-90160538D01*
X49346497Y-90126837D01*
X49488581Y-89973708D01*
X49575446Y-89846301D01*
X49632156Y-89763123D01*
X49632157Y-89763120D01*
X49632159Y-89763118D01*
X49742738Y-89533495D01*
X49742739Y-89533493D01*
X49817863Y-89289947D01*
X49855850Y-89037924D01*
X49855850Y-88783054D01*
X49817863Y-88531031D01*
X49757117Y-88334098D01*
X49742738Y-88287482D01*
X49632159Y-88057860D01*
X49488581Y-87847269D01*
X49315228Y-87660440D01*
X49115959Y-87501528D01*
X48895243Y-87374098D01*
X48657988Y-87280982D01*
X48409506Y-87224267D01*
X48155352Y-87205221D01*
X48155352Y-85003128D01*
X48260934Y-84897546D01*
X48350913Y-84754346D01*
X48406770Y-84594715D01*
X48406771Y-84594714D01*
X48406771Y-84594712D01*
X48425707Y-84426656D01*
X48406771Y-84258599D01*
X48350913Y-84098966D01*
X48260933Y-83955764D01*
X48141349Y-83836180D01*
X47998147Y-83746200D01*
X47838514Y-83690342D01*
X47670457Y-83671406D01*
X47670457Y-82681905D01*
X47838516Y-82662969D01*
X47998147Y-82607112D01*
X48141347Y-82517133D01*
X48260934Y-82397546D01*
X48350913Y-82254346D01*
X48406770Y-82094715D01*
X48406771Y-82094714D01*
X48406771Y-82094712D01*
X48425707Y-81926656D01*
X48406771Y-81758599D01*
X48350913Y-81598966D01*
X48260933Y-81455764D01*
X48141349Y-81336180D01*
X48141347Y-81336178D01*
X48141347Y-81336179D01*
X48073824Y-81293752D01*
X48053985Y-81281286D01*
X48011429Y-81236273D01*
X47995957Y-81176292D01*
X47995957Y-81110344D01*
X48005396Y-81062891D01*
X48032276Y-81022663D01*
X48786465Y-80268474D01*
X48826693Y-80241594D01*
X48874146Y-80232155D01*
X49162759Y-80232155D01*
X49162763Y-80232155D01*
X49258890Y-80216931D01*
X49347457Y-80171804D01*
X49374752Y-80157897D01*
X49466698Y-80065951D01*
X49525733Y-79950087D01*
X49540957Y-79853965D01*
X49540957Y-79394353D01*
X49533345Y-79346286D01*
X49525732Y-79298223D01*
X49525732Y-79298221D01*
X49525731Y-79298220D01*
X49466699Y-79182361D01*
X49398674Y-79114337D01*
X49366580Y-79058750D01*
X49366580Y-78994562D01*
X49398674Y-78938975D01*
X49466698Y-78870951D01*
X49525733Y-78755087D01*
X49540957Y-78658965D01*
X49540957Y-78199353D01*
X49533345Y-78151286D01*
X49525732Y-78103223D01*
X49525732Y-78103221D01*
X49525731Y-78103220D01*
X49466699Y-77987361D01*
X49374753Y-77895415D01*
X49258889Y-77836380D01*
X49162767Y-77821156D01*
X48778148Y-77821156D01*
X48682025Y-77836380D01*
X48566163Y-77895414D01*
X48474216Y-77987361D01*
X48449459Y-78035950D01*
X48403764Y-78085383D01*
X48338974Y-78103656D01*
X47719957Y-78103656D01*
X47657957Y-78087043D01*
X47612570Y-78041656D01*
X47595957Y-77979656D01*
X47595957Y-77817482D01*
X47591236Y-77773570D01*
X47589708Y-77759356D01*
X47540669Y-77627878D01*
X47456573Y-77515540D01*
X47344235Y-77431444D01*
X47294148Y-77412763D01*
X47212756Y-77382405D01*
X47154631Y-77376156D01*
X46586283Y-77376156D01*
X46586283Y-64252156D01*
X46924192Y-64252156D01*
X46971645Y-64261595D01*
X47011873Y-64288475D01*
X47120457Y-64397059D01*
X47360419Y-64637020D01*
X47360419Y-66930247D01*
X47294146Y-67054236D01*
X47236964Y-67242740D01*
X47217657Y-67438771D01*
X47236964Y-67634801D01*
X47294148Y-67823309D01*
X47360418Y-67947293D01*
X47360419Y-67947293D01*
X47868942Y-67438772D01*
X47868942Y-67438771D01*
X47360419Y-66930247D01*
X47360419Y-64637020D01*
X47459067Y-64735667D01*
X47492275Y-64795754D01*
X47488426Y-64864301D01*
X47486182Y-64870712D01*
X47476366Y-64957830D01*
X47467246Y-65038770D01*
X47467247Y-65038770D01*
X47467246Y-65038771D01*
X47486182Y-65206830D01*
X47542039Y-65366461D01*
X47632018Y-65509661D01*
X47751605Y-65629248D01*
X47894805Y-65719227D01*
X48054436Y-65775084D01*
X48222495Y-65794020D01*
X48222496Y-65794020D01*
X48222496Y-66433932D01*
X48026463Y-66453239D01*
X47837958Y-66510421D01*
X47713973Y-66576692D01*
X47713973Y-66576693D01*
X48222496Y-67085217D01*
X48222496Y-67792324D01*
X47713972Y-68300848D01*
X47837957Y-68367118D01*
X48026465Y-68424302D01*
X48222495Y-68443609D01*
X48222495Y-69183521D01*
X48054439Y-69202457D01*
X48054437Y-69202457D01*
X48054436Y-69202458D01*
X47894805Y-69258315D01*
X47751605Y-69348294D01*
X47632018Y-69467881D01*
X47542039Y-69611081D01*
X47486182Y-69770712D01*
X47477638Y-69846541D01*
X47467246Y-69938769D01*
X47467247Y-69938769D01*
X47467246Y-69938771D01*
X47478553Y-70039117D01*
X47475322Y-70065375D01*
X47477638Y-70065541D01*
X47476367Y-70083325D01*
X47476366Y-70083326D01*
X47472824Y-70132858D01*
X47471879Y-70141646D01*
X47469957Y-70155010D01*
X47469957Y-70168501D01*
X47469642Y-70177347D01*
X47466098Y-70226882D01*
X47467123Y-70231595D01*
X47469957Y-70257953D01*
X47469957Y-72898631D01*
X47467123Y-72924989D01*
X47466098Y-72929701D01*
X47466099Y-72929701D01*
X47466098Y-72929702D01*
X47469642Y-72979236D01*
X47469957Y-72988083D01*
X47469957Y-73001572D01*
X47469957Y-73001574D01*
X47471879Y-73014934D01*
X47472824Y-73023726D01*
X47476366Y-73073258D01*
X47478052Y-73077776D01*
X47484606Y-73103456D01*
X47485292Y-73108232D01*
X47505927Y-73153412D01*
X47509304Y-73161566D01*
X47526661Y-73208106D01*
X47529550Y-73211964D01*
X47543082Y-73234772D01*
X47545080Y-73239148D01*
X47577604Y-73276681D01*
X47583144Y-73283557D01*
X47591236Y-73294368D01*
X47600799Y-73303930D01*
X47606803Y-73310378D01*
X47639329Y-73347918D01*
X47643388Y-73350526D01*
X47664027Y-73367157D01*
X47825163Y-73528293D01*
X47825163Y-75081885D01*
X47825354Y-75084373D01*
X47870897Y-75242163D01*
X47954249Y-75383667D01*
X48070171Y-75499995D01*
X48211384Y-75583841D01*
X48369011Y-75629934D01*
X48405855Y-75632898D01*
X48846497Y-75633667D01*
X48847457Y-75083669D01*
X47825163Y-75081885D01*
X47825163Y-73528293D01*
X48037831Y-73740961D01*
X48064749Y-73781286D01*
X48074147Y-73828851D01*
X48073824Y-74013835D01*
X48084297Y-74080720D01*
X48079654Y-74138426D01*
X48049318Y-74187736D01*
X47956174Y-74280554D01*
X47872329Y-74421767D01*
X47826235Y-74579397D01*
X47826035Y-74581885D01*
X48848329Y-74583670D01*
X50370623Y-74586325D01*
X50370432Y-74583837D01*
X50324888Y-74426048D01*
X50241536Y-74284544D01*
X50148718Y-74191402D01*
X50118554Y-74141986D01*
X50114113Y-74084262D01*
X50124820Y-74017418D01*
X50125453Y-73654375D01*
X50110764Y-73560569D01*
X50053363Y-73447427D01*
X49991961Y-73385811D01*
X49963813Y-73357565D01*
X49878318Y-73313814D01*
X49850874Y-73299770D01*
X49757121Y-73284753D01*
X49047157Y-73283514D01*
X48999821Y-73274034D01*
X48959693Y-73247195D01*
X48507276Y-72794780D01*
X48480396Y-72754552D01*
X48470957Y-72707099D01*
X48470957Y-70734933D01*
X48481303Y-70685347D01*
X48510614Y-70644036D01*
X48538656Y-70627138D01*
X48538355Y-70626660D01*
X48576049Y-70602975D01*
X48693385Y-70529248D01*
X48812972Y-70409661D01*
X48902951Y-70266461D01*
X48958808Y-70106830D01*
X48958809Y-70106829D01*
X48958809Y-70106827D01*
X48977745Y-69938771D01*
X48958809Y-69770714D01*
X48902951Y-69611081D01*
X48812971Y-69467879D01*
X48693387Y-69348295D01*
X48550185Y-69258315D01*
X48390552Y-69202457D01*
X48222495Y-69183521D01*
X48222495Y-68443609D01*
X48222496Y-68443609D01*
X48418526Y-68424302D01*
X48607030Y-68367120D01*
X48731019Y-68300847D01*
X48222497Y-67792324D01*
X48222496Y-67792324D01*
X48222496Y-67085217D01*
X48222497Y-67085217D01*
X48731020Y-66576694D01*
X48731019Y-66576693D01*
X48607029Y-66510420D01*
X48418528Y-66453239D01*
X48222496Y-66433932D01*
X48222496Y-65794020D01*
X48390554Y-65775084D01*
X48550185Y-65719227D01*
X48693385Y-65629248D01*
X48812972Y-65509661D01*
X48902951Y-65366461D01*
X48903916Y-65363703D01*
X48943644Y-65307712D01*
X49007073Y-65281439D01*
X49074758Y-65292939D01*
X49084573Y-65301710D01*
X49084573Y-66930247D01*
X48576049Y-67438771D01*
X48576049Y-67438772D01*
X49084573Y-67947293D01*
X49084574Y-67947293D01*
X49150845Y-67823308D01*
X49208027Y-67634803D01*
X49227334Y-67438770D01*
X49208027Y-67242738D01*
X49150846Y-67054237D01*
X49084573Y-66930247D01*
X49084573Y-65301710D01*
X49125951Y-65338687D01*
X49144957Y-65404659D01*
X49144957Y-65573315D01*
X49144486Y-65584122D01*
X49141193Y-65621749D01*
X49150979Y-65658266D01*
X49153308Y-65668772D01*
X49159869Y-65705987D01*
X49159871Y-65705989D01*
X49160058Y-65707054D01*
X49170284Y-65731741D01*
X49170903Y-65732624D01*
X49170903Y-65732626D01*
X49192570Y-65763567D01*
X49198366Y-65772664D01*
X49217263Y-65805397D01*
X49246216Y-65829690D01*
X49254157Y-65836966D01*
X49455037Y-66037847D01*
X49481914Y-66078074D01*
X49491353Y-66125526D01*
X49491353Y-66886568D01*
X49490882Y-66897375D01*
X49487589Y-66935002D01*
X49497375Y-66971519D01*
X49499704Y-66982025D01*
X49506265Y-67019240D01*
X49506267Y-67019242D01*
X49506454Y-67020307D01*
X49516680Y-67044994D01*
X49517299Y-67045877D01*
X49517299Y-67045879D01*
X49538966Y-67076820D01*
X49544762Y-67085917D01*
X49563659Y-67118650D01*
X49592612Y-67142943D01*
X49600565Y-67150231D01*
X50226471Y-67776137D01*
X50226471Y-72786073D01*
X50226209Y-72936049D01*
X50236523Y-73038786D01*
X50291380Y-73205309D01*
X50383160Y-73354690D01*
X50506916Y-73478879D01*
X50655977Y-73571180D01*
X50822307Y-73626618D01*
X50922564Y-73637039D01*
X50922564Y-75037292D01*
X50819827Y-75047606D01*
X50653304Y-75102463D01*
X50561748Y-75158715D01*
X50496884Y-75177063D01*
X50432006Y-75158766D01*
X50386286Y-75109231D01*
X50385043Y-75102929D01*
X50369751Y-75086325D01*
X49347457Y-75084541D01*
X49346497Y-75634539D01*
X49787135Y-75635309D01*
X49823993Y-75632473D01*
X49981778Y-75586931D01*
X50041789Y-75551582D01*
X50107122Y-75534447D01*
X50170458Y-75553705D01*
X50170458Y-81171406D01*
X50002401Y-81190342D01*
X50002399Y-81190342D01*
X50002398Y-81190343D01*
X49842767Y-81246200D01*
X49699567Y-81336179D01*
X49579980Y-81455766D01*
X49490001Y-81598966D01*
X49434144Y-81758597D01*
X49415208Y-81926656D01*
X49434144Y-82094715D01*
X49490001Y-82254346D01*
X49579980Y-82397546D01*
X49699567Y-82517133D01*
X49837343Y-82603703D01*
X49879241Y-82647545D01*
X49895338Y-82706018D01*
X49881779Y-82765132D01*
X49841807Y-82810744D01*
X49764123Y-82864365D01*
X49764122Y-82864366D01*
X49764121Y-82864367D01*
X49659368Y-82982610D01*
X49585955Y-83122485D01*
X49548151Y-83275865D01*
X49548151Y-83433835D01*
X49585955Y-83587215D01*
X49659368Y-83727090D01*
X49659370Y-83727092D01*
X49666365Y-83740420D01*
X49663811Y-83741760D01*
X49680246Y-83773848D01*
X49678385Y-83835598D01*
X49646960Y-83888786D01*
X49579980Y-83955766D01*
X49490001Y-84098966D01*
X49434144Y-84258597D01*
X49415208Y-84426656D01*
X49434144Y-84594715D01*
X49490001Y-84754346D01*
X49579980Y-84897546D01*
X49699567Y-85017133D01*
X49842767Y-85107112D01*
X50002398Y-85162969D01*
X50170457Y-85181905D01*
X50338516Y-85162969D01*
X50498147Y-85107112D01*
X50641347Y-85017133D01*
X50760934Y-84897546D01*
X50850913Y-84754346D01*
X50906770Y-84594715D01*
X50906771Y-84594714D01*
X50906771Y-84594712D01*
X50925707Y-84426656D01*
X50906771Y-84258599D01*
X50850914Y-84098966D01*
X50850913Y-84098966D01*
X50765934Y-83963724D01*
X50760932Y-83955763D01*
X50723854Y-83918685D01*
X50692432Y-83865504D01*
X50690566Y-83803762D01*
X50718719Y-83748780D01*
X50737933Y-83727091D01*
X50737934Y-83727090D01*
X50780559Y-83645876D01*
X50811348Y-83587214D01*
X50849151Y-83433835D01*
X50849151Y-83275865D01*
X50811348Y-83122485D01*
X50737935Y-82982611D01*
X50633181Y-82864367D01*
X50528625Y-82792197D01*
X50488654Y-82746584D01*
X50475095Y-82687472D01*
X50491192Y-82628999D01*
X50533093Y-82585154D01*
X50581256Y-82554891D01*
X50641347Y-82517133D01*
X50760934Y-82397546D01*
X50850913Y-82254346D01*
X50906770Y-82094715D01*
X50906771Y-82094714D01*
X50906771Y-82094712D01*
X50925707Y-81926656D01*
X50906771Y-81758599D01*
X50850913Y-81598966D01*
X50760933Y-81455764D01*
X50641349Y-81336180D01*
X50498147Y-81246200D01*
X50338514Y-81190342D01*
X50170458Y-81171406D01*
X50170458Y-75553705D01*
X50171744Y-75554096D01*
X50216481Y-75604700D01*
X50220188Y-75626004D01*
X50220188Y-76386068D01*
X50219926Y-76536044D01*
X50230240Y-76638781D01*
X50285097Y-76805304D01*
X50376877Y-76954685D01*
X50500633Y-77078874D01*
X50649694Y-77171175D01*
X50816024Y-77226613D01*
X50918725Y-77237288D01*
X51368702Y-77238071D01*
X51370185Y-76388074D01*
X50220188Y-76386068D01*
X50220188Y-75626004D01*
X50228060Y-75671243D01*
X50221321Y-75736091D01*
X50221060Y-75886067D01*
X51371057Y-75888074D01*
X51372540Y-75038076D01*
X50922564Y-75037292D01*
X50922564Y-73637039D01*
X50925008Y-73637293D01*
X51374985Y-73638076D01*
X51376468Y-72788079D01*
X50226471Y-72786073D01*
X50226471Y-67776137D01*
X50530176Y-68079842D01*
X50561597Y-68133021D01*
X50563463Y-68194763D01*
X50535311Y-68249745D01*
X50531174Y-68254415D01*
X50457761Y-68394289D01*
X50419957Y-68547671D01*
X50419957Y-68705641D01*
X50457761Y-68859021D01*
X50531174Y-68998896D01*
X50635927Y-69117139D01*
X50765934Y-69206876D01*
X50913639Y-69262893D01*
X50928849Y-69264740D01*
X50928849Y-71437297D01*
X50826110Y-71447611D01*
X50659587Y-71502468D01*
X50510206Y-71594248D01*
X50386017Y-71718004D01*
X50293716Y-71867065D01*
X50238277Y-72033395D01*
X50227604Y-72136094D01*
X50227343Y-72286072D01*
X51377340Y-72288079D01*
X51378823Y-71438081D01*
X50928849Y-71437297D01*
X50928849Y-69264740D01*
X51070457Y-69281934D01*
X51227275Y-69262893D01*
X51374980Y-69206876D01*
X51504987Y-69117139D01*
X51609740Y-68998896D01*
X51616693Y-68985650D01*
X51683154Y-68859020D01*
X51720957Y-68705641D01*
X51720957Y-68547671D01*
X51683154Y-68394291D01*
X51609739Y-68254414D01*
X51504990Y-68136174D01*
X51415067Y-68074105D01*
X51384180Y-68043530D01*
X51379679Y-68033921D01*
X51348351Y-67989179D01*
X51342543Y-67980063D01*
X51323652Y-67947344D01*
X51294713Y-67923061D01*
X51286741Y-67915755D01*
X50178672Y-66807688D01*
X50151792Y-66767460D01*
X50142353Y-66720007D01*
X50142353Y-65992105D01*
X50156556Y-65934480D01*
X50195913Y-65890055D01*
X50251406Y-65869009D01*
X50291380Y-65864155D01*
X50301775Y-65862893D01*
X50449480Y-65806876D01*
X50561597Y-65729488D01*
X50579486Y-65717140D01*
X50588753Y-65706680D01*
X50684240Y-65598896D01*
X50719599Y-65531526D01*
X50757654Y-65459020D01*
X50795457Y-65305641D01*
X50795457Y-65147671D01*
X50757654Y-64994289D01*
X50684240Y-64854415D01*
X50676642Y-64845839D01*
X50653515Y-64807583D01*
X50645457Y-64763612D01*
X50645457Y-61368300D01*
X50648291Y-61341942D01*
X50649317Y-61337229D01*
X50645773Y-61287695D01*
X50645457Y-61278848D01*
X50645457Y-61265357D01*
X50643537Y-61251993D01*
X50642592Y-61243209D01*
X50639048Y-61193669D01*
X50637361Y-61189146D01*
X50630810Y-61163479D01*
X50630123Y-61158701D01*
X50609491Y-61113521D01*
X50606106Y-61105347D01*
X50588754Y-61058824D01*
X50585859Y-61054958D01*
X50572341Y-61032175D01*
X50570334Y-61027783D01*
X50537808Y-60990244D01*
X50532269Y-60983372D01*
X50524175Y-60972560D01*
X50514634Y-60963018D01*
X50508613Y-60956550D01*
X50476085Y-60919012D01*
X50472022Y-60916401D01*
X50451386Y-60899770D01*
X49183957Y-59632340D01*
X49167328Y-59611707D01*
X49164717Y-59607643D01*
X49127186Y-59575122D01*
X49120719Y-59569101D01*
X49105955Y-59554340D01*
X49079068Y-59514109D01*
X49069627Y-59466650D01*
X49069627Y-56681406D01*
X49083830Y-56623780D01*
X49123187Y-56579356D01*
X49178680Y-56558310D01*
X49237598Y-56565464D01*
X49246202Y-56568727D01*
X49261809Y-56574646D01*
X49418627Y-56593687D01*
X49575445Y-56574646D01*
X49699567Y-56527573D01*
X49723151Y-56518629D01*
X49802730Y-56463699D01*
X49833842Y-56442224D01*
X49886858Y-56421505D01*
X49943547Y-56426656D01*
X49991959Y-56456592D01*
X51028811Y-57493445D01*
X51060574Y-57547826D01*
X51061525Y-57610797D01*
X51048722Y-57662742D01*
X51048722Y-57820712D01*
X51086526Y-57974092D01*
X51159939Y-58113967D01*
X51264692Y-58232210D01*
X51394699Y-58321947D01*
X51542404Y-58377964D01*
X51699222Y-58397005D01*
X51856040Y-58377964D01*
X51876468Y-58370217D01*
X51876468Y-72788951D01*
X51874985Y-73638949D01*
X52324960Y-73639734D01*
X52427697Y-73629420D01*
X52594220Y-73574563D01*
X52743601Y-73482783D01*
X52867790Y-73359027D01*
X52960091Y-73209966D01*
X53015530Y-73043636D01*
X53026204Y-72940936D01*
X53026466Y-72790958D01*
X51876468Y-72788951D01*
X51876468Y-58370217D01*
X51878823Y-58369324D01*
X51878823Y-71438954D01*
X51877340Y-72288951D01*
X53027337Y-72290957D01*
X53027598Y-72140982D01*
X53017284Y-72038245D01*
X52962427Y-71871722D01*
X52870647Y-71722341D01*
X52746891Y-71598152D01*
X52597830Y-71505851D01*
X52431500Y-71450413D01*
X52328800Y-71439738D01*
X51878823Y-71438954D01*
X51878823Y-58369324D01*
X52003745Y-58321947D01*
X52133752Y-58232210D01*
X52142691Y-58222120D01*
X52191535Y-58188405D01*
X52250453Y-58181251D01*
X52305942Y-58202294D01*
X52392399Y-58261972D01*
X52540104Y-58317989D01*
X52696922Y-58337030D01*
X52853740Y-58317989D01*
X53001445Y-58261972D01*
X53124476Y-58177050D01*
X53131451Y-58172236D01*
X53147561Y-58154051D01*
X53236205Y-58053992D01*
X53275721Y-57978702D01*
X53309619Y-57914116D01*
X53347422Y-57760737D01*
X53347422Y-57602767D01*
X53309619Y-57449387D01*
X53236206Y-57309513D01*
X53131451Y-57191267D01*
X53001446Y-57101532D01*
X52853741Y-57045515D01*
X52696922Y-57026473D01*
X52583014Y-57040304D01*
X52527619Y-57034425D01*
X52480387Y-57004889D01*
X52325939Y-56850441D01*
X52318633Y-56842468D01*
X52294353Y-56813533D01*
X52261633Y-56794641D01*
X52252517Y-56788833D01*
X52220704Y-56766558D01*
X52193385Y-56755240D01*
X52188739Y-56752557D01*
X52147690Y-56714129D01*
X52127832Y-56661523D01*
X52133250Y-56605555D01*
X52162829Y-56557735D01*
X52210487Y-56527895D01*
X52221581Y-56524086D01*
X52405113Y-56461080D01*
X52623812Y-56342726D01*
X52623816Y-56342723D01*
X52623818Y-56342722D01*
X52820044Y-56189992D01*
X52820047Y-56189990D01*
X52988467Y-56007037D01*
X53124476Y-55798859D01*
X53124480Y-55798853D01*
X53147561Y-55746235D01*
X53183928Y-55699000D01*
X53238135Y-55674194D01*
X53297653Y-55677551D01*
X53348727Y-55708294D01*
X53379552Y-55759319D01*
X53383005Y-55818823D01*
X53344957Y-56022363D01*
X53344957Y-56230947D01*
X53344957Y-56230949D01*
X53383284Y-56435983D01*
X53458634Y-56630484D01*
X53568441Y-56807827D01*
X53708964Y-56961974D01*
X53875419Y-57087675D01*
X53875421Y-57087675D01*
X53875422Y-57087677D01*
X54062138Y-57180650D01*
X54262759Y-57237732D01*
X54292879Y-57240522D01*
X54470457Y-57256978D01*
X54629445Y-57242245D01*
X54678156Y-57237732D01*
X54878777Y-57180650D01*
X55065493Y-57087677D01*
X55231952Y-56961973D01*
X55372472Y-56807829D01*
X55482281Y-56630483D01*
X55557630Y-56435984D01*
X55570406Y-56367638D01*
X55595957Y-56230949D01*
X55595957Y-56022363D01*
X55576794Y-55919845D01*
X55557630Y-55817327D01*
X55482281Y-55622828D01*
X55372472Y-55445482D01*
X55231952Y-55291338D01*
X55065493Y-55165634D01*
X54878777Y-55072661D01*
X54678156Y-55015579D01*
X54470457Y-54996334D01*
X54262759Y-55015579D01*
X54062138Y-55072661D01*
X53875422Y-55165634D01*
X53708963Y-55291338D01*
X53568440Y-55445486D01*
X53462885Y-55615960D01*
X53411322Y-55662373D01*
X53342899Y-55673824D01*
X53279033Y-55646731D01*
X53239716Y-55589573D01*
X53237254Y-55520243D01*
X53285411Y-55330073D01*
X53285412Y-55330071D01*
X53285412Y-55330068D01*
X53300803Y-55144325D01*
X53300803Y-55144319D01*
X53300803Y-55020185D01*
X53300803Y-55020179D01*
X53285412Y-54834435D01*
X53285412Y-54834431D01*
X53285411Y-54834431D01*
X53224366Y-54593371D01*
X53224366Y-54593370D01*
X53222656Y-54586619D01*
X53223554Y-54522390D01*
X53256469Y-54467228D01*
X53312568Y-54435936D01*
X53376796Y-54436913D01*
X53554850Y-54487574D01*
X53627862Y-54494339D01*
X53762548Y-54506820D01*
X53922573Y-54491991D01*
X53970247Y-54487574D01*
X54170868Y-54430492D01*
X54357584Y-54337519D01*
X54524043Y-54211815D01*
X54664563Y-54057671D01*
X54774372Y-53880325D01*
X54849721Y-53685826D01*
X54862497Y-53617480D01*
X54888048Y-53480791D01*
X54888048Y-53272205D01*
X54868885Y-53169687D01*
X54849721Y-53067169D01*
X54774372Y-52872670D01*
X54664563Y-52695324D01*
X54524043Y-52541180D01*
X54357584Y-52415476D01*
X54170868Y-52322503D01*
X54017525Y-52278874D01*
X53966520Y-52249948D01*
X53934508Y-52200820D01*
X53928648Y-52142477D01*
X53950251Y-52087964D01*
X53994485Y-52049472D01*
X54051459Y-52035608D01*
X54513661Y-52035608D01*
X54561994Y-52045416D01*
X54602682Y-52073287D01*
X54629288Y-52114812D01*
X54667688Y-52213936D01*
X54777495Y-52391279D01*
X54918018Y-52545426D01*
X55084473Y-52671127D01*
X55084475Y-52671127D01*
X55084476Y-52671129D01*
X55271192Y-52764102D01*
X55471813Y-52821184D01*
X55557630Y-52829136D01*
X55679511Y-52840430D01*
X55887207Y-52821184D01*
X55887210Y-52821184D01*
X56087831Y-52764102D01*
X56274547Y-52671129D01*
X56387419Y-52585892D01*
X56387419Y-53329944D01*
X56179721Y-53349189D01*
X55979100Y-53406271D01*
X55792384Y-53499244D01*
X55625925Y-53624948D01*
X55485405Y-53779092D01*
X55485404Y-53779094D01*
X55485403Y-53779095D01*
X55375596Y-53956438D01*
X55300246Y-54150939D01*
X55261919Y-54355973D01*
X55261919Y-54564557D01*
X55261919Y-54564559D01*
X55300246Y-54769593D01*
X55375596Y-54964094D01*
X55485403Y-55141437D01*
X55625926Y-55295584D01*
X55792381Y-55421285D01*
X55792383Y-55421285D01*
X55792384Y-55421287D01*
X55979100Y-55514260D01*
X56179721Y-55571342D01*
X56269609Y-55579671D01*
X56387419Y-55590588D01*
X56595115Y-55571342D01*
X56595118Y-55571342D01*
X56795739Y-55514260D01*
X56982455Y-55421287D01*
X57148914Y-55295583D01*
X57289434Y-55141439D01*
X57399243Y-54964093D01*
X57474592Y-54769594D01*
X57487368Y-54701248D01*
X57512919Y-54564559D01*
X57512919Y-54355973D01*
X57493756Y-54253455D01*
X57474592Y-54150937D01*
X57399243Y-53956438D01*
X57289434Y-53779092D01*
X57148914Y-53624948D01*
X56982455Y-53499244D01*
X56795739Y-53406271D01*
X56595118Y-53349189D01*
X56387419Y-53329944D01*
X56387419Y-52585892D01*
X56441006Y-52545425D01*
X56581526Y-52391281D01*
X56691335Y-52213935D01*
X56766684Y-52019436D01*
X56783437Y-51929813D01*
X56805011Y-51814401D01*
X56805011Y-51605815D01*
X56787462Y-51511935D01*
X56766684Y-51400779D01*
X56691335Y-51206280D01*
X56581526Y-51028934D01*
X56441006Y-50874790D01*
X56274547Y-50749086D01*
X56087831Y-50656113D01*
X55887210Y-50599031D01*
X55679511Y-50579786D01*
X55679511Y-47077877D01*
X60266628Y-45850601D01*
X60266628Y-49782653D01*
X60039938Y-49802486D01*
X59820130Y-49861383D01*
X59613892Y-49957554D01*
X59427487Y-50088075D01*
X59266581Y-50248981D01*
X59136060Y-50435386D01*
X59136060Y-50435387D01*
X59136059Y-50435388D01*
X59039888Y-50641626D01*
X58980992Y-50861430D01*
X58973560Y-50946384D01*
X58966127Y-51031336D01*
X58966127Y-51031338D01*
X58966127Y-51144906D01*
X58966127Y-51144908D01*
X58972073Y-51212869D01*
X58980992Y-51314814D01*
X59039888Y-51534618D01*
X59120258Y-51706969D01*
X59131322Y-51771066D01*
X59108418Y-51831947D01*
X59057846Y-51872857D01*
X58993523Y-51882539D01*
X58933150Y-51858327D01*
X58899421Y-51832856D01*
X58712702Y-51739881D01*
X58512081Y-51682799D01*
X58304382Y-51663554D01*
X58096684Y-51682799D01*
X57896063Y-51739881D01*
X57709347Y-51832854D01*
X57542888Y-51958558D01*
X57402368Y-52112702D01*
X57402367Y-52112704D01*
X57402366Y-52112705D01*
X57292559Y-52290048D01*
X57217209Y-52484549D01*
X57178882Y-52689583D01*
X57178882Y-52898167D01*
X57178882Y-52898169D01*
X57217209Y-53103203D01*
X57292559Y-53297704D01*
X57402366Y-53475047D01*
X57542889Y-53629194D01*
X57709344Y-53754895D01*
X57709346Y-53754895D01*
X57709347Y-53754897D01*
X57896063Y-53847870D01*
X58096684Y-53904952D01*
X58164026Y-53911192D01*
X58304382Y-53924198D01*
X58512078Y-53904952D01*
X58512081Y-53904952D01*
X58712702Y-53847870D01*
X58899418Y-53754897D01*
X59065877Y-53629193D01*
X59206397Y-53475049D01*
X59316206Y-53297703D01*
X59391555Y-53103204D01*
X59404331Y-53034858D01*
X59429882Y-52898169D01*
X59429882Y-52689583D01*
X59391555Y-52484549D01*
X59381028Y-52457376D01*
X59314787Y-52286386D01*
X59307639Y-52224209D01*
X59331768Y-52166460D01*
X59381028Y-52127852D01*
X59442869Y-52118220D01*
X59501537Y-52140018D01*
X59613893Y-52218690D01*
X59820131Y-52314861D01*
X60039935Y-52373757D01*
X60266627Y-52393590D01*
X60493319Y-52373757D01*
X60713123Y-52314861D01*
X60919361Y-52218690D01*
X61069279Y-52113717D01*
X61105768Y-52088168D01*
X61266674Y-51927262D01*
X61397195Y-51740857D01*
X61493366Y-51534619D01*
X61552263Y-51314811D01*
X61567127Y-51144908D01*
X61567127Y-51144906D01*
X61567127Y-51031338D01*
X61567127Y-51031336D01*
X61552263Y-50861432D01*
X61493366Y-50641624D01*
X61397195Y-50435386D01*
X61266674Y-50248981D01*
X61105768Y-50088075D01*
X60919363Y-49957554D01*
X60713125Y-49861383D01*
X60493317Y-49802486D01*
X60266628Y-49782653D01*
X60266628Y-45850601D01*
X67288433Y-43971928D01*
X67288433Y-47631382D01*
X67037284Y-47651148D01*
X66792323Y-47709957D01*
X66675948Y-47758161D01*
X66559574Y-47806365D01*
X66344774Y-47937995D01*
X66153209Y-48101607D01*
X65989597Y-48293172D01*
X65857967Y-48507972D01*
X65761560Y-48740720D01*
X65702750Y-48985683D01*
X65682984Y-49236831D01*
X65702750Y-49487979D01*
X65761560Y-49732942D01*
X65857967Y-49965690D01*
X65989597Y-50180490D01*
X66153209Y-50372055D01*
X66344774Y-50535667D01*
X66559574Y-50667297D01*
X66792322Y-50763704D01*
X67037285Y-50822514D01*
X67288433Y-50842280D01*
X67539581Y-50822514D01*
X67784544Y-50763704D01*
X68017292Y-50667297D01*
X68232092Y-50535667D01*
X68423657Y-50372055D01*
X68587269Y-50180490D01*
X68718899Y-49965690D01*
X68767103Y-49849315D01*
X68815307Y-49732941D01*
X68874116Y-49487980D01*
X68893882Y-49236831D01*
X68874116Y-48985681D01*
X68815307Y-48740720D01*
X68733017Y-48542055D01*
X68722031Y-48515534D01*
X68718898Y-48507970D01*
X68587270Y-48293173D01*
X68423657Y-48101607D01*
X68232091Y-47937994D01*
X68017294Y-47806366D01*
X67784544Y-47709957D01*
X67539583Y-47651148D01*
X67288433Y-47631382D01*
X67288433Y-43971928D01*
X68258116Y-43712491D01*
X68322432Y-43712551D01*
X68378069Y-43744824D01*
X68410053Y-43800627D01*
X68409782Y-43864945D01*
X67622682Y-46747077D01*
X67622370Y-46748194D01*
X67610280Y-46790564D01*
X67612162Y-46801463D01*
X67613857Y-46827786D01*
X67613390Y-46838832D01*
X67616293Y-46845572D01*
X67624597Y-46873527D01*
X67625844Y-46880756D01*
X67632271Y-46889764D01*
X67645212Y-46912731D01*
X67649588Y-46922895D01*
X67655122Y-46927702D01*
X67674737Y-46949292D01*
X67678997Y-46955265D01*
X67688693Y-46960590D01*
X67710328Y-46975676D01*
X67718672Y-46982927D01*
X67718672Y-46982926D01*
X67718674Y-46982929D01*
X67761271Y-46994560D01*
X67762235Y-46994830D01*
X70694743Y-47831528D01*
X70718956Y-47843113D01*
X70724552Y-47844049D01*
X70724553Y-47844050D01*
X70751713Y-47848592D01*
X70765270Y-47851650D01*
X70769478Y-47852852D01*
X70773852Y-47853086D01*
X70787662Y-47854606D01*
X70814824Y-47859151D01*
X70814826Y-47859150D01*
X70820418Y-47860086D01*
X70832500Y-47858694D01*
X70837735Y-47856510D01*
X70863155Y-47845904D01*
X70876265Y-47841279D01*
X70880457Y-47840059D01*
X70880458Y-47840059D01*
X70884273Y-47837937D01*
X70896786Y-47831871D01*
X70922203Y-47821267D01*
X70922204Y-47821265D01*
X70927436Y-47819083D01*
X70948388Y-47802288D01*
X75175583Y-45451817D01*
X75221642Y-45437006D01*
X75269864Y-45440949D01*
X75273833Y-45442082D01*
X79050830Y-46519726D01*
X79050830Y-50942469D01*
X78871579Y-50962666D01*
X78871577Y-50962666D01*
X78871575Y-50962667D01*
X78701308Y-51022246D01*
X78610963Y-51079013D01*
X78548566Y-51118220D01*
X78421016Y-51245770D01*
X78421015Y-51245772D01*
X78421014Y-51245773D01*
X78325041Y-51398513D01*
X78265462Y-51568780D01*
X78257896Y-51635930D01*
X78250330Y-51703078D01*
X78250330Y-51703081D01*
X78250330Y-51792989D01*
X78250330Y-51792992D01*
X78256816Y-51850546D01*
X78265462Y-51927290D01*
X78325041Y-52097557D01*
X78421014Y-52250297D01*
X78548568Y-52377851D01*
X78701308Y-52473824D01*
X78871575Y-52533403D01*
X79050830Y-52553600D01*
X79230085Y-52533403D01*
X79400352Y-52473824D01*
X79553092Y-52377851D01*
X79553093Y-52377850D01*
X79553095Y-52377849D01*
X79680645Y-52250299D01*
X79719851Y-52187902D01*
X79776619Y-52097557D01*
X79836198Y-51927290D01*
X79836199Y-51927288D01*
X79836199Y-51927286D01*
X79851330Y-51792992D01*
X79851330Y-51792989D01*
X79851330Y-51703081D01*
X79851330Y-51703078D01*
X79836199Y-51568783D01*
X79836199Y-51568780D01*
X79836198Y-51568780D01*
X79776619Y-51398513D01*
X79776619Y-51398511D01*
X79776618Y-51398511D01*
X79680645Y-51245770D01*
X79553095Y-51118220D01*
X79400354Y-51022247D01*
X79230082Y-50962666D01*
X79050830Y-50942469D01*
X79050830Y-46519726D01*
X85589229Y-48385246D01*
X85632270Y-48407342D01*
X85663578Y-48444226D01*
X86052343Y-49143399D01*
X86052343Y-53902546D01*
X85798189Y-53921592D01*
X85589228Y-53969286D01*
X85549706Y-53978307D01*
X85312455Y-54071422D01*
X85091731Y-54198857D01*
X84892466Y-54357765D01*
X84892464Y-54357767D01*
X84892463Y-54357768D01*
X84719115Y-54544592D01*
X84719114Y-54544594D01*
X84719110Y-54544598D01*
X84575537Y-54755182D01*
X84464953Y-54984811D01*
X84389829Y-55228358D01*
X84351842Y-55480381D01*
X84351842Y-55735251D01*
X84389829Y-55987274D01*
X84464953Y-56230821D01*
X84575537Y-56460451D01*
X84719110Y-56671034D01*
X84892466Y-56857867D01*
X85091731Y-57016775D01*
X85312455Y-57144210D01*
X85549706Y-57237325D01*
X85798186Y-57294039D01*
X86052343Y-57313085D01*
X86306500Y-57294039D01*
X86554980Y-57237325D01*
X86792231Y-57144210D01*
X87012955Y-57016775D01*
X87212220Y-56857867D01*
X87226348Y-56842641D01*
X87385575Y-56671036D01*
X87455779Y-56568065D01*
X87529149Y-56460451D01*
X87639733Y-56230821D01*
X87714857Y-55987274D01*
X87752844Y-55735251D01*
X87752844Y-55480381D01*
X87714857Y-55228358D01*
X87639733Y-54984811D01*
X87529149Y-54755182D01*
X87414242Y-54586642D01*
X87385572Y-54544592D01*
X87212224Y-54357768D01*
X87012954Y-54198856D01*
X86792232Y-54071422D01*
X86554981Y-53978307D01*
X86306498Y-53921592D01*
X86052343Y-53902546D01*
X86052343Y-49143399D01*
X88014049Y-52671422D01*
X88022981Y-52696743D01*
X88042265Y-52723773D01*
X88049694Y-52735529D01*
X88051818Y-52739350D01*
X88054736Y-52742597D01*
X88063431Y-52753441D01*
X88079429Y-52775869D01*
X88079432Y-52775870D01*
X88082731Y-52780496D01*
X88092244Y-52788042D01*
X88122960Y-52800672D01*
X88135519Y-52806681D01*
X88139338Y-52808779D01*
X88139339Y-52808780D01*
X88143558Y-52809983D01*
X88156676Y-52814535D01*
X88182145Y-52825009D01*
X88182148Y-52825008D01*
X88187396Y-52827167D01*
X88214081Y-52830104D01*
X89382825Y-53163568D01*
X89382839Y-53163574D01*
X89430418Y-53177148D01*
X89442139Y-53181133D01*
X89573126Y-53233126D01*
X89595098Y-53244504D01*
X89707922Y-53318060D01*
X89727186Y-53333565D01*
X89823171Y-53428073D01*
X89838966Y-53447088D01*
X89914267Y-53558763D01*
X89925979Y-53580547D01*
X89977605Y-53704949D01*
X89984759Y-53728625D01*
X90010656Y-53860812D01*
X90012964Y-53885429D01*
X90012097Y-54020106D01*
G37*
%TD.AperFunction*%
M02*
