%TF.GenerationSoftware,KiCad,Pcbnew,(7.0.0)*%
%TF.CreationDate,2023-05-27T11:58:37+01:00*%
%TF.ProjectId,all,616c6c2e-6b69-4636-9164-5f7063625858,rev?*%
%TF.SameCoordinates,Original*%
%TF.FileFunction,Soldermask,Top*%
%TF.FilePolarity,Negative*%
%FSLAX46Y46*%
G04 Gerber Fmt 4.6, Leading zero omitted, Abs format (unit mm)*
G04 Created by KiCad (PCBNEW (7.0.0)) date 2023-05-27 11:58:37*
%MOMM*%
%LPD*%
G01*
G04 APERTURE LIST*
G04 Aperture macros list*
%AMRoundRect*
0 Rectangle with rounded corners*
0 $1 Rounding radius*
0 $2 $3 $4 $5 $6 $7 $8 $9 X,Y pos of 4 corners*
0 Add a 4 corners polygon primitive as box body*
4,1,4,$2,$3,$4,$5,$6,$7,$8,$9,$2,$3,0*
0 Add four circle primitives for the rounded corners*
1,1,$1+$1,$2,$3*
1,1,$1+$1,$4,$5*
1,1,$1+$1,$6,$7*
1,1,$1+$1,$8,$9*
0 Add four rect primitives between the rounded corners*
20,1,$1+$1,$2,$3,$4,$5,0*
20,1,$1+$1,$4,$5,$6,$7,0*
20,1,$1+$1,$6,$7,$8,$9,0*
20,1,$1+$1,$8,$9,$2,$3,0*%
G04 Aperture macros list end*
%ADD10RoundRect,0.150000X-0.624737X0.151091X-0.625261X-0.148909X0.624737X-0.151091X0.625261X0.148909X0*%
%ADD11RoundRect,0.250000X-0.649388X0.351134X-0.650610X-0.348865X0.649388X-0.351134X0.650610X0.348865X0*%
%ADD12C,1.000000*%
%ADD13C,2.100000*%
%ADD14C,2.500000*%
%ADD15C,1.750000*%
%ADD16C,1.100000*%
%ADD17RoundRect,0.160000X0.160000X-0.197500X0.160000X0.197500X-0.160000X0.197500X-0.160000X-0.197500X0*%
%ADD18RoundRect,0.237500X0.237500X-0.287500X0.237500X0.287500X-0.237500X0.287500X-0.237500X-0.287500X0*%
%ADD19RoundRect,0.155000X-0.212500X-0.155000X0.212500X-0.155000X0.212500X0.155000X-0.212500X0.155000X0*%
%ADD20R,0.300000X1.600000*%
%ADD21R,0.900000X1.000000*%
%ADD22RoundRect,0.155000X0.212500X0.155000X-0.212500X0.155000X-0.212500X-0.155000X0.212500X-0.155000X0*%
%ADD23RoundRect,0.160000X0.197500X0.160000X-0.197500X0.160000X-0.197500X-0.160000X0.197500X-0.160000X0*%
%ADD24RoundRect,0.155000X-0.155000X0.212500X-0.155000X-0.212500X0.155000X-0.212500X0.155000X0.212500X0*%
%ADD25RoundRect,0.155000X0.155000X-0.212500X0.155000X0.212500X-0.155000X0.212500X-0.155000X-0.212500X0*%
%ADD26RoundRect,0.160000X-0.160000X0.197500X-0.160000X-0.197500X0.160000X-0.197500X0.160000X0.197500X0*%
%ADD27RoundRect,0.160000X-0.197500X-0.160000X0.197500X-0.160000X0.197500X0.160000X-0.197500X0.160000X0*%
%ADD28RoundRect,0.218750X-0.256250X0.218750X-0.256250X-0.218750X0.256250X-0.218750X0.256250X0.218750X0*%
%ADD29R,0.304800X1.397000*%
%ADD30R,2.641600X2.311400*%
%ADD31C,1.600000*%
%ADD32C,3.000000*%
%ADD33C,2.700000*%
%ADD34C,0.650000*%
%ADD35C,0.900000*%
%ADD36R,0.609600X1.524000*%
%ADD37R,0.812800X1.803400*%
G04 APERTURE END LIST*
D10*
%TO.C,J6*%
X49099638Y-73834107D03*
X49097892Y-74834106D03*
D11*
X51626903Y-72538516D03*
X51620620Y-76138511D03*
%TD*%
D12*
%TO.C,TP12*%
X45722494Y-59938771D03*
%TD*%
%TO.C,TP15*%
X45722494Y-62438771D03*
%TD*%
%TO.C,TP9*%
X48222495Y-69938771D03*
%TD*%
%TO.C,TP6*%
X41770457Y-84926656D03*
%TD*%
%TO.C,TP7*%
X48222495Y-67438771D03*
%TD*%
%TO.C,TP3*%
X41761881Y-77086893D03*
%TD*%
%TO.C,TP18*%
X47670457Y-84426656D03*
%TD*%
%TO.C,TP17*%
X47670457Y-81926656D03*
%TD*%
%TO.C,TP13*%
X48222495Y-65038771D03*
%TD*%
%TO.C,TP16*%
X45722494Y-64938771D03*
%TD*%
%TO.C,TP8*%
X48222495Y-59938771D03*
%TD*%
%TO.C,TP11*%
X45722494Y-67438771D03*
%TD*%
D13*
%TO.C,J5*%
X60266627Y-51088122D03*
D14*
X51800303Y-55082252D03*
D15*
X54470457Y-56126656D03*
X53762548Y-53376498D03*
X56387419Y-54460266D03*
X55679511Y-51710108D03*
X58304382Y-52793876D03*
X57596473Y-50043718D03*
%TD*%
D16*
%TO.C,SW1*%
X77955060Y-55595019D03*
X79050830Y-51748035D03*
%TD*%
D12*
%TO.C,TP10*%
X45722494Y-69938771D03*
%TD*%
D17*
%TO.C,R4*%
X48970457Y-79624156D03*
X48970457Y-78429156D03*
%TD*%
D12*
%TO.C,TP2*%
X41761881Y-79586893D03*
%TD*%
%TO.C,TP14*%
X48222495Y-62438771D03*
%TD*%
%TO.C,TP20*%
X50170457Y-84426656D03*
%TD*%
%TO.C,TP4*%
X41761881Y-74586892D03*
%TD*%
%TO.C,TP5*%
X44170457Y-84926656D03*
%TD*%
%TO.C,TP1*%
X41761881Y-82086892D03*
%TD*%
%TO.C,TP19*%
X50170457Y-81926656D03*
%TD*%
D18*
%TO.C,D1*%
X46870457Y-79901656D03*
X46870457Y-78151656D03*
%TD*%
D19*
%TO.C,C16*%
X133198500Y-82614000D03*
X134333500Y-82614000D03*
%TD*%
D12*
%TO.C,J11*%
X134400000Y-47050000D03*
%TD*%
D20*
%TO.C,J23*%
X138899999Y-77799999D03*
X139399999Y-77799999D03*
X139899999Y-77799999D03*
X140399999Y-77799999D03*
X140899999Y-77799999D03*
X141399999Y-77799999D03*
X141899999Y-77799999D03*
X138899999Y-74199999D03*
X139399999Y-74199999D03*
X139899999Y-74199999D03*
X140399999Y-74199999D03*
X140899999Y-74199999D03*
X141399999Y-74199999D03*
X141899999Y-74199999D03*
%TD*%
D12*
%TO.C,J12*%
X133105627Y-44890795D03*
%TD*%
%TO.C,J20*%
X125892000Y-47308000D03*
%TD*%
D21*
%TO.C,SW2*%
X127649999Y-54749999D03*
X123549999Y-54749999D03*
X127649999Y-53149999D03*
X123549999Y-53149999D03*
%TD*%
D22*
%TO.C,C77*%
X144098000Y-55040500D03*
X142963000Y-55040500D03*
%TD*%
D23*
%TO.C,R47*%
X128047500Y-84650000D03*
X126852500Y-84650000D03*
%TD*%
D12*
%TO.C,J9*%
X131900000Y-47050000D03*
%TD*%
D24*
%TO.C,C78*%
X126400000Y-49026500D03*
X126400000Y-50161500D03*
%TD*%
%TO.C,C10*%
X132500000Y-72332500D03*
X132500000Y-73467500D03*
%TD*%
D12*
%TO.C,J21*%
X127162000Y-44890795D03*
%TD*%
%TO.C,J15*%
X138105627Y-44890795D03*
%TD*%
D25*
%TO.C,C58*%
X122050000Y-75017500D03*
X122050000Y-73882500D03*
%TD*%
D12*
%TO.C,J6*%
X114700000Y-87650000D03*
%TD*%
D24*
%TO.C,C79*%
X127983500Y-49026500D03*
X127983500Y-50161500D03*
%TD*%
D22*
%TO.C,C75*%
X144067500Y-67150000D03*
X142932500Y-67150000D03*
%TD*%
D17*
%TO.C,R7*%
X131750000Y-78745000D03*
X131750000Y-77550000D03*
%TD*%
D26*
%TO.C,R2*%
X150530500Y-53193000D03*
X150530500Y-54388000D03*
%TD*%
D24*
%TO.C,C13*%
X133252500Y-74815000D03*
X133252500Y-75950000D03*
%TD*%
D17*
%TO.C,R43*%
X128202500Y-83047500D03*
X128202500Y-81852500D03*
%TD*%
D26*
%TO.C,R73*%
X123352000Y-48996500D03*
X123352000Y-50191500D03*
%TD*%
%TO.C,R72*%
X124876000Y-48996500D03*
X124876000Y-50191500D03*
%TD*%
D24*
%TO.C,C14*%
X133000000Y-77580000D03*
X133000000Y-78715000D03*
%TD*%
D17*
%TO.C,R4*%
X151650000Y-71050000D03*
X151650000Y-69855000D03*
%TD*%
D24*
%TO.C,C4*%
X143092500Y-51557000D03*
X143092500Y-52692000D03*
%TD*%
D12*
%TO.C,J14*%
X135605627Y-44890795D03*
%TD*%
D23*
%TO.C,R5*%
X144128000Y-58790500D03*
X142933000Y-58790500D03*
%TD*%
D25*
%TO.C,C1*%
X141700000Y-61585000D03*
X141700000Y-60450000D03*
%TD*%
D17*
%TO.C,R74*%
X142700000Y-65747500D03*
X142700000Y-64552500D03*
%TD*%
D19*
%TO.C,C6*%
X150332500Y-68452500D03*
X151467500Y-68452500D03*
%TD*%
D12*
%TO.C,J8*%
X122971000Y-47054000D03*
%TD*%
D27*
%TO.C,R1*%
X148933000Y-61290500D03*
X150128000Y-61290500D03*
%TD*%
D12*
%TO.C,J7*%
X121701000Y-44895000D03*
%TD*%
%TO.C,J13*%
X136900000Y-47050000D03*
%TD*%
D25*
%TO.C,C9*%
X131000000Y-73467500D03*
X131000000Y-72332500D03*
%TD*%
D24*
%TO.C,C54*%
X123450000Y-73882500D03*
X123450000Y-75017500D03*
%TD*%
%TO.C,C49*%
X127352500Y-79282500D03*
X127352500Y-80417500D03*
%TD*%
%TO.C,C15*%
X135650000Y-81284500D03*
X135650000Y-82419500D03*
%TD*%
D22*
%TO.C,C47*%
X123305165Y-72450000D03*
X122170165Y-72450000D03*
%TD*%
D25*
%TO.C,C12*%
X130252500Y-75917500D03*
X130252500Y-74782500D03*
%TD*%
D26*
%TO.C,R6*%
X130500000Y-77550000D03*
X130500000Y-78745000D03*
%TD*%
D12*
%TO.C,J10*%
X130629627Y-44890795D03*
%TD*%
D20*
%TO.C,J24*%
X116899999Y-76949999D03*
X116399999Y-76949999D03*
X115899999Y-76949999D03*
X115399999Y-76949999D03*
X114899999Y-76949999D03*
X114399999Y-76949999D03*
X113899999Y-76949999D03*
X116899999Y-80549999D03*
X116399999Y-80549999D03*
X115899999Y-80549999D03*
X115399999Y-80549999D03*
X114899999Y-80549999D03*
X114399999Y-80549999D03*
X113899999Y-80549999D03*
%TD*%
D17*
%TO.C,R42*%
X126000000Y-77847500D03*
X126000000Y-76652500D03*
%TD*%
%TO.C,R44*%
X127352500Y-77847500D03*
X127352500Y-76652500D03*
%TD*%
D24*
%TO.C,C5*%
X145342500Y-51557000D03*
X145342500Y-52692000D03*
%TD*%
D26*
%TO.C,R10*%
X134000000Y-72302500D03*
X134000000Y-73497500D03*
%TD*%
D19*
%TO.C,C8*%
X145732500Y-64834000D03*
X146867500Y-64834000D03*
%TD*%
D24*
%TO.C,C43*%
X124750000Y-76682500D03*
X124750000Y-77817500D03*
%TD*%
D12*
%TO.C,J18*%
X140605627Y-44890795D03*
%TD*%
%TO.C,J17*%
X139400000Y-47050000D03*
%TD*%
D25*
%TO.C,C17*%
X134247500Y-81417500D03*
X134247500Y-80282500D03*
%TD*%
D17*
%TO.C,R53*%
X123702500Y-83047500D03*
X123702500Y-81852500D03*
%TD*%
D12*
%TO.C,J19*%
X128432000Y-47308000D03*
%TD*%
D25*
%TO.C,C7*%
X145700000Y-67179500D03*
X145700000Y-66044500D03*
%TD*%
D24*
%TO.C,C11*%
X131750000Y-74832500D03*
X131750000Y-75967500D03*
%TD*%
D27*
%TO.C,R8*%
X129652500Y-70850000D03*
X130847500Y-70850000D03*
%TD*%
D25*
%TO.C,C76*%
X143100000Y-70017500D03*
X143100000Y-68882500D03*
%TD*%
D28*
%TO.C,D1*%
X150280500Y-58253000D03*
X150280500Y-59828000D03*
%TD*%
D25*
%TO.C,C52*%
X124552500Y-80385000D03*
X124552500Y-79250000D03*
%TD*%
D27*
%TO.C,R9*%
X132652500Y-70850000D03*
X133847500Y-70850000D03*
%TD*%
D12*
%TO.C,J4*%
X118700000Y-91250000D03*
%TD*%
D26*
%TO.C,R11*%
X129500000Y-72302500D03*
X129500000Y-73497500D03*
%TD*%
D25*
%TO.C,C50*%
X125952500Y-80417500D03*
X125952500Y-79282500D03*
%TD*%
D19*
%TO.C,C3*%
X142963000Y-57540500D03*
X144098000Y-57540500D03*
%TD*%
D23*
%TO.C,R3*%
X149378000Y-54290500D03*
X148183000Y-54290500D03*
%TD*%
%TO.C,R49*%
X125047500Y-84650000D03*
X123852500Y-84650000D03*
%TD*%
D12*
%TO.C,J16*%
X141900000Y-47050000D03*
%TD*%
%TO.C,J3*%
X120450000Y-93000000D03*
%TD*%
D24*
%TO.C,C48*%
X126702500Y-81882500D03*
X126702500Y-83017500D03*
%TD*%
D17*
%TO.C,R75*%
X144100000Y-65747500D03*
X144100000Y-64552500D03*
%TD*%
D19*
%TO.C,C2*%
X142963000Y-56290500D03*
X144098000Y-56290500D03*
%TD*%
D29*
%TO.C,J1*%
X126650000Y-91204499D03*
X127149999Y-91204499D03*
X127650000Y-91204499D03*
X128149999Y-91204499D03*
X128650001Y-91204499D03*
X129150000Y-91204499D03*
X129649999Y-91204499D03*
X130150001Y-91204499D03*
X130649999Y-91204499D03*
X131150001Y-91204499D03*
X131650000Y-91204499D03*
X132149999Y-91204499D03*
X132650001Y-91204499D03*
X133150000Y-91204499D03*
X133650001Y-91204499D03*
X134150000Y-91204499D03*
X134649999Y-91204499D03*
X135150001Y-91204499D03*
D30*
X136932499Y-92449099D03*
X124867499Y-92449099D03*
%TD*%
D12*
%TO.C,J22*%
X124622000Y-44890795D03*
%TD*%
D25*
%TO.C,C56*%
X125202500Y-83017500D03*
X125202500Y-81882500D03*
%TD*%
D12*
%TO.C,J5*%
X116700000Y-89450000D03*
%TD*%
D31*
%TO.C,J2*%
X66746466Y-84214810D03*
X67568540Y-78271394D03*
D32*
X69538018Y-82279032D03*
X64187836Y-84466621D03*
X65133221Y-77631693D03*
D33*
X70035519Y-76492626D03*
%TD*%
D34*
%TO.C,J1*%
X83196359Y-83199972D03*
X77635041Y-84774820D03*
%TD*%
D35*
%TO.C,SW2*%
X97682411Y-70815793D03*
X94210501Y-74413825D03*
%TD*%
D23*
%TO.C,R5*%
X73843956Y-77214809D03*
X72648956Y-77214809D03*
%TD*%
D36*
%TO.C,J3*%
X67846455Y-74014808D03*
X68346454Y-71322408D03*
X68846453Y-74014808D03*
X69346454Y-71322408D03*
X69846453Y-74014808D03*
X70346455Y-71322408D03*
X70846454Y-74014808D03*
X71346453Y-71322408D03*
X71846454Y-74014808D03*
X72346454Y-71322408D03*
X72846452Y-74014808D03*
X73346454Y-71322408D03*
X73846453Y-74014808D03*
X74346455Y-71322408D03*
X74846454Y-74014808D03*
X75346453Y-71322408D03*
X75846454Y-74014808D03*
X76346453Y-71322408D03*
D37*
X77341554Y-71322408D03*
X66851354Y-71322408D03*
X77341554Y-74014808D03*
X66851354Y-74014808D03*
%TD*%
M02*
