M48
; DRILL file {KiCad (7.0.0)} date Sat May 27 10:46:10 2023
; FORMAT={-:-/ absolute / inch / decimal}
; #@! TF.CreationDate,2023-05-27T10:46:10+01:00
; #@! TF.GenerationSoftware,Kicad,Pcbnew,(7.0.0)
; #@! TF.FileFunction,Plated,1,2,PTH
FMAT,2
INCH
; #@! TA.AperFunction,Plated,PTH,ViaDrill
T1C0.0157
; #@! TA.AperFunction,Plated,PTH,ComponentDrill
T2C0.0591
; #@! TA.AperFunction,Plated,PTH,ComponentDrill
T3C0.0787
%
G90
G05
T1
X3.8228Y-2.9488
X3.8307Y-2.7835
X3.8622Y-2.6339
X3.9409Y-3.0512
X4.0197Y-2.6339
X4.0236Y-2.8504
X4.0276Y-2.7441
X4.1063Y-2.937
X4.1417Y-3.0906
X4.1535Y-2.7913
X4.1575Y-2.6457
X4.2008Y-2.7913
X4.2126Y-3.3268
X4.2835Y-3.0236
X4.2874Y-3.189
X4.2953Y-3.374
X4.3257Y-2.9184
X4.3268Y-2.7968
X4.4055Y-3.2008
X4.4252Y-2.6929
X4.4331Y-3.0354
X4.4528Y-3.3543
X4.4685Y-2.6929
X4.4843Y-3.0945
X4.5046Y-3.1883
X4.5118Y-2.689
X4.5276Y-2.9134
X4.5394Y-2.7953
X4.5551Y-3.4213
X4.5709Y-2.9282
X4.5739Y-3.0108
X4.5787Y-2.874
X4.5945Y-2.6299
X4.6142Y-2.7913
X4.6299Y-3.0472
X4.6299Y-3.126
X4.6496Y-2.9843
X4.6958Y-3.1304
X4.7835Y-3.3543
X4.7953Y-3.0945
X4.8307Y-2.8307
X4.8346Y-2.9882
X4.8386Y-3.2441
X4.9134Y-3.1772
X4.9921Y-2.7992
X5.0079Y-2.9882
X5.0751Y-2.7989
X5.0787Y-2.6181
X5.0827Y-3.0039
X5.1024Y-2.7362
X5.1417Y-2.4606
X5.1693Y-2.311
X5.185Y-2.122
X5.2084Y-2.7281
X5.2175Y-2.6152
X5.252Y-2.4921
X5.2559Y-1.9173
X5.2677Y-2.8228
X5.2795Y-2.5669
X5.3071Y-2.3031
X5.315Y-2.1811
X5.3504Y-1.9646
X5.3711Y-2.5562
X5.3858Y-2.2087
X5.3898Y-2.3071
X5.3898Y-2.437
X5.4055Y-2.063
X5.4331Y-2.622
X5.4488Y-2.0276
X5.4646Y-2.2362
X5.4685Y-2.4724
X5.5197Y-2.252
X5.5394Y-2.0827
X5.5551Y-1.9488
T2
X4.22Y-2.9479
T3
X3.9898Y-3.2619
X4.027Y-2.9928
X4.2005Y-3.1758
T0
M30
