%TF.GenerationSoftware,KiCad,Pcbnew,(7.0.0)*%
%TF.CreationDate,2023-05-27T10:45:59+01:00*%
%TF.ProjectId,left_connectors,6c656674-5f63-46f6-9e6e-6563746f7273,rev?*%
%TF.SameCoordinates,Original*%
%TF.FileFunction,Copper,L1,Top*%
%TF.FilePolarity,Positive*%
%FSLAX46Y46*%
G04 Gerber Fmt 4.6, Leading zero omitted, Abs format (unit mm)*
G04 Created by KiCad (PCBNEW (7.0.0)) date 2023-05-27 10:45:59*
%MOMM*%
%LPD*%
G01*
G04 APERTURE LIST*
G04 Aperture macros list*
%AMRoundRect*
0 Rectangle with rounded corners*
0 $1 Rounding radius*
0 $2 $3 $4 $5 $6 $7 $8 $9 X,Y pos of 4 corners*
0 Add a 4 corners polygon primitive as box body*
4,1,4,$2,$3,$4,$5,$6,$7,$8,$9,$2,$3,0*
0 Add four circle primitives for the rounded corners*
1,1,$1+$1,$2,$3*
1,1,$1+$1,$4,$5*
1,1,$1+$1,$6,$7*
1,1,$1+$1,$8,$9*
0 Add four rect primitives between the rounded corners*
20,1,$1+$1,$2,$3,$4,$5,0*
20,1,$1+$1,$4,$5,$6,$7,0*
20,1,$1+$1,$6,$7,$8,$9,0*
20,1,$1+$1,$8,$9,$2,$3,0*%
G04 Aperture macros list end*
%TA.AperFunction,SMDPad,CuDef*%
%ADD10R,0.609600X1.524000*%
%TD*%
%TA.AperFunction,SMDPad,CuDef*%
%ADD11R,0.812800X1.803400*%
%TD*%
%TA.AperFunction,SMDPad,CuDef*%
%ADD12RoundRect,0.160000X0.197500X0.160000X-0.197500X0.160000X-0.197500X-0.160000X0.197500X-0.160000X0*%
%TD*%
%TA.AperFunction,ComponentPad*%
%ADD13C,3.000000*%
%TD*%
%TA.AperFunction,ComponentPad*%
%ADD14C,2.700000*%
%TD*%
%TA.AperFunction,ViaPad*%
%ADD15C,0.800000*%
%TD*%
%TA.AperFunction,Conductor*%
%ADD16C,0.150000*%
%TD*%
%TA.AperFunction,Conductor*%
%ADD17C,0.500000*%
%TD*%
%TA.AperFunction,Conductor*%
%ADD18C,0.250000*%
%TD*%
%TA.AperFunction,Conductor*%
%ADD19C,0.400000*%
%TD*%
G04 APERTURE END LIST*
D10*
%TO.P,J3,1,Pin_1*%
%TO.N,GNDA*%
X104999999Y-72399999D03*
%TO.P,J3,2,Pin_2*%
%TO.N,/audio_in_L*%
X105499998Y-69707599D03*
%TO.P,J3,3,Pin_3*%
%TO.N,/audio_in_R*%
X105999997Y-72399999D03*
%TO.P,J3,4,Pin_4*%
%TO.N,/audio_in_detect*%
X106499998Y-69707599D03*
%TO.P,J3,5,Pin_5*%
%TO.N,unconnected-(J3-Pin_5-Pad5)*%
X106999997Y-72399999D03*
%TO.P,J3,6,Pin_6*%
%TO.N,unconnected-(J3-Pin_6-Pad6)*%
X107499999Y-69707599D03*
%TO.P,J3,7,Pin_7*%
%TO.N,unconnected-(J3-Pin_7-Pad7)*%
X107999998Y-72399999D03*
%TO.P,J3,8,Pin_8*%
%TO.N,unconnected-(J3-Pin_8-Pad8)*%
X108499997Y-69707599D03*
%TO.P,J3,9,Pin_9*%
%TO.N,/USB_D+*%
X108999998Y-72399999D03*
%TO.P,J3,10,Pin_10*%
%TO.N,/USB_D-*%
X109499998Y-69707599D03*
%TO.P,J3,11,Pin_11*%
%TO.N,/LEDs_data_in*%
X109999996Y-72399999D03*
%TO.P,J3,12,Pin_12*%
%TO.N,/ANC_PBO*%
X110499998Y-69707599D03*
%TO.P,J3,13,Pin_13*%
%TO.N,/ANC_OFF*%
X110999997Y-72399999D03*
%TO.P,J3,14,Pin_14*%
%TO.N,/ANC_ON*%
X111499999Y-69707599D03*
%TO.P,J3,15,Pin_15*%
%TO.N,/PWR_SW*%
X111999998Y-72399999D03*
%TO.P,J3,16,Pin_16*%
%TO.N,GND*%
X112499997Y-69707599D03*
%TO.P,J3,17,Pin_17*%
%TO.N,+3V3*%
X112999998Y-72399999D03*
%TO.P,J3,18,Pin_18*%
%TO.N,VBUS*%
X113499997Y-69707599D03*
D11*
%TO.P,J3,19,Pin_19*%
%TO.N,GND*%
X114495098Y-69707599D03*
%TO.P,J3,20,Pin_20*%
%TO.N,GNDA*%
X104004898Y-69707599D03*
%TO.P,J3,21,Pin_21*%
%TO.N,GND*%
X114495098Y-72399999D03*
%TO.P,J3,22,Pin_22*%
%TO.N,GNDA*%
X104004898Y-72399999D03*
%TD*%
D12*
%TO.P,R5,1*%
%TO.N,+3V3*%
X110997500Y-75600000D03*
%TO.P,R5,2*%
%TO.N,/audio_in_detect*%
X109802500Y-75600000D03*
%TD*%
D13*
%TO.P,J2,R*%
%TO.N,/audio_in_R*%
X106691562Y-80664223D03*
%TO.P,J2,S*%
%TO.N,GNDA*%
X101341380Y-82851812D03*
%TO.P,J2,T*%
%TO.N,/audio_in_L*%
X102286765Y-76016884D03*
D14*
%TO.P,J2,TN*%
%TO.N,/audio_in_detect*%
X107189063Y-74877817D03*
%TD*%
D15*
%TO.N,+3V3*%
X134100000Y-65200000D03*
X138400000Y-51500000D03*
X116100000Y-74375500D03*
X116175875Y-76474500D03*
%TO.N,GND*%
X124800000Y-80700000D03*
X131700000Y-53900000D03*
X108800000Y-76800000D03*
X116300000Y-73000000D03*
X140700000Y-52900000D03*
X112400000Y-68400000D03*
X118100000Y-75800000D03*
X112600000Y-77100000D03*
X121800000Y-78600000D03*
X115300000Y-71000000D03*
X113900000Y-78600000D03*
X135900000Y-49900000D03*
X131300000Y-58700000D03*
X117200000Y-70900000D03*
X133800000Y-71700000D03*
X122800000Y-75900000D03*
X136900000Y-61900000D03*
X111900000Y-81300000D03*
X129100000Y-76300000D03*
X109100000Y-85700000D03*
X133400000Y-63300000D03*
X113100000Y-85200000D03*
X138000000Y-66600000D03*
X115000000Y-74000000D03*
X129000000Y-66500000D03*
X138900000Y-62800000D03*
X133500000Y-48700000D03*
X108900000Y-81000000D03*
X136900000Y-58600000D03*
X136800000Y-56100000D03*
X122700000Y-71900000D03*
X114600000Y-68300000D03*
X116700000Y-66800000D03*
X134800000Y-58500000D03*
X141100000Y-49500000D03*
X117600000Y-77400000D03*
X127200000Y-75900000D03*
X126800000Y-71100000D03*
X129600000Y-69500000D03*
X140200000Y-57200000D03*
X135000000Y-55400000D03*
X115700000Y-86900000D03*
X121500000Y-85200000D03*
X137300000Y-52400000D03*
X130600000Y-62500000D03*
X122900000Y-82400000D03*
%TO.N,/LEDs_data_in*%
X136426944Y-64926944D03*
%TO.N,VBUS*%
X113500000Y-68400000D03*
%TO.N,Net-(D3-A)*%
X119272260Y-79512385D03*
X114417508Y-80982172D03*
X117600000Y-79400000D03*
%TO.N,/USB_D+*%
X109873056Y-74126944D03*
%TO.N,/USB_D-*%
X109900000Y-71038498D03*
%TO.N,GNDA*%
X102100000Y-66900000D03*
X97300000Y-70700000D03*
X107000000Y-84500000D03*
X100100000Y-77500000D03*
X98100000Y-66900000D03*
X102200000Y-72400000D03*
X105600000Y-67200000D03*
X102300000Y-69700000D03*
X97100000Y-74900000D03*
X104300000Y-74600000D03*
X105200000Y-78500000D03*
%TO.N,/audio_in_L*%
X105500000Y-70900000D03*
%TO.N,/audio_in_detect*%
X106700000Y-70900000D03*
%TO.N,/ANC_PBO*%
X128906946Y-71093054D03*
%TO.N,/ANC_OFF*%
X132293842Y-69293842D03*
%TO.N,/ANC_ON*%
X132525569Y-66425569D03*
%TO.N,/PWR_SW*%
X138800000Y-56800000D03*
%TD*%
D16*
%TO.N,+3V3*%
X131250000Y-70199569D02*
X131250000Y-68655026D01*
X138125000Y-61775000D02*
X138125000Y-51775000D01*
X113600000Y-74700000D02*
X112999999Y-74099999D01*
X138125000Y-51775000D02*
X138400000Y-51500000D01*
X131250000Y-68655026D02*
X134100000Y-65805026D01*
X111547500Y-76150000D02*
X110997500Y-75600000D01*
X138000000Y-61900000D02*
X138125000Y-61775000D01*
X127499569Y-73950000D02*
X131250000Y-70199569D01*
X116100000Y-74375500D02*
X116525500Y-73950000D01*
X134705026Y-65200000D02*
X138000000Y-61905026D01*
X134100000Y-65805026D02*
X134100000Y-65200000D01*
X116100000Y-74375500D02*
X115775500Y-74700000D01*
X138000000Y-61905026D02*
X138000000Y-61900000D01*
X115775500Y-74700000D02*
X113600000Y-74700000D01*
X116175875Y-76474500D02*
X115851375Y-76150000D01*
X115851375Y-76150000D02*
X111547500Y-76150000D01*
X116525500Y-73950000D02*
X127499569Y-73950000D01*
X112999999Y-74099999D02*
X112999999Y-72400000D01*
X134100000Y-65200000D02*
X134705026Y-65200000D01*
D17*
%TO.N,GND*%
X112825598Y-71000000D02*
X114500000Y-71000000D01*
X112499998Y-70674400D02*
X112812799Y-70987201D01*
X114500000Y-71000000D02*
X115300000Y-71000000D01*
X112812799Y-70987201D02*
X112825598Y-71000000D01*
X112499998Y-68499998D02*
X112400000Y-68400000D01*
X112499998Y-69707600D02*
X112499998Y-68499998D01*
X112499998Y-69707600D02*
X112499998Y-70674400D01*
D16*
%TO.N,/LEDs_data_in*%
X136426944Y-64926944D02*
X136073056Y-64926944D01*
X132968842Y-68031158D02*
X132968842Y-69965650D01*
X127934492Y-75000000D02*
X117420043Y-75000000D01*
X109999997Y-73299997D02*
X109999997Y-72400000D01*
X136073056Y-64926944D02*
X132968842Y-68031158D01*
X132968842Y-69965650D02*
X127934492Y-75000000D01*
X116669543Y-75750500D02*
X112450500Y-75750500D01*
X117420043Y-75000000D02*
X116669543Y-75750500D01*
X112450500Y-75750500D02*
X109999997Y-73299997D01*
D17*
%TO.N,VBUS*%
X113500000Y-68400000D02*
X113500000Y-69707598D01*
X113500000Y-69707598D02*
X113499998Y-69707600D01*
%TO.N,Net-(D3-A)*%
X117600000Y-79400000D02*
X117900000Y-79700000D01*
X115700000Y-80600000D02*
X117900000Y-79880713D01*
X117900000Y-79700000D02*
X117900000Y-79880713D01*
X114417508Y-80982172D02*
X115700000Y-80600000D01*
D18*
X119248184Y-79498936D02*
X119272260Y-79512385D01*
D17*
X117900000Y-79880713D02*
X119248184Y-79498936D01*
D18*
%TO.N,/USB_D+*%
X109873056Y-74126944D02*
X108999999Y-73253887D01*
X108999999Y-73253887D02*
X108999999Y-72400000D01*
%TO.N,/USB_D-*%
X109900000Y-71038498D02*
X109499999Y-70638497D01*
X109499999Y-70638497D02*
X109499999Y-69707600D01*
D16*
%TO.N,GNDA*%
X104800000Y-73800000D02*
X104300000Y-74300000D01*
X104300000Y-74300000D02*
X104300000Y-74600000D01*
X104800000Y-72600000D02*
X104800000Y-73800000D01*
X105000000Y-72400000D02*
X104800000Y-72600000D01*
D17*
%TO.N,/audio_in_L*%
X105500000Y-70900000D02*
X105499999Y-70899999D01*
X105499999Y-70899999D02*
X105499999Y-69707600D01*
D19*
%TO.N,/audio_in_R*%
X105966540Y-73301764D02*
X105999998Y-72400000D01*
X105284246Y-75263359D02*
X106677263Y-77153290D01*
X105284246Y-75263359D02*
X105293723Y-73965105D01*
X106691562Y-77167589D02*
X106691562Y-80664223D01*
X106677263Y-77153290D02*
X106691562Y-77167589D01*
X105293723Y-73965105D02*
X105966540Y-73301764D01*
D16*
%TO.N,/audio_in_detect*%
X109802500Y-75600000D02*
X107911246Y-75600000D01*
D17*
X106499999Y-70699999D02*
X106700000Y-70900000D01*
D16*
X107911246Y-75600000D02*
X107189063Y-74877817D01*
D17*
X106499999Y-69707600D02*
X106499999Y-70699999D01*
D16*
%TO.N,/ANC_PBO*%
X128906946Y-71093054D02*
X126750000Y-73250000D01*
X110880355Y-68124671D02*
X110880355Y-69327244D01*
X118244974Y-73250000D02*
X116450000Y-71455026D01*
X110880355Y-69327244D02*
X110499999Y-69707600D01*
X116450000Y-68055026D02*
X115544974Y-67150000D01*
X116450000Y-71455026D02*
X116450000Y-68055026D01*
X115544974Y-67150000D02*
X111855026Y-67150000D01*
X111855026Y-67150000D02*
X110880355Y-68124671D01*
X126750000Y-73250000D02*
X118244974Y-73250000D01*
%TO.N,/ANC_OFF*%
X132293842Y-69293842D02*
X132293842Y-70145676D01*
X113088498Y-75400500D02*
X110999998Y-73312000D01*
X110999998Y-73312000D02*
X110999998Y-72400000D01*
X116524569Y-75400500D02*
X113088498Y-75400500D01*
X132293842Y-70145676D02*
X127789518Y-74650000D01*
X117275069Y-74650000D02*
X116524569Y-75400500D01*
X127789518Y-74650000D02*
X117275069Y-74650000D01*
%TO.N,/ANC_ON*%
X127354595Y-73600000D02*
X118100000Y-73600000D01*
X116100000Y-71600000D02*
X116100000Y-68200000D01*
X111500000Y-68000000D02*
X111500000Y-69707600D01*
X112000000Y-67500000D02*
X111500000Y-68000000D01*
X118100000Y-73600000D02*
X116100000Y-71600000D01*
X116100000Y-68200000D02*
X115400000Y-67500000D01*
X132525569Y-66425569D02*
X130900000Y-68051138D01*
X115400000Y-67500000D02*
X112000000Y-67500000D01*
X130900000Y-68051138D02*
X130900000Y-70054595D01*
X130900000Y-70054595D02*
X127354595Y-73600000D01*
%TO.N,/PWR_SW*%
X116379595Y-75050500D02*
X117130095Y-74300000D01*
X111999999Y-73799999D02*
X113250500Y-75050500D01*
X131600000Y-68800000D02*
X138800000Y-61600000D01*
X113250500Y-75050500D02*
X116379595Y-75050500D01*
X138800000Y-61600000D02*
X138800000Y-56800000D01*
X117130095Y-74300000D02*
X127644543Y-74300000D01*
X131600000Y-70344543D02*
X131600000Y-68800000D01*
X111999999Y-72400000D02*
X111999999Y-73799999D01*
X127644543Y-74300000D02*
X131600000Y-70344543D01*
%TD*%
%TA.AperFunction,Conductor*%
%TO.N,GND*%
G36*
X134332353Y-47757425D02*
G01*
X134340510Y-47758607D01*
X134390722Y-47765883D01*
X134424817Y-47775976D01*
X134470189Y-47796878D01*
X134500014Y-47816232D01*
X134537587Y-47849152D01*
X134560696Y-47876179D01*
X134587380Y-47918410D01*
X134601868Y-47950885D01*
X134617918Y-48007612D01*
X134618009Y-48007933D01*
X134621624Y-48025454D01*
X134634969Y-48126502D01*
X134634973Y-48126522D01*
X134635624Y-48131449D01*
X134637056Y-48136219D01*
X134637057Y-48136220D01*
X134701055Y-48349285D01*
X134701058Y-48349293D01*
X134702481Y-48354030D01*
X134803919Y-48563129D01*
X134937351Y-48753413D01*
X135099373Y-48920029D01*
X135285854Y-49058726D01*
X135492036Y-49165969D01*
X135712661Y-49239020D01*
X135942102Y-49276018D01*
X136169551Y-49276018D01*
X136174507Y-49276018D01*
X136403949Y-49239020D01*
X136624574Y-49165969D01*
X136830756Y-49058727D01*
X137017237Y-48920029D01*
X137179259Y-48753413D01*
X137312691Y-48563129D01*
X137414129Y-48354030D01*
X137480986Y-48131449D01*
X137495026Y-48025127D01*
X137498637Y-48007629D01*
X137514698Y-47950863D01*
X137529186Y-47918390D01*
X137545908Y-47891926D01*
X137555874Y-47876152D01*
X137578982Y-47849127D01*
X137616566Y-47816198D01*
X137646388Y-47796846D01*
X137691779Y-47775936D01*
X137725868Y-47765846D01*
X137770117Y-47759435D01*
X137783998Y-47757424D01*
X137801777Y-47756143D01*
X139556409Y-47756143D01*
X139593766Y-47756143D01*
X139598833Y-47756247D01*
X139602506Y-47756397D01*
X139656546Y-47758607D01*
X139666637Y-47759434D01*
X139721479Y-47766196D01*
X139731462Y-47767844D01*
X139787953Y-47779558D01*
X139792869Y-47780683D01*
X141036782Y-48092204D01*
X141045188Y-48094627D01*
X141142683Y-48126502D01*
X141274083Y-48169462D01*
X141290282Y-48176057D01*
X141482434Y-48270597D01*
X141502405Y-48280423D01*
X141517522Y-48289236D01*
X141712846Y-48422425D01*
X141726572Y-48433279D01*
X141901201Y-48592636D01*
X141913262Y-48605314D01*
X141982551Y-48689291D01*
X142035457Y-48753413D01*
X142063717Y-48787663D01*
X142073874Y-48801914D01*
X142197165Y-49003635D01*
X142205214Y-49019172D01*
X142298879Y-49236231D01*
X142304661Y-49252747D01*
X142366838Y-49480830D01*
X142370238Y-49497996D01*
X142399689Y-49732568D01*
X142400638Y-49750041D01*
X142396776Y-49986410D01*
X142395257Y-50003843D01*
X142357616Y-50240732D01*
X142355937Y-50249326D01*
X138302656Y-67700913D01*
X138271101Y-67758964D01*
X123346135Y-83225791D01*
X123342060Y-83229632D01*
X123330856Y-83235527D01*
X123322542Y-83246743D01*
X123322538Y-83246748D01*
X123316157Y-83255358D01*
X123313783Y-83258162D01*
X123313803Y-83258177D01*
X123309561Y-83263694D01*
X123304729Y-83268703D01*
X123301133Y-83274657D01*
X123301129Y-83274663D01*
X123300980Y-83274911D01*
X123294468Y-83284624D01*
X123284677Y-83297836D01*
X123284674Y-83297841D01*
X123276361Y-83309060D01*
X123274505Y-83318760D01*
X123269399Y-83327219D01*
X123268083Y-83341122D01*
X123268082Y-83341126D01*
X123266533Y-83357495D01*
X123264881Y-83369083D01*
X123264829Y-83369350D01*
X123264828Y-83369362D01*
X123263521Y-83376198D01*
X123263767Y-83383158D01*
X123263234Y-83390094D01*
X123263209Y-83390092D01*
X123263101Y-83393762D01*
X123262091Y-83404431D01*
X123262091Y-83404434D01*
X123260776Y-83418338D01*
X123265170Y-83430213D01*
X123265632Y-83435783D01*
X123329339Y-85233246D01*
X123319239Y-85286837D01*
X123287123Y-85330912D01*
X123239203Y-85356946D01*
X114179939Y-87922404D01*
X114128812Y-87925877D01*
X114080646Y-87908380D01*
X114043668Y-87872901D01*
X113059652Y-86428212D01*
X113050417Y-86412209D01*
X113041082Y-86392824D01*
X113014850Y-86371904D01*
X113007792Y-86365828D01*
X112983203Y-86342991D01*
X112975680Y-86340667D01*
X112969525Y-86335758D01*
X112955908Y-86332649D01*
X112955902Y-86332647D01*
X112936798Y-86328287D01*
X112927796Y-86325873D01*
X112909103Y-86320098D01*
X112909100Y-86320097D01*
X112895755Y-86315975D01*
X112881943Y-86318050D01*
X112881940Y-86318050D01*
X112874477Y-86319172D01*
X112856053Y-86320548D01*
X108780943Y-86320548D01*
X108721285Y-86305254D01*
X108676344Y-86263144D01*
X108239951Y-85577718D01*
X108236233Y-85569804D01*
X108229547Y-85558543D01*
X108225267Y-85545242D01*
X108207125Y-85526160D01*
X108207124Y-85526159D01*
X108208778Y-85524587D01*
X108206185Y-85522719D01*
X108205424Y-85523490D01*
X108200509Y-85518633D01*
X108200508Y-85518632D01*
X108200473Y-85518598D01*
X108200471Y-85518595D01*
X108192951Y-85511164D01*
X108190246Y-85508406D01*
X108170413Y-85487546D01*
X108170412Y-85487545D01*
X108162203Y-85478911D01*
X108159135Y-85477750D01*
X108156806Y-85475448D01*
X108145547Y-85471583D01*
X108139215Y-85467378D01*
X108094570Y-85414599D01*
X108085121Y-85346120D01*
X108095115Y-85277852D01*
X108100040Y-83770794D01*
X108958764Y-83770794D01*
X108959111Y-83775424D01*
X108964272Y-83844302D01*
X108977810Y-84024951D01*
X108978840Y-84029464D01*
X108978841Y-84029470D01*
X109033490Y-84268902D01*
X109034524Y-84273431D01*
X109036220Y-84277754D01*
X109036221Y-84277755D01*
X109081912Y-84394174D01*
X109127639Y-84510682D01*
X109255073Y-84731406D01*
X109413982Y-84930671D01*
X109600815Y-85104026D01*
X109811398Y-85247599D01*
X110041028Y-85358183D01*
X110045456Y-85359548D01*
X110045459Y-85359550D01*
X110145608Y-85390441D01*
X110284574Y-85433307D01*
X110536597Y-85471294D01*
X110786832Y-85471294D01*
X110791467Y-85471294D01*
X111043490Y-85433307D01*
X111287036Y-85358183D01*
X111516666Y-85247599D01*
X111727249Y-85104026D01*
X111914082Y-84930671D01*
X112072991Y-84731406D01*
X112200425Y-84510682D01*
X112293540Y-84273431D01*
X112350254Y-84024951D01*
X112369300Y-83770794D01*
X112350254Y-83516637D01*
X112293540Y-83268157D01*
X112251095Y-83160011D01*
X114208119Y-83160011D01*
X114209180Y-83168070D01*
X114226836Y-83302187D01*
X114226837Y-83302193D01*
X114227898Y-83310247D01*
X114231007Y-83317753D01*
X114231008Y-83317756D01*
X114272671Y-83418338D01*
X114285887Y-83450244D01*
X114290830Y-83456685D01*
X114290833Y-83456691D01*
X114336832Y-83516637D01*
X114378134Y-83570462D01*
X114384576Y-83575405D01*
X114491904Y-83657762D01*
X114491907Y-83657764D01*
X114498352Y-83662709D01*
X114638349Y-83720698D01*
X114750865Y-83735511D01*
X114822252Y-83735511D01*
X114826305Y-83735511D01*
X114938821Y-83720698D01*
X115078818Y-83662709D01*
X115199036Y-83570462D01*
X115291283Y-83450244D01*
X115349272Y-83310247D01*
X115369051Y-83160011D01*
X115349272Y-83009775D01*
X115291283Y-82869778D01*
X115286338Y-82863333D01*
X115286336Y-82863330D01*
X115203979Y-82756002D01*
X115199036Y-82749560D01*
X115183779Y-82737853D01*
X115085265Y-82662259D01*
X115085259Y-82662256D01*
X115078818Y-82657313D01*
X115071309Y-82654202D01*
X115071308Y-82654202D01*
X114946330Y-82602434D01*
X114946327Y-82602433D01*
X114938821Y-82599324D01*
X114930767Y-82598263D01*
X114930761Y-82598262D01*
X114830324Y-82585040D01*
X114830322Y-82585039D01*
X114826305Y-82584511D01*
X114750865Y-82584511D01*
X114746848Y-82585039D01*
X114746845Y-82585040D01*
X114646408Y-82598262D01*
X114646400Y-82598263D01*
X114638349Y-82599324D01*
X114630844Y-82602432D01*
X114630839Y-82602434D01*
X114505861Y-82654202D01*
X114505857Y-82654204D01*
X114498352Y-82657313D01*
X114491913Y-82662253D01*
X114491904Y-82662259D01*
X114384576Y-82744616D01*
X114384572Y-82744619D01*
X114378134Y-82749560D01*
X114373193Y-82755998D01*
X114373190Y-82756002D01*
X114290833Y-82863330D01*
X114290827Y-82863339D01*
X114285887Y-82869778D01*
X114282778Y-82877283D01*
X114282776Y-82877287D01*
X114231008Y-83002265D01*
X114231006Y-83002270D01*
X114227898Y-83009775D01*
X114226837Y-83017826D01*
X114226836Y-83017834D01*
X114213655Y-83117961D01*
X114208119Y-83160011D01*
X112251095Y-83160011D01*
X112200425Y-83030906D01*
X112072991Y-82810182D01*
X111914082Y-82610917D01*
X111727249Y-82437562D01*
X111516666Y-82293989D01*
X111512480Y-82291973D01*
X111291215Y-82185417D01*
X111291209Y-82185414D01*
X111287036Y-82183405D01*
X111282614Y-82182041D01*
X111282604Y-82182037D01*
X111047923Y-82109648D01*
X111047918Y-82109646D01*
X111043490Y-82108281D01*
X111038910Y-82107590D01*
X111038903Y-82107589D01*
X110796050Y-82070984D01*
X110796039Y-82070983D01*
X110791467Y-82070294D01*
X110536597Y-82070294D01*
X110532025Y-82070983D01*
X110532013Y-82070984D01*
X110289160Y-82107589D01*
X110289150Y-82107591D01*
X110284574Y-82108281D01*
X110280148Y-82109645D01*
X110280140Y-82109648D01*
X110045459Y-82182037D01*
X110045444Y-82182042D01*
X110041028Y-82183405D01*
X110036859Y-82185412D01*
X110036848Y-82185417D01*
X109815583Y-82291973D01*
X109815576Y-82291976D01*
X109811398Y-82293989D01*
X109807565Y-82296602D01*
X109807562Y-82296604D01*
X109604643Y-82434952D01*
X109600815Y-82437562D01*
X109597423Y-82440708D01*
X109597417Y-82440714D01*
X109417383Y-82607761D01*
X109413982Y-82610917D01*
X109411092Y-82614539D01*
X109411089Y-82614544D01*
X109257965Y-82806555D01*
X109255073Y-82810182D01*
X109252754Y-82814197D01*
X109252753Y-82814200D01*
X109129960Y-83026885D01*
X109129957Y-83026890D01*
X109127639Y-83030906D01*
X109125945Y-83035220D01*
X109125943Y-83035226D01*
X109037010Y-83261822D01*
X109034524Y-83268157D01*
X109033491Y-83272678D01*
X109033490Y-83272685D01*
X108978841Y-83512117D01*
X108978839Y-83512125D01*
X108977810Y-83516637D01*
X108977463Y-83521256D01*
X108977463Y-83521262D01*
X108963168Y-83712031D01*
X108958764Y-83770794D01*
X108100040Y-83770794D01*
X108105078Y-82229195D01*
X108095938Y-82160631D01*
X108078304Y-82096489D01*
X108051110Y-82032890D01*
X108007852Y-81978916D01*
X108007851Y-81978915D01*
X108008885Y-81978087D01*
X107984037Y-81933384D01*
X107982001Y-81875409D01*
X108006556Y-81822855D01*
X108141948Y-81653080D01*
X108273130Y-81425866D01*
X108368982Y-81181639D01*
X108414509Y-80982172D01*
X113762230Y-80982172D01*
X113763134Y-80989617D01*
X113780366Y-81131542D01*
X113780367Y-81131547D01*
X113781271Y-81138990D01*
X113783930Y-81146003D01*
X113783931Y-81146004D01*
X113797445Y-81181639D01*
X113837288Y-81286695D01*
X113841551Y-81292871D01*
X113922764Y-81410530D01*
X113927025Y-81416702D01*
X114045268Y-81521455D01*
X114185143Y-81594868D01*
X114338523Y-81632672D01*
X114488993Y-81632672D01*
X114496493Y-81632672D01*
X114649873Y-81594868D01*
X114668364Y-81585163D01*
X119769437Y-81585163D01*
X119770498Y-81593222D01*
X119788154Y-81727339D01*
X119788155Y-81727345D01*
X119789216Y-81735399D01*
X119792325Y-81742905D01*
X119792326Y-81742908D01*
X119844094Y-81867886D01*
X119847205Y-81875396D01*
X119852148Y-81881837D01*
X119852151Y-81881843D01*
X119910275Y-81957590D01*
X119939452Y-81995614D01*
X119945894Y-82000557D01*
X120053222Y-82082914D01*
X120053225Y-82082916D01*
X120059670Y-82087861D01*
X120199667Y-82145850D01*
X120312183Y-82160663D01*
X120383570Y-82160663D01*
X120387623Y-82160663D01*
X120500139Y-82145850D01*
X120640136Y-82087861D01*
X120760354Y-81995614D01*
X120852601Y-81875396D01*
X120910590Y-81735399D01*
X120930369Y-81585163D01*
X120910590Y-81434927D01*
X120852601Y-81294930D01*
X120847656Y-81288485D01*
X120847654Y-81288482D01*
X120765297Y-81181154D01*
X120760354Y-81174712D01*
X120753911Y-81169768D01*
X120646583Y-81087411D01*
X120646577Y-81087408D01*
X120640136Y-81082465D01*
X120632627Y-81079354D01*
X120632626Y-81079354D01*
X120507648Y-81027586D01*
X120507645Y-81027585D01*
X120500139Y-81024476D01*
X120492085Y-81023415D01*
X120492079Y-81023414D01*
X120391642Y-81010192D01*
X120391640Y-81010191D01*
X120387623Y-81009663D01*
X120312183Y-81009663D01*
X120308166Y-81010191D01*
X120308163Y-81010192D01*
X120207726Y-81023414D01*
X120207718Y-81023415D01*
X120199667Y-81024476D01*
X120192162Y-81027584D01*
X120192157Y-81027586D01*
X120067179Y-81079354D01*
X120067175Y-81079356D01*
X120059670Y-81082465D01*
X120053231Y-81087405D01*
X120053222Y-81087411D01*
X119945894Y-81169768D01*
X119945890Y-81169771D01*
X119939452Y-81174712D01*
X119934511Y-81181150D01*
X119934508Y-81181154D01*
X119852151Y-81288482D01*
X119852145Y-81288491D01*
X119847205Y-81294930D01*
X119844096Y-81302435D01*
X119844094Y-81302439D01*
X119792326Y-81427417D01*
X119792324Y-81427422D01*
X119789216Y-81434927D01*
X119788155Y-81442978D01*
X119788154Y-81442986D01*
X119778479Y-81516479D01*
X119769437Y-81585163D01*
X114668364Y-81585163D01*
X114789748Y-81521455D01*
X114907991Y-81416702D01*
X114933975Y-81379056D01*
X114963158Y-81349165D01*
X115000609Y-81330661D01*
X115808995Y-81089768D01*
X115814360Y-81088301D01*
X115817133Y-81087608D01*
X115821509Y-81086844D01*
X115847743Y-81078266D01*
X115850780Y-81077318D01*
X115877242Y-81069433D01*
X115881280Y-81067568D01*
X115883957Y-81066558D01*
X115889189Y-81064715D01*
X118043675Y-80360309D01*
X118048340Y-80358886D01*
X118934149Y-80108043D01*
X118980768Y-80104019D01*
X119025562Y-80117558D01*
X119039895Y-80125081D01*
X119193275Y-80162885D01*
X119343745Y-80162885D01*
X119351245Y-80162885D01*
X119504625Y-80125081D01*
X119644500Y-80051668D01*
X119762743Y-79946915D01*
X119852480Y-79816908D01*
X119908497Y-79669203D01*
X119927538Y-79512385D01*
X119908497Y-79355567D01*
X119852480Y-79207862D01*
X119762743Y-79077855D01*
X119757132Y-79072884D01*
X119650116Y-78978077D01*
X119650114Y-78978075D01*
X119644500Y-78973102D01*
X119637855Y-78969614D01*
X119637853Y-78969613D01*
X119511266Y-78903174D01*
X119511262Y-78903172D01*
X119504625Y-78899689D01*
X119497347Y-78897895D01*
X119497344Y-78897894D01*
X119358527Y-78863679D01*
X119358520Y-78863678D01*
X119351245Y-78861885D01*
X119193275Y-78861885D01*
X119186000Y-78863677D01*
X119185992Y-78863679D01*
X119047175Y-78897894D01*
X119047169Y-78897895D01*
X119039895Y-78899689D01*
X119033260Y-78903171D01*
X119033253Y-78903174D01*
X118906666Y-78969613D01*
X118906660Y-78969616D01*
X118900020Y-78973102D01*
X118894408Y-78978072D01*
X118894403Y-78978077D01*
X118787390Y-79072881D01*
X118787384Y-79072887D01*
X118781777Y-79077855D01*
X118777518Y-79084024D01*
X118772543Y-79089641D01*
X118771955Y-79089120D01*
X118748946Y-79112522D01*
X118710562Y-79130997D01*
X118353223Y-79232188D01*
X118292522Y-79233923D01*
X118238275Y-79206628D01*
X118203495Y-79156849D01*
X118189081Y-79118843D01*
X118180220Y-79095477D01*
X118090483Y-78965470D01*
X118014205Y-78897894D01*
X117977856Y-78865692D01*
X117977854Y-78865690D01*
X117972240Y-78860717D01*
X117965595Y-78857229D01*
X117965593Y-78857228D01*
X117839006Y-78790789D01*
X117839002Y-78790787D01*
X117832365Y-78787304D01*
X117825087Y-78785510D01*
X117825084Y-78785509D01*
X117686267Y-78751294D01*
X117686260Y-78751293D01*
X117678985Y-78749500D01*
X117521015Y-78749500D01*
X117513740Y-78751292D01*
X117513732Y-78751294D01*
X117374915Y-78785509D01*
X117374909Y-78785510D01*
X117367635Y-78787304D01*
X117361000Y-78790786D01*
X117360993Y-78790789D01*
X117234406Y-78857228D01*
X117234400Y-78857231D01*
X117227760Y-78860717D01*
X117222148Y-78865687D01*
X117222143Y-78865692D01*
X117115127Y-78960499D01*
X117115122Y-78960503D01*
X117109517Y-78965470D01*
X117105262Y-78971634D01*
X117105257Y-78971640D01*
X117024043Y-79089300D01*
X117024040Y-79089303D01*
X117019780Y-79095477D01*
X117017120Y-79102488D01*
X117017118Y-79102494D01*
X116967932Y-79232188D01*
X116963763Y-79243182D01*
X116962859Y-79250622D01*
X116962858Y-79250629D01*
X116949213Y-79363014D01*
X116944722Y-79400000D01*
X116945626Y-79407445D01*
X116963560Y-79555148D01*
X116957460Y-79611179D01*
X116927188Y-79658722D01*
X116878998Y-79687955D01*
X115552306Y-80121716D01*
X115549184Y-80122691D01*
X114719933Y-80369801D01*
X114680004Y-80374883D01*
X114650033Y-80368824D01*
X114649873Y-80369476D01*
X114503775Y-80333466D01*
X114503768Y-80333465D01*
X114496493Y-80331672D01*
X114338523Y-80331672D01*
X114331248Y-80333464D01*
X114331240Y-80333466D01*
X114192423Y-80367681D01*
X114192417Y-80367682D01*
X114185143Y-80369476D01*
X114178508Y-80372958D01*
X114178501Y-80372961D01*
X114051914Y-80439400D01*
X114051908Y-80439403D01*
X114045268Y-80442889D01*
X114039656Y-80447859D01*
X114039651Y-80447864D01*
X113932635Y-80542671D01*
X113932630Y-80542675D01*
X113927025Y-80547642D01*
X113922770Y-80553806D01*
X113922765Y-80553812D01*
X113841551Y-80671472D01*
X113841548Y-80671475D01*
X113837288Y-80677649D01*
X113834628Y-80684660D01*
X113834626Y-80684666D01*
X113783931Y-80818339D01*
X113781271Y-80825354D01*
X113780367Y-80832794D01*
X113780366Y-80832801D01*
X113763578Y-80971068D01*
X113762230Y-80982172D01*
X108414509Y-80982172D01*
X108427364Y-80925853D01*
X108446970Y-80664223D01*
X108427364Y-80402593D01*
X108368982Y-80146807D01*
X108273130Y-79902580D01*
X108141948Y-79675366D01*
X108014308Y-79515311D01*
X107989715Y-79462571D01*
X107991890Y-79404418D01*
X108017735Y-79358330D01*
X108016979Y-79357718D01*
X108024393Y-79348552D01*
X108060349Y-79304099D01*
X108087799Y-79240834D01*
X108105746Y-79176982D01*
X108115276Y-79108682D01*
X108123750Y-76515675D01*
X108116270Y-76453466D01*
X108101771Y-76394874D01*
X108079375Y-76336355D01*
X108080438Y-76335948D01*
X108067900Y-76283994D01*
X108084151Y-76224433D01*
X108124871Y-76182401D01*
X108124625Y-76182063D01*
X108126565Y-76180653D01*
X108127107Y-76180093D01*
X108132722Y-76176653D01*
X108324287Y-76013041D01*
X108357473Y-75974184D01*
X108361929Y-75968968D01*
X108404305Y-75936890D01*
X108456219Y-75925500D01*
X109152624Y-75925500D01*
X109217412Y-75943772D01*
X109258251Y-75987950D01*
X109258592Y-75987703D01*
X109260679Y-75990575D01*
X109263107Y-75993202D01*
X109264327Y-75995597D01*
X109264329Y-75995600D01*
X109268759Y-76004294D01*
X109360706Y-76096241D01*
X109476567Y-76155275D01*
X109572693Y-76170500D01*
X110032306Y-76170499D01*
X110128433Y-76155275D01*
X110244294Y-76096241D01*
X110312319Y-76028215D01*
X110367906Y-75996122D01*
X110432094Y-75996122D01*
X110487681Y-76028216D01*
X110555706Y-76096241D01*
X110671567Y-76155275D01*
X110767693Y-76170500D01*
X111056310Y-76170499D01*
X111103763Y-76179938D01*
X111143991Y-76206818D01*
X111303455Y-76366282D01*
X111310764Y-76374257D01*
X111335045Y-76403194D01*
X111344439Y-76408617D01*
X111344441Y-76408619D01*
X111367761Y-76422083D01*
X111376883Y-76427894D01*
X111407816Y-76449553D01*
X111418299Y-76452362D01*
X111421634Y-76453917D01*
X111425059Y-76455163D01*
X111434455Y-76460588D01*
X111471643Y-76467145D01*
X111482205Y-76469485D01*
X111518693Y-76479263D01*
X111556310Y-76475972D01*
X111567118Y-76475500D01*
X115410864Y-76475500D01*
X115468490Y-76489704D01*
X115512914Y-76529060D01*
X115533960Y-76584554D01*
X115538733Y-76623869D01*
X115538734Y-76623873D01*
X115539638Y-76631318D01*
X115542296Y-76638327D01*
X115542298Y-76638334D01*
X115592993Y-76772005D01*
X115595655Y-76779023D01*
X115685392Y-76909030D01*
X115803635Y-77013783D01*
X115943510Y-77087196D01*
X116096890Y-77125000D01*
X116247360Y-77125000D01*
X116254860Y-77125000D01*
X116408240Y-77087196D01*
X116548115Y-77013783D01*
X116666358Y-76909030D01*
X116756095Y-76779023D01*
X116812112Y-76631318D01*
X116831153Y-76474500D01*
X116812112Y-76317682D01*
X116765516Y-76194818D01*
X116757839Y-76141152D01*
X116773795Y-76089334D01*
X116810331Y-76049280D01*
X116840174Y-76028383D01*
X116849276Y-76022585D01*
X116881998Y-76003694D01*
X116906291Y-75974741D01*
X116913578Y-75966789D01*
X117518550Y-75361819D01*
X117558779Y-75334939D01*
X117606232Y-75325500D01*
X127914865Y-75325500D01*
X127925672Y-75325971D01*
X127963299Y-75329264D01*
X127999816Y-75319478D01*
X128010322Y-75317149D01*
X128047537Y-75310588D01*
X128056943Y-75305156D01*
X128060392Y-75303901D01*
X128063691Y-75302362D01*
X128074176Y-75299554D01*
X128105127Y-75277880D01*
X128114225Y-75272085D01*
X128146947Y-75253194D01*
X128171240Y-75224241D01*
X128178528Y-75216288D01*
X130477869Y-72916948D01*
X130534058Y-72884696D01*
X130598846Y-72885185D01*
X130654543Y-72918284D01*
X130685945Y-72974955D01*
X130704255Y-73049241D01*
X130707738Y-73055878D01*
X130707740Y-73055882D01*
X130770174Y-73174839D01*
X130783311Y-73199868D01*
X130896116Y-73327199D01*
X131036115Y-73423834D01*
X131043133Y-73426495D01*
X131043132Y-73426495D01*
X131186115Y-73480721D01*
X131195173Y-73484156D01*
X131321673Y-73499516D01*
X131402668Y-73499516D01*
X131406417Y-73499516D01*
X131532917Y-73484156D01*
X131691975Y-73423834D01*
X131831974Y-73327199D01*
X131944779Y-73199868D01*
X132023835Y-73049241D01*
X132064545Y-72884072D01*
X132064545Y-72713960D01*
X132023835Y-72548791D01*
X131944779Y-72398164D01*
X131831974Y-72270833D01*
X131825805Y-72266574D01*
X131825803Y-72266573D01*
X131698151Y-72178461D01*
X131698150Y-72178460D01*
X131691975Y-72174198D01*
X131684960Y-72171537D01*
X131684957Y-72171536D01*
X131532917Y-72113876D01*
X131533642Y-72111962D01*
X131486801Y-72085996D01*
X131453714Y-72030300D01*
X131453230Y-71965518D01*
X131485480Y-71909336D01*
X133185132Y-70209684D01*
X133193084Y-70202397D01*
X133222036Y-70178105D01*
X133240927Y-70145383D01*
X133246722Y-70136285D01*
X133268396Y-70105334D01*
X133271204Y-70094849D01*
X133272743Y-70091550D01*
X133273998Y-70088101D01*
X133279430Y-70078695D01*
X133285991Y-70041480D01*
X133288320Y-70030974D01*
X133298106Y-69994457D01*
X133294813Y-69956830D01*
X133294342Y-69946023D01*
X133294342Y-69286040D01*
X134135455Y-69286040D01*
X134137248Y-69293316D01*
X134137249Y-69293321D01*
X134148421Y-69338647D01*
X134176165Y-69451209D01*
X134179648Y-69457846D01*
X134179650Y-69457850D01*
X134242084Y-69576807D01*
X134255221Y-69601836D01*
X134368026Y-69729167D01*
X134508025Y-69825802D01*
X134587554Y-69855963D01*
X134620366Y-69868407D01*
X134667083Y-69886124D01*
X134793583Y-69901484D01*
X134874578Y-69901484D01*
X134878327Y-69901484D01*
X135004827Y-69886124D01*
X135163885Y-69825802D01*
X135303884Y-69729167D01*
X135416689Y-69601836D01*
X135495745Y-69451209D01*
X135536455Y-69286040D01*
X135536455Y-69115928D01*
X135495745Y-68950759D01*
X135416689Y-68800132D01*
X135404920Y-68786848D01*
X135368466Y-68745699D01*
X135303884Y-68672801D01*
X135297715Y-68668542D01*
X135297713Y-68668541D01*
X135170061Y-68580429D01*
X135170060Y-68580428D01*
X135163885Y-68576166D01*
X135156870Y-68573505D01*
X135156867Y-68573504D01*
X135011843Y-68518504D01*
X135011837Y-68518502D01*
X135004827Y-68515844D01*
X134997382Y-68514940D01*
X134997378Y-68514939D01*
X134882047Y-68500935D01*
X134882035Y-68500934D01*
X134878327Y-68500484D01*
X134793583Y-68500484D01*
X134789875Y-68500934D01*
X134789862Y-68500935D01*
X134674531Y-68514939D01*
X134674525Y-68514940D01*
X134667083Y-68515844D01*
X134660074Y-68518501D01*
X134660066Y-68518504D01*
X134515042Y-68573504D01*
X134515036Y-68573507D01*
X134508025Y-68576166D01*
X134501852Y-68580426D01*
X134501848Y-68580429D01*
X134374196Y-68668541D01*
X134374190Y-68668546D01*
X134368026Y-68672801D01*
X134363054Y-68678412D01*
X134363053Y-68678414D01*
X134260196Y-68794515D01*
X134260191Y-68794521D01*
X134255221Y-68800132D01*
X134251735Y-68806772D01*
X134251734Y-68806775D01*
X134179650Y-68944117D01*
X134179647Y-68944124D01*
X134176165Y-68950759D01*
X134174371Y-68958034D01*
X134174370Y-68958039D01*
X134137249Y-69108646D01*
X134137248Y-69108652D01*
X134135455Y-69115928D01*
X134135455Y-69286040D01*
X133294342Y-69286040D01*
X133294342Y-68217346D01*
X133303781Y-68169893D01*
X133330661Y-68129665D01*
X133797628Y-67662698D01*
X135950443Y-65509881D01*
X135994151Y-65481622D01*
X136045610Y-65473790D01*
X136095743Y-65487766D01*
X136194579Y-65539640D01*
X136347959Y-65577444D01*
X136498429Y-65577444D01*
X136505929Y-65577444D01*
X136659309Y-65539640D01*
X136799184Y-65466227D01*
X136917427Y-65361474D01*
X137007164Y-65231467D01*
X137063181Y-65083762D01*
X137082222Y-64926944D01*
X137063181Y-64770126D01*
X137007164Y-64622421D01*
X136917427Y-64492414D01*
X136799184Y-64387661D01*
X136734265Y-64353588D01*
X136690918Y-64315765D01*
X136669305Y-64262450D01*
X136674078Y-64205118D01*
X136704210Y-64156114D01*
X139016290Y-61844034D01*
X139024242Y-61836747D01*
X139053194Y-61812455D01*
X139072085Y-61779733D01*
X139077880Y-61770635D01*
X139099554Y-61739684D01*
X139102362Y-61729199D01*
X139103901Y-61725900D01*
X139105156Y-61722451D01*
X139110588Y-61713045D01*
X139117149Y-61675830D01*
X139119478Y-61665324D01*
X139129264Y-61628807D01*
X139125972Y-61591177D01*
X139125500Y-61580370D01*
X139125500Y-57435528D01*
X139139701Y-57377906D01*
X139173077Y-57340228D01*
X139172240Y-57339283D01*
X139172240Y-57339282D01*
X139290483Y-57234530D01*
X139380220Y-57104523D01*
X139436237Y-56956818D01*
X139455278Y-56800000D01*
X139436237Y-56643182D01*
X139380220Y-56495477D01*
X139290483Y-56365470D01*
X139172240Y-56260717D01*
X139165595Y-56257229D01*
X139165593Y-56257228D01*
X139039006Y-56190789D01*
X139039002Y-56190787D01*
X139032365Y-56187304D01*
X139025087Y-56185510D01*
X139025084Y-56185509D01*
X138886267Y-56151294D01*
X138886260Y-56151293D01*
X138878985Y-56149500D01*
X138721015Y-56149500D01*
X138713739Y-56151293D01*
X138713733Y-56151294D01*
X138604175Y-56178298D01*
X138548474Y-56179139D01*
X138498027Y-56155512D01*
X138463013Y-56112184D01*
X138450500Y-56057901D01*
X138450500Y-52254669D01*
X138462472Y-52201511D01*
X138496077Y-52158618D01*
X138544826Y-52134272D01*
X138625082Y-52114491D01*
X138625081Y-52114491D01*
X138632365Y-52112696D01*
X138772240Y-52039283D01*
X138890483Y-51934530D01*
X138980220Y-51804523D01*
X139036237Y-51656818D01*
X139055278Y-51500000D01*
X139036237Y-51343182D01*
X138980220Y-51195477D01*
X138890483Y-51065470D01*
X138772240Y-50960717D01*
X138765595Y-50957229D01*
X138765593Y-50957228D01*
X138639006Y-50890789D01*
X138639002Y-50890787D01*
X138632365Y-50887304D01*
X138625087Y-50885510D01*
X138625084Y-50885509D01*
X138486267Y-50851294D01*
X138486260Y-50851293D01*
X138478985Y-50849500D01*
X138321015Y-50849500D01*
X138313740Y-50851292D01*
X138313732Y-50851294D01*
X138174915Y-50885509D01*
X138174909Y-50885510D01*
X138167635Y-50887304D01*
X138161000Y-50890786D01*
X138160993Y-50890789D01*
X138034406Y-50957228D01*
X138034400Y-50957231D01*
X138027760Y-50960717D01*
X138022148Y-50965687D01*
X138022143Y-50965692D01*
X137915127Y-51060499D01*
X137915122Y-51060503D01*
X137909517Y-51065470D01*
X137905262Y-51071634D01*
X137905257Y-51071640D01*
X137824043Y-51189300D01*
X137824040Y-51189303D01*
X137819780Y-51195477D01*
X137817120Y-51202488D01*
X137817118Y-51202494D01*
X137766423Y-51336167D01*
X137763763Y-51343182D01*
X137762859Y-51350622D01*
X137762858Y-51350629D01*
X137746070Y-51488896D01*
X137744722Y-51500000D01*
X137745626Y-51507445D01*
X137762199Y-51643942D01*
X137763763Y-51656818D01*
X137766423Y-51663832D01*
X137766424Y-51663836D01*
X137789070Y-51723549D01*
X137796656Y-51756710D01*
X137799028Y-51783818D01*
X137799500Y-51794627D01*
X137799500Y-61585508D01*
X137787882Y-61637914D01*
X137761744Y-61671975D01*
X137762088Y-61672263D01*
X137755492Y-61680123D01*
X137755206Y-61680496D01*
X137746806Y-61687545D01*
X137741384Y-61696934D01*
X137741381Y-61696939D01*
X137740827Y-61697900D01*
X137721125Y-61723573D01*
X134720077Y-64724621D01*
X134666895Y-64756044D01*
X134605151Y-64757910D01*
X134550169Y-64729755D01*
X134477860Y-64665695D01*
X134477855Y-64665692D01*
X134472240Y-64660717D01*
X134465595Y-64657229D01*
X134465593Y-64657228D01*
X134339006Y-64590789D01*
X134339002Y-64590787D01*
X134332365Y-64587304D01*
X134325087Y-64585510D01*
X134325084Y-64585509D01*
X134186267Y-64551294D01*
X134186260Y-64551293D01*
X134178985Y-64549500D01*
X134021015Y-64549500D01*
X134013740Y-64551292D01*
X134013732Y-64551294D01*
X133874915Y-64585509D01*
X133874909Y-64585510D01*
X133867635Y-64587304D01*
X133861000Y-64590786D01*
X133860993Y-64590789D01*
X133734406Y-64657228D01*
X133734400Y-64657231D01*
X133727760Y-64660717D01*
X133722148Y-64665687D01*
X133722143Y-64665692D01*
X133615127Y-64760499D01*
X133615122Y-64760503D01*
X133609517Y-64765470D01*
X133605262Y-64771634D01*
X133605257Y-64771640D01*
X133524043Y-64889300D01*
X133524040Y-64889303D01*
X133519780Y-64895477D01*
X133517120Y-64902488D01*
X133517118Y-64902494D01*
X133466423Y-65036167D01*
X133463763Y-65043182D01*
X133462859Y-65050622D01*
X133462858Y-65050629D01*
X133457984Y-65090776D01*
X133444722Y-65200000D01*
X133445626Y-65207445D01*
X133462858Y-65349370D01*
X133462859Y-65349375D01*
X133463763Y-65356818D01*
X133466422Y-65363831D01*
X133466423Y-65363832D01*
X133513425Y-65487768D01*
X133519780Y-65504523D01*
X133524043Y-65510699D01*
X133570113Y-65577444D01*
X133609517Y-65634530D01*
X133615126Y-65639499D01*
X133615127Y-65639500D01*
X133617307Y-65641431D01*
X133618574Y-65643391D01*
X133620106Y-65645120D01*
X133619843Y-65645352D01*
X133653469Y-65697356D01*
X133655482Y-65763924D01*
X133622766Y-65821932D01*
X133299268Y-66145430D01*
X133250258Y-66175565D01*
X133192923Y-66180336D01*
X133139606Y-66158718D01*
X133106384Y-66120635D01*
X133105789Y-66121046D01*
X133101525Y-66114869D01*
X133020311Y-65997209D01*
X133020310Y-65997208D01*
X133016052Y-65991039D01*
X133007520Y-65983480D01*
X132903425Y-65891261D01*
X132903423Y-65891259D01*
X132897809Y-65886286D01*
X132891164Y-65882798D01*
X132891162Y-65882797D01*
X132764575Y-65816358D01*
X132764571Y-65816356D01*
X132757934Y-65812873D01*
X132750656Y-65811079D01*
X132750653Y-65811078D01*
X132611836Y-65776863D01*
X132611829Y-65776862D01*
X132604554Y-65775069D01*
X132446584Y-65775069D01*
X132439309Y-65776861D01*
X132439301Y-65776863D01*
X132300484Y-65811078D01*
X132300478Y-65811079D01*
X132293204Y-65812873D01*
X132286569Y-65816355D01*
X132286562Y-65816358D01*
X132159975Y-65882797D01*
X132159969Y-65882800D01*
X132153329Y-65886286D01*
X132147717Y-65891256D01*
X132147712Y-65891261D01*
X132040696Y-65986068D01*
X132040691Y-65986072D01*
X132035086Y-65991039D01*
X132030831Y-65997203D01*
X132030826Y-65997209D01*
X131949612Y-66114869D01*
X131949611Y-66114871D01*
X131945349Y-66121046D01*
X131942689Y-66128057D01*
X131942687Y-66128063D01*
X131891992Y-66261736D01*
X131889332Y-66268751D01*
X131888428Y-66276191D01*
X131888427Y-66276198D01*
X131884023Y-66312471D01*
X131870291Y-66425569D01*
X131871195Y-66433014D01*
X131871195Y-66433015D01*
X131884121Y-66539477D01*
X131878242Y-66594873D01*
X131848706Y-66642104D01*
X130683714Y-67807096D01*
X130675742Y-67814402D01*
X130655114Y-67831711D01*
X130655112Y-67831712D01*
X130646806Y-67838683D01*
X130641384Y-67848072D01*
X130641380Y-67848078D01*
X130627914Y-67871402D01*
X130622112Y-67880509D01*
X130600446Y-67911454D01*
X130597639Y-67921926D01*
X130596087Y-67925256D01*
X130594831Y-67928704D01*
X130589412Y-67938093D01*
X130587529Y-67948769D01*
X130587528Y-67948773D01*
X130582853Y-67975287D01*
X130580514Y-67985835D01*
X130570736Y-68022331D01*
X130571681Y-68033134D01*
X130571681Y-68033137D01*
X130574028Y-68059957D01*
X130574500Y-68070765D01*
X130574500Y-69868407D01*
X130565061Y-69915860D01*
X130538181Y-69956088D01*
X129680889Y-70813378D01*
X129631882Y-70843512D01*
X129574551Y-70848285D01*
X129521235Y-70826672D01*
X129487659Y-70788190D01*
X129487166Y-70788531D01*
X129484174Y-70784196D01*
X129484172Y-70784194D01*
X129417354Y-70687390D01*
X129401688Y-70664694D01*
X129401687Y-70664693D01*
X129397429Y-70658524D01*
X129379953Y-70643042D01*
X129284802Y-70558746D01*
X129284800Y-70558744D01*
X129279186Y-70553771D01*
X129272541Y-70550283D01*
X129272539Y-70550282D01*
X129145952Y-70483843D01*
X129145948Y-70483841D01*
X129139311Y-70480358D01*
X129132033Y-70478564D01*
X129132030Y-70478563D01*
X128993213Y-70444348D01*
X128993206Y-70444347D01*
X128985931Y-70442554D01*
X128827961Y-70442554D01*
X128820686Y-70444346D01*
X128820678Y-70444348D01*
X128681861Y-70478563D01*
X128681855Y-70478564D01*
X128674581Y-70480358D01*
X128667946Y-70483840D01*
X128667939Y-70483843D01*
X128541352Y-70550282D01*
X128541346Y-70550285D01*
X128534706Y-70553771D01*
X128529094Y-70558741D01*
X128529089Y-70558746D01*
X128422073Y-70653553D01*
X128422068Y-70653557D01*
X128416463Y-70658524D01*
X128412208Y-70664688D01*
X128412203Y-70664694D01*
X128330989Y-70782354D01*
X128330986Y-70782357D01*
X128326726Y-70788531D01*
X128324066Y-70795542D01*
X128324064Y-70795548D01*
X128273369Y-70929221D01*
X128270709Y-70936236D01*
X128269805Y-70943676D01*
X128269804Y-70943683D01*
X128260331Y-71021706D01*
X128251668Y-71093054D01*
X128252572Y-71100499D01*
X128252572Y-71100500D01*
X128265498Y-71206961D01*
X128259619Y-71262357D01*
X128230083Y-71309588D01*
X126651493Y-72888181D01*
X126611265Y-72915061D01*
X126563812Y-72924500D01*
X118431162Y-72924500D01*
X118383709Y-72915061D01*
X118343481Y-72888181D01*
X116811819Y-71356519D01*
X116784939Y-71316291D01*
X116775500Y-71268838D01*
X116775500Y-68074653D01*
X116775972Y-68063845D01*
X116778318Y-68037027D01*
X116779264Y-68026219D01*
X116769481Y-67989711D01*
X116767145Y-67979169D01*
X116762472Y-67952667D01*
X116760588Y-67941981D01*
X116755160Y-67932581D01*
X116753910Y-67929145D01*
X116752363Y-67925827D01*
X116749554Y-67915342D01*
X116727892Y-67884405D01*
X116722080Y-67875283D01*
X116703194Y-67842571D01*
X116694881Y-67835596D01*
X116694880Y-67835594D01*
X116674255Y-67818288D01*
X116666280Y-67810980D01*
X115789017Y-66933717D01*
X115781708Y-66925741D01*
X115764400Y-66905114D01*
X115757429Y-66896806D01*
X115748036Y-66891383D01*
X115748034Y-66891381D01*
X115724709Y-66877914D01*
X115715601Y-66872112D01*
X115684658Y-66850446D01*
X115674180Y-66847638D01*
X115670847Y-66846084D01*
X115667406Y-66844831D01*
X115658019Y-66839412D01*
X115647340Y-66837528D01*
X115647335Y-66837527D01*
X115620826Y-66832852D01*
X115610271Y-66830513D01*
X115584257Y-66823543D01*
X115573781Y-66820736D01*
X115562977Y-66821681D01*
X115562974Y-66821681D01*
X115536155Y-66824028D01*
X115525347Y-66824500D01*
X111874653Y-66824500D01*
X111863845Y-66824028D01*
X111837025Y-66821681D01*
X111837022Y-66821681D01*
X111826219Y-66820736D01*
X111789723Y-66830514D01*
X111779175Y-66832853D01*
X111752661Y-66837528D01*
X111752657Y-66837529D01*
X111741981Y-66839412D01*
X111732592Y-66844831D01*
X111729144Y-66846087D01*
X111725814Y-66847639D01*
X111715342Y-66850446D01*
X111684397Y-66872112D01*
X111675290Y-66877914D01*
X111651966Y-66891380D01*
X111651960Y-66891384D01*
X111642571Y-66896806D01*
X111635600Y-66905112D01*
X111635599Y-66905114D01*
X111618288Y-66925744D01*
X111610982Y-66933716D01*
X111260480Y-67284218D01*
X111203254Y-67316739D01*
X111137446Y-67315390D01*
X111081599Y-67280553D01*
X111051450Y-67222042D01*
X111055493Y-67156346D01*
X111254889Y-66574394D01*
X111294919Y-66517612D01*
X111359208Y-66491272D01*
X116753416Y-65923349D01*
X116765016Y-65922677D01*
X116897664Y-65921241D01*
X116920860Y-65923176D01*
X117017463Y-65940483D01*
X117045645Y-65945532D01*
X117068083Y-65951774D01*
X117186485Y-65997069D01*
X117207362Y-66007398D01*
X117315200Y-66074033D01*
X117333771Y-66088078D01*
X117427258Y-66173713D01*
X117442869Y-66190978D01*
X117518692Y-66292584D01*
X117530798Y-66312460D01*
X117586287Y-66426459D01*
X117594465Y-66448256D01*
X117627652Y-66570599D01*
X117631612Y-66593551D01*
X117641836Y-66726457D01*
X117642182Y-66738102D01*
X117641606Y-66771486D01*
X117641607Y-66771490D01*
X117585886Y-70004932D01*
X117583367Y-70151104D01*
X117583367Y-70151105D01*
X117582944Y-70175678D01*
X117582944Y-70175681D01*
X117582302Y-70212883D01*
X117582302Y-70212897D01*
X117582291Y-70213568D01*
X117582336Y-70213788D01*
X117582353Y-70214206D01*
X117580451Y-70325965D01*
X117580385Y-70329865D01*
X117580807Y-70333731D01*
X117580808Y-70333741D01*
X117610140Y-70602142D01*
X117610565Y-70606028D01*
X117611473Y-70609822D01*
X117611474Y-70609827D01*
X117674321Y-70872401D01*
X117674325Y-70872415D01*
X117675232Y-70876203D01*
X117676610Y-70879853D01*
X117676612Y-70879859D01*
X117754296Y-71085609D01*
X117773360Y-71136102D01*
X117903391Y-71381598D01*
X117922546Y-71408820D01*
X117956729Y-71457399D01*
X118063261Y-71608794D01*
X118081508Y-71628807D01*
X118219114Y-71779735D01*
X118250431Y-71814083D01*
X118253402Y-71816613D01*
X118253407Y-71816618D01*
X118305188Y-71860717D01*
X118461931Y-71994207D01*
X118694402Y-72146304D01*
X118944154Y-72267961D01*
X119207222Y-72357247D01*
X119479429Y-72412743D01*
X119756453Y-72433569D01*
X120033898Y-72419395D01*
X120307358Y-72370444D01*
X120572492Y-72287495D01*
X120678241Y-72239112D01*
X120678267Y-72239107D01*
X120698803Y-72229706D01*
X120735066Y-72213106D01*
X120735067Y-72213104D01*
X125503095Y-70030338D01*
X125503104Y-70030330D01*
X125503187Y-70030286D01*
X125596251Y-69987725D01*
X125810367Y-69858555D01*
X126008474Y-69705963D01*
X126188023Y-69531914D01*
X126346701Y-69338647D01*
X126482467Y-69128650D01*
X126535977Y-69020654D01*
X126537979Y-69016619D01*
X126540654Y-69017946D01*
X126540654Y-69017944D01*
X126537980Y-69016618D01*
X126548146Y-68996120D01*
X126548325Y-68995760D01*
X126548326Y-68995758D01*
X126555699Y-68980890D01*
X126555699Y-68980889D01*
X126664561Y-68761382D01*
X130325371Y-61379790D01*
X130325373Y-61379789D01*
X130343093Y-61344059D01*
X130343100Y-61344063D01*
X130392110Y-61245178D01*
X130469899Y-61038611D01*
X130513267Y-60875542D01*
X131321376Y-60875542D01*
X131321758Y-60880396D01*
X131334209Y-61038611D01*
X131340524Y-61118844D01*
X131341658Y-61123568D01*
X131341659Y-61123573D01*
X131371521Y-61247955D01*
X131397498Y-61356154D01*
X131399363Y-61360658D01*
X131399364Y-61360659D01*
X131489027Y-61577128D01*
X131489031Y-61577136D01*
X131490893Y-61581631D01*
X131548637Y-61675860D01*
X131612297Y-61779745D01*
X131618411Y-61789721D01*
X131621575Y-61793426D01*
X131621579Y-61793431D01*
X131773744Y-61971593D01*
X131776911Y-61975301D01*
X131780618Y-61978467D01*
X131958780Y-62130632D01*
X131958783Y-62130634D01*
X131962491Y-62133801D01*
X132170581Y-62261319D01*
X132175080Y-62263182D01*
X132175083Y-62263184D01*
X132236270Y-62288528D01*
X132396058Y-62354714D01*
X132633368Y-62411688D01*
X132876670Y-62430836D01*
X133119972Y-62411688D01*
X133357282Y-62354714D01*
X133582759Y-62261319D01*
X133790849Y-62133801D01*
X133976429Y-61975301D01*
X134134929Y-61789721D01*
X134262447Y-61581631D01*
X134355842Y-61356154D01*
X134412816Y-61118844D01*
X134431964Y-60875542D01*
X134412816Y-60632240D01*
X134355842Y-60394930D01*
X134262447Y-60169453D01*
X134134929Y-59961363D01*
X133976429Y-59775783D01*
X133923932Y-59730946D01*
X133794559Y-59620451D01*
X133794554Y-59620447D01*
X133790849Y-59617283D01*
X133786693Y-59614736D01*
X133786690Y-59614734D01*
X133695044Y-59558573D01*
X133582759Y-59489765D01*
X133578264Y-59487903D01*
X133578256Y-59487899D01*
X133361787Y-59398236D01*
X133361786Y-59398235D01*
X133357282Y-59396370D01*
X133352545Y-59395232D01*
X133352543Y-59395232D01*
X133124701Y-59340531D01*
X133124696Y-59340530D01*
X133119972Y-59339396D01*
X133115125Y-59339014D01*
X133115122Y-59339014D01*
X132881524Y-59320630D01*
X132876670Y-59320248D01*
X132871816Y-59320630D01*
X132638217Y-59339014D01*
X132638212Y-59339014D01*
X132633368Y-59339396D01*
X132628645Y-59340529D01*
X132628638Y-59340531D01*
X132400796Y-59395232D01*
X132400790Y-59395233D01*
X132396058Y-59396370D01*
X132391556Y-59398234D01*
X132391552Y-59398236D01*
X132175083Y-59487899D01*
X132175070Y-59487905D01*
X132170581Y-59489765D01*
X132166427Y-59492310D01*
X132166426Y-59492311D01*
X131966649Y-59614734D01*
X131966640Y-59614740D01*
X131962491Y-59617283D01*
X131958791Y-59620442D01*
X131958780Y-59620451D01*
X131780618Y-59772616D01*
X131780611Y-59772622D01*
X131776911Y-59775783D01*
X131773750Y-59779483D01*
X131773744Y-59779490D01*
X131621579Y-59957652D01*
X131621570Y-59957663D01*
X131618411Y-59961363D01*
X131615868Y-59965512D01*
X131615862Y-59965521D01*
X131532762Y-60101129D01*
X131490893Y-60169453D01*
X131489033Y-60173942D01*
X131489027Y-60173955D01*
X131399364Y-60390424D01*
X131397498Y-60394930D01*
X131396361Y-60399662D01*
X131396360Y-60399668D01*
X131341659Y-60627510D01*
X131341657Y-60627517D01*
X131340524Y-60632240D01*
X131340142Y-60637084D01*
X131340142Y-60637089D01*
X131337999Y-60664322D01*
X131321376Y-60875542D01*
X130513267Y-60875542D01*
X130526629Y-60825298D01*
X130561731Y-60607379D01*
X130566967Y-60519791D01*
X130566976Y-60519764D01*
X130849834Y-55770794D01*
X131458389Y-55770794D01*
X131478917Y-55992330D01*
X131480486Y-55997844D01*
X131538233Y-56200807D01*
X131538236Y-56200815D01*
X131539803Y-56206322D01*
X131542355Y-56211447D01*
X131542357Y-56211452D01*
X131636419Y-56400353D01*
X131636421Y-56400357D01*
X131638974Y-56405483D01*
X131642423Y-56410050D01*
X131642426Y-56410055D01*
X131769593Y-56578452D01*
X131769598Y-56578457D01*
X131773051Y-56583030D01*
X131777287Y-56586891D01*
X131777291Y-56586896D01*
X131831339Y-56636167D01*
X131937470Y-56732918D01*
X132126631Y-56850041D01*
X132334092Y-56930412D01*
X132552789Y-56971294D01*
X132769546Y-56971294D01*
X132775275Y-56971294D01*
X132993972Y-56930412D01*
X133201433Y-56850041D01*
X133390594Y-56732918D01*
X133555013Y-56583030D01*
X133689090Y-56405483D01*
X133788261Y-56206322D01*
X133849147Y-55992330D01*
X133869675Y-55770794D01*
X133849147Y-55549258D01*
X133788261Y-55335266D01*
X133689090Y-55136105D01*
X133624421Y-55050469D01*
X133558470Y-54963135D01*
X133558466Y-54963131D01*
X133555013Y-54958558D01*
X133550776Y-54954695D01*
X133550772Y-54954691D01*
X133394828Y-54812530D01*
X133394829Y-54812530D01*
X133390594Y-54808670D01*
X133385724Y-54805655D01*
X133385722Y-54805653D01*
X133206307Y-54694565D01*
X133206308Y-54694565D01*
X133201433Y-54691547D01*
X132993972Y-54611176D01*
X132988334Y-54610122D01*
X132780904Y-54571346D01*
X132780901Y-54571345D01*
X132775275Y-54570294D01*
X132552789Y-54570294D01*
X132547163Y-54571345D01*
X132547159Y-54571346D01*
X132339729Y-54610122D01*
X132339726Y-54610122D01*
X132334092Y-54611176D01*
X132328749Y-54613245D01*
X132328745Y-54613247D01*
X132131973Y-54689477D01*
X132131968Y-54689479D01*
X132126631Y-54691547D01*
X132121759Y-54694563D01*
X132121756Y-54694565D01*
X131942341Y-54805653D01*
X131942333Y-54805658D01*
X131937470Y-54808670D01*
X131933239Y-54812526D01*
X131933235Y-54812530D01*
X131777291Y-54954691D01*
X131777281Y-54954701D01*
X131773051Y-54958558D01*
X131769602Y-54963124D01*
X131769593Y-54963135D01*
X131642426Y-55131532D01*
X131642419Y-55131542D01*
X131638974Y-55136105D01*
X131636424Y-55141225D01*
X131636419Y-55141234D01*
X131542357Y-55330135D01*
X131542353Y-55330143D01*
X131539803Y-55335266D01*
X131538237Y-55340769D01*
X131538233Y-55340780D01*
X131514583Y-55423904D01*
X131478917Y-55549258D01*
X131458389Y-55770794D01*
X130849834Y-55770794D01*
X130981037Y-53567989D01*
X130982470Y-53555204D01*
X131006356Y-53410463D01*
X131013164Y-53385633D01*
X131064075Y-53255017D01*
X131075871Y-53232122D01*
X131152665Y-53114849D01*
X131168932Y-53094888D01*
X131268307Y-52996001D01*
X131288346Y-52979833D01*
X131406010Y-52903611D01*
X131428953Y-52891935D01*
X131559820Y-52841670D01*
X131584688Y-52834984D01*
X131723115Y-52812841D01*
X131748825Y-52811437D01*
X131888837Y-52818371D01*
X131914290Y-52822310D01*
X131950433Y-52831831D01*
X132056133Y-52859677D01*
X132068430Y-52863613D01*
X132180958Y-52906226D01*
X132428840Y-52959779D01*
X132681924Y-52975977D01*
X132934612Y-52954462D01*
X133181314Y-52895711D01*
X133416575Y-52801022D01*
X133635192Y-52672490D01*
X133832329Y-52512958D01*
X134003627Y-52325953D01*
X134145297Y-52115612D01*
X134254206Y-51886587D01*
X134327945Y-51643942D01*
X134364884Y-51393045D01*
X134364204Y-51139445D01*
X134325922Y-50888749D01*
X134250885Y-50646503D01*
X134140750Y-50418065D01*
X133997956Y-50208486D01*
X133825658Y-50022401D01*
X133780693Y-49986410D01*
X133631269Y-49866808D01*
X133631264Y-49866805D01*
X133627669Y-49863927D01*
X133623683Y-49861612D01*
X133623680Y-49861610D01*
X133412354Y-49738883D01*
X133412349Y-49738880D01*
X133408367Y-49736568D01*
X133172602Y-49643141D01*
X133168110Y-49642096D01*
X133168105Y-49642095D01*
X132930077Y-49586755D01*
X132930068Y-49586753D01*
X132925588Y-49585712D01*
X132921002Y-49585346D01*
X132920994Y-49585345D01*
X132677392Y-49565919D01*
X132677390Y-49565918D01*
X132672789Y-49565552D01*
X132555798Y-49573712D01*
X132536846Y-49573581D01*
X132474590Y-49568379D01*
X132437937Y-49559566D01*
X132388977Y-49539523D01*
X132356670Y-49520108D01*
X132315993Y-49486281D01*
X132291011Y-49458054D01*
X132262379Y-49413572D01*
X132247032Y-49379145D01*
X132233085Y-49328107D01*
X132228791Y-49290660D01*
X132230824Y-49237791D01*
X132237979Y-49200791D01*
X132259153Y-49141610D01*
X132266849Y-49124369D01*
X132825079Y-48093269D01*
X132972426Y-47821107D01*
X133018006Y-47773615D01*
X133081471Y-47756143D01*
X134314570Y-47756143D01*
X134332353Y-47757425D01*
G37*
%TD.AperFunction*%
%TA.AperFunction,Conductor*%
G36*
X115261265Y-67834939D02*
G01*
X115301493Y-67861819D01*
X115738181Y-68298508D01*
X115765061Y-68338736D01*
X115774500Y-68386189D01*
X115774500Y-71580373D01*
X115774028Y-71591181D01*
X115771681Y-71618000D01*
X115771681Y-71618003D01*
X115770736Y-71628807D01*
X115773543Y-71639283D01*
X115780513Y-71665297D01*
X115782852Y-71675852D01*
X115787527Y-71702361D01*
X115787528Y-71702366D01*
X115789412Y-71713045D01*
X115794831Y-71722432D01*
X115796084Y-71725873D01*
X115797638Y-71729206D01*
X115800446Y-71739684D01*
X115822112Y-71770627D01*
X115827914Y-71779735D01*
X115841381Y-71803060D01*
X115841383Y-71803062D01*
X115846806Y-71812455D01*
X115875757Y-71836747D01*
X115883718Y-71844044D01*
X117452493Y-73412819D01*
X117482743Y-73462182D01*
X117487285Y-73519898D01*
X117465130Y-73573385D01*
X117421107Y-73610985D01*
X117364812Y-73624500D01*
X116545127Y-73624500D01*
X116534319Y-73624028D01*
X116507499Y-73621681D01*
X116507496Y-73621681D01*
X116496693Y-73620736D01*
X116460197Y-73630514D01*
X116449649Y-73632853D01*
X116423135Y-73637528D01*
X116423131Y-73637529D01*
X116412455Y-73639412D01*
X116403066Y-73644831D01*
X116399618Y-73646087D01*
X116396288Y-73647639D01*
X116385816Y-73650446D01*
X116354871Y-73672112D01*
X116345764Y-73677914D01*
X116322440Y-73691380D01*
X116322434Y-73691384D01*
X116313045Y-73696806D01*
X116306596Y-73704491D01*
X116255491Y-73730014D01*
X116197761Y-73729627D01*
X116186271Y-73726795D01*
X116186264Y-73726794D01*
X116178985Y-73725000D01*
X116021015Y-73725000D01*
X116013740Y-73726792D01*
X116013732Y-73726794D01*
X115874915Y-73761009D01*
X115874909Y-73761010D01*
X115867635Y-73762804D01*
X115861000Y-73766286D01*
X115860993Y-73766289D01*
X115734406Y-73832728D01*
X115734400Y-73832731D01*
X115727760Y-73836217D01*
X115722148Y-73841187D01*
X115722143Y-73841192D01*
X115615127Y-73935999D01*
X115615122Y-73936003D01*
X115609517Y-73940970D01*
X115605262Y-73947134D01*
X115605257Y-73947140D01*
X115524043Y-74064800D01*
X115524040Y-74064803D01*
X115519780Y-74070977D01*
X115517120Y-74077988D01*
X115517118Y-74077994D01*
X115466423Y-74211665D01*
X115466420Y-74211673D01*
X115463763Y-74218682D01*
X115462859Y-74226124D01*
X115462858Y-74226130D01*
X115458085Y-74265446D01*
X115437039Y-74320940D01*
X115392615Y-74360296D01*
X115334989Y-74374500D01*
X113786188Y-74374500D01*
X113738735Y-74365061D01*
X113698507Y-74338181D01*
X113361818Y-74001492D01*
X113334938Y-73961264D01*
X113325499Y-73913811D01*
X113325499Y-73510152D01*
X113334938Y-73462698D01*
X113361819Y-73422469D01*
X113396777Y-73399112D01*
X113402539Y-73397966D01*
X113423064Y-73384251D01*
X113474853Y-73364540D01*
X113530060Y-73369356D01*
X113577656Y-73397739D01*
X113608135Y-73444022D01*
X113642246Y-73535477D01*
X113650661Y-73550889D01*
X113726197Y-73651792D01*
X113738606Y-73664201D01*
X113839509Y-73739737D01*
X113854921Y-73748152D01*
X113974057Y-73792588D01*
X113989031Y-73796126D01*
X114037584Y-73801346D01*
X114044181Y-73801700D01*
X114228773Y-73801700D01*
X114241648Y-73798249D01*
X114245099Y-73785374D01*
X114745099Y-73785374D01*
X114748549Y-73798249D01*
X114761425Y-73801700D01*
X114946017Y-73801700D01*
X114952613Y-73801346D01*
X115001166Y-73796126D01*
X115016140Y-73792588D01*
X115135276Y-73748152D01*
X115150688Y-73739737D01*
X115251591Y-73664201D01*
X115264000Y-73651792D01*
X115339536Y-73550889D01*
X115347951Y-73535477D01*
X115392387Y-73416341D01*
X115395925Y-73401367D01*
X115401145Y-73352814D01*
X115401499Y-73346218D01*
X115401499Y-72666326D01*
X115398048Y-72653450D01*
X115385173Y-72650000D01*
X114761425Y-72650000D01*
X114748549Y-72653450D01*
X114745099Y-72666326D01*
X114745099Y-73785374D01*
X114245099Y-73785374D01*
X114245099Y-72133674D01*
X114745099Y-72133674D01*
X114748549Y-72146549D01*
X114761425Y-72150000D01*
X115385173Y-72150000D01*
X115398048Y-72146549D01*
X115401499Y-72133674D01*
X115401499Y-71453782D01*
X115401145Y-71447185D01*
X115395925Y-71398632D01*
X115392387Y-71383658D01*
X115347951Y-71264522D01*
X115339536Y-71249110D01*
X115264000Y-71148207D01*
X115257274Y-71141481D01*
X115225180Y-71085894D01*
X115225180Y-71021706D01*
X115257274Y-70966119D01*
X115264000Y-70959392D01*
X115339536Y-70858489D01*
X115347951Y-70843077D01*
X115392387Y-70723941D01*
X115395925Y-70708967D01*
X115401145Y-70660414D01*
X115401499Y-70653818D01*
X115401499Y-69973926D01*
X115398048Y-69961050D01*
X115385173Y-69957600D01*
X114761425Y-69957600D01*
X114748549Y-69961050D01*
X114745099Y-69973926D01*
X114745099Y-72133674D01*
X114245099Y-72133674D01*
X114245099Y-69441274D01*
X114745099Y-69441274D01*
X114748549Y-69454149D01*
X114761425Y-69457600D01*
X115385173Y-69457600D01*
X115398048Y-69454149D01*
X115401499Y-69441274D01*
X115401499Y-68761382D01*
X115401145Y-68754785D01*
X115395925Y-68706232D01*
X115392387Y-68691258D01*
X115347951Y-68572122D01*
X115339536Y-68556710D01*
X115264000Y-68455807D01*
X115251591Y-68443398D01*
X115150688Y-68367862D01*
X115135276Y-68359447D01*
X115016140Y-68315011D01*
X115001166Y-68311473D01*
X114952613Y-68306253D01*
X114946017Y-68305900D01*
X114761425Y-68305900D01*
X114748549Y-68309350D01*
X114745099Y-68322226D01*
X114745099Y-69441274D01*
X114245099Y-69441274D01*
X114245099Y-68322226D01*
X114241648Y-68309349D01*
X114213577Y-68301827D01*
X114162514Y-68274035D01*
X114129730Y-68226024D01*
X114106960Y-68165984D01*
X114080220Y-68095477D01*
X114028081Y-68019940D01*
X114006357Y-67956987D01*
X114020335Y-67891874D01*
X114065981Y-67843383D01*
X114130131Y-67825500D01*
X115213812Y-67825500D01*
X115261265Y-67834939D01*
G37*
%TD.AperFunction*%
%TA.AperFunction,Conductor*%
G36*
X112934019Y-67843383D02*
G01*
X112979665Y-67891874D01*
X112993643Y-67956987D01*
X112971919Y-68019940D01*
X112924043Y-68089300D01*
X112924040Y-68089303D01*
X112919780Y-68095477D01*
X112917120Y-68102488D01*
X112917118Y-68102494D01*
X112873561Y-68217346D01*
X112863763Y-68243182D01*
X112862859Y-68250620D01*
X112862858Y-68250628D01*
X112851731Y-68342271D01*
X112836436Y-68388602D01*
X112804452Y-68425446D01*
X112760730Y-68447099D01*
X112753448Y-68449050D01*
X112749998Y-68461926D01*
X112749998Y-70953274D01*
X112753448Y-70966149D01*
X112766324Y-70969600D01*
X112849316Y-70969600D01*
X112855912Y-70969246D01*
X112904465Y-70964026D01*
X112919439Y-70960488D01*
X113038575Y-70916052D01*
X113053987Y-70907637D01*
X113154889Y-70832102D01*
X113167298Y-70819692D01*
X113204658Y-70769788D01*
X113248420Y-70733216D01*
X113303924Y-70720100D01*
X113510283Y-70720100D01*
X113559096Y-70730112D01*
X113600026Y-70758530D01*
X113626465Y-70800767D01*
X113642246Y-70843077D01*
X113650661Y-70858489D01*
X113726197Y-70959392D01*
X113732924Y-70966119D01*
X113765018Y-71021706D01*
X113765018Y-71085894D01*
X113732924Y-71141481D01*
X113726197Y-71148207D01*
X113650661Y-71249110D01*
X113642247Y-71264520D01*
X113608135Y-71355978D01*
X113577657Y-71402259D01*
X113530062Y-71430643D01*
X113474856Y-71435460D01*
X113423065Y-71415748D01*
X113412697Y-71408821D01*
X113412696Y-71408820D01*
X113402539Y-71402034D01*
X113390561Y-71399651D01*
X113390558Y-71399650D01*
X113335452Y-71388689D01*
X113335448Y-71388688D01*
X113329473Y-71387500D01*
X112670525Y-71387500D01*
X112664550Y-71388688D01*
X112664545Y-71388689D01*
X112609439Y-71399650D01*
X112609434Y-71399651D01*
X112597459Y-71402034D01*
X112587306Y-71408817D01*
X112587303Y-71408819D01*
X112568888Y-71421124D01*
X112524189Y-71439638D01*
X112475809Y-71439638D01*
X112431110Y-71421124D01*
X112412694Y-71408819D01*
X112412693Y-71408818D01*
X112402539Y-71402034D01*
X112390561Y-71399651D01*
X112390558Y-71399650D01*
X112335452Y-71388689D01*
X112335448Y-71388688D01*
X112329473Y-71387500D01*
X111670525Y-71387500D01*
X111664550Y-71388688D01*
X111664545Y-71388689D01*
X111609439Y-71399650D01*
X111609434Y-71399651D01*
X111597459Y-71402034D01*
X111587305Y-71408817D01*
X111587301Y-71408820D01*
X111568885Y-71421125D01*
X111524187Y-71439638D01*
X111475807Y-71439637D01*
X111431109Y-71421124D01*
X111412693Y-71408819D01*
X111412692Y-71408818D01*
X111402538Y-71402034D01*
X111390560Y-71399651D01*
X111390557Y-71399650D01*
X111335451Y-71388689D01*
X111335447Y-71388688D01*
X111329472Y-71387500D01*
X110670524Y-71387500D01*
X110664544Y-71388689D01*
X110658488Y-71389286D01*
X110658349Y-71387882D01*
X110600850Y-71383857D01*
X110547089Y-71346895D01*
X110519531Y-71287760D01*
X110525805Y-71222822D01*
X110536237Y-71195316D01*
X110555278Y-71038498D01*
X110536237Y-70881680D01*
X110533575Y-70874661D01*
X110533357Y-70873776D01*
X110532516Y-70818076D01*
X110556143Y-70767627D01*
X110599471Y-70732613D01*
X110653754Y-70720100D01*
X110823378Y-70720100D01*
X110829473Y-70720100D01*
X110902539Y-70705566D01*
X110931108Y-70686476D01*
X110975807Y-70667962D01*
X111024189Y-70667961D01*
X111068888Y-70686476D01*
X111087300Y-70698778D01*
X111087302Y-70698778D01*
X111097460Y-70705566D01*
X111170526Y-70720100D01*
X111176621Y-70720100D01*
X111696072Y-70720100D01*
X111751576Y-70733216D01*
X111795338Y-70769788D01*
X111832697Y-70819692D01*
X111845106Y-70832102D01*
X111946008Y-70907637D01*
X111961420Y-70916052D01*
X112080556Y-70960488D01*
X112095530Y-70964026D01*
X112144083Y-70969246D01*
X112150680Y-70969600D01*
X112233672Y-70969600D01*
X112246547Y-70966149D01*
X112249998Y-70953274D01*
X112249998Y-68461926D01*
X112246547Y-68449050D01*
X112233672Y-68445600D01*
X112150680Y-68445600D01*
X112144083Y-68445953D01*
X112095530Y-68451173D01*
X112080556Y-68454711D01*
X111992833Y-68487431D01*
X111934046Y-68494282D01*
X111878780Y-68473105D01*
X111839624Y-68428724D01*
X111825500Y-68371249D01*
X111825500Y-68186188D01*
X111834939Y-68138735D01*
X111861819Y-68098507D01*
X112098507Y-67861819D01*
X112138735Y-67834939D01*
X112186188Y-67825500D01*
X112869869Y-67825500D01*
X112934019Y-67843383D01*
G37*
%TD.AperFunction*%
%TD*%
%TA.AperFunction,Conductor*%
%TO.N,GNDA*%
G36*
X102101633Y-65772321D02*
G01*
X106189456Y-66187145D01*
X106253366Y-66212866D01*
X106293683Y-66268729D01*
X106922627Y-68026221D01*
X106922681Y-68026306D01*
X106922700Y-68026352D01*
X106946383Y-68092405D01*
X106948665Y-68096602D01*
X106948667Y-68096605D01*
X107032876Y-68251438D01*
X107032880Y-68251444D01*
X107035168Y-68255651D01*
X107038079Y-68259459D01*
X107145107Y-68399484D01*
X107145112Y-68399490D01*
X107148017Y-68403290D01*
X107232213Y-68483905D01*
X107266933Y-68544119D01*
X107263799Y-68613556D01*
X107223795Y-68670397D01*
X107170002Y-68692469D01*
X107170526Y-68695100D01*
X107109440Y-68707250D01*
X107109435Y-68707251D01*
X107097460Y-68709634D01*
X107087306Y-68716417D01*
X107087302Y-68716420D01*
X107068886Y-68728725D01*
X107024188Y-68747238D01*
X106975808Y-68747237D01*
X106931110Y-68728724D01*
X106912694Y-68716419D01*
X106912693Y-68716418D01*
X106902539Y-68709634D01*
X106890561Y-68707251D01*
X106890558Y-68707250D01*
X106835452Y-68696289D01*
X106835448Y-68696288D01*
X106829473Y-68695100D01*
X106170525Y-68695100D01*
X106164550Y-68696288D01*
X106164545Y-68696289D01*
X106109439Y-68707250D01*
X106109434Y-68707251D01*
X106097459Y-68709634D01*
X106087306Y-68716417D01*
X106087303Y-68716419D01*
X106068888Y-68728724D01*
X106024189Y-68747238D01*
X105975809Y-68747238D01*
X105931110Y-68728724D01*
X105912694Y-68716419D01*
X105912693Y-68716418D01*
X105902539Y-68709634D01*
X105890561Y-68707251D01*
X105890558Y-68707250D01*
X105835452Y-68696289D01*
X105835448Y-68696288D01*
X105829473Y-68695100D01*
X105170525Y-68695100D01*
X105164550Y-68696288D01*
X105164545Y-68696289D01*
X105109439Y-68707250D01*
X105109434Y-68707251D01*
X105097459Y-68709634D01*
X105087304Y-68716418D01*
X105087297Y-68716422D01*
X105076930Y-68723349D01*
X105025139Y-68743060D01*
X104969933Y-68738242D01*
X104922339Y-68709858D01*
X104891862Y-68663577D01*
X104857751Y-68572122D01*
X104849336Y-68556710D01*
X104773800Y-68455807D01*
X104761391Y-68443398D01*
X104660488Y-68367862D01*
X104645076Y-68359447D01*
X104525940Y-68315011D01*
X104510966Y-68311473D01*
X104462413Y-68306253D01*
X104455817Y-68305900D01*
X104271225Y-68305900D01*
X104258349Y-68309350D01*
X104254899Y-68322226D01*
X104254899Y-72133674D01*
X104258349Y-72146549D01*
X104271225Y-72150000D01*
X105126000Y-72150000D01*
X105188000Y-72166613D01*
X105233387Y-72212000D01*
X105250000Y-72274000D01*
X105250000Y-72526000D01*
X105233387Y-72588000D01*
X105188000Y-72633387D01*
X105126000Y-72650000D01*
X104271225Y-72650000D01*
X104258349Y-72653450D01*
X104254899Y-72666326D01*
X104254899Y-73785374D01*
X104258349Y-73798249D01*
X104271225Y-73801700D01*
X104455817Y-73801700D01*
X104462413Y-73801346D01*
X104510966Y-73796126D01*
X104525940Y-73792588D01*
X104645076Y-73748152D01*
X104668273Y-73735487D01*
X104669629Y-73737971D01*
X104708332Y-73721498D01*
X104767294Y-73726180D01*
X104817380Y-73757641D01*
X104847193Y-73808725D01*
X104849952Y-73867808D01*
X104849817Y-73868490D01*
X104846689Y-73877233D01*
X104846308Y-73885770D01*
X104843731Y-73893916D01*
X104843663Y-73903201D01*
X104843663Y-73903202D01*
X104843312Y-73951131D01*
X104843192Y-73955736D01*
X104841061Y-74003616D01*
X104840648Y-74012903D01*
X104842387Y-74019582D01*
X104842758Y-74027159D01*
X104834236Y-75194568D01*
X104833653Y-75204249D01*
X104831554Y-75212068D01*
X104831895Y-75221349D01*
X104831895Y-75221352D01*
X104833584Y-75267282D01*
X104833665Y-75272737D01*
X104833545Y-75289200D01*
X104833545Y-75289208D01*
X104833512Y-75293832D01*
X104834167Y-75298407D01*
X104834365Y-75301330D01*
X104835164Y-75310230D01*
X104836204Y-75338491D01*
X104836546Y-75347780D01*
X104839608Y-75356548D01*
X104839610Y-75356558D01*
X104840534Y-75359202D01*
X104846213Y-75382494D01*
X104846610Y-75385267D01*
X104846612Y-75385274D01*
X104847929Y-75394465D01*
X104851896Y-75402860D01*
X104851897Y-75402861D01*
X104863980Y-75428427D01*
X104868938Y-75440534D01*
X104869173Y-75441207D01*
X104874879Y-75499479D01*
X104853211Y-75553873D01*
X104809001Y-75592262D01*
X104752105Y-75606085D01*
X104670476Y-75606085D01*
X104667458Y-75606382D01*
X104667442Y-75606383D01*
X104522214Y-75620687D01*
X104522206Y-75620688D01*
X104516150Y-75621285D01*
X104510326Y-75623051D01*
X104510319Y-75623053D01*
X104323961Y-75679584D01*
X104323959Y-75679584D01*
X104318130Y-75681353D01*
X104312764Y-75684221D01*
X104312750Y-75684227D01*
X104182881Y-75753645D01*
X104128341Y-75768225D01*
X104072989Y-75757114D01*
X104028300Y-75722615D01*
X104003537Y-75671880D01*
X103997375Y-75644881D01*
X103964185Y-75499468D01*
X103868333Y-75255241D01*
X103737151Y-75028027D01*
X103573570Y-74822903D01*
X103381244Y-74644451D01*
X103164469Y-74496656D01*
X103160283Y-74494640D01*
X102932267Y-74384833D01*
X102932261Y-74384830D01*
X102928088Y-74382821D01*
X102923666Y-74381457D01*
X102923656Y-74381453D01*
X102681813Y-74306855D01*
X102681808Y-74306853D01*
X102677380Y-74305488D01*
X102672800Y-74304797D01*
X102672793Y-74304796D01*
X102422530Y-74267074D01*
X102422519Y-74267073D01*
X102417947Y-74266384D01*
X102155583Y-74266384D01*
X102151011Y-74267073D01*
X102150999Y-74267074D01*
X101900736Y-74304796D01*
X101900726Y-74304798D01*
X101896150Y-74305488D01*
X101891724Y-74306852D01*
X101891716Y-74306855D01*
X101649873Y-74381453D01*
X101649858Y-74381458D01*
X101645442Y-74382821D01*
X101641273Y-74384828D01*
X101641262Y-74384833D01*
X101413246Y-74494640D01*
X101413239Y-74494643D01*
X101409061Y-74496656D01*
X101405228Y-74499269D01*
X101405225Y-74499271D01*
X101218367Y-74626669D01*
X101192286Y-74644451D01*
X101188894Y-74647597D01*
X101188888Y-74647603D01*
X101003361Y-74819747D01*
X100999960Y-74822903D01*
X100997071Y-74826525D01*
X100997067Y-74826530D01*
X100839271Y-75024400D01*
X100836379Y-75028027D01*
X100834060Y-75032043D01*
X100834059Y-75032045D01*
X100707518Y-75251219D01*
X100707512Y-75251230D01*
X100705197Y-75255241D01*
X100703504Y-75259554D01*
X100703499Y-75259565D01*
X100611041Y-75495145D01*
X100611038Y-75495152D01*
X100609345Y-75499468D01*
X100608313Y-75503986D01*
X100608312Y-75503992D01*
X100551994Y-75750734D01*
X100551992Y-75750742D01*
X100550963Y-75755254D01*
X100550616Y-75759873D01*
X100550616Y-75759879D01*
X100535430Y-75962530D01*
X100531357Y-76016884D01*
X100531704Y-76021515D01*
X100538604Y-76113598D01*
X100550963Y-76278514D01*
X100551993Y-76283027D01*
X100551994Y-76283033D01*
X100600484Y-76495477D01*
X100609345Y-76534300D01*
X100611040Y-76538618D01*
X100611041Y-76538622D01*
X100703499Y-76774202D01*
X100703502Y-76774208D01*
X100705197Y-76778527D01*
X100707515Y-76782542D01*
X100707518Y-76782548D01*
X100780248Y-76908520D01*
X100836379Y-77005741D01*
X100999960Y-77210865D01*
X101192286Y-77389317D01*
X101409061Y-77537112D01*
X101645442Y-77650947D01*
X101649870Y-77652312D01*
X101649873Y-77652314D01*
X101753302Y-77684217D01*
X101896150Y-77728280D01*
X102155583Y-77767384D01*
X102413312Y-77767384D01*
X102417947Y-77767384D01*
X102677380Y-77728280D01*
X102928088Y-77650947D01*
X103164469Y-77537112D01*
X103381244Y-77389317D01*
X103573570Y-77210865D01*
X103607943Y-77167762D01*
X103656229Y-77131021D01*
X103716173Y-77121591D01*
X103773414Y-77141732D01*
X103814245Y-77186622D01*
X103828888Y-77214017D01*
X103844399Y-77243035D01*
X103975674Y-77402995D01*
X104135634Y-77534270D01*
X104318130Y-77631817D01*
X104516150Y-77691885D01*
X104670476Y-77707085D01*
X104770642Y-77707085D01*
X104773692Y-77707085D01*
X104928018Y-77691885D01*
X105126038Y-77631817D01*
X105308534Y-77534270D01*
X105468494Y-77402995D01*
X105599769Y-77243035D01*
X105697316Y-77060539D01*
X105728151Y-76958887D01*
X105764741Y-76901930D01*
X105825793Y-76872677D01*
X105893111Y-76879851D01*
X105946627Y-76921310D01*
X106157376Y-77207237D01*
X106216878Y-77287964D01*
X106234861Y-77322814D01*
X106241062Y-77361536D01*
X106241062Y-78879783D01*
X106230089Y-78930783D01*
X106199111Y-78972756D01*
X106153611Y-78998274D01*
X106054674Y-79028791D01*
X106054662Y-79028795D01*
X106050239Y-79030160D01*
X106046070Y-79032167D01*
X106046059Y-79032172D01*
X105818043Y-79141979D01*
X105818036Y-79141982D01*
X105813858Y-79143995D01*
X105810025Y-79146608D01*
X105810022Y-79146610D01*
X105685892Y-79231241D01*
X105597083Y-79291790D01*
X105593691Y-79294936D01*
X105593685Y-79294942D01*
X105408158Y-79467086D01*
X105404757Y-79470242D01*
X105401868Y-79473864D01*
X105401864Y-79473869D01*
X105244068Y-79671739D01*
X105241176Y-79675366D01*
X105238857Y-79679382D01*
X105238856Y-79679384D01*
X105112315Y-79898558D01*
X105112309Y-79898569D01*
X105109994Y-79902580D01*
X105108301Y-79906893D01*
X105108296Y-79906904D01*
X105015838Y-80142484D01*
X105015835Y-80142491D01*
X105014142Y-80146807D01*
X105013110Y-80151325D01*
X105013109Y-80151331D01*
X104956791Y-80398073D01*
X104956789Y-80398081D01*
X104955760Y-80402593D01*
X104936154Y-80664223D01*
X104936501Y-80668854D01*
X104951428Y-80868054D01*
X104955760Y-80925853D01*
X104956790Y-80930366D01*
X104956791Y-80930372D01*
X105009860Y-81162880D01*
X105014142Y-81181639D01*
X105015837Y-81185957D01*
X105015838Y-81185961D01*
X105108296Y-81421541D01*
X105108299Y-81421547D01*
X105109994Y-81425866D01*
X105112312Y-81429881D01*
X105112315Y-81429887D01*
X105126434Y-81454341D01*
X105241176Y-81653080D01*
X105404757Y-81858204D01*
X105597083Y-82036656D01*
X105813858Y-82184451D01*
X106050239Y-82298286D01*
X106054667Y-82299651D01*
X106054670Y-82299653D01*
X106158099Y-82331556D01*
X106300947Y-82375619D01*
X106560380Y-82414723D01*
X106818109Y-82414723D01*
X106822744Y-82414723D01*
X107082177Y-82375619D01*
X107332885Y-82298286D01*
X107569266Y-82184451D01*
X107655729Y-82125501D01*
X107718728Y-82104144D01*
X107783700Y-82118419D01*
X107831945Y-82164218D01*
X107849579Y-82228360D01*
X107839616Y-85277017D01*
X107819906Y-85343692D01*
X107767409Y-85389278D01*
X107698629Y-85399443D01*
X102439882Y-84672157D01*
X102383058Y-84648964D01*
X102344317Y-84601362D01*
X102331940Y-84574592D01*
X101065004Y-82900921D01*
X101696431Y-82900921D01*
X101701451Y-82913270D01*
X102727718Y-84269006D01*
X102738849Y-84277262D01*
X102751009Y-84270608D01*
X102853609Y-84168009D01*
X102859393Y-84161334D01*
X103025527Y-83939405D01*
X103030311Y-83931962D01*
X103163168Y-83688650D01*
X103166840Y-83680611D01*
X103204772Y-83578909D01*
X103246348Y-83523196D01*
X103311372Y-83498612D01*
X103379407Y-83512883D01*
X103490676Y-83572358D01*
X103490681Y-83572360D01*
X103496056Y-83575233D01*
X103694076Y-83635301D01*
X103848402Y-83650501D01*
X103948568Y-83650501D01*
X103951618Y-83650501D01*
X104105944Y-83635301D01*
X104303964Y-83575233D01*
X104486460Y-83477686D01*
X104646420Y-83346411D01*
X104777695Y-83186451D01*
X104875242Y-83003955D01*
X104935310Y-82805935D01*
X104955593Y-82600001D01*
X104935310Y-82394067D01*
X104875242Y-82196047D01*
X104777695Y-82013551D01*
X104646420Y-81853591D01*
X104486460Y-81722316D01*
X104481089Y-81719445D01*
X104309338Y-81627641D01*
X104309333Y-81627639D01*
X104303964Y-81624769D01*
X104266356Y-81613361D01*
X104111774Y-81566469D01*
X104111769Y-81566468D01*
X104105944Y-81564701D01*
X104099885Y-81564104D01*
X104099879Y-81564103D01*
X103954651Y-81549799D01*
X103954636Y-81549798D01*
X103951618Y-81549501D01*
X103848402Y-81549501D01*
X103845384Y-81549798D01*
X103845368Y-81549799D01*
X103700140Y-81564103D01*
X103700132Y-81564104D01*
X103694076Y-81564701D01*
X103688252Y-81566467D01*
X103688245Y-81566469D01*
X103501887Y-81623000D01*
X103501885Y-81623000D01*
X103496056Y-81624769D01*
X103490689Y-81627637D01*
X103490681Y-81627641D01*
X103318930Y-81719445D01*
X103318925Y-81719448D01*
X103313560Y-81722316D01*
X103308856Y-81726175D01*
X103308852Y-81726179D01*
X103183067Y-81829407D01*
X103120540Y-81856499D01*
X103101264Y-81853627D01*
X103101272Y-81855942D01*
X103075456Y-81856028D01*
X103064158Y-81861251D01*
X101704615Y-82890399D01*
X101696431Y-82900921D01*
X101065004Y-82900921D01*
X100991162Y-82803373D01*
X100991159Y-82803367D01*
X99955041Y-81434617D01*
X99943908Y-81426360D01*
X99931750Y-81433013D01*
X99829151Y-81535613D01*
X99823358Y-81542299D01*
X99770161Y-81613361D01*
X99718760Y-81653440D01*
X99654133Y-81661912D01*
X99594137Y-81636437D01*
X99555350Y-81584054D01*
X99548488Y-81519241D01*
X99613253Y-81119116D01*
X100346235Y-81119116D01*
X100350819Y-81129032D01*
X101379967Y-82488575D01*
X101390489Y-82496759D01*
X101402838Y-82491739D01*
X102758573Y-81465473D01*
X102766830Y-81454341D01*
X102760175Y-81442180D01*
X102657579Y-81339584D01*
X102650904Y-81333799D01*
X102428973Y-81167664D01*
X102421530Y-81162880D01*
X102178221Y-81030024D01*
X102170183Y-81026353D01*
X101910427Y-80929469D01*
X101901958Y-80926983D01*
X101631070Y-80868054D01*
X101622314Y-80866795D01*
X101345798Y-80847019D01*
X101336962Y-80847019D01*
X101060445Y-80866795D01*
X101051689Y-80868054D01*
X100780801Y-80926983D01*
X100772332Y-80929469D01*
X100512570Y-81026355D01*
X100504546Y-81030020D01*
X100354484Y-81111959D01*
X100346235Y-81119116D01*
X99613253Y-81119116D01*
X99921526Y-79214572D01*
X99921517Y-79214447D01*
X99921537Y-79214265D01*
X99932242Y-79148010D01*
X99933021Y-79143191D01*
X99933541Y-78953383D01*
X99904227Y-78765851D01*
X99845809Y-78585256D01*
X99759738Y-78416084D01*
X99729252Y-78374135D01*
X99651027Y-78266495D01*
X99648153Y-78262540D01*
X99513825Y-78128437D01*
X99509878Y-78125576D01*
X99509875Y-78125574D01*
X99455305Y-78086027D01*
X99455304Y-78086026D01*
X99455279Y-78085997D01*
X97980752Y-77018147D01*
X96731717Y-76113598D01*
X96725160Y-76108506D01*
X96549635Y-75962530D01*
X96537617Y-75951092D01*
X96385958Y-75786045D01*
X96375574Y-75773104D01*
X96247301Y-75589277D01*
X96238752Y-75575088D01*
X96136164Y-75375770D01*
X96129580Y-75360551D01*
X96099002Y-75274500D01*
X96054530Y-75149347D01*
X96050034Y-75133379D01*
X96003852Y-74914045D01*
X96001528Y-74897624D01*
X95985041Y-74674071D01*
X95984931Y-74657502D01*
X95998743Y-74428689D01*
X95999521Y-74420431D01*
X96003938Y-74385903D01*
X96003938Y-74385900D01*
X96003940Y-74385884D01*
X96003938Y-74385879D01*
X96136902Y-73346218D01*
X103098499Y-73346218D01*
X103098852Y-73352814D01*
X103104072Y-73401367D01*
X103107610Y-73416341D01*
X103152046Y-73535477D01*
X103160461Y-73550889D01*
X103235997Y-73651792D01*
X103248406Y-73664201D01*
X103349309Y-73739737D01*
X103364721Y-73748152D01*
X103483857Y-73792588D01*
X103498831Y-73796126D01*
X103547384Y-73801346D01*
X103553981Y-73801700D01*
X103738573Y-73801700D01*
X103751448Y-73798249D01*
X103754899Y-73785374D01*
X103754899Y-72666326D01*
X103751448Y-72653450D01*
X103738573Y-72650000D01*
X103114825Y-72650000D01*
X103101949Y-72653450D01*
X103098499Y-72666326D01*
X103098499Y-73346218D01*
X96136902Y-73346218D01*
X96291977Y-72133674D01*
X103098499Y-72133674D01*
X103101949Y-72146549D01*
X103114825Y-72150000D01*
X103738573Y-72150000D01*
X103751448Y-72146549D01*
X103754899Y-72133674D01*
X103754899Y-69973926D01*
X103751448Y-69961050D01*
X103738573Y-69957600D01*
X103114825Y-69957600D01*
X103101949Y-69961050D01*
X103098499Y-69973926D01*
X103098499Y-70653818D01*
X103098852Y-70660414D01*
X103104072Y-70708967D01*
X103107610Y-70723941D01*
X103152046Y-70843077D01*
X103160461Y-70858489D01*
X103235997Y-70959392D01*
X103242724Y-70966119D01*
X103274818Y-71021706D01*
X103274818Y-71085894D01*
X103242724Y-71141481D01*
X103235997Y-71148207D01*
X103160461Y-71249110D01*
X103152046Y-71264522D01*
X103107610Y-71383658D01*
X103104072Y-71398632D01*
X103098852Y-71447185D01*
X103098499Y-71453782D01*
X103098499Y-72133674D01*
X96291977Y-72133674D01*
X96636314Y-69441274D01*
X103098499Y-69441274D01*
X103101949Y-69454149D01*
X103114825Y-69457600D01*
X103738573Y-69457600D01*
X103751448Y-69454149D01*
X103754899Y-69441274D01*
X103754899Y-68322226D01*
X103751448Y-68309350D01*
X103738573Y-68305900D01*
X103553981Y-68305900D01*
X103547384Y-68306253D01*
X103498831Y-68311473D01*
X103483857Y-68315011D01*
X103364721Y-68359447D01*
X103349309Y-68367862D01*
X103248406Y-68443398D01*
X103235997Y-68455807D01*
X103160461Y-68556710D01*
X103152046Y-68572122D01*
X103107610Y-68691258D01*
X103104072Y-68706232D01*
X103098852Y-68754785D01*
X103098499Y-68761382D01*
X103098499Y-69441274D01*
X96636314Y-69441274D01*
X97091778Y-65879957D01*
X97113026Y-65824815D01*
X97157384Y-65785769D01*
X97214776Y-65771688D01*
X102089115Y-65771688D01*
X102101633Y-65772321D01*
G37*
%TD.AperFunction*%
%TD*%
M02*
