%TF.GenerationSoftware,KiCad,Pcbnew,(7.0.0)*%
%TF.CreationDate,2023-05-27T10:45:59+01:00*%
%TF.ProjectId,left_connectors,6c656674-5f63-46f6-9e6e-6563746f7273,rev?*%
%TF.SameCoordinates,Original*%
%TF.FileFunction,Copper,L2,Bot*%
%TF.FilePolarity,Positive*%
%FSLAX46Y46*%
G04 Gerber Fmt 4.6, Leading zero omitted, Abs format (unit mm)*
G04 Created by KiCad (PCBNEW (7.0.0)) date 2023-05-27 10:45:59*
%MOMM*%
%LPD*%
G01*
G04 APERTURE LIST*
G04 Aperture macros list*
%AMRoundRect*
0 Rectangle with rounded corners*
0 $1 Rounding radius*
0 $2 $3 $4 $5 $6 $7 $8 $9 X,Y pos of 4 corners*
0 Add a 4 corners polygon primitive as box body*
4,1,4,$2,$3,$4,$5,$6,$7,$8,$9,$2,$3,0*
0 Add four circle primitives for the rounded corners*
1,1,$1+$1,$2,$3*
1,1,$1+$1,$4,$5*
1,1,$1+$1,$6,$7*
1,1,$1+$1,$8,$9*
0 Add four rect primitives between the rounded corners*
20,1,$1+$1,$2,$3,$4,$5,0*
20,1,$1+$1,$4,$5,$6,$7,0*
20,1,$1+$1,$6,$7,$8,$9,0*
20,1,$1+$1,$8,$9,$2,$3,0*%
%AMRotRect*
0 Rectangle, with rotation*
0 The origin of the aperture is its center*
0 $1 length*
0 $2 width*
0 $3 Rotation angle, in degrees counterclockwise*
0 Add horizontal line*
21,1,$1,$2,0,0,$3*%
G04 Aperture macros list end*
%TA.AperFunction,SMDPad,CuDef*%
%ADD10R,0.500000X0.500000*%
%TD*%
%TA.AperFunction,SMDPad,CuDef*%
%ADD11RotRect,0.700000X1.500000X226.022000*%
%TD*%
%TA.AperFunction,SMDPad,CuDef*%
%ADD12RotRect,0.800000X1.000000X136.022000*%
%TD*%
%TA.AperFunction,SMDPad,CuDef*%
%ADD13RoundRect,0.160000X0.146433X0.207758X-0.233622X0.100135X-0.146433X-0.207758X0.233622X-0.100135X0*%
%TD*%
%TA.AperFunction,SMDPad,CuDef*%
%ADD14RoundRect,0.160000X-0.146433X-0.207758X0.233622X-0.100135X0.146433X0.207758X-0.233622X0.100135X0*%
%TD*%
%TA.AperFunction,SMDPad,CuDef*%
%ADD15RoundRect,0.160000X0.160000X-0.197500X0.160000X0.197500X-0.160000X0.197500X-0.160000X-0.197500X0*%
%TD*%
%TA.AperFunction,SMDPad,CuDef*%
%ADD16RoundRect,0.225000X-0.375000X0.225000X-0.375000X-0.225000X0.375000X-0.225000X0.375000X0.225000X0*%
%TD*%
%TA.AperFunction,SMDPad,CuDef*%
%ADD17RoundRect,0.155000X0.155000X-0.212500X0.155000X0.212500X-0.155000X0.212500X-0.155000X-0.212500X0*%
%TD*%
%TA.AperFunction,SMDPad,CuDef*%
%ADD18RotRect,0.600000X1.150000X195.811000*%
%TD*%
%TA.AperFunction,SMDPad,CuDef*%
%ADD19RotRect,0.300000X1.150000X195.811000*%
%TD*%
%TA.AperFunction,SMDPad,CuDef*%
%ADD20RotRect,2.180000X2.000000X195.811000*%
%TD*%
%TA.AperFunction,SMDPad,CuDef*%
%ADD21RoundRect,0.155000X0.212500X0.155000X-0.212500X0.155000X-0.212500X-0.155000X0.212500X-0.155000X0*%
%TD*%
%TA.AperFunction,ComponentPad*%
%ADD22C,3.000000*%
%TD*%
%TA.AperFunction,ComponentPad*%
%ADD23C,2.700000*%
%TD*%
%TA.AperFunction,SMDPad,CuDef*%
%ADD24RotRect,1.244600X0.660400X76.926000*%
%TD*%
%TA.AperFunction,ViaPad*%
%ADD25C,0.800000*%
%TD*%
%TA.AperFunction,Conductor*%
%ADD26C,0.250000*%
%TD*%
%TA.AperFunction,Conductor*%
%ADD27C,0.150000*%
%TD*%
%TA.AperFunction,Conductor*%
%ADD28C,0.500000*%
%TD*%
G04 APERTURE END LIST*
D10*
%TO.P,D2,1,VSS*%
%TO.N,GND*%
X139249999Y-48749999D03*
%TO.P,D2,2,DIN*%
%TO.N,Net-(D1-DOUT)*%
X139249999Y-49649999D03*
%TO.P,D2,3,VDD*%
%TO.N,+3V3*%
X138349999Y-49649999D03*
%TO.P,D2,4,DOUT*%
%TO.N,unconnected-(D2-DOUT-Pad4)*%
X138349999Y-48749999D03*
%TD*%
D11*
%TO.P,SW2,1,1*%
%TO.N,/ANC_ON*%
X133923834Y-67626011D03*
%TO.P,SW2,2,2*%
%TO.N,/ANC_OFF*%
X132882261Y-68705421D03*
%TO.P,SW2,3,3*%
%TO.N,GND*%
X130799114Y-70864240D03*
%TO.P,SW2,4,4*%
%TO.N,/ANC_PBO*%
X129757541Y-71943650D03*
D12*
%TO.P,SW2,MP1,MP1*%
%TO.N,GND*%
X135920480Y-66564924D03*
%TO.P,SW2,MP2,MP2*%
X128768344Y-73976871D03*
%TO.P,SW2,MP3,MP3*%
X137431654Y-68023127D03*
%TO.P,SW2,MP4,MP4*%
X130279518Y-75435074D03*
%TD*%
D13*
%TO.P,R2,1*%
%TO.N,Net-(J1-CC2)*%
X114978227Y-79772708D03*
%TO.P,R2,2*%
%TO.N,GND*%
X113828439Y-80098304D03*
%TD*%
D14*
%TO.P,R3,1*%
%TO.N,Net-(J1-CC1)*%
X118625106Y-78362798D03*
%TO.P,R3,2*%
%TO.N,GND*%
X119774894Y-78037202D03*
%TD*%
D15*
%TO.P,R4,1*%
%TO.N,/audio_in_L*%
X100700000Y-73697500D03*
%TO.P,R4,2*%
%TO.N,GNDA*%
X100700000Y-72502500D03*
%TD*%
D10*
%TO.P,D1,1,VSS*%
%TO.N,GND*%
X136849999Y-63049999D03*
%TO.P,D1,2,DIN*%
%TO.N,/LEDs_data_in*%
X136849999Y-63949999D03*
%TO.P,D1,3,VDD*%
%TO.N,+3V3*%
X135949999Y-63949999D03*
%TO.P,D1,4,DOUT*%
%TO.N,Net-(D1-DOUT)*%
X135949999Y-63049999D03*
%TD*%
D16*
%TO.P,D3,1,C*%
%TO.N,VBUS*%
X113500000Y-70150000D03*
%TO.P,D3,2,A*%
%TO.N,Net-(D3-A)*%
X113500000Y-73450000D03*
%TD*%
D17*
%TO.P,C1,1*%
%TO.N,+3V3*%
X134700000Y-64067500D03*
%TO.P,C1,2*%
%TO.N,GND*%
X134700000Y-62932500D03*
%TD*%
D18*
%TO.P,J1,A1,GND*%
%TO.N,GND*%
X120355273Y-80466370D03*
%TO.P,J1,A4,VBUS*%
%TO.N,Net-(D3-A)*%
X119585541Y-80684342D03*
D19*
%TO.P,J1,A5,CC1*%
%TO.N,Net-(J1-CC1)*%
X118479050Y-80997677D03*
%TO.P,J1,A6,D+*%
%TO.N,/USB_D+*%
X117516885Y-81270142D03*
%TO.P,J1,A7,D-*%
%TO.N,/USB_D-*%
X117035802Y-81406374D03*
%TO.P,J1,A8,SBU1*%
%TO.N,unconnected-(J1-SBU1-PadA8)*%
X116073636Y-81678839D03*
D18*
%TO.P,J1,B1,GND*%
%TO.N,GND*%
X114197413Y-82210146D03*
%TO.P,J1,B4,VBUS*%
%TO.N,Net-(D3-A)*%
X114967145Y-81992174D03*
D19*
%TO.P,J1,B5,CC2*%
%TO.N,Net-(J1-CC2)*%
X115592553Y-81815072D03*
%TO.P,J1,B6,D+*%
%TO.N,/USB_D+*%
X116554719Y-81542607D03*
%TO.P,J1,B7,D-*%
%TO.N,/USB_D-*%
X117997967Y-81133909D03*
%TO.P,J1,B8,SBU2*%
%TO.N,unconnected-(J1-SBU2-PadB8)*%
X118960133Y-80861444D03*
D20*
%TO.P,J1,S1,SHIELD*%
%TO.N,GND*%
X123420465Y-84280518D03*
X122349677Y-80499207D03*
X113587131Y-87065110D03*
X112516344Y-83283799D03*
%TD*%
D21*
%TO.P,C2,1*%
%TO.N,+3V3*%
X138335000Y-50700000D03*
%TO.P,C2,2*%
%TO.N,GND*%
X137200000Y-50700000D03*
%TD*%
D22*
%TO.P,J2,R*%
%TO.N,/audio_in_R*%
X106691562Y-80664223D03*
%TO.P,J2,S*%
%TO.N,GNDA*%
X101341380Y-82851812D03*
%TO.P,J2,T*%
%TO.N,/audio_in_L*%
X102286765Y-76016884D03*
D23*
%TO.P,J2,TN*%
%TO.N,/audio_in_detect*%
X107189063Y-74877817D03*
%TD*%
D24*
%TO.P,SW1,1,A*%
%TO.N,GND*%
X139841638Y-59134789D03*
%TO.P,SW1,1\u002A*%
%TO.N,N/C*%
X140760953Y-55176133D03*
%TO.P,SW1,2,B*%
%TO.N,/PWR_SW*%
X138399999Y-58799999D03*
%TO.P,SW1,2\u002A*%
%TO.N,N/C*%
X139319314Y-54841343D03*
%TD*%
D25*
%TO.N,+3V3*%
X134100000Y-65200000D03*
X138400000Y-51500000D03*
X116100000Y-74375500D03*
X116175875Y-76474500D03*
%TO.N,GND*%
X124800000Y-80700000D03*
X131700000Y-53900000D03*
X108800000Y-76800000D03*
X116300000Y-73000000D03*
X140700000Y-52900000D03*
X112400000Y-68400000D03*
X118100000Y-75800000D03*
X112600000Y-77100000D03*
X121800000Y-78600000D03*
X115300000Y-71000000D03*
X113900000Y-78600000D03*
X135900000Y-49900000D03*
X131300000Y-58700000D03*
X117200000Y-70900000D03*
X133800000Y-71700000D03*
X122800000Y-75900000D03*
X136900000Y-61900000D03*
X111900000Y-81300000D03*
X129100000Y-76300000D03*
X109100000Y-85700000D03*
X133400000Y-63300000D03*
X113100000Y-85200000D03*
X138000000Y-66600000D03*
X115000000Y-74000000D03*
X129000000Y-66500000D03*
X138900000Y-62800000D03*
X133500000Y-48700000D03*
X108900000Y-81000000D03*
X136900000Y-58600000D03*
X136800000Y-56100000D03*
X122700000Y-71900000D03*
X114600000Y-68300000D03*
X116700000Y-66800000D03*
X134800000Y-58500000D03*
X141100000Y-49500000D03*
X117600000Y-77400000D03*
X127200000Y-75900000D03*
X126800000Y-71100000D03*
X129600000Y-69500000D03*
X140200000Y-57200000D03*
X135000000Y-55400000D03*
X115700000Y-86900000D03*
X121500000Y-85200000D03*
X137300000Y-52400000D03*
X130600000Y-62500000D03*
X122900000Y-82400000D03*
%TO.N,/LEDs_data_in*%
X136426944Y-64926944D03*
%TO.N,VBUS*%
X113500000Y-68400000D03*
%TO.N,Net-(D3-A)*%
X119272260Y-79512385D03*
X114417508Y-80982172D03*
X117600000Y-79400000D03*
%TO.N,/USB_D+*%
X109873056Y-74126944D03*
%TO.N,/USB_D-*%
X109900000Y-71038498D03*
%TO.N,GNDA*%
X102100000Y-66900000D03*
X97300000Y-70700000D03*
X107000000Y-84500000D03*
X100100000Y-77500000D03*
X98100000Y-66900000D03*
X102200000Y-72400000D03*
X105600000Y-67200000D03*
X102300000Y-69700000D03*
X97100000Y-74900000D03*
X104300000Y-74600000D03*
X105200000Y-78500000D03*
%TO.N,/audio_in_L*%
X105500000Y-70900000D03*
%TO.N,/audio_in_detect*%
X106700000Y-70900000D03*
%TO.N,/ANC_PBO*%
X128906946Y-71093054D03*
%TO.N,/ANC_OFF*%
X132293842Y-69293842D03*
%TO.N,/ANC_ON*%
X132525569Y-66425569D03*
%TO.N,/PWR_SW*%
X138800000Y-56800000D03*
%TD*%
D26*
%TO.N,+3V3*%
X138335000Y-49665000D02*
X138350000Y-49650000D01*
D27*
X116100000Y-74375500D02*
X116175875Y-74451375D01*
D26*
X138335000Y-51435000D02*
X138400000Y-51500000D01*
D27*
X135832500Y-64067500D02*
X135950000Y-63950000D01*
D26*
X138335000Y-50700000D02*
X138335000Y-51435000D01*
D27*
X134700000Y-64067500D02*
X135832500Y-64067500D01*
D26*
X138335000Y-50700000D02*
X138335000Y-49665000D01*
D27*
X134100000Y-65200000D02*
X134700000Y-64600000D01*
X134700000Y-64600000D02*
X134700000Y-64067500D01*
X116175875Y-74451375D02*
X116175875Y-76474500D01*
D28*
%TO.N,GND*%
X113387267Y-81400000D02*
X113200000Y-81400000D01*
X114197414Y-82210147D02*
X113387267Y-81400000D01*
X120355274Y-80466371D02*
X120500000Y-79300000D01*
D27*
%TO.N,/LEDs_data_in*%
X136426944Y-64926944D02*
X136850000Y-64503888D01*
X136850000Y-64503888D02*
X136850000Y-63950000D01*
%TO.N,Net-(D1-DOUT)*%
X135950000Y-63050000D02*
X135950000Y-55750000D01*
X135950000Y-55750000D02*
X139250000Y-52450000D01*
X139250000Y-52450000D02*
X139250000Y-49650000D01*
D28*
%TO.N,VBUS*%
X113500000Y-70150000D02*
X113500000Y-68400000D01*
%TO.N,Net-(D3-A)*%
X117600000Y-79400000D02*
X117600000Y-79100000D01*
X117600000Y-79100000D02*
X113500000Y-75000000D01*
X114967147Y-81992175D02*
X114651639Y-80878010D01*
D26*
X119597879Y-80662258D02*
X119585542Y-80684343D01*
D28*
X119272260Y-79512385D02*
X119597879Y-80662258D01*
X113500000Y-75000000D02*
X113500000Y-73450000D01*
D26*
X114651639Y-80878010D02*
X114547477Y-80982172D01*
X114547477Y-80982172D02*
X114417508Y-80982172D01*
%TO.N,Net-(J1-CC1)*%
X118568014Y-78362798D02*
X118625106Y-78362798D01*
X118479051Y-80997678D02*
X118269810Y-80241052D01*
X118269810Y-80241052D02*
X118568014Y-78362798D01*
%TO.N,/USB_D+*%
X116793127Y-82384502D02*
X116823993Y-82401745D01*
X117738050Y-82142903D02*
X117755293Y-82112038D01*
X109873056Y-74126944D02*
X110932530Y-74126944D01*
X115846212Y-79040626D02*
X116554720Y-81542608D01*
X116823993Y-82401745D02*
X117738050Y-82142903D01*
X110932530Y-74126944D02*
X115846212Y-79040626D01*
X117755293Y-82112038D02*
X117516886Y-81270143D01*
X116554720Y-81542608D02*
X116793127Y-82384502D01*
%TO.N,/USB_D-*%
X117728696Y-80274773D02*
X117759562Y-80292015D01*
X116863475Y-80797828D02*
X116337042Y-78938816D01*
X116797396Y-80564480D02*
X116814639Y-80533614D01*
X109900000Y-72458018D02*
X116337042Y-78895060D01*
X117035803Y-81406375D02*
X116863475Y-80797828D01*
X116814639Y-80533614D02*
X117728696Y-80274773D01*
X117759562Y-80292015D02*
X117997969Y-81133910D01*
X109900000Y-71038498D02*
X109900000Y-72458018D01*
X116337042Y-78895060D02*
X116337042Y-78938816D01*
X116863475Y-80797828D02*
X116797396Y-80564480D01*
%TO.N,Net-(J1-CC2)*%
X114978227Y-79772708D02*
X115020960Y-79796580D01*
X115020960Y-79796580D02*
X115592554Y-81815072D01*
D28*
%TO.N,/audio_in_L*%
X100700000Y-73697500D02*
X102286765Y-76016884D01*
X102286765Y-74113235D02*
X105500000Y-70900000D01*
X102286765Y-76016884D02*
X102286765Y-74113235D01*
%TO.N,/audio_in_detect*%
X107189063Y-74877817D02*
X106700000Y-74388754D01*
X106700000Y-74388754D02*
X106700000Y-70900000D01*
D27*
%TO.N,/ANC_PBO*%
X128906946Y-71093055D02*
X129757542Y-71943651D01*
X128906946Y-71093054D02*
X128906946Y-71093055D01*
%TO.N,/ANC_OFF*%
X132293842Y-69293842D02*
X132882262Y-68705422D01*
%TO.N,/ANC_ON*%
X132723392Y-66425569D02*
X133923835Y-67626012D01*
X132525569Y-66425569D02*
X132723392Y-66425569D01*
%TO.N,/PWR_SW*%
X138400000Y-57200000D02*
X138400000Y-58800000D01*
X138800000Y-56800000D02*
X138400000Y-57200000D01*
%TD*%
%TA.AperFunction,Conductor*%
%TO.N,GND*%
G36*
X134332353Y-47757425D02*
G01*
X134340510Y-47758607D01*
X134390722Y-47765883D01*
X134424817Y-47775976D01*
X134470189Y-47796878D01*
X134500014Y-47816232D01*
X134537587Y-47849152D01*
X134560696Y-47876179D01*
X134587380Y-47918410D01*
X134601868Y-47950885D01*
X134610552Y-47981577D01*
X134618009Y-48007933D01*
X134621624Y-48025454D01*
X134634969Y-48126502D01*
X134634973Y-48126522D01*
X134635624Y-48131449D01*
X134637056Y-48136219D01*
X134637057Y-48136220D01*
X134701055Y-48349285D01*
X134701058Y-48349293D01*
X134702481Y-48354030D01*
X134803919Y-48563129D01*
X134937351Y-48753413D01*
X135099373Y-48920029D01*
X135129039Y-48942093D01*
X135275619Y-49051114D01*
X135285854Y-49058726D01*
X135492036Y-49165969D01*
X135712661Y-49239020D01*
X135942102Y-49276018D01*
X136169551Y-49276018D01*
X136174507Y-49276018D01*
X136403949Y-49239020D01*
X136624574Y-49165969D01*
X136830756Y-49058727D01*
X137017237Y-48920029D01*
X137179259Y-48753413D01*
X137312691Y-48563129D01*
X137414129Y-48354030D01*
X137480986Y-48131449D01*
X137495026Y-48025127D01*
X137498637Y-48007629D01*
X137514698Y-47950863D01*
X137529186Y-47918390D01*
X137545908Y-47891926D01*
X137555874Y-47876152D01*
X137578982Y-47849127D01*
X137616566Y-47816198D01*
X137646388Y-47796846D01*
X137691779Y-47775936D01*
X137725868Y-47765846D01*
X137770117Y-47759435D01*
X137783998Y-47757424D01*
X137801777Y-47756143D01*
X138906985Y-47756143D01*
X138967058Y-47771666D01*
X139012091Y-47814350D01*
X139030807Y-47873506D01*
X139018522Y-47934324D01*
X138978310Y-47981577D01*
X138920240Y-48003433D01*
X138900332Y-48005573D01*
X138885358Y-48009111D01*
X138766222Y-48053547D01*
X138750810Y-48061962D01*
X138649908Y-48137497D01*
X138637499Y-48149907D01*
X138600140Y-48199812D01*
X138556378Y-48236384D01*
X138500874Y-48249500D01*
X138075326Y-48249500D01*
X138069351Y-48250688D01*
X138069346Y-48250689D01*
X138014240Y-48261650D01*
X138014235Y-48261651D01*
X138002260Y-48264034D01*
X137992105Y-48270819D01*
X137992103Y-48270820D01*
X137929551Y-48312615D01*
X137929548Y-48312617D01*
X137919399Y-48319399D01*
X137912617Y-48329548D01*
X137912615Y-48329551D01*
X137870820Y-48392103D01*
X137870819Y-48392105D01*
X137864034Y-48402260D01*
X137861651Y-48414235D01*
X137861650Y-48414240D01*
X137850689Y-48469346D01*
X137850688Y-48469351D01*
X137849500Y-48475326D01*
X137849500Y-49024674D01*
X137850688Y-49030649D01*
X137850689Y-49030653D01*
X137861650Y-49085759D01*
X137861651Y-49085762D01*
X137864034Y-49097740D01*
X137870817Y-49107893D01*
X137870820Y-49107898D01*
X137886331Y-49131112D01*
X137904845Y-49175810D01*
X137904845Y-49224190D01*
X137886331Y-49268888D01*
X137870820Y-49292101D01*
X137870816Y-49292108D01*
X137864034Y-49302260D01*
X137861651Y-49314235D01*
X137861650Y-49314240D01*
X137850689Y-49369346D01*
X137850688Y-49369351D01*
X137849500Y-49375326D01*
X137849500Y-49381421D01*
X137849500Y-49827030D01*
X137834628Y-49885912D01*
X137793579Y-49930670D01*
X137736199Y-49950568D01*
X137676253Y-49940831D01*
X137667206Y-49936916D01*
X137521867Y-49894690D01*
X137509461Y-49892424D01*
X137481084Y-49890191D01*
X137476205Y-49890000D01*
X137466326Y-49890000D01*
X137453450Y-49893450D01*
X137450000Y-49906326D01*
X137450000Y-51493674D01*
X137453450Y-51506549D01*
X137466326Y-51510000D01*
X137476205Y-51510000D01*
X137481084Y-51509808D01*
X137509461Y-51507575D01*
X137521867Y-51505309D01*
X137597646Y-51483293D01*
X137650824Y-51479769D01*
X137700570Y-51498894D01*
X137737693Y-51537133D01*
X137755337Y-51587423D01*
X137762858Y-51649370D01*
X137762859Y-51649375D01*
X137763763Y-51656818D01*
X137819780Y-51804523D01*
X137824043Y-51810699D01*
X137879307Y-51890764D01*
X137909517Y-51934530D01*
X138027760Y-52039283D01*
X138034406Y-52042771D01*
X138150258Y-52103576D01*
X138167635Y-52112696D01*
X138321015Y-52150500D01*
X138471485Y-52150500D01*
X138478985Y-52150500D01*
X138632365Y-52112696D01*
X138735864Y-52058375D01*
X138742874Y-52054696D01*
X138804245Y-52040549D01*
X138864650Y-52058375D01*
X138908506Y-52103576D01*
X138924500Y-52164492D01*
X138924500Y-52263812D01*
X138915061Y-52311265D01*
X138888181Y-52351493D01*
X135733715Y-55505957D01*
X135725743Y-55513263D01*
X135705114Y-55530573D01*
X135705112Y-55530574D01*
X135696806Y-55537545D01*
X135691384Y-55546934D01*
X135691380Y-55546940D01*
X135677914Y-55570264D01*
X135672112Y-55579371D01*
X135650446Y-55610316D01*
X135647639Y-55620788D01*
X135646087Y-55624118D01*
X135644831Y-55627566D01*
X135639412Y-55636955D01*
X135637529Y-55647631D01*
X135637528Y-55647635D01*
X135632853Y-55674149D01*
X135630514Y-55684697D01*
X135620736Y-55721193D01*
X135621681Y-55731996D01*
X135621681Y-55731999D01*
X135624028Y-55758819D01*
X135624500Y-55769627D01*
X135624500Y-62281154D01*
X135608017Y-62342929D01*
X135562949Y-62388281D01*
X135501279Y-62405152D01*
X135439401Y-62389056D01*
X135393768Y-62344274D01*
X135380639Y-62322074D01*
X135371146Y-62309836D01*
X135265163Y-62203853D01*
X135252928Y-62194362D01*
X135123914Y-62118064D01*
X135109706Y-62111916D01*
X134964368Y-62069691D01*
X134962976Y-62069436D01*
X134953706Y-62071280D01*
X134950000Y-62084422D01*
X134950000Y-63058500D01*
X134933387Y-63120500D01*
X134888000Y-63165887D01*
X134826000Y-63182500D01*
X133906326Y-63182500D01*
X133893450Y-63185950D01*
X133890000Y-63198826D01*
X133890000Y-63208705D01*
X133890191Y-63213584D01*
X133892424Y-63241961D01*
X133894690Y-63254367D01*
X133936916Y-63399706D01*
X133943064Y-63413914D01*
X134019362Y-63542928D01*
X134028853Y-63555163D01*
X134116328Y-63642638D01*
X134146578Y-63692001D01*
X134151120Y-63749717D01*
X134140263Y-63818263D01*
X134140262Y-63818270D01*
X134139500Y-63823084D01*
X134139500Y-64311916D01*
X134151453Y-64387386D01*
X134154418Y-64406102D01*
X134151290Y-64459158D01*
X134126236Y-64506031D01*
X134083859Y-64538110D01*
X134031945Y-64549500D01*
X134021015Y-64549500D01*
X134013740Y-64551292D01*
X134013732Y-64551294D01*
X133874915Y-64585509D01*
X133874909Y-64585510D01*
X133867635Y-64587304D01*
X133861000Y-64590786D01*
X133860993Y-64590789D01*
X133734406Y-64657228D01*
X133734400Y-64657231D01*
X133727760Y-64660717D01*
X133722148Y-64665687D01*
X133722143Y-64665692D01*
X133615127Y-64760499D01*
X133615122Y-64760503D01*
X133609517Y-64765470D01*
X133605262Y-64771634D01*
X133605257Y-64771640D01*
X133524043Y-64889300D01*
X133524040Y-64889303D01*
X133519780Y-64895477D01*
X133517120Y-64902488D01*
X133517118Y-64902494D01*
X133466423Y-65036167D01*
X133463763Y-65043182D01*
X133462859Y-65050622D01*
X133462858Y-65050629D01*
X133457984Y-65090776D01*
X133444722Y-65200000D01*
X133445626Y-65207445D01*
X133462858Y-65349370D01*
X133462859Y-65349375D01*
X133463763Y-65356818D01*
X133466422Y-65363831D01*
X133466423Y-65363832D01*
X133502580Y-65459172D01*
X133519780Y-65504523D01*
X133524043Y-65510699D01*
X133570113Y-65577444D01*
X133609517Y-65634530D01*
X133727760Y-65739283D01*
X133867635Y-65812696D01*
X134021015Y-65850500D01*
X134171485Y-65850500D01*
X134178985Y-65850500D01*
X134332365Y-65812696D01*
X134472240Y-65739283D01*
X134590483Y-65634530D01*
X134680220Y-65504523D01*
X134736237Y-65356818D01*
X134755278Y-65200000D01*
X134741446Y-65086086D01*
X134747325Y-65030695D01*
X134776859Y-64983465D01*
X134916290Y-64844034D01*
X134924242Y-64836747D01*
X134953194Y-64812455D01*
X134972085Y-64779733D01*
X134977880Y-64770635D01*
X134999554Y-64739684D01*
X135002362Y-64729199D01*
X135003901Y-64725900D01*
X135005156Y-64722451D01*
X135010588Y-64713045D01*
X135012473Y-64702353D01*
X135016184Y-64692160D01*
X135018676Y-64693067D01*
X135033356Y-64658862D01*
X135076760Y-64622110D01*
X135096318Y-64612146D01*
X135187146Y-64521318D01*
X135218029Y-64460705D01*
X135263725Y-64411273D01*
X135328515Y-64393000D01*
X135500341Y-64393000D01*
X135536336Y-64398339D01*
X135569230Y-64413896D01*
X135602260Y-64435966D01*
X135675326Y-64450500D01*
X135732855Y-64450500D01*
X135793770Y-64466494D01*
X135838971Y-64510349D01*
X135856798Y-64570753D01*
X135845036Y-64621781D01*
X135846724Y-64622421D01*
X135798883Y-64748568D01*
X135790707Y-64770126D01*
X135789803Y-64777566D01*
X135789802Y-64777573D01*
X135776237Y-64889300D01*
X135771666Y-64926944D01*
X135772570Y-64934389D01*
X135789802Y-65076314D01*
X135789803Y-65076319D01*
X135790707Y-65083762D01*
X135793366Y-65090775D01*
X135793367Y-65090776D01*
X135837613Y-65207445D01*
X135846724Y-65231467D01*
X135850987Y-65237643D01*
X135870711Y-65266218D01*
X135890832Y-65315438D01*
X135888487Y-65368560D01*
X135864108Y-65415816D01*
X135822177Y-65448515D01*
X135706192Y-65504005D01*
X135693240Y-65512329D01*
X135655792Y-65543625D01*
X135650923Y-65548158D01*
X134921147Y-66304444D01*
X134916266Y-66312702D01*
X134925597Y-66314925D01*
X137013724Y-66314925D01*
X137024880Y-66312050D01*
X137022658Y-66300747D01*
X136978876Y-66209234D01*
X136970554Y-66196285D01*
X136939258Y-66158837D01*
X136934725Y-66153968D01*
X136533137Y-65766457D01*
X136499737Y-65710317D01*
X136499502Y-65644994D01*
X136532498Y-65588615D01*
X136589565Y-65556829D01*
X136659309Y-65539640D01*
X136799184Y-65466227D01*
X136917427Y-65361474D01*
X137007164Y-65231467D01*
X137063181Y-65083762D01*
X137082222Y-64926944D01*
X137068710Y-64815662D01*
X137072937Y-64765418D01*
X137096148Y-64722254D01*
X137103194Y-64716343D01*
X137122085Y-64683621D01*
X137127880Y-64674523D01*
X137149554Y-64643572D01*
X137152363Y-64633085D01*
X137153902Y-64629785D01*
X137155156Y-64626339D01*
X137160588Y-64616933D01*
X137167146Y-64579734D01*
X137169482Y-64569196D01*
X137179264Y-64532694D01*
X137178318Y-64521883D01*
X137179264Y-64511078D01*
X137181386Y-64511263D01*
X137190411Y-64461664D01*
X137233326Y-64412189D01*
X137270446Y-64387386D01*
X137270445Y-64387386D01*
X137280601Y-64380601D01*
X137335966Y-64297740D01*
X137350500Y-64224674D01*
X137350500Y-63799126D01*
X137363616Y-63743622D01*
X137400188Y-63699860D01*
X137450092Y-63662500D01*
X137462502Y-63650091D01*
X137538037Y-63549189D01*
X137546452Y-63533777D01*
X137590888Y-63414641D01*
X137594426Y-63399667D01*
X137599646Y-63351114D01*
X137600000Y-63344518D01*
X137600000Y-63316326D01*
X137596549Y-63303450D01*
X137583674Y-63300000D01*
X136724000Y-63300000D01*
X136662000Y-63283387D01*
X136616613Y-63238000D01*
X136600000Y-63176000D01*
X136600000Y-62783674D01*
X137100000Y-62783674D01*
X137103450Y-62796549D01*
X137116326Y-62800000D01*
X137583674Y-62800000D01*
X137596549Y-62796549D01*
X137600000Y-62783674D01*
X137600000Y-62755482D01*
X137599646Y-62748885D01*
X137594426Y-62700332D01*
X137590888Y-62685358D01*
X137546452Y-62566222D01*
X137538037Y-62550810D01*
X137462501Y-62449907D01*
X137450092Y-62437498D01*
X137349189Y-62361962D01*
X137333777Y-62353547D01*
X137214641Y-62309111D01*
X137199667Y-62305573D01*
X137151114Y-62300353D01*
X137144518Y-62300000D01*
X137116326Y-62300000D01*
X137103450Y-62303450D01*
X137100000Y-62316326D01*
X137100000Y-62783674D01*
X136600000Y-62783674D01*
X136600000Y-62316326D01*
X136596549Y-62303450D01*
X136583674Y-62300000D01*
X136555482Y-62300000D01*
X136548885Y-62300353D01*
X136500332Y-62305573D01*
X136485358Y-62309111D01*
X136442833Y-62324973D01*
X136384046Y-62331824D01*
X136328780Y-62310647D01*
X136289624Y-62266266D01*
X136275500Y-62208791D01*
X136275500Y-59373304D01*
X137685630Y-59373304D01*
X137689940Y-59384726D01*
X137689941Y-59384729D01*
X137716504Y-59455117D01*
X137716505Y-59455120D01*
X137720816Y-59466541D01*
X137729170Y-59475444D01*
X137729171Y-59475446D01*
X137759139Y-59507385D01*
X137789005Y-59539215D01*
X137856889Y-59569900D01*
X138548240Y-59730452D01*
X138622699Y-59732823D01*
X138715937Y-59697637D01*
X138716341Y-59698708D01*
X138761280Y-59684443D01*
X138821482Y-59696172D01*
X138868698Y-59735320D01*
X138888332Y-59784658D01*
X138889086Y-59784449D01*
X138891037Y-59791456D01*
X138891376Y-59792307D01*
X138891464Y-59792988D01*
X138896175Y-59809904D01*
X138946927Y-59925278D01*
X138956210Y-59940178D01*
X139037410Y-60036579D01*
X139050516Y-60048261D01*
X139156514Y-60118495D01*
X139170301Y-60125330D01*
X139216407Y-60141395D01*
X139222763Y-60143234D01*
X139578003Y-60225731D01*
X139589152Y-60225768D01*
X139591639Y-60214896D01*
X139591639Y-57976383D01*
X139587773Y-57963102D01*
X139574104Y-57960974D01*
X139534036Y-57966164D01*
X139517128Y-57970873D01*
X139401758Y-58021624D01*
X139386852Y-58030912D01*
X139290454Y-58112107D01*
X139278763Y-58125223D01*
X139278383Y-58125798D01*
X139277703Y-58126413D01*
X139272868Y-58131838D01*
X139272284Y-58131317D01*
X139232913Y-58166954D01*
X139173280Y-58181285D01*
X139114074Y-58165285D01*
X139080019Y-58132675D01*
X139079184Y-58133459D01*
X139010995Y-58060785D01*
X138999867Y-58055755D01*
X138999866Y-58055754D01*
X138948661Y-58032608D01*
X138948654Y-58032605D01*
X138943111Y-58030100D01*
X138821448Y-58001846D01*
X138771943Y-57977813D01*
X138737712Y-57934722D01*
X138725500Y-57881061D01*
X138725500Y-57574500D01*
X138742113Y-57512500D01*
X138787500Y-57467113D01*
X138849500Y-57450500D01*
X138871485Y-57450500D01*
X138878985Y-57450500D01*
X139032365Y-57412696D01*
X139172240Y-57339283D01*
X139290483Y-57234530D01*
X139380220Y-57104523D01*
X139436237Y-56956818D01*
X139455278Y-56800000D01*
X139436237Y-56643182D01*
X139380220Y-56495477D01*
X139290483Y-56365470D01*
X139172240Y-56260717D01*
X139165595Y-56257229D01*
X139165593Y-56257228D01*
X139039006Y-56190789D01*
X139039002Y-56190787D01*
X139032365Y-56187304D01*
X139025087Y-56185510D01*
X139025084Y-56185509D01*
X138886267Y-56151294D01*
X138886260Y-56151293D01*
X138878985Y-56149500D01*
X138721015Y-56149500D01*
X138713740Y-56151292D01*
X138713732Y-56151294D01*
X138574915Y-56185509D01*
X138574909Y-56185510D01*
X138567635Y-56187304D01*
X138561000Y-56190786D01*
X138560993Y-56190789D01*
X138434406Y-56257228D01*
X138434400Y-56257231D01*
X138427760Y-56260717D01*
X138422148Y-56265687D01*
X138422143Y-56265692D01*
X138315127Y-56360499D01*
X138315122Y-56360503D01*
X138309517Y-56365470D01*
X138305262Y-56371634D01*
X138305257Y-56371640D01*
X138224043Y-56489300D01*
X138224040Y-56489303D01*
X138219780Y-56495477D01*
X138217120Y-56502488D01*
X138217118Y-56502494D01*
X138185109Y-56586896D01*
X138163763Y-56643182D01*
X138162859Y-56650622D01*
X138162858Y-56650629D01*
X138153336Y-56729057D01*
X138144722Y-56800000D01*
X138145626Y-56807445D01*
X138158909Y-56916843D01*
X138157307Y-56956593D01*
X138143199Y-56993790D01*
X138127915Y-57020262D01*
X138122112Y-57029371D01*
X138100446Y-57060316D01*
X138097639Y-57070788D01*
X138096087Y-57074118D01*
X138094831Y-57077566D01*
X138089412Y-57086955D01*
X138087529Y-57097631D01*
X138087528Y-57097635D01*
X138082853Y-57124149D01*
X138080514Y-57134697D01*
X138070736Y-57171193D01*
X138071681Y-57181996D01*
X138071681Y-57181999D01*
X138074028Y-57208819D01*
X138074500Y-57219627D01*
X138074500Y-57857647D01*
X138064291Y-57906917D01*
X138035346Y-57948073D01*
X138029014Y-57954014D01*
X138020296Y-57962194D01*
X138020294Y-57962196D01*
X138011389Y-57970552D01*
X138006359Y-57981677D01*
X138006357Y-57981682D01*
X137983211Y-58032889D01*
X137983208Y-58032895D01*
X137980704Y-58038437D01*
X137979328Y-58044361D01*
X137979327Y-58044365D01*
X137936985Y-58226696D01*
X137688001Y-59298844D01*
X137687807Y-59304934D01*
X137687807Y-59304935D01*
X137686018Y-59361097D01*
X137686018Y-59361100D01*
X137685630Y-59373304D01*
X136275500Y-59373304D01*
X136275500Y-55936188D01*
X136284939Y-55888735D01*
X136311819Y-55848507D01*
X136745678Y-55414648D01*
X138604945Y-55414648D01*
X138609255Y-55426070D01*
X138609256Y-55426073D01*
X138635819Y-55496461D01*
X138635820Y-55496464D01*
X138640131Y-55507885D01*
X138648485Y-55516788D01*
X138648486Y-55516790D01*
X138673776Y-55543743D01*
X138708320Y-55580559D01*
X138737330Y-55593672D01*
X138770031Y-55608454D01*
X138776204Y-55611244D01*
X139467555Y-55771796D01*
X139542014Y-55774167D01*
X139635252Y-55738981D01*
X139707926Y-55670792D01*
X139738611Y-55602907D01*
X140031314Y-54342500D01*
X140033685Y-54268040D01*
X139998499Y-54174803D01*
X139930310Y-54102129D01*
X139919182Y-54097099D01*
X139919181Y-54097098D01*
X139867976Y-54073952D01*
X139867969Y-54073949D01*
X139862426Y-54071444D01*
X139171075Y-53910892D01*
X139164983Y-53910698D01*
X139108823Y-53908909D01*
X139108819Y-53908909D01*
X139096616Y-53908521D01*
X139085190Y-53912832D01*
X139085189Y-53912833D01*
X139014805Y-53939394D01*
X139014802Y-53939395D01*
X139003378Y-53943707D01*
X138994471Y-53952063D01*
X138994471Y-53952064D01*
X138939608Y-54003540D01*
X138939604Y-54003544D01*
X138930704Y-54011896D01*
X138925676Y-54023017D01*
X138925673Y-54023023D01*
X138902526Y-54074233D01*
X138902523Y-54074239D01*
X138900019Y-54079781D01*
X138898643Y-54085705D01*
X138898642Y-54085709D01*
X138692984Y-54971294D01*
X138607316Y-55340188D01*
X138607122Y-55346278D01*
X138607122Y-55346279D01*
X138605333Y-55402441D01*
X138605333Y-55402444D01*
X138604945Y-55414648D01*
X136745678Y-55414648D01*
X137028794Y-55131532D01*
X139466290Y-52694034D01*
X139474242Y-52686747D01*
X139503194Y-52662455D01*
X139522085Y-52629733D01*
X139527880Y-52620635D01*
X139549554Y-52589684D01*
X139552362Y-52579199D01*
X139553901Y-52575900D01*
X139555156Y-52572451D01*
X139560588Y-52563045D01*
X139567149Y-52525830D01*
X139569478Y-52515324D01*
X139579264Y-52478807D01*
X139575972Y-52441177D01*
X139575500Y-52430370D01*
X139575500Y-50217106D01*
X139590142Y-50158652D01*
X139630611Y-50114003D01*
X139670446Y-50087386D01*
X139670445Y-50087386D01*
X139680601Y-50080601D01*
X139735966Y-49997740D01*
X139750500Y-49924674D01*
X139750500Y-49499126D01*
X139763616Y-49443622D01*
X139800188Y-49399860D01*
X139850092Y-49362500D01*
X139862502Y-49350091D01*
X139938037Y-49249189D01*
X139946452Y-49233777D01*
X139990888Y-49114641D01*
X139994426Y-49099667D01*
X139999646Y-49051114D01*
X140000000Y-49044518D01*
X140000000Y-49016326D01*
X139996549Y-49003450D01*
X139983674Y-49000000D01*
X139124000Y-49000000D01*
X139062000Y-48983387D01*
X139016613Y-48938000D01*
X139000000Y-48876000D01*
X139000000Y-48624000D01*
X139016613Y-48562000D01*
X139062000Y-48516613D01*
X139124000Y-48500000D01*
X139983674Y-48500000D01*
X139996549Y-48496549D01*
X140000000Y-48483674D01*
X140000000Y-48455482D01*
X139999646Y-48448885D01*
X139994426Y-48400332D01*
X139990888Y-48385358D01*
X139946452Y-48266222D01*
X139938037Y-48250810D01*
X139862501Y-48149907D01*
X139850092Y-48137498D01*
X139749189Y-48061962D01*
X139733777Y-48053547D01*
X139614641Y-48009111D01*
X139599667Y-48005573D01*
X139579760Y-48003433D01*
X139521690Y-47981577D01*
X139481478Y-47934324D01*
X139469193Y-47873506D01*
X139487909Y-47814350D01*
X139532942Y-47771666D01*
X139593015Y-47756143D01*
X139593766Y-47756143D01*
X139598833Y-47756247D01*
X139602506Y-47756397D01*
X139656546Y-47758607D01*
X139666637Y-47759434D01*
X139721479Y-47766196D01*
X139731462Y-47767844D01*
X139787953Y-47779558D01*
X139792869Y-47780683D01*
X141036782Y-48092204D01*
X141045188Y-48094627D01*
X141142683Y-48126502D01*
X141274083Y-48169462D01*
X141290282Y-48176057D01*
X141441971Y-48250689D01*
X141502405Y-48280423D01*
X141517522Y-48289236D01*
X141712846Y-48422425D01*
X141726572Y-48433279D01*
X141901201Y-48592636D01*
X141913262Y-48605314D01*
X141928680Y-48624000D01*
X142035457Y-48753413D01*
X142063717Y-48787663D01*
X142073874Y-48801914D01*
X142197165Y-49003635D01*
X142205214Y-49019172D01*
X142298879Y-49236231D01*
X142304661Y-49252747D01*
X142366838Y-49480830D01*
X142370238Y-49497996D01*
X142399689Y-49732568D01*
X142400638Y-49750041D01*
X142396776Y-49986410D01*
X142395257Y-50003843D01*
X142357616Y-50240732D01*
X142355937Y-50249326D01*
X141414090Y-54304488D01*
X141383882Y-54361122D01*
X141329405Y-54395064D01*
X141265255Y-54397221D01*
X140618648Y-54247060D01*
X140618647Y-54247059D01*
X140612714Y-54245682D01*
X140606622Y-54245488D01*
X140550462Y-54243699D01*
X140550458Y-54243699D01*
X140538255Y-54243311D01*
X140526829Y-54247622D01*
X140526828Y-54247623D01*
X140456444Y-54274184D01*
X140456441Y-54274185D01*
X140445017Y-54278497D01*
X140436110Y-54286853D01*
X140436110Y-54286854D01*
X140381247Y-54338330D01*
X140381243Y-54338334D01*
X140372343Y-54346686D01*
X140367315Y-54357807D01*
X140367312Y-54357813D01*
X140344165Y-54409023D01*
X140344162Y-54409029D01*
X140341658Y-54414571D01*
X140340282Y-54420495D01*
X140340281Y-54420499D01*
X140057785Y-55636955D01*
X140048955Y-55674978D01*
X140048761Y-55681068D01*
X140048761Y-55681069D01*
X140046972Y-55737231D01*
X140046972Y-55737234D01*
X140046584Y-55749438D01*
X140050894Y-55760860D01*
X140050895Y-55760863D01*
X140077458Y-55831251D01*
X140077459Y-55831254D01*
X140081770Y-55842675D01*
X140149959Y-55915349D01*
X140217843Y-55946034D01*
X140870332Y-56097561D01*
X140926966Y-56127768D01*
X140960909Y-56182247D01*
X140963065Y-56246399D01*
X140551110Y-58020087D01*
X140520902Y-58076721D01*
X140466425Y-58110663D01*
X140402275Y-58112820D01*
X140105275Y-58043848D01*
X140094125Y-58043811D01*
X140091639Y-58054684D01*
X140091639Y-59984156D01*
X140088424Y-60012209D01*
X138395204Y-67302440D01*
X138364661Y-67359430D01*
X138309581Y-67393297D01*
X138244941Y-67394832D01*
X138188316Y-67363618D01*
X137806174Y-66994871D01*
X137801150Y-66990517D01*
X137762606Y-66960574D01*
X137749368Y-66952719D01*
X137695805Y-66929403D01*
X137684471Y-66927540D01*
X137681655Y-66938677D01*
X137681655Y-68149128D01*
X137665042Y-68211128D01*
X137619655Y-68256515D01*
X137557655Y-68273128D01*
X136338412Y-68273128D01*
X136327255Y-68276002D01*
X136329477Y-68287305D01*
X136373259Y-68378818D01*
X136381581Y-68391767D01*
X136412877Y-68429215D01*
X136417410Y-68434084D01*
X136950724Y-68948703D01*
X136983804Y-69003710D01*
X136984949Y-69067887D01*
X136953851Y-69124038D01*
X131362627Y-74918254D01*
X131307621Y-74951334D01*
X131243445Y-74952478D01*
X131187294Y-74921381D01*
X130654038Y-74406818D01*
X130649014Y-74402464D01*
X130610470Y-74372521D01*
X130597232Y-74364666D01*
X130543669Y-74341350D01*
X130532335Y-74339487D01*
X130529519Y-74350624D01*
X130529519Y-75561075D01*
X130512906Y-75623075D01*
X130467519Y-75668462D01*
X130405519Y-75685075D01*
X129186276Y-75685075D01*
X129175119Y-75687949D01*
X129177341Y-75699252D01*
X129221123Y-75790765D01*
X129229445Y-75803714D01*
X129260741Y-75841162D01*
X129265274Y-75846031D01*
X129798514Y-76360578D01*
X129831594Y-76415585D01*
X129832739Y-76479762D01*
X129801641Y-76535913D01*
X124010976Y-82536811D01*
X123955532Y-82570015D01*
X123683391Y-82647080D01*
X123672992Y-82652650D01*
X123670466Y-82664175D01*
X123670466Y-82839614D01*
X123661446Y-82886044D01*
X123635697Y-82925716D01*
X123383693Y-83186870D01*
X123334462Y-83218136D01*
X123276379Y-83223438D01*
X123222298Y-83201599D01*
X123184183Y-83157452D01*
X123170466Y-83100764D01*
X123170466Y-82806710D01*
X123167887Y-82795739D01*
X123156634Y-82796247D01*
X121920183Y-83146384D01*
X121913907Y-83148530D01*
X121868633Y-83166774D01*
X121855184Y-83174261D01*
X121752661Y-83249477D01*
X121740131Y-83261768D01*
X121663627Y-83361937D01*
X121655064Y-83377266D01*
X121609880Y-83494929D01*
X121605983Y-83512048D01*
X121595688Y-83638786D01*
X121596364Y-83654160D01*
X121604566Y-83702273D01*
X121606030Y-83708748D01*
X121693490Y-84017597D01*
X121699058Y-84027992D01*
X121710583Y-84030519D01*
X123167029Y-84030519D01*
X123227757Y-84046407D01*
X123272922Y-84090000D01*
X123290950Y-84150125D01*
X123298021Y-84349606D01*
X123299882Y-84402127D01*
X123284781Y-84465966D01*
X123239224Y-84513167D01*
X123175960Y-84530519D01*
X121853118Y-84530519D01*
X121842147Y-84533097D01*
X121842655Y-84544350D01*
X122125574Y-85543435D01*
X122126482Y-85607616D01*
X122095179Y-85663652D01*
X122040051Y-85696529D01*
X115505035Y-87547155D01*
X115440854Y-87548064D01*
X115384818Y-87516760D01*
X115351940Y-87461632D01*
X115314108Y-87328035D01*
X115308539Y-87317637D01*
X115297015Y-87315111D01*
X113729314Y-87315111D01*
X113671348Y-87300728D01*
X113626829Y-87260916D01*
X113358647Y-86867183D01*
X113342633Y-86833901D01*
X113337344Y-86798785D01*
X113837132Y-86798785D01*
X113840582Y-86811660D01*
X113853458Y-86815111D01*
X115154480Y-86815111D01*
X115165450Y-86812532D01*
X115164942Y-86801279D01*
X114832384Y-85626904D01*
X114830235Y-85620621D01*
X114811996Y-85575356D01*
X114804503Y-85561899D01*
X114729290Y-85459379D01*
X114716999Y-85446849D01*
X114616830Y-85370345D01*
X114601501Y-85361782D01*
X114483838Y-85316598D01*
X114466719Y-85312701D01*
X114339981Y-85302406D01*
X114324607Y-85303082D01*
X114276494Y-85311284D01*
X114270019Y-85312748D01*
X113850053Y-85431674D01*
X113839658Y-85437242D01*
X113837132Y-85448767D01*
X113837132Y-86798785D01*
X113337344Y-86798785D01*
X113337132Y-86797378D01*
X113337132Y-85591302D01*
X113334553Y-85580331D01*
X113323300Y-85580839D01*
X112086849Y-85930976D01*
X112080573Y-85933122D01*
X112035299Y-85951366D01*
X112021850Y-85958853D01*
X111919327Y-86034069D01*
X111906797Y-86046360D01*
X111830293Y-86146529D01*
X111821729Y-86161861D01*
X111791339Y-86241000D01*
X111764772Y-86282693D01*
X111724027Y-86310693D01*
X111675581Y-86320548D01*
X108780943Y-86320548D01*
X108721285Y-86305254D01*
X108676344Y-86263144D01*
X108662245Y-86241000D01*
X108477843Y-85951366D01*
X108239951Y-85577718D01*
X108236233Y-85569804D01*
X108229547Y-85558543D01*
X108225267Y-85545242D01*
X108207125Y-85526160D01*
X108207124Y-85526159D01*
X108208778Y-85524587D01*
X108206185Y-85522719D01*
X108205424Y-85523490D01*
X108200509Y-85518633D01*
X108200508Y-85518632D01*
X108200473Y-85518598D01*
X108200471Y-85518595D01*
X108192951Y-85511164D01*
X108190246Y-85508406D01*
X108170413Y-85487546D01*
X108170412Y-85487545D01*
X108162203Y-85478911D01*
X108159135Y-85477750D01*
X108156806Y-85475448D01*
X108145547Y-85471583D01*
X108139215Y-85467378D01*
X108094570Y-85414599D01*
X108085121Y-85346120D01*
X108095115Y-85277852D01*
X108100040Y-83770794D01*
X108958764Y-83770794D01*
X108959111Y-83775424D01*
X108969207Y-83910158D01*
X108977810Y-84024951D01*
X108978840Y-84029464D01*
X108978841Y-84029470D01*
X109033490Y-84268902D01*
X109034524Y-84273431D01*
X109036220Y-84277754D01*
X109036221Y-84277755D01*
X109090395Y-84415788D01*
X109127639Y-84510682D01*
X109255073Y-84731406D01*
X109413982Y-84930671D01*
X109600815Y-85104026D01*
X109811398Y-85247599D01*
X110041028Y-85358183D01*
X110045456Y-85359548D01*
X110045459Y-85359550D01*
X110080456Y-85370345D01*
X110284574Y-85433307D01*
X110536597Y-85471294D01*
X110786832Y-85471294D01*
X110791467Y-85471294D01*
X111043490Y-85433307D01*
X111287036Y-85358183D01*
X111516666Y-85247599D01*
X111727249Y-85104026D01*
X111765391Y-85068635D01*
X111794886Y-85048323D01*
X111823883Y-85038932D01*
X111823753Y-85038357D01*
X111833450Y-85036164D01*
X112253423Y-84917236D01*
X112263818Y-84911668D01*
X112266345Y-84900144D01*
X112266345Y-84366184D01*
X112274917Y-84320881D01*
X112293540Y-84273431D01*
X112350254Y-84024951D01*
X112369300Y-83770794D01*
X112350254Y-83516637D01*
X112293540Y-83268157D01*
X112274916Y-83220706D01*
X112266345Y-83175404D01*
X112266345Y-81809991D01*
X112263766Y-81799020D01*
X112252512Y-81799528D01*
X111135597Y-82115814D01*
X111100372Y-82120497D01*
X111065264Y-82114997D01*
X111047922Y-82109648D01*
X111047920Y-82109647D01*
X111043490Y-82108281D01*
X111038902Y-82107589D01*
X111038900Y-82107589D01*
X110796050Y-82070984D01*
X110796039Y-82070983D01*
X110791467Y-82070294D01*
X110536597Y-82070294D01*
X110532025Y-82070983D01*
X110532013Y-82070984D01*
X110289160Y-82107589D01*
X110289150Y-82107591D01*
X110284574Y-82108281D01*
X110280148Y-82109645D01*
X110280140Y-82109648D01*
X110045459Y-82182037D01*
X110045444Y-82182042D01*
X110041028Y-82183405D01*
X110036859Y-82185412D01*
X110036848Y-82185417D01*
X109815583Y-82291973D01*
X109815576Y-82291976D01*
X109811398Y-82293989D01*
X109807565Y-82296602D01*
X109807562Y-82296604D01*
X109604643Y-82434952D01*
X109600815Y-82437562D01*
X109597423Y-82440708D01*
X109597417Y-82440714D01*
X109426197Y-82599583D01*
X109413982Y-82610917D01*
X109411092Y-82614539D01*
X109411089Y-82614544D01*
X109257965Y-82806555D01*
X109255073Y-82810182D01*
X109252754Y-82814197D01*
X109252753Y-82814200D01*
X109129960Y-83026885D01*
X109129957Y-83026890D01*
X109127639Y-83030906D01*
X109125945Y-83035220D01*
X109125943Y-83035226D01*
X109037010Y-83261822D01*
X109034524Y-83268157D01*
X109033491Y-83272678D01*
X109033490Y-83272685D01*
X108978841Y-83512117D01*
X108978839Y-83512125D01*
X108977810Y-83516637D01*
X108977463Y-83521256D01*
X108977463Y-83521262D01*
X108963414Y-83708748D01*
X108958764Y-83770794D01*
X108100040Y-83770794D01*
X108105078Y-82229195D01*
X108095938Y-82160631D01*
X108078304Y-82096489D01*
X108051110Y-82032890D01*
X108007852Y-81978916D01*
X108007851Y-81978915D01*
X108008885Y-81978087D01*
X107984037Y-81933384D01*
X107982001Y-81875409D01*
X108006556Y-81822855D01*
X108141948Y-81653080D01*
X108273130Y-81425866D01*
X108368982Y-81181639D01*
X108427364Y-80925853D01*
X108446970Y-80664223D01*
X108427364Y-80402593D01*
X108368982Y-80146807D01*
X108273130Y-79902580D01*
X108240314Y-79845741D01*
X112954904Y-79845741D01*
X112965858Y-79848304D01*
X113562113Y-79848304D01*
X113574988Y-79844853D01*
X113578439Y-79831978D01*
X113578439Y-79331233D01*
X113575860Y-79320263D01*
X113564604Y-79320771D01*
X113366389Y-79376902D01*
X113361029Y-79378685D01*
X113307450Y-79399256D01*
X113295838Y-79405188D01*
X113173368Y-79485083D01*
X113161972Y-79494660D01*
X113062826Y-79600848D01*
X113054051Y-79612877D01*
X112983203Y-79739704D01*
X112977558Y-79753491D01*
X112955331Y-79834499D01*
X112954904Y-79845741D01*
X108240314Y-79845741D01*
X108141948Y-79675366D01*
X108014308Y-79515311D01*
X107989715Y-79462571D01*
X107991890Y-79404418D01*
X108017735Y-79358330D01*
X108016979Y-79357718D01*
X108022621Y-79350743D01*
X108060349Y-79304099D01*
X108087799Y-79240834D01*
X108105746Y-79176982D01*
X108115276Y-79108682D01*
X108123750Y-76515675D01*
X108116270Y-76453466D01*
X108101771Y-76394874D01*
X108079375Y-76336355D01*
X108080438Y-76335948D01*
X108067900Y-76283994D01*
X108084151Y-76224433D01*
X108124871Y-76182401D01*
X108124625Y-76182063D01*
X108126565Y-76180653D01*
X108127107Y-76180093D01*
X108132722Y-76176653D01*
X108324287Y-76013041D01*
X108487899Y-75821476D01*
X108619529Y-75606676D01*
X108715936Y-75373928D01*
X108774746Y-75128965D01*
X108794512Y-74877817D01*
X108774746Y-74626669D01*
X108715936Y-74381706D01*
X108619529Y-74148958D01*
X108606039Y-74126944D01*
X109217778Y-74126944D01*
X109218682Y-74134389D01*
X109235914Y-74276314D01*
X109235915Y-74276319D01*
X109236819Y-74283762D01*
X109239478Y-74290775D01*
X109239479Y-74290776D01*
X109288178Y-74419187D01*
X109292836Y-74431467D01*
X109297099Y-74437643D01*
X109367289Y-74539332D01*
X109382573Y-74561474D01*
X109388182Y-74566443D01*
X109388183Y-74566444D01*
X109461640Y-74631521D01*
X109500816Y-74666227D01*
X109640691Y-74739640D01*
X109794071Y-74777444D01*
X109944541Y-74777444D01*
X109952041Y-74777444D01*
X110105421Y-74739640D01*
X110245296Y-74666227D01*
X110363539Y-74561474D01*
X110367801Y-74555298D01*
X110372771Y-74549689D01*
X110373606Y-74550429D01*
X110411738Y-74516647D01*
X110469364Y-74502444D01*
X110725631Y-74502444D01*
X110773084Y-74511883D01*
X110813312Y-74538763D01*
X115213393Y-78938844D01*
X115246557Y-78998731D01*
X115242890Y-79067089D01*
X115203509Y-79123084D01*
X115140418Y-79149650D01*
X115048735Y-79160600D01*
X115048731Y-79160600D01*
X115043898Y-79161178D01*
X115039211Y-79162505D01*
X115039207Y-79162506D01*
X114606368Y-79285078D01*
X114606356Y-79285082D01*
X114601675Y-79286408D01*
X114597253Y-79288451D01*
X114597248Y-79288454D01*
X114522188Y-79323152D01*
X114522182Y-79323155D01*
X114513332Y-79327247D01*
X114506177Y-79333874D01*
X114498062Y-79339310D01*
X114497705Y-79338777D01*
X114462342Y-79359867D01*
X114411145Y-79365981D01*
X114361887Y-79350743D01*
X114233333Y-79278929D01*
X114219555Y-79273287D01*
X114092241Y-79238356D01*
X114081001Y-79237930D01*
X114078439Y-79248884D01*
X114078439Y-80224304D01*
X114061826Y-80286304D01*
X114016439Y-80331691D01*
X113954439Y-80348304D01*
X113022394Y-80348304D01*
X113011424Y-80350882D01*
X113011932Y-80362138D01*
X113060739Y-80534489D01*
X113062523Y-80539850D01*
X113083092Y-80593428D01*
X113089025Y-80605041D01*
X113168918Y-80727509D01*
X113178494Y-80738904D01*
X113284685Y-80838051D01*
X113296715Y-80846828D01*
X113423544Y-80917678D01*
X113437322Y-80923320D01*
X113577428Y-80961760D01*
X113592147Y-80963939D01*
X113653588Y-80965544D01*
X113709878Y-80980725D01*
X113753010Y-81019952D01*
X113773447Y-81074554D01*
X113776900Y-81102990D01*
X113770241Y-81160580D01*
X113738132Y-81208849D01*
X113687591Y-81237246D01*
X113573049Y-81269683D01*
X113566757Y-81271834D01*
X113521494Y-81290072D01*
X113508037Y-81297565D01*
X113405517Y-81372778D01*
X113392986Y-81385070D01*
X113323398Y-81476185D01*
X113288999Y-81507040D01*
X113245692Y-81523157D01*
X113205705Y-81529974D01*
X113199232Y-81531437D01*
X112779266Y-81650363D01*
X112768871Y-81655931D01*
X112766345Y-81667456D01*
X112766345Y-83017474D01*
X112769795Y-83030349D01*
X112782671Y-83033800D01*
X113931088Y-83033800D01*
X113943963Y-83030349D01*
X113947414Y-83017474D01*
X113947414Y-82084147D01*
X113964027Y-82022147D01*
X114009414Y-81976760D01*
X114071414Y-81960147D01*
X114292167Y-81960147D01*
X114344041Y-81971519D01*
X114386400Y-82003549D01*
X114411476Y-82050362D01*
X114442723Y-82160707D01*
X114447414Y-82194492D01*
X114447414Y-82635250D01*
X114434626Y-82690094D01*
X114398900Y-82733624D01*
X114378134Y-82749560D01*
X114373193Y-82755998D01*
X114373189Y-82756003D01*
X114290833Y-82863330D01*
X114290827Y-82863339D01*
X114285887Y-82869778D01*
X114282778Y-82877283D01*
X114282776Y-82877287D01*
X114231008Y-83002265D01*
X114231006Y-83002270D01*
X114227898Y-83009775D01*
X114226837Y-83017826D01*
X114226836Y-83017834D01*
X114209345Y-83150694D01*
X114208119Y-83160011D01*
X114209180Y-83168070D01*
X114226836Y-83302187D01*
X114226837Y-83302193D01*
X114227898Y-83310247D01*
X114249479Y-83362348D01*
X114258321Y-83421953D01*
X114238020Y-83478690D01*
X114193371Y-83519158D01*
X114134918Y-83533800D01*
X112782671Y-83533800D01*
X112769795Y-83537250D01*
X112766345Y-83550126D01*
X112766345Y-84757609D01*
X112768923Y-84768579D01*
X112780176Y-84768071D01*
X114016627Y-84417934D01*
X114022903Y-84415788D01*
X114068177Y-84397544D01*
X114081626Y-84390057D01*
X114184149Y-84314841D01*
X114196679Y-84302550D01*
X114273183Y-84202381D01*
X114281746Y-84187052D01*
X114326930Y-84069389D01*
X114330827Y-84052270D01*
X114341122Y-83925532D01*
X114340446Y-83910158D01*
X114332244Y-83862045D01*
X114330777Y-83855559D01*
X114315553Y-83801798D01*
X114313286Y-83743607D01*
X114337834Y-83690798D01*
X114383783Y-83655020D01*
X114440997Y-83644163D01*
X114494868Y-83660035D01*
X114498352Y-83662709D01*
X114638349Y-83720698D01*
X114750865Y-83735511D01*
X114822252Y-83735511D01*
X114826305Y-83735511D01*
X114938821Y-83720698D01*
X115078818Y-83662709D01*
X115199036Y-83570462D01*
X115291283Y-83450244D01*
X115349272Y-83310247D01*
X115369051Y-83160011D01*
X115349272Y-83009775D01*
X115303314Y-82898825D01*
X115295660Y-82830417D01*
X115325668Y-82768466D01*
X115384088Y-82732065D01*
X115504456Y-82697980D01*
X115550887Y-82674259D01*
X115597430Y-82661079D01*
X115649409Y-82656933D01*
X115985539Y-82561748D01*
X116031972Y-82538026D01*
X116078519Y-82524845D01*
X116130492Y-82520700D01*
X116304257Y-82471492D01*
X116363439Y-82469430D01*
X116416832Y-82495053D01*
X116452251Y-82542516D01*
X116471661Y-82588428D01*
X116476967Y-82594350D01*
X116480364Y-82601540D01*
X116516857Y-82639024D01*
X116520349Y-82642762D01*
X116555293Y-82681759D01*
X116562238Y-82685639D01*
X116567784Y-82691335D01*
X116594518Y-82704851D01*
X116608220Y-82714068D01*
X116608252Y-82714017D01*
X116617004Y-82719392D01*
X116624757Y-82726139D01*
X116654091Y-82738040D01*
X116658791Y-82740306D01*
X116658880Y-82740111D01*
X116663547Y-82742233D01*
X116668025Y-82744735D01*
X116687619Y-82751756D01*
X116692386Y-82753577D01*
X116740883Y-82773254D01*
X116748818Y-82773688D01*
X116756303Y-82776371D01*
X116808666Y-82777072D01*
X116813722Y-82777244D01*
X116866014Y-82780111D01*
X116873664Y-82777944D01*
X116881612Y-82778051D01*
X116891374Y-82774845D01*
X116891376Y-82774845D01*
X116931324Y-82761727D01*
X116936202Y-82760234D01*
X117790517Y-82518310D01*
X117815725Y-82513917D01*
X117815721Y-82513917D01*
X117826542Y-82513167D01*
X117855695Y-82500842D01*
X117860637Y-82499130D01*
X117860557Y-82498917D01*
X117865352Y-82497119D01*
X117870298Y-82495719D01*
X117889131Y-82486822D01*
X117893723Y-82484767D01*
X117941972Y-82464372D01*
X117947895Y-82459063D01*
X117955089Y-82455666D01*
X117992584Y-82419161D01*
X117996327Y-82415666D01*
X118027648Y-82387601D01*
X118027650Y-82387598D01*
X118035303Y-82380741D01*
X118039183Y-82373794D01*
X118044883Y-82368246D01*
X118058395Y-82341519D01*
X118067614Y-82327814D01*
X118067562Y-82327782D01*
X118072936Y-82319031D01*
X118079687Y-82311274D01*
X118091582Y-82281952D01*
X118093855Y-82277257D01*
X118093651Y-82277164D01*
X118095770Y-82272503D01*
X118098281Y-82268011D01*
X118105310Y-82248394D01*
X118107115Y-82243669D01*
X118126802Y-82195148D01*
X118127236Y-82187215D01*
X118129918Y-82179734D01*
X118130620Y-82127363D01*
X118130792Y-82122308D01*
X118133659Y-82070017D01*
X118131837Y-82063586D01*
X118131555Y-82057761D01*
X118131600Y-82054423D01*
X118132914Y-82054440D01*
X118137072Y-82007925D01*
X118169102Y-81958108D01*
X118220583Y-81928829D01*
X118390953Y-81880585D01*
X118437384Y-81856864D01*
X118483927Y-81843684D01*
X118535906Y-81839538D01*
X118872036Y-81744353D01*
X118918469Y-81720631D01*
X118965016Y-81707450D01*
X119016989Y-81703305D01*
X119353119Y-81608120D01*
X119399550Y-81584399D01*
X119446093Y-81571219D01*
X119498072Y-81567073D01*
X119619387Y-81532718D01*
X119672068Y-81529476D01*
X119721329Y-81548440D01*
X119758239Y-81586174D01*
X119776109Y-81635842D01*
X119788154Y-81727339D01*
X119788155Y-81727345D01*
X119789216Y-81735399D01*
X119792325Y-81742905D01*
X119792326Y-81742908D01*
X119844094Y-81867886D01*
X119847205Y-81875396D01*
X119852148Y-81881837D01*
X119852151Y-81881843D01*
X119922328Y-81973298D01*
X119939452Y-81995614D01*
X119949793Y-82003549D01*
X120053222Y-82082914D01*
X120053225Y-82082916D01*
X120059670Y-82087861D01*
X120199667Y-82145850D01*
X120312183Y-82160663D01*
X120383570Y-82160663D01*
X120387623Y-82160663D01*
X120500139Y-82145850D01*
X120640136Y-82087861D01*
X120760354Y-81995614D01*
X120852601Y-81875396D01*
X120855711Y-81867886D01*
X120859774Y-81860850D01*
X120860921Y-81861512D01*
X120891373Y-81820601D01*
X120946394Y-81794945D01*
X121007000Y-81798481D01*
X121058664Y-81830364D01*
X121089001Y-81882949D01*
X121104421Y-81937402D01*
X121106574Y-81943697D01*
X121124813Y-81988962D01*
X121132306Y-82002419D01*
X121207519Y-82104939D01*
X121219810Y-82117469D01*
X121319979Y-82193973D01*
X121335308Y-82202536D01*
X121452971Y-82247720D01*
X121470090Y-82251617D01*
X121596828Y-82261912D01*
X121612202Y-82261236D01*
X121660315Y-82253034D01*
X121666790Y-82251570D01*
X122086756Y-82132644D01*
X122097151Y-82127076D01*
X122099678Y-82115552D01*
X122099678Y-81973017D01*
X122599678Y-81973017D01*
X122602256Y-81983987D01*
X122613509Y-81983479D01*
X123849960Y-81633342D01*
X123856236Y-81631196D01*
X123901510Y-81612952D01*
X123914959Y-81605465D01*
X124017482Y-81530249D01*
X124030012Y-81517958D01*
X124106516Y-81417789D01*
X124115079Y-81402460D01*
X124160263Y-81284797D01*
X124164160Y-81267678D01*
X124174455Y-81140940D01*
X124173779Y-81125566D01*
X124165577Y-81077453D01*
X124164113Y-81070978D01*
X124076653Y-80762129D01*
X124071085Y-80751734D01*
X124059561Y-80749208D01*
X122616004Y-80749208D01*
X122603128Y-80752658D01*
X122599678Y-80765534D01*
X122599678Y-81973017D01*
X122099678Y-81973017D01*
X122099678Y-80765534D01*
X122096227Y-80752658D01*
X122083352Y-80749208D01*
X120566676Y-80749208D01*
X120519223Y-80739769D01*
X120492293Y-80721774D01*
X120472126Y-80716371D01*
X120260520Y-80716371D01*
X120208646Y-80704999D01*
X120166287Y-80672969D01*
X120141211Y-80626156D01*
X120109965Y-80515815D01*
X120105274Y-80482030D01*
X120105274Y-80200045D01*
X120605274Y-80200045D01*
X120608724Y-80212920D01*
X120621600Y-80216371D01*
X121262367Y-80216371D01*
X121309820Y-80225810D01*
X121336749Y-80243804D01*
X121356917Y-80249208D01*
X122083352Y-80249208D01*
X122096227Y-80245757D01*
X122099678Y-80232882D01*
X122599678Y-80232882D01*
X122603128Y-80245757D01*
X122616004Y-80249208D01*
X123917026Y-80249208D01*
X123927996Y-80246629D01*
X123927488Y-80235376D01*
X123594930Y-79061001D01*
X123592781Y-79054718D01*
X123574542Y-79009453D01*
X123567049Y-78995996D01*
X123491836Y-78893476D01*
X123479545Y-78880946D01*
X123379376Y-78804442D01*
X123364047Y-78795879D01*
X123246384Y-78750695D01*
X123229265Y-78746798D01*
X123102527Y-78736503D01*
X123087153Y-78737179D01*
X123039040Y-78745381D01*
X123032565Y-78746845D01*
X122612599Y-78865771D01*
X122602204Y-78871339D01*
X122599678Y-78882864D01*
X122599678Y-80232882D01*
X122099678Y-80232882D01*
X122099678Y-79025399D01*
X122097099Y-79014428D01*
X122085846Y-79014936D01*
X120849395Y-79365073D01*
X120843105Y-79367224D01*
X120805490Y-79382381D01*
X120760162Y-79391363D01*
X120714694Y-79383125D01*
X120619362Y-79346515D01*
X120608015Y-79345096D01*
X120605274Y-79356195D01*
X120605274Y-80200045D01*
X120105274Y-80200045D01*
X120105274Y-79434274D01*
X120102695Y-79423303D01*
X120091440Y-79423811D01*
X120058756Y-79433067D01*
X119993206Y-79433620D01*
X119936533Y-79400675D01*
X119910850Y-79354674D01*
X119908497Y-79355567D01*
X119852480Y-79207862D01*
X119762743Y-79077855D01*
X119743719Y-79061001D01*
X119650116Y-78978077D01*
X119650114Y-78978075D01*
X119644500Y-78973102D01*
X119591266Y-78945162D01*
X119542777Y-78899516D01*
X119524894Y-78835367D01*
X119524894Y-78804273D01*
X120024894Y-78804273D01*
X120027472Y-78815242D01*
X120038728Y-78814734D01*
X120236943Y-78758603D01*
X120242303Y-78756820D01*
X120295882Y-78736249D01*
X120307494Y-78730317D01*
X120429964Y-78650422D01*
X120441360Y-78640845D01*
X120540506Y-78534657D01*
X120549281Y-78522628D01*
X120620129Y-78395801D01*
X120625774Y-78382014D01*
X120648001Y-78301006D01*
X120648428Y-78289764D01*
X120637475Y-78287202D01*
X120041220Y-78287202D01*
X120028344Y-78290652D01*
X120024894Y-78303528D01*
X120024894Y-78804273D01*
X119524894Y-78804273D01*
X119524894Y-77770876D01*
X120024894Y-77770876D01*
X120028344Y-77783751D01*
X120041220Y-77787202D01*
X120580939Y-77787202D01*
X120591908Y-77784623D01*
X120591400Y-77773367D01*
X120542593Y-77601016D01*
X120540809Y-77595655D01*
X120520240Y-77542077D01*
X120514307Y-77530464D01*
X120434414Y-77407996D01*
X120424838Y-77396601D01*
X120318647Y-77297454D01*
X120306617Y-77288677D01*
X120179788Y-77217827D01*
X120166010Y-77212185D01*
X120038696Y-77177254D01*
X120027456Y-77176828D01*
X120024894Y-77187782D01*
X120024894Y-77770876D01*
X119524894Y-77770876D01*
X119524894Y-77270131D01*
X119522315Y-77259161D01*
X119511059Y-77259669D01*
X119312844Y-77315800D01*
X119307484Y-77317583D01*
X119253905Y-77338154D01*
X119242293Y-77344086D01*
X119119823Y-77423981D01*
X119108427Y-77433558D01*
X119009281Y-77539746D01*
X119000508Y-77551772D01*
X118928693Y-77680329D01*
X118894740Y-77719130D01*
X118847941Y-77740767D01*
X118806764Y-77741352D01*
X118806740Y-77741992D01*
X118796983Y-77741618D01*
X118787415Y-77739726D01*
X118777734Y-77740882D01*
X118777728Y-77740882D01*
X118695615Y-77750690D01*
X118695612Y-77750690D01*
X118690777Y-77751268D01*
X118686090Y-77752595D01*
X118686086Y-77752596D01*
X118253247Y-77875168D01*
X118253235Y-77875172D01*
X118248554Y-77876498D01*
X118244132Y-77878541D01*
X118244127Y-77878544D01*
X118169070Y-77913241D01*
X118169066Y-77913243D01*
X118160211Y-77917337D01*
X118153052Y-77923968D01*
X118153050Y-77923970D01*
X118071978Y-77999072D01*
X118071974Y-77999076D01*
X118064819Y-78005705D01*
X118060062Y-78014220D01*
X118060060Y-78014223D01*
X118006160Y-78110709D01*
X118006158Y-78110713D01*
X118001403Y-78119226D01*
X117999511Y-78128788D01*
X117999509Y-78128795D01*
X117978063Y-78237217D01*
X117976170Y-78246788D01*
X117977326Y-78256468D01*
X117977326Y-78256474D01*
X117987134Y-78338587D01*
X117987712Y-78343426D01*
X117989039Y-78348114D01*
X117989040Y-78348116D01*
X118030384Y-78494114D01*
X118031207Y-78558635D01*
X117999499Y-78614833D01*
X117943847Y-78647491D01*
X117879322Y-78647765D01*
X117823395Y-78615581D01*
X116453144Y-77245330D01*
X116423010Y-77196323D01*
X116418237Y-77138991D01*
X116439851Y-77085675D01*
X116483195Y-77047855D01*
X116548115Y-77013783D01*
X116666358Y-76909030D01*
X116756095Y-76779023D01*
X116812112Y-76631318D01*
X116831153Y-76474500D01*
X116812112Y-76317682D01*
X116756095Y-76169977D01*
X116666358Y-76039970D01*
X116631783Y-76009340D01*
X116548115Y-75935217D01*
X116548952Y-75934271D01*
X116515576Y-75896594D01*
X116501375Y-75838972D01*
X116501375Y-75182852D01*
X129275304Y-75182852D01*
X129284635Y-75185075D01*
X130013193Y-75185075D01*
X130026068Y-75181624D01*
X130029519Y-75168749D01*
X130029519Y-74419187D01*
X130026345Y-74408288D01*
X130015947Y-74412841D01*
X130014830Y-74413775D01*
X130009961Y-74418308D01*
X129280185Y-75174594D01*
X129275304Y-75182852D01*
X116501375Y-75182852D01*
X116501375Y-74944781D01*
X116512299Y-74893890D01*
X116543148Y-74851966D01*
X116584867Y-74815005D01*
X116590483Y-74810030D01*
X116680220Y-74680023D01*
X116736237Y-74532318D01*
X116755278Y-74375500D01*
X116737580Y-74229746D01*
X127663945Y-74229746D01*
X127666167Y-74241049D01*
X127709949Y-74332562D01*
X127718271Y-74345511D01*
X127749567Y-74382959D01*
X127754100Y-74387828D01*
X128393825Y-75005128D01*
X128398849Y-75009482D01*
X128437393Y-75039425D01*
X128450631Y-75047280D01*
X128504194Y-75070596D01*
X128515528Y-75072459D01*
X128518345Y-75061323D01*
X128518345Y-74992760D01*
X129018345Y-74992760D01*
X129021518Y-75003658D01*
X129031916Y-74999105D01*
X129033033Y-74998171D01*
X129037902Y-74993638D01*
X129767678Y-74237352D01*
X129772559Y-74229094D01*
X129763229Y-74226872D01*
X129034671Y-74226872D01*
X129021795Y-74230322D01*
X129018345Y-74243198D01*
X129018345Y-74992760D01*
X128518345Y-74992760D01*
X128518345Y-74243198D01*
X128514894Y-74230322D01*
X128502019Y-74226872D01*
X127675102Y-74226872D01*
X127663945Y-74229746D01*
X116737580Y-74229746D01*
X116736237Y-74218682D01*
X116680220Y-74070977D01*
X116590483Y-73940970D01*
X116472240Y-73836217D01*
X116465595Y-73832729D01*
X116465593Y-73832728D01*
X116339006Y-73766289D01*
X116339002Y-73766287D01*
X116332365Y-73762804D01*
X116325087Y-73761010D01*
X116325084Y-73761009D01*
X116186267Y-73726794D01*
X116186260Y-73726793D01*
X116178985Y-73725000D01*
X116021015Y-73725000D01*
X116013740Y-73726792D01*
X116013732Y-73726794D01*
X115874915Y-73761009D01*
X115874909Y-73761010D01*
X115867635Y-73762804D01*
X115861000Y-73766286D01*
X115860993Y-73766289D01*
X115734406Y-73832728D01*
X115734400Y-73832731D01*
X115727760Y-73836217D01*
X115722148Y-73841187D01*
X115722143Y-73841192D01*
X115615127Y-73935999D01*
X115615122Y-73936003D01*
X115609517Y-73940970D01*
X115605262Y-73947134D01*
X115605257Y-73947140D01*
X115524043Y-74064800D01*
X115524040Y-74064803D01*
X115519780Y-74070977D01*
X115517120Y-74077988D01*
X115517118Y-74077994D01*
X115466423Y-74211667D01*
X115463763Y-74218682D01*
X115462859Y-74226122D01*
X115462858Y-74226129D01*
X115448363Y-74345511D01*
X115444722Y-74375500D01*
X115445626Y-74382945D01*
X115462858Y-74524870D01*
X115462859Y-74524875D01*
X115463763Y-74532318D01*
X115466422Y-74539331D01*
X115466423Y-74539332D01*
X115515870Y-74669715D01*
X115519780Y-74680023D01*
X115524043Y-74686199D01*
X115591144Y-74783413D01*
X115609517Y-74810030D01*
X115615126Y-74814999D01*
X115615127Y-74815000D01*
X115691512Y-74882671D01*
X115727760Y-74914783D01*
X115734406Y-74918271D01*
X115784001Y-74944301D01*
X115832492Y-74989947D01*
X115850375Y-75054097D01*
X115850375Y-75838972D01*
X115836174Y-75896594D01*
X115802797Y-75934271D01*
X115803635Y-75935217D01*
X115691002Y-76034999D01*
X115690997Y-76035003D01*
X115685392Y-76039970D01*
X115681137Y-76046134D01*
X115681132Y-76046140D01*
X115599914Y-76163806D01*
X115599912Y-76163809D01*
X115599259Y-76164755D01*
X115599256Y-76164759D01*
X115595655Y-76169977D01*
X115595061Y-76169567D01*
X115561829Y-76207655D01*
X115508513Y-76229268D01*
X115451182Y-76224495D01*
X115402175Y-76194361D01*
X114036819Y-74829005D01*
X114009939Y-74788777D01*
X114000500Y-74741324D01*
X114000500Y-74221784D01*
X114010512Y-74172971D01*
X114038930Y-74132041D01*
X114081166Y-74105602D01*
X114081838Y-74105351D01*
X114105226Y-74096628D01*
X114214687Y-74014687D01*
X114296628Y-73905226D01*
X114344412Y-73777114D01*
X114350052Y-73724649D01*
X127764130Y-73724649D01*
X127773461Y-73726872D01*
X128502019Y-73726872D01*
X128514894Y-73723421D01*
X128518345Y-73710546D01*
X129018345Y-73710546D01*
X129021795Y-73723421D01*
X129034671Y-73726872D01*
X129861588Y-73726872D01*
X129872744Y-73723997D01*
X129870522Y-73712694D01*
X129826740Y-73621181D01*
X129818418Y-73608232D01*
X129787122Y-73570784D01*
X129782589Y-73565915D01*
X129142864Y-72948615D01*
X129137840Y-72944261D01*
X129099296Y-72914318D01*
X129086058Y-72906463D01*
X129032495Y-72883147D01*
X129021161Y-72881284D01*
X129018345Y-72892421D01*
X129018345Y-73710546D01*
X128518345Y-73710546D01*
X128518345Y-72960984D01*
X128515171Y-72950085D01*
X128504773Y-72954638D01*
X128503656Y-72955572D01*
X128498787Y-72960105D01*
X127769011Y-73716391D01*
X127764130Y-73724649D01*
X114350052Y-73724649D01*
X114350500Y-73720485D01*
X114350499Y-73179516D01*
X114344412Y-73122886D01*
X114296628Y-72994774D01*
X114214687Y-72885313D01*
X114105226Y-72803372D01*
X114096919Y-72800273D01*
X114096918Y-72800273D01*
X113984382Y-72758298D01*
X113984375Y-72758296D01*
X113977114Y-72755588D01*
X113969405Y-72754759D01*
X113969400Y-72754758D01*
X113923772Y-72749853D01*
X113923765Y-72749852D01*
X113920485Y-72749500D01*
X113917174Y-72749500D01*
X113082827Y-72749500D01*
X113082808Y-72749500D01*
X113079516Y-72749501D01*
X113076239Y-72749853D01*
X113076224Y-72749854D01*
X113030597Y-72754759D01*
X113030595Y-72754759D01*
X113022886Y-72755588D01*
X113015620Y-72758297D01*
X113015620Y-72758298D01*
X112903081Y-72800273D01*
X112903077Y-72800274D01*
X112894774Y-72803372D01*
X112887676Y-72808685D01*
X112887673Y-72808687D01*
X112792412Y-72879998D01*
X112792408Y-72880001D01*
X112785313Y-72885313D01*
X112780001Y-72892408D01*
X112779998Y-72892412D01*
X112708687Y-72987673D01*
X112708685Y-72987676D01*
X112703372Y-72994774D01*
X112700274Y-73003077D01*
X112700273Y-73003081D01*
X112658298Y-73115617D01*
X112658295Y-73115626D01*
X112655588Y-73122886D01*
X112654759Y-73130592D01*
X112654758Y-73130599D01*
X112649853Y-73176227D01*
X112649500Y-73179515D01*
X112649500Y-73182824D01*
X112649500Y-73182825D01*
X112649500Y-73717172D01*
X112649500Y-73717190D01*
X112649501Y-73720484D01*
X112649853Y-73723761D01*
X112649854Y-73723775D01*
X112653857Y-73761009D01*
X112655588Y-73777114D01*
X112703372Y-73905226D01*
X112785313Y-74014687D01*
X112894774Y-74096628D01*
X112917536Y-74105117D01*
X112918834Y-74105602D01*
X112961070Y-74132041D01*
X112989488Y-74172971D01*
X112999500Y-74221784D01*
X112999500Y-74727118D01*
X112985985Y-74783413D01*
X112948385Y-74827436D01*
X112894898Y-74849591D01*
X112837182Y-74845049D01*
X112787819Y-74814799D01*
X110311819Y-72338799D01*
X110284939Y-72298571D01*
X110275500Y-72251118D01*
X110275500Y-71630702D01*
X110286424Y-71579811D01*
X110317273Y-71537886D01*
X110352384Y-71506780D01*
X110390483Y-71473028D01*
X110480220Y-71343021D01*
X110536237Y-71195316D01*
X110555278Y-71038498D01*
X110536237Y-70881680D01*
X110480220Y-70733975D01*
X110390483Y-70603968D01*
X110384872Y-70598997D01*
X110277856Y-70504190D01*
X110277854Y-70504188D01*
X110272240Y-70499215D01*
X110265595Y-70495727D01*
X110265593Y-70495726D01*
X110139006Y-70429287D01*
X110139002Y-70429285D01*
X110132365Y-70425802D01*
X110125087Y-70424008D01*
X110125084Y-70424007D01*
X110097426Y-70417190D01*
X112649500Y-70417190D01*
X112649501Y-70420484D01*
X112649853Y-70423761D01*
X112649854Y-70423775D01*
X112651873Y-70442554D01*
X112655588Y-70477114D01*
X112703372Y-70605226D01*
X112785313Y-70714687D01*
X112894774Y-70796628D01*
X112973557Y-70826013D01*
X113015617Y-70841701D01*
X113015618Y-70841701D01*
X113022886Y-70844412D01*
X113079515Y-70850500D01*
X113920484Y-70850499D01*
X113977114Y-70844412D01*
X114105226Y-70796628D01*
X114214687Y-70714687D01*
X114296628Y-70605226D01*
X114344412Y-70477114D01*
X114350500Y-70420485D01*
X114350499Y-69879516D01*
X114344412Y-69822886D01*
X114296628Y-69694774D01*
X114214687Y-69585313D01*
X114105226Y-69503372D01*
X114096919Y-69500273D01*
X114096918Y-69500273D01*
X114081166Y-69494398D01*
X114038930Y-69467959D01*
X114010512Y-69427029D01*
X114000500Y-69378216D01*
X114000500Y-68858658D01*
X114006115Y-68821768D01*
X114022450Y-68788218D01*
X114038169Y-68765445D01*
X114080220Y-68704523D01*
X114136237Y-68556818D01*
X114155278Y-68400000D01*
X114136237Y-68243182D01*
X114080220Y-68095477D01*
X113990483Y-67965470D01*
X113872240Y-67860717D01*
X113865595Y-67857229D01*
X113865593Y-67857228D01*
X113739006Y-67790789D01*
X113739002Y-67790787D01*
X113732365Y-67787304D01*
X113725087Y-67785510D01*
X113725084Y-67785509D01*
X113586267Y-67751294D01*
X113586260Y-67751293D01*
X113578985Y-67749500D01*
X113421015Y-67749500D01*
X113413740Y-67751292D01*
X113413732Y-67751294D01*
X113274915Y-67785509D01*
X113274909Y-67785510D01*
X113267635Y-67787304D01*
X113261000Y-67790786D01*
X113260993Y-67790789D01*
X113134406Y-67857228D01*
X113134400Y-67857231D01*
X113127760Y-67860717D01*
X113122148Y-67865687D01*
X113122143Y-67865692D01*
X113015127Y-67960499D01*
X113015122Y-67960503D01*
X113009517Y-67965470D01*
X113005262Y-67971634D01*
X113005257Y-67971640D01*
X112924043Y-68089300D01*
X112924040Y-68089303D01*
X112919780Y-68095477D01*
X112917120Y-68102488D01*
X112917118Y-68102494D01*
X112869860Y-68227105D01*
X112863763Y-68243182D01*
X112862859Y-68250622D01*
X112862858Y-68250629D01*
X112847294Y-68378818D01*
X112844722Y-68400000D01*
X112845626Y-68407445D01*
X112862858Y-68549370D01*
X112862859Y-68549375D01*
X112863763Y-68556818D01*
X112866422Y-68563831D01*
X112866423Y-68563832D01*
X112902563Y-68659127D01*
X112919780Y-68704523D01*
X112924043Y-68710699D01*
X112977550Y-68788218D01*
X112993885Y-68821768D01*
X112999500Y-68858658D01*
X112999500Y-69378216D01*
X112989488Y-69427029D01*
X112961070Y-69467959D01*
X112918834Y-69494398D01*
X112903081Y-69500273D01*
X112903077Y-69500274D01*
X112894774Y-69503372D01*
X112887676Y-69508685D01*
X112887673Y-69508687D01*
X112792412Y-69579998D01*
X112792408Y-69580001D01*
X112785313Y-69585313D01*
X112780001Y-69592408D01*
X112779998Y-69592412D01*
X112708687Y-69687673D01*
X112708685Y-69687676D01*
X112703372Y-69694774D01*
X112700274Y-69703077D01*
X112700273Y-69703081D01*
X112658298Y-69815617D01*
X112658295Y-69815626D01*
X112655588Y-69822886D01*
X112654759Y-69830592D01*
X112654758Y-69830599D01*
X112649853Y-69876227D01*
X112649500Y-69879515D01*
X112649500Y-69882824D01*
X112649500Y-69882825D01*
X112649500Y-70417172D01*
X112649500Y-70417190D01*
X110097426Y-70417190D01*
X109986267Y-70389792D01*
X109986260Y-70389791D01*
X109978985Y-70387998D01*
X109821015Y-70387998D01*
X109813740Y-70389790D01*
X109813732Y-70389792D01*
X109674915Y-70424007D01*
X109674909Y-70424008D01*
X109667635Y-70425802D01*
X109661000Y-70429284D01*
X109660993Y-70429287D01*
X109534406Y-70495726D01*
X109534400Y-70495729D01*
X109527760Y-70499215D01*
X109522148Y-70504185D01*
X109522143Y-70504190D01*
X109415127Y-70598997D01*
X109415122Y-70599001D01*
X109409517Y-70603968D01*
X109405262Y-70610132D01*
X109405257Y-70610138D01*
X109324043Y-70727798D01*
X109324040Y-70727801D01*
X109319780Y-70733975D01*
X109317120Y-70740986D01*
X109317118Y-70740992D01*
X109267282Y-70872401D01*
X109263763Y-70881680D01*
X109262859Y-70889120D01*
X109262858Y-70889127D01*
X109252601Y-70973608D01*
X109244722Y-71038498D01*
X109245626Y-71045943D01*
X109262858Y-71187868D01*
X109262859Y-71187873D01*
X109263763Y-71195316D01*
X109319780Y-71343021D01*
X109324043Y-71349197D01*
X109392465Y-71448325D01*
X109409517Y-71473028D01*
X109415126Y-71477997D01*
X109415127Y-71477998D01*
X109482727Y-71537886D01*
X109513576Y-71579811D01*
X109524500Y-71630702D01*
X109524500Y-72406213D01*
X109521860Y-72431662D01*
X109521741Y-72432227D01*
X109521740Y-72432234D01*
X109519633Y-72442286D01*
X109520903Y-72452476D01*
X109520903Y-72452480D01*
X109523548Y-72473694D01*
X109523871Y-72478909D01*
X109524077Y-72478892D01*
X109524500Y-72483999D01*
X109524500Y-72489132D01*
X109525344Y-72494190D01*
X109525345Y-72494202D01*
X109527918Y-72509621D01*
X109528657Y-72514688D01*
X109533816Y-72556071D01*
X109535134Y-72566644D01*
X109538626Y-72573788D01*
X109539935Y-72581628D01*
X109564845Y-72627659D01*
X109567171Y-72632179D01*
X109585660Y-72669997D01*
X109585661Y-72669999D01*
X109590174Y-72679229D01*
X109595797Y-72684852D01*
X109599581Y-72691844D01*
X109607138Y-72698800D01*
X109607139Y-72698802D01*
X109638082Y-72727287D01*
X109641780Y-72730835D01*
X110215263Y-73304318D01*
X110247227Y-73359423D01*
X110247611Y-73423126D01*
X110216317Y-73478614D01*
X110161601Y-73511241D01*
X110097907Y-73512396D01*
X109959323Y-73478238D01*
X109959316Y-73478237D01*
X109952041Y-73476444D01*
X109794071Y-73476444D01*
X109786796Y-73478236D01*
X109786788Y-73478238D01*
X109647971Y-73512453D01*
X109647965Y-73512454D01*
X109640691Y-73514248D01*
X109634056Y-73517730D01*
X109634049Y-73517733D01*
X109507462Y-73584172D01*
X109507456Y-73584175D01*
X109500816Y-73587661D01*
X109495204Y-73592631D01*
X109495199Y-73592636D01*
X109388183Y-73687443D01*
X109388178Y-73687447D01*
X109382573Y-73692414D01*
X109378318Y-73698578D01*
X109378313Y-73698584D01*
X109297099Y-73816244D01*
X109297096Y-73816247D01*
X109292836Y-73822421D01*
X109290176Y-73829432D01*
X109290174Y-73829438D01*
X109248884Y-73938312D01*
X109236819Y-73970126D01*
X109235915Y-73977566D01*
X109235914Y-73977573D01*
X109222104Y-74091312D01*
X109217778Y-74126944D01*
X108606039Y-74126944D01*
X108540504Y-74020001D01*
X108490445Y-73938312D01*
X108490442Y-73938308D01*
X108487899Y-73934158D01*
X108404249Y-73836217D01*
X108327447Y-73746293D01*
X108324287Y-73742593D01*
X108301839Y-73723421D01*
X108182132Y-73621181D01*
X108132722Y-73578981D01*
X108128657Y-73576490D01*
X108090669Y-73531676D01*
X108077581Y-73474364D01*
X108090212Y-73425731D01*
X108089186Y-73425332D01*
X108091426Y-73419570D01*
X108111814Y-73367130D01*
X108126598Y-73308815D01*
X108134432Y-73246862D01*
X108148563Y-68922601D01*
X108165128Y-68861089D01*
X108210050Y-68815918D01*
X108271469Y-68799013D01*
X109609795Y-68787245D01*
X109609837Y-68792030D01*
X109609839Y-68792030D01*
X109609797Y-68787246D01*
X109630547Y-68787062D01*
X109630546Y-68787062D01*
X109672264Y-68786696D01*
X109672345Y-68786676D01*
X109672388Y-68786673D01*
X109742284Y-68786033D01*
X109925056Y-68756013D01*
X110101061Y-68698316D01*
X110266134Y-68614307D01*
X110416370Y-68505974D01*
X110548212Y-68375881D01*
X110658542Y-68227105D01*
X110744748Y-68063169D01*
X110767459Y-67996968D01*
X110770509Y-67998014D01*
X110770518Y-67997974D01*
X110767481Y-67996934D01*
X110779285Y-67962483D01*
X110787729Y-67937842D01*
X110787728Y-67937839D01*
X111254889Y-66574394D01*
X111294919Y-66517612D01*
X111359208Y-66491272D01*
X116753416Y-65923349D01*
X116765016Y-65922677D01*
X116897664Y-65921241D01*
X116920860Y-65923176D01*
X117017463Y-65940483D01*
X117045645Y-65945532D01*
X117068083Y-65951774D01*
X117186485Y-65997069D01*
X117207362Y-66007398D01*
X117315200Y-66074033D01*
X117333771Y-66088078D01*
X117427258Y-66173713D01*
X117442869Y-66190978D01*
X117518692Y-66292584D01*
X117530798Y-66312460D01*
X117586287Y-66426459D01*
X117594465Y-66448256D01*
X117627652Y-66570599D01*
X117631612Y-66593551D01*
X117641836Y-66726457D01*
X117642182Y-66738102D01*
X117641606Y-66771486D01*
X117641607Y-66771490D01*
X117586157Y-69989194D01*
X117583367Y-70151104D01*
X117583367Y-70151105D01*
X117582680Y-70190981D01*
X117582302Y-70212884D01*
X117582302Y-70212897D01*
X117582291Y-70213568D01*
X117582336Y-70213788D01*
X117582353Y-70214208D01*
X117580451Y-70325965D01*
X117580385Y-70329865D01*
X117580807Y-70333731D01*
X117580808Y-70333741D01*
X117610140Y-70602142D01*
X117610565Y-70606028D01*
X117611473Y-70609822D01*
X117611474Y-70609827D01*
X117674321Y-70872401D01*
X117674325Y-70872415D01*
X117675232Y-70876203D01*
X117676610Y-70879853D01*
X117676612Y-70879859D01*
X117695901Y-70930947D01*
X117773360Y-71136102D01*
X117903391Y-71381598D01*
X117905640Y-71384794D01*
X118042866Y-71579811D01*
X118063261Y-71608794D01*
X118084726Y-71632337D01*
X118225457Y-71786692D01*
X118250431Y-71814083D01*
X118253402Y-71816613D01*
X118253407Y-71816618D01*
X118283314Y-71842088D01*
X118461931Y-71994207D01*
X118694402Y-72146304D01*
X118944154Y-72267961D01*
X119034342Y-72298571D01*
X119152867Y-72338799D01*
X119207222Y-72357247D01*
X119479429Y-72412743D01*
X119756453Y-72433569D01*
X120033898Y-72419395D01*
X120307358Y-72370444D01*
X120572492Y-72287495D01*
X120678241Y-72239112D01*
X120678267Y-72239107D01*
X120698803Y-72229706D01*
X120735066Y-72213106D01*
X120735067Y-72213104D01*
X123181701Y-71093054D01*
X128251668Y-71093054D01*
X128252572Y-71100499D01*
X128269804Y-71242424D01*
X128269805Y-71242429D01*
X128270709Y-71249872D01*
X128273368Y-71256885D01*
X128273369Y-71256886D01*
X128306035Y-71343021D01*
X128326726Y-71397577D01*
X128416463Y-71527584D01*
X128534706Y-71632337D01*
X128674580Y-71705749D01*
X128674581Y-71705750D01*
X128674554Y-71705800D01*
X128712026Y-71729394D01*
X128738610Y-71767432D01*
X128740618Y-71776660D01*
X128783105Y-71837855D01*
X129260557Y-72298571D01*
X129864438Y-72881284D01*
X129898026Y-72913694D01*
X129960697Y-72953971D01*
X130058769Y-72971668D01*
X130156147Y-72950485D01*
X130217341Y-72907998D01*
X130450313Y-72666562D01*
X130499548Y-72635293D01*
X130557631Y-72629991D01*
X130611713Y-72651829D01*
X130649828Y-72695976D01*
X130663545Y-72752665D01*
X130663545Y-72884072D01*
X130665338Y-72891348D01*
X130665339Y-72891353D01*
X130702460Y-73041960D01*
X130704255Y-73049241D01*
X130707738Y-73055878D01*
X130707740Y-73055882D01*
X130739092Y-73115617D01*
X130783311Y-73199868D01*
X130896116Y-73327199D01*
X131036115Y-73423834D01*
X131043133Y-73426495D01*
X131043132Y-73426495D01*
X131180559Y-73478614D01*
X131195173Y-73484156D01*
X131321673Y-73499516D01*
X131402668Y-73499516D01*
X131406417Y-73499516D01*
X131532917Y-73484156D01*
X131691975Y-73423834D01*
X131831974Y-73327199D01*
X131944779Y-73199868D01*
X132023835Y-73049241D01*
X132064545Y-72884072D01*
X132064545Y-72713960D01*
X132023835Y-72548791D01*
X131944779Y-72398164D01*
X131831974Y-72270833D01*
X131825805Y-72266574D01*
X131825803Y-72266573D01*
X131698151Y-72178461D01*
X131698150Y-72178460D01*
X131691975Y-72174198D01*
X131684960Y-72171537D01*
X131684957Y-72171536D01*
X131560479Y-72124328D01*
X131510765Y-72089620D01*
X131483449Y-72035491D01*
X131485062Y-71974882D01*
X131515219Y-71922282D01*
X131972563Y-71448325D01*
X131976911Y-71443309D01*
X132006851Y-71404767D01*
X132014705Y-71391531D01*
X132065455Y-71274947D01*
X132070101Y-71258009D01*
X132085809Y-71132952D01*
X132085648Y-71123901D01*
X132082830Y-71117152D01*
X132070669Y-71114241D01*
X130673115Y-71114241D01*
X130611115Y-71097628D01*
X130565728Y-71052241D01*
X130549115Y-70990241D01*
X130549115Y-70597915D01*
X131049115Y-70597915D01*
X131052565Y-70610790D01*
X131065441Y-70614241D01*
X131749354Y-70614241D01*
X131758601Y-70612003D01*
X131753501Y-70603972D01*
X131059595Y-69934388D01*
X131051337Y-69929508D01*
X131049115Y-69938839D01*
X131049115Y-70597915D01*
X130549115Y-70597915D01*
X130549115Y-69608537D01*
X130546083Y-69596200D01*
X130534219Y-69591653D01*
X130502231Y-69587636D01*
X130484683Y-69587948D01*
X130360257Y-69608109D01*
X130343506Y-69613354D01*
X130228808Y-69668228D01*
X130215853Y-69676554D01*
X130178407Y-69707848D01*
X130173538Y-69712381D01*
X129625674Y-70280146D01*
X129621318Y-70285172D01*
X129591378Y-70323714D01*
X129583524Y-70336950D01*
X129532774Y-70453534D01*
X129528128Y-70470472D01*
X129523083Y-70510638D01*
X129497424Y-70571959D01*
X129443782Y-70611216D01*
X129377573Y-70617130D01*
X129317823Y-70588000D01*
X129284802Y-70558746D01*
X129284800Y-70558744D01*
X129279186Y-70553771D01*
X129272541Y-70550283D01*
X129272539Y-70550282D01*
X129145952Y-70483843D01*
X129145948Y-70483841D01*
X129139311Y-70480358D01*
X129132033Y-70478564D01*
X129132030Y-70478563D01*
X128993213Y-70444348D01*
X128993206Y-70444347D01*
X128985931Y-70442554D01*
X128827961Y-70442554D01*
X128820686Y-70444346D01*
X128820678Y-70444348D01*
X128681861Y-70478563D01*
X128681855Y-70478564D01*
X128674581Y-70480358D01*
X128667946Y-70483840D01*
X128667939Y-70483843D01*
X128541352Y-70550282D01*
X128541346Y-70550285D01*
X128534706Y-70553771D01*
X128529094Y-70558741D01*
X128529089Y-70558746D01*
X128422073Y-70653553D01*
X128422068Y-70653557D01*
X128416463Y-70658524D01*
X128412208Y-70664688D01*
X128412203Y-70664694D01*
X128330989Y-70782354D01*
X128330986Y-70782357D01*
X128326726Y-70788531D01*
X128324066Y-70795542D01*
X128324064Y-70795548D01*
X128291399Y-70881680D01*
X128270709Y-70936236D01*
X128269805Y-70943676D01*
X128269804Y-70943683D01*
X128253016Y-71081950D01*
X128251668Y-71093054D01*
X123181701Y-71093054D01*
X125503095Y-70030338D01*
X125503104Y-70030330D01*
X125503187Y-70030286D01*
X125596251Y-69987725D01*
X125810367Y-69858555D01*
X126008474Y-69705963D01*
X126188023Y-69531914D01*
X126346701Y-69338647D01*
X126375668Y-69293842D01*
X131638564Y-69293842D01*
X131639468Y-69301287D01*
X131656700Y-69443212D01*
X131656701Y-69443217D01*
X131657605Y-69450660D01*
X131660264Y-69457673D01*
X131660265Y-69457674D01*
X131706559Y-69579743D01*
X131713622Y-69598365D01*
X131717885Y-69604541D01*
X131796137Y-69717910D01*
X131803359Y-69728372D01*
X131808968Y-69733341D01*
X131808969Y-69733342D01*
X131809078Y-69733439D01*
X131921602Y-69833125D01*
X131928248Y-69836613D01*
X132051847Y-69901484D01*
X132061477Y-69906538D01*
X132214857Y-69944342D01*
X132365327Y-69944342D01*
X132372827Y-69944342D01*
X132526207Y-69906538D01*
X132666082Y-69833125D01*
X132784325Y-69728372D01*
X132818556Y-69678778D01*
X132857587Y-69642427D01*
X132908282Y-69625834D01*
X132961257Y-69632073D01*
X133006705Y-69659986D01*
X133022746Y-69675465D01*
X133085417Y-69715742D01*
X133183489Y-69733439D01*
X133280867Y-69712256D01*
X133342061Y-69669769D01*
X133862395Y-69130533D01*
X133902672Y-69067863D01*
X133903500Y-69068395D01*
X133931972Y-69031062D01*
X133918514Y-68980061D01*
X133920368Y-68969791D01*
X133899186Y-68872413D01*
X133856699Y-68811218D01*
X133281845Y-68256515D01*
X132746164Y-67739611D01*
X132746162Y-67739609D01*
X132741778Y-67735379D01*
X132679107Y-67695102D01*
X132667088Y-67692933D01*
X132593054Y-67679573D01*
X132593049Y-67679573D01*
X132581035Y-67677405D01*
X132569101Y-67680000D01*
X132569100Y-67680001D01*
X132495589Y-67695992D01*
X132495587Y-67695992D01*
X132483657Y-67698588D01*
X132473628Y-67705551D01*
X132473626Y-67705552D01*
X132427465Y-67737601D01*
X132427457Y-67737607D01*
X132422463Y-67741075D01*
X132418235Y-67745455D01*
X132418232Y-67745459D01*
X131906362Y-68275923D01*
X131906356Y-68275929D01*
X131902129Y-68280311D01*
X131898835Y-68285435D01*
X131898832Y-68285440D01*
X131868456Y-68332704D01*
X131868454Y-68332707D01*
X131861852Y-68342981D01*
X131859683Y-68354997D01*
X131859682Y-68355002D01*
X131846324Y-68429034D01*
X131846324Y-68429037D01*
X131844156Y-68441053D01*
X131846750Y-68452982D01*
X131846751Y-68452984D01*
X131862742Y-68526500D01*
X131862743Y-68526503D01*
X131865338Y-68538431D01*
X131872301Y-68548460D01*
X131872302Y-68548462D01*
X131888803Y-68572228D01*
X131907825Y-68599626D01*
X131910893Y-68602587D01*
X131937967Y-68659127D01*
X131933509Y-68722361D01*
X131898381Y-68775129D01*
X131808974Y-68854336D01*
X131808967Y-68854343D01*
X131803359Y-68859312D01*
X131799104Y-68865476D01*
X131799099Y-68865482D01*
X131717885Y-68983142D01*
X131717882Y-68983145D01*
X131713622Y-68989319D01*
X131710962Y-68996330D01*
X131710960Y-68996336D01*
X131660265Y-69130009D01*
X131657605Y-69137024D01*
X131656701Y-69144464D01*
X131656700Y-69144471D01*
X131652290Y-69180794D01*
X131638564Y-69293842D01*
X126375668Y-69293842D01*
X126482467Y-69128650D01*
X126535977Y-69020654D01*
X126537979Y-69016619D01*
X126540451Y-69017845D01*
X126540453Y-69017840D01*
X126537981Y-69016615D01*
X126538332Y-69015909D01*
X126546395Y-68999649D01*
X126555699Y-68980890D01*
X126559813Y-68982930D01*
X126559813Y-68982929D01*
X126555699Y-68980889D01*
X126728307Y-68632846D01*
X127822979Y-66425569D01*
X131870291Y-66425569D01*
X131871195Y-66433014D01*
X131888427Y-66574939D01*
X131888428Y-66574944D01*
X131889332Y-66582387D01*
X131891991Y-66589400D01*
X131891992Y-66589401D01*
X131939890Y-66715700D01*
X131945349Y-66730092D01*
X131949612Y-66736268D01*
X132015173Y-66831251D01*
X132035086Y-66860099D01*
X132040695Y-66865068D01*
X132040696Y-66865069D01*
X132139633Y-66952719D01*
X132153329Y-66964852D01*
X132293204Y-67038265D01*
X132446584Y-67076069D01*
X132597054Y-67076069D01*
X132604554Y-67076069D01*
X132757934Y-67038265D01*
X132764586Y-67034773D01*
X132767691Y-67033596D01*
X132814161Y-67025560D01*
X132860271Y-67035456D01*
X132899351Y-67061854D01*
X132910091Y-67072594D01*
X132939590Y-67119718D01*
X132945533Y-67174995D01*
X132926726Y-67227313D01*
X132910030Y-67253293D01*
X132910029Y-67253295D01*
X132903425Y-67263571D01*
X132901256Y-67275587D01*
X132901255Y-67275592D01*
X132887897Y-67349624D01*
X132887897Y-67349627D01*
X132885729Y-67361643D01*
X132888323Y-67373572D01*
X132888324Y-67373574D01*
X132904315Y-67447090D01*
X132904316Y-67447093D01*
X132906911Y-67459021D01*
X132949398Y-67520216D01*
X133298653Y-67857228D01*
X134023656Y-68556818D01*
X134064319Y-68596055D01*
X134126990Y-68636332D01*
X134156344Y-68641629D01*
X134209110Y-68664748D01*
X134245735Y-68709221D01*
X134258310Y-68765445D01*
X134244120Y-68821282D01*
X134176165Y-68950759D01*
X134174371Y-68958035D01*
X134174371Y-68958037D01*
X134162520Y-69006119D01*
X134135182Y-69058395D01*
X134119966Y-69068997D01*
X134135455Y-69123546D01*
X134135455Y-69286040D01*
X134137248Y-69293316D01*
X134137249Y-69293321D01*
X134148421Y-69338647D01*
X134176165Y-69451209D01*
X134179648Y-69457846D01*
X134179650Y-69457850D01*
X134227896Y-69549774D01*
X134255221Y-69601836D01*
X134260194Y-69607450D01*
X134260196Y-69607452D01*
X134291181Y-69642427D01*
X134368026Y-69729167D01*
X134508025Y-69825802D01*
X134536532Y-69836613D01*
X134640978Y-69876224D01*
X134667083Y-69886124D01*
X134793583Y-69901484D01*
X134874578Y-69901484D01*
X134878327Y-69901484D01*
X135004827Y-69886124D01*
X135163885Y-69825802D01*
X135303884Y-69729167D01*
X135416689Y-69601836D01*
X135495745Y-69451209D01*
X135536455Y-69286040D01*
X135536455Y-69115928D01*
X135495745Y-68950759D01*
X135416689Y-68800132D01*
X135404765Y-68786673D01*
X135347790Y-68722361D01*
X135303884Y-68672801D01*
X135297715Y-68668542D01*
X135297713Y-68668541D01*
X135170061Y-68580429D01*
X135170060Y-68580428D01*
X135163885Y-68576166D01*
X135156870Y-68573505D01*
X135156867Y-68573504D01*
X135011843Y-68518504D01*
X135011837Y-68518502D01*
X135004827Y-68515844D01*
X134997382Y-68514940D01*
X134997378Y-68514939D01*
X134882047Y-68500935D01*
X134882035Y-68500934D01*
X134878327Y-68500484D01*
X134793583Y-68500484D01*
X134789876Y-68500934D01*
X134789861Y-68500935D01*
X134774115Y-68502847D01*
X134714214Y-68495312D01*
X134664970Y-68460382D01*
X134638059Y-68406337D01*
X134639859Y-68345990D01*
X134669940Y-68293651D01*
X134903968Y-68051123D01*
X134944245Y-67988453D01*
X134961941Y-67890381D01*
X134940759Y-67793003D01*
X134925417Y-67770905D01*
X136427440Y-67770905D01*
X136436771Y-67773128D01*
X137165329Y-67773128D01*
X137178204Y-67769677D01*
X137181655Y-67756802D01*
X137181655Y-67007240D01*
X137178481Y-66996341D01*
X137168083Y-67000894D01*
X137166966Y-67001828D01*
X137162097Y-67006361D01*
X136432321Y-67762647D01*
X136427440Y-67770905D01*
X134925417Y-67770905D01*
X134898272Y-67731808D01*
X134140806Y-67000894D01*
X133951060Y-66817799D01*
X134816081Y-66817799D01*
X134818303Y-66829102D01*
X134862085Y-66920615D01*
X134870407Y-66933564D01*
X134901703Y-66971012D01*
X134906236Y-66975881D01*
X135545961Y-67593181D01*
X135550985Y-67597535D01*
X135589529Y-67627478D01*
X135602767Y-67635333D01*
X135656330Y-67658649D01*
X135667664Y-67660512D01*
X135670481Y-67649376D01*
X135670481Y-67580813D01*
X136170481Y-67580813D01*
X136173654Y-67591711D01*
X136184052Y-67587158D01*
X136185169Y-67586224D01*
X136190038Y-67581691D01*
X136919814Y-66825405D01*
X136924695Y-66817147D01*
X136915365Y-66814925D01*
X136186807Y-66814925D01*
X136173931Y-66818375D01*
X136170481Y-66831251D01*
X136170481Y-67580813D01*
X135670481Y-67580813D01*
X135670481Y-66831251D01*
X135667030Y-66818375D01*
X135654155Y-66814925D01*
X134827238Y-66814925D01*
X134816081Y-66817799D01*
X133951060Y-66817799D01*
X133787737Y-66660201D01*
X133787735Y-66660199D01*
X133783351Y-66655969D01*
X133720680Y-66615692D01*
X133708661Y-66613523D01*
X133634627Y-66600163D01*
X133634622Y-66600163D01*
X133622608Y-66597995D01*
X133610674Y-66600590D01*
X133610673Y-66600591D01*
X133537162Y-66616582D01*
X133537160Y-66616582D01*
X133525230Y-66619178D01*
X133515200Y-66626141D01*
X133504000Y-66631017D01*
X133502948Y-66628600D01*
X133469959Y-66641570D01*
X133413167Y-66636478D01*
X133364658Y-66606509D01*
X133210707Y-66452558D01*
X133186901Y-66419160D01*
X133175292Y-66379823D01*
X133167142Y-66312702D01*
X133161806Y-66268751D01*
X133105789Y-66121046D01*
X133016052Y-65991039D01*
X133007520Y-65983480D01*
X132903425Y-65891261D01*
X132903423Y-65891259D01*
X132897809Y-65886286D01*
X132891164Y-65882798D01*
X132891162Y-65882797D01*
X132764575Y-65816358D01*
X132764571Y-65816356D01*
X132757934Y-65812873D01*
X132750656Y-65811079D01*
X132750653Y-65811078D01*
X132611836Y-65776863D01*
X132611829Y-65776862D01*
X132604554Y-65775069D01*
X132446584Y-65775069D01*
X132439309Y-65776861D01*
X132439301Y-65776863D01*
X132300484Y-65811078D01*
X132300478Y-65811079D01*
X132293204Y-65812873D01*
X132286569Y-65816355D01*
X132286562Y-65816358D01*
X132159975Y-65882797D01*
X132159969Y-65882800D01*
X132153329Y-65886286D01*
X132147717Y-65891256D01*
X132147712Y-65891261D01*
X132040696Y-65986068D01*
X132040691Y-65986072D01*
X132035086Y-65991039D01*
X132030831Y-65997203D01*
X132030826Y-65997209D01*
X131949612Y-66114869D01*
X131949609Y-66114872D01*
X131945349Y-66121046D01*
X131942689Y-66128057D01*
X131942687Y-66128063D01*
X131891992Y-66261736D01*
X131889332Y-66268751D01*
X131888428Y-66276191D01*
X131888427Y-66276198D01*
X131871639Y-66414465D01*
X131870291Y-66425569D01*
X127822979Y-66425569D01*
X129687405Y-62666174D01*
X133890000Y-62666174D01*
X133893450Y-62679049D01*
X133906326Y-62682500D01*
X134433674Y-62682500D01*
X134446549Y-62679049D01*
X134450000Y-62666174D01*
X134450000Y-62084422D01*
X134446293Y-62071280D01*
X134437023Y-62069436D01*
X134435631Y-62069691D01*
X134290293Y-62111916D01*
X134276085Y-62118064D01*
X134147071Y-62194362D01*
X134134836Y-62203853D01*
X134028853Y-62309836D01*
X134019362Y-62322071D01*
X133943064Y-62451085D01*
X133936916Y-62465293D01*
X133894690Y-62610632D01*
X133892424Y-62623038D01*
X133890191Y-62651415D01*
X133890000Y-62656295D01*
X133890000Y-62666174D01*
X129687405Y-62666174D01*
X130325371Y-61379790D01*
X130325373Y-61379789D01*
X130343093Y-61344059D01*
X130343100Y-61344063D01*
X130392110Y-61245178D01*
X130469899Y-61038611D01*
X130513267Y-60875542D01*
X131321376Y-60875542D01*
X131321758Y-60880396D01*
X131334209Y-61038611D01*
X131340524Y-61118844D01*
X131341658Y-61123568D01*
X131341659Y-61123573D01*
X131371521Y-61247955D01*
X131397498Y-61356154D01*
X131399363Y-61360658D01*
X131399364Y-61360659D01*
X131489027Y-61577128D01*
X131489031Y-61577136D01*
X131490893Y-61581631D01*
X131618411Y-61789721D01*
X131621575Y-61793426D01*
X131621579Y-61793431D01*
X131773744Y-61971593D01*
X131776911Y-61975301D01*
X131780618Y-61978467D01*
X131958780Y-62130632D01*
X131958783Y-62130634D01*
X131962491Y-62133801D01*
X132170581Y-62261319D01*
X132175080Y-62263182D01*
X132175083Y-62263184D01*
X132182524Y-62266266D01*
X132396058Y-62354714D01*
X132633368Y-62411688D01*
X132876670Y-62430836D01*
X133119972Y-62411688D01*
X133357282Y-62354714D01*
X133582759Y-62261319D01*
X133790849Y-62133801D01*
X133976429Y-61975301D01*
X134134929Y-61789721D01*
X134262447Y-61581631D01*
X134355842Y-61356154D01*
X134412816Y-61118844D01*
X134431964Y-60875542D01*
X134412816Y-60632240D01*
X134355842Y-60394930D01*
X134262447Y-60169453D01*
X134134929Y-59961363D01*
X134116835Y-59940178D01*
X133979595Y-59779490D01*
X133976429Y-59775783D01*
X133921739Y-59729073D01*
X133794559Y-59620451D01*
X133794554Y-59620447D01*
X133790849Y-59617283D01*
X133786693Y-59614736D01*
X133786690Y-59614734D01*
X133648919Y-59530308D01*
X133582759Y-59489765D01*
X133578264Y-59487903D01*
X133578256Y-59487899D01*
X133361787Y-59398236D01*
X133361786Y-59398235D01*
X133357282Y-59396370D01*
X133352545Y-59395232D01*
X133352543Y-59395232D01*
X133124701Y-59340531D01*
X133124696Y-59340530D01*
X133119972Y-59339396D01*
X133115125Y-59339014D01*
X133115122Y-59339014D01*
X132881524Y-59320630D01*
X132876670Y-59320248D01*
X132871816Y-59320630D01*
X132638217Y-59339014D01*
X132638212Y-59339014D01*
X132633368Y-59339396D01*
X132628645Y-59340529D01*
X132628638Y-59340531D01*
X132400796Y-59395232D01*
X132400790Y-59395233D01*
X132396058Y-59396370D01*
X132391556Y-59398234D01*
X132391552Y-59398236D01*
X132175083Y-59487899D01*
X132175070Y-59487905D01*
X132170581Y-59489765D01*
X132166427Y-59492310D01*
X132166426Y-59492311D01*
X131966649Y-59614734D01*
X131966640Y-59614740D01*
X131962491Y-59617283D01*
X131958791Y-59620442D01*
X131958780Y-59620451D01*
X131780618Y-59772616D01*
X131780611Y-59772622D01*
X131776911Y-59775783D01*
X131773750Y-59779483D01*
X131773744Y-59779490D01*
X131621579Y-59957652D01*
X131621570Y-59957663D01*
X131618411Y-59961363D01*
X131615868Y-59965512D01*
X131615862Y-59965521D01*
X131508087Y-60141395D01*
X131490893Y-60169453D01*
X131489033Y-60173942D01*
X131489027Y-60173955D01*
X131399364Y-60390424D01*
X131397498Y-60394930D01*
X131396361Y-60399662D01*
X131396360Y-60399668D01*
X131341659Y-60627510D01*
X131341657Y-60627517D01*
X131340524Y-60632240D01*
X131340142Y-60637084D01*
X131340142Y-60637089D01*
X131337999Y-60664322D01*
X131321376Y-60875542D01*
X130513267Y-60875542D01*
X130526629Y-60825298D01*
X130561731Y-60607379D01*
X130566967Y-60519791D01*
X130566976Y-60519764D01*
X130849834Y-55770794D01*
X131458389Y-55770794D01*
X131478917Y-55992330D01*
X131480486Y-55997844D01*
X131538233Y-56200807D01*
X131538236Y-56200815D01*
X131539803Y-56206322D01*
X131542355Y-56211447D01*
X131542357Y-56211452D01*
X131636419Y-56400353D01*
X131636421Y-56400357D01*
X131638974Y-56405483D01*
X131642423Y-56410050D01*
X131642426Y-56410055D01*
X131769593Y-56578452D01*
X131769598Y-56578457D01*
X131773051Y-56583030D01*
X131777287Y-56586891D01*
X131777291Y-56586896D01*
X131831339Y-56636167D01*
X131937470Y-56732918D01*
X132126631Y-56850041D01*
X132334092Y-56930412D01*
X132552789Y-56971294D01*
X132769546Y-56971294D01*
X132775275Y-56971294D01*
X132993972Y-56930412D01*
X133201433Y-56850041D01*
X133390594Y-56732918D01*
X133555013Y-56583030D01*
X133689090Y-56405483D01*
X133788261Y-56206322D01*
X133849147Y-55992330D01*
X133869675Y-55770794D01*
X133849147Y-55549258D01*
X133797571Y-55367988D01*
X133789830Y-55340780D01*
X133789829Y-55340778D01*
X133788261Y-55335266D01*
X133689090Y-55136105D01*
X133624421Y-55050469D01*
X133558470Y-54963135D01*
X133558466Y-54963131D01*
X133555013Y-54958558D01*
X133550776Y-54954695D01*
X133550772Y-54954691D01*
X133394828Y-54812530D01*
X133394829Y-54812530D01*
X133390594Y-54808670D01*
X133385724Y-54805655D01*
X133385722Y-54805653D01*
X133206307Y-54694565D01*
X133206308Y-54694565D01*
X133201433Y-54691547D01*
X132993972Y-54611176D01*
X132988334Y-54610122D01*
X132780904Y-54571346D01*
X132780901Y-54571345D01*
X132775275Y-54570294D01*
X132552789Y-54570294D01*
X132547163Y-54571345D01*
X132547159Y-54571346D01*
X132339729Y-54610122D01*
X132339726Y-54610122D01*
X132334092Y-54611176D01*
X132328749Y-54613245D01*
X132328745Y-54613247D01*
X132131973Y-54689477D01*
X132131968Y-54689479D01*
X132126631Y-54691547D01*
X132121759Y-54694563D01*
X132121756Y-54694565D01*
X131942341Y-54805653D01*
X131942333Y-54805658D01*
X131937470Y-54808670D01*
X131933239Y-54812526D01*
X131933235Y-54812530D01*
X131777291Y-54954691D01*
X131777281Y-54954701D01*
X131773051Y-54958558D01*
X131769602Y-54963124D01*
X131769593Y-54963135D01*
X131642426Y-55131532D01*
X131642419Y-55131542D01*
X131638974Y-55136105D01*
X131636424Y-55141225D01*
X131636419Y-55141234D01*
X131542357Y-55330135D01*
X131542353Y-55330143D01*
X131539803Y-55335266D01*
X131538237Y-55340769D01*
X131538233Y-55340780D01*
X131480486Y-55543743D01*
X131478917Y-55549258D01*
X131478388Y-55554963D01*
X131478388Y-55554965D01*
X131466881Y-55679147D01*
X131458389Y-55770794D01*
X130849834Y-55770794D01*
X130981037Y-53567989D01*
X130982470Y-53555204D01*
X131006356Y-53410463D01*
X131013164Y-53385633D01*
X131064075Y-53255017D01*
X131075871Y-53232122D01*
X131152665Y-53114849D01*
X131168932Y-53094888D01*
X131268307Y-52996001D01*
X131288346Y-52979833D01*
X131406010Y-52903611D01*
X131428953Y-52891935D01*
X131559820Y-52841670D01*
X131584688Y-52834984D01*
X131723115Y-52812841D01*
X131748825Y-52811437D01*
X131888837Y-52818371D01*
X131914290Y-52822310D01*
X131950433Y-52831831D01*
X132056133Y-52859677D01*
X132068430Y-52863613D01*
X132180958Y-52906226D01*
X132428840Y-52959779D01*
X132681924Y-52975977D01*
X132934612Y-52954462D01*
X133181314Y-52895711D01*
X133416575Y-52801022D01*
X133635192Y-52672490D01*
X133832329Y-52512958D01*
X134003627Y-52325953D01*
X134145297Y-52115612D01*
X134254206Y-51886587D01*
X134327945Y-51643942D01*
X134364884Y-51393045D01*
X134364204Y-51139445D01*
X134337257Y-50962976D01*
X136336936Y-50962976D01*
X136337191Y-50964368D01*
X136379416Y-51109706D01*
X136385564Y-51123914D01*
X136461862Y-51252928D01*
X136471353Y-51265163D01*
X136577336Y-51371146D01*
X136589571Y-51380637D01*
X136718585Y-51456935D01*
X136732793Y-51463083D01*
X136878132Y-51505309D01*
X136890538Y-51507575D01*
X136918915Y-51509808D01*
X136923795Y-51510000D01*
X136933674Y-51510000D01*
X136946549Y-51506549D01*
X136950000Y-51493674D01*
X136950000Y-50966326D01*
X136946549Y-50953450D01*
X136933674Y-50950000D01*
X136351922Y-50950000D01*
X136338780Y-50953706D01*
X136336936Y-50962976D01*
X134337257Y-50962976D01*
X134325922Y-50888749D01*
X134250885Y-50646503D01*
X134149890Y-50437023D01*
X136336936Y-50437023D01*
X136338780Y-50446293D01*
X136351922Y-50450000D01*
X136933674Y-50450000D01*
X136946549Y-50446549D01*
X136950000Y-50433674D01*
X136950000Y-49906326D01*
X136946549Y-49893450D01*
X136933674Y-49890000D01*
X136923795Y-49890000D01*
X136918915Y-49890191D01*
X136890538Y-49892424D01*
X136878132Y-49894690D01*
X136732793Y-49936916D01*
X136718585Y-49943064D01*
X136589571Y-50019362D01*
X136577336Y-50028853D01*
X136471353Y-50134836D01*
X136461862Y-50147071D01*
X136385564Y-50276085D01*
X136379416Y-50290293D01*
X136337191Y-50435631D01*
X136336936Y-50437023D01*
X134149890Y-50437023D01*
X134140750Y-50418065D01*
X133997956Y-50208486D01*
X133825658Y-50022401D01*
X133780693Y-49986410D01*
X133631269Y-49866808D01*
X133631264Y-49866805D01*
X133627669Y-49863927D01*
X133623683Y-49861612D01*
X133623680Y-49861610D01*
X133412354Y-49738883D01*
X133412349Y-49738880D01*
X133408367Y-49736568D01*
X133172602Y-49643141D01*
X133168110Y-49642096D01*
X133168105Y-49642095D01*
X132930077Y-49586755D01*
X132930068Y-49586753D01*
X132925588Y-49585712D01*
X132921002Y-49585346D01*
X132920994Y-49585345D01*
X132677392Y-49565919D01*
X132677390Y-49565918D01*
X132672789Y-49565552D01*
X132555798Y-49573712D01*
X132536846Y-49573581D01*
X132474590Y-49568379D01*
X132437937Y-49559566D01*
X132388977Y-49539523D01*
X132356670Y-49520108D01*
X132315993Y-49486281D01*
X132291011Y-49458054D01*
X132262379Y-49413572D01*
X132247032Y-49379145D01*
X132233085Y-49328107D01*
X132228791Y-49290660D01*
X132230824Y-49237791D01*
X132237979Y-49200791D01*
X132259153Y-49141610D01*
X132266849Y-49124369D01*
X132825079Y-48093269D01*
X132972426Y-47821107D01*
X133018006Y-47773615D01*
X133081471Y-47756143D01*
X134314570Y-47756143D01*
X134332353Y-47757425D01*
G37*
%TD.AperFunction*%
%TD*%
%TA.AperFunction,Conductor*%
%TO.N,GNDA*%
G36*
X102101633Y-65772321D02*
G01*
X106189456Y-66187145D01*
X106253366Y-66212866D01*
X106293683Y-66268729D01*
X106922627Y-68026221D01*
X106922681Y-68026306D01*
X106922700Y-68026352D01*
X106946383Y-68092405D01*
X106948665Y-68096602D01*
X106948667Y-68096605D01*
X107032876Y-68251438D01*
X107032880Y-68251444D01*
X107035168Y-68255651D01*
X107038079Y-68259459D01*
X107145107Y-68399484D01*
X107145112Y-68399490D01*
X107148017Y-68403290D01*
X107282240Y-68531805D01*
X107434642Y-68638135D01*
X107601590Y-68719746D01*
X107779109Y-68774694D01*
X107785427Y-68775621D01*
X107787136Y-68775872D01*
X107841368Y-68797767D01*
X107879533Y-68842084D01*
X107893139Y-68898964D01*
X107878933Y-73246027D01*
X107864149Y-73304342D01*
X107823658Y-73348836D01*
X107766990Y-73369034D01*
X107707485Y-73360185D01*
X107689672Y-73352807D01*
X107689670Y-73352806D01*
X107685174Y-73350944D01*
X107680445Y-73349808D01*
X107680437Y-73349806D01*
X107444944Y-73293270D01*
X107444940Y-73293269D01*
X107440211Y-73292134D01*
X107435360Y-73291752D01*
X107435359Y-73291752D01*
X107314770Y-73282261D01*
X107256964Y-73262638D01*
X107215527Y-73217810D01*
X107200500Y-73158643D01*
X107200500Y-71358658D01*
X107206115Y-71321768D01*
X107222450Y-71288218D01*
X107229848Y-71277498D01*
X107280220Y-71204523D01*
X107336237Y-71056818D01*
X107355278Y-70900000D01*
X107336237Y-70743182D01*
X107280220Y-70595477D01*
X107190483Y-70465470D01*
X107072240Y-70360717D01*
X107065595Y-70357229D01*
X107065593Y-70357228D01*
X106939006Y-70290789D01*
X106939002Y-70290787D01*
X106932365Y-70287304D01*
X106925087Y-70285510D01*
X106925084Y-70285509D01*
X106786267Y-70251294D01*
X106786260Y-70251293D01*
X106778985Y-70249500D01*
X106621015Y-70249500D01*
X106613740Y-70251292D01*
X106613732Y-70251294D01*
X106474915Y-70285509D01*
X106474909Y-70285510D01*
X106467635Y-70287304D01*
X106461000Y-70290786D01*
X106460993Y-70290789D01*
X106334406Y-70357228D01*
X106334400Y-70357231D01*
X106327760Y-70360717D01*
X106322148Y-70365687D01*
X106322143Y-70365692D01*
X106215127Y-70460499D01*
X106215122Y-70460503D01*
X106209517Y-70465470D01*
X106205261Y-70471635D01*
X106205259Y-70471638D01*
X106202048Y-70476291D01*
X106157624Y-70515645D01*
X106100000Y-70529847D01*
X106042376Y-70515645D01*
X105997952Y-70476291D01*
X105990483Y-70465470D01*
X105872240Y-70360717D01*
X105865595Y-70357229D01*
X105865593Y-70357228D01*
X105739006Y-70290789D01*
X105739002Y-70290787D01*
X105732365Y-70287304D01*
X105725087Y-70285510D01*
X105725084Y-70285509D01*
X105586267Y-70251294D01*
X105586260Y-70251293D01*
X105578985Y-70249500D01*
X105421015Y-70249500D01*
X105413740Y-70251292D01*
X105413732Y-70251294D01*
X105274915Y-70285509D01*
X105274909Y-70285510D01*
X105267635Y-70287304D01*
X105261000Y-70290786D01*
X105260993Y-70290789D01*
X105134406Y-70357228D01*
X105134400Y-70357231D01*
X105127760Y-70360717D01*
X105122148Y-70365687D01*
X105122143Y-70365692D01*
X105015127Y-70460499D01*
X105015122Y-70460503D01*
X105009517Y-70465470D01*
X105005262Y-70471634D01*
X105005257Y-70471640D01*
X104924043Y-70589300D01*
X104924040Y-70589303D01*
X104919780Y-70595477D01*
X104917120Y-70602488D01*
X104917118Y-70602494D01*
X104866423Y-70736165D01*
X104866423Y-70736167D01*
X104863763Y-70743182D01*
X104862859Y-70750623D01*
X104862858Y-70750629D01*
X104857139Y-70797728D01*
X104845529Y-70837063D01*
X104821724Y-70870460D01*
X101980335Y-73711849D01*
X101969722Y-73720402D01*
X101969798Y-73720490D01*
X101963093Y-73726299D01*
X101955637Y-73731092D01*
X101949832Y-73737790D01*
X101949831Y-73737792D01*
X101923118Y-73768620D01*
X101917092Y-73775093D01*
X101910672Y-73781513D01*
X101910667Y-73781518D01*
X101907544Y-73784642D01*
X101904897Y-73788177D01*
X101904882Y-73788195D01*
X101899439Y-73795465D01*
X101893897Y-73802342D01*
X101867194Y-73833160D01*
X101867190Y-73833165D01*
X101861388Y-73839862D01*
X101857705Y-73847924D01*
X101852909Y-73855388D01*
X101852813Y-73855326D01*
X101852432Y-73855967D01*
X101852533Y-73856022D01*
X101848284Y-73863803D01*
X101842969Y-73870904D01*
X101839870Y-73879211D01*
X101839869Y-73879214D01*
X101825617Y-73917426D01*
X101822231Y-73925601D01*
X101805283Y-73962711D01*
X101805281Y-73962717D01*
X101801600Y-73970778D01*
X101800337Y-73979554D01*
X101797840Y-73988062D01*
X101797729Y-73988029D01*
X101797544Y-73988755D01*
X101797657Y-73988780D01*
X101795772Y-73997443D01*
X101792674Y-74005752D01*
X101792041Y-74014595D01*
X101792041Y-74014597D01*
X101791964Y-74015677D01*
X101791500Y-74017081D01*
X101790157Y-74023260D01*
X101789510Y-74023119D01*
X101772978Y-74073267D01*
X101728954Y-74114968D01*
X101670421Y-74130808D01*
X101611375Y-74116998D01*
X101565938Y-74076841D01*
X101322147Y-73720490D01*
X101292156Y-73676652D01*
X101276037Y-73643283D01*
X101270499Y-73606639D01*
X101270499Y-73472563D01*
X101270499Y-73467694D01*
X101255275Y-73371567D01*
X101250845Y-73362873D01*
X101247829Y-73353590D01*
X101248438Y-73353391D01*
X101237781Y-73313628D01*
X101245846Y-73262697D01*
X101273930Y-73219449D01*
X101378057Y-73115322D01*
X101387236Y-73103607D01*
X101462391Y-72979283D01*
X101468507Y-72965695D01*
X101512004Y-72826109D01*
X101514550Y-72813305D01*
X101518949Y-72764904D01*
X101516549Y-72755950D01*
X101503674Y-72752500D01*
X99896326Y-72752500D01*
X99883450Y-72755950D01*
X99881050Y-72764904D01*
X99885449Y-72813305D01*
X99887995Y-72826109D01*
X99931492Y-72965695D01*
X99937608Y-72979283D01*
X100012763Y-73103607D01*
X100021946Y-73115327D01*
X100126069Y-73219450D01*
X100154151Y-73262691D01*
X100162218Y-73313616D01*
X100151562Y-73353392D01*
X100152171Y-73353590D01*
X100149154Y-73362873D01*
X100144725Y-73371567D01*
X100143198Y-73381202D01*
X100143198Y-73381205D01*
X100130263Y-73462872D01*
X100130262Y-73462879D01*
X100129500Y-73467693D01*
X100129500Y-73472570D01*
X100129500Y-73472571D01*
X100129500Y-73922436D01*
X100129500Y-73922448D01*
X100129501Y-73927306D01*
X100130261Y-73932110D01*
X100130262Y-73932112D01*
X100143198Y-74013797D01*
X100143199Y-74013802D01*
X100144725Y-74023433D01*
X100149153Y-74032124D01*
X100149154Y-74032126D01*
X100199328Y-74130598D01*
X100203759Y-74139294D01*
X100295706Y-74231241D01*
X100411567Y-74290275D01*
X100456982Y-74297468D01*
X100503865Y-74315142D01*
X100539926Y-74349925D01*
X100638930Y-74494640D01*
X100874753Y-74839343D01*
X100894504Y-74887695D01*
X100892593Y-74939891D01*
X100869359Y-74986669D01*
X100839272Y-75024397D01*
X100839261Y-75024412D01*
X100836379Y-75028027D01*
X100834064Y-75032036D01*
X100834061Y-75032041D01*
X100707518Y-75251219D01*
X100707512Y-75251230D01*
X100705197Y-75255241D01*
X100703504Y-75259554D01*
X100703499Y-75259565D01*
X100611041Y-75495145D01*
X100611038Y-75495152D01*
X100609345Y-75499468D01*
X100608313Y-75503986D01*
X100608312Y-75503992D01*
X100551994Y-75750734D01*
X100551992Y-75750742D01*
X100550963Y-75755254D01*
X100550616Y-75759873D01*
X100550616Y-75759879D01*
X100535430Y-75962530D01*
X100531357Y-76016884D01*
X100531704Y-76021515D01*
X100548620Y-76247256D01*
X100550963Y-76278514D01*
X100551993Y-76283027D01*
X100551994Y-76283033D01*
X100600484Y-76495477D01*
X100609345Y-76534300D01*
X100611040Y-76538618D01*
X100611041Y-76538622D01*
X100703499Y-76774202D01*
X100703502Y-76774208D01*
X100705197Y-76778527D01*
X100707515Y-76782542D01*
X100707518Y-76782548D01*
X100717594Y-76800000D01*
X100836379Y-77005741D01*
X100999960Y-77210865D01*
X101192286Y-77389317D01*
X101409061Y-77537112D01*
X101645442Y-77650947D01*
X101649870Y-77652312D01*
X101649873Y-77652314D01*
X101753302Y-77684217D01*
X101896150Y-77728280D01*
X102155583Y-77767384D01*
X102413312Y-77767384D01*
X102417947Y-77767384D01*
X102677380Y-77728280D01*
X102928088Y-77650947D01*
X103164469Y-77537112D01*
X103381244Y-77389317D01*
X103573570Y-77210865D01*
X103607943Y-77167762D01*
X103656229Y-77131021D01*
X103716173Y-77121591D01*
X103773414Y-77141732D01*
X103814245Y-77186622D01*
X103828888Y-77214017D01*
X103844399Y-77243035D01*
X103975674Y-77402995D01*
X104135634Y-77534270D01*
X104318130Y-77631817D01*
X104516150Y-77691885D01*
X104670476Y-77707085D01*
X104770642Y-77707085D01*
X104773692Y-77707085D01*
X104928018Y-77691885D01*
X105126038Y-77631817D01*
X105308534Y-77534270D01*
X105468494Y-77402995D01*
X105599769Y-77243035D01*
X105697316Y-77060539D01*
X105757384Y-76862519D01*
X105777667Y-76656585D01*
X105757384Y-76450651D01*
X105697316Y-76252631D01*
X105599769Y-76070135D01*
X105468494Y-75910175D01*
X105308534Y-75778900D01*
X105255840Y-75750734D01*
X105131412Y-75684225D01*
X105131407Y-75684223D01*
X105126038Y-75681353D01*
X105089440Y-75670251D01*
X104933848Y-75623053D01*
X104933843Y-75623052D01*
X104928018Y-75621285D01*
X104921959Y-75620688D01*
X104921953Y-75620687D01*
X104776725Y-75606383D01*
X104776710Y-75606382D01*
X104773692Y-75606085D01*
X104670476Y-75606085D01*
X104667458Y-75606382D01*
X104667442Y-75606383D01*
X104522214Y-75620687D01*
X104522206Y-75620688D01*
X104516150Y-75621285D01*
X104510326Y-75623051D01*
X104510319Y-75623053D01*
X104323961Y-75679584D01*
X104323959Y-75679584D01*
X104318130Y-75681353D01*
X104312764Y-75684221D01*
X104312750Y-75684227D01*
X104182881Y-75753645D01*
X104128341Y-75768225D01*
X104072989Y-75757114D01*
X104028300Y-75722615D01*
X104003537Y-75671880D01*
X103964185Y-75499468D01*
X103868333Y-75255241D01*
X103737151Y-75028027D01*
X103573570Y-74822903D01*
X103381244Y-74644451D01*
X103164469Y-74496656D01*
X103023346Y-74428695D01*
X102948461Y-74392632D01*
X102903186Y-74355475D01*
X102880015Y-74301683D01*
X102884119Y-74243256D01*
X102914580Y-74193233D01*
X105525783Y-71582030D01*
X105583787Y-71549316D01*
X105732365Y-71512696D01*
X105872240Y-71439283D01*
X105990483Y-71334530D01*
X105991613Y-71335805D01*
X106031533Y-71308254D01*
X106090450Y-71301101D01*
X106145942Y-71322148D01*
X106185297Y-71366572D01*
X106199500Y-71424197D01*
X106199500Y-73561023D01*
X106188110Y-73612937D01*
X106156031Y-73655313D01*
X106057544Y-73739427D01*
X106057532Y-73739438D01*
X106053839Y-73742593D01*
X106050684Y-73746286D01*
X106050676Y-73746295D01*
X105893390Y-73930453D01*
X105893382Y-73930463D01*
X105890227Y-73934158D01*
X105887689Y-73938299D01*
X105887680Y-73938312D01*
X105761145Y-74144799D01*
X105761141Y-74144805D01*
X105758597Y-74148958D01*
X105756733Y-74153457D01*
X105756731Y-74153462D01*
X105673055Y-74355475D01*
X105662190Y-74381706D01*
X105661055Y-74386430D01*
X105661052Y-74386442D01*
X105604516Y-74621935D01*
X105604514Y-74621941D01*
X105603380Y-74626669D01*
X105602998Y-74631519D01*
X105602998Y-74631521D01*
X105588184Y-74819747D01*
X105583614Y-74877817D01*
X105603380Y-75128965D01*
X105604515Y-75133694D01*
X105604516Y-75133698D01*
X105661052Y-75369191D01*
X105661054Y-75369199D01*
X105662190Y-75373928D01*
X105758597Y-75606676D01*
X105761144Y-75610833D01*
X105761145Y-75610834D01*
X105887680Y-75817321D01*
X105887685Y-75817328D01*
X105890227Y-75821476D01*
X105893387Y-75825175D01*
X105893390Y-75825180D01*
X106026934Y-75981539D01*
X106053839Y-76013041D01*
X106245404Y-76176653D01*
X106249554Y-76179196D01*
X106249558Y-76179199D01*
X106360617Y-76247256D01*
X106460204Y-76308283D01*
X106692952Y-76404690D01*
X106937915Y-76463500D01*
X107189063Y-76483266D01*
X107440211Y-76463500D01*
X107685174Y-76404690D01*
X107696794Y-76399876D01*
X107756502Y-76391042D01*
X107813308Y-76411444D01*
X107853752Y-76456248D01*
X107868251Y-76514840D01*
X107859777Y-79107847D01*
X107841830Y-79171699D01*
X107793540Y-79217167D01*
X107728725Y-79231241D01*
X107665927Y-79209896D01*
X107573108Y-79146614D01*
X107573101Y-79146610D01*
X107569266Y-79143995D01*
X107494204Y-79107847D01*
X107337064Y-79032172D01*
X107337058Y-79032169D01*
X107332885Y-79030160D01*
X107328463Y-79028796D01*
X107328453Y-79028792D01*
X107086610Y-78954194D01*
X107086605Y-78954192D01*
X107082177Y-78952827D01*
X107077597Y-78952136D01*
X107077590Y-78952135D01*
X106827327Y-78914413D01*
X106827316Y-78914412D01*
X106822744Y-78913723D01*
X106560380Y-78913723D01*
X106555808Y-78914412D01*
X106555796Y-78914413D01*
X106305533Y-78952135D01*
X106305523Y-78952137D01*
X106300947Y-78952827D01*
X106296521Y-78954191D01*
X106296513Y-78954194D01*
X106054670Y-79028792D01*
X106054655Y-79028797D01*
X106050239Y-79030160D01*
X106046070Y-79032167D01*
X106046059Y-79032172D01*
X105818043Y-79141979D01*
X105818036Y-79141982D01*
X105813858Y-79143995D01*
X105810025Y-79146608D01*
X105810022Y-79146610D01*
X105685892Y-79231241D01*
X105597083Y-79291790D01*
X105593691Y-79294936D01*
X105593685Y-79294942D01*
X105408158Y-79467086D01*
X105404757Y-79470242D01*
X105401868Y-79473864D01*
X105401864Y-79473869D01*
X105244068Y-79671739D01*
X105241176Y-79675366D01*
X105238857Y-79679382D01*
X105238856Y-79679384D01*
X105112315Y-79898558D01*
X105112309Y-79898569D01*
X105109994Y-79902580D01*
X105108301Y-79906893D01*
X105108296Y-79906904D01*
X105015838Y-80142484D01*
X105015835Y-80142491D01*
X105014142Y-80146807D01*
X105013110Y-80151325D01*
X105013109Y-80151331D01*
X104956791Y-80398073D01*
X104956789Y-80398081D01*
X104955760Y-80402593D01*
X104936154Y-80664223D01*
X104936501Y-80668854D01*
X104951428Y-80868054D01*
X104955760Y-80925853D01*
X104956790Y-80930366D01*
X104956791Y-80930372D01*
X105009860Y-81162880D01*
X105014142Y-81181639D01*
X105015837Y-81185957D01*
X105015838Y-81185961D01*
X105108296Y-81421541D01*
X105108299Y-81421547D01*
X105109994Y-81425866D01*
X105112312Y-81429881D01*
X105112315Y-81429887D01*
X105126434Y-81454341D01*
X105241176Y-81653080D01*
X105404757Y-81858204D01*
X105597083Y-82036656D01*
X105813858Y-82184451D01*
X106050239Y-82298286D01*
X106054667Y-82299651D01*
X106054670Y-82299653D01*
X106158099Y-82331556D01*
X106300947Y-82375619D01*
X106560380Y-82414723D01*
X106818109Y-82414723D01*
X106822744Y-82414723D01*
X107082177Y-82375619D01*
X107332885Y-82298286D01*
X107569266Y-82184451D01*
X107655729Y-82125501D01*
X107718728Y-82104144D01*
X107783700Y-82118419D01*
X107831945Y-82164218D01*
X107849579Y-82228360D01*
X107839616Y-85277017D01*
X107819906Y-85343692D01*
X107767409Y-85389278D01*
X107698629Y-85399443D01*
X102439882Y-84672157D01*
X102383058Y-84648964D01*
X102344317Y-84601362D01*
X102331940Y-84574592D01*
X101065004Y-82900921D01*
X101696431Y-82900921D01*
X101701451Y-82913270D01*
X102727718Y-84269006D01*
X102738849Y-84277262D01*
X102751009Y-84270608D01*
X102853609Y-84168009D01*
X102859393Y-84161334D01*
X103025527Y-83939405D01*
X103030311Y-83931962D01*
X103163168Y-83688650D01*
X103166840Y-83680611D01*
X103204772Y-83578909D01*
X103246348Y-83523196D01*
X103311372Y-83498612D01*
X103379407Y-83512883D01*
X103490676Y-83572358D01*
X103490681Y-83572360D01*
X103496056Y-83575233D01*
X103694076Y-83635301D01*
X103848402Y-83650501D01*
X103948568Y-83650501D01*
X103951618Y-83650501D01*
X104105944Y-83635301D01*
X104303964Y-83575233D01*
X104486460Y-83477686D01*
X104646420Y-83346411D01*
X104777695Y-83186451D01*
X104875242Y-83003955D01*
X104935310Y-82805935D01*
X104955593Y-82600001D01*
X104935310Y-82394067D01*
X104875242Y-82196047D01*
X104777695Y-82013551D01*
X104646420Y-81853591D01*
X104486460Y-81722316D01*
X104481089Y-81719445D01*
X104309338Y-81627641D01*
X104309333Y-81627639D01*
X104303964Y-81624769D01*
X104266356Y-81613361D01*
X104111774Y-81566469D01*
X104111769Y-81566468D01*
X104105944Y-81564701D01*
X104099885Y-81564104D01*
X104099879Y-81564103D01*
X103954651Y-81549799D01*
X103954636Y-81549798D01*
X103951618Y-81549501D01*
X103848402Y-81549501D01*
X103845384Y-81549798D01*
X103845368Y-81549799D01*
X103700140Y-81564103D01*
X103700132Y-81564104D01*
X103694076Y-81564701D01*
X103688252Y-81566467D01*
X103688245Y-81566469D01*
X103501887Y-81623000D01*
X103501885Y-81623000D01*
X103496056Y-81624769D01*
X103490689Y-81627637D01*
X103490681Y-81627641D01*
X103318930Y-81719445D01*
X103318925Y-81719448D01*
X103313560Y-81722316D01*
X103308856Y-81726175D01*
X103308852Y-81726179D01*
X103183067Y-81829407D01*
X103120540Y-81856499D01*
X103101264Y-81853627D01*
X103101272Y-81855942D01*
X103075456Y-81856028D01*
X103064158Y-81861251D01*
X101704615Y-82890399D01*
X101696431Y-82900921D01*
X101065004Y-82900921D01*
X100991162Y-82803373D01*
X100991159Y-82803367D01*
X99955041Y-81434617D01*
X99943908Y-81426360D01*
X99931750Y-81433013D01*
X99829151Y-81535613D01*
X99823358Y-81542299D01*
X99770161Y-81613361D01*
X99718760Y-81653440D01*
X99654133Y-81661912D01*
X99594137Y-81636437D01*
X99555350Y-81584054D01*
X99548488Y-81519241D01*
X99613253Y-81119116D01*
X100346235Y-81119116D01*
X100350819Y-81129032D01*
X101379967Y-82488575D01*
X101390489Y-82496759D01*
X101402838Y-82491739D01*
X102758573Y-81465473D01*
X102766830Y-81454341D01*
X102760175Y-81442180D01*
X102657579Y-81339584D01*
X102650904Y-81333799D01*
X102428973Y-81167664D01*
X102421530Y-81162880D01*
X102178221Y-81030024D01*
X102170183Y-81026353D01*
X101910427Y-80929469D01*
X101901958Y-80926983D01*
X101631070Y-80868054D01*
X101622314Y-80866795D01*
X101345798Y-80847019D01*
X101336962Y-80847019D01*
X101060445Y-80866795D01*
X101051689Y-80868054D01*
X100780801Y-80926983D01*
X100772332Y-80929469D01*
X100512570Y-81026355D01*
X100504546Y-81030020D01*
X100354484Y-81111959D01*
X100346235Y-81119116D01*
X99613253Y-81119116D01*
X99921526Y-79214572D01*
X99921517Y-79214447D01*
X99921537Y-79214265D01*
X99932242Y-79148010D01*
X99933021Y-79143191D01*
X99933541Y-78953383D01*
X99904227Y-78765851D01*
X99845809Y-78585256D01*
X99759738Y-78416084D01*
X99729252Y-78374135D01*
X99651027Y-78266495D01*
X99648153Y-78262540D01*
X99513825Y-78128437D01*
X99509878Y-78125576D01*
X99509875Y-78125574D01*
X99455305Y-78086027D01*
X99455304Y-78086026D01*
X99455279Y-78085997D01*
X97963621Y-77005741D01*
X96731717Y-76113598D01*
X96725160Y-76108506D01*
X96549635Y-75962530D01*
X96537617Y-75951092D01*
X96385958Y-75786045D01*
X96375574Y-75773104D01*
X96247301Y-75589277D01*
X96238752Y-75575088D01*
X96136164Y-75375770D01*
X96129580Y-75360551D01*
X96093695Y-75259565D01*
X96054530Y-75149347D01*
X96050034Y-75133379D01*
X96027088Y-75024400D01*
X96003850Y-74914037D01*
X96001528Y-74897624D01*
X95985041Y-74674071D01*
X95984931Y-74657502D01*
X95998743Y-74428689D01*
X95999521Y-74420431D01*
X96003938Y-74385903D01*
X96003938Y-74385900D01*
X96003940Y-74385884D01*
X96003938Y-74385879D01*
X96278367Y-72240095D01*
X99881050Y-72240095D01*
X99883450Y-72249049D01*
X99896326Y-72252500D01*
X100433674Y-72252500D01*
X100446549Y-72249049D01*
X100450000Y-72236174D01*
X100950000Y-72236174D01*
X100953450Y-72249049D01*
X100966326Y-72252500D01*
X101503674Y-72252500D01*
X101516549Y-72249049D01*
X101518949Y-72240095D01*
X101514550Y-72191694D01*
X101512004Y-72178890D01*
X101468507Y-72039304D01*
X101462391Y-72025716D01*
X101387236Y-71901392D01*
X101378053Y-71889672D01*
X101275327Y-71786946D01*
X101263607Y-71777763D01*
X101139283Y-71702608D01*
X101125695Y-71696492D01*
X100986110Y-71652996D01*
X100973304Y-71650448D01*
X100967207Y-71649894D01*
X100953745Y-71652431D01*
X100950000Y-71665610D01*
X100950000Y-72236174D01*
X100450000Y-72236174D01*
X100450000Y-71665610D01*
X100446254Y-71652431D01*
X100432792Y-71649894D01*
X100426695Y-71650448D01*
X100413889Y-71652996D01*
X100274304Y-71696492D01*
X100260716Y-71702608D01*
X100136392Y-71777763D01*
X100124672Y-71786946D01*
X100021946Y-71889672D01*
X100012763Y-71901392D01*
X99937608Y-72025716D01*
X99931492Y-72039304D01*
X99887995Y-72178890D01*
X99885449Y-72191694D01*
X99881050Y-72240095D01*
X96278367Y-72240095D01*
X97091778Y-65879957D01*
X97113026Y-65824815D01*
X97157384Y-65785769D01*
X97214776Y-65771688D01*
X102089115Y-65771688D01*
X102101633Y-65772321D01*
G37*
%TD.AperFunction*%
%TD*%
M02*
