%TF.GenerationSoftware,KiCad,Pcbnew,(7.0.0)*%
%TF.CreationDate,2023-05-27T10:45:59+01:00*%
%TF.ProjectId,left_connectors,6c656674-5f63-46f6-9e6e-6563746f7273,rev?*%
%TF.SameCoordinates,Original*%
%TF.FileFunction,Legend,Bot*%
%TF.FilePolarity,Positive*%
%FSLAX46Y46*%
G04 Gerber Fmt 4.6, Leading zero omitted, Abs format (unit mm)*
G04 Created by KiCad (PCBNEW (7.0.0)) date 2023-05-27 10:45:59*
%MOMM*%
%LPD*%
G01*
G04 APERTURE LIST*
%ADD10C,0.150000*%
%ADD11C,0.254000*%
%ADD12C,0.508000*%
%ADD13C,0.100000*%
%ADD14C,0.200000*%
%ADD15C,0.120000*%
%ADD16C,0.152400*%
G04 APERTURE END LIST*
D10*
%TO.C,D2*%
X141638094Y-49567380D02*
X141638094Y-48567380D01*
X141638094Y-48567380D02*
X141399999Y-48567380D01*
X141399999Y-48567380D02*
X141257142Y-48615000D01*
X141257142Y-48615000D02*
X141161904Y-48710238D01*
X141161904Y-48710238D02*
X141114285Y-48805476D01*
X141114285Y-48805476D02*
X141066666Y-48995952D01*
X141066666Y-48995952D02*
X141066666Y-49138809D01*
X141066666Y-49138809D02*
X141114285Y-49329285D01*
X141114285Y-49329285D02*
X141161904Y-49424523D01*
X141161904Y-49424523D02*
X141257142Y-49519761D01*
X141257142Y-49519761D02*
X141399999Y-49567380D01*
X141399999Y-49567380D02*
X141638094Y-49567380D01*
X140685713Y-48662619D02*
X140638094Y-48615000D01*
X140638094Y-48615000D02*
X140542856Y-48567380D01*
X140542856Y-48567380D02*
X140304761Y-48567380D01*
X140304761Y-48567380D02*
X140209523Y-48615000D01*
X140209523Y-48615000D02*
X140161904Y-48662619D01*
X140161904Y-48662619D02*
X140114285Y-48757857D01*
X140114285Y-48757857D02*
X140114285Y-48853095D01*
X140114285Y-48853095D02*
X140161904Y-48995952D01*
X140161904Y-48995952D02*
X140733332Y-49567380D01*
X140733332Y-49567380D02*
X140114285Y-49567380D01*
D11*
%TO.C,SW2*%
X131668050Y-67263453D02*
X131585589Y-67436004D01*
X131585589Y-67436004D02*
X131375621Y-67653599D01*
X131375621Y-67653599D02*
X131248114Y-67698643D01*
X131248114Y-67698643D02*
X131162602Y-67700169D01*
X131162602Y-67700169D02*
X131033570Y-67659701D01*
X131033570Y-67659701D02*
X130946532Y-67575714D01*
X130946532Y-67575714D02*
X130901487Y-67448207D01*
X130901487Y-67448207D02*
X130899962Y-67362695D01*
X130899962Y-67362695D02*
X130940430Y-67233663D01*
X130940430Y-67233663D02*
X131064885Y-67017593D01*
X131064885Y-67017593D02*
X131105353Y-66888562D01*
X131105353Y-66888562D02*
X131103828Y-66803049D01*
X131103828Y-66803049D02*
X131058783Y-66675543D01*
X131058783Y-66675543D02*
X130971745Y-66591555D01*
X130971745Y-66591555D02*
X130842714Y-66551087D01*
X130842714Y-66551087D02*
X130757201Y-66552613D01*
X130757201Y-66552613D02*
X130629695Y-66597657D01*
X130629695Y-66597657D02*
X130419727Y-66815253D01*
X130419727Y-66815253D02*
X130337265Y-66987803D01*
X129999791Y-67250443D02*
X130703723Y-68349904D01*
X130703723Y-68349904D02*
X129882963Y-67894076D01*
X129882963Y-67894076D02*
X130367774Y-68698056D01*
X130367774Y-68698056D02*
X129243906Y-68033786D01*
X129036989Y-68422407D02*
X128951476Y-68423933D01*
X128951476Y-68423933D02*
X128823970Y-68468977D01*
X128823970Y-68468977D02*
X128614002Y-68686573D01*
X128614002Y-68686573D02*
X128573534Y-68815604D01*
X128573534Y-68815604D02*
X128575060Y-68901117D01*
X128575060Y-68901117D02*
X128620104Y-69028623D01*
X128620104Y-69028623D02*
X128707142Y-69112610D01*
X128707142Y-69112610D02*
X128879693Y-69195072D01*
X128879693Y-69195072D02*
X129905845Y-69176766D01*
X129905845Y-69176766D02*
X129359928Y-69742514D01*
D10*
%TO.C,R2*%
X114260458Y-78908070D02*
X114451435Y-78359074D01*
X114810267Y-78752376D02*
X114537802Y-77790210D01*
X114537802Y-77790210D02*
X114171263Y-77894006D01*
X114171263Y-77894006D02*
X114092603Y-77965773D01*
X114092603Y-77965773D02*
X114059760Y-78024565D01*
X114059760Y-78024565D02*
X114039892Y-78129174D01*
X114039892Y-78129174D02*
X114078815Y-78266626D01*
X114078815Y-78266626D02*
X114150582Y-78345287D01*
X114150582Y-78345287D02*
X114209374Y-78378130D01*
X114209374Y-78378130D02*
X114313983Y-78397998D01*
X114313983Y-78397998D02*
X114680522Y-78294202D01*
X113647403Y-78141335D02*
X113588611Y-78108493D01*
X113588611Y-78108493D02*
X113484002Y-78088624D01*
X113484002Y-78088624D02*
X113254915Y-78153497D01*
X113254915Y-78153497D02*
X113176255Y-78225263D01*
X113176255Y-78225263D02*
X113143412Y-78284055D01*
X113143412Y-78284055D02*
X113123543Y-78388665D01*
X113123543Y-78388665D02*
X113149492Y-78480299D01*
X113149492Y-78480299D02*
X113234233Y-78604777D01*
X113234233Y-78604777D02*
X113939737Y-78998892D01*
X113939737Y-78998892D02*
X113344110Y-79167561D01*
%TO.C,R3*%
X119260458Y-77108070D02*
X119451435Y-76559074D01*
X119810267Y-76952376D02*
X119537802Y-75990210D01*
X119537802Y-75990210D02*
X119171263Y-76094006D01*
X119171263Y-76094006D02*
X119092603Y-76165773D01*
X119092603Y-76165773D02*
X119059760Y-76224565D01*
X119059760Y-76224565D02*
X119039892Y-76329174D01*
X119039892Y-76329174D02*
X119078815Y-76466626D01*
X119078815Y-76466626D02*
X119150582Y-76545287D01*
X119150582Y-76545287D02*
X119209374Y-76578130D01*
X119209374Y-76578130D02*
X119313983Y-76597998D01*
X119313983Y-76597998D02*
X119680522Y-76494202D01*
X118667272Y-76236726D02*
X118071645Y-76405395D01*
X118071645Y-76405395D02*
X118496163Y-76681113D01*
X118496163Y-76681113D02*
X118358711Y-76720036D01*
X118358711Y-76720036D02*
X118280051Y-76791803D01*
X118280051Y-76791803D02*
X118247208Y-76850595D01*
X118247208Y-76850595D02*
X118227339Y-76955204D01*
X118227339Y-76955204D02*
X118292212Y-77184291D01*
X118292212Y-77184291D02*
X118363979Y-77262951D01*
X118363979Y-77262951D02*
X118422770Y-77295794D01*
X118422770Y-77295794D02*
X118527380Y-77315663D01*
X118527380Y-77315663D02*
X118802284Y-77237815D01*
X118802284Y-77237815D02*
X118880945Y-77166049D01*
X118880945Y-77166049D02*
X118913787Y-77107257D01*
%TO.C,R4*%
X99767380Y-72933333D02*
X99291190Y-72600000D01*
X99767380Y-72361905D02*
X98767380Y-72361905D01*
X98767380Y-72361905D02*
X98767380Y-72742857D01*
X98767380Y-72742857D02*
X98815000Y-72838095D01*
X98815000Y-72838095D02*
X98862619Y-72885714D01*
X98862619Y-72885714D02*
X98957857Y-72933333D01*
X98957857Y-72933333D02*
X99100714Y-72933333D01*
X99100714Y-72933333D02*
X99195952Y-72885714D01*
X99195952Y-72885714D02*
X99243571Y-72838095D01*
X99243571Y-72838095D02*
X99291190Y-72742857D01*
X99291190Y-72742857D02*
X99291190Y-72361905D01*
X99100714Y-73790476D02*
X99767380Y-73790476D01*
X98719761Y-73552381D02*
X99434047Y-73314286D01*
X99434047Y-73314286D02*
X99434047Y-73933333D01*
%TO.C,D1*%
X138938094Y-64267380D02*
X138938094Y-63267380D01*
X138938094Y-63267380D02*
X138699999Y-63267380D01*
X138699999Y-63267380D02*
X138557142Y-63315000D01*
X138557142Y-63315000D02*
X138461904Y-63410238D01*
X138461904Y-63410238D02*
X138414285Y-63505476D01*
X138414285Y-63505476D02*
X138366666Y-63695952D01*
X138366666Y-63695952D02*
X138366666Y-63838809D01*
X138366666Y-63838809D02*
X138414285Y-64029285D01*
X138414285Y-64029285D02*
X138461904Y-64124523D01*
X138461904Y-64124523D02*
X138557142Y-64219761D01*
X138557142Y-64219761D02*
X138699999Y-64267380D01*
X138699999Y-64267380D02*
X138938094Y-64267380D01*
X137414285Y-64267380D02*
X137985713Y-64267380D01*
X137699999Y-64267380D02*
X137699999Y-63267380D01*
X137699999Y-63267380D02*
X137795237Y-63410238D01*
X137795237Y-63410238D02*
X137890475Y-63505476D01*
X137890475Y-63505476D02*
X137985713Y-63553095D01*
%TO.C,D3*%
X111867380Y-71061905D02*
X110867380Y-71061905D01*
X110867380Y-71061905D02*
X110867380Y-71300000D01*
X110867380Y-71300000D02*
X110915000Y-71442857D01*
X110915000Y-71442857D02*
X111010238Y-71538095D01*
X111010238Y-71538095D02*
X111105476Y-71585714D01*
X111105476Y-71585714D02*
X111295952Y-71633333D01*
X111295952Y-71633333D02*
X111438809Y-71633333D01*
X111438809Y-71633333D02*
X111629285Y-71585714D01*
X111629285Y-71585714D02*
X111724523Y-71538095D01*
X111724523Y-71538095D02*
X111819761Y-71442857D01*
X111819761Y-71442857D02*
X111867380Y-71300000D01*
X111867380Y-71300000D02*
X111867380Y-71061905D01*
X110867380Y-71966667D02*
X110867380Y-72585714D01*
X110867380Y-72585714D02*
X111248333Y-72252381D01*
X111248333Y-72252381D02*
X111248333Y-72395238D01*
X111248333Y-72395238D02*
X111295952Y-72490476D01*
X111295952Y-72490476D02*
X111343571Y-72538095D01*
X111343571Y-72538095D02*
X111438809Y-72585714D01*
X111438809Y-72585714D02*
X111676904Y-72585714D01*
X111676904Y-72585714D02*
X111772142Y-72538095D01*
X111772142Y-72538095D02*
X111819761Y-72490476D01*
X111819761Y-72490476D02*
X111867380Y-72395238D01*
X111867380Y-72395238D02*
X111867380Y-72109524D01*
X111867380Y-72109524D02*
X111819761Y-72014286D01*
X111819761Y-72014286D02*
X111772142Y-71966667D01*
%TO.C,C1*%
X133266666Y-63772142D02*
X133314285Y-63819761D01*
X133314285Y-63819761D02*
X133457142Y-63867380D01*
X133457142Y-63867380D02*
X133552380Y-63867380D01*
X133552380Y-63867380D02*
X133695237Y-63819761D01*
X133695237Y-63819761D02*
X133790475Y-63724523D01*
X133790475Y-63724523D02*
X133838094Y-63629285D01*
X133838094Y-63629285D02*
X133885713Y-63438809D01*
X133885713Y-63438809D02*
X133885713Y-63295952D01*
X133885713Y-63295952D02*
X133838094Y-63105476D01*
X133838094Y-63105476D02*
X133790475Y-63010238D01*
X133790475Y-63010238D02*
X133695237Y-62915000D01*
X133695237Y-62915000D02*
X133552380Y-62867380D01*
X133552380Y-62867380D02*
X133457142Y-62867380D01*
X133457142Y-62867380D02*
X133314285Y-62915000D01*
X133314285Y-62915000D02*
X133266666Y-62962619D01*
X132314285Y-63867380D02*
X132885713Y-63867380D01*
X132599999Y-63867380D02*
X132599999Y-62867380D01*
X132599999Y-62867380D02*
X132695237Y-63010238D01*
X132695237Y-63010238D02*
X132790475Y-63105476D01*
X132790475Y-63105476D02*
X132885713Y-63153095D01*
%TO.C,J1*%
X124948355Y-78500493D02*
X125142973Y-79187755D01*
X125142973Y-79187755D02*
X125227714Y-79312232D01*
X125227714Y-79312232D02*
X125345298Y-79377918D01*
X125345298Y-79377918D02*
X125495724Y-79384812D01*
X125495724Y-79384812D02*
X125587359Y-79358863D01*
X124258654Y-79735124D02*
X124808463Y-79579430D01*
X124533559Y-79657277D02*
X124261094Y-78695111D01*
X124261094Y-78695111D02*
X124391652Y-78806615D01*
X124391652Y-78806615D02*
X124509236Y-78872300D01*
X124509236Y-78872300D02*
X124613845Y-78892169D01*
%TO.C,C2*%
X140866666Y-50872142D02*
X140914285Y-50919761D01*
X140914285Y-50919761D02*
X141057142Y-50967380D01*
X141057142Y-50967380D02*
X141152380Y-50967380D01*
X141152380Y-50967380D02*
X141295237Y-50919761D01*
X141295237Y-50919761D02*
X141390475Y-50824523D01*
X141390475Y-50824523D02*
X141438094Y-50729285D01*
X141438094Y-50729285D02*
X141485713Y-50538809D01*
X141485713Y-50538809D02*
X141485713Y-50395952D01*
X141485713Y-50395952D02*
X141438094Y-50205476D01*
X141438094Y-50205476D02*
X141390475Y-50110238D01*
X141390475Y-50110238D02*
X141295237Y-50015000D01*
X141295237Y-50015000D02*
X141152380Y-49967380D01*
X141152380Y-49967380D02*
X141057142Y-49967380D01*
X141057142Y-49967380D02*
X140914285Y-50015000D01*
X140914285Y-50015000D02*
X140866666Y-50062619D01*
X140485713Y-50062619D02*
X140438094Y-50015000D01*
X140438094Y-50015000D02*
X140342856Y-49967380D01*
X140342856Y-49967380D02*
X140104761Y-49967380D01*
X140104761Y-49967380D02*
X140009523Y-50015000D01*
X140009523Y-50015000D02*
X139961904Y-50062619D01*
X139961904Y-50062619D02*
X139914285Y-50157857D01*
X139914285Y-50157857D02*
X139914285Y-50253095D01*
X139914285Y-50253095D02*
X139961904Y-50395952D01*
X139961904Y-50395952D02*
X140533332Y-50967380D01*
X140533332Y-50967380D02*
X139914285Y-50967380D01*
%TO.C,J2*%
X104816866Y-72219017D02*
X104719000Y-72926567D01*
X104719000Y-72926567D02*
X104746597Y-73074601D01*
X104746597Y-73074601D02*
X104827888Y-73181990D01*
X104827888Y-73181990D02*
X104962874Y-73248733D01*
X104962874Y-73248733D02*
X105057213Y-73261782D01*
X104379287Y-72254638D02*
X104338642Y-72200943D01*
X104338642Y-72200943D02*
X104250826Y-72140724D01*
X104250826Y-72140724D02*
X104014976Y-72108102D01*
X104014976Y-72108102D02*
X103914112Y-72142224D01*
X103914112Y-72142224D02*
X103860418Y-72182869D01*
X103860418Y-72182869D02*
X103800199Y-72270685D01*
X103800199Y-72270685D02*
X103787150Y-72365025D01*
X103787150Y-72365025D02*
X103814747Y-72513059D01*
X103814747Y-72513059D02*
X104302494Y-73157391D01*
X104302494Y-73157391D02*
X103689284Y-73072574D01*
%TO.C,SW1*%
X141126437Y-53913085D02*
X140976512Y-53927154D01*
X140976512Y-53927154D02*
X140744588Y-53873295D01*
X140744588Y-53873295D02*
X140662590Y-53805366D01*
X140662590Y-53805366D02*
X140626978Y-53748210D01*
X140626978Y-53748210D02*
X140602137Y-53644668D01*
X140602137Y-53644668D02*
X140623680Y-53551899D01*
X140623680Y-53551899D02*
X140691609Y-53469902D01*
X140691609Y-53469902D02*
X140748765Y-53434289D01*
X140748765Y-53434289D02*
X140852307Y-53409448D01*
X140852307Y-53409448D02*
X141048617Y-53406151D01*
X141048617Y-53406151D02*
X141152159Y-53381310D01*
X141152159Y-53381310D02*
X141209315Y-53345697D01*
X141209315Y-53345697D02*
X141277244Y-53263699D01*
X141277244Y-53263699D02*
X141298787Y-53170930D01*
X141298787Y-53170930D02*
X141273946Y-53067389D01*
X141273946Y-53067389D02*
X141238334Y-53010232D01*
X141238334Y-53010232D02*
X141156336Y-52942304D01*
X141156336Y-52942304D02*
X140924413Y-52888444D01*
X140924413Y-52888444D02*
X140774487Y-52902513D01*
X140460566Y-52780725D02*
X140002433Y-53700945D01*
X140002433Y-53700945D02*
X139978472Y-52962087D01*
X139978472Y-52962087D02*
X139631355Y-53614770D01*
X139631355Y-53614770D02*
X139625641Y-52586832D01*
X138518122Y-53356245D02*
X139074739Y-53485507D01*
X138796431Y-53420876D02*
X139022640Y-52446797D01*
X139022640Y-52446797D02*
X139083094Y-52607495D01*
X139083094Y-52607495D02*
X139154319Y-52721808D01*
X139154319Y-52721808D02*
X139236317Y-52789737D01*
D12*
%TO.C,J3*%
X102772999Y-72400000D02*
G75*
G03*
X102772999Y-72400000I-381000J0D01*
G01*
D13*
%TO.C,D2*%
X137950000Y-49000000D02*
X137950000Y-48350000D01*
X137950000Y-48350000D02*
X138600000Y-48350000D01*
D14*
%TO.C,SW2*%
X136179911Y-67232156D02*
X136755596Y-67787661D01*
X135219793Y-66931035D02*
X134664287Y-67506720D01*
X136951893Y-68880350D02*
X131119084Y-74925044D01*
D13*
X133096288Y-66827472D02*
X133096288Y-66827472D01*
X133024327Y-66758034D02*
X133024327Y-66758034D01*
D14*
X132789455Y-69449657D02*
X131539568Y-70744949D01*
X135566247Y-72476526D02*
X134663550Y-73412014D01*
X134486837Y-71434953D02*
X135566247Y-72476526D01*
X134663550Y-73412014D02*
X133584140Y-72370441D01*
X129664736Y-72687887D02*
X129109230Y-73263572D01*
X129444404Y-74212339D02*
X130020089Y-74767844D01*
D13*
X133024327Y-66758034D02*
G75*
G03*
X133096288Y-66827472I35980J-34719D01*
G01*
X133096287Y-66827471D02*
G75*
G03*
X133024327Y-66758034I-35980J34718D01*
G01*
D15*
%TO.C,R2*%
X114668149Y-80255458D02*
X114345591Y-80346800D01*
X114461075Y-79524212D02*
X114138517Y-79615554D01*
%TO.C,R3*%
X118935184Y-77880048D02*
X119257742Y-77788706D01*
X119142258Y-78611294D02*
X119464816Y-78519952D01*
%TO.C,R4*%
X100320000Y-73267621D02*
X100320000Y-72932379D01*
X101080000Y-73267621D02*
X101080000Y-72932379D01*
D13*
%TO.C,D1*%
X135550000Y-63300000D02*
X135550000Y-62650000D01*
X135550000Y-62650000D02*
X136200000Y-62650000D01*
D15*
%TO.C,D3*%
X114500000Y-69440000D02*
X114500000Y-73450000D01*
X112500000Y-69440000D02*
X114500000Y-69440000D01*
X112500000Y-69440000D02*
X112500000Y-73450000D01*
%TO.C,C1*%
X134340000Y-63615835D02*
X134340000Y-63384165D01*
X135060000Y-63615835D02*
X135060000Y-63384165D01*
D14*
%TO.C,J1*%
X123581205Y-87197069D02*
X114979443Y-89632906D01*
X123175232Y-85763442D02*
X123581205Y-87197069D01*
X122104445Y-81982131D02*
X122434127Y-83146352D01*
X114979443Y-89632906D02*
X114573471Y-88199279D01*
X113502683Y-84417968D02*
X113832366Y-85582188D01*
X120698632Y-79197040D02*
G75*
G03*
X120698632Y-79197040I-99999J0D01*
G01*
D15*
%TO.C,C2*%
X137883335Y-51060000D02*
X137651665Y-51060000D01*
X137883335Y-50340000D02*
X137651665Y-50340000D01*
%TO.C,J2*%
X108104830Y-74095914D02*
X102161414Y-73273840D01*
X102161414Y-73273840D02*
X100585773Y-84665388D01*
X100585773Y-84665388D02*
X106529188Y-85487462D01*
X106529188Y-85487462D02*
X108104830Y-74095914D01*
X106033903Y-85418956D02*
X101081056Y-84733894D01*
X101081056Y-84733894D02*
X100738525Y-87210317D01*
X100738525Y-87210317D02*
X105691372Y-87895379D01*
X105691372Y-87895379D02*
X106033903Y-85418956D01*
D16*
%TO.C,SW1*%
X137299674Y-58388017D02*
X138150040Y-54726260D01*
X137788719Y-58501587D02*
X137299674Y-58388017D01*
X139230357Y-58836377D02*
X139080231Y-58801513D01*
X141010914Y-59249874D02*
X140521869Y-59136304D01*
X138150040Y-54726260D02*
X138639085Y-54839830D01*
X139930597Y-55139757D02*
X140080723Y-55174621D01*
X141372235Y-55474547D02*
X141861280Y-55588117D01*
X141861280Y-55588117D02*
X141010914Y-59249874D01*
X139456188Y-61232079D02*
G75*
G03*
X139456188Y-61232079I-101601J0D01*
G01*
%TD*%
M02*
