%TF.GenerationSoftware,KiCad,Pcbnew,(7.0.0)*%
%TF.CreationDate,2023-05-27T10:45:59+01:00*%
%TF.ProjectId,left_connectors,6c656674-5f63-46f6-9e6e-6563746f7273,rev?*%
%TF.SameCoordinates,Original*%
%TF.FileFunction,Profile,NP*%
%FSLAX46Y46*%
G04 Gerber Fmt 4.6, Leading zero omitted, Abs format (unit mm)*
G04 Created by KiCad (PCBNEW (7.0.0)) date 2023-05-27 10:45:59*
%MOMM*%
%LPD*%
G01*
G04 APERTURE LIST*
%TA.AperFunction,Profile*%
%ADD10C,0.200000*%
%TD*%
G04 APERTURE END LIST*
D10*
X134819119Y-47989879D02*
G75*
G03*
X134323511Y-47555643I-495619J-65721D01*
G01*
X126358357Y-68927534D02*
X130163468Y-61254979D01*
X134226670Y-60875542D02*
G75*
G03*
X134226670Y-60875542I-1350000J0D01*
G01*
X112164032Y-83770794D02*
G75*
G03*
X112164032Y-83770794I-1500000J0D01*
G01*
X123538729Y-85480510D02*
X114009590Y-88179030D01*
X142552083Y-50291349D02*
G75*
G03*
X141089740Y-47898774I-1948183J452449D01*
G01*
X96929134Y-65571188D02*
X102105534Y-65571188D01*
X137793099Y-47555605D02*
G75*
G03*
X137297444Y-47989873I1J-499995D01*
G01*
X133664032Y-55770794D02*
G75*
G03*
X133664032Y-55770794I-1000000J0D01*
G01*
X99319381Y-78235136D02*
X96610758Y-76273556D01*
X120615349Y-72047399D02*
X125399097Y-69857436D01*
X114009590Y-88179030D02*
X112880294Y-86521048D01*
X108602857Y-86521048D02*
X108048429Y-85650230D01*
X107103803Y-67937392D02*
G75*
G03*
X108054113Y-68600417I941497J336892D01*
G01*
X108054113Y-68600418D02*
X109647911Y-68586402D01*
X99127188Y-82867254D02*
X99719992Y-79204836D01*
X112880294Y-86521048D02*
X108602857Y-86521048D01*
X123464695Y-83391672D02*
X123538729Y-85480510D01*
X110585128Y-67910575D02*
X111132321Y-66313553D01*
X109647911Y-68586390D02*
G75*
G03*
X110585128Y-67910575I-8811J999990D01*
G01*
X132133310Y-52673789D02*
G75*
G03*
X132560174Y-49774395I530690J1402989D01*
G01*
X102105534Y-65571188D02*
X106413455Y-66008347D01*
X99127144Y-82867247D02*
G75*
G03*
X100402422Y-84592784I1480756J-239653D01*
G01*
X95800000Y-74400000D02*
X96929134Y-65571188D01*
X106413455Y-66008347D02*
X107103792Y-67937396D01*
X137793099Y-47555643D02*
X139596289Y-47555643D01*
X133037087Y-47555610D02*
G75*
G03*
X132817240Y-47686619I13J-249990D01*
G01*
X132085858Y-49037545D02*
X132817239Y-47686619D01*
X142552018Y-50291334D02*
X138477665Y-67833646D01*
X130163476Y-61254983D02*
G75*
G03*
X130368173Y-60485293I-1791776J888583D01*
G01*
X139839223Y-47585596D02*
G75*
G03*
X139596289Y-47555643I-242923J-970104D01*
G01*
X132085905Y-49037570D02*
G75*
G03*
X132560174Y-49774393I439695J-238030D01*
G01*
X138477665Y-67833646D02*
X123464695Y-83391672D01*
X111132321Y-66313553D02*
X116738212Y-65723343D01*
X130368174Y-60485293D02*
X130781276Y-53549631D01*
X134819168Y-47989873D02*
G75*
G03*
X137297442Y-47989873I1239137J164426D01*
G01*
X132133309Y-52673790D02*
G75*
G03*
X130781277Y-53549631I-353809J-935310D01*
G01*
X117842703Y-66735072D02*
G75*
G03*
X116738212Y-65723343I-999803J17272D01*
G01*
X133037087Y-47555643D02*
X134323511Y-47555643D01*
X117842765Y-66735073D02*
X117783150Y-70194436D01*
X99719962Y-79204831D02*
G75*
G03*
X99319381Y-78235137I-987062J159831D01*
G01*
X108048429Y-85650230D02*
X100402422Y-84592784D01*
X95800060Y-74400008D02*
G75*
G03*
X96610758Y-76273556I1983740J-253792D01*
G01*
X125399090Y-69857421D02*
G75*
G03*
X126358356Y-68927534I-832490J1818521D01*
G01*
X139839222Y-47585600D02*
X141089740Y-47898774D01*
X117783220Y-70194437D02*
G75*
G03*
X120615349Y-72047399I1999680J-34463D01*
G01*
M02*
