%TF.GenerationSoftware,KiCad,Pcbnew,(7.0.0)*%
%TF.CreationDate,2023-05-27T11:25:38+01:00*%
%TF.ProjectId,FB_Filter_PCB,46425f46-696c-4746-9572-5f5043422e6b,rev?*%
%TF.SameCoordinates,Original*%
%TF.FileFunction,Legend,Top*%
%TF.FilePolarity,Positive*%
%FSLAX46Y46*%
G04 Gerber Fmt 4.6, Leading zero omitted, Abs format (unit mm)*
G04 Created by KiCad (PCBNEW (7.0.0)) date 2023-05-27 11:25:38*
%MOMM*%
%LPD*%
G01*
G04 APERTURE LIST*
%ADD10C,0.150000*%
G04 APERTURE END LIST*
D10*
X84821428Y-66258571D02*
X84488095Y-66258571D01*
X84488095Y-66782380D02*
X84488095Y-65782380D01*
X84488095Y-65782380D02*
X84964285Y-65782380D01*
X85678571Y-66258571D02*
X85821428Y-66306190D01*
X85821428Y-66306190D02*
X85869047Y-66353809D01*
X85869047Y-66353809D02*
X85916666Y-66449047D01*
X85916666Y-66449047D02*
X85916666Y-66591904D01*
X85916666Y-66591904D02*
X85869047Y-66687142D01*
X85869047Y-66687142D02*
X85821428Y-66734761D01*
X85821428Y-66734761D02*
X85726190Y-66782380D01*
X85726190Y-66782380D02*
X85345238Y-66782380D01*
X85345238Y-66782380D02*
X85345238Y-65782380D01*
X85345238Y-65782380D02*
X85678571Y-65782380D01*
X85678571Y-65782380D02*
X85773809Y-65830000D01*
X85773809Y-65830000D02*
X85821428Y-65877619D01*
X85821428Y-65877619D02*
X85869047Y-65972857D01*
X85869047Y-65972857D02*
X85869047Y-66068095D01*
X85869047Y-66068095D02*
X85821428Y-66163333D01*
X85821428Y-66163333D02*
X85773809Y-66210952D01*
X85773809Y-66210952D02*
X85678571Y-66258571D01*
X85678571Y-66258571D02*
X85345238Y-66258571D01*
X87278571Y-66258571D02*
X86945238Y-66258571D01*
X86945238Y-66782380D02*
X86945238Y-65782380D01*
X86945238Y-65782380D02*
X87421428Y-65782380D01*
X87802381Y-66782380D02*
X87802381Y-66115714D01*
X87802381Y-65782380D02*
X87754762Y-65830000D01*
X87754762Y-65830000D02*
X87802381Y-65877619D01*
X87802381Y-65877619D02*
X87850000Y-65830000D01*
X87850000Y-65830000D02*
X87802381Y-65782380D01*
X87802381Y-65782380D02*
X87802381Y-65877619D01*
X88421428Y-66782380D02*
X88326190Y-66734761D01*
X88326190Y-66734761D02*
X88278571Y-66639523D01*
X88278571Y-66639523D02*
X88278571Y-65782380D01*
X88659524Y-66115714D02*
X89040476Y-66115714D01*
X88802381Y-65782380D02*
X88802381Y-66639523D01*
X88802381Y-66639523D02*
X88850000Y-66734761D01*
X88850000Y-66734761D02*
X88945238Y-66782380D01*
X88945238Y-66782380D02*
X89040476Y-66782380D01*
X89754762Y-66734761D02*
X89659524Y-66782380D01*
X89659524Y-66782380D02*
X89469048Y-66782380D01*
X89469048Y-66782380D02*
X89373810Y-66734761D01*
X89373810Y-66734761D02*
X89326191Y-66639523D01*
X89326191Y-66639523D02*
X89326191Y-66258571D01*
X89326191Y-66258571D02*
X89373810Y-66163333D01*
X89373810Y-66163333D02*
X89469048Y-66115714D01*
X89469048Y-66115714D02*
X89659524Y-66115714D01*
X89659524Y-66115714D02*
X89754762Y-66163333D01*
X89754762Y-66163333D02*
X89802381Y-66258571D01*
X89802381Y-66258571D02*
X89802381Y-66353809D01*
X89802381Y-66353809D02*
X89326191Y-66449047D01*
X90230953Y-66782380D02*
X90230953Y-66115714D01*
X90230953Y-66306190D02*
X90278572Y-66210952D01*
X90278572Y-66210952D02*
X90326191Y-66163333D01*
X90326191Y-66163333D02*
X90421429Y-66115714D01*
X90421429Y-66115714D02*
X90516667Y-66115714D01*
X91450001Y-66782380D02*
X91450001Y-65782380D01*
X91450001Y-65782380D02*
X91830953Y-65782380D01*
X91830953Y-65782380D02*
X91926191Y-65830000D01*
X91926191Y-65830000D02*
X91973810Y-65877619D01*
X91973810Y-65877619D02*
X92021429Y-65972857D01*
X92021429Y-65972857D02*
X92021429Y-66115714D01*
X92021429Y-66115714D02*
X91973810Y-66210952D01*
X91973810Y-66210952D02*
X91926191Y-66258571D01*
X91926191Y-66258571D02*
X91830953Y-66306190D01*
X91830953Y-66306190D02*
X91450001Y-66306190D01*
X93021429Y-66687142D02*
X92973810Y-66734761D01*
X92973810Y-66734761D02*
X92830953Y-66782380D01*
X92830953Y-66782380D02*
X92735715Y-66782380D01*
X92735715Y-66782380D02*
X92592858Y-66734761D01*
X92592858Y-66734761D02*
X92497620Y-66639523D01*
X92497620Y-66639523D02*
X92450001Y-66544285D01*
X92450001Y-66544285D02*
X92402382Y-66353809D01*
X92402382Y-66353809D02*
X92402382Y-66210952D01*
X92402382Y-66210952D02*
X92450001Y-66020476D01*
X92450001Y-66020476D02*
X92497620Y-65925238D01*
X92497620Y-65925238D02*
X92592858Y-65830000D01*
X92592858Y-65830000D02*
X92735715Y-65782380D01*
X92735715Y-65782380D02*
X92830953Y-65782380D01*
X92830953Y-65782380D02*
X92973810Y-65830000D01*
X92973810Y-65830000D02*
X93021429Y-65877619D01*
X93783334Y-66258571D02*
X93926191Y-66306190D01*
X93926191Y-66306190D02*
X93973810Y-66353809D01*
X93973810Y-66353809D02*
X94021429Y-66449047D01*
X94021429Y-66449047D02*
X94021429Y-66591904D01*
X94021429Y-66591904D02*
X93973810Y-66687142D01*
X93973810Y-66687142D02*
X93926191Y-66734761D01*
X93926191Y-66734761D02*
X93830953Y-66782380D01*
X93830953Y-66782380D02*
X93450001Y-66782380D01*
X93450001Y-66782380D02*
X93450001Y-65782380D01*
X93450001Y-65782380D02*
X93783334Y-65782380D01*
X93783334Y-65782380D02*
X93878572Y-65830000D01*
X93878572Y-65830000D02*
X93926191Y-65877619D01*
X93926191Y-65877619D02*
X93973810Y-65972857D01*
X93973810Y-65972857D02*
X93973810Y-66068095D01*
X93973810Y-66068095D02*
X93926191Y-66163333D01*
X93926191Y-66163333D02*
X93878572Y-66210952D01*
X93878572Y-66210952D02*
X93783334Y-66258571D01*
X93783334Y-66258571D02*
X93450001Y-66258571D01*
X94907144Y-65782380D02*
X95240477Y-66782380D01*
X95240477Y-66782380D02*
X95573810Y-65782380D01*
X96097620Y-65782380D02*
X96192858Y-65782380D01*
X96192858Y-65782380D02*
X96288096Y-65830000D01*
X96288096Y-65830000D02*
X96335715Y-65877619D01*
X96335715Y-65877619D02*
X96383334Y-65972857D01*
X96383334Y-65972857D02*
X96430953Y-66163333D01*
X96430953Y-66163333D02*
X96430953Y-66401428D01*
X96430953Y-66401428D02*
X96383334Y-66591904D01*
X96383334Y-66591904D02*
X96335715Y-66687142D01*
X96335715Y-66687142D02*
X96288096Y-66734761D01*
X96288096Y-66734761D02*
X96192858Y-66782380D01*
X96192858Y-66782380D02*
X96097620Y-66782380D01*
X96097620Y-66782380D02*
X96002382Y-66734761D01*
X96002382Y-66734761D02*
X95954763Y-66687142D01*
X95954763Y-66687142D02*
X95907144Y-66591904D01*
X95907144Y-66591904D02*
X95859525Y-66401428D01*
X95859525Y-66401428D02*
X95859525Y-66163333D01*
X95859525Y-66163333D02*
X95907144Y-65972857D01*
X95907144Y-65972857D02*
X95954763Y-65877619D01*
X95954763Y-65877619D02*
X96002382Y-65830000D01*
X96002382Y-65830000D02*
X96097620Y-65782380D01*
X96859525Y-66687142D02*
X96907144Y-66734761D01*
X96907144Y-66734761D02*
X96859525Y-66782380D01*
X96859525Y-66782380D02*
X96811906Y-66734761D01*
X96811906Y-66734761D02*
X96859525Y-66687142D01*
X96859525Y-66687142D02*
X96859525Y-66782380D01*
X97526191Y-65782380D02*
X97621429Y-65782380D01*
X97621429Y-65782380D02*
X97716667Y-65830000D01*
X97716667Y-65830000D02*
X97764286Y-65877619D01*
X97764286Y-65877619D02*
X97811905Y-65972857D01*
X97811905Y-65972857D02*
X97859524Y-66163333D01*
X97859524Y-66163333D02*
X97859524Y-66401428D01*
X97859524Y-66401428D02*
X97811905Y-66591904D01*
X97811905Y-66591904D02*
X97764286Y-66687142D01*
X97764286Y-66687142D02*
X97716667Y-66734761D01*
X97716667Y-66734761D02*
X97621429Y-66782380D01*
X97621429Y-66782380D02*
X97526191Y-66782380D01*
X97526191Y-66782380D02*
X97430953Y-66734761D01*
X97430953Y-66734761D02*
X97383334Y-66687142D01*
X97383334Y-66687142D02*
X97335715Y-66591904D01*
X97335715Y-66591904D02*
X97288096Y-66401428D01*
X97288096Y-66401428D02*
X97288096Y-66163333D01*
X97288096Y-66163333D02*
X97335715Y-65972857D01*
X97335715Y-65972857D02*
X97383334Y-65877619D01*
X97383334Y-65877619D02*
X97430953Y-65830000D01*
X97430953Y-65830000D02*
X97526191Y-65782380D01*
M02*
