%TF.GenerationSoftware,KiCad,Pcbnew,(7.0.0)*%
%TF.CreationDate,2023-05-27T11:25:38+01:00*%
%TF.ProjectId,FB_Filter_PCB,46425f46-696c-4746-9572-5f5043422e6b,rev?*%
%TF.SameCoordinates,Original*%
%TF.FileFunction,Soldermask,Bot*%
%TF.FilePolarity,Negative*%
%FSLAX46Y46*%
G04 Gerber Fmt 4.6, Leading zero omitted, Abs format (unit mm)*
G04 Created by KiCad (PCBNEW (7.0.0)) date 2023-05-27 11:25:38*
%MOMM*%
%LPD*%
G01*
G04 APERTURE LIST*
G04 Aperture macros list*
%AMRoundRect*
0 Rectangle with rounded corners*
0 $1 Rounding radius*
0 $2 $3 $4 $5 $6 $7 $8 $9 X,Y pos of 4 corners*
0 Add a 4 corners polygon primitive as box body*
4,1,4,$2,$3,$4,$5,$6,$7,$8,$9,$2,$3,0*
0 Add four circle primitives for the rounded corners*
1,1,$1+$1,$2,$3*
1,1,$1+$1,$4,$5*
1,1,$1+$1,$6,$7*
1,1,$1+$1,$8,$9*
0 Add four rect primitives between the rounded corners*
20,1,$1+$1,$2,$3,$4,$5,0*
20,1,$1+$1,$4,$5,$6,$7,0*
20,1,$1+$1,$6,$7,$8,$9,0*
20,1,$1+$1,$8,$9,$2,$3,0*%
G04 Aperture macros list end*
%ADD10RoundRect,0.160000X-0.197500X-0.160000X0.197500X-0.160000X0.197500X0.160000X-0.197500X0.160000X0*%
%ADD11RoundRect,0.160000X-0.160000X0.197500X-0.160000X-0.197500X0.160000X-0.197500X0.160000X0.197500X0*%
%ADD12RoundRect,0.155000X0.212500X0.155000X-0.212500X0.155000X-0.212500X-0.155000X0.212500X-0.155000X0*%
%ADD13RoundRect,0.155000X-0.212500X-0.155000X0.212500X-0.155000X0.212500X0.155000X-0.212500X0.155000X0*%
%ADD14RoundRect,0.160000X0.197500X0.160000X-0.197500X0.160000X-0.197500X-0.160000X0.197500X-0.160000X0*%
%ADD15RoundRect,0.160000X0.160000X-0.197500X0.160000X0.197500X-0.160000X0.197500X-0.160000X-0.197500X0*%
%ADD16RoundRect,0.155000X0.155000X-0.212500X0.155000X0.212500X-0.155000X0.212500X-0.155000X-0.212500X0*%
%ADD17RoundRect,0.155000X-0.155000X0.212500X-0.155000X-0.212500X0.155000X-0.212500X0.155000X0.212500X0*%
%ADD18R,0.300000X1.600000*%
G04 APERTURE END LIST*
D10*
%TO.C,R25*%
X93867500Y-67995000D03*
X95062500Y-67995000D03*
%TD*%
D11*
%TO.C,R39*%
X84215000Y-66647500D03*
X84215000Y-67842500D03*
%TD*%
D12*
%TO.C,C9*%
X86750000Y-84230000D03*
X85615000Y-84230000D03*
%TD*%
%TO.C,C32*%
X97782500Y-73762500D03*
X96647500Y-73762500D03*
%TD*%
D11*
%TO.C,R16*%
X88332500Y-87250000D03*
X88332500Y-88445000D03*
%TD*%
D13*
%TO.C,C11*%
X85615000Y-85730000D03*
X86750000Y-85730000D03*
%TD*%
%TO.C,C26*%
X96647500Y-66495000D03*
X97782500Y-66495000D03*
%TD*%
D10*
%TO.C,R14*%
X84175000Y-88622214D03*
X85370000Y-88622214D03*
%TD*%
D14*
%TO.C,R23*%
X95062500Y-66495000D03*
X93867500Y-66495000D03*
%TD*%
D15*
%TO.C,R13*%
X86832500Y-88447500D03*
X86832500Y-87252500D03*
%TD*%
D10*
%TO.C,R37*%
X88367500Y-67995000D03*
X89562500Y-67995000D03*
%TD*%
D15*
%TO.C,R8*%
X84109000Y-82519026D03*
X84109000Y-81324026D03*
%TD*%
D10*
%TO.C,R15*%
X88335000Y-89997500D03*
X89530000Y-89997500D03*
%TD*%
D12*
%TO.C,C1*%
X86676500Y-75404026D03*
X85541500Y-75404026D03*
%TD*%
D14*
%TO.C,R3*%
X89456500Y-76904026D03*
X88261500Y-76904026D03*
%TD*%
D12*
%TO.C,C34*%
X86782500Y-73762500D03*
X85647500Y-73762500D03*
%TD*%
D10*
%TO.C,R32*%
X88367500Y-73762500D03*
X89562500Y-73762500D03*
%TD*%
D14*
%TO.C,R27*%
X99162500Y-70892500D03*
X97967500Y-70892500D03*
%TD*%
D13*
%TO.C,C40*%
X85647500Y-66495000D03*
X86782500Y-66495000D03*
%TD*%
D10*
%TO.C,R36*%
X84267500Y-69365000D03*
X85462500Y-69365000D03*
%TD*%
D14*
%TO.C,R9*%
X89456500Y-82671526D03*
X88261500Y-82671526D03*
%TD*%
D12*
%TO.C,C13*%
X86750000Y-89997500D03*
X85615000Y-89997500D03*
%TD*%
D14*
%TO.C,R12*%
X89530000Y-85730000D03*
X88335000Y-85730000D03*
%TD*%
D12*
%TO.C,C37*%
X85372500Y-70747500D03*
X84237500Y-70747500D03*
%TD*%
D10*
%TO.C,R5*%
X84101500Y-79785000D03*
X85296500Y-79785000D03*
%TD*%
D11*
%TO.C,R33*%
X84215000Y-72415000D03*
X84215000Y-73610000D03*
%TD*%
D16*
%TO.C,C10*%
X90932500Y-85547500D03*
X90932500Y-84412500D03*
%TD*%
D14*
%TO.C,R34*%
X89562500Y-72262500D03*
X88367500Y-72262500D03*
%TD*%
D15*
%TO.C,R38*%
X88365000Y-70710000D03*
X88365000Y-69515000D03*
%TD*%
D13*
%TO.C,C29*%
X98057500Y-69510000D03*
X99192500Y-69510000D03*
%TD*%
D11*
%TO.C,R35*%
X86865000Y-69517500D03*
X86865000Y-70712500D03*
%TD*%
D14*
%TO.C,R40*%
X89562500Y-66495000D03*
X88367500Y-66495000D03*
%TD*%
D10*
%TO.C,R1*%
X88261500Y-75404026D03*
X89456500Y-75404026D03*
%TD*%
D16*
%TO.C,C2*%
X90859000Y-76721526D03*
X90859000Y-75586526D03*
%TD*%
D17*
%TO.C,C6*%
X90859000Y-81354026D03*
X90859000Y-82489026D03*
%TD*%
D11*
%TO.C,R7*%
X88259000Y-78424026D03*
X88259000Y-79619026D03*
%TD*%
D13*
%TO.C,C3*%
X85541500Y-76904026D03*
X86676500Y-76904026D03*
%TD*%
D18*
%TO.C,J1*%
X93249999Y-82049999D03*
X93749999Y-82049999D03*
X94249999Y-82049999D03*
X94749999Y-82049999D03*
X95249999Y-82049999D03*
X95749999Y-82049999D03*
X96249999Y-82049999D03*
X93249999Y-78449999D03*
X93749999Y-78449999D03*
X94249999Y-78449999D03*
X94749999Y-78449999D03*
X95249999Y-78449999D03*
X95749999Y-78449999D03*
X96249999Y-78449999D03*
%TD*%
D13*
%TO.C,C36*%
X85647500Y-72262500D03*
X86782500Y-72262500D03*
%TD*%
D10*
%TO.C,R10*%
X88335000Y-84230000D03*
X89530000Y-84230000D03*
%TD*%
D13*
%TO.C,C15*%
X85615000Y-91497500D03*
X86750000Y-91497500D03*
%TD*%
D17*
%TO.C,C41*%
X89865000Y-69545000D03*
X89865000Y-70680000D03*
%TD*%
D15*
%TO.C,R2*%
X84109000Y-76751526D03*
X84109000Y-75556526D03*
%TD*%
D13*
%TO.C,C7*%
X85541500Y-82671526D03*
X86676500Y-82671526D03*
%TD*%
D12*
%TO.C,C28*%
X97782500Y-67995000D03*
X96647500Y-67995000D03*
%TD*%
D16*
%TO.C,C27*%
X92465000Y-67812500D03*
X92465000Y-66677500D03*
%TD*%
D14*
%TO.C,R28*%
X95062500Y-72262500D03*
X93867500Y-72262500D03*
%TD*%
D16*
%TO.C,C16*%
X89832500Y-88415000D03*
X89832500Y-87280000D03*
%TD*%
D13*
%TO.C,C31*%
X96665000Y-75200000D03*
X97800000Y-75200000D03*
%TD*%
D16*
%TO.C,C8*%
X89759000Y-79589026D03*
X89759000Y-78454026D03*
%TD*%
D13*
%TO.C,C30*%
X96647500Y-72262500D03*
X97782500Y-72262500D03*
%TD*%
D15*
%TO.C,R17*%
X84182500Y-91345000D03*
X84182500Y-90150000D03*
%TD*%
D17*
%TO.C,C39*%
X90965000Y-66677500D03*
X90965000Y-67812500D03*
%TD*%
D15*
%TO.C,R4*%
X86759000Y-79621526D03*
X86759000Y-78426526D03*
%TD*%
%TO.C,R11*%
X84182500Y-85577500D03*
X84182500Y-84382500D03*
%TD*%
D10*
%TO.C,R6*%
X88261500Y-81171526D03*
X89456500Y-81171526D03*
%TD*%
D12*
%TO.C,C38*%
X86782500Y-67995000D03*
X85647500Y-67995000D03*
%TD*%
%TO.C,C5*%
X86676500Y-81171526D03*
X85541500Y-81171526D03*
%TD*%
D14*
%TO.C,R18*%
X89530000Y-91497500D03*
X88335000Y-91497500D03*
%TD*%
D15*
%TO.C,R26*%
X96565000Y-70740000D03*
X96565000Y-69545000D03*
%TD*%
D12*
%TO.C,C4*%
X85238543Y-78400431D03*
X84103543Y-78400431D03*
%TD*%
D15*
%TO.C,R24*%
X99215000Y-67842500D03*
X99215000Y-66647500D03*
%TD*%
%TO.C,R30*%
X99215000Y-73610000D03*
X99215000Y-72415000D03*
%TD*%
D17*
%TO.C,C35*%
X90965000Y-72445000D03*
X90965000Y-73580000D03*
%TD*%
D11*
%TO.C,R29*%
X95065000Y-69547500D03*
X95065000Y-70742500D03*
%TD*%
D12*
%TO.C,C12*%
X85400000Y-87239714D03*
X84265000Y-87239714D03*
%TD*%
D16*
%TO.C,C14*%
X91400000Y-89667500D03*
X91400000Y-88532500D03*
%TD*%
%TO.C,C33*%
X93565000Y-70712500D03*
X93565000Y-69577500D03*
%TD*%
D10*
%TO.C,R31*%
X93867500Y-73762500D03*
X95062500Y-73762500D03*
%TD*%
M02*
