M48
; DRILL file {KiCad 7.0.1} date Sun Apr 30 22:37:41 2023
; FORMAT={-:-/ absolute / inch / decimal}
; #@! TF.CreationDate,2023-04-30T22:37:41+01:00
; #@! TF.GenerationSoftware,Kicad,Pcbnew,7.0.1
; #@! TF.FileFunction,MixedPlating,1,4
FMAT,2
INCH
; #@! TA.AperFunction,Plated,PTH,ViaDrill
T1C0.0118
%
G90
G05
T1
X1.8346Y-2.3504
X1.8361Y-2.622
X1.9449Y-2.3424
X1.9463Y-2.7402
X1.9489Y-2.6142
X2.0079Y-2.5079
X2.0413Y-2.8602
X2.1038Y-2.622
X2.1639Y-2.5157
X2.1654Y-2.3425
X2.1668Y-2.7894
X2.17Y-2.2856
X2.1969Y-3.0
X2.2008Y-2.3031
X2.2189Y-2.1654
X2.2219Y-2.6143
X2.248Y-1.7953
X2.27Y-2.49
X2.277Y-2.7323
X2.3Y-2.4
X2.3Y-2.4562
X2.3071Y-1.9484
X2.3071Y-2.1654
X2.3465Y-2.3819
X2.3504Y-2.6457
X2.3549Y-2.3
X2.3621Y-2.3432
X2.3858Y-2.2835
X2.4016Y-3.0157
X2.4016Y-3.0787
X2.4054Y-2.3312
X2.41Y-1.31
X2.4232Y-2.62
X2.43Y-1.1748
X2.4529Y-2.6017
X2.46Y-2.3327
X2.47Y-1.38
X2.47Y-1.5
X2.47Y-1.563
X2.4803Y-1.6929
X2.4803Y-3.0157
X2.4803Y-3.0787
X2.4824Y-2.62
X2.4843Y-2.31
X2.4882Y-2.9449
X2.51Y-2.3327
X2.5119Y-2.6017
X2.5197Y-1.6929
X2.5197Y-2.9449
X2.53Y-1.1748
X2.53Y-1.3
X2.53Y-2.3819
X2.5412Y-2.62
X2.5571Y-1.9213
X2.5571Y-2.1614
X2.57Y-2.3622
X2.57Y-2.41
X2.57Y-2.49
X2.5748Y-2.9528
X2.59Y-1.33
X2.6074Y-2.42
X2.61Y-2.4606
X2.61Y-2.54
X2.62Y-2.5
X2.622Y-2.3425
X2.6243Y-2.3796
X2.63Y-2.72
X2.6324Y-2.1619
X2.6518Y-2.31
X2.66Y-2.62
X2.66Y-2.83
X2.6811Y-2.3268
X2.71Y-2.9536
X2.7106Y-2.31
X2.73Y-2.595
X2.7402Y-2.3268
X2.752Y-2.1654
X2.77Y-2.05
X2.77Y-2.31
X2.77Y-2.63
X2.78Y-1.78
X2.7876Y-2.5984
X2.7992Y-1.689
X2.8Y-2.78
X2.8031Y-3.0472
X2.8346Y-3.0472
X2.8397Y-2.63
X2.84Y-2.59
X2.8613Y-2.9713
X2.8654Y-2.2849
X2.87Y-2.32
X2.874Y-3.0157
X2.874Y-3.0787
X2.875Y-2.585
X2.8763Y-2.7887
X2.88Y-2.45
X2.8839Y-2.5239
X2.9Y-2.42
X2.9Y-2.48
X2.9125Y-2.3225
X2.92Y-2.97
X2.94Y-2.38
X2.94Y-2.42
X2.95Y-2.28
X2.9528Y-3.0157
X2.9528Y-3.0787
X2.9571Y-2.47
X2.9609Y-1.1748
X2.97Y-2.11
X2.97Y-2.97
X2.98Y-1.77
X3.0118Y-1.2598
X3.0593Y-1.1748
X3.06Y-2.42
X3.07Y-1.8882
X3.07Y-1.92
X3.0709Y-1.7874
X3.0709Y-1.8321
X3.09Y-1.97
X3.09Y-2.595
X3.1142Y-1.9921
X3.12Y-1.89
X3.1252Y-1.6384
X3.1252Y-1.6729
X3.1252Y-1.7221
X3.15Y-1.91
X3.1575Y-2.0787
X3.1575Y-2.2047
X3.17Y-1.87
X3.17Y-2.28
X3.1727Y-2.45
X3.1784Y-1.8185
X3.1858Y-1.4996
X3.1969Y-2.0787
X3.2034Y-1.4373
X3.2256Y-1.6729
X3.2258Y-1.4996
X3.2263Y-1.9
X3.2323Y-1.9409
X3.2332Y-1.616
X3.2336Y-1.753
X3.2532Y-1.5193
X3.2578Y-1.9
X3.2729Y-1.85
X3.2835Y-2.0472
X3.2913Y-1.5193
X3.3058Y-1.4496
X3.3096Y-1.89
X3.3122Y-1.85
X3.32Y-2.0
X3.35Y-1.85
X3.35Y-1.89
X3.3516Y-1.5154
X3.368Y-1.753
X3.3687Y-1.6173
X3.3713Y-1.6827
X3.39Y-1.85
X3.4Y-1.49
X3.4Y-1.89
X3.4295Y-1.5296
X3.45Y-1.87
X3.4547Y-2.1615
X3.4547Y-2.2009
X3.4695Y-1.9595
X3.47Y-1.5744
X3.47Y-1.79
X3.4744Y-2.0472
X3.48Y-1.62
X3.48Y-1.69
X3.48Y-1.74
X3.49Y-1.65
T0
M30
