%TF.GenerationSoftware,KiCad,Pcbnew,7.0.1*%
%TF.CreationDate,2023-04-30T22:37:30+01:00*%
%TF.ProjectId,left_main,6c656674-5f6d-4616-996e-2e6b69636164,rev?*%
%TF.SameCoordinates,Original*%
%TF.FileFunction,Legend,Top*%
%TF.FilePolarity,Positive*%
%FSLAX46Y46*%
G04 Gerber Fmt 4.6, Leading zero omitted, Abs format (unit mm)*
G04 Created by KiCad (PCBNEW 7.0.1) date 2023-04-30 22:37:30*
%MOMM*%
%LPD*%
G01*
G04 APERTURE LIST*
G04 Aperture macros list*
%AMRoundRect*
0 Rectangle with rounded corners*
0 $1 Rounding radius*
0 $2 $3 $4 $5 $6 $7 $8 $9 X,Y pos of 4 corners*
0 Add a 4 corners polygon primitive as box body*
4,1,4,$2,$3,$4,$5,$6,$7,$8,$9,$2,$3,0*
0 Add four circle primitives for the rounded corners*
1,1,$1+$1,$2,$3*
1,1,$1+$1,$4,$5*
1,1,$1+$1,$6,$7*
1,1,$1+$1,$8,$9*
0 Add four rect primitives between the rounded corners*
20,1,$1+$1,$2,$3,$4,$5,0*
20,1,$1+$1,$4,$5,$6,$7,0*
20,1,$1+$1,$6,$7,$8,$9,0*
20,1,$1+$1,$8,$9,$2,$3,0*%
G04 Aperture macros list end*
%ADD10C,0.150000*%
%ADD11C,0.000000*%
%ADD12C,0.120000*%
%ADD13C,0.152400*%
%ADD14C,1.000000*%
%ADD15RoundRect,0.155000X-0.212500X-0.155000X0.212500X-0.155000X0.212500X0.155000X-0.212500X0.155000X0*%
%ADD16RoundRect,0.155000X0.155000X-0.212500X0.155000X0.212500X-0.155000X0.212500X-0.155000X-0.212500X0*%
%ADD17RoundRect,0.160000X-0.160000X0.197500X-0.160000X-0.197500X0.160000X-0.197500X0.160000X0.197500X0*%
%ADD18RoundRect,0.155000X0.212500X0.155000X-0.212500X0.155000X-0.212500X-0.155000X0.212500X-0.155000X0*%
%ADD19RoundRect,0.155000X-0.155000X0.212500X-0.155000X-0.212500X0.155000X-0.212500X0.155000X0.212500X0*%
%ADD20RoundRect,0.160000X0.197500X0.160000X-0.197500X0.160000X-0.197500X-0.160000X0.197500X-0.160000X0*%
%ADD21R,0.304800X1.397000*%
%ADD22R,2.641600X2.311400*%
%ADD23RoundRect,0.160000X-0.197500X-0.160000X0.197500X-0.160000X0.197500X0.160000X-0.197500X0.160000X0*%
%ADD24RoundRect,0.160000X0.160000X-0.197500X0.160000X0.197500X-0.160000X0.197500X-0.160000X-0.197500X0*%
%ADD25R,0.900000X1.000000*%
%ADD26RoundRect,0.218750X-0.256250X0.218750X-0.256250X-0.218750X0.256250X-0.218750X0.256250X0.218750X0*%
G04 APERTURE END LIST*
D10*
X64514859Y-32221874D02*
X64810380Y-32221878D01*
X63914859Y-32221874D02*
X63701007Y-32223352D01*
X63914859Y-32621874D02*
X63914859Y-31821874D01*
X64014859Y-32221874D02*
X64514859Y-31821874D01*
X64514859Y-32621874D02*
X64014859Y-32221874D01*
X64514859Y-31821874D02*
X64514859Y-32621874D01*
X63659117Y-30497911D02*
X63800000Y-30800000D01*
X63659117Y-30497911D02*
X63349831Y-30639448D01*
X63400000Y-31200000D02*
X63700000Y-30400000D01*
X62200000Y-30400000D02*
X62400000Y-31200000D01*
X61800000Y-31200000D02*
X64100000Y-31200000D01*
X77724000Y-58928000D02*
X77724000Y-61600000D01*
X74168000Y-64516000D02*
X74168000Y-69342000D01*
X52500000Y-71600000D02*
X52500000Y-68700000D01*
X59436000Y-48006000D02*
X59436000Y-56388000D01*
X68834000Y-65024000D02*
X66294000Y-65024000D01*
X52500000Y-68700000D02*
X53500000Y-68700000D01*
X46800000Y-67200000D02*
X52100000Y-67200000D01*
X66294000Y-65024000D02*
X66294000Y-73406000D01*
X56388000Y-48006000D02*
X65278000Y-48006000D01*
X65278000Y-56388000D01*
X56388000Y-56388000D01*
X56388000Y-48006000D01*
X59600000Y-33100000D02*
X61500000Y-33100000D01*
X61500000Y-33100000D02*
X61500000Y-31300000D01*
X45212000Y-58928000D02*
X57912000Y-58928000D01*
X57912000Y-64262000D01*
X45212000Y-64262000D01*
X45212000Y-58928000D01*
X68834000Y-69342000D02*
X68834000Y-73406000D01*
X73660000Y-58928000D02*
X81788000Y-58928000D01*
X59436000Y-52197000D02*
X62230000Y-52197000D01*
X45212000Y-68326000D02*
X45212000Y-65786000D01*
X46900000Y-59000000D02*
X46900000Y-61700000D01*
X59600000Y-36900000D02*
X59600000Y-33100000D01*
X74168000Y-69342000D02*
X68834000Y-69342000D01*
X49022000Y-71628000D02*
X45212000Y-68326000D01*
X67300000Y-31600000D02*
X66000000Y-30400000D01*
X45212000Y-65786000D02*
X59182000Y-65786000D01*
X80264000Y-66294000D02*
X80264000Y-64516000D01*
X66000000Y-55200000D02*
X71800000Y-55200000D01*
X71800000Y-64300000D01*
X66000000Y-64300000D01*
X66000000Y-55200000D01*
X59182000Y-71628000D02*
X49022000Y-71628000D01*
X73152000Y-73406000D02*
X80264000Y-66294000D01*
X59182000Y-68707000D02*
X55000000Y-68700000D01*
X71882000Y-69342000D02*
X71882000Y-73406000D01*
X53500000Y-68700000D02*
X53500000Y-65800000D01*
X62230000Y-48006000D02*
X62230000Y-56388000D01*
X52300000Y-60200000D02*
X57900000Y-60200000D01*
X66294000Y-73406000D02*
X73152000Y-73406000D01*
D11*
G36*
X53777851Y-41265209D02*
G01*
X52073511Y-42096741D01*
X53780179Y-42914198D01*
X53782402Y-44478414D01*
X50482095Y-42871759D01*
X47186234Y-44487622D01*
X47184117Y-42923406D01*
X48888457Y-42101293D01*
X47181789Y-41274417D01*
X47179672Y-39738458D01*
X53775735Y-39729251D01*
X53777851Y-41265209D01*
G37*
D10*
X52100000Y-67200000D02*
X52100000Y-65800000D01*
X73660000Y-61600000D02*
X81788000Y-61600000D01*
X73660000Y-56134000D02*
X81788000Y-56134000D01*
X81788000Y-64262000D01*
X73660000Y-64262000D01*
X73660000Y-56134000D01*
X74422000Y-45085000D02*
X74422000Y-53467000D01*
X60300000Y-60900000D02*
X65900000Y-60900000D01*
X65900000Y-70300000D01*
X60300000Y-70300000D01*
X60300000Y-60900000D01*
X52300000Y-64200000D02*
X52300000Y-58900000D01*
X80264000Y-64516000D02*
X74168000Y-64516000D01*
X61500000Y-31300000D02*
X60600000Y-30600000D01*
X74168000Y-69342000D02*
X75692000Y-70866000D01*
X68834000Y-69342000D02*
X68834000Y-65024000D01*
X59600000Y-36900000D02*
X67300000Y-36900000D01*
X68580000Y-45085000D02*
X77470000Y-45085000D01*
X77470000Y-53467000D01*
X68580000Y-53467000D01*
X68580000Y-45085000D01*
D11*
G36*
X53790340Y-50169920D02*
G01*
X52405193Y-50171825D01*
X52400748Y-47043391D01*
X51186205Y-47770678D01*
X51189591Y-50173518D01*
X49804445Y-50175529D01*
X49802222Y-48611312D01*
X47194277Y-50179127D01*
X47192055Y-48577233D01*
X49800000Y-47000000D01*
X49797777Y-45426259D01*
X51182924Y-45424353D01*
X51183982Y-46159365D01*
X52398525Y-45422660D01*
X53783672Y-45420756D01*
X53790340Y-50169920D01*
G37*
D10*
X46900000Y-61700000D02*
X52300000Y-61700000D01*
X46800000Y-65800000D02*
X46800000Y-67200000D01*
X71628000Y-45085000D02*
X71628000Y-53467000D01*
X71628000Y-49276000D02*
X74422000Y-49276000D01*
X67300000Y-36900000D02*
X67300000Y-31600000D01*
D11*
G36*
X53798277Y-55861424D02*
G01*
X52413130Y-55863330D01*
X47197770Y-52723360D01*
X47195547Y-51121467D01*
X52410907Y-54242598D01*
X52406463Y-51114165D01*
X53791715Y-51112260D01*
X53798277Y-55861424D01*
G37*
D10*
X66000000Y-30400000D02*
X66000000Y-28700000D01*
X59182000Y-65786000D02*
X59182000Y-71628000D01*
X55000000Y-68700000D02*
X55000000Y-65800000D01*
X60600000Y-30600000D02*
X60600000Y-28700000D01*
X68353809Y-39128571D02*
X68353809Y-39461904D01*
X68877619Y-39461904D02*
X67877619Y-39461904D01*
X67877619Y-39461904D02*
X67877619Y-38985714D01*
X68353809Y-38271428D02*
X68353809Y-38604761D01*
X68877619Y-38604761D02*
X67877619Y-38604761D01*
X67877619Y-38604761D02*
X67877619Y-38128571D01*
X68877619Y-36985713D02*
X68210952Y-36985713D01*
X68306190Y-36985713D02*
X68258571Y-36938094D01*
X68258571Y-36938094D02*
X68210952Y-36842856D01*
X68210952Y-36842856D02*
X68210952Y-36699999D01*
X68210952Y-36699999D02*
X68258571Y-36604761D01*
X68258571Y-36604761D02*
X68353809Y-36557142D01*
X68353809Y-36557142D02*
X68877619Y-36557142D01*
X68353809Y-36557142D02*
X68258571Y-36509523D01*
X68258571Y-36509523D02*
X68210952Y-36414285D01*
X68210952Y-36414285D02*
X68210952Y-36271428D01*
X68210952Y-36271428D02*
X68258571Y-36176189D01*
X68258571Y-36176189D02*
X68353809Y-36128570D01*
X68353809Y-36128570D02*
X68877619Y-36128570D01*
X68877619Y-35652380D02*
X68210952Y-35652380D01*
X67877619Y-35652380D02*
X67925238Y-35699999D01*
X67925238Y-35699999D02*
X67972857Y-35652380D01*
X67972857Y-35652380D02*
X67925238Y-35604761D01*
X67925238Y-35604761D02*
X67877619Y-35652380D01*
X67877619Y-35652380D02*
X67972857Y-35652380D01*
X68830000Y-34747619D02*
X68877619Y-34842857D01*
X68877619Y-34842857D02*
X68877619Y-35033333D01*
X68877619Y-35033333D02*
X68830000Y-35128571D01*
X68830000Y-35128571D02*
X68782380Y-35176190D01*
X68782380Y-35176190D02*
X68687142Y-35223809D01*
X68687142Y-35223809D02*
X68401428Y-35223809D01*
X68401428Y-35223809D02*
X68306190Y-35176190D01*
X68306190Y-35176190D02*
X68258571Y-35128571D01*
X68258571Y-35128571D02*
X68210952Y-35033333D01*
X68210952Y-35033333D02*
X68210952Y-34842857D01*
X68210952Y-34842857D02*
X68258571Y-34747619D01*
X68877619Y-32985714D02*
X68401428Y-33319047D01*
X68877619Y-33557142D02*
X67877619Y-33557142D01*
X67877619Y-33557142D02*
X67877619Y-33176190D01*
X67877619Y-33176190D02*
X67925238Y-33080952D01*
X67925238Y-33080952D02*
X67972857Y-33033333D01*
X67972857Y-33033333D02*
X68068095Y-32985714D01*
X68068095Y-32985714D02*
X68210952Y-32985714D01*
X68210952Y-32985714D02*
X68306190Y-33033333D01*
X68306190Y-33033333D02*
X68353809Y-33080952D01*
X68353809Y-33080952D02*
X68401428Y-33176190D01*
X68401428Y-33176190D02*
X68401428Y-33557142D01*
X57467428Y-46851809D02*
X57134095Y-46851809D01*
X57134095Y-47375619D02*
X57134095Y-46375619D01*
X57134095Y-46375619D02*
X57610285Y-46375619D01*
X58324571Y-46851809D02*
X57991238Y-46851809D01*
X57991238Y-47375619D02*
X57991238Y-46375619D01*
X57991238Y-46375619D02*
X58467428Y-46375619D01*
X59467429Y-46708952D02*
X59848381Y-46708952D01*
X59610286Y-47375619D02*
X59610286Y-46518476D01*
X59610286Y-46518476D02*
X59657905Y-46423238D01*
X59657905Y-46423238D02*
X59753143Y-46375619D01*
X59753143Y-46375619D02*
X59848381Y-46375619D01*
X60181715Y-47375619D02*
X60181715Y-46708952D01*
X60181715Y-46375619D02*
X60134096Y-46423238D01*
X60134096Y-46423238D02*
X60181715Y-46470857D01*
X60181715Y-46470857D02*
X60229334Y-46423238D01*
X60229334Y-46423238D02*
X60181715Y-46375619D01*
X60181715Y-46375619D02*
X60181715Y-46470857D01*
X60800762Y-47375619D02*
X60705524Y-47328000D01*
X60705524Y-47328000D02*
X60657905Y-47232761D01*
X60657905Y-47232761D02*
X60657905Y-46375619D01*
X61038858Y-46708952D02*
X61419810Y-46708952D01*
X61181715Y-46375619D02*
X61181715Y-47232761D01*
X61181715Y-47232761D02*
X61229334Y-47328000D01*
X61229334Y-47328000D02*
X61324572Y-47375619D01*
X61324572Y-47375619D02*
X61419810Y-47375619D01*
X62134096Y-47328000D02*
X62038858Y-47375619D01*
X62038858Y-47375619D02*
X61848382Y-47375619D01*
X61848382Y-47375619D02*
X61753144Y-47328000D01*
X61753144Y-47328000D02*
X61705525Y-47232761D01*
X61705525Y-47232761D02*
X61705525Y-46851809D01*
X61705525Y-46851809D02*
X61753144Y-46756571D01*
X61753144Y-46756571D02*
X61848382Y-46708952D01*
X61848382Y-46708952D02*
X62038858Y-46708952D01*
X62038858Y-46708952D02*
X62134096Y-46756571D01*
X62134096Y-46756571D02*
X62181715Y-46851809D01*
X62181715Y-46851809D02*
X62181715Y-46947047D01*
X62181715Y-46947047D02*
X61705525Y-47042285D01*
X62610287Y-47375619D02*
X62610287Y-46708952D01*
X62610287Y-46899428D02*
X62657906Y-46804190D01*
X62657906Y-46804190D02*
X62705525Y-46756571D01*
X62705525Y-46756571D02*
X62800763Y-46708952D01*
X62800763Y-46708952D02*
X62896001Y-46708952D01*
X64467430Y-47375619D02*
X63991240Y-47375619D01*
X63991240Y-47375619D02*
X63991240Y-46375619D01*
X60319047Y-36430000D02*
X60223809Y-36477619D01*
X60223809Y-36477619D02*
X60033333Y-36477619D01*
X60033333Y-36477619D02*
X59938095Y-36430000D01*
X59938095Y-36430000D02*
X59890476Y-36334761D01*
X59890476Y-36334761D02*
X59890476Y-35953809D01*
X59890476Y-35953809D02*
X59938095Y-35858571D01*
X59938095Y-35858571D02*
X60033333Y-35810952D01*
X60033333Y-35810952D02*
X60223809Y-35810952D01*
X60223809Y-35810952D02*
X60319047Y-35858571D01*
X60319047Y-35858571D02*
X60366666Y-35953809D01*
X60366666Y-35953809D02*
X60366666Y-36049047D01*
X60366666Y-36049047D02*
X59890476Y-36144285D01*
X61223809Y-36477619D02*
X61223809Y-35953809D01*
X61223809Y-35953809D02*
X61176190Y-35858571D01*
X61176190Y-35858571D02*
X61080952Y-35810952D01*
X61080952Y-35810952D02*
X60890476Y-35810952D01*
X60890476Y-35810952D02*
X60795238Y-35858571D01*
X61223809Y-36430000D02*
X61128571Y-36477619D01*
X61128571Y-36477619D02*
X60890476Y-36477619D01*
X60890476Y-36477619D02*
X60795238Y-36430000D01*
X60795238Y-36430000D02*
X60747619Y-36334761D01*
X60747619Y-36334761D02*
X60747619Y-36239523D01*
X60747619Y-36239523D02*
X60795238Y-36144285D01*
X60795238Y-36144285D02*
X60890476Y-36096666D01*
X60890476Y-36096666D02*
X61128571Y-36096666D01*
X61128571Y-36096666D02*
X61223809Y-36049047D01*
X61700000Y-36477619D02*
X61700000Y-35810952D01*
X61700000Y-36001428D02*
X61747619Y-35906190D01*
X61747619Y-35906190D02*
X61795238Y-35858571D01*
X61795238Y-35858571D02*
X61890476Y-35810952D01*
X61890476Y-35810952D02*
X61985714Y-35810952D01*
X62080953Y-36572857D02*
X62842857Y-36572857D01*
X63033334Y-36430000D02*
X63128572Y-36477619D01*
X63128572Y-36477619D02*
X63319048Y-36477619D01*
X63319048Y-36477619D02*
X63414286Y-36430000D01*
X63414286Y-36430000D02*
X63461905Y-36334761D01*
X63461905Y-36334761D02*
X63461905Y-36287142D01*
X63461905Y-36287142D02*
X63414286Y-36191904D01*
X63414286Y-36191904D02*
X63319048Y-36144285D01*
X63319048Y-36144285D02*
X63176191Y-36144285D01*
X63176191Y-36144285D02*
X63080953Y-36096666D01*
X63080953Y-36096666D02*
X63033334Y-36001428D01*
X63033334Y-36001428D02*
X63033334Y-35953809D01*
X63033334Y-35953809D02*
X63080953Y-35858571D01*
X63080953Y-35858571D02*
X63176191Y-35810952D01*
X63176191Y-35810952D02*
X63319048Y-35810952D01*
X63319048Y-35810952D02*
X63414286Y-35858571D01*
X64271429Y-36430000D02*
X64176191Y-36477619D01*
X64176191Y-36477619D02*
X63985715Y-36477619D01*
X63985715Y-36477619D02*
X63890477Y-36430000D01*
X63890477Y-36430000D02*
X63842858Y-36334761D01*
X63842858Y-36334761D02*
X63842858Y-35953809D01*
X63842858Y-35953809D02*
X63890477Y-35858571D01*
X63890477Y-35858571D02*
X63985715Y-35810952D01*
X63985715Y-35810952D02*
X64176191Y-35810952D01*
X64176191Y-35810952D02*
X64271429Y-35858571D01*
X64271429Y-35858571D02*
X64319048Y-35953809D01*
X64319048Y-35953809D02*
X64319048Y-36049047D01*
X64319048Y-36049047D02*
X63842858Y-36144285D01*
X64747620Y-35810952D02*
X64747620Y-36477619D01*
X64747620Y-35906190D02*
X64795239Y-35858571D01*
X64795239Y-35858571D02*
X64890477Y-35810952D01*
X64890477Y-35810952D02*
X65033334Y-35810952D01*
X65033334Y-35810952D02*
X65128572Y-35858571D01*
X65128572Y-35858571D02*
X65176191Y-35953809D01*
X65176191Y-35953809D02*
X65176191Y-36477619D01*
X65604763Y-36430000D02*
X65700001Y-36477619D01*
X65700001Y-36477619D02*
X65890477Y-36477619D01*
X65890477Y-36477619D02*
X65985715Y-36430000D01*
X65985715Y-36430000D02*
X66033334Y-36334761D01*
X66033334Y-36334761D02*
X66033334Y-36287142D01*
X66033334Y-36287142D02*
X65985715Y-36191904D01*
X65985715Y-36191904D02*
X65890477Y-36144285D01*
X65890477Y-36144285D02*
X65747620Y-36144285D01*
X65747620Y-36144285D02*
X65652382Y-36096666D01*
X65652382Y-36096666D02*
X65604763Y-36001428D01*
X65604763Y-36001428D02*
X65604763Y-35953809D01*
X65604763Y-35953809D02*
X65652382Y-35858571D01*
X65652382Y-35858571D02*
X65747620Y-35810952D01*
X65747620Y-35810952D02*
X65890477Y-35810952D01*
X65890477Y-35810952D02*
X65985715Y-35858571D01*
X66842858Y-36430000D02*
X66747620Y-36477619D01*
X66747620Y-36477619D02*
X66557144Y-36477619D01*
X66557144Y-36477619D02*
X66461906Y-36430000D01*
X66461906Y-36430000D02*
X66414287Y-36334761D01*
X66414287Y-36334761D02*
X66414287Y-35953809D01*
X66414287Y-35953809D02*
X66461906Y-35858571D01*
X66461906Y-35858571D02*
X66557144Y-35810952D01*
X66557144Y-35810952D02*
X66747620Y-35810952D01*
X66747620Y-35810952D02*
X66842858Y-35858571D01*
X66842858Y-35858571D02*
X66890477Y-35953809D01*
X66890477Y-35953809D02*
X66890477Y-36049047D01*
X66890477Y-36049047D02*
X66414287Y-36144285D01*
X75477619Y-40157142D02*
X75477619Y-39538095D01*
X75477619Y-39538095D02*
X75858571Y-39871428D01*
X75858571Y-39871428D02*
X75858571Y-39728571D01*
X75858571Y-39728571D02*
X75906190Y-39633333D01*
X75906190Y-39633333D02*
X75953809Y-39585714D01*
X75953809Y-39585714D02*
X76049047Y-39538095D01*
X76049047Y-39538095D02*
X76287142Y-39538095D01*
X76287142Y-39538095D02*
X76382380Y-39585714D01*
X76382380Y-39585714D02*
X76430000Y-39633333D01*
X76430000Y-39633333D02*
X76477619Y-39728571D01*
X76477619Y-39728571D02*
X76477619Y-40014285D01*
X76477619Y-40014285D02*
X76430000Y-40109523D01*
X76430000Y-40109523D02*
X76382380Y-40157142D01*
X75477619Y-39252380D02*
X76477619Y-38919047D01*
X76477619Y-38919047D02*
X75477619Y-38585714D01*
X75477619Y-38347618D02*
X75477619Y-37728571D01*
X75477619Y-37728571D02*
X75858571Y-38061904D01*
X75858571Y-38061904D02*
X75858571Y-37919047D01*
X75858571Y-37919047D02*
X75906190Y-37823809D01*
X75906190Y-37823809D02*
X75953809Y-37776190D01*
X75953809Y-37776190D02*
X76049047Y-37728571D01*
X76049047Y-37728571D02*
X76287142Y-37728571D01*
X76287142Y-37728571D02*
X76382380Y-37776190D01*
X76382380Y-37776190D02*
X76430000Y-37823809D01*
X76430000Y-37823809D02*
X76477619Y-37919047D01*
X76477619Y-37919047D02*
X76477619Y-38204761D01*
X76477619Y-38204761D02*
X76430000Y-38299999D01*
X76430000Y-38299999D02*
X76382380Y-38347618D01*
X76810952Y-37061904D02*
X75382380Y-37061904D01*
X76477619Y-35919047D02*
X75477619Y-35919047D01*
X76430000Y-35919047D02*
X76477619Y-36014285D01*
X76477619Y-36014285D02*
X76477619Y-36204761D01*
X76477619Y-36204761D02*
X76430000Y-36299999D01*
X76430000Y-36299999D02*
X76382380Y-36347618D01*
X76382380Y-36347618D02*
X76287142Y-36395237D01*
X76287142Y-36395237D02*
X76001428Y-36395237D01*
X76001428Y-36395237D02*
X75906190Y-36347618D01*
X75906190Y-36347618D02*
X75858571Y-36299999D01*
X75858571Y-36299999D02*
X75810952Y-36204761D01*
X75810952Y-36204761D02*
X75810952Y-36014285D01*
X75810952Y-36014285D02*
X75858571Y-35919047D01*
X76477619Y-35014285D02*
X75953809Y-35014285D01*
X75953809Y-35014285D02*
X75858571Y-35061904D01*
X75858571Y-35061904D02*
X75810952Y-35157142D01*
X75810952Y-35157142D02*
X75810952Y-35347618D01*
X75810952Y-35347618D02*
X75858571Y-35442856D01*
X76430000Y-35014285D02*
X76477619Y-35109523D01*
X76477619Y-35109523D02*
X76477619Y-35347618D01*
X76477619Y-35347618D02*
X76430000Y-35442856D01*
X76430000Y-35442856D02*
X76334761Y-35490475D01*
X76334761Y-35490475D02*
X76239523Y-35490475D01*
X76239523Y-35490475D02*
X76144285Y-35442856D01*
X76144285Y-35442856D02*
X76096666Y-35347618D01*
X76096666Y-35347618D02*
X76096666Y-35109523D01*
X76096666Y-35109523D02*
X76049047Y-35014285D01*
X75810952Y-34680951D02*
X75810952Y-34299999D01*
X75477619Y-34538094D02*
X76334761Y-34538094D01*
X76334761Y-34538094D02*
X76430000Y-34490475D01*
X76430000Y-34490475D02*
X76477619Y-34395237D01*
X76477619Y-34395237D02*
X76477619Y-34299999D01*
X76477619Y-33538094D02*
X75953809Y-33538094D01*
X75953809Y-33538094D02*
X75858571Y-33585713D01*
X75858571Y-33585713D02*
X75810952Y-33680951D01*
X75810952Y-33680951D02*
X75810952Y-33871427D01*
X75810952Y-33871427D02*
X75858571Y-33966665D01*
X76430000Y-33538094D02*
X76477619Y-33633332D01*
X76477619Y-33633332D02*
X76477619Y-33871427D01*
X76477619Y-33871427D02*
X76430000Y-33966665D01*
X76430000Y-33966665D02*
X76334761Y-34014284D01*
X76334761Y-34014284D02*
X76239523Y-34014284D01*
X76239523Y-34014284D02*
X76144285Y-33966665D01*
X76144285Y-33966665D02*
X76096666Y-33871427D01*
X76096666Y-33871427D02*
X76096666Y-33633332D01*
X76096666Y-33633332D02*
X76049047Y-33538094D01*
X46799428Y-65139809D02*
X46466095Y-65139809D01*
X46466095Y-65663619D02*
X46466095Y-64663619D01*
X46466095Y-64663619D02*
X46942285Y-64663619D01*
X47656571Y-65139809D02*
X47799428Y-65187428D01*
X47799428Y-65187428D02*
X47847047Y-65235047D01*
X47847047Y-65235047D02*
X47894666Y-65330285D01*
X47894666Y-65330285D02*
X47894666Y-65473142D01*
X47894666Y-65473142D02*
X47847047Y-65568380D01*
X47847047Y-65568380D02*
X47799428Y-65616000D01*
X47799428Y-65616000D02*
X47704190Y-65663619D01*
X47704190Y-65663619D02*
X47323238Y-65663619D01*
X47323238Y-65663619D02*
X47323238Y-64663619D01*
X47323238Y-64663619D02*
X47656571Y-64663619D01*
X47656571Y-64663619D02*
X47751809Y-64711238D01*
X47751809Y-64711238D02*
X47799428Y-64758857D01*
X47799428Y-64758857D02*
X47847047Y-64854095D01*
X47847047Y-64854095D02*
X47847047Y-64949333D01*
X47847047Y-64949333D02*
X47799428Y-65044571D01*
X47799428Y-65044571D02*
X47751809Y-65092190D01*
X47751809Y-65092190D02*
X47656571Y-65139809D01*
X47656571Y-65139809D02*
X47323238Y-65139809D01*
X48942286Y-64996952D02*
X49323238Y-64996952D01*
X49085143Y-65663619D02*
X49085143Y-64806476D01*
X49085143Y-64806476D02*
X49132762Y-64711238D01*
X49132762Y-64711238D02*
X49228000Y-64663619D01*
X49228000Y-64663619D02*
X49323238Y-64663619D01*
X49656572Y-65663619D02*
X49656572Y-64996952D01*
X49656572Y-64663619D02*
X49608953Y-64711238D01*
X49608953Y-64711238D02*
X49656572Y-64758857D01*
X49656572Y-64758857D02*
X49704191Y-64711238D01*
X49704191Y-64711238D02*
X49656572Y-64663619D01*
X49656572Y-64663619D02*
X49656572Y-64758857D01*
X50275619Y-65663619D02*
X50180381Y-65616000D01*
X50180381Y-65616000D02*
X50132762Y-65520761D01*
X50132762Y-65520761D02*
X50132762Y-64663619D01*
X50513715Y-64996952D02*
X50894667Y-64996952D01*
X50656572Y-64663619D02*
X50656572Y-65520761D01*
X50656572Y-65520761D02*
X50704191Y-65616000D01*
X50704191Y-65616000D02*
X50799429Y-65663619D01*
X50799429Y-65663619D02*
X50894667Y-65663619D01*
X51608953Y-65616000D02*
X51513715Y-65663619D01*
X51513715Y-65663619D02*
X51323239Y-65663619D01*
X51323239Y-65663619D02*
X51228001Y-65616000D01*
X51228001Y-65616000D02*
X51180382Y-65520761D01*
X51180382Y-65520761D02*
X51180382Y-65139809D01*
X51180382Y-65139809D02*
X51228001Y-65044571D01*
X51228001Y-65044571D02*
X51323239Y-64996952D01*
X51323239Y-64996952D02*
X51513715Y-64996952D01*
X51513715Y-64996952D02*
X51608953Y-65044571D01*
X51608953Y-65044571D02*
X51656572Y-65139809D01*
X51656572Y-65139809D02*
X51656572Y-65235047D01*
X51656572Y-65235047D02*
X51180382Y-65330285D01*
X52085144Y-65663619D02*
X52085144Y-64996952D01*
X52085144Y-65187428D02*
X52132763Y-65092190D01*
X52132763Y-65092190D02*
X52180382Y-65044571D01*
X52180382Y-65044571D02*
X52275620Y-64996952D01*
X52275620Y-64996952D02*
X52370858Y-64996952D01*
X53942287Y-65663619D02*
X53466097Y-65663619D01*
X53466097Y-65663619D02*
X53466097Y-64663619D01*
X54799430Y-65663619D02*
X54228002Y-65663619D01*
X54513716Y-65663619D02*
X54513716Y-64663619D01*
X54513716Y-64663619D02*
X54418478Y-64806476D01*
X54418478Y-64806476D02*
X54323240Y-64901714D01*
X54323240Y-64901714D02*
X54228002Y-64949333D01*
X66938095Y-54877619D02*
X66938095Y-53877619D01*
X66938095Y-53877619D02*
X67271428Y-54591904D01*
X67271428Y-54591904D02*
X67604761Y-53877619D01*
X67604761Y-53877619D02*
X67604761Y-54877619D01*
X68080952Y-54877619D02*
X68080952Y-54210952D01*
X68080952Y-53877619D02*
X68033333Y-53925238D01*
X68033333Y-53925238D02*
X68080952Y-53972857D01*
X68080952Y-53972857D02*
X68128571Y-53925238D01*
X68128571Y-53925238D02*
X68080952Y-53877619D01*
X68080952Y-53877619D02*
X68080952Y-53972857D01*
X68985713Y-54830000D02*
X68890475Y-54877619D01*
X68890475Y-54877619D02*
X68699999Y-54877619D01*
X68699999Y-54877619D02*
X68604761Y-54830000D01*
X68604761Y-54830000D02*
X68557142Y-54782380D01*
X68557142Y-54782380D02*
X68509523Y-54687142D01*
X68509523Y-54687142D02*
X68509523Y-54401428D01*
X68509523Y-54401428D02*
X68557142Y-54306190D01*
X68557142Y-54306190D02*
X68604761Y-54258571D01*
X68604761Y-54258571D02*
X68699999Y-54210952D01*
X68699999Y-54210952D02*
X68890475Y-54210952D01*
X68890475Y-54210952D02*
X68985713Y-54258571D01*
X70747618Y-54877619D02*
X70414285Y-54401428D01*
X70176190Y-54877619D02*
X70176190Y-53877619D01*
X70176190Y-53877619D02*
X70557142Y-53877619D01*
X70557142Y-53877619D02*
X70652380Y-53925238D01*
X70652380Y-53925238D02*
X70699999Y-53972857D01*
X70699999Y-53972857D02*
X70747618Y-54068095D01*
X70747618Y-54068095D02*
X70747618Y-54210952D01*
X70747618Y-54210952D02*
X70699999Y-54306190D01*
X70699999Y-54306190D02*
X70652380Y-54353809D01*
X70652380Y-54353809D02*
X70557142Y-54401428D01*
X70557142Y-54401428D02*
X70176190Y-54401428D01*
X69659428Y-43930809D02*
X69326095Y-43930809D01*
X69326095Y-44454619D02*
X69326095Y-43454619D01*
X69326095Y-43454619D02*
X69802285Y-43454619D01*
X70516571Y-43930809D02*
X70659428Y-43978428D01*
X70659428Y-43978428D02*
X70707047Y-44026047D01*
X70707047Y-44026047D02*
X70754666Y-44121285D01*
X70754666Y-44121285D02*
X70754666Y-44264142D01*
X70754666Y-44264142D02*
X70707047Y-44359380D01*
X70707047Y-44359380D02*
X70659428Y-44407000D01*
X70659428Y-44407000D02*
X70564190Y-44454619D01*
X70564190Y-44454619D02*
X70183238Y-44454619D01*
X70183238Y-44454619D02*
X70183238Y-43454619D01*
X70183238Y-43454619D02*
X70516571Y-43454619D01*
X70516571Y-43454619D02*
X70611809Y-43502238D01*
X70611809Y-43502238D02*
X70659428Y-43549857D01*
X70659428Y-43549857D02*
X70707047Y-43645095D01*
X70707047Y-43645095D02*
X70707047Y-43740333D01*
X70707047Y-43740333D02*
X70659428Y-43835571D01*
X70659428Y-43835571D02*
X70611809Y-43883190D01*
X70611809Y-43883190D02*
X70516571Y-43930809D01*
X70516571Y-43930809D02*
X70183238Y-43930809D01*
X71802286Y-43787952D02*
X72183238Y-43787952D01*
X71945143Y-44454619D02*
X71945143Y-43597476D01*
X71945143Y-43597476D02*
X71992762Y-43502238D01*
X71992762Y-43502238D02*
X72088000Y-43454619D01*
X72088000Y-43454619D02*
X72183238Y-43454619D01*
X72516572Y-44454619D02*
X72516572Y-43787952D01*
X72516572Y-43454619D02*
X72468953Y-43502238D01*
X72468953Y-43502238D02*
X72516572Y-43549857D01*
X72516572Y-43549857D02*
X72564191Y-43502238D01*
X72564191Y-43502238D02*
X72516572Y-43454619D01*
X72516572Y-43454619D02*
X72516572Y-43549857D01*
X73135619Y-44454619D02*
X73040381Y-44407000D01*
X73040381Y-44407000D02*
X72992762Y-44311761D01*
X72992762Y-44311761D02*
X72992762Y-43454619D01*
X73373715Y-43787952D02*
X73754667Y-43787952D01*
X73516572Y-43454619D02*
X73516572Y-44311761D01*
X73516572Y-44311761D02*
X73564191Y-44407000D01*
X73564191Y-44407000D02*
X73659429Y-44454619D01*
X73659429Y-44454619D02*
X73754667Y-44454619D01*
X74468953Y-44407000D02*
X74373715Y-44454619D01*
X74373715Y-44454619D02*
X74183239Y-44454619D01*
X74183239Y-44454619D02*
X74088001Y-44407000D01*
X74088001Y-44407000D02*
X74040382Y-44311761D01*
X74040382Y-44311761D02*
X74040382Y-43930809D01*
X74040382Y-43930809D02*
X74088001Y-43835571D01*
X74088001Y-43835571D02*
X74183239Y-43787952D01*
X74183239Y-43787952D02*
X74373715Y-43787952D01*
X74373715Y-43787952D02*
X74468953Y-43835571D01*
X74468953Y-43835571D02*
X74516572Y-43930809D01*
X74516572Y-43930809D02*
X74516572Y-44026047D01*
X74516572Y-44026047D02*
X74040382Y-44121285D01*
X74945144Y-44454619D02*
X74945144Y-43787952D01*
X74945144Y-43978428D02*
X74992763Y-43883190D01*
X74992763Y-43883190D02*
X75040382Y-43835571D01*
X75040382Y-43835571D02*
X75135620Y-43787952D01*
X75135620Y-43787952D02*
X75230858Y-43787952D01*
X76897525Y-44454619D02*
X76564192Y-43978428D01*
X76326097Y-44454619D02*
X76326097Y-43454619D01*
X76326097Y-43454619D02*
X76707049Y-43454619D01*
X76707049Y-43454619D02*
X76802287Y-43502238D01*
X76802287Y-43502238D02*
X76849906Y-43549857D01*
X76849906Y-43549857D02*
X76897525Y-43645095D01*
X76897525Y-43645095D02*
X76897525Y-43787952D01*
X76897525Y-43787952D02*
X76849906Y-43883190D01*
X76849906Y-43883190D02*
X76802287Y-43930809D01*
X76802287Y-43930809D02*
X76707049Y-43978428D01*
X76707049Y-43978428D02*
X76326097Y-43978428D01*
X77849906Y-44454619D02*
X77278478Y-44454619D01*
X77564192Y-44454619D02*
X77564192Y-43454619D01*
X77564192Y-43454619D02*
X77468954Y-43597476D01*
X77468954Y-43597476D02*
X77373716Y-43692714D01*
X77373716Y-43692714D02*
X77278478Y-43740333D01*
X56451428Y-74853809D02*
X56118095Y-74853809D01*
X56118095Y-75377619D02*
X56118095Y-74377619D01*
X56118095Y-74377619D02*
X56594285Y-74377619D01*
X57308571Y-74853809D02*
X56975238Y-74853809D01*
X56975238Y-75377619D02*
X56975238Y-74377619D01*
X56975238Y-74377619D02*
X57451428Y-74377619D01*
X58594286Y-75377619D02*
X58594286Y-74710952D01*
X58594286Y-74806190D02*
X58641905Y-74758571D01*
X58641905Y-74758571D02*
X58737143Y-74710952D01*
X58737143Y-74710952D02*
X58880000Y-74710952D01*
X58880000Y-74710952D02*
X58975238Y-74758571D01*
X58975238Y-74758571D02*
X59022857Y-74853809D01*
X59022857Y-74853809D02*
X59022857Y-75377619D01*
X59022857Y-74853809D02*
X59070476Y-74758571D01*
X59070476Y-74758571D02*
X59165714Y-74710952D01*
X59165714Y-74710952D02*
X59308571Y-74710952D01*
X59308571Y-74710952D02*
X59403810Y-74758571D01*
X59403810Y-74758571D02*
X59451429Y-74853809D01*
X59451429Y-74853809D02*
X59451429Y-75377619D01*
X59927619Y-75377619D02*
X59927619Y-74710952D01*
X59927619Y-74377619D02*
X59880000Y-74425238D01*
X59880000Y-74425238D02*
X59927619Y-74472857D01*
X59927619Y-74472857D02*
X59975238Y-74425238D01*
X59975238Y-74425238D02*
X59927619Y-74377619D01*
X59927619Y-74377619D02*
X59927619Y-74472857D01*
X60832380Y-75330000D02*
X60737142Y-75377619D01*
X60737142Y-75377619D02*
X60546666Y-75377619D01*
X60546666Y-75377619D02*
X60451428Y-75330000D01*
X60451428Y-75330000D02*
X60403809Y-75282380D01*
X60403809Y-75282380D02*
X60356190Y-75187142D01*
X60356190Y-75187142D02*
X60356190Y-74901428D01*
X60356190Y-74901428D02*
X60403809Y-74806190D01*
X60403809Y-74806190D02*
X60451428Y-74758571D01*
X60451428Y-74758571D02*
X60546666Y-74710952D01*
X60546666Y-74710952D02*
X60737142Y-74710952D01*
X60737142Y-74710952D02*
X60832380Y-74758571D01*
X70138095Y-32796666D02*
X70900000Y-32796666D01*
X70519047Y-33177619D02*
X70519047Y-32415714D01*
X61038095Y-41777619D02*
X61038095Y-41110952D01*
X61038095Y-41301428D02*
X61085714Y-41206190D01*
X61085714Y-41206190D02*
X61133333Y-41158571D01*
X61133333Y-41158571D02*
X61228571Y-41110952D01*
X61228571Y-41110952D02*
X61323809Y-41110952D01*
X62038095Y-41730000D02*
X61942857Y-41777619D01*
X61942857Y-41777619D02*
X61752381Y-41777619D01*
X61752381Y-41777619D02*
X61657143Y-41730000D01*
X61657143Y-41730000D02*
X61609524Y-41634761D01*
X61609524Y-41634761D02*
X61609524Y-41253809D01*
X61609524Y-41253809D02*
X61657143Y-41158571D01*
X61657143Y-41158571D02*
X61752381Y-41110952D01*
X61752381Y-41110952D02*
X61942857Y-41110952D01*
X61942857Y-41110952D02*
X62038095Y-41158571D01*
X62038095Y-41158571D02*
X62085714Y-41253809D01*
X62085714Y-41253809D02*
X62085714Y-41349047D01*
X62085714Y-41349047D02*
X61609524Y-41444285D01*
X62466667Y-41730000D02*
X62561905Y-41777619D01*
X62561905Y-41777619D02*
X62752381Y-41777619D01*
X62752381Y-41777619D02*
X62847619Y-41730000D01*
X62847619Y-41730000D02*
X62895238Y-41634761D01*
X62895238Y-41634761D02*
X62895238Y-41587142D01*
X62895238Y-41587142D02*
X62847619Y-41491904D01*
X62847619Y-41491904D02*
X62752381Y-41444285D01*
X62752381Y-41444285D02*
X62609524Y-41444285D01*
X62609524Y-41444285D02*
X62514286Y-41396666D01*
X62514286Y-41396666D02*
X62466667Y-41301428D01*
X62466667Y-41301428D02*
X62466667Y-41253809D01*
X62466667Y-41253809D02*
X62514286Y-41158571D01*
X62514286Y-41158571D02*
X62609524Y-41110952D01*
X62609524Y-41110952D02*
X62752381Y-41110952D01*
X62752381Y-41110952D02*
X62847619Y-41158571D01*
X63704762Y-41730000D02*
X63609524Y-41777619D01*
X63609524Y-41777619D02*
X63419048Y-41777619D01*
X63419048Y-41777619D02*
X63323810Y-41730000D01*
X63323810Y-41730000D02*
X63276191Y-41634761D01*
X63276191Y-41634761D02*
X63276191Y-41253809D01*
X63276191Y-41253809D02*
X63323810Y-41158571D01*
X63323810Y-41158571D02*
X63419048Y-41110952D01*
X63419048Y-41110952D02*
X63609524Y-41110952D01*
X63609524Y-41110952D02*
X63704762Y-41158571D01*
X63704762Y-41158571D02*
X63752381Y-41253809D01*
X63752381Y-41253809D02*
X63752381Y-41349047D01*
X63752381Y-41349047D02*
X63276191Y-41444285D01*
X64038096Y-41110952D02*
X64419048Y-41110952D01*
X64180953Y-40777619D02*
X64180953Y-41634761D01*
X64180953Y-41634761D02*
X64228572Y-41730000D01*
X64228572Y-41730000D02*
X64323810Y-41777619D01*
X64323810Y-41777619D02*
X64419048Y-41777619D01*
X82919809Y-63690571D02*
X82919809Y-64023904D01*
X83443619Y-64023904D02*
X82443619Y-64023904D01*
X82443619Y-64023904D02*
X82443619Y-63547714D01*
X82919809Y-62833428D02*
X82967428Y-62690571D01*
X82967428Y-62690571D02*
X83015047Y-62642952D01*
X83015047Y-62642952D02*
X83110285Y-62595333D01*
X83110285Y-62595333D02*
X83253142Y-62595333D01*
X83253142Y-62595333D02*
X83348380Y-62642952D01*
X83348380Y-62642952D02*
X83396000Y-62690571D01*
X83396000Y-62690571D02*
X83443619Y-62785809D01*
X83443619Y-62785809D02*
X83443619Y-63166761D01*
X83443619Y-63166761D02*
X82443619Y-63166761D01*
X82443619Y-63166761D02*
X82443619Y-62833428D01*
X82443619Y-62833428D02*
X82491238Y-62738190D01*
X82491238Y-62738190D02*
X82538857Y-62690571D01*
X82538857Y-62690571D02*
X82634095Y-62642952D01*
X82634095Y-62642952D02*
X82729333Y-62642952D01*
X82729333Y-62642952D02*
X82824571Y-62690571D01*
X82824571Y-62690571D02*
X82872190Y-62738190D01*
X82872190Y-62738190D02*
X82919809Y-62833428D01*
X82919809Y-62833428D02*
X82919809Y-63166761D01*
X82776952Y-61547713D02*
X82776952Y-61166761D01*
X83443619Y-61404856D02*
X82586476Y-61404856D01*
X82586476Y-61404856D02*
X82491238Y-61357237D01*
X82491238Y-61357237D02*
X82443619Y-61261999D01*
X82443619Y-61261999D02*
X82443619Y-61166761D01*
X83443619Y-60833427D02*
X82776952Y-60833427D01*
X82443619Y-60833427D02*
X82491238Y-60881046D01*
X82491238Y-60881046D02*
X82538857Y-60833427D01*
X82538857Y-60833427D02*
X82491238Y-60785808D01*
X82491238Y-60785808D02*
X82443619Y-60833427D01*
X82443619Y-60833427D02*
X82538857Y-60833427D01*
X83443619Y-60214380D02*
X83396000Y-60309618D01*
X83396000Y-60309618D02*
X83300761Y-60357237D01*
X83300761Y-60357237D02*
X82443619Y-60357237D01*
X82776952Y-59976284D02*
X82776952Y-59595332D01*
X82443619Y-59833427D02*
X83300761Y-59833427D01*
X83300761Y-59833427D02*
X83396000Y-59785808D01*
X83396000Y-59785808D02*
X83443619Y-59690570D01*
X83443619Y-59690570D02*
X83443619Y-59595332D01*
X83396000Y-58881046D02*
X83443619Y-58976284D01*
X83443619Y-58976284D02*
X83443619Y-59166760D01*
X83443619Y-59166760D02*
X83396000Y-59261998D01*
X83396000Y-59261998D02*
X83300761Y-59309617D01*
X83300761Y-59309617D02*
X82919809Y-59309617D01*
X82919809Y-59309617D02*
X82824571Y-59261998D01*
X82824571Y-59261998D02*
X82776952Y-59166760D01*
X82776952Y-59166760D02*
X82776952Y-58976284D01*
X82776952Y-58976284D02*
X82824571Y-58881046D01*
X82824571Y-58881046D02*
X82919809Y-58833427D01*
X82919809Y-58833427D02*
X83015047Y-58833427D01*
X83015047Y-58833427D02*
X83110285Y-59309617D01*
X83443619Y-58404855D02*
X82776952Y-58404855D01*
X82967428Y-58404855D02*
X82872190Y-58357236D01*
X82872190Y-58357236D02*
X82824571Y-58309617D01*
X82824571Y-58309617D02*
X82776952Y-58214379D01*
X82776952Y-58214379D02*
X82776952Y-58119141D01*
X83443619Y-56452474D02*
X82967428Y-56785807D01*
X83443619Y-57023902D02*
X82443619Y-57023902D01*
X82443619Y-57023902D02*
X82443619Y-56642950D01*
X82443619Y-56642950D02*
X82491238Y-56547712D01*
X82491238Y-56547712D02*
X82538857Y-56500093D01*
X82538857Y-56500093D02*
X82634095Y-56452474D01*
X82634095Y-56452474D02*
X82776952Y-56452474D01*
X82776952Y-56452474D02*
X82872190Y-56500093D01*
X82872190Y-56500093D02*
X82919809Y-56547712D01*
X82919809Y-56547712D02*
X82967428Y-56642950D01*
X82967428Y-56642950D02*
X82967428Y-57023902D01*
X82538857Y-56071521D02*
X82491238Y-56023902D01*
X82491238Y-56023902D02*
X82443619Y-55928664D01*
X82443619Y-55928664D02*
X82443619Y-55690569D01*
X82443619Y-55690569D02*
X82491238Y-55595331D01*
X82491238Y-55595331D02*
X82538857Y-55547712D01*
X82538857Y-55547712D02*
X82634095Y-55500093D01*
X82634095Y-55500093D02*
X82729333Y-55500093D01*
X82729333Y-55500093D02*
X82872190Y-55547712D01*
X82872190Y-55547712D02*
X83443619Y-56119140D01*
X83443619Y-56119140D02*
X83443619Y-55500093D01*
X73877619Y-36561904D02*
X72877619Y-36561904D01*
X73353809Y-36561904D02*
X73353809Y-35990476D01*
X73877619Y-35990476D02*
X72877619Y-35990476D01*
X73877619Y-35514285D02*
X72877619Y-35514285D01*
X72877619Y-35514285D02*
X72877619Y-35133333D01*
X72877619Y-35133333D02*
X72925238Y-35038095D01*
X72925238Y-35038095D02*
X72972857Y-34990476D01*
X72972857Y-34990476D02*
X73068095Y-34942857D01*
X73068095Y-34942857D02*
X73210952Y-34942857D01*
X73210952Y-34942857D02*
X73306190Y-34990476D01*
X73306190Y-34990476D02*
X73353809Y-35038095D01*
X73353809Y-35038095D02*
X73401428Y-35133333D01*
X73401428Y-35133333D02*
X73401428Y-35514285D01*
X73877619Y-33180952D02*
X73401428Y-33514285D01*
X73877619Y-33752380D02*
X72877619Y-33752380D01*
X72877619Y-33752380D02*
X72877619Y-33371428D01*
X72877619Y-33371428D02*
X72925238Y-33276190D01*
X72925238Y-33276190D02*
X72972857Y-33228571D01*
X72972857Y-33228571D02*
X73068095Y-33180952D01*
X73068095Y-33180952D02*
X73210952Y-33180952D01*
X73210952Y-33180952D02*
X73306190Y-33228571D01*
X73306190Y-33228571D02*
X73353809Y-33276190D01*
X73353809Y-33276190D02*
X73401428Y-33371428D01*
X73401428Y-33371428D02*
X73401428Y-33752380D01*
X72638095Y-32796666D02*
X73400000Y-32796666D01*
X73019047Y-33177619D02*
X73019047Y-32415714D01*
X70953809Y-39328571D02*
X70953809Y-39661904D01*
X71477619Y-39661904D02*
X70477619Y-39661904D01*
X70477619Y-39661904D02*
X70477619Y-39185714D01*
X70953809Y-38471428D02*
X71001428Y-38328571D01*
X71001428Y-38328571D02*
X71049047Y-38280952D01*
X71049047Y-38280952D02*
X71144285Y-38233333D01*
X71144285Y-38233333D02*
X71287142Y-38233333D01*
X71287142Y-38233333D02*
X71382380Y-38280952D01*
X71382380Y-38280952D02*
X71430000Y-38328571D01*
X71430000Y-38328571D02*
X71477619Y-38423809D01*
X71477619Y-38423809D02*
X71477619Y-38804761D01*
X71477619Y-38804761D02*
X70477619Y-38804761D01*
X70477619Y-38804761D02*
X70477619Y-38471428D01*
X70477619Y-38471428D02*
X70525238Y-38376190D01*
X70525238Y-38376190D02*
X70572857Y-38328571D01*
X70572857Y-38328571D02*
X70668095Y-38280952D01*
X70668095Y-38280952D02*
X70763333Y-38280952D01*
X70763333Y-38280952D02*
X70858571Y-38328571D01*
X70858571Y-38328571D02*
X70906190Y-38376190D01*
X70906190Y-38376190D02*
X70953809Y-38471428D01*
X70953809Y-38471428D02*
X70953809Y-38804761D01*
X71477619Y-37042856D02*
X70810952Y-37042856D01*
X70906190Y-37042856D02*
X70858571Y-36995237D01*
X70858571Y-36995237D02*
X70810952Y-36899999D01*
X70810952Y-36899999D02*
X70810952Y-36757142D01*
X70810952Y-36757142D02*
X70858571Y-36661904D01*
X70858571Y-36661904D02*
X70953809Y-36614285D01*
X70953809Y-36614285D02*
X71477619Y-36614285D01*
X70953809Y-36614285D02*
X70858571Y-36566666D01*
X70858571Y-36566666D02*
X70810952Y-36471428D01*
X70810952Y-36471428D02*
X70810952Y-36328571D01*
X70810952Y-36328571D02*
X70858571Y-36233332D01*
X70858571Y-36233332D02*
X70953809Y-36185713D01*
X70953809Y-36185713D02*
X71477619Y-36185713D01*
X71477619Y-35709523D02*
X70810952Y-35709523D01*
X70477619Y-35709523D02*
X70525238Y-35757142D01*
X70525238Y-35757142D02*
X70572857Y-35709523D01*
X70572857Y-35709523D02*
X70525238Y-35661904D01*
X70525238Y-35661904D02*
X70477619Y-35709523D01*
X70477619Y-35709523D02*
X70572857Y-35709523D01*
X71430000Y-34804762D02*
X71477619Y-34900000D01*
X71477619Y-34900000D02*
X71477619Y-35090476D01*
X71477619Y-35090476D02*
X71430000Y-35185714D01*
X71430000Y-35185714D02*
X71382380Y-35233333D01*
X71382380Y-35233333D02*
X71287142Y-35280952D01*
X71287142Y-35280952D02*
X71001428Y-35280952D01*
X71001428Y-35280952D02*
X70906190Y-35233333D01*
X70906190Y-35233333D02*
X70858571Y-35185714D01*
X70858571Y-35185714D02*
X70810952Y-35090476D01*
X70810952Y-35090476D02*
X70810952Y-34900000D01*
X70810952Y-34900000D02*
X70858571Y-34804762D01*
X71477619Y-33042857D02*
X71001428Y-33376190D01*
X71477619Y-33614285D02*
X70477619Y-33614285D01*
X70477619Y-33614285D02*
X70477619Y-33233333D01*
X70477619Y-33233333D02*
X70525238Y-33138095D01*
X70525238Y-33138095D02*
X70572857Y-33090476D01*
X70572857Y-33090476D02*
X70668095Y-33042857D01*
X70668095Y-33042857D02*
X70810952Y-33042857D01*
X70810952Y-33042857D02*
X70906190Y-33090476D01*
X70906190Y-33090476D02*
X70953809Y-33138095D01*
X70953809Y-33138095D02*
X71001428Y-33233333D01*
X71001428Y-33233333D02*
X71001428Y-33614285D01*
X59277619Y-36261904D02*
X58277619Y-36261904D01*
X58753809Y-36261904D02*
X58753809Y-35690476D01*
X59277619Y-35690476D02*
X58277619Y-35690476D01*
X59277619Y-35214285D02*
X58277619Y-35214285D01*
X58277619Y-35214285D02*
X58277619Y-34833333D01*
X58277619Y-34833333D02*
X58325238Y-34738095D01*
X58325238Y-34738095D02*
X58372857Y-34690476D01*
X58372857Y-34690476D02*
X58468095Y-34642857D01*
X58468095Y-34642857D02*
X58610952Y-34642857D01*
X58610952Y-34642857D02*
X58706190Y-34690476D01*
X58706190Y-34690476D02*
X58753809Y-34738095D01*
X58753809Y-34738095D02*
X58801428Y-34833333D01*
X58801428Y-34833333D02*
X58801428Y-35214285D01*
X59277619Y-32976190D02*
X59277619Y-33452380D01*
X59277619Y-33452380D02*
X58277619Y-33452380D01*
X59438095Y-29296666D02*
X60200000Y-29296666D01*
X59819047Y-29677619D02*
X59819047Y-28915714D01*
X77538095Y-32696666D02*
X78300000Y-32696666D01*
X77919047Y-33077619D02*
X77919047Y-32315714D01*
X87462380Y-58690476D02*
X87510000Y-58738095D01*
X87510000Y-58738095D02*
X87557619Y-58880952D01*
X87557619Y-58880952D02*
X87557619Y-58976190D01*
X87557619Y-58976190D02*
X87510000Y-59119047D01*
X87510000Y-59119047D02*
X87414761Y-59214285D01*
X87414761Y-59214285D02*
X87319523Y-59261904D01*
X87319523Y-59261904D02*
X87129047Y-59309523D01*
X87129047Y-59309523D02*
X86986190Y-59309523D01*
X86986190Y-59309523D02*
X86795714Y-59261904D01*
X86795714Y-59261904D02*
X86700476Y-59214285D01*
X86700476Y-59214285D02*
X86605238Y-59119047D01*
X86605238Y-59119047D02*
X86557619Y-58976190D01*
X86557619Y-58976190D02*
X86557619Y-58880952D01*
X86557619Y-58880952D02*
X86605238Y-58738095D01*
X86605238Y-58738095D02*
X86652857Y-58690476D01*
X87557619Y-58261904D02*
X86557619Y-58261904D01*
X87033809Y-58261904D02*
X87033809Y-57690476D01*
X87557619Y-57690476D02*
X86557619Y-57690476D01*
X87557619Y-56642857D02*
X87081428Y-56976190D01*
X87557619Y-57214285D02*
X86557619Y-57214285D01*
X86557619Y-57214285D02*
X86557619Y-56833333D01*
X86557619Y-56833333D02*
X86605238Y-56738095D01*
X86605238Y-56738095D02*
X86652857Y-56690476D01*
X86652857Y-56690476D02*
X86748095Y-56642857D01*
X86748095Y-56642857D02*
X86890952Y-56642857D01*
X86890952Y-56642857D02*
X86986190Y-56690476D01*
X86986190Y-56690476D02*
X87033809Y-56738095D01*
X87033809Y-56738095D02*
X87081428Y-56833333D01*
X87081428Y-56833333D02*
X87081428Y-57214285D01*
X86605238Y-55690476D02*
X86557619Y-55785714D01*
X86557619Y-55785714D02*
X86557619Y-55928571D01*
X86557619Y-55928571D02*
X86605238Y-56071428D01*
X86605238Y-56071428D02*
X86700476Y-56166666D01*
X86700476Y-56166666D02*
X86795714Y-56214285D01*
X86795714Y-56214285D02*
X86986190Y-56261904D01*
X86986190Y-56261904D02*
X87129047Y-56261904D01*
X87129047Y-56261904D02*
X87319523Y-56214285D01*
X87319523Y-56214285D02*
X87414761Y-56166666D01*
X87414761Y-56166666D02*
X87510000Y-56071428D01*
X87510000Y-56071428D02*
X87557619Y-55928571D01*
X87557619Y-55928571D02*
X87557619Y-55833333D01*
X87557619Y-55833333D02*
X87510000Y-55690476D01*
X87510000Y-55690476D02*
X87462380Y-55642857D01*
X87462380Y-55642857D02*
X87129047Y-55642857D01*
X87129047Y-55642857D02*
X87129047Y-55833333D01*
X89177619Y-59261904D02*
X88510952Y-59261904D01*
X88701428Y-59261904D02*
X88606190Y-59214285D01*
X88606190Y-59214285D02*
X88558571Y-59166666D01*
X88558571Y-59166666D02*
X88510952Y-59071428D01*
X88510952Y-59071428D02*
X88510952Y-58976190D01*
X89177619Y-58214285D02*
X88653809Y-58214285D01*
X88653809Y-58214285D02*
X88558571Y-58261904D01*
X88558571Y-58261904D02*
X88510952Y-58357142D01*
X88510952Y-58357142D02*
X88510952Y-58547618D01*
X88510952Y-58547618D02*
X88558571Y-58642856D01*
X89130000Y-58214285D02*
X89177619Y-58309523D01*
X89177619Y-58309523D02*
X89177619Y-58547618D01*
X89177619Y-58547618D02*
X89130000Y-58642856D01*
X89130000Y-58642856D02*
X89034761Y-58690475D01*
X89034761Y-58690475D02*
X88939523Y-58690475D01*
X88939523Y-58690475D02*
X88844285Y-58642856D01*
X88844285Y-58642856D02*
X88796666Y-58547618D01*
X88796666Y-58547618D02*
X88796666Y-58309523D01*
X88796666Y-58309523D02*
X88749047Y-58214285D01*
X88510952Y-57880951D02*
X88510952Y-57499999D01*
X88177619Y-57738094D02*
X89034761Y-57738094D01*
X89034761Y-57738094D02*
X89130000Y-57690475D01*
X89130000Y-57690475D02*
X89177619Y-57595237D01*
X89177619Y-57595237D02*
X89177619Y-57499999D01*
X89130000Y-56785713D02*
X89177619Y-56880951D01*
X89177619Y-56880951D02*
X89177619Y-57071427D01*
X89177619Y-57071427D02*
X89130000Y-57166665D01*
X89130000Y-57166665D02*
X89034761Y-57214284D01*
X89034761Y-57214284D02*
X88653809Y-57214284D01*
X88653809Y-57214284D02*
X88558571Y-57166665D01*
X88558571Y-57166665D02*
X88510952Y-57071427D01*
X88510952Y-57071427D02*
X88510952Y-56880951D01*
X88510952Y-56880951D02*
X88558571Y-56785713D01*
X88558571Y-56785713D02*
X88653809Y-56738094D01*
X88653809Y-56738094D02*
X88749047Y-56738094D01*
X88749047Y-56738094D02*
X88844285Y-57214284D01*
X76655135Y-71275013D02*
X76419433Y-71510715D01*
X76789822Y-71881104D02*
X76082715Y-71173998D01*
X76082715Y-71173998D02*
X76419433Y-70837280D01*
X77261226Y-70668921D02*
X77025524Y-70904623D01*
X77395913Y-71275013D02*
X76688807Y-70567906D01*
X76688807Y-70567906D02*
X77025524Y-70231188D01*
X77968334Y-69759784D02*
X78237708Y-69490410D01*
X78540753Y-70130173D02*
X77934662Y-69524081D01*
X77934662Y-69524081D02*
X77900990Y-69423066D01*
X77900990Y-69423066D02*
X77934662Y-69322051D01*
X77934662Y-69322051D02*
X78002005Y-69254707D01*
X78944815Y-69726112D02*
X78473410Y-69254707D01*
X78237708Y-69019005D02*
X78237708Y-69086348D01*
X78237708Y-69086348D02*
X78305051Y-69086348D01*
X78305051Y-69086348D02*
X78305051Y-69019005D01*
X78305051Y-69019005D02*
X78237708Y-69019005D01*
X78237708Y-69019005D02*
X78305051Y-69086348D01*
X79382547Y-69288379D02*
X79281532Y-69322051D01*
X79281532Y-69322051D02*
X79180517Y-69288379D01*
X79180517Y-69288379D02*
X78574425Y-68682288D01*
X79079502Y-68648616D02*
X79348876Y-68379242D01*
X78944815Y-68311898D02*
X79550906Y-68917990D01*
X79550906Y-68917990D02*
X79651921Y-68951661D01*
X79651921Y-68951661D02*
X79752937Y-68917990D01*
X79752937Y-68917990D02*
X79820280Y-68850646D01*
X80291685Y-68311898D02*
X80258013Y-68412913D01*
X80258013Y-68412913D02*
X80123326Y-68547600D01*
X80123326Y-68547600D02*
X80022311Y-68581272D01*
X80022311Y-68581272D02*
X79921296Y-68547600D01*
X79921296Y-68547600D02*
X79651922Y-68278226D01*
X79651922Y-68278226D02*
X79618250Y-68177211D01*
X79618250Y-68177211D02*
X79651922Y-68076195D01*
X79651922Y-68076195D02*
X79786609Y-67941508D01*
X79786609Y-67941508D02*
X79887624Y-67907837D01*
X79887624Y-67907837D02*
X79988639Y-67941508D01*
X79988639Y-67941508D02*
X80055983Y-68008852D01*
X80055983Y-68008852D02*
X79786609Y-68412913D01*
X80662074Y-68008852D02*
X80190670Y-67537447D01*
X80325357Y-67672134D02*
X80291685Y-67571119D01*
X80291685Y-67571119D02*
X80291685Y-67503776D01*
X80291685Y-67503776D02*
X80325357Y-67402760D01*
X80325357Y-67402760D02*
X80392700Y-67335417D01*
X82042617Y-66628310D02*
X81470197Y-66527294D01*
X81638556Y-67032371D02*
X80931449Y-66325264D01*
X80931449Y-66325264D02*
X81200823Y-66055890D01*
X81200823Y-66055890D02*
X81301838Y-66022218D01*
X81301838Y-66022218D02*
X81369182Y-66022218D01*
X81369182Y-66022218D02*
X81470197Y-66055890D01*
X81470197Y-66055890D02*
X81571212Y-66156905D01*
X81571212Y-66156905D02*
X81604884Y-66257920D01*
X81604884Y-66257920D02*
X81604884Y-66325264D01*
X81604884Y-66325264D02*
X81571212Y-66426279D01*
X81571212Y-66426279D02*
X81301838Y-66695653D01*
X53838095Y-75696666D02*
X54600000Y-75696666D01*
X54219047Y-76077619D02*
X54219047Y-75315714D01*
X67638095Y-32796666D02*
X68400000Y-32796666D01*
X68019047Y-33177619D02*
X68019047Y-32415714D01*
X57938095Y-78996666D02*
X58700000Y-78996666D01*
X58319047Y-79377619D02*
X58319047Y-78615714D01*
X78453809Y-35828571D02*
X78501428Y-35685714D01*
X78501428Y-35685714D02*
X78549047Y-35638095D01*
X78549047Y-35638095D02*
X78644285Y-35590476D01*
X78644285Y-35590476D02*
X78787142Y-35590476D01*
X78787142Y-35590476D02*
X78882380Y-35638095D01*
X78882380Y-35638095D02*
X78930000Y-35685714D01*
X78930000Y-35685714D02*
X78977619Y-35780952D01*
X78977619Y-35780952D02*
X78977619Y-36161904D01*
X78977619Y-36161904D02*
X77977619Y-36161904D01*
X77977619Y-36161904D02*
X77977619Y-35828571D01*
X77977619Y-35828571D02*
X78025238Y-35733333D01*
X78025238Y-35733333D02*
X78072857Y-35685714D01*
X78072857Y-35685714D02*
X78168095Y-35638095D01*
X78168095Y-35638095D02*
X78263333Y-35638095D01*
X78263333Y-35638095D02*
X78358571Y-35685714D01*
X78358571Y-35685714D02*
X78406190Y-35733333D01*
X78406190Y-35733333D02*
X78453809Y-35828571D01*
X78453809Y-35828571D02*
X78453809Y-36161904D01*
X78977619Y-34733333D02*
X78453809Y-34733333D01*
X78453809Y-34733333D02*
X78358571Y-34780952D01*
X78358571Y-34780952D02*
X78310952Y-34876190D01*
X78310952Y-34876190D02*
X78310952Y-35066666D01*
X78310952Y-35066666D02*
X78358571Y-35161904D01*
X78930000Y-34733333D02*
X78977619Y-34828571D01*
X78977619Y-34828571D02*
X78977619Y-35066666D01*
X78977619Y-35066666D02*
X78930000Y-35161904D01*
X78930000Y-35161904D02*
X78834761Y-35209523D01*
X78834761Y-35209523D02*
X78739523Y-35209523D01*
X78739523Y-35209523D02*
X78644285Y-35161904D01*
X78644285Y-35161904D02*
X78596666Y-35066666D01*
X78596666Y-35066666D02*
X78596666Y-34828571D01*
X78596666Y-34828571D02*
X78549047Y-34733333D01*
X78310952Y-34399999D02*
X78310952Y-34019047D01*
X77977619Y-34257142D02*
X78834761Y-34257142D01*
X78834761Y-34257142D02*
X78930000Y-34209523D01*
X78930000Y-34209523D02*
X78977619Y-34114285D01*
X78977619Y-34114285D02*
X78977619Y-34019047D01*
X78310952Y-33828570D02*
X78310952Y-33447618D01*
X77977619Y-33685713D02*
X78834761Y-33685713D01*
X78834761Y-33685713D02*
X78930000Y-33638094D01*
X78930000Y-33638094D02*
X78977619Y-33542856D01*
X78977619Y-33542856D02*
X78977619Y-33447618D01*
X54371428Y-73053809D02*
X54038095Y-73053809D01*
X54038095Y-73577619D02*
X54038095Y-72577619D01*
X54038095Y-72577619D02*
X54514285Y-72577619D01*
X55228571Y-73053809D02*
X55371428Y-73101428D01*
X55371428Y-73101428D02*
X55419047Y-73149047D01*
X55419047Y-73149047D02*
X55466666Y-73244285D01*
X55466666Y-73244285D02*
X55466666Y-73387142D01*
X55466666Y-73387142D02*
X55419047Y-73482380D01*
X55419047Y-73482380D02*
X55371428Y-73530000D01*
X55371428Y-73530000D02*
X55276190Y-73577619D01*
X55276190Y-73577619D02*
X54895238Y-73577619D01*
X54895238Y-73577619D02*
X54895238Y-72577619D01*
X54895238Y-72577619D02*
X55228571Y-72577619D01*
X55228571Y-72577619D02*
X55323809Y-72625238D01*
X55323809Y-72625238D02*
X55371428Y-72672857D01*
X55371428Y-72672857D02*
X55419047Y-72768095D01*
X55419047Y-72768095D02*
X55419047Y-72863333D01*
X55419047Y-72863333D02*
X55371428Y-72958571D01*
X55371428Y-72958571D02*
X55323809Y-73006190D01*
X55323809Y-73006190D02*
X55228571Y-73053809D01*
X55228571Y-73053809D02*
X54895238Y-73053809D01*
X56657143Y-73577619D02*
X56657143Y-72910952D01*
X56657143Y-73006190D02*
X56704762Y-72958571D01*
X56704762Y-72958571D02*
X56800000Y-72910952D01*
X56800000Y-72910952D02*
X56942857Y-72910952D01*
X56942857Y-72910952D02*
X57038095Y-72958571D01*
X57038095Y-72958571D02*
X57085714Y-73053809D01*
X57085714Y-73053809D02*
X57085714Y-73577619D01*
X57085714Y-73053809D02*
X57133333Y-72958571D01*
X57133333Y-72958571D02*
X57228571Y-72910952D01*
X57228571Y-72910952D02*
X57371428Y-72910952D01*
X57371428Y-72910952D02*
X57466667Y-72958571D01*
X57466667Y-72958571D02*
X57514286Y-73053809D01*
X57514286Y-73053809D02*
X57514286Y-73577619D01*
X57990476Y-73577619D02*
X57990476Y-72910952D01*
X57990476Y-72577619D02*
X57942857Y-72625238D01*
X57942857Y-72625238D02*
X57990476Y-72672857D01*
X57990476Y-72672857D02*
X58038095Y-72625238D01*
X58038095Y-72625238D02*
X57990476Y-72577619D01*
X57990476Y-72577619D02*
X57990476Y-72672857D01*
X58895237Y-73530000D02*
X58799999Y-73577619D01*
X58799999Y-73577619D02*
X58609523Y-73577619D01*
X58609523Y-73577619D02*
X58514285Y-73530000D01*
X58514285Y-73530000D02*
X58466666Y-73482380D01*
X58466666Y-73482380D02*
X58419047Y-73387142D01*
X58419047Y-73387142D02*
X58419047Y-73101428D01*
X58419047Y-73101428D02*
X58466666Y-73006190D01*
X58466666Y-73006190D02*
X58514285Y-72958571D01*
X58514285Y-72958571D02*
X58609523Y-72910952D01*
X58609523Y-72910952D02*
X58799999Y-72910952D01*
X58799999Y-72910952D02*
X58895237Y-72958571D01*
X46799428Y-58027809D02*
X46466095Y-58027809D01*
X46466095Y-58551619D02*
X46466095Y-57551619D01*
X46466095Y-57551619D02*
X46942285Y-57551619D01*
X47656571Y-58027809D02*
X47799428Y-58075428D01*
X47799428Y-58075428D02*
X47847047Y-58123047D01*
X47847047Y-58123047D02*
X47894666Y-58218285D01*
X47894666Y-58218285D02*
X47894666Y-58361142D01*
X47894666Y-58361142D02*
X47847047Y-58456380D01*
X47847047Y-58456380D02*
X47799428Y-58504000D01*
X47799428Y-58504000D02*
X47704190Y-58551619D01*
X47704190Y-58551619D02*
X47323238Y-58551619D01*
X47323238Y-58551619D02*
X47323238Y-57551619D01*
X47323238Y-57551619D02*
X47656571Y-57551619D01*
X47656571Y-57551619D02*
X47751809Y-57599238D01*
X47751809Y-57599238D02*
X47799428Y-57646857D01*
X47799428Y-57646857D02*
X47847047Y-57742095D01*
X47847047Y-57742095D02*
X47847047Y-57837333D01*
X47847047Y-57837333D02*
X47799428Y-57932571D01*
X47799428Y-57932571D02*
X47751809Y-57980190D01*
X47751809Y-57980190D02*
X47656571Y-58027809D01*
X47656571Y-58027809D02*
X47323238Y-58027809D01*
X48942286Y-57884952D02*
X49323238Y-57884952D01*
X49085143Y-58551619D02*
X49085143Y-57694476D01*
X49085143Y-57694476D02*
X49132762Y-57599238D01*
X49132762Y-57599238D02*
X49228000Y-57551619D01*
X49228000Y-57551619D02*
X49323238Y-57551619D01*
X49656572Y-58551619D02*
X49656572Y-57884952D01*
X49656572Y-57551619D02*
X49608953Y-57599238D01*
X49608953Y-57599238D02*
X49656572Y-57646857D01*
X49656572Y-57646857D02*
X49704191Y-57599238D01*
X49704191Y-57599238D02*
X49656572Y-57551619D01*
X49656572Y-57551619D02*
X49656572Y-57646857D01*
X50275619Y-58551619D02*
X50180381Y-58504000D01*
X50180381Y-58504000D02*
X50132762Y-58408761D01*
X50132762Y-58408761D02*
X50132762Y-57551619D01*
X50513715Y-57884952D02*
X50894667Y-57884952D01*
X50656572Y-57551619D02*
X50656572Y-58408761D01*
X50656572Y-58408761D02*
X50704191Y-58504000D01*
X50704191Y-58504000D02*
X50799429Y-58551619D01*
X50799429Y-58551619D02*
X50894667Y-58551619D01*
X51608953Y-58504000D02*
X51513715Y-58551619D01*
X51513715Y-58551619D02*
X51323239Y-58551619D01*
X51323239Y-58551619D02*
X51228001Y-58504000D01*
X51228001Y-58504000D02*
X51180382Y-58408761D01*
X51180382Y-58408761D02*
X51180382Y-58027809D01*
X51180382Y-58027809D02*
X51228001Y-57932571D01*
X51228001Y-57932571D02*
X51323239Y-57884952D01*
X51323239Y-57884952D02*
X51513715Y-57884952D01*
X51513715Y-57884952D02*
X51608953Y-57932571D01*
X51608953Y-57932571D02*
X51656572Y-58027809D01*
X51656572Y-58027809D02*
X51656572Y-58123047D01*
X51656572Y-58123047D02*
X51180382Y-58218285D01*
X52085144Y-58551619D02*
X52085144Y-57884952D01*
X52085144Y-58075428D02*
X52132763Y-57980190D01*
X52132763Y-57980190D02*
X52180382Y-57932571D01*
X52180382Y-57932571D02*
X52275620Y-57884952D01*
X52275620Y-57884952D02*
X52370858Y-57884952D01*
X53942287Y-58551619D02*
X53466097Y-58551619D01*
X53466097Y-58551619D02*
X53466097Y-57551619D01*
X54228002Y-57646857D02*
X54275621Y-57599238D01*
X54275621Y-57599238D02*
X54370859Y-57551619D01*
X54370859Y-57551619D02*
X54608954Y-57551619D01*
X54608954Y-57551619D02*
X54704192Y-57599238D01*
X54704192Y-57599238D02*
X54751811Y-57646857D01*
X54751811Y-57646857D02*
X54799430Y-57742095D01*
X54799430Y-57742095D02*
X54799430Y-57837333D01*
X54799430Y-57837333D02*
X54751811Y-57980190D01*
X54751811Y-57980190D02*
X54180383Y-58551619D01*
X54180383Y-58551619D02*
X54799430Y-58551619D01*
X61038095Y-71777619D02*
X61038095Y-70777619D01*
X61038095Y-70777619D02*
X61371428Y-71491904D01*
X61371428Y-71491904D02*
X61704761Y-70777619D01*
X61704761Y-70777619D02*
X61704761Y-71777619D01*
X62180952Y-71777619D02*
X62180952Y-71110952D01*
X62180952Y-70777619D02*
X62133333Y-70825238D01*
X62133333Y-70825238D02*
X62180952Y-70872857D01*
X62180952Y-70872857D02*
X62228571Y-70825238D01*
X62228571Y-70825238D02*
X62180952Y-70777619D01*
X62180952Y-70777619D02*
X62180952Y-70872857D01*
X63085713Y-71730000D02*
X62990475Y-71777619D01*
X62990475Y-71777619D02*
X62799999Y-71777619D01*
X62799999Y-71777619D02*
X62704761Y-71730000D01*
X62704761Y-71730000D02*
X62657142Y-71682380D01*
X62657142Y-71682380D02*
X62609523Y-71587142D01*
X62609523Y-71587142D02*
X62609523Y-71301428D01*
X62609523Y-71301428D02*
X62657142Y-71206190D01*
X62657142Y-71206190D02*
X62704761Y-71158571D01*
X62704761Y-71158571D02*
X62799999Y-71110952D01*
X62799999Y-71110952D02*
X62990475Y-71110952D01*
X62990475Y-71110952D02*
X63085713Y-71158571D01*
X64752380Y-71777619D02*
X64276190Y-71777619D01*
X64276190Y-71777619D02*
X64276190Y-70777619D01*
D12*
%TO.C,J11*%
X72200000Y-32000000D02*
G75*
G03*
X72200000Y-32000000I-700000J0D01*
G01*
%TO.C,C16*%
X70750165Y-67204000D02*
X70981835Y-67204000D01*
X70750165Y-67924000D02*
X70981835Y-67924000D01*
%TO.C,J22*%
X62422000Y-29840795D02*
G75*
G03*
X62422000Y-29840795I-700000J0D01*
G01*
%TO.C,C42*%
X64122500Y-50965835D02*
X64122500Y-50734165D01*
X64842500Y-50965835D02*
X64842500Y-50734165D01*
%TO.C,J5*%
X54500000Y-74400000D02*
G75*
G03*
X54500000Y-74400000I-700000J0D01*
G01*
%TO.C,R48*%
X59095000Y-53432379D02*
X59095000Y-53767621D01*
X58335000Y-53432379D02*
X58335000Y-53767621D01*
%TO.C,C66*%
X57602915Y-67542500D02*
X57834585Y-67542500D01*
X57602915Y-68262500D02*
X57834585Y-68262500D01*
%TO.C,C74*%
X50984585Y-66760000D02*
X50752915Y-66760000D01*
X50984585Y-66040000D02*
X50752915Y-66040000D01*
%TO.C,C56*%
X61942500Y-67515835D02*
X61942500Y-67284165D01*
X62662500Y-67515835D02*
X62662500Y-67284165D01*
%TO.C,C5*%
X82802500Y-36958665D02*
X82802500Y-37190335D01*
X82082500Y-36958665D02*
X82082500Y-37190335D01*
%TO.C,R28*%
X76532121Y-62610000D02*
X76196879Y-62610000D01*
X76532121Y-61850000D02*
X76196879Y-61850000D01*
%TO.C,C18*%
X67942000Y-70683835D02*
X67942000Y-70452165D01*
X68662000Y-70683835D02*
X68662000Y-70452165D01*
%TO.C,C23*%
X78370165Y-64791000D02*
X78601835Y-64791000D01*
X78370165Y-65511000D02*
X78601835Y-65511000D01*
D13*
%TO.C,J1*%
X75378700Y-80472500D02*
X75378700Y-78886569D01*
X60621300Y-80472500D02*
X75378700Y-80472500D01*
X60621300Y-78886569D02*
X60621300Y-80472500D01*
D12*
%TO.C,R54*%
X46767621Y-64232500D02*
X46432379Y-64232500D01*
X46767621Y-63472500D02*
X46432379Y-63472500D01*
%TO.C,C53*%
X57849165Y-55240000D02*
X58080835Y-55240000D01*
X57849165Y-55960000D02*
X58080835Y-55960000D01*
%TO.C,R58*%
X46432379Y-61972500D02*
X46767621Y-61972500D01*
X46432379Y-62732500D02*
X46767621Y-62732500D01*
%TO.C,C2*%
X80514665Y-40880500D02*
X80746335Y-40880500D01*
X80514665Y-41600500D02*
X80746335Y-41600500D01*
%TO.C,R15*%
X66422000Y-67985621D02*
X66422000Y-67650379D01*
X67182000Y-67985621D02*
X67182000Y-67650379D01*
%TO.C,C26*%
X78998665Y-56306000D02*
X79230335Y-56306000D01*
X78998665Y-57026000D02*
X79230335Y-57026000D01*
%TO.C,C4*%
X80552500Y-36958665D02*
X80552500Y-37190335D01*
X79832500Y-36958665D02*
X79832500Y-37190335D01*
%TO.C,R4*%
X88370000Y-55570121D02*
X88370000Y-55234879D01*
X89130000Y-55570121D02*
X89130000Y-55234879D01*
%TO.C,R38*%
X72984379Y-49595000D02*
X73319621Y-49595000D01*
X72984379Y-50355000D02*
X73319621Y-50355000D01*
%TO.C,C57*%
X60716665Y-54140000D02*
X60948335Y-54140000D01*
X60716665Y-54860000D02*
X60948335Y-54860000D01*
%TO.C,C14*%
X70460000Y-62981665D02*
X70460000Y-63213335D01*
X69740000Y-62981665D02*
X69740000Y-63213335D01*
%TO.C,C67*%
X56286665Y-62040000D02*
X56518335Y-62040000D01*
X56286665Y-62760000D02*
X56518335Y-62760000D01*
%TO.C,C51*%
X58355000Y-50965835D02*
X58355000Y-50734165D01*
X59075000Y-50965835D02*
X59075000Y-50734165D01*
%TO.C,R31*%
X76196879Y-63374000D02*
X76532121Y-63374000D01*
X76196879Y-64134000D02*
X76532121Y-64134000D01*
%TO.C,C21*%
X70004000Y-71781665D02*
X70004000Y-72013335D01*
X69284000Y-71781665D02*
X69284000Y-72013335D01*
%TO.C,C64*%
X53637915Y-68990000D02*
X53869585Y-68990000D01*
X53637915Y-69710000D02*
X53869585Y-69710000D01*
%TO.C,R75*%
X80820000Y-50267621D02*
X80820000Y-49932379D01*
X81580000Y-50267621D02*
X81580000Y-49932379D01*
%TO.C,R64*%
X53820121Y-62780000D02*
X53484879Y-62780000D01*
X53820121Y-62020000D02*
X53484879Y-62020000D01*
%TO.C,C48*%
X64162500Y-67284165D02*
X64162500Y-67515835D01*
X63442500Y-67284165D02*
X63442500Y-67515835D01*
%TO.C,C46*%
X61107500Y-49555835D02*
X61107500Y-49324165D01*
X61827500Y-49555835D02*
X61827500Y-49324165D01*
%TO.C,R45*%
X60667379Y-51120000D02*
X61002621Y-51120000D01*
X60667379Y-51880000D02*
X61002621Y-51880000D01*
%TO.C,C63*%
X49715835Y-62712500D02*
X49484165Y-62712500D01*
X49715835Y-61992500D02*
X49484165Y-61992500D01*
%TO.C,J3*%
X58250000Y-77950000D02*
G75*
G03*
X58250000Y-77950000I-700000J0D01*
G01*
%TO.C,J16*%
X79700000Y-32000000D02*
G75*
G03*
X79700000Y-32000000I-700000J0D01*
G01*
%TO.C,C22*%
X76790000Y-68337165D02*
X76790000Y-68568835D01*
X76070000Y-68337165D02*
X76070000Y-68568835D01*
%TO.C,R61*%
X56166250Y-66984879D02*
X56166250Y-67320121D01*
X55406250Y-66984879D02*
X55406250Y-67320121D01*
%TO.C,R62*%
X48029879Y-59117500D02*
X48365121Y-59117500D01*
X48029879Y-59877500D02*
X48365121Y-59877500D01*
%TO.C,R39*%
X75778379Y-45579500D02*
X76113621Y-45579500D01*
X75778379Y-46339500D02*
X76113621Y-46339500D01*
%TO.C,R49*%
X61717621Y-69980000D02*
X61382379Y-69980000D01*
X61717621Y-69220000D02*
X61382379Y-69220000D01*
%TO.C,R69*%
X52406250Y-67335121D02*
X52406250Y-66999879D01*
X53166250Y-67335121D02*
X53166250Y-66999879D01*
%TO.C,R6*%
X67980000Y-62929879D02*
X67980000Y-63265121D01*
X67220000Y-62929879D02*
X67220000Y-63265121D01*
%TO.C,C12*%
X66992500Y-60415835D02*
X66992500Y-60184165D01*
X67712500Y-60415835D02*
X67712500Y-60184165D01*
%TO.C,C20*%
X67667835Y-66178000D02*
X67436165Y-66178000D01*
X67667835Y-65458000D02*
X67436165Y-65458000D01*
%TO.C,C15*%
X73110000Y-66686165D02*
X73110000Y-66917835D01*
X72390000Y-66686165D02*
X72390000Y-66917835D01*
%TO.C,R66*%
X53820121Y-59880000D02*
X53484879Y-59880000D01*
X53820121Y-59120000D02*
X53484879Y-59120000D01*
%TO.C,R63*%
X57886371Y-66782500D02*
X57551129Y-66782500D01*
X57886371Y-66022500D02*
X57551129Y-66022500D01*
%TO.C,J7*%
X59501000Y-29845000D02*
G75*
G03*
X59501000Y-29845000I-700000J0D01*
G01*
%TO.C,C72*%
X50952085Y-68460000D02*
X50720415Y-68460000D01*
X50952085Y-67740000D02*
X50720415Y-67740000D01*
%TO.C,R35*%
X73218121Y-48995500D02*
X72882879Y-48995500D01*
X73218121Y-48235500D02*
X72882879Y-48235500D01*
%TO.C,C29*%
X80402165Y-59177500D02*
X80633835Y-59177500D01*
X80402165Y-59897500D02*
X80633835Y-59897500D01*
%TO.C,R44*%
X64072500Y-62367621D02*
X64072500Y-62032379D01*
X64832500Y-62367621D02*
X64832500Y-62032379D01*
%TO.C,R26*%
X78138000Y-60467121D02*
X78138000Y-60131879D01*
X78898000Y-60467121D02*
X78898000Y-60131879D01*
%TO.C,J14*%
X73405627Y-29840795D02*
G75*
G03*
X73405627Y-29840795I-700000J0D01*
G01*
%TO.C,C49*%
X64812500Y-64684165D02*
X64812500Y-64915835D01*
X64092500Y-64684165D02*
X64092500Y-64915835D01*
%TO.C,C68*%
X50720415Y-69240000D02*
X50952085Y-69240000D01*
X50720415Y-69960000D02*
X50952085Y-69960000D01*
%TO.C,R19*%
X76074000Y-65826621D02*
X76074000Y-65491379D01*
X76834000Y-65826621D02*
X76834000Y-65491379D01*
%TO.C,R32*%
X69722000Y-50617379D02*
X69722000Y-50952621D01*
X68962000Y-50617379D02*
X68962000Y-50952621D01*
%TO.C,C1*%
X78440000Y-46083335D02*
X78440000Y-45851665D01*
X79160000Y-46083335D02*
X79160000Y-45851665D01*
%TO.C,R50*%
X61000121Y-53380000D02*
X60664879Y-53380000D01*
X61000121Y-52620000D02*
X60664879Y-52620000D01*
%TO.C,C30*%
X79072665Y-61894000D02*
X79304335Y-61894000D01*
X79072665Y-62614000D02*
X79304335Y-62614000D01*
%TO.C,C54*%
X60910000Y-59284165D02*
X60910000Y-59515835D01*
X60190000Y-59284165D02*
X60190000Y-59515835D01*
%TO.C,R40*%
X76328000Y-50801121D02*
X76328000Y-50465879D01*
X77088000Y-50801121D02*
X77088000Y-50465879D01*
%TO.C,R21*%
X75334000Y-65491379D02*
X75334000Y-65826621D01*
X74574000Y-65491379D02*
X74574000Y-65826621D01*
%TO.C,R41*%
X62602500Y-53767621D02*
X62602500Y-53432379D01*
X63362500Y-53767621D02*
X63362500Y-53432379D01*
%TO.C,R59*%
X56603871Y-69730000D02*
X56268629Y-69730000D01*
X56603871Y-68970000D02*
X56268629Y-68970000D01*
%TO.C,R24*%
X81494500Y-57248379D02*
X81494500Y-57583621D01*
X80734500Y-57248379D02*
X80734500Y-57583621D01*
%TO.C,C35*%
X69976165Y-52337500D02*
X70207835Y-52337500D01*
X69976165Y-53057500D02*
X70207835Y-53057500D01*
%TO.C,C47*%
X59953500Y-57760000D02*
X59721830Y-57760000D01*
X59953500Y-57040000D02*
X59721830Y-57040000D01*
%TO.C,R55*%
X56268629Y-70470000D02*
X56603871Y-70470000D01*
X56268629Y-71230000D02*
X56603871Y-71230000D01*
%TO.C,R5*%
X80798121Y-44120500D02*
X80462879Y-44120500D01*
X80798121Y-43360500D02*
X80462879Y-43360500D01*
%TO.C,C41*%
X73208335Y-51859000D02*
X72976665Y-51859000D01*
X73208335Y-51139000D02*
X72976665Y-51139000D01*
%TO.C,R42*%
X62720000Y-62367621D02*
X62720000Y-62032379D01*
X63480000Y-62367621D02*
X63480000Y-62032379D01*
%TO.C,C9*%
X67740000Y-57965835D02*
X67740000Y-57734165D01*
X68460000Y-57965835D02*
X68460000Y-57734165D01*
%TO.C,J13*%
X74700000Y-32000000D02*
G75*
G03*
X74700000Y-32000000I-700000J0D01*
G01*
%TO.C,R71*%
X47868629Y-67720000D02*
X48203871Y-67720000D01*
X47868629Y-68480000D02*
X48203871Y-68480000D01*
%TO.C,C40*%
X77068000Y-47767665D02*
X77068000Y-47999335D01*
X76348000Y-47767665D02*
X76348000Y-47999335D01*
%TO.C,R1*%
X86462879Y-45860500D02*
X86798121Y-45860500D01*
X86462879Y-46620500D02*
X86798121Y-46620500D01*
%TO.C,C19*%
X67162000Y-70452165D02*
X67162000Y-70683835D01*
X66442000Y-70452165D02*
X66442000Y-70683835D01*
%TO.C,J8*%
X60771000Y-32004000D02*
G75*
G03*
X60771000Y-32004000I-700000J0D01*
G01*
%TO.C,C32*%
X79304335Y-64114000D02*
X79072665Y-64114000D01*
X79304335Y-63394000D02*
X79072665Y-63394000D01*
%TO.C,C62*%
X58076250Y-70148335D02*
X58076250Y-69916665D01*
X58796250Y-70148335D02*
X58796250Y-69916665D01*
%TO.C,C37*%
X71928500Y-46731335D02*
X71928500Y-46499665D01*
X72648500Y-46731335D02*
X72648500Y-46499665D01*
%TO.C,R68*%
X56570121Y-64280000D02*
X56234879Y-64280000D01*
X56570121Y-63520000D02*
X56234879Y-63520000D01*
%TO.C,R74*%
X79420000Y-50267621D02*
X79420000Y-49932379D01*
X80180000Y-50267621D02*
X80180000Y-49932379D01*
%TO.C,J10*%
X68429627Y-29840795D02*
G75*
G03*
X68429627Y-29840795I-700000J0D01*
G01*
%TO.C,C6*%
X87884165Y-53042500D02*
X88115835Y-53042500D01*
X87884165Y-53762500D02*
X88115835Y-53762500D01*
%TO.C,C44*%
X63616665Y-55240000D02*
X63848335Y-55240000D01*
X63616665Y-55960000D02*
X63848335Y-55960000D01*
%TO.C,C31*%
X74062000Y-63048335D02*
X74062000Y-62816665D01*
X74782000Y-63048335D02*
X74782000Y-62816665D01*
%TO.C,R14*%
X67719621Y-72948000D02*
X67384379Y-72948000D01*
X67719621Y-72188000D02*
X67384379Y-72188000D01*
%TO.C,R56*%
X51980000Y-62934879D02*
X51980000Y-63270121D01*
X51220000Y-62934879D02*
X51220000Y-63270121D01*
%TO.C,R47*%
X64717621Y-69980000D02*
X64382379Y-69980000D01*
X64717621Y-69220000D02*
X64382379Y-69220000D01*
%TO.C,C77*%
X80746335Y-40350500D02*
X80514665Y-40350500D01*
X80746335Y-39630500D02*
X80514665Y-39630500D01*
%TO.C,C13*%
X70712500Y-60216665D02*
X70712500Y-60448335D01*
X69992500Y-60216665D02*
X69992500Y-60448335D01*
%TO.C,C10*%
X69960000Y-57734165D02*
X69960000Y-57965835D01*
X69240000Y-57734165D02*
X69240000Y-57965835D01*
%TO.C,C45*%
X63342500Y-50734165D02*
X63342500Y-50965835D01*
X62622500Y-50734165D02*
X62622500Y-50965835D01*
%TO.C,J6*%
X52500000Y-72600000D02*
G75*
G03*
X52500000Y-72600000I-700000J0D01*
G01*
%TO.C,R33*%
X69924379Y-45567500D02*
X70259621Y-45567500D01*
X69924379Y-46327500D02*
X70259621Y-46327500D01*
%TO.C,C24*%
X74570000Y-68568835D02*
X74570000Y-68337165D01*
X75290000Y-68568835D02*
X75290000Y-68337165D01*
%TO.C,R72*%
X62356000Y-34376379D02*
X62356000Y-34711621D01*
X61596000Y-34376379D02*
X61596000Y-34711621D01*
%TO.C,R20*%
X77471000Y-67096621D02*
X77471000Y-66761379D01*
X78231000Y-67096621D02*
X78231000Y-66761379D01*
%TO.C,C34*%
X68982000Y-48053335D02*
X68982000Y-47821665D01*
X69702000Y-48053335D02*
X69702000Y-47821665D01*
%TO.C,R30*%
X80900000Y-63159621D02*
X80900000Y-62824379D01*
X81660000Y-63159621D02*
X81660000Y-62824379D01*
%TO.C,R2*%
X88010500Y-38572879D02*
X88010500Y-38908121D01*
X87250500Y-38572879D02*
X87250500Y-38908121D01*
%TO.C,J12*%
X70905627Y-29840795D02*
G75*
G03*
X70905627Y-29840795I-700000J0D01*
G01*
%TO.C,R25*%
X76196879Y-57786000D02*
X76532121Y-57786000D01*
X76196879Y-58546000D02*
X76532121Y-58546000D01*
%TO.C,R7*%
X68470000Y-63265121D02*
X68470000Y-62929879D01*
X69230000Y-63265121D02*
X69230000Y-62929879D01*
%TO.C,J20*%
X63692000Y-32258000D02*
G75*
G03*
X63692000Y-32258000I-700000J0D01*
G01*
%TO.C,R73*%
X60832000Y-34376379D02*
X60832000Y-34711621D01*
X60072000Y-34376379D02*
X60072000Y-34711621D01*
%TO.C,R36*%
X74294000Y-46447879D02*
X74294000Y-46783121D01*
X73534000Y-46447879D02*
X73534000Y-46783121D01*
%TO.C,C28*%
X79230335Y-58526000D02*
X78998665Y-58526000D01*
X79230335Y-57806000D02*
X78998665Y-57806000D01*
%TO.C,R22*%
X73192621Y-71881000D02*
X72857379Y-71881000D01*
X73192621Y-71121000D02*
X72857379Y-71121000D01*
%TO.C,R43*%
X64922500Y-67567621D02*
X64922500Y-67232379D01*
X65682500Y-67567621D02*
X65682500Y-67232379D01*
%TO.C,R67*%
X48268871Y-66780000D02*
X47933629Y-66780000D01*
X48268871Y-66020000D02*
X47933629Y-66020000D01*
%TO.C,C75*%
X80715835Y-52460000D02*
X80484165Y-52460000D01*
X80715835Y-51740000D02*
X80484165Y-51740000D01*
%TO.C,C59*%
X49484165Y-63492500D02*
X49715835Y-63492500D01*
X49484165Y-64212500D02*
X49715835Y-64212500D01*
%TO.C,R17*%
X70764000Y-72065121D02*
X70764000Y-71729879D01*
X71524000Y-72065121D02*
X71524000Y-71729879D01*
%TO.C,C78*%
X63860000Y-34428165D02*
X63860000Y-34659835D01*
X63140000Y-34428165D02*
X63140000Y-34659835D01*
%TO.C,C25*%
X73140835Y-70591000D02*
X72909165Y-70591000D01*
X73140835Y-69871000D02*
X72909165Y-69871000D01*
%TO.C,R46*%
X60465000Y-49332379D02*
X60465000Y-49667621D01*
X59705000Y-49332379D02*
X59705000Y-49667621D01*
%TO.C,C79*%
X65443500Y-34428165D02*
X65443500Y-34659835D01*
X64723500Y-34428165D02*
X64723500Y-34659835D01*
%TO.C,C58*%
X58790000Y-59515835D02*
X58790000Y-59284165D01*
X59510000Y-59515835D02*
X59510000Y-59284165D01*
%TO.C,J15*%
X75905627Y-29840795D02*
G75*
G03*
X75905627Y-29840795I-700000J0D01*
G01*
%TO.C,R52*%
X56835000Y-53767621D02*
X56835000Y-53432379D01*
X57595000Y-53767621D02*
X57595000Y-53432379D01*
%TO.C,J21*%
X64962000Y-29840795D02*
G75*
G03*
X64962000Y-29840795I-700000J0D01*
G01*
%TO.C,C38*%
X74824000Y-47999335D02*
X74824000Y-47767665D01*
X75544000Y-47999335D02*
X75544000Y-47767665D01*
%TO.C,R34*%
X70486000Y-50952621D02*
X70486000Y-50617379D01*
X71246000Y-50952621D02*
X71246000Y-50617379D01*
%TO.C,J9*%
X69700000Y-32000000D02*
G75*
G03*
X69700000Y-32000000I-700000J0D01*
G01*
%TO.C,R51*%
X57797379Y-48470000D02*
X58132621Y-48470000D01*
X57797379Y-49230000D02*
X58132621Y-49230000D01*
%TO.C,R16*%
X68682000Y-67650379D02*
X68682000Y-67985621D01*
X67922000Y-67650379D02*
X67922000Y-67985621D01*
%TO.C,SW2*%
X64900000Y-38850000D02*
X64900000Y-38950000D01*
X64900000Y-37350000D02*
X60500000Y-37350000D01*
X60500000Y-40450000D02*
X64900000Y-40450000D01*
X60500000Y-38850000D02*
X60500000Y-38950000D01*
%TO.C,R29*%
X77342000Y-60030379D02*
X77342000Y-60365621D01*
X76582000Y-60030379D02*
X76582000Y-60365621D01*
%TO.C,C69*%
X53446665Y-63540000D02*
X53678335Y-63540000D01*
X53446665Y-64260000D02*
X53678335Y-64260000D01*
%TO.C,C70*%
X45676250Y-67283335D02*
X45676250Y-67051665D01*
X46396250Y-67283335D02*
X46396250Y-67051665D01*
%TO.C,C52*%
X61292500Y-64883335D02*
X61292500Y-64651665D01*
X62012500Y-64883335D02*
X62012500Y-64651665D01*
%TO.C,C33*%
X75078000Y-60313835D02*
X75078000Y-60082165D01*
X75798000Y-60313835D02*
X75798000Y-60082165D01*
%TO.C,C27*%
X74724500Y-57300165D02*
X74724500Y-57531835D01*
X74004500Y-57300165D02*
X74004500Y-57531835D01*
%TO.C,C76*%
X79840000Y-54515835D02*
X79840000Y-54284165D01*
X80560000Y-54515835D02*
X80560000Y-54284165D01*
%TO.C,C60*%
X53869585Y-71210000D02*
X53637915Y-71210000D01*
X53869585Y-70490000D02*
X53637915Y-70490000D01*
%TO.C,R13*%
X63564879Y-48470000D02*
X63900121Y-48470000D01*
X63564879Y-49230000D02*
X63900121Y-49230000D01*
%TO.C,R8*%
X67182379Y-55420000D02*
X67517621Y-55420000D01*
X67182379Y-56180000D02*
X67517621Y-56180000D01*
%TO.C,R37*%
X75564000Y-50465879D02*
X75564000Y-50801121D01*
X74804000Y-50465879D02*
X74804000Y-50801121D01*
%TO.C,J17*%
X77200000Y-32000000D02*
G75*
G03*
X77200000Y-32000000I-700000J0D01*
G01*
%TO.C,C36*%
X71226000Y-47821665D02*
X71226000Y-48053335D01*
X70506000Y-47821665D02*
X70506000Y-48053335D01*
%TO.C,C11*%
X69210000Y-60234165D02*
X69210000Y-60465835D01*
X68490000Y-60234165D02*
X68490000Y-60465835D01*
%TO.C,R23*%
X76532121Y-57046000D02*
X76196879Y-57046000D01*
X76532121Y-56286000D02*
X76196879Y-56286000D01*
%TO.C,R10*%
X71480000Y-57682379D02*
X71480000Y-58017621D01*
X70720000Y-57682379D02*
X70720000Y-58017621D01*
%TO.C,J4*%
X56500000Y-76200000D02*
G75*
G03*
X56500000Y-76200000I-700000J0D01*
G01*
%TO.C,C61*%
X45640000Y-60415835D02*
X45640000Y-60184165D01*
X46360000Y-60415835D02*
X46360000Y-60184165D01*
%TO.C,C65*%
X48310835Y-61427500D02*
X48079165Y-61427500D01*
X48310835Y-60707500D02*
X48079165Y-60707500D01*
%TO.C,R18*%
X70537621Y-70424500D02*
X70202379Y-70424500D01*
X70537621Y-69664500D02*
X70202379Y-69664500D01*
%TO.C,R57*%
X53856250Y-67367621D02*
X53856250Y-67032379D01*
X54616250Y-67367621D02*
X54616250Y-67032379D01*
%TO.C,R53*%
X60422500Y-67567621D02*
X60422500Y-67232379D01*
X61182500Y-67567621D02*
X61182500Y-67232379D01*
%TO.C,C71*%
X56518335Y-61260000D02*
X56286665Y-61260000D01*
X56518335Y-60540000D02*
X56286665Y-60540000D01*
%TO.C,C7*%
X82440000Y-51677835D02*
X82440000Y-51446165D01*
X83160000Y-51677835D02*
X83160000Y-51446165D01*
%TO.C,R11*%
X66980000Y-57682379D02*
X66980000Y-58017621D01*
X66220000Y-57682379D02*
X66220000Y-58017621D01*
%TO.C,R3*%
X86048121Y-39620500D02*
X85712879Y-39620500D01*
X86048121Y-38860500D02*
X85712879Y-38860500D01*
%TO.C,C55*%
X57575000Y-50734165D02*
X57575000Y-50965835D01*
X56855000Y-50734165D02*
X56855000Y-50965835D01*
%TO.C,R9*%
X70182379Y-55420000D02*
X70517621Y-55420000D01*
X70182379Y-56180000D02*
X70517621Y-56180000D01*
%TO.C,R65*%
X48203871Y-69980000D02*
X47868629Y-69980000D01*
X48203871Y-69220000D02*
X47868629Y-69220000D01*
%TO.C,C39*%
X75830165Y-52273500D02*
X76061835Y-52273500D01*
X75830165Y-52993500D02*
X76061835Y-52993500D01*
%TO.C,D1*%
X88115500Y-42505500D02*
X86645500Y-42505500D01*
X86645500Y-42505500D02*
X86645500Y-44790500D01*
X88115500Y-44790500D02*
X88115500Y-42505500D01*
%TO.C,R70*%
X53484879Y-60520000D02*
X53820121Y-60520000D01*
X53484879Y-61280000D02*
X53820121Y-61280000D01*
%TO.C,J19*%
X66232000Y-32258000D02*
G75*
G03*
X66232000Y-32258000I-700000J0D01*
G01*
%TO.C,R27*%
X80685621Y-61340000D02*
X80350379Y-61340000D01*
X80685621Y-60580000D02*
X80350379Y-60580000D01*
%TO.C,C17*%
X70987500Y-65915835D02*
X70987500Y-65684165D01*
X71707500Y-65915835D02*
X71707500Y-65684165D01*
%TO.C,C73*%
X56478335Y-59860000D02*
X56246665Y-59860000D01*
X56478335Y-59140000D02*
X56246665Y-59140000D01*
%TO.C,J18*%
X78405627Y-29840795D02*
G75*
G03*
X78405627Y-29840795I-700000J0D01*
G01*
%TO.C,C3*%
X80514665Y-42130500D02*
X80746335Y-42130500D01*
X80514665Y-42850500D02*
X80746335Y-42850500D01*
%TO.C,R12*%
X64862500Y-53432379D02*
X64862500Y-53767621D01*
X64102500Y-53432379D02*
X64102500Y-53767621D01*
%TO.C,C50*%
X62692500Y-64915835D02*
X62692500Y-64684165D01*
X63412500Y-64915835D02*
X63412500Y-64684165D01*
%TO.C,R60*%
X50575000Y-60129879D02*
X50575000Y-60465121D01*
X49815000Y-60129879D02*
X49815000Y-60465121D01*
%TO.C,C43*%
X62210000Y-62084165D02*
X62210000Y-62315835D01*
X61490000Y-62084165D02*
X61490000Y-62315835D01*
%TO.C,C8*%
X83284165Y-49424000D02*
X83515835Y-49424000D01*
X83284165Y-50144000D02*
X83515835Y-50144000D01*
%TD*%
%LPC*%
D14*
%TO.C,J11*%
X71500000Y-32000000D03*
%TD*%
D15*
%TO.C,C16*%
X70298500Y-67564000D03*
X71433500Y-67564000D03*
%TD*%
D14*
%TO.C,J22*%
X61722000Y-29840795D03*
%TD*%
D16*
%TO.C,C42*%
X64482500Y-51417500D03*
X64482500Y-50282500D03*
%TD*%
D14*
%TO.C,J5*%
X53800000Y-74400000D03*
%TD*%
D17*
%TO.C,R48*%
X58715000Y-53002500D03*
X58715000Y-54197500D03*
%TD*%
D15*
%TO.C,C66*%
X57151250Y-67902500D03*
X58286250Y-67902500D03*
%TD*%
D18*
%TO.C,C74*%
X51436250Y-66400000D03*
X50301250Y-66400000D03*
%TD*%
D16*
%TO.C,C56*%
X62302500Y-67967500D03*
X62302500Y-66832500D03*
%TD*%
D19*
%TO.C,C5*%
X82442500Y-36507000D03*
X82442500Y-37642000D03*
%TD*%
D20*
%TO.C,R28*%
X76962000Y-62230000D03*
X75767000Y-62230000D03*
%TD*%
D16*
%TO.C,C18*%
X68302000Y-71135500D03*
X68302000Y-70000500D03*
%TD*%
D15*
%TO.C,C23*%
X77918500Y-65151000D03*
X79053500Y-65151000D03*
%TD*%
D21*
%TO.C,J1*%
X63750001Y-76154500D03*
X64250000Y-76154500D03*
X64750001Y-76154500D03*
X65250000Y-76154500D03*
X65750002Y-76154500D03*
X66250001Y-76154500D03*
X66750000Y-76154500D03*
X67250002Y-76154500D03*
X67750000Y-76154500D03*
X68250002Y-76154500D03*
X68750001Y-76154500D03*
X69250000Y-76154500D03*
X69750002Y-76154500D03*
X70250001Y-76154500D03*
X70750002Y-76154500D03*
X71250001Y-76154500D03*
X71750000Y-76154500D03*
X72250002Y-76154500D03*
D22*
X74032500Y-77399100D03*
X61967500Y-77399100D03*
%TD*%
D20*
%TO.C,R54*%
X47197500Y-63852500D03*
X46002500Y-63852500D03*
%TD*%
D15*
%TO.C,C53*%
X57397500Y-55600000D03*
X58532500Y-55600000D03*
%TD*%
D23*
%TO.C,R58*%
X46002500Y-62352500D03*
X47197500Y-62352500D03*
%TD*%
D15*
%TO.C,C2*%
X80063000Y-41240500D03*
X81198000Y-41240500D03*
%TD*%
D24*
%TO.C,R15*%
X66802000Y-68415500D03*
X66802000Y-67220500D03*
%TD*%
D15*
%TO.C,C26*%
X78547000Y-56666000D03*
X79682000Y-56666000D03*
%TD*%
D19*
%TO.C,C4*%
X80192500Y-36507000D03*
X80192500Y-37642000D03*
%TD*%
D24*
%TO.C,R4*%
X88750000Y-56000000D03*
X88750000Y-54805000D03*
%TD*%
D23*
%TO.C,R38*%
X72554500Y-49975000D03*
X73749500Y-49975000D03*
%TD*%
D15*
%TO.C,C57*%
X60265000Y-54500000D03*
X61400000Y-54500000D03*
%TD*%
D19*
%TO.C,C14*%
X70100000Y-62530000D03*
X70100000Y-63665000D03*
%TD*%
D15*
%TO.C,C67*%
X55835000Y-62400000D03*
X56970000Y-62400000D03*
%TD*%
D16*
%TO.C,C51*%
X58715000Y-51417500D03*
X58715000Y-50282500D03*
%TD*%
D23*
%TO.C,R31*%
X75767000Y-63754000D03*
X76962000Y-63754000D03*
%TD*%
D19*
%TO.C,C21*%
X69644000Y-71330000D03*
X69644000Y-72465000D03*
%TD*%
D15*
%TO.C,C64*%
X53186250Y-69350000D03*
X54321250Y-69350000D03*
%TD*%
D24*
%TO.C,R75*%
X81200000Y-50697500D03*
X81200000Y-49502500D03*
%TD*%
D20*
%TO.C,R64*%
X54250000Y-62400000D03*
X53055000Y-62400000D03*
%TD*%
D19*
%TO.C,C48*%
X63802500Y-66832500D03*
X63802500Y-67967500D03*
%TD*%
D16*
%TO.C,C46*%
X61467500Y-50007500D03*
X61467500Y-48872500D03*
%TD*%
D23*
%TO.C,R45*%
X60237500Y-51500000D03*
X61432500Y-51500000D03*
%TD*%
D18*
%TO.C,C63*%
X50167500Y-62352500D03*
X49032500Y-62352500D03*
%TD*%
D14*
%TO.C,J3*%
X57550000Y-77950000D03*
%TD*%
%TO.C,J16*%
X79000000Y-32000000D03*
%TD*%
D19*
%TO.C,C22*%
X76430000Y-67885500D03*
X76430000Y-69020500D03*
%TD*%
D17*
%TO.C,R61*%
X55786250Y-66555000D03*
X55786250Y-67750000D03*
%TD*%
D23*
%TO.C,R62*%
X47600000Y-59497500D03*
X48795000Y-59497500D03*
%TD*%
%TO.C,R39*%
X75348500Y-45959500D03*
X76543500Y-45959500D03*
%TD*%
D20*
%TO.C,R49*%
X62147500Y-69600000D03*
X60952500Y-69600000D03*
%TD*%
D24*
%TO.C,R69*%
X52786250Y-67765000D03*
X52786250Y-66570000D03*
%TD*%
D17*
%TO.C,R6*%
X67600000Y-62500000D03*
X67600000Y-63695000D03*
%TD*%
D16*
%TO.C,C12*%
X67352500Y-60867500D03*
X67352500Y-59732500D03*
%TD*%
D18*
%TO.C,C20*%
X68119500Y-65818000D03*
X66984500Y-65818000D03*
%TD*%
D19*
%TO.C,C15*%
X72750000Y-66234500D03*
X72750000Y-67369500D03*
%TD*%
D20*
%TO.C,R66*%
X54250000Y-59500000D03*
X53055000Y-59500000D03*
%TD*%
%TO.C,R63*%
X58316250Y-66402500D03*
X57121250Y-66402500D03*
%TD*%
D14*
%TO.C,J7*%
X58801000Y-29845000D03*
%TD*%
D18*
%TO.C,C72*%
X51403750Y-68100000D03*
X50268750Y-68100000D03*
%TD*%
D20*
%TO.C,R35*%
X73648000Y-48615500D03*
X72453000Y-48615500D03*
%TD*%
D15*
%TO.C,C29*%
X79950500Y-59537500D03*
X81085500Y-59537500D03*
%TD*%
D24*
%TO.C,R44*%
X64452500Y-62797500D03*
X64452500Y-61602500D03*
%TD*%
%TO.C,R26*%
X78518000Y-60897000D03*
X78518000Y-59702000D03*
%TD*%
D14*
%TO.C,J14*%
X72705627Y-29840795D03*
%TD*%
D19*
%TO.C,C49*%
X64452500Y-64232500D03*
X64452500Y-65367500D03*
%TD*%
D15*
%TO.C,C68*%
X50268750Y-69600000D03*
X51403750Y-69600000D03*
%TD*%
D24*
%TO.C,R19*%
X76454000Y-66256500D03*
X76454000Y-65061500D03*
%TD*%
D17*
%TO.C,R32*%
X69342000Y-50187500D03*
X69342000Y-51382500D03*
%TD*%
D16*
%TO.C,C1*%
X78800000Y-46535000D03*
X78800000Y-45400000D03*
%TD*%
D20*
%TO.C,R50*%
X61430000Y-53000000D03*
X60235000Y-53000000D03*
%TD*%
D15*
%TO.C,C30*%
X78621000Y-62254000D03*
X79756000Y-62254000D03*
%TD*%
D19*
%TO.C,C54*%
X60550000Y-58832500D03*
X60550000Y-59967500D03*
%TD*%
D24*
%TO.C,R40*%
X76708000Y-51231000D03*
X76708000Y-50036000D03*
%TD*%
D17*
%TO.C,R21*%
X74954000Y-65061500D03*
X74954000Y-66256500D03*
%TD*%
D24*
%TO.C,R41*%
X62982500Y-54197500D03*
X62982500Y-53002500D03*
%TD*%
D20*
%TO.C,R59*%
X57033750Y-69350000D03*
X55838750Y-69350000D03*
%TD*%
D17*
%TO.C,R24*%
X81114500Y-56818500D03*
X81114500Y-58013500D03*
%TD*%
D15*
%TO.C,C35*%
X69524500Y-52697500D03*
X70659500Y-52697500D03*
%TD*%
D18*
%TO.C,C47*%
X60405165Y-57400000D03*
X59270165Y-57400000D03*
%TD*%
D23*
%TO.C,R55*%
X55838750Y-70850000D03*
X57033750Y-70850000D03*
%TD*%
D20*
%TO.C,R5*%
X81228000Y-43740500D03*
X80033000Y-43740500D03*
%TD*%
D18*
%TO.C,C41*%
X73660000Y-51499000D03*
X72525000Y-51499000D03*
%TD*%
D24*
%TO.C,R42*%
X63100000Y-62797500D03*
X63100000Y-61602500D03*
%TD*%
D16*
%TO.C,C9*%
X68100000Y-58417500D03*
X68100000Y-57282500D03*
%TD*%
D14*
%TO.C,J13*%
X74000000Y-32000000D03*
%TD*%
D23*
%TO.C,R71*%
X47438750Y-68100000D03*
X48633750Y-68100000D03*
%TD*%
D19*
%TO.C,C40*%
X76708000Y-47316000D03*
X76708000Y-48451000D03*
%TD*%
D23*
%TO.C,R1*%
X86033000Y-46240500D03*
X87228000Y-46240500D03*
%TD*%
D19*
%TO.C,C19*%
X66802000Y-70000500D03*
X66802000Y-71135500D03*
%TD*%
D14*
%TO.C,J8*%
X60071000Y-32004000D03*
%TD*%
D18*
%TO.C,C32*%
X79756000Y-63754000D03*
X78621000Y-63754000D03*
%TD*%
D16*
%TO.C,C62*%
X58436250Y-70600000D03*
X58436250Y-69465000D03*
%TD*%
%TO.C,C37*%
X72288500Y-47183000D03*
X72288500Y-46048000D03*
%TD*%
D20*
%TO.C,R68*%
X57000000Y-63900000D03*
X55805000Y-63900000D03*
%TD*%
D24*
%TO.C,R74*%
X79800000Y-50697500D03*
X79800000Y-49502500D03*
%TD*%
D14*
%TO.C,J10*%
X67729627Y-29840795D03*
%TD*%
D15*
%TO.C,C6*%
X87432500Y-53402500D03*
X88567500Y-53402500D03*
%TD*%
%TO.C,C44*%
X63165000Y-55600000D03*
X64300000Y-55600000D03*
%TD*%
D16*
%TO.C,C31*%
X74422000Y-63500000D03*
X74422000Y-62365000D03*
%TD*%
D20*
%TO.C,R14*%
X68149500Y-72568000D03*
X66954500Y-72568000D03*
%TD*%
D17*
%TO.C,R56*%
X51600000Y-62505000D03*
X51600000Y-63700000D03*
%TD*%
D20*
%TO.C,R47*%
X65147500Y-69600000D03*
X63952500Y-69600000D03*
%TD*%
D18*
%TO.C,C77*%
X81198000Y-39990500D03*
X80063000Y-39990500D03*
%TD*%
D19*
%TO.C,C13*%
X70352500Y-59765000D03*
X70352500Y-60900000D03*
%TD*%
%TO.C,C10*%
X69600000Y-57282500D03*
X69600000Y-58417500D03*
%TD*%
%TO.C,C45*%
X62982500Y-50282500D03*
X62982500Y-51417500D03*
%TD*%
D14*
%TO.C,J6*%
X51800000Y-72600000D03*
%TD*%
D23*
%TO.C,R33*%
X69494500Y-45947500D03*
X70689500Y-45947500D03*
%TD*%
D16*
%TO.C,C24*%
X74930000Y-69020500D03*
X74930000Y-67885500D03*
%TD*%
D17*
%TO.C,R72*%
X61976000Y-33946500D03*
X61976000Y-35141500D03*
%TD*%
D24*
%TO.C,R20*%
X77851000Y-67526500D03*
X77851000Y-66331500D03*
%TD*%
D16*
%TO.C,C34*%
X69342000Y-48505000D03*
X69342000Y-47370000D03*
%TD*%
D24*
%TO.C,R30*%
X81280000Y-63589500D03*
X81280000Y-62394500D03*
%TD*%
D17*
%TO.C,R2*%
X87630500Y-38143000D03*
X87630500Y-39338000D03*
%TD*%
D14*
%TO.C,J12*%
X70205627Y-29840795D03*
%TD*%
D23*
%TO.C,R25*%
X75767000Y-58166000D03*
X76962000Y-58166000D03*
%TD*%
D24*
%TO.C,R7*%
X68850000Y-63695000D03*
X68850000Y-62500000D03*
%TD*%
D14*
%TO.C,J20*%
X62992000Y-32258000D03*
%TD*%
D17*
%TO.C,R73*%
X60452000Y-33946500D03*
X60452000Y-35141500D03*
%TD*%
%TO.C,R36*%
X73914000Y-46018000D03*
X73914000Y-47213000D03*
%TD*%
D18*
%TO.C,C28*%
X79682000Y-58166000D03*
X78547000Y-58166000D03*
%TD*%
D20*
%TO.C,R22*%
X73622500Y-71501000D03*
X72427500Y-71501000D03*
%TD*%
D24*
%TO.C,R43*%
X65302500Y-67997500D03*
X65302500Y-66802500D03*
%TD*%
D20*
%TO.C,R67*%
X48698750Y-66400000D03*
X47503750Y-66400000D03*
%TD*%
D18*
%TO.C,C75*%
X81167500Y-52100000D03*
X80032500Y-52100000D03*
%TD*%
D15*
%TO.C,C59*%
X49032500Y-63852500D03*
X50167500Y-63852500D03*
%TD*%
D24*
%TO.C,R17*%
X71144000Y-72495000D03*
X71144000Y-71300000D03*
%TD*%
D19*
%TO.C,C78*%
X63500000Y-33976500D03*
X63500000Y-35111500D03*
%TD*%
D18*
%TO.C,C25*%
X73592500Y-70231000D03*
X72457500Y-70231000D03*
%TD*%
D17*
%TO.C,R46*%
X60085000Y-48902500D03*
X60085000Y-50097500D03*
%TD*%
D19*
%TO.C,C79*%
X65083500Y-33976500D03*
X65083500Y-35111500D03*
%TD*%
D16*
%TO.C,C58*%
X59150000Y-59967500D03*
X59150000Y-58832500D03*
%TD*%
D14*
%TO.C,J15*%
X75205627Y-29840795D03*
%TD*%
D24*
%TO.C,R52*%
X57215000Y-54197500D03*
X57215000Y-53002500D03*
%TD*%
D14*
%TO.C,J21*%
X64262000Y-29840795D03*
%TD*%
D16*
%TO.C,C38*%
X75184000Y-48451000D03*
X75184000Y-47316000D03*
%TD*%
D24*
%TO.C,R34*%
X70866000Y-51382500D03*
X70866000Y-50187500D03*
%TD*%
D14*
%TO.C,J9*%
X69000000Y-32000000D03*
%TD*%
D23*
%TO.C,R51*%
X57367500Y-48850000D03*
X58562500Y-48850000D03*
%TD*%
D17*
%TO.C,R16*%
X68302000Y-67220500D03*
X68302000Y-68415500D03*
%TD*%
D25*
%TO.C,SW2*%
X64750000Y-39700000D03*
X60650000Y-39700000D03*
X64750000Y-38100000D03*
X60650000Y-38100000D03*
%TD*%
D17*
%TO.C,R29*%
X76962000Y-59600500D03*
X76962000Y-60795500D03*
%TD*%
D15*
%TO.C,C69*%
X52995000Y-63900000D03*
X54130000Y-63900000D03*
%TD*%
D16*
%TO.C,C70*%
X46036250Y-67735000D03*
X46036250Y-66600000D03*
%TD*%
%TO.C,C52*%
X61652500Y-65335000D03*
X61652500Y-64200000D03*
%TD*%
%TO.C,C33*%
X75438000Y-60765500D03*
X75438000Y-59630500D03*
%TD*%
D19*
%TO.C,C27*%
X74364500Y-56848500D03*
X74364500Y-57983500D03*
%TD*%
D16*
%TO.C,C76*%
X80200000Y-54967500D03*
X80200000Y-53832500D03*
%TD*%
D18*
%TO.C,C60*%
X54321250Y-70850000D03*
X53186250Y-70850000D03*
%TD*%
D23*
%TO.C,R13*%
X63135000Y-48850000D03*
X64330000Y-48850000D03*
%TD*%
%TO.C,R8*%
X66752500Y-55800000D03*
X67947500Y-55800000D03*
%TD*%
D17*
%TO.C,R37*%
X75184000Y-50036000D03*
X75184000Y-51231000D03*
%TD*%
D14*
%TO.C,J17*%
X76500000Y-32000000D03*
%TD*%
D19*
%TO.C,C36*%
X70866000Y-47370000D03*
X70866000Y-48505000D03*
%TD*%
%TO.C,C11*%
X68850000Y-59782500D03*
X68850000Y-60917500D03*
%TD*%
D20*
%TO.C,R23*%
X76962000Y-56666000D03*
X75767000Y-56666000D03*
%TD*%
D17*
%TO.C,R10*%
X71100000Y-57252500D03*
X71100000Y-58447500D03*
%TD*%
D14*
%TO.C,J4*%
X55800000Y-76200000D03*
%TD*%
D16*
%TO.C,C61*%
X46000000Y-60867500D03*
X46000000Y-59732500D03*
%TD*%
D18*
%TO.C,C65*%
X48762500Y-61067500D03*
X47627500Y-61067500D03*
%TD*%
D20*
%TO.C,R18*%
X70967500Y-70044500D03*
X69772500Y-70044500D03*
%TD*%
D24*
%TO.C,R57*%
X54236250Y-67797500D03*
X54236250Y-66602500D03*
%TD*%
%TO.C,R53*%
X60802500Y-67997500D03*
X60802500Y-66802500D03*
%TD*%
D18*
%TO.C,C71*%
X56970000Y-60900000D03*
X55835000Y-60900000D03*
%TD*%
D16*
%TO.C,C7*%
X82800000Y-52129500D03*
X82800000Y-50994500D03*
%TD*%
D17*
%TO.C,R11*%
X66600000Y-57252500D03*
X66600000Y-58447500D03*
%TD*%
D20*
%TO.C,R3*%
X86478000Y-39240500D03*
X85283000Y-39240500D03*
%TD*%
D19*
%TO.C,C55*%
X57215000Y-50282500D03*
X57215000Y-51417500D03*
%TD*%
D23*
%TO.C,R9*%
X69752500Y-55800000D03*
X70947500Y-55800000D03*
%TD*%
D20*
%TO.C,R65*%
X48633750Y-69600000D03*
X47438750Y-69600000D03*
%TD*%
D15*
%TO.C,C39*%
X75378500Y-52633500D03*
X76513500Y-52633500D03*
%TD*%
D26*
%TO.C,D1*%
X87380500Y-43203000D03*
X87380500Y-44778000D03*
%TD*%
D23*
%TO.C,R70*%
X53055000Y-60900000D03*
X54250000Y-60900000D03*
%TD*%
D14*
%TO.C,J19*%
X65532000Y-32258000D03*
%TD*%
D20*
%TO.C,R27*%
X81115500Y-60960000D03*
X79920500Y-60960000D03*
%TD*%
D16*
%TO.C,C17*%
X71347500Y-66367500D03*
X71347500Y-65232500D03*
%TD*%
D18*
%TO.C,C73*%
X56930000Y-59500000D03*
X55795000Y-59500000D03*
%TD*%
D14*
%TO.C,J18*%
X77705627Y-29840795D03*
%TD*%
D15*
%TO.C,C3*%
X80063000Y-42490500D03*
X81198000Y-42490500D03*
%TD*%
D17*
%TO.C,R12*%
X64482500Y-53002500D03*
X64482500Y-54197500D03*
%TD*%
D16*
%TO.C,C50*%
X63052500Y-65367500D03*
X63052500Y-64232500D03*
%TD*%
D17*
%TO.C,R60*%
X50195000Y-59700000D03*
X50195000Y-60895000D03*
%TD*%
D19*
%TO.C,C43*%
X61850000Y-61632500D03*
X61850000Y-62767500D03*
%TD*%
D15*
%TO.C,C8*%
X82832500Y-49784000D03*
X83967500Y-49784000D03*
%TD*%
M02*
