%TF.GenerationSoftware,KiCad,Pcbnew,7.0.1*%
%TF.CreationDate,2023-04-30T22:37:30+01:00*%
%TF.ProjectId,left_main,6c656674-5f6d-4616-996e-2e6b69636164,rev?*%
%TF.SameCoordinates,Original*%
%TF.FileFunction,Copper,L3,Inr*%
%TF.FilePolarity,Positive*%
%FSLAX46Y46*%
G04 Gerber Fmt 4.6, Leading zero omitted, Abs format (unit mm)*
G04 Created by KiCad (PCBNEW 7.0.1) date 2023-04-30 22:37:30*
%MOMM*%
%LPD*%
G01*
G04 APERTURE LIST*
%TA.AperFunction,ViaPad*%
%ADD10C,0.450000*%
%TD*%
G04 APERTURE END LIST*
D10*
%TO.N,+3V3*%
X72000000Y-77400000D03*
X78000000Y-46535000D03*
X81200000Y-52800000D03*
X76500000Y-32000000D03*
X65786000Y-33782000D03*
%TO.N,GND*%
X85563914Y-41079448D03*
X56359500Y-55000000D03*
X85547496Y-44527343D03*
X78000000Y-45400000D03*
X57100000Y-45600000D03*
X57836250Y-69400000D03*
X66862944Y-54912444D03*
X88126001Y-49771300D03*
X81367000Y-36507000D03*
X63000000Y-76600000D03*
X73660000Y-61468000D03*
X63200000Y-74800000D03*
X80200000Y-52800000D03*
X80587500Y-62230000D03*
X75110000Y-62738000D03*
X59815500Y-58420000D03*
X58600000Y-55000000D03*
X66294000Y-64516000D03*
X71200000Y-77400000D03*
X53436250Y-66600000D03*
X77705627Y-29840795D03*
X74930000Y-57912000D03*
X70612000Y-45212000D03*
X54962500Y-63900000D03*
X69900000Y-55000000D03*
X63000000Y-78200000D03*
X73000000Y-76600000D03*
X75692000Y-44958000D03*
X87750000Y-54902500D03*
X66600000Y-59500000D03*
X84328000Y-50800000D03*
X55800000Y-76200000D03*
X85630500Y-42740500D03*
X78486000Y-65913000D03*
X81930926Y-42490500D03*
X61000000Y-76600000D03*
X51850000Y-72650000D03*
X61000000Y-78200000D03*
X64262000Y-60500000D03*
X46636250Y-66600000D03*
X80518000Y-57912000D03*
X51000000Y-63700000D03*
X82124228Y-41046611D03*
X75000000Y-78200000D03*
X70358000Y-52070000D03*
X82132438Y-44527343D03*
X61214000Y-33274000D03*
X58600000Y-49490500D03*
X46600000Y-59700000D03*
X57658000Y-63246000D03*
X71100000Y-42900000D03*
X67564000Y-71882000D03*
X64950500Y-48800000D03*
X75438000Y-53594000D03*
X64950500Y-54900000D03*
X73000000Y-78200000D03*
X75000000Y-76600000D03*
X62738000Y-38100000D03*
X66657894Y-60442106D03*
X62738000Y-35052000D03*
X72129131Y-66802000D03*
X67564000Y-66548000D03*
%TO.N,Net-(U2-VDDCORE)*%
X79380500Y-42490500D03*
%TO.N,Net-(U2-PA00{slash}EINT0{slash}SERCOM1.0)*%
X80918500Y-38090500D03*
%TO.N,Net-(U2-PA01{slash}EINT1{slash}SERCOM1.1)*%
X81934500Y-38090500D03*
%TO.N,+BATT*%
X88250000Y-52000000D03*
%TO.N,VBUS*%
X72675900Y-75469900D03*
X83400000Y-52000000D03*
%TO.N,VDD*%
X82100000Y-49300000D03*
X79380500Y-41615500D03*
X83598000Y-38590500D03*
X88392000Y-42926000D03*
X80730500Y-46190500D03*
%TO.N,Net-(IC1-MICL)*%
X68100000Y-59100000D03*
%TO.N,Net-(IC1-MICR)*%
X69600000Y-59100000D03*
%TO.N,Net-(IC1-MICS)*%
X68850000Y-58674000D03*
%TO.N,Net-(IC1-MICACL)*%
X67355000Y-58674000D03*
%TO.N,Net-(IC1-MICACR)*%
X70358000Y-58674000D03*
%TO.N,/AOHPR*%
X64000000Y-43000000D03*
%TO.N,+1V8*%
X73025000Y-65659000D03*
X59600000Y-60500000D03*
X80200000Y-56000000D03*
%TO.N,/HP_driver_L/vneg*%
X60600000Y-58000000D03*
X70358000Y-66802000D03*
%TO.N,Net-(IC1-CPN)*%
X70806050Y-66000000D03*
%TO.N,Net-(IC1-CPP)*%
X72136000Y-65786000D03*
%TO.N,Net-(IC1-QMICL)*%
X66802000Y-69088000D03*
%TO.N,Net-(IC1-IOP1L)*%
X71120000Y-70612000D03*
%TO.N,Net-(IC1-MIXR)*%
X69342000Y-65913000D03*
X73058750Y-70832250D03*
X73660000Y-62992000D03*
%TO.N,/HP_driver_R/QOP1R*%
X73977500Y-58991500D03*
%TO.N,/HP_driver_R/IOP2R*%
X77724000Y-61468000D03*
%TO.N,/HP_driver_R/QOP2R*%
X74676000Y-60452000D03*
%TO.N,Net-(IC1-QMICR)*%
X72781301Y-58035594D03*
%TO.N,/HP_driver_R/IOP1R*%
X72898000Y-58928000D03*
%TO.N,Net-(IC2-QMICL)*%
X63754000Y-59250000D03*
%TO.N,/AOHPL*%
X63000000Y-43000000D03*
%TO.N,Net-(IC2-MICL)*%
X63802500Y-66082500D03*
%TO.N,Net-(IC2-MICACL)*%
X64546428Y-66548000D03*
%TO.N,Net-(IC2-MICS)*%
X63052500Y-66548000D03*
%TO.N,Net-(IC2-IOP1L)*%
X63100000Y-58674000D03*
%TO.N,Net-(IC2-MICACR)*%
X61550000Y-66548000D03*
%TO.N,Net-(IC2-CPN)*%
X61098041Y-59212687D03*
%TO.N,Net-(IC2-CPP)*%
X59996884Y-59517929D03*
%TO.N,Net-(IC2-MICR)*%
X62302500Y-66082500D03*
%TO.N,Net-(IC2-MIXR)*%
X58420000Y-62386405D03*
X62484000Y-59250000D03*
%TO.N,/HP_driver_L/QOP1R*%
X49501250Y-66400000D03*
%TO.N,Net-(IC2-QMICR)*%
X55036250Y-70850000D03*
%TO.N,/HP_driver_L/IOP2R*%
X49400000Y-59497500D03*
%TO.N,/HP_driver_L/IOP1R*%
X49436250Y-69600000D03*
X56436250Y-66402500D03*
%TO.N,/HP_driver_L/QOP2R*%
X55000000Y-59500000D03*
%TO.N,/AREF*%
X82630500Y-38590500D03*
%TO.N,Net-(U8-OUT)*%
X64262000Y-33020000D03*
%TO.N,Net-(IC1-LINR)*%
X66548000Y-63500000D03*
%TO.N,Net-(IC1-QLINR)*%
X66294000Y-62500000D03*
%TO.N,/I2C_SDA*%
X66228000Y-61468000D03*
X84063188Y-48006000D03*
X65278000Y-60000000D03*
X79100000Y-50600000D03*
%TO.N,/I2C_SCL*%
X78486000Y-50038000D03*
X83130500Y-46990500D03*
%TO.N,/HP_R_-*%
X73152000Y-62230000D03*
%TO.N,/HP_R_+*%
X74676000Y-61468000D03*
%TO.N,/audio_in_R*%
X73250510Y-64106510D03*
%TO.N,Net-(IC2-LINR)*%
X65278000Y-61214000D03*
%TO.N,Net-(IC2-QLINR)*%
X65278000Y-63246000D03*
%TO.N,/HP_L_-*%
X55900000Y-58500000D03*
%TO.N,/HP_L_+*%
X55118000Y-58054974D03*
%TO.N,/audio_in_L*%
X58420000Y-60960000D03*
X64000000Y-74800000D03*
X59700000Y-67200000D03*
%TO.N,/D2*%
X88392000Y-44196000D03*
X68834000Y-75021000D03*
X75438000Y-75438000D03*
%TO.N,/ANC_PBO*%
X84130500Y-46990500D03*
%TO.N,/ANC_OFF*%
X85090000Y-48006000D03*
%TO.N,/ANC_ON*%
X85090000Y-46990000D03*
%TO.N,/D10*%
X86360000Y-48006000D03*
%TO.N,/USB_D+*%
X81948000Y-48260000D03*
%TO.N,/USB_D-*%
X82748000Y-48260000D03*
%TO.N,/D11*%
X74168000Y-75438000D03*
X65400000Y-75000000D03*
X87630000Y-47498000D03*
%TO.N,/D3*%
X75205627Y-29840795D03*
%TO.N,/A4*%
X64262000Y-29840795D03*
%TO.N,/D13*%
X86106000Y-46990000D03*
%TO.N,/BAT_V_SENSE*%
X87108140Y-38852500D03*
%TO.N,Net-(U3-PROG)*%
X87750000Y-55902500D03*
%TO.N,/~{RESET}*%
X79380500Y-43740500D03*
X62738000Y-39700000D03*
%TO.N,/BM83_UART_RX*%
X80518000Y-47498000D03*
X88392000Y-41148000D03*
%TO.N,/BM83_UART_TX*%
X88646000Y-41910000D03*
X79248000Y-48006000D03*
%TO.N,/BM83_PROG_EN*%
X86360000Y-37846000D03*
X77978000Y-47960000D03*
%TO.N,/A2*%
X61722000Y-29840795D03*
%TO.N,/A3*%
X85130500Y-38490500D03*
X83966500Y-36820500D03*
%TO.N,/D4*%
X77978000Y-48768000D03*
X88138000Y-39990500D03*
%TO.N,/3V3_EN*%
X80010000Y-48514000D03*
X88138000Y-45466000D03*
%TD*%
%TA.AperFunction,Conductor*%
%TO.N,+3V3*%
G36*
X78387149Y-28759217D02*
G01*
X78424331Y-28780570D01*
X89210816Y-37775266D01*
X89246258Y-37823767D01*
X89254746Y-37883235D01*
X89234288Y-37939714D01*
X89189684Y-37979950D01*
X89131402Y-37994500D01*
X87472448Y-37994500D01*
X87407501Y-38002892D01*
X87346520Y-38018922D01*
X87285834Y-38043554D01*
X87233408Y-38082800D01*
X87194559Y-38120555D01*
X87139663Y-38151556D01*
X87076617Y-38151556D01*
X87021721Y-38120555D01*
X86982871Y-38082800D01*
X86930445Y-38043553D01*
X86908428Y-38034617D01*
X86863707Y-38003565D01*
X86836598Y-37956350D01*
X86832327Y-37902077D01*
X86840390Y-37846000D01*
X86820931Y-37710658D01*
X86799176Y-37663022D01*
X86764130Y-37586282D01*
X86674587Y-37482943D01*
X86559562Y-37409022D01*
X86428367Y-37370500D01*
X86291633Y-37370500D01*
X86160437Y-37409022D01*
X86045412Y-37482943D01*
X85955869Y-37586282D01*
X85899068Y-37710657D01*
X85879609Y-37846002D01*
X85880595Y-37852856D01*
X85870651Y-37922013D01*
X85824896Y-37974816D01*
X85757857Y-37994500D01*
X85719415Y-37994500D01*
X85647430Y-38004849D01*
X85580391Y-38024534D01*
X85514242Y-38054745D01*
X85506771Y-38061219D01*
X85460504Y-38086481D01*
X85407924Y-38090241D01*
X85358533Y-38071819D01*
X85330062Y-38053522D01*
X85198867Y-38015000D01*
X85062133Y-38015000D01*
X84930937Y-38053522D01*
X84902465Y-38071820D01*
X84853073Y-38090241D01*
X84800493Y-38086480D01*
X84754226Y-38061217D01*
X84746757Y-38054745D01*
X84702685Y-38034617D01*
X84680608Y-38024534D01*
X84613569Y-38004849D01*
X84541585Y-37994500D01*
X83190686Y-37994500D01*
X83127497Y-38002437D01*
X83068073Y-38017604D01*
X83008809Y-38040921D01*
X82957153Y-38078170D01*
X82916833Y-38115710D01*
X82860855Y-38145631D01*
X82797404Y-38143932D01*
X82698868Y-38115000D01*
X82698867Y-38115000D01*
X82562133Y-38115000D01*
X82562131Y-38115000D01*
X82561535Y-38115175D01*
X82491667Y-38115172D01*
X82432891Y-38077397D01*
X82403868Y-38013842D01*
X82403572Y-38011785D01*
X82396797Y-37964657D01*
X82395431Y-37955157D01*
X82338630Y-37830782D01*
X82259160Y-37739068D01*
X82249089Y-37727445D01*
X82249088Y-37727444D01*
X82249087Y-37727443D01*
X82134062Y-37653522D01*
X82002867Y-37615000D01*
X81866133Y-37615000D01*
X81734937Y-37653522D01*
X81619910Y-37727444D01*
X81520213Y-37842503D01*
X81478012Y-37874095D01*
X81426500Y-37885301D01*
X81374988Y-37874095D01*
X81332787Y-37842503D01*
X81233089Y-37727444D01*
X81118062Y-37653522D01*
X80986867Y-37615000D01*
X80850133Y-37615000D01*
X80718937Y-37653522D01*
X80603912Y-37727443D01*
X80514369Y-37830782D01*
X80472706Y-37922012D01*
X80426951Y-37974816D01*
X80359912Y-37994500D01*
X80124000Y-37994500D01*
X80057871Y-38003206D01*
X79995873Y-38019818D01*
X79934248Y-38045344D01*
X79881331Y-38085948D01*
X79835948Y-38131331D01*
X79795344Y-38184248D01*
X79769818Y-38245873D01*
X79753206Y-38307871D01*
X79744500Y-38374000D01*
X79744500Y-41061161D01*
X79731384Y-41116665D01*
X79694810Y-41160428D01*
X79642517Y-41183191D01*
X79585565Y-41180138D01*
X79448867Y-41140000D01*
X79312133Y-41140000D01*
X79180937Y-41178522D01*
X79065912Y-41252443D01*
X78976369Y-41355782D01*
X78919568Y-41480157D01*
X78900110Y-41615499D01*
X78919568Y-41750842D01*
X78976369Y-41875217D01*
X79060056Y-41971798D01*
X79086847Y-42023766D01*
X79086847Y-42082234D01*
X79060056Y-42134202D01*
X78976369Y-42230782D01*
X78919568Y-42355157D01*
X78900110Y-42490500D01*
X78919568Y-42625842D01*
X78976369Y-42750217D01*
X79065912Y-42853556D01*
X79178424Y-42925862D01*
X79180939Y-42927478D01*
X79312133Y-42966000D01*
X79448867Y-42966000D01*
X79585565Y-42925862D01*
X79642517Y-42922809D01*
X79694810Y-42945572D01*
X79731384Y-42989335D01*
X79744500Y-43044839D01*
X79744500Y-43186161D01*
X79731384Y-43241665D01*
X79694810Y-43285428D01*
X79642517Y-43308191D01*
X79585565Y-43305138D01*
X79448867Y-43265000D01*
X79312133Y-43265000D01*
X79180937Y-43303522D01*
X79065912Y-43377443D01*
X78976369Y-43480782D01*
X78919568Y-43605157D01*
X78900110Y-43740499D01*
X78919568Y-43875842D01*
X78976369Y-44000217D01*
X79065912Y-44103556D01*
X79178424Y-44175862D01*
X79180939Y-44177478D01*
X79312133Y-44216000D01*
X79448867Y-44216000D01*
X79585565Y-44175862D01*
X79642517Y-44172809D01*
X79694810Y-44195572D01*
X79731384Y-44239335D01*
X79744500Y-44294839D01*
X79744500Y-47038584D01*
X79753602Y-47106170D01*
X79770962Y-47169451D01*
X79797622Y-47232223D01*
X79797624Y-47232227D01*
X79839945Y-47285714D01*
X79887160Y-47331273D01*
X79942124Y-47371659D01*
X79957381Y-47377505D01*
X80003260Y-47408258D01*
X80031233Y-47455883D01*
X80033262Y-47480613D01*
X80035073Y-47480353D01*
X80057068Y-47633342D01*
X80119885Y-47770888D01*
X80135951Y-47800310D01*
X80139712Y-47852892D01*
X80121289Y-47902285D01*
X80097149Y-47939849D01*
X80094333Y-47949437D01*
X80069072Y-47995702D01*
X80026870Y-48027294D01*
X79975358Y-48038500D01*
X79941633Y-48038500D01*
X79878818Y-48056944D01*
X79826235Y-48060705D01*
X79776843Y-48042282D01*
X79739567Y-48005006D01*
X79721145Y-47955615D01*
X79708931Y-47870658D01*
X79700817Y-47852892D01*
X79652130Y-47746282D01*
X79562587Y-47642943D01*
X79447562Y-47569022D01*
X79316367Y-47530500D01*
X79179633Y-47530500D01*
X79048437Y-47569022D01*
X78933412Y-47642943D01*
X78843869Y-47746282D01*
X78787068Y-47870657D01*
X78767610Y-48006000D01*
X78787068Y-48141342D01*
X78843869Y-48265717D01*
X78843870Y-48265718D01*
X78928183Y-48363022D01*
X78933412Y-48369056D01*
X79039048Y-48436943D01*
X79048439Y-48442978D01*
X79179633Y-48481500D01*
X79316365Y-48481500D01*
X79316367Y-48481500D01*
X79379186Y-48463054D01*
X79431762Y-48459294D01*
X79481155Y-48477716D01*
X79518431Y-48514992D01*
X79536854Y-48564385D01*
X79549068Y-48649342D01*
X79605869Y-48773717D01*
X79695412Y-48877056D01*
X79704377Y-48882818D01*
X79740028Y-48917630D01*
X79759096Y-48963666D01*
X79758503Y-49013490D01*
X79750340Y-49051014D01*
X79744500Y-49105340D01*
X79744500Y-49526000D01*
X79753206Y-49592128D01*
X79769818Y-49654126D01*
X79795344Y-49715751D01*
X79835948Y-49768668D01*
X79881331Y-49814051D01*
X79934248Y-49854655D01*
X79934249Y-49854655D01*
X79934250Y-49854656D01*
X79995871Y-49880181D01*
X80057871Y-49896794D01*
X80124000Y-49905500D01*
X87584859Y-49905500D01*
X87630945Y-49914382D01*
X87670429Y-49939757D01*
X87697653Y-49977989D01*
X87721869Y-50031016D01*
X87811413Y-50134356D01*
X87926438Y-50208277D01*
X87926440Y-50208278D01*
X88057634Y-50246800D01*
X88194368Y-50246800D01*
X88325562Y-50208278D01*
X88440590Y-50134355D01*
X88530131Y-50031018D01*
X88530824Y-50029500D01*
X88554349Y-49977989D01*
X88581573Y-49939757D01*
X88621057Y-49914382D01*
X88667143Y-49905500D01*
X89650332Y-49905500D01*
X89712332Y-49922113D01*
X89757719Y-49967500D01*
X89774332Y-50029500D01*
X89774332Y-66353968D01*
X89766854Y-66396379D01*
X89745322Y-66433673D01*
X89160574Y-67130549D01*
X84131988Y-73123384D01*
X84126362Y-73129643D01*
X83965910Y-73296439D01*
X83953455Y-73307742D01*
X83775208Y-73448680D01*
X83761336Y-73458194D01*
X83565657Y-73573710D01*
X83550627Y-73581258D01*
X83341117Y-73669231D01*
X83325203Y-73674676D01*
X83105713Y-73733487D01*
X83089208Y-73736728D01*
X82863784Y-73765293D01*
X82846993Y-73766271D01*
X82619775Y-73764066D01*
X82603006Y-73762763D01*
X82378171Y-73729829D01*
X82361732Y-73726268D01*
X82139080Y-73661954D01*
X82131080Y-73659346D01*
X82077300Y-73639771D01*
X82077297Y-73639771D01*
X81895796Y-73573710D01*
X80552815Y-73084904D01*
X79565596Y-72725585D01*
X79565386Y-72725457D01*
X79374076Y-72655904D01*
X79077244Y-72584479D01*
X78774262Y-72546961D01*
X78468987Y-72543827D01*
X78165294Y-72575116D01*
X77867069Y-72640428D01*
X77637472Y-72718696D01*
X77578099Y-72738936D01*
X77474007Y-72788127D01*
X77302064Y-72869383D01*
X77042511Y-73030094D01*
X76802704Y-73219043D01*
X76585720Y-73433814D01*
X76394325Y-73671665D01*
X76230949Y-73929577D01*
X76097687Y-74204238D01*
X75996220Y-74492190D01*
X75927852Y-74789734D01*
X75908272Y-74962388D01*
X75885969Y-75020483D01*
X75838253Y-75060427D01*
X75777141Y-75072162D01*
X75718024Y-75052731D01*
X75637562Y-75001022D01*
X75506367Y-74962500D01*
X75369633Y-74962500D01*
X75238437Y-75001022D01*
X75123412Y-75074943D01*
X75033869Y-75178282D01*
X74977068Y-75302657D01*
X74957610Y-75438000D01*
X74977068Y-75573342D01*
X75033869Y-75697717D01*
X75123412Y-75801056D01*
X75238437Y-75874977D01*
X75238439Y-75874978D01*
X75369633Y-75913500D01*
X75506367Y-75913500D01*
X75637561Y-75874978D01*
X75662296Y-75859081D01*
X75702359Y-75833336D01*
X75764972Y-75813731D01*
X75828824Y-75828820D01*
X75876039Y-75874379D01*
X75893397Y-75937652D01*
X75893397Y-79226804D01*
X75876784Y-79288804D01*
X75831397Y-79334191D01*
X75769397Y-79350804D01*
X59296398Y-79350804D01*
X59233548Y-79333696D01*
X59188040Y-79287092D01*
X59172433Y-79223852D01*
X59186407Y-78636978D01*
X59196811Y-78199999D01*
X60519610Y-78199999D01*
X60539068Y-78335342D01*
X60595869Y-78459717D01*
X60685412Y-78563056D01*
X60800437Y-78636977D01*
X60800439Y-78636978D01*
X60931633Y-78675500D01*
X61068367Y-78675500D01*
X61199561Y-78636978D01*
X61314589Y-78563055D01*
X61404130Y-78459718D01*
X61460931Y-78335342D01*
X61480390Y-78200000D01*
X61480390Y-78199999D01*
X62519610Y-78199999D01*
X62539068Y-78335342D01*
X62595869Y-78459717D01*
X62685412Y-78563056D01*
X62800437Y-78636977D01*
X62800439Y-78636978D01*
X62931633Y-78675500D01*
X63068367Y-78675500D01*
X63199561Y-78636978D01*
X63314589Y-78563055D01*
X63404130Y-78459718D01*
X63460931Y-78335342D01*
X63480390Y-78200000D01*
X63480390Y-78199999D01*
X72519610Y-78199999D01*
X72539068Y-78335342D01*
X72595869Y-78459717D01*
X72685412Y-78563056D01*
X72800437Y-78636977D01*
X72800439Y-78636978D01*
X72931633Y-78675500D01*
X73068367Y-78675500D01*
X73199561Y-78636978D01*
X73314589Y-78563055D01*
X73404130Y-78459718D01*
X73460931Y-78335342D01*
X73480390Y-78200000D01*
X73480390Y-78199999D01*
X74519610Y-78199999D01*
X74539068Y-78335342D01*
X74595869Y-78459717D01*
X74685412Y-78563056D01*
X74800437Y-78636977D01*
X74800439Y-78636978D01*
X74931633Y-78675500D01*
X75068367Y-78675500D01*
X75199561Y-78636978D01*
X75314589Y-78563055D01*
X75404130Y-78459718D01*
X75460931Y-78335342D01*
X75480390Y-78200000D01*
X75460931Y-78064658D01*
X75404130Y-77940282D01*
X75314589Y-77836945D01*
X75314588Y-77836944D01*
X75314587Y-77836943D01*
X75199562Y-77763022D01*
X75068367Y-77724500D01*
X74931633Y-77724500D01*
X74800437Y-77763022D01*
X74685412Y-77836943D01*
X74595869Y-77940282D01*
X74539068Y-78064657D01*
X74519610Y-78199999D01*
X73480390Y-78199999D01*
X73460931Y-78064658D01*
X73404130Y-77940282D01*
X73314589Y-77836945D01*
X73314588Y-77836944D01*
X73314587Y-77836943D01*
X73199562Y-77763022D01*
X73068367Y-77724500D01*
X72931633Y-77724500D01*
X72800437Y-77763022D01*
X72685412Y-77836943D01*
X72595869Y-77940282D01*
X72539068Y-78064657D01*
X72519610Y-78199999D01*
X63480390Y-78199999D01*
X63460931Y-78064658D01*
X63404130Y-77940282D01*
X63314589Y-77836945D01*
X63314588Y-77836944D01*
X63314587Y-77836943D01*
X63199562Y-77763022D01*
X63068367Y-77724500D01*
X62931633Y-77724500D01*
X62800437Y-77763022D01*
X62685412Y-77836943D01*
X62595869Y-77940282D01*
X62539068Y-78064657D01*
X62519610Y-78199999D01*
X61480390Y-78199999D01*
X61460931Y-78064658D01*
X61404130Y-77940282D01*
X61314589Y-77836945D01*
X61314588Y-77836944D01*
X61314587Y-77836943D01*
X61199562Y-77763022D01*
X61068367Y-77724500D01*
X60931633Y-77724500D01*
X60800437Y-77763022D01*
X60685412Y-77836943D01*
X60595869Y-77940282D01*
X60539068Y-78064657D01*
X60519610Y-78199999D01*
X59196811Y-78199999D01*
X59215859Y-77399999D01*
X70719610Y-77399999D01*
X70739068Y-77535342D01*
X70795869Y-77659717D01*
X70795870Y-77659718D01*
X70885382Y-77763022D01*
X70885412Y-77763056D01*
X71000437Y-77836977D01*
X71000439Y-77836978D01*
X71131633Y-77875500D01*
X71268367Y-77875500D01*
X71399561Y-77836978D01*
X71514589Y-77763055D01*
X71604130Y-77659718D01*
X71660931Y-77535342D01*
X71680390Y-77400000D01*
X71660931Y-77264658D01*
X71604130Y-77140282D01*
X71514589Y-77036945D01*
X71514588Y-77036944D01*
X71514587Y-77036943D01*
X71399562Y-76963022D01*
X71268367Y-76924500D01*
X71131633Y-76924500D01*
X71000437Y-76963022D01*
X70885412Y-77036943D01*
X70795869Y-77140282D01*
X70739068Y-77264657D01*
X70719610Y-77399999D01*
X59215859Y-77399999D01*
X59234906Y-76599999D01*
X60519610Y-76599999D01*
X60539068Y-76735342D01*
X60595869Y-76859717D01*
X60595870Y-76859718D01*
X60685382Y-76963022D01*
X60685412Y-76963056D01*
X60800437Y-77036977D01*
X60800439Y-77036978D01*
X60931633Y-77075500D01*
X61068367Y-77075500D01*
X61199561Y-77036978D01*
X61314589Y-76963055D01*
X61404130Y-76859718D01*
X61460931Y-76735342D01*
X61480390Y-76600000D01*
X61480390Y-76599999D01*
X62519610Y-76599999D01*
X62539068Y-76735342D01*
X62595869Y-76859717D01*
X62595870Y-76859718D01*
X62685382Y-76963022D01*
X62685412Y-76963056D01*
X62800437Y-77036977D01*
X62800439Y-77036978D01*
X62931633Y-77075500D01*
X63068367Y-77075500D01*
X63199561Y-77036978D01*
X63314589Y-76963055D01*
X63404130Y-76859718D01*
X63460931Y-76735342D01*
X63480390Y-76600000D01*
X63460931Y-76464658D01*
X63404130Y-76340282D01*
X63314589Y-76236945D01*
X63314588Y-76236944D01*
X63314587Y-76236943D01*
X63199562Y-76163022D01*
X63068367Y-76124500D01*
X62931633Y-76124500D01*
X62800437Y-76163022D01*
X62685412Y-76236943D01*
X62595869Y-76340282D01*
X62539068Y-76464657D01*
X62519610Y-76599999D01*
X61480390Y-76599999D01*
X61460931Y-76464658D01*
X61404130Y-76340282D01*
X61314589Y-76236945D01*
X61314588Y-76236944D01*
X61314587Y-76236943D01*
X61199562Y-76163022D01*
X61068367Y-76124500D01*
X60931633Y-76124500D01*
X60800437Y-76163022D01*
X60685412Y-76236943D01*
X60595869Y-76340282D01*
X60539068Y-76464657D01*
X60519610Y-76599999D01*
X59234906Y-76599999D01*
X59277763Y-74799999D01*
X62719610Y-74799999D01*
X62739068Y-74935342D01*
X62795869Y-75059717D01*
X62885412Y-75163056D01*
X63000437Y-75236977D01*
X63000439Y-75236978D01*
X63131633Y-75275500D01*
X63268367Y-75275500D01*
X63399561Y-75236978D01*
X63441257Y-75210182D01*
X63529589Y-75153416D01*
X63530359Y-75154615D01*
X63548486Y-75141046D01*
X63600000Y-75129839D01*
X63651514Y-75141046D01*
X63669640Y-75154615D01*
X63670411Y-75153416D01*
X63800437Y-75236977D01*
X63800439Y-75236978D01*
X63931633Y-75275500D01*
X64068367Y-75275500D01*
X64199561Y-75236978D01*
X64314589Y-75163055D01*
X64404130Y-75059718D01*
X64431403Y-74999999D01*
X64919610Y-74999999D01*
X64939068Y-75135342D01*
X64995869Y-75259717D01*
X65014066Y-75280718D01*
X65060718Y-75334558D01*
X65085412Y-75363056D01*
X65200437Y-75436977D01*
X65200439Y-75436978D01*
X65331633Y-75475500D01*
X65468367Y-75475500D01*
X65599561Y-75436978D01*
X65714589Y-75363055D01*
X65804130Y-75259718D01*
X65860931Y-75135342D01*
X65877371Y-75020999D01*
X68353610Y-75020999D01*
X68373068Y-75156342D01*
X68429869Y-75280717D01*
X68429870Y-75280718D01*
X68501215Y-75363056D01*
X68519412Y-75384056D01*
X68603352Y-75438000D01*
X68634439Y-75457978D01*
X68765633Y-75496500D01*
X68902367Y-75496500D01*
X68992962Y-75469899D01*
X72195510Y-75469899D01*
X72214968Y-75605242D01*
X72271769Y-75729617D01*
X72271770Y-75729618D01*
X72344653Y-75813731D01*
X72361312Y-75832956D01*
X72476337Y-75906877D01*
X72476339Y-75906878D01*
X72607533Y-75945400D01*
X72716760Y-75945400D01*
X72777735Y-75961428D01*
X72822948Y-76005367D01*
X72840709Y-76065860D01*
X72826429Y-76127268D01*
X72783799Y-76173716D01*
X72685411Y-76236944D01*
X72595869Y-76340282D01*
X72539068Y-76464657D01*
X72519610Y-76599999D01*
X72539068Y-76735342D01*
X72595869Y-76859717D01*
X72595870Y-76859718D01*
X72685382Y-76963022D01*
X72685412Y-76963056D01*
X72800437Y-77036977D01*
X72800439Y-77036978D01*
X72931633Y-77075500D01*
X73068367Y-77075500D01*
X73199561Y-77036978D01*
X73314589Y-76963055D01*
X73404130Y-76859718D01*
X73460931Y-76735342D01*
X73480390Y-76600000D01*
X73480390Y-76599999D01*
X74519610Y-76599999D01*
X74539068Y-76735342D01*
X74595869Y-76859717D01*
X74595870Y-76859718D01*
X74685382Y-76963022D01*
X74685412Y-76963056D01*
X74800437Y-77036977D01*
X74800439Y-77036978D01*
X74931633Y-77075500D01*
X75068367Y-77075500D01*
X75199561Y-77036978D01*
X75314589Y-76963055D01*
X75404130Y-76859718D01*
X75460931Y-76735342D01*
X75480390Y-76600000D01*
X75460931Y-76464658D01*
X75404130Y-76340282D01*
X75314589Y-76236945D01*
X75314588Y-76236944D01*
X75314587Y-76236943D01*
X75199562Y-76163022D01*
X75068367Y-76124500D01*
X74931633Y-76124500D01*
X74800437Y-76163022D01*
X74685412Y-76236943D01*
X74595869Y-76340282D01*
X74539068Y-76464657D01*
X74519610Y-76599999D01*
X73480390Y-76599999D01*
X73460931Y-76464658D01*
X73404130Y-76340282D01*
X73314589Y-76236945D01*
X73314588Y-76236944D01*
X73314587Y-76236943D01*
X73199562Y-76163022D01*
X73068367Y-76124500D01*
X72959140Y-76124500D01*
X72898165Y-76108472D01*
X72852952Y-76064533D01*
X72835191Y-76004040D01*
X72849471Y-75942632D01*
X72892101Y-75896184D01*
X72990489Y-75832955D01*
X73080030Y-75729618D01*
X73136831Y-75605242D01*
X73156290Y-75469900D01*
X73151704Y-75438000D01*
X73687610Y-75438000D01*
X73707068Y-75573342D01*
X73763869Y-75697717D01*
X73853412Y-75801056D01*
X73968437Y-75874977D01*
X73968439Y-75874978D01*
X74099633Y-75913500D01*
X74236367Y-75913500D01*
X74367561Y-75874978D01*
X74482589Y-75801055D01*
X74572130Y-75697718D01*
X74628931Y-75573342D01*
X74648390Y-75438000D01*
X74628931Y-75302658D01*
X74618911Y-75280718D01*
X74572130Y-75178282D01*
X74482587Y-75074943D01*
X74367562Y-75001022D01*
X74236367Y-74962500D01*
X74099633Y-74962500D01*
X73968437Y-75001022D01*
X73853412Y-75074943D01*
X73763869Y-75178282D01*
X73707068Y-75302657D01*
X73687610Y-75438000D01*
X73151704Y-75438000D01*
X73136831Y-75334558D01*
X73122262Y-75302657D01*
X73080030Y-75210182D01*
X73052389Y-75178282D01*
X72990489Y-75106845D01*
X72990488Y-75106844D01*
X72990487Y-75106843D01*
X72875462Y-75032922D01*
X72744267Y-74994400D01*
X72607533Y-74994400D01*
X72476337Y-75032922D01*
X72361312Y-75106843D01*
X72271769Y-75210182D01*
X72214968Y-75334557D01*
X72195510Y-75469899D01*
X68992962Y-75469899D01*
X69033561Y-75457978D01*
X69148589Y-75384055D01*
X69238130Y-75280718D01*
X69294931Y-75156342D01*
X69314390Y-75021000D01*
X69294931Y-74885658D01*
X69238130Y-74761282D01*
X69148589Y-74657945D01*
X69148588Y-74657944D01*
X69148587Y-74657943D01*
X69033562Y-74584022D01*
X68902367Y-74545500D01*
X68765633Y-74545500D01*
X68634437Y-74584022D01*
X68519412Y-74657943D01*
X68429869Y-74761282D01*
X68373068Y-74885657D01*
X68353610Y-75020999D01*
X65877371Y-75020999D01*
X65880390Y-75000000D01*
X65860931Y-74864658D01*
X65831402Y-74800000D01*
X65804130Y-74740282D01*
X65804129Y-74740281D01*
X65714589Y-74636945D01*
X65714588Y-74636944D01*
X65714587Y-74636943D01*
X65599562Y-74563022D01*
X65468367Y-74524500D01*
X65331633Y-74524500D01*
X65200437Y-74563022D01*
X65085412Y-74636943D01*
X64995869Y-74740282D01*
X64939068Y-74864657D01*
X64919610Y-74999999D01*
X64431403Y-74999999D01*
X64460931Y-74935342D01*
X64480390Y-74800000D01*
X64460931Y-74664658D01*
X64457865Y-74657945D01*
X64404130Y-74540282D01*
X64390455Y-74524500D01*
X64314589Y-74436945D01*
X64314588Y-74436944D01*
X64314587Y-74436943D01*
X64199562Y-74363022D01*
X64068367Y-74324500D01*
X63931633Y-74324500D01*
X63800437Y-74363022D01*
X63670411Y-74446584D01*
X63668480Y-74443579D01*
X63634932Y-74465138D01*
X63565068Y-74465138D01*
X63531519Y-74443579D01*
X63529589Y-74446584D01*
X63399562Y-74363022D01*
X63268367Y-74324500D01*
X63131633Y-74324500D01*
X63000437Y-74363022D01*
X62885412Y-74436943D01*
X62795869Y-74540282D01*
X62739068Y-74664657D01*
X62719610Y-74799999D01*
X59277763Y-74799999D01*
X59318598Y-73084905D01*
X59341857Y-72108048D01*
X59359432Y-72047304D01*
X59404676Y-72003124D01*
X59465822Y-71987000D01*
X67009522Y-71987000D01*
X67076561Y-72006684D01*
X67122316Y-72059488D01*
X67144493Y-72108048D01*
X67159870Y-72141718D01*
X67249411Y-72245055D01*
X67249412Y-72245056D01*
X67364437Y-72318977D01*
X67364439Y-72318978D01*
X67495633Y-72357500D01*
X67632367Y-72357500D01*
X67763561Y-72318978D01*
X67878589Y-72245055D01*
X67968130Y-72141718D01*
X67991356Y-72090858D01*
X68005684Y-72059488D01*
X68051439Y-72006684D01*
X68118478Y-71987000D01*
X73640558Y-71987000D01*
X73666900Y-71984254D01*
X73693245Y-71981509D01*
X73743287Y-71970963D01*
X73793711Y-71954724D01*
X73839703Y-71928435D01*
X73881233Y-71898590D01*
X73920812Y-71863385D01*
X76031841Y-69551304D01*
X81769563Y-69551304D01*
X81788609Y-69805458D01*
X81845324Y-70053941D01*
X81938440Y-70291195D01*
X82065870Y-70511911D01*
X82065873Y-70511916D01*
X82224782Y-70711181D01*
X82411615Y-70884536D01*
X82622198Y-71028109D01*
X82851828Y-71138693D01*
X83095374Y-71213817D01*
X83347397Y-71251804D01*
X83602267Y-71251804D01*
X83854290Y-71213817D01*
X84097836Y-71138693D01*
X84327466Y-71028109D01*
X84538049Y-70884536D01*
X84724882Y-70711181D01*
X84883791Y-70511916D01*
X85011225Y-70291192D01*
X85104340Y-70053941D01*
X85161054Y-69805461D01*
X85180100Y-69551304D01*
X85161054Y-69297147D01*
X85104340Y-69048667D01*
X85011225Y-68811416D01*
X84883791Y-68590692D01*
X84724882Y-68391427D01*
X84538049Y-68218072D01*
X84327466Y-68074499D01*
X84097836Y-67963915D01*
X83854290Y-67888791D01*
X83602267Y-67850804D01*
X83347397Y-67850804D01*
X83095374Y-67888791D01*
X82851828Y-67963915D01*
X82622198Y-68074499D01*
X82516906Y-68146285D01*
X82411613Y-68218073D01*
X82290798Y-68330173D01*
X82224782Y-68391427D01*
X82093676Y-68555829D01*
X82065870Y-68590696D01*
X81938440Y-68811412D01*
X81845324Y-69048666D01*
X81788609Y-69297149D01*
X81769563Y-69551304D01*
X76031841Y-69551304D01*
X78595450Y-66743541D01*
X78632583Y-66690796D01*
X78661641Y-66635900D01*
X78684380Y-66575533D01*
X78691277Y-66511396D01*
X78690068Y-66449296D01*
X78687970Y-66435032D01*
X78690082Y-66388014D01*
X78709565Y-66345168D01*
X78743607Y-66312674D01*
X78800589Y-66276055D01*
X78890130Y-66172718D01*
X78905638Y-66138758D01*
X78933838Y-66099608D01*
X78974848Y-66074183D01*
X79022453Y-66066336D01*
X79047250Y-66067142D01*
X79107552Y-66061648D01*
X79155108Y-66051304D01*
X85269189Y-66051304D01*
X85289717Y-66272841D01*
X85350601Y-66486830D01*
X85449773Y-66685992D01*
X85583851Y-66863541D01*
X85748269Y-67013428D01*
X85937427Y-67130549D01*
X85937429Y-67130549D01*
X85937431Y-67130551D01*
X86144892Y-67210922D01*
X86363589Y-67251804D01*
X86586073Y-67251804D01*
X86586075Y-67251804D01*
X86804772Y-67210922D01*
X87012233Y-67130551D01*
X87201394Y-67013428D01*
X87365813Y-66863540D01*
X87499890Y-66685993D01*
X87599061Y-66486832D01*
X87602551Y-66474568D01*
X87627899Y-66385476D01*
X87659947Y-66272840D01*
X87680475Y-66051304D01*
X87659947Y-65829768D01*
X87624281Y-65704414D01*
X87599062Y-65615777D01*
X87499890Y-65416615D01*
X87365812Y-65239066D01*
X87201394Y-65089179D01*
X87012236Y-64972058D01*
X86951006Y-64948337D01*
X86804772Y-64891686D01*
X86586075Y-64850804D01*
X86363589Y-64850804D01*
X86144892Y-64891685D01*
X86144892Y-64891686D01*
X85937427Y-64972058D01*
X85748269Y-65089179D01*
X85583851Y-65239066D01*
X85449773Y-65416615D01*
X85350601Y-65615777D01*
X85289717Y-65829766D01*
X85269189Y-66051304D01*
X79155108Y-66051304D01*
X79168978Y-66048287D01*
X79168977Y-66048287D01*
X79225279Y-66020333D01*
X79225776Y-66020003D01*
X79275792Y-65986936D01*
X79323563Y-65946083D01*
X82251505Y-62739292D01*
X82279973Y-62701647D01*
X82304010Y-62662877D01*
X82304011Y-62662876D01*
X82337998Y-62575245D01*
X82337999Y-62575243D01*
X82346390Y-62530404D01*
X82350750Y-62483407D01*
X82350750Y-55902500D01*
X87269610Y-55902500D01*
X87289068Y-56037842D01*
X87345869Y-56162217D01*
X87435412Y-56265556D01*
X87550437Y-56339477D01*
X87550439Y-56339478D01*
X87681633Y-56378000D01*
X87818367Y-56378000D01*
X87949561Y-56339478D01*
X88064589Y-56265555D01*
X88154130Y-56162218D01*
X88210931Y-56037842D01*
X88230390Y-55902500D01*
X88210931Y-55767158D01*
X88154130Y-55642782D01*
X88064589Y-55539445D01*
X88064588Y-55539444D01*
X88064587Y-55539443D01*
X88013817Y-55506816D01*
X87972023Y-55461928D01*
X87956855Y-55402500D01*
X87972023Y-55343072D01*
X88013817Y-55298184D01*
X88049114Y-55275500D01*
X88064589Y-55265555D01*
X88154130Y-55162218D01*
X88210931Y-55037842D01*
X88230390Y-54902500D01*
X88210931Y-54767158D01*
X88209789Y-54764658D01*
X88154130Y-54642782D01*
X88073205Y-54549389D01*
X88064589Y-54539445D01*
X88064588Y-54539444D01*
X88064587Y-54539443D01*
X87949562Y-54465522D01*
X87818367Y-54427000D01*
X87681633Y-54427000D01*
X87550437Y-54465522D01*
X87435412Y-54539443D01*
X87345869Y-54642782D01*
X87289068Y-54767157D01*
X87269610Y-54902500D01*
X87289068Y-55037842D01*
X87345869Y-55162217D01*
X87435411Y-55265555D01*
X87486183Y-55298184D01*
X87527976Y-55343073D01*
X87543144Y-55402500D01*
X87527976Y-55461927D01*
X87486183Y-55506816D01*
X87435411Y-55539444D01*
X87345869Y-55642782D01*
X87289068Y-55767157D01*
X87269610Y-55902500D01*
X82350750Y-55902500D01*
X82350750Y-55856147D01*
X82341986Y-55789803D01*
X82325265Y-55727617D01*
X82299577Y-55665828D01*
X82258726Y-55612828D01*
X82213074Y-55567412D01*
X82159858Y-55526833D01*
X82159857Y-55526832D01*
X82097931Y-55501465D01*
X82035662Y-55485070D01*
X81969268Y-55476651D01*
X70335820Y-55537242D01*
X70280927Y-55524748D01*
X70237215Y-55489271D01*
X70213695Y-55438122D01*
X70215215Y-55381846D01*
X70241458Y-55332045D01*
X70304130Y-55259718D01*
X70360931Y-55135342D01*
X70380390Y-55000000D01*
X70360931Y-54864658D01*
X70316403Y-54767157D01*
X70304130Y-54740282D01*
X70228263Y-54652726D01*
X70214589Y-54636945D01*
X70214588Y-54636944D01*
X70214587Y-54636943D01*
X70099562Y-54563022D01*
X69968367Y-54524500D01*
X69831633Y-54524500D01*
X69700437Y-54563022D01*
X69585412Y-54636943D01*
X69495869Y-54740282D01*
X69439068Y-54864657D01*
X69419610Y-54999999D01*
X69439068Y-55135342D01*
X69495870Y-55259719D01*
X69562448Y-55336555D01*
X69591450Y-55399951D01*
X69581663Y-55468975D01*
X69536181Y-55521810D01*
X69469381Y-55541755D01*
X67167521Y-55553744D01*
X67106350Y-55537971D01*
X67060888Y-55494110D01*
X67042933Y-55433544D01*
X67057146Y-55371992D01*
X67099833Y-55325432D01*
X67177533Y-55275499D01*
X67267074Y-55172162D01*
X67323875Y-55047786D01*
X67343334Y-54912444D01*
X67323875Y-54777102D01*
X67319333Y-54767157D01*
X67267074Y-54652726D01*
X67177531Y-54549387D01*
X67062506Y-54475466D01*
X66931311Y-54436944D01*
X66794577Y-54436944D01*
X66663381Y-54475466D01*
X66548356Y-54549387D01*
X66458813Y-54652726D01*
X66402012Y-54777101D01*
X66382554Y-54912444D01*
X66402012Y-55047786D01*
X66458813Y-55172161D01*
X66458814Y-55172162D01*
X66539739Y-55265556D01*
X66548356Y-55275500D01*
X66582539Y-55297467D01*
X66630938Y-55328571D01*
X66673508Y-55374904D01*
X66687856Y-55436168D01*
X66670286Y-55496586D01*
X66625324Y-55540603D01*
X66564545Y-55556884D01*
X65219929Y-55563888D01*
X65158758Y-55548116D01*
X65113296Y-55504254D01*
X65095341Y-55443688D01*
X65109554Y-55382136D01*
X65152244Y-55335575D01*
X65265089Y-55263055D01*
X65354630Y-55159718D01*
X65411431Y-55035342D01*
X65430890Y-54900000D01*
X65413220Y-54777101D01*
X65411431Y-54764657D01*
X65354630Y-54640282D01*
X65354629Y-54640281D01*
X65265089Y-54536945D01*
X65265088Y-54536944D01*
X65265087Y-54536943D01*
X65150062Y-54463022D01*
X65018867Y-54424500D01*
X64882133Y-54424500D01*
X64750937Y-54463022D01*
X64635912Y-54536943D01*
X64546369Y-54640282D01*
X64489568Y-54764657D01*
X64470110Y-54900000D01*
X64489568Y-55035342D01*
X64546369Y-55159717D01*
X64635912Y-55263056D01*
X64695287Y-55301213D01*
X64750939Y-55336978D01*
X64753076Y-55338351D01*
X64795647Y-55384685D01*
X64809995Y-55445949D01*
X64792425Y-55506368D01*
X64747463Y-55550384D01*
X64686684Y-55566665D01*
X58974418Y-55596417D01*
X58913247Y-55580644D01*
X58867785Y-55536782D01*
X58849830Y-55476216D01*
X58864044Y-55414664D01*
X58906734Y-55368102D01*
X58914589Y-55363055D01*
X59004130Y-55259718D01*
X59060931Y-55135342D01*
X59080390Y-55000000D01*
X59060931Y-54864658D01*
X59016403Y-54767157D01*
X59004130Y-54740282D01*
X58928263Y-54652726D01*
X58914589Y-54636945D01*
X58914588Y-54636944D01*
X58914587Y-54636943D01*
X58799562Y-54563022D01*
X58668367Y-54524500D01*
X58531633Y-54524500D01*
X58400437Y-54563022D01*
X58285412Y-54636943D01*
X58195869Y-54740282D01*
X58139068Y-54864657D01*
X58119610Y-55000000D01*
X58139068Y-55135342D01*
X58195869Y-55259717D01*
X58285411Y-55363055D01*
X58299275Y-55371965D01*
X58341845Y-55418300D01*
X58356193Y-55479564D01*
X58338623Y-55539982D01*
X58293660Y-55583998D01*
X58232882Y-55600279D01*
X56715612Y-55608181D01*
X56654441Y-55592408D01*
X56608979Y-55548547D01*
X56591024Y-55487980D01*
X56605237Y-55426428D01*
X56647927Y-55379867D01*
X56674089Y-55363055D01*
X56763630Y-55259718D01*
X56820431Y-55135342D01*
X56839890Y-55000000D01*
X56820431Y-54864658D01*
X56775903Y-54767157D01*
X56763630Y-54740282D01*
X56687763Y-54652726D01*
X56674089Y-54636945D01*
X56674088Y-54636944D01*
X56674087Y-54636943D01*
X56559062Y-54563022D01*
X56427867Y-54524500D01*
X56291133Y-54524500D01*
X56159937Y-54563022D01*
X56044912Y-54636943D01*
X55955369Y-54740282D01*
X55898568Y-54864657D01*
X55879110Y-55000000D01*
X55898568Y-55135342D01*
X55955369Y-55259717D01*
X56021099Y-55335574D01*
X56044911Y-55363055D01*
X56076787Y-55383540D01*
X56119357Y-55429873D01*
X56133706Y-55491137D01*
X56116136Y-55551556D01*
X56071174Y-55595573D01*
X56010395Y-55611854D01*
X55369646Y-55615192D01*
X55307373Y-55598796D01*
X55261721Y-55553380D01*
X55245000Y-55491194D01*
X55245000Y-53594000D01*
X74957610Y-53594000D01*
X74977068Y-53729342D01*
X75033869Y-53853717D01*
X75123412Y-53957056D01*
X75238437Y-54030977D01*
X75238439Y-54030978D01*
X75369633Y-54069500D01*
X75506367Y-54069500D01*
X75637561Y-54030978D01*
X75752589Y-53957055D01*
X75842130Y-53853718D01*
X75898931Y-53729342D01*
X75918390Y-53594000D01*
X75898931Y-53458658D01*
X75842130Y-53334282D01*
X75752589Y-53230945D01*
X75752588Y-53230944D01*
X75752587Y-53230943D01*
X75637562Y-53157022D01*
X75506367Y-53118500D01*
X75369633Y-53118500D01*
X75238437Y-53157022D01*
X75123412Y-53230943D01*
X75033869Y-53334282D01*
X74977068Y-53458657D01*
X74957610Y-53594000D01*
X55245000Y-53594000D01*
X55245000Y-52800000D01*
X79719610Y-52800000D01*
X79739068Y-52935342D01*
X79795869Y-53059717D01*
X79795870Y-53059718D01*
X79880183Y-53157022D01*
X79885412Y-53163056D01*
X79991048Y-53230943D01*
X80000439Y-53236978D01*
X80131633Y-53275500D01*
X80268367Y-53275500D01*
X80399561Y-53236978D01*
X80514589Y-53163055D01*
X80604130Y-53059718D01*
X80660931Y-52935342D01*
X80680390Y-52800000D01*
X80660931Y-52664658D01*
X80604130Y-52540282D01*
X80514589Y-52436945D01*
X80514588Y-52436944D01*
X80514587Y-52436943D01*
X80399562Y-52363022D01*
X80268367Y-52324500D01*
X80131633Y-52324500D01*
X80000437Y-52363022D01*
X79885412Y-52436943D01*
X79795869Y-52540282D01*
X79739068Y-52664657D01*
X79719610Y-52800000D01*
X55245000Y-52800000D01*
X55245000Y-52070000D01*
X69877610Y-52070000D01*
X69897068Y-52205342D01*
X69953869Y-52329717D01*
X70043412Y-52433056D01*
X70158437Y-52506977D01*
X70158439Y-52506978D01*
X70289633Y-52545500D01*
X70426367Y-52545500D01*
X70557561Y-52506978D01*
X70672589Y-52433055D01*
X70762130Y-52329718D01*
X70818931Y-52205342D01*
X70838390Y-52070000D01*
X70828326Y-52000000D01*
X82919610Y-52000000D01*
X82939068Y-52135342D01*
X82995869Y-52259717D01*
X82995870Y-52259718D01*
X83085382Y-52363022D01*
X83085412Y-52363056D01*
X83200437Y-52436977D01*
X83200439Y-52436978D01*
X83331633Y-52475500D01*
X83468367Y-52475500D01*
X83599561Y-52436978D01*
X83714589Y-52363055D01*
X83804130Y-52259718D01*
X83860931Y-52135342D01*
X83880390Y-52000000D01*
X87769610Y-52000000D01*
X87789068Y-52135342D01*
X87845869Y-52259717D01*
X87845870Y-52259718D01*
X87935382Y-52363022D01*
X87935412Y-52363056D01*
X88050437Y-52436977D01*
X88050439Y-52436978D01*
X88181633Y-52475500D01*
X88318367Y-52475500D01*
X88449561Y-52436978D01*
X88564589Y-52363055D01*
X88654130Y-52259718D01*
X88710931Y-52135342D01*
X88730390Y-52000000D01*
X88710931Y-51864658D01*
X88654130Y-51740282D01*
X88564589Y-51636945D01*
X88564588Y-51636944D01*
X88564587Y-51636943D01*
X88449562Y-51563022D01*
X88318367Y-51524500D01*
X88181633Y-51524500D01*
X88050437Y-51563022D01*
X87935412Y-51636943D01*
X87845869Y-51740282D01*
X87789068Y-51864657D01*
X87769610Y-52000000D01*
X83880390Y-52000000D01*
X83860931Y-51864658D01*
X83804130Y-51740282D01*
X83714589Y-51636945D01*
X83714588Y-51636944D01*
X83714587Y-51636943D01*
X83599562Y-51563022D01*
X83468367Y-51524500D01*
X83331633Y-51524500D01*
X83200437Y-51563022D01*
X83085412Y-51636943D01*
X82995869Y-51740282D01*
X82939068Y-51864657D01*
X82919610Y-52000000D01*
X70828326Y-52000000D01*
X70818931Y-51934658D01*
X70786962Y-51864657D01*
X70762130Y-51810282D01*
X70672587Y-51706943D01*
X70557562Y-51633022D01*
X70426367Y-51594500D01*
X70289633Y-51594500D01*
X70158437Y-51633022D01*
X70043412Y-51706943D01*
X69953869Y-51810282D01*
X69897068Y-51934657D01*
X69877610Y-52070000D01*
X55245000Y-52070000D01*
X55245000Y-50037999D01*
X78005610Y-50037999D01*
X78025068Y-50173342D01*
X78081869Y-50297717D01*
X78171412Y-50401056D01*
X78286437Y-50474977D01*
X78286439Y-50474978D01*
X78417633Y-50513500D01*
X78499727Y-50513500D01*
X78556547Y-50527285D01*
X78600735Y-50565573D01*
X78622465Y-50619854D01*
X78639068Y-50735342D01*
X78695869Y-50859717D01*
X78785412Y-50963056D01*
X78900437Y-51036977D01*
X78900439Y-51036978D01*
X79031633Y-51075500D01*
X79168367Y-51075500D01*
X79299561Y-51036978D01*
X79414589Y-50963055D01*
X79504130Y-50859718D01*
X79531402Y-50800000D01*
X83847610Y-50800000D01*
X83867068Y-50935342D01*
X83923869Y-51059717D01*
X84013412Y-51163056D01*
X84128437Y-51236977D01*
X84128439Y-51236978D01*
X84259633Y-51275500D01*
X84396367Y-51275500D01*
X84527561Y-51236978D01*
X84642589Y-51163055D01*
X84732130Y-51059718D01*
X84788931Y-50935342D01*
X84808390Y-50800000D01*
X84788931Y-50664658D01*
X84759402Y-50600000D01*
X84732130Y-50540282D01*
X84720868Y-50527285D01*
X84642589Y-50436945D01*
X84642588Y-50436944D01*
X84642587Y-50436943D01*
X84527562Y-50363022D01*
X84396367Y-50324500D01*
X84259633Y-50324500D01*
X84128437Y-50363022D01*
X84013412Y-50436943D01*
X83923869Y-50540282D01*
X83867068Y-50664657D01*
X83847610Y-50800000D01*
X79531402Y-50800000D01*
X79560931Y-50735342D01*
X79580390Y-50600000D01*
X79560931Y-50464658D01*
X79531884Y-50401055D01*
X79504130Y-50340282D01*
X79490455Y-50324500D01*
X79414589Y-50236945D01*
X79414588Y-50236944D01*
X79414587Y-50236943D01*
X79299562Y-50163022D01*
X79168367Y-50124500D01*
X79086273Y-50124500D01*
X79029453Y-50110715D01*
X78985265Y-50072427D01*
X78963535Y-50018146D01*
X78946931Y-49902657D01*
X78890130Y-49778282D01*
X78800589Y-49674945D01*
X78800588Y-49674944D01*
X78800587Y-49674943D01*
X78685562Y-49601022D01*
X78554367Y-49562500D01*
X78417633Y-49562500D01*
X78286437Y-49601022D01*
X78171412Y-49674943D01*
X78081869Y-49778282D01*
X78025068Y-49902657D01*
X78005610Y-50037999D01*
X55245000Y-50037999D01*
X55245000Y-49490499D01*
X58119610Y-49490499D01*
X58139068Y-49625842D01*
X58195869Y-49750217D01*
X58285412Y-49853556D01*
X58400437Y-49927477D01*
X58400439Y-49927478D01*
X58531633Y-49966000D01*
X58668367Y-49966000D01*
X58799561Y-49927478D01*
X58914589Y-49853555D01*
X59004130Y-49750218D01*
X59060931Y-49625842D01*
X59080390Y-49490500D01*
X59060931Y-49355158D01*
X59004130Y-49230782D01*
X58914589Y-49127445D01*
X58914588Y-49127444D01*
X58914587Y-49127443D01*
X58799562Y-49053522D01*
X58668367Y-49015000D01*
X58531633Y-49015000D01*
X58400437Y-49053522D01*
X58285412Y-49127443D01*
X58195869Y-49230782D01*
X58139068Y-49355157D01*
X58119610Y-49490499D01*
X55245000Y-49490499D01*
X55245000Y-48800000D01*
X64470110Y-48800000D01*
X64489568Y-48935342D01*
X64546369Y-49059717D01*
X64635912Y-49163056D01*
X64750937Y-49236977D01*
X64750939Y-49236978D01*
X64882133Y-49275500D01*
X65018867Y-49275500D01*
X65150061Y-49236978D01*
X65265089Y-49163055D01*
X65354630Y-49059718D01*
X65411431Y-48935342D01*
X65430890Y-48800000D01*
X65426289Y-48767999D01*
X77497610Y-48767999D01*
X77517068Y-48903342D01*
X77573869Y-49027717D01*
X77663412Y-49131056D01*
X77713206Y-49163056D01*
X77778439Y-49204978D01*
X77909633Y-49243500D01*
X78046367Y-49243500D01*
X78177561Y-49204978D01*
X78292589Y-49131055D01*
X78382130Y-49027718D01*
X78438931Y-48903342D01*
X78458390Y-48768000D01*
X78438931Y-48632658D01*
X78382130Y-48508282D01*
X78382129Y-48508281D01*
X78382129Y-48508280D01*
X78327471Y-48445201D01*
X78300679Y-48393232D01*
X78300680Y-48334764D01*
X78327468Y-48282800D01*
X78382130Y-48219718D01*
X78438931Y-48095342D01*
X78458390Y-47960000D01*
X78438931Y-47824658D01*
X78408360Y-47757718D01*
X78382130Y-47700282D01*
X78292587Y-47596943D01*
X78177562Y-47523022D01*
X78046367Y-47484500D01*
X77909633Y-47484500D01*
X77778437Y-47523022D01*
X77663412Y-47596943D01*
X77573869Y-47700282D01*
X77517068Y-47824657D01*
X77497610Y-47960000D01*
X77517068Y-48095342D01*
X77573869Y-48219716D01*
X77573870Y-48219718D01*
X77628529Y-48282799D01*
X77655319Y-48334764D01*
X77655320Y-48393232D01*
X77628529Y-48445201D01*
X77573869Y-48508282D01*
X77517068Y-48632657D01*
X77497610Y-48767999D01*
X65426289Y-48767999D01*
X65411431Y-48664658D01*
X65404436Y-48649342D01*
X65354630Y-48540282D01*
X65272243Y-48445201D01*
X65265089Y-48436945D01*
X65265088Y-48436944D01*
X65265087Y-48436943D01*
X65150062Y-48363022D01*
X65018867Y-48324500D01*
X64882133Y-48324500D01*
X64750937Y-48363022D01*
X64635912Y-48436943D01*
X64546369Y-48540282D01*
X64489568Y-48664657D01*
X64470110Y-48800000D01*
X55245000Y-48800000D01*
X55245000Y-45600000D01*
X56619610Y-45600000D01*
X56639068Y-45735342D01*
X56695869Y-45859717D01*
X56785412Y-45963056D01*
X56900437Y-46036977D01*
X56900439Y-46036978D01*
X57031633Y-46075500D01*
X57168367Y-46075500D01*
X57299561Y-46036978D01*
X57414589Y-45963055D01*
X57504130Y-45859718D01*
X57560931Y-45735342D01*
X57580390Y-45600000D01*
X57560931Y-45464658D01*
X57531402Y-45400000D01*
X57504130Y-45340282D01*
X57414587Y-45236943D01*
X57375773Y-45211999D01*
X70131610Y-45211999D01*
X70151068Y-45347342D01*
X70207869Y-45471717D01*
X70297412Y-45575056D01*
X70412437Y-45648977D01*
X70412439Y-45648978D01*
X70543633Y-45687500D01*
X70680367Y-45687500D01*
X70811561Y-45648978D01*
X70926589Y-45575055D01*
X71016130Y-45471718D01*
X71072931Y-45347342D01*
X71092390Y-45212000D01*
X71072931Y-45076658D01*
X71018741Y-44958000D01*
X75211610Y-44958000D01*
X75231068Y-45093342D01*
X75287869Y-45217717D01*
X75377412Y-45321056D01*
X75492437Y-45394977D01*
X75492439Y-45394978D01*
X75623633Y-45433500D01*
X75760367Y-45433500D01*
X75874458Y-45400000D01*
X77519610Y-45400000D01*
X77539068Y-45535342D01*
X77595869Y-45659717D01*
X77685412Y-45763056D01*
X77800437Y-45836977D01*
X77800439Y-45836978D01*
X77931633Y-45875500D01*
X78068367Y-45875500D01*
X78199561Y-45836978D01*
X78314589Y-45763055D01*
X78404130Y-45659718D01*
X78460931Y-45535342D01*
X78480390Y-45400000D01*
X78460931Y-45264658D01*
X78436882Y-45211999D01*
X78404130Y-45140282D01*
X78314587Y-45036943D01*
X78199562Y-44963022D01*
X78068367Y-44924500D01*
X77931633Y-44924500D01*
X77800437Y-44963022D01*
X77685412Y-45036943D01*
X77595869Y-45140282D01*
X77539068Y-45264657D01*
X77519610Y-45400000D01*
X75874458Y-45400000D01*
X75891561Y-45394978D01*
X76006589Y-45321055D01*
X76096130Y-45217718D01*
X76152931Y-45093342D01*
X76172390Y-44958000D01*
X76152931Y-44822658D01*
X76131176Y-44775022D01*
X76096130Y-44698282D01*
X76006587Y-44594943D01*
X75891562Y-44521022D01*
X75760367Y-44482500D01*
X75623633Y-44482500D01*
X75492437Y-44521022D01*
X75377412Y-44594943D01*
X75287869Y-44698282D01*
X75231068Y-44822657D01*
X75211610Y-44958000D01*
X71018741Y-44958000D01*
X71016130Y-44952282D01*
X70926589Y-44848945D01*
X70926588Y-44848944D01*
X70926587Y-44848943D01*
X70811562Y-44775022D01*
X70680367Y-44736500D01*
X70543633Y-44736500D01*
X70412437Y-44775022D01*
X70297412Y-44848943D01*
X70207869Y-44952282D01*
X70151068Y-45076657D01*
X70131610Y-45211999D01*
X57375773Y-45211999D01*
X57299562Y-45163022D01*
X57168367Y-45124500D01*
X57031633Y-45124500D01*
X56900437Y-45163022D01*
X56785412Y-45236943D01*
X56695869Y-45340282D01*
X56639068Y-45464657D01*
X56619610Y-45600000D01*
X55245000Y-45600000D01*
X55245000Y-42999999D01*
X62519610Y-42999999D01*
X62539068Y-43135342D01*
X62595869Y-43259717D01*
X62685412Y-43363056D01*
X62800437Y-43436977D01*
X62800439Y-43436978D01*
X62931633Y-43475500D01*
X63068367Y-43475500D01*
X63199561Y-43436978D01*
X63314589Y-43363055D01*
X63404130Y-43259718D01*
X63404130Y-43259716D01*
X63406286Y-43257229D01*
X63448488Y-43225637D01*
X63500000Y-43214431D01*
X63551512Y-43225637D01*
X63593714Y-43257229D01*
X63595869Y-43259716D01*
X63595870Y-43259718D01*
X63685411Y-43363055D01*
X63685412Y-43363056D01*
X63800437Y-43436977D01*
X63800439Y-43436978D01*
X63931633Y-43475500D01*
X64068367Y-43475500D01*
X64199561Y-43436978D01*
X64314589Y-43363055D01*
X64404130Y-43259718D01*
X64460931Y-43135342D01*
X64480390Y-43000000D01*
X64466012Y-42900000D01*
X70619610Y-42900000D01*
X70639068Y-43035342D01*
X70695869Y-43159717D01*
X70695870Y-43159718D01*
X70752988Y-43225637D01*
X70785412Y-43263056D01*
X70900437Y-43336977D01*
X70900439Y-43336978D01*
X71031633Y-43375500D01*
X71168367Y-43375500D01*
X71299561Y-43336978D01*
X71414589Y-43263055D01*
X71504130Y-43159718D01*
X71560931Y-43035342D01*
X71580390Y-42900000D01*
X71560931Y-42764658D01*
X71554336Y-42750218D01*
X71504130Y-42640282D01*
X71504129Y-42640281D01*
X71414589Y-42536945D01*
X71414588Y-42536944D01*
X71414587Y-42536943D01*
X71299562Y-42463022D01*
X71168367Y-42424500D01*
X71031633Y-42424500D01*
X70900437Y-42463022D01*
X70785412Y-42536943D01*
X70695869Y-42640282D01*
X70639068Y-42764657D01*
X70619610Y-42900000D01*
X64466012Y-42900000D01*
X64460931Y-42864658D01*
X64455860Y-42853555D01*
X64404130Y-42740282D01*
X64314587Y-42636943D01*
X64199562Y-42563022D01*
X64068367Y-42524500D01*
X63931633Y-42524500D01*
X63800437Y-42563022D01*
X63685410Y-42636944D01*
X63593713Y-42742770D01*
X63551512Y-42774362D01*
X63500000Y-42785568D01*
X63448488Y-42774362D01*
X63406287Y-42742770D01*
X63314589Y-42636944D01*
X63199562Y-42563022D01*
X63068367Y-42524500D01*
X62931633Y-42524500D01*
X62800437Y-42563022D01*
X62685412Y-42636943D01*
X62595869Y-42740282D01*
X62539068Y-42864657D01*
X62519610Y-42999999D01*
X55245000Y-42999999D01*
X55245000Y-39284794D01*
X55260118Y-39225459D01*
X55301785Y-39180591D01*
X55359842Y-39161133D01*
X55420132Y-39171827D01*
X55467954Y-39210068D01*
X55583849Y-39363539D01*
X55748269Y-39513428D01*
X55937427Y-39630549D01*
X55937429Y-39630549D01*
X55937431Y-39630551D01*
X56144892Y-39710922D01*
X56363589Y-39751804D01*
X56586073Y-39751804D01*
X56586075Y-39751804D01*
X56804772Y-39710922D01*
X56832965Y-39700000D01*
X62257610Y-39700000D01*
X62277068Y-39835342D01*
X62333869Y-39959717D01*
X62423412Y-40063056D01*
X62538437Y-40136977D01*
X62538439Y-40136978D01*
X62669633Y-40175500D01*
X62806367Y-40175500D01*
X62937561Y-40136978D01*
X63052589Y-40063055D01*
X63142130Y-39959718D01*
X63198931Y-39835342D01*
X63218390Y-39700000D01*
X63198931Y-39564658D01*
X63142130Y-39440282D01*
X63052589Y-39336945D01*
X63052588Y-39336944D01*
X63052587Y-39336943D01*
X62937562Y-39263022D01*
X62806367Y-39224500D01*
X62669633Y-39224500D01*
X62538437Y-39263022D01*
X62423412Y-39336943D01*
X62333869Y-39440282D01*
X62277068Y-39564657D01*
X62257610Y-39700000D01*
X56832965Y-39700000D01*
X57012233Y-39630551D01*
X57201394Y-39513428D01*
X57365813Y-39363540D01*
X57499890Y-39185993D01*
X57599061Y-38986832D01*
X57659947Y-38772840D01*
X57680475Y-38551304D01*
X57659947Y-38329768D01*
X57636076Y-38245871D01*
X57599062Y-38115777D01*
X57591206Y-38100000D01*
X62257610Y-38100000D01*
X62277068Y-38235342D01*
X62333869Y-38359717D01*
X62423412Y-38463056D01*
X62538437Y-38536977D01*
X62538439Y-38536978D01*
X62669633Y-38575500D01*
X62806367Y-38575500D01*
X62937561Y-38536978D01*
X63052589Y-38463055D01*
X63142130Y-38359718D01*
X63198931Y-38235342D01*
X63218390Y-38100000D01*
X63201130Y-37979950D01*
X63198931Y-37964657D01*
X63142130Y-37840282D01*
X63065464Y-37751804D01*
X63052589Y-37736945D01*
X63052588Y-37736944D01*
X63052587Y-37736943D01*
X62937562Y-37663022D01*
X62806367Y-37624500D01*
X62669633Y-37624500D01*
X62538437Y-37663022D01*
X62423412Y-37736943D01*
X62333869Y-37840282D01*
X62277068Y-37964657D01*
X62257610Y-38100000D01*
X57591206Y-38100000D01*
X57499890Y-37916615D01*
X57365812Y-37739066D01*
X57201394Y-37589179D01*
X57012236Y-37472058D01*
X56849521Y-37409022D01*
X56804772Y-37391686D01*
X56586075Y-37350804D01*
X56363589Y-37350804D01*
X56144892Y-37391685D01*
X56144892Y-37391686D01*
X55937427Y-37472058D01*
X55748269Y-37589179D01*
X55583849Y-37739068D01*
X55467954Y-37892540D01*
X55420132Y-37930781D01*
X55359842Y-37941475D01*
X55301785Y-37922017D01*
X55260118Y-37877149D01*
X55245000Y-37817814D01*
X55245000Y-36506999D01*
X80886610Y-36506999D01*
X80906068Y-36642342D01*
X80962869Y-36766717D01*
X81052412Y-36870056D01*
X81167437Y-36943977D01*
X81167439Y-36943978D01*
X81298633Y-36982500D01*
X81435367Y-36982500D01*
X81566561Y-36943978D01*
X81681589Y-36870055D01*
X81724528Y-36820500D01*
X83486110Y-36820500D01*
X83505568Y-36955842D01*
X83562369Y-37080217D01*
X83651912Y-37183556D01*
X83766937Y-37257477D01*
X83766939Y-37257478D01*
X83898133Y-37296000D01*
X84034867Y-37296000D01*
X84166061Y-37257478D01*
X84281089Y-37183555D01*
X84370630Y-37080218D01*
X84427431Y-36955842D01*
X84446890Y-36820500D01*
X84427431Y-36685158D01*
X84407877Y-36642342D01*
X84370630Y-36560782D01*
X84281087Y-36457443D01*
X84166062Y-36383522D01*
X84034867Y-36345000D01*
X83898133Y-36345000D01*
X83766937Y-36383522D01*
X83651912Y-36457443D01*
X83562369Y-36560782D01*
X83505568Y-36685157D01*
X83486110Y-36820500D01*
X81724528Y-36820500D01*
X81771130Y-36766718D01*
X81827931Y-36642342D01*
X81847390Y-36507000D01*
X81827931Y-36371658D01*
X81771130Y-36247282D01*
X81681589Y-36143945D01*
X81681588Y-36143944D01*
X81681587Y-36143943D01*
X81566562Y-36070022D01*
X81435367Y-36031500D01*
X81298633Y-36031500D01*
X81167437Y-36070022D01*
X81052412Y-36143943D01*
X80962869Y-36247282D01*
X80906068Y-36371657D01*
X80886610Y-36506999D01*
X55245000Y-36506999D01*
X55245000Y-36061802D01*
X55259684Y-36003269D01*
X55300260Y-35958599D01*
X55357115Y-35938373D01*
X55373942Y-35936753D01*
X55673938Y-35872986D01*
X55964787Y-35775670D01*
X56242749Y-35646053D01*
X56504252Y-35485804D01*
X56745933Y-35296982D01*
X56964686Y-35082015D01*
X56988992Y-35052000D01*
X62257610Y-35052000D01*
X62277068Y-35187342D01*
X62333869Y-35311717D01*
X62423412Y-35415056D01*
X62533500Y-35485804D01*
X62538439Y-35488978D01*
X62669633Y-35527500D01*
X62806367Y-35527500D01*
X62937561Y-35488978D01*
X63052589Y-35415055D01*
X63142130Y-35311718D01*
X63198931Y-35187342D01*
X63218390Y-35052000D01*
X63198931Y-34916658D01*
X63165596Y-34843666D01*
X63142130Y-34792282D01*
X63052587Y-34688943D01*
X62937562Y-34615022D01*
X62806367Y-34576500D01*
X62669633Y-34576500D01*
X62538437Y-34615022D01*
X62423412Y-34688943D01*
X62333869Y-34792282D01*
X62277068Y-34916657D01*
X62257610Y-35052000D01*
X56988992Y-35052000D01*
X57157697Y-34843666D01*
X57194839Y-34785363D01*
X57322486Y-34585001D01*
X57456931Y-34309349D01*
X57456932Y-34309345D01*
X57456934Y-34309342D01*
X57559312Y-34020236D01*
X57628304Y-33721398D01*
X57663023Y-33416672D01*
X57662967Y-33273999D01*
X60733610Y-33273999D01*
X60753068Y-33409342D01*
X60809869Y-33533717D01*
X60899412Y-33637056D01*
X61014437Y-33710977D01*
X61014439Y-33710978D01*
X61145633Y-33749500D01*
X61282367Y-33749500D01*
X61413561Y-33710978D01*
X61528589Y-33637055D01*
X61618130Y-33533718D01*
X61674931Y-33409342D01*
X61694390Y-33274000D01*
X61674931Y-33138658D01*
X61620741Y-33019999D01*
X63781610Y-33019999D01*
X63801068Y-33155342D01*
X63857869Y-33279717D01*
X63947412Y-33383056D01*
X64062437Y-33456977D01*
X64062439Y-33456978D01*
X64193633Y-33495500D01*
X64330367Y-33495500D01*
X64461561Y-33456978D01*
X64576589Y-33383055D01*
X64666130Y-33279718D01*
X64722931Y-33155342D01*
X64742390Y-33020000D01*
X64722931Y-32884658D01*
X64701176Y-32837022D01*
X64666130Y-32760282D01*
X64576587Y-32656943D01*
X64461562Y-32583022D01*
X64330367Y-32544500D01*
X64193633Y-32544500D01*
X64062437Y-32583022D01*
X63947412Y-32656943D01*
X63857869Y-32760282D01*
X63801068Y-32884657D01*
X63781610Y-33019999D01*
X61620741Y-33019999D01*
X61618130Y-33014282D01*
X61528589Y-32910945D01*
X61528588Y-32910944D01*
X61528587Y-32910943D01*
X61413562Y-32837022D01*
X61282367Y-32798500D01*
X61145633Y-32798500D01*
X61014437Y-32837022D01*
X60899412Y-32910943D01*
X60809869Y-33014282D01*
X60753068Y-33138657D01*
X60733610Y-33273999D01*
X57662967Y-33273999D01*
X57662963Y-33263323D01*
X57662963Y-33223441D01*
X57662963Y-29840794D01*
X61241610Y-29840794D01*
X61261068Y-29976137D01*
X61317869Y-30100512D01*
X61407412Y-30203851D01*
X61522437Y-30277772D01*
X61522439Y-30277773D01*
X61653633Y-30316295D01*
X61790367Y-30316295D01*
X61921561Y-30277773D01*
X62036589Y-30203850D01*
X62126130Y-30100513D01*
X62182931Y-29976137D01*
X62202390Y-29840795D01*
X62202390Y-29840794D01*
X63781610Y-29840794D01*
X63801068Y-29976137D01*
X63857869Y-30100512D01*
X63947412Y-30203851D01*
X64062437Y-30277772D01*
X64062439Y-30277773D01*
X64193633Y-30316295D01*
X64330367Y-30316295D01*
X64461561Y-30277773D01*
X64576589Y-30203850D01*
X64666130Y-30100513D01*
X64722931Y-29976137D01*
X64742390Y-29840795D01*
X64742390Y-29840794D01*
X74725237Y-29840794D01*
X74744695Y-29976137D01*
X74801496Y-30100512D01*
X74891039Y-30203851D01*
X75006064Y-30277772D01*
X75006066Y-30277773D01*
X75137260Y-30316295D01*
X75273994Y-30316295D01*
X75405188Y-30277773D01*
X75520216Y-30203850D01*
X75609757Y-30100513D01*
X75666558Y-29976137D01*
X75686017Y-29840795D01*
X75686017Y-29840794D01*
X77225237Y-29840794D01*
X77244695Y-29976137D01*
X77301496Y-30100512D01*
X77391039Y-30203851D01*
X77506064Y-30277772D01*
X77506066Y-30277773D01*
X77637260Y-30316295D01*
X77773994Y-30316295D01*
X77905188Y-30277773D01*
X78020216Y-30203850D01*
X78109757Y-30100513D01*
X78166558Y-29976137D01*
X78186017Y-29840795D01*
X78166558Y-29705453D01*
X78109757Y-29581077D01*
X78020216Y-29477740D01*
X78020215Y-29477739D01*
X78020214Y-29477738D01*
X77905189Y-29403817D01*
X77773994Y-29365295D01*
X77637260Y-29365295D01*
X77506064Y-29403817D01*
X77391039Y-29477738D01*
X77301496Y-29581077D01*
X77244695Y-29705452D01*
X77225237Y-29840794D01*
X75686017Y-29840794D01*
X75666558Y-29705453D01*
X75609757Y-29581077D01*
X75520216Y-29477740D01*
X75520215Y-29477739D01*
X75520214Y-29477738D01*
X75405189Y-29403817D01*
X75273994Y-29365295D01*
X75137260Y-29365295D01*
X75006064Y-29403817D01*
X74891039Y-29477738D01*
X74801496Y-29581077D01*
X74744695Y-29705452D01*
X74725237Y-29840794D01*
X64742390Y-29840794D01*
X64722931Y-29705453D01*
X64666130Y-29581077D01*
X64576589Y-29477740D01*
X64576588Y-29477739D01*
X64576587Y-29477738D01*
X64461562Y-29403817D01*
X64330367Y-29365295D01*
X64193633Y-29365295D01*
X64062437Y-29403817D01*
X63947412Y-29477738D01*
X63857869Y-29581077D01*
X63801068Y-29705452D01*
X63781610Y-29840794D01*
X62202390Y-29840794D01*
X62182931Y-29705453D01*
X62126130Y-29581077D01*
X62036589Y-29477740D01*
X62036588Y-29477739D01*
X62036587Y-29477738D01*
X61921562Y-29403817D01*
X61790367Y-29365295D01*
X61653633Y-29365295D01*
X61522437Y-29403817D01*
X61407412Y-29477738D01*
X61317869Y-29581077D01*
X61261068Y-29705452D01*
X61241610Y-29840794D01*
X57662963Y-29840794D01*
X57662963Y-28875804D01*
X57679576Y-28813804D01*
X57724963Y-28768417D01*
X57786963Y-28751804D01*
X78344917Y-28751804D01*
X78387149Y-28759217D01*
G37*
%TD.AperFunction*%
%TD*%
%TA.AperFunction,Conductor*%
%TO.N,VDD*%
G36*
X80455951Y-38269685D02*
G01*
X80501706Y-38322488D01*
X80514369Y-38350217D01*
X80514370Y-38350218D01*
X80585118Y-38431867D01*
X80603912Y-38453556D01*
X80661399Y-38490500D01*
X80718939Y-38527478D01*
X80850133Y-38566000D01*
X80986867Y-38566000D01*
X81118061Y-38527478D01*
X81233089Y-38453555D01*
X81322630Y-38350218D01*
X81322631Y-38350215D01*
X81332786Y-38338496D01*
X81374988Y-38306904D01*
X81426500Y-38295698D01*
X81478012Y-38306904D01*
X81520214Y-38338496D01*
X81530368Y-38350215D01*
X81530370Y-38350218D01*
X81619911Y-38453555D01*
X81619912Y-38453556D01*
X81677399Y-38490500D01*
X81734939Y-38527478D01*
X81866133Y-38566000D01*
X82002867Y-38566000D01*
X82003456Y-38565826D01*
X82056038Y-38562065D01*
X82105431Y-38580487D01*
X82142708Y-38617763D01*
X82161131Y-38667156D01*
X82169568Y-38725842D01*
X82226369Y-38850217D01*
X82315912Y-38953556D01*
X82335276Y-38966000D01*
X82430939Y-39027478D01*
X82562133Y-39066000D01*
X82698867Y-39066000D01*
X82830061Y-39027478D01*
X82945089Y-38953555D01*
X83034630Y-38850218D01*
X83091431Y-38725842D01*
X83110890Y-38590500D01*
X83091431Y-38455158D01*
X83077891Y-38425511D01*
X83067002Y-38365155D01*
X83086370Y-38306961D01*
X83131259Y-38265168D01*
X83190686Y-38250000D01*
X84541585Y-38250000D01*
X84608624Y-38269685D01*
X84654379Y-38322488D01*
X84664323Y-38391647D01*
X84650110Y-38490500D01*
X84669568Y-38625842D01*
X84726369Y-38750217D01*
X84815912Y-38853556D01*
X84930937Y-38927477D01*
X84930939Y-38927478D01*
X85062133Y-38966000D01*
X85198867Y-38966000D01*
X85330061Y-38927478D01*
X85445089Y-38853555D01*
X85534630Y-38750218D01*
X85591431Y-38625842D01*
X85610890Y-38490500D01*
X85596677Y-38391646D01*
X85606621Y-38322488D01*
X85652376Y-38269685D01*
X85719415Y-38250000D01*
X86072714Y-38250000D01*
X86139752Y-38269684D01*
X86139754Y-38269685D01*
X86160439Y-38282978D01*
X86291633Y-38321500D01*
X86428367Y-38321500D01*
X86559561Y-38282978D01*
X86580246Y-38269685D01*
X86580248Y-38269684D01*
X86647286Y-38250000D01*
X86743829Y-38250000D01*
X86804804Y-38266028D01*
X86850016Y-38309967D01*
X86867778Y-38370459D01*
X86853498Y-38431867D01*
X86810868Y-38478316D01*
X86793551Y-38489444D01*
X86704009Y-38592782D01*
X86647208Y-38717157D01*
X86627750Y-38852499D01*
X86647208Y-38987842D01*
X86704009Y-39112217D01*
X86793552Y-39215556D01*
X86908577Y-39289477D01*
X86908579Y-39289478D01*
X87039773Y-39328000D01*
X87176507Y-39328000D01*
X87307701Y-39289478D01*
X87422729Y-39215555D01*
X87512270Y-39112218D01*
X87569071Y-38987842D01*
X87588530Y-38852500D01*
X87569071Y-38717158D01*
X87512270Y-38592782D01*
X87422729Y-38489445D01*
X87422728Y-38489444D01*
X87405412Y-38478316D01*
X87362782Y-38431867D01*
X87348502Y-38370459D01*
X87366264Y-38309967D01*
X87411476Y-38266028D01*
X87472451Y-38250000D01*
X89650332Y-38250000D01*
X89712332Y-38266613D01*
X89757719Y-38312000D01*
X89774332Y-38374000D01*
X89774332Y-49526000D01*
X89757719Y-49588000D01*
X89712332Y-49633387D01*
X89650332Y-49650000D01*
X88673034Y-49650000D01*
X88626948Y-49641118D01*
X88587464Y-49615743D01*
X88560241Y-49577514D01*
X88530131Y-49511582D01*
X88440590Y-49408245D01*
X88440589Y-49408244D01*
X88440588Y-49408243D01*
X88325563Y-49334322D01*
X88194368Y-49295800D01*
X88057634Y-49295800D01*
X87926438Y-49334322D01*
X87811413Y-49408243D01*
X87721871Y-49511581D01*
X87721871Y-49511582D01*
X87691760Y-49577514D01*
X87664538Y-49615743D01*
X87625054Y-49641118D01*
X87578968Y-49650000D01*
X80124000Y-49650000D01*
X80062000Y-49633387D01*
X80016613Y-49588000D01*
X80000000Y-49526000D01*
X80000000Y-49105336D01*
X80011206Y-49053825D01*
X80042797Y-49011623D01*
X80089065Y-48986359D01*
X80117025Y-48978148D01*
X80209561Y-48950978D01*
X80324589Y-48877055D01*
X80414130Y-48773718D01*
X80470931Y-48649342D01*
X80490390Y-48514000D01*
X80470931Y-48378658D01*
X80466545Y-48369055D01*
X80416741Y-48259999D01*
X81467610Y-48259999D01*
X81487068Y-48395342D01*
X81543869Y-48519717D01*
X81633412Y-48623056D01*
X81748437Y-48696977D01*
X81748439Y-48696978D01*
X81879633Y-48735500D01*
X82016367Y-48735500D01*
X82147561Y-48696978D01*
X82188295Y-48670799D01*
X82277589Y-48613416D01*
X82278359Y-48614615D01*
X82296486Y-48601046D01*
X82348000Y-48589839D01*
X82399514Y-48601046D01*
X82417640Y-48614615D01*
X82418411Y-48613416D01*
X82548437Y-48696977D01*
X82548439Y-48696978D01*
X82679633Y-48735500D01*
X82816367Y-48735500D01*
X82947561Y-48696978D01*
X83062589Y-48623055D01*
X83152130Y-48519718D01*
X83208931Y-48395342D01*
X83228390Y-48260000D01*
X83208931Y-48124658D01*
X83204587Y-48115147D01*
X83152130Y-48000282D01*
X83145980Y-47993184D01*
X83062589Y-47896945D01*
X83062588Y-47896944D01*
X83062587Y-47896943D01*
X82947562Y-47823022D01*
X82816367Y-47784500D01*
X82679633Y-47784500D01*
X82548437Y-47823022D01*
X82418411Y-47906584D01*
X82416480Y-47903579D01*
X82382932Y-47925138D01*
X82313068Y-47925138D01*
X82279519Y-47903579D01*
X82277589Y-47906584D01*
X82147562Y-47823022D01*
X82016367Y-47784500D01*
X81879633Y-47784500D01*
X81748437Y-47823022D01*
X81633412Y-47896943D01*
X81543869Y-48000282D01*
X81487068Y-48124657D01*
X81467610Y-48259999D01*
X80416741Y-48259999D01*
X80414129Y-48254280D01*
X80348641Y-48178702D01*
X80319616Y-48115147D01*
X80329560Y-48045988D01*
X80375315Y-47993184D01*
X80442354Y-47973500D01*
X80586367Y-47973500D01*
X80717561Y-47934978D01*
X80832589Y-47861055D01*
X80922130Y-47757718D01*
X80978931Y-47633342D01*
X80998390Y-47498000D01*
X80978931Y-47362658D01*
X80974774Y-47353556D01*
X80922130Y-47238282D01*
X80894508Y-47206404D01*
X80832589Y-47134945D01*
X80832588Y-47134944D01*
X80832587Y-47134943D01*
X80717562Y-47061022D01*
X80586367Y-47022500D01*
X80449633Y-47022500D01*
X80318439Y-47061022D01*
X80191039Y-47142896D01*
X80128425Y-47162501D01*
X80064573Y-47147412D01*
X80017358Y-47101853D01*
X80000000Y-47038580D01*
X80000000Y-46990500D01*
X82650110Y-46990500D01*
X82669568Y-47125842D01*
X82726369Y-47250217D01*
X82815912Y-47353556D01*
X82930159Y-47426977D01*
X82930939Y-47427478D01*
X83062133Y-47466000D01*
X83198867Y-47466000D01*
X83330061Y-47427478D01*
X83445089Y-47353555D01*
X83534630Y-47250218D01*
X83534630Y-47250216D01*
X83536786Y-47247729D01*
X83578988Y-47216137D01*
X83630500Y-47204931D01*
X83682012Y-47216137D01*
X83724214Y-47247729D01*
X83726369Y-47250216D01*
X83726370Y-47250218D01*
X83744247Y-47270849D01*
X83815911Y-47353555D01*
X83845087Y-47372305D01*
X83886880Y-47417194D01*
X83902048Y-47476621D01*
X83886880Y-47536048D01*
X83845087Y-47580937D01*
X83748599Y-47642944D01*
X83659057Y-47746282D01*
X83602256Y-47870657D01*
X83582798Y-48006000D01*
X83602256Y-48141342D01*
X83659057Y-48265717D01*
X83748600Y-48369056D01*
X83863625Y-48442977D01*
X83863627Y-48442978D01*
X83994821Y-48481500D01*
X84131555Y-48481500D01*
X84262749Y-48442978D01*
X84377777Y-48369055D01*
X84467318Y-48265718D01*
X84467318Y-48265717D01*
X84478992Y-48252245D01*
X84479673Y-48252835D01*
X84498099Y-48228940D01*
X84548508Y-48204156D01*
X84604680Y-48204156D01*
X84655089Y-48228940D01*
X84673514Y-48252835D01*
X84674196Y-48252245D01*
X84775412Y-48369056D01*
X84890437Y-48442977D01*
X84890439Y-48442978D01*
X85021633Y-48481500D01*
X85158367Y-48481500D01*
X85289561Y-48442978D01*
X85404589Y-48369055D01*
X85494130Y-48265718D01*
X85550931Y-48141342D01*
X85570390Y-48006000D01*
X85550931Y-47870658D01*
X85546545Y-47861055D01*
X85494130Y-47746282D01*
X85404587Y-47642943D01*
X85341368Y-47602316D01*
X85299574Y-47557428D01*
X85284406Y-47498000D01*
X85299574Y-47438572D01*
X85341368Y-47393684D01*
X85389646Y-47362658D01*
X85404589Y-47353055D01*
X85494130Y-47249718D01*
X85494131Y-47249715D01*
X85504286Y-47237996D01*
X85546488Y-47206404D01*
X85598000Y-47195198D01*
X85649512Y-47206404D01*
X85691714Y-47237996D01*
X85701868Y-47249715D01*
X85701870Y-47249718D01*
X85786050Y-47346868D01*
X85791412Y-47353056D01*
X85906437Y-47426977D01*
X85906439Y-47426978D01*
X85970671Y-47445838D01*
X85981272Y-47448951D01*
X86034018Y-47480247D01*
X86065314Y-47532993D01*
X86067503Y-47594285D01*
X86040051Y-47649130D01*
X85955869Y-47746282D01*
X85899068Y-47870657D01*
X85879610Y-48006000D01*
X85899068Y-48141342D01*
X85955869Y-48265717D01*
X86045412Y-48369056D01*
X86160437Y-48442977D01*
X86160439Y-48442978D01*
X86291633Y-48481500D01*
X86428367Y-48481500D01*
X86559561Y-48442978D01*
X86674589Y-48369055D01*
X86764130Y-48265718D01*
X86820931Y-48141342D01*
X86840390Y-48006000D01*
X86820931Y-47870658D01*
X86816545Y-47861055D01*
X86764130Y-47746282D01*
X86674587Y-47642943D01*
X86559562Y-47569022D01*
X86484726Y-47547048D01*
X86431980Y-47515752D01*
X86421447Y-47497999D01*
X87149610Y-47497999D01*
X87169068Y-47633342D01*
X87225869Y-47757717D01*
X87315412Y-47861056D01*
X87386256Y-47906584D01*
X87430439Y-47934978D01*
X87561633Y-47973500D01*
X87698367Y-47973500D01*
X87829561Y-47934978D01*
X87944589Y-47861055D01*
X88034130Y-47757718D01*
X88090931Y-47633342D01*
X88110390Y-47498000D01*
X88090931Y-47362658D01*
X88086774Y-47353556D01*
X88034130Y-47238282D01*
X88006508Y-47206404D01*
X87944589Y-47134945D01*
X87944588Y-47134944D01*
X87944587Y-47134943D01*
X87829562Y-47061022D01*
X87698367Y-47022500D01*
X87561633Y-47022500D01*
X87430437Y-47061022D01*
X87315412Y-47134943D01*
X87225869Y-47238282D01*
X87169068Y-47362657D01*
X87149610Y-47497999D01*
X86421447Y-47497999D01*
X86400685Y-47463005D01*
X86398496Y-47401713D01*
X86425947Y-47346870D01*
X86510130Y-47249718D01*
X86566931Y-47125342D01*
X86586390Y-46990000D01*
X86566931Y-46854658D01*
X86510130Y-46730282D01*
X86420589Y-46626945D01*
X86420588Y-46626944D01*
X86420587Y-46626943D01*
X86305562Y-46553022D01*
X86174367Y-46514500D01*
X86037633Y-46514500D01*
X85906437Y-46553022D01*
X85791410Y-46626944D01*
X85691713Y-46742003D01*
X85649512Y-46773595D01*
X85598000Y-46784801D01*
X85546488Y-46773595D01*
X85504287Y-46742003D01*
X85404589Y-46626944D01*
X85289562Y-46553022D01*
X85158367Y-46514500D01*
X85021633Y-46514500D01*
X84890437Y-46553022D01*
X84775409Y-46626944D01*
X84703746Y-46709650D01*
X84661544Y-46741242D01*
X84610033Y-46752448D01*
X84558521Y-46741242D01*
X84516319Y-46709650D01*
X84445087Y-46627443D01*
X84330062Y-46553522D01*
X84198867Y-46515000D01*
X84062133Y-46515000D01*
X83930937Y-46553522D01*
X83815910Y-46627444D01*
X83724213Y-46733270D01*
X83682012Y-46764862D01*
X83630500Y-46776068D01*
X83578988Y-46764862D01*
X83536787Y-46733270D01*
X83445089Y-46627444D01*
X83330062Y-46553522D01*
X83198867Y-46515000D01*
X83062133Y-46515000D01*
X82930937Y-46553522D01*
X82815912Y-46627443D01*
X82726369Y-46730782D01*
X82669568Y-46855157D01*
X82650110Y-46990500D01*
X80000000Y-46990500D01*
X80000000Y-45466000D01*
X87657610Y-45466000D01*
X87677068Y-45601342D01*
X87733869Y-45725717D01*
X87823412Y-45829056D01*
X87938437Y-45902977D01*
X87938439Y-45902978D01*
X88069633Y-45941500D01*
X88206367Y-45941500D01*
X88337561Y-45902978D01*
X88452589Y-45829055D01*
X88542130Y-45725718D01*
X88598931Y-45601342D01*
X88618390Y-45466000D01*
X88598931Y-45330658D01*
X88542130Y-45206282D01*
X88452589Y-45102945D01*
X88452588Y-45102944D01*
X88452587Y-45102943D01*
X88337562Y-45029022D01*
X88206367Y-44990500D01*
X88069633Y-44990500D01*
X87938437Y-45029022D01*
X87823412Y-45102943D01*
X87733869Y-45206282D01*
X87677068Y-45330657D01*
X87657610Y-45466000D01*
X80000000Y-45466000D01*
X80000000Y-44527343D01*
X81652048Y-44527343D01*
X81671506Y-44662685D01*
X81728307Y-44787060D01*
X81817850Y-44890399D01*
X81932875Y-44964320D01*
X81932877Y-44964321D01*
X82064071Y-45002843D01*
X82200805Y-45002843D01*
X82331999Y-44964321D01*
X82447027Y-44890398D01*
X82536568Y-44787061D01*
X82593369Y-44662685D01*
X82612828Y-44527343D01*
X85067106Y-44527343D01*
X85086564Y-44662685D01*
X85143365Y-44787060D01*
X85232908Y-44890399D01*
X85347933Y-44964320D01*
X85347935Y-44964321D01*
X85479129Y-45002843D01*
X85615863Y-45002843D01*
X85747057Y-44964321D01*
X85862085Y-44890398D01*
X85951626Y-44787061D01*
X86008427Y-44662685D01*
X86027886Y-44527343D01*
X86008427Y-44392001D01*
X85951626Y-44267625D01*
X85889562Y-44195999D01*
X87911610Y-44195999D01*
X87931068Y-44331342D01*
X87987869Y-44455717D01*
X88077412Y-44559056D01*
X88192437Y-44632977D01*
X88192439Y-44632978D01*
X88323633Y-44671500D01*
X88460367Y-44671500D01*
X88591561Y-44632978D01*
X88706589Y-44559055D01*
X88796130Y-44455718D01*
X88852931Y-44331342D01*
X88872390Y-44196000D01*
X88852931Y-44060658D01*
X88848905Y-44051843D01*
X88796130Y-43936282D01*
X88706587Y-43832943D01*
X88591562Y-43759022D01*
X88460367Y-43720500D01*
X88323633Y-43720500D01*
X88192437Y-43759022D01*
X88077412Y-43832943D01*
X87987869Y-43936282D01*
X87931068Y-44060657D01*
X87911610Y-44195999D01*
X85889562Y-44195999D01*
X85862085Y-44164288D01*
X85862084Y-44164287D01*
X85862083Y-44164286D01*
X85747058Y-44090365D01*
X85615863Y-44051843D01*
X85479129Y-44051843D01*
X85347933Y-44090365D01*
X85232908Y-44164286D01*
X85143365Y-44267625D01*
X85086564Y-44392000D01*
X85067106Y-44527343D01*
X82612828Y-44527343D01*
X82593369Y-44392001D01*
X82536568Y-44267625D01*
X82447027Y-44164288D01*
X82447026Y-44164287D01*
X82447025Y-44164286D01*
X82332000Y-44090365D01*
X82200805Y-44051843D01*
X82064071Y-44051843D01*
X81932875Y-44090365D01*
X81817850Y-44164286D01*
X81728307Y-44267625D01*
X81671506Y-44392000D01*
X81652048Y-44527343D01*
X80000000Y-44527343D01*
X80000000Y-42490500D01*
X81450536Y-42490500D01*
X81469994Y-42625842D01*
X81526795Y-42750217D01*
X81616338Y-42853556D01*
X81731363Y-42927477D01*
X81731365Y-42927478D01*
X81862559Y-42966000D01*
X81999293Y-42966000D01*
X82130487Y-42927478D01*
X82245515Y-42853555D01*
X82335056Y-42750218D01*
X82339495Y-42740499D01*
X85150110Y-42740499D01*
X85169568Y-42875842D01*
X85226369Y-43000217D01*
X85315912Y-43103556D01*
X85430937Y-43177477D01*
X85430939Y-43177478D01*
X85562133Y-43216000D01*
X85698867Y-43216000D01*
X85830061Y-43177478D01*
X85945089Y-43103555D01*
X86034630Y-43000218D01*
X86091431Y-42875842D01*
X86110890Y-42740500D01*
X86091431Y-42605158D01*
X86034630Y-42480782D01*
X85945089Y-42377445D01*
X85945088Y-42377444D01*
X85945087Y-42377443D01*
X85830062Y-42303522D01*
X85698867Y-42265000D01*
X85562133Y-42265000D01*
X85430937Y-42303522D01*
X85315912Y-42377443D01*
X85226369Y-42480782D01*
X85169568Y-42605157D01*
X85150110Y-42740499D01*
X82339495Y-42740499D01*
X82391857Y-42625842D01*
X82411316Y-42490500D01*
X82391857Y-42355158D01*
X82388121Y-42346978D01*
X82335056Y-42230782D01*
X82245513Y-42127443D01*
X82130488Y-42053522D01*
X81999293Y-42015000D01*
X81862559Y-42015000D01*
X81731363Y-42053522D01*
X81616338Y-42127443D01*
X81526795Y-42230782D01*
X81469994Y-42355157D01*
X81450536Y-42490500D01*
X80000000Y-42490500D01*
X80000000Y-41046611D01*
X81643838Y-41046611D01*
X81663296Y-41181953D01*
X81720097Y-41306328D01*
X81809640Y-41409667D01*
X81908224Y-41473022D01*
X81924667Y-41483589D01*
X82055861Y-41522111D01*
X82192595Y-41522111D01*
X82323789Y-41483589D01*
X82438817Y-41409666D01*
X82528358Y-41306329D01*
X82585159Y-41181953D01*
X82599897Y-41079448D01*
X85083524Y-41079448D01*
X85102982Y-41214790D01*
X85159783Y-41339165D01*
X85249326Y-41442504D01*
X85355995Y-41511055D01*
X85364353Y-41516426D01*
X85495547Y-41554948D01*
X85632281Y-41554948D01*
X85763475Y-41516426D01*
X85878503Y-41442503D01*
X85968044Y-41339166D01*
X86024845Y-41214790D01*
X86034448Y-41147999D01*
X87911610Y-41147999D01*
X87931068Y-41283342D01*
X87987869Y-41407717D01*
X88077411Y-41511055D01*
X88163319Y-41566264D01*
X88203667Y-41608579D01*
X88220140Y-41664679D01*
X88209075Y-41722091D01*
X88185068Y-41774658D01*
X88165610Y-41909999D01*
X88185068Y-42045342D01*
X88241869Y-42169717D01*
X88331412Y-42273056D01*
X88378819Y-42303522D01*
X88446439Y-42346978D01*
X88577633Y-42385500D01*
X88714367Y-42385500D01*
X88845561Y-42346978D01*
X88960589Y-42273055D01*
X89050130Y-42169718D01*
X89106931Y-42045342D01*
X89126390Y-41910000D01*
X89106931Y-41774658D01*
X89082924Y-41722091D01*
X89050130Y-41650282D01*
X88977329Y-41566264D01*
X88960589Y-41546945D01*
X88960588Y-41546944D01*
X88874680Y-41491735D01*
X88834332Y-41449419D01*
X88817859Y-41393318D01*
X88828924Y-41335908D01*
X88852931Y-41283342D01*
X88872390Y-41148000D01*
X88852931Y-41012658D01*
X88806627Y-40911268D01*
X88796130Y-40888282D01*
X88706587Y-40784943D01*
X88591562Y-40711022D01*
X88460367Y-40672500D01*
X88365531Y-40672500D01*
X88298492Y-40652815D01*
X88277593Y-40628697D01*
X88258182Y-40671202D01*
X88199404Y-40708977D01*
X88192437Y-40711022D01*
X88077412Y-40784943D01*
X87987869Y-40888282D01*
X87931068Y-41012657D01*
X87911610Y-41147999D01*
X86034448Y-41147999D01*
X86044304Y-41079448D01*
X86024845Y-40944106D01*
X86009848Y-40911268D01*
X85968044Y-40819730D01*
X85878501Y-40716391D01*
X85763476Y-40642470D01*
X85632281Y-40603948D01*
X85495547Y-40603948D01*
X85364351Y-40642470D01*
X85249326Y-40716391D01*
X85159783Y-40819730D01*
X85102982Y-40944105D01*
X85083524Y-41079448D01*
X82599897Y-41079448D01*
X82604618Y-41046611D01*
X82585159Y-40911269D01*
X82528358Y-40786893D01*
X82438817Y-40683556D01*
X82438816Y-40683555D01*
X82438815Y-40683554D01*
X82323790Y-40609633D01*
X82192595Y-40571111D01*
X82055861Y-40571111D01*
X81924665Y-40609633D01*
X81809640Y-40683554D01*
X81720097Y-40786893D01*
X81663296Y-40911268D01*
X81643838Y-41046611D01*
X80000000Y-41046611D01*
X80000000Y-39990499D01*
X87657610Y-39990499D01*
X87677068Y-40125842D01*
X87733869Y-40250217D01*
X87823412Y-40353556D01*
X87938437Y-40427477D01*
X87938439Y-40427478D01*
X88069633Y-40466000D01*
X88164469Y-40466000D01*
X88231508Y-40485685D01*
X88252406Y-40509802D01*
X88271818Y-40467298D01*
X88330596Y-40429523D01*
X88337561Y-40427478D01*
X88452589Y-40353555D01*
X88542130Y-40250218D01*
X88598931Y-40125842D01*
X88618390Y-39990500D01*
X88598931Y-39855158D01*
X88542130Y-39730782D01*
X88452589Y-39627445D01*
X88452588Y-39627444D01*
X88452587Y-39627443D01*
X88337562Y-39553522D01*
X88206367Y-39515000D01*
X88069633Y-39515000D01*
X87938437Y-39553522D01*
X87823412Y-39627443D01*
X87733869Y-39730782D01*
X87677068Y-39855157D01*
X87657610Y-39990499D01*
X80000000Y-39990499D01*
X80000000Y-38374000D01*
X80016613Y-38312000D01*
X80062000Y-38266613D01*
X80124000Y-38250000D01*
X80388912Y-38250000D01*
X80455951Y-38269685D01*
G37*
%TD.AperFunction*%
%TD*%
%TA.AperFunction,Conductor*%
%TO.N,+1V8*%
G36*
X82032877Y-55748545D02*
G01*
X82078529Y-55793961D01*
X82095250Y-55856147D01*
X82095250Y-62483407D01*
X82086859Y-62528246D01*
X82062822Y-62567016D01*
X79134880Y-65773807D01*
X79084370Y-65807202D01*
X79024068Y-65812696D01*
X78968355Y-65788981D01*
X78930514Y-65741710D01*
X78890130Y-65653282D01*
X78800587Y-65549943D01*
X78685562Y-65476022D01*
X78554367Y-65437500D01*
X78417633Y-65437500D01*
X78286437Y-65476022D01*
X78171412Y-65549943D01*
X78081869Y-65653282D01*
X78025068Y-65777657D01*
X78005610Y-65913000D01*
X78025068Y-66048342D01*
X78081869Y-66172717D01*
X78171412Y-66276056D01*
X78286437Y-66349977D01*
X78286439Y-66349978D01*
X78350131Y-66368679D01*
X78403444Y-66400546D01*
X78434616Y-66454269D01*
X78435825Y-66516369D01*
X78406767Y-66571265D01*
X73732129Y-71691109D01*
X73690599Y-71720954D01*
X73640557Y-71731500D01*
X68097698Y-71731500D01*
X68051612Y-71722618D01*
X68012128Y-71697243D01*
X67984904Y-71659011D01*
X67968131Y-71622283D01*
X67878587Y-71518943D01*
X67763562Y-71445022D01*
X67632367Y-71406500D01*
X67495633Y-71406500D01*
X67364437Y-71445022D01*
X67249412Y-71518943D01*
X67159868Y-71622283D01*
X67143096Y-71659011D01*
X67115872Y-71697243D01*
X67076388Y-71722618D01*
X67030302Y-71731500D01*
X59095250Y-71731500D01*
X58992080Y-76064657D01*
X58916720Y-79229756D01*
X58899145Y-79290500D01*
X58853901Y-79334680D01*
X58792755Y-79350804D01*
X57585003Y-79350804D01*
X57541197Y-79342808D01*
X57503039Y-79319852D01*
X57469717Y-79290500D01*
X53961261Y-76200000D01*
X55319610Y-76200000D01*
X55339068Y-76335342D01*
X55395869Y-76459717D01*
X55485412Y-76563056D01*
X55542899Y-76600000D01*
X55600439Y-76636978D01*
X55731633Y-76675500D01*
X55868367Y-76675500D01*
X55999561Y-76636978D01*
X56114589Y-76563055D01*
X56204130Y-76459718D01*
X56260931Y-76335342D01*
X56280390Y-76200000D01*
X56260931Y-76064658D01*
X56204130Y-75940282D01*
X56114589Y-75836945D01*
X56114588Y-75836944D01*
X56114587Y-75836943D01*
X55999562Y-75763022D01*
X55868367Y-75724500D01*
X55731633Y-75724500D01*
X55600437Y-75763022D01*
X55485412Y-75836943D01*
X55395869Y-75940282D01*
X55339068Y-76064657D01*
X55319610Y-76200000D01*
X53961261Y-76200000D01*
X53875550Y-76124500D01*
X49931161Y-72649999D01*
X51369610Y-72649999D01*
X51389068Y-72785342D01*
X51445869Y-72909717D01*
X51535412Y-73013056D01*
X51647213Y-73084905D01*
X51650439Y-73086978D01*
X51781633Y-73125500D01*
X51918367Y-73125500D01*
X52049561Y-73086978D01*
X52164589Y-73013055D01*
X52254130Y-72909718D01*
X52310931Y-72785342D01*
X52330390Y-72650000D01*
X52310931Y-72514658D01*
X52254130Y-72390282D01*
X52164589Y-72286945D01*
X52164588Y-72286944D01*
X52164587Y-72286943D01*
X52049562Y-72213022D01*
X51918367Y-72174500D01*
X51781633Y-72174500D01*
X51650437Y-72213022D01*
X51535412Y-72286943D01*
X51445869Y-72390282D01*
X51389068Y-72514657D01*
X51369610Y-72649999D01*
X49931161Y-72649999D01*
X47887732Y-70850000D01*
X54555860Y-70850000D01*
X54575318Y-70985342D01*
X54632119Y-71109717D01*
X54721662Y-71213056D01*
X54809069Y-71269228D01*
X54836689Y-71286978D01*
X54967883Y-71325500D01*
X55104617Y-71325500D01*
X55235811Y-71286978D01*
X55350839Y-71213055D01*
X55440380Y-71109718D01*
X55497181Y-70985342D01*
X55516640Y-70850000D01*
X55497181Y-70714658D01*
X55495593Y-70711181D01*
X55450298Y-70612000D01*
X70639610Y-70612000D01*
X70659068Y-70747342D01*
X70715869Y-70871717D01*
X70805412Y-70975056D01*
X70920437Y-71048977D01*
X70920439Y-71048978D01*
X71051633Y-71087500D01*
X71188367Y-71087500D01*
X71319561Y-71048978D01*
X71434589Y-70975055D01*
X71524130Y-70871718D01*
X71542155Y-70832250D01*
X72578360Y-70832250D01*
X72597818Y-70967592D01*
X72654619Y-71091967D01*
X72744162Y-71195306D01*
X72832076Y-71251804D01*
X72859189Y-71269228D01*
X72990383Y-71307750D01*
X73127117Y-71307750D01*
X73258311Y-71269228D01*
X73373339Y-71195305D01*
X73462880Y-71091968D01*
X73519681Y-70967592D01*
X73539140Y-70832250D01*
X73519681Y-70696908D01*
X73462880Y-70572532D01*
X73373339Y-70469195D01*
X73373338Y-70469194D01*
X73373337Y-70469193D01*
X73258312Y-70395272D01*
X73127117Y-70356750D01*
X72990383Y-70356750D01*
X72859187Y-70395272D01*
X72744162Y-70469193D01*
X72654619Y-70572532D01*
X72597818Y-70696907D01*
X72578360Y-70832250D01*
X71542155Y-70832250D01*
X71580931Y-70747342D01*
X71600390Y-70612000D01*
X71580931Y-70476658D01*
X71524130Y-70352282D01*
X71434589Y-70248945D01*
X71434588Y-70248944D01*
X71434587Y-70248943D01*
X71319562Y-70175022D01*
X71188367Y-70136500D01*
X71051633Y-70136500D01*
X70920437Y-70175022D01*
X70805412Y-70248943D01*
X70715869Y-70352282D01*
X70659068Y-70476657D01*
X70639610Y-70612000D01*
X55450298Y-70612000D01*
X55440380Y-70590282D01*
X55350837Y-70486943D01*
X55235812Y-70413022D01*
X55104617Y-70374500D01*
X54967883Y-70374500D01*
X54836687Y-70413022D01*
X54721662Y-70486943D01*
X54632119Y-70590282D01*
X54575318Y-70714657D01*
X54555860Y-70850000D01*
X47887732Y-70850000D01*
X46468683Y-69600000D01*
X48955860Y-69600000D01*
X48975318Y-69735342D01*
X49032119Y-69859717D01*
X49121662Y-69963056D01*
X49172550Y-69995759D01*
X49236689Y-70036978D01*
X49367883Y-70075500D01*
X49504617Y-70075500D01*
X49635811Y-70036978D01*
X49750839Y-69963055D01*
X49840380Y-69859718D01*
X49897181Y-69735342D01*
X49916640Y-69600000D01*
X49897181Y-69464658D01*
X49890969Y-69451056D01*
X49867652Y-69400000D01*
X57355860Y-69400000D01*
X57375318Y-69535342D01*
X57432119Y-69659717D01*
X57521662Y-69763056D01*
X57636687Y-69836977D01*
X57636689Y-69836978D01*
X57767883Y-69875500D01*
X57904617Y-69875500D01*
X58035811Y-69836978D01*
X58150839Y-69763055D01*
X58240380Y-69659718D01*
X58297181Y-69535342D01*
X58316640Y-69400000D01*
X58297181Y-69264658D01*
X58278312Y-69223342D01*
X58240380Y-69140282D01*
X58195077Y-69087999D01*
X66321610Y-69087999D01*
X66341068Y-69223342D01*
X66397869Y-69347717D01*
X66487412Y-69451056D01*
X66602437Y-69524977D01*
X66602439Y-69524978D01*
X66733633Y-69563500D01*
X66870367Y-69563500D01*
X67001561Y-69524978D01*
X67116589Y-69451055D01*
X67206130Y-69347718D01*
X67262931Y-69223342D01*
X67282390Y-69088000D01*
X67262931Y-68952658D01*
X67239592Y-68901554D01*
X67206130Y-68828282D01*
X67116587Y-68724943D01*
X67001562Y-68651022D01*
X66870367Y-68612500D01*
X66733633Y-68612500D01*
X66602437Y-68651022D01*
X66487412Y-68724943D01*
X66397869Y-68828282D01*
X66341068Y-68952657D01*
X66321610Y-69087999D01*
X58195077Y-69087999D01*
X58150837Y-69036943D01*
X58035812Y-68963022D01*
X57904617Y-68924500D01*
X57767883Y-68924500D01*
X57636687Y-68963022D01*
X57521662Y-69036943D01*
X57432119Y-69140282D01*
X57375318Y-69264657D01*
X57355860Y-69400000D01*
X49867652Y-69400000D01*
X49840380Y-69340282D01*
X49750837Y-69236943D01*
X49635812Y-69163022D01*
X49504617Y-69124500D01*
X49367883Y-69124500D01*
X49236687Y-69163022D01*
X49121662Y-69236943D01*
X49032119Y-69340282D01*
X48975318Y-69464657D01*
X48955860Y-69600000D01*
X46468683Y-69600000D01*
X45217368Y-68497752D01*
X45186329Y-68455756D01*
X45175332Y-68404704D01*
X45175332Y-67200000D01*
X59219610Y-67200000D01*
X59239068Y-67335342D01*
X59295869Y-67459717D01*
X59385412Y-67563056D01*
X59500437Y-67636977D01*
X59500439Y-67636978D01*
X59631633Y-67675500D01*
X59768367Y-67675500D01*
X59899561Y-67636978D01*
X60014589Y-67563055D01*
X60104130Y-67459718D01*
X60160931Y-67335342D01*
X60180390Y-67200000D01*
X60160931Y-67064658D01*
X60159588Y-67061718D01*
X60104130Y-66940282D01*
X60104129Y-66940281D01*
X60014589Y-66836945D01*
X60014588Y-66836944D01*
X60014587Y-66836943D01*
X59899562Y-66763022D01*
X59768367Y-66724500D01*
X59631633Y-66724500D01*
X59500437Y-66763022D01*
X59385412Y-66836943D01*
X59295869Y-66940282D01*
X59239068Y-67064657D01*
X59219610Y-67200000D01*
X45175332Y-67200000D01*
X45175332Y-66600000D01*
X46155860Y-66600000D01*
X46175318Y-66735342D01*
X46232119Y-66859717D01*
X46321662Y-66963056D01*
X46436687Y-67036977D01*
X46436689Y-67036978D01*
X46567883Y-67075500D01*
X46704617Y-67075500D01*
X46835811Y-67036978D01*
X46950839Y-66963055D01*
X47040380Y-66859718D01*
X47097181Y-66735342D01*
X47116640Y-66600000D01*
X47097181Y-66464658D01*
X47096121Y-66462338D01*
X47067652Y-66400000D01*
X49020860Y-66400000D01*
X49040318Y-66535342D01*
X49097119Y-66659717D01*
X49103133Y-66666658D01*
X49186632Y-66763022D01*
X49186662Y-66763056D01*
X49301687Y-66836977D01*
X49301689Y-66836978D01*
X49432883Y-66875500D01*
X49569617Y-66875500D01*
X49700811Y-66836978D01*
X49815839Y-66763055D01*
X49905380Y-66659718D01*
X49932652Y-66600000D01*
X52955860Y-66600000D01*
X52975318Y-66735342D01*
X53032119Y-66859717D01*
X53121662Y-66963056D01*
X53236687Y-67036977D01*
X53236689Y-67036978D01*
X53367883Y-67075500D01*
X53504617Y-67075500D01*
X53635811Y-67036978D01*
X53750839Y-66963055D01*
X53840380Y-66859718D01*
X53897181Y-66735342D01*
X53916640Y-66600000D01*
X53897181Y-66464658D01*
X53896121Y-66462338D01*
X53868794Y-66402500D01*
X55955860Y-66402500D01*
X55975318Y-66537842D01*
X56032119Y-66662217D01*
X56121662Y-66765556D01*
X56236687Y-66839477D01*
X56236689Y-66839478D01*
X56367883Y-66878000D01*
X56504617Y-66878000D01*
X56635811Y-66839478D01*
X56750839Y-66765555D01*
X56840380Y-66662218D01*
X56892542Y-66548000D01*
X61069610Y-66548000D01*
X61089068Y-66683342D01*
X61145869Y-66807717D01*
X61235412Y-66911056D01*
X61316327Y-66963056D01*
X61350439Y-66984978D01*
X61481633Y-67023500D01*
X61618367Y-67023500D01*
X61749561Y-66984978D01*
X61864589Y-66911055D01*
X61954130Y-66807718D01*
X62010931Y-66683342D01*
X62016897Y-66641840D01*
X62035319Y-66592449D01*
X62072595Y-66555172D01*
X62121988Y-66536749D01*
X62174566Y-66540509D01*
X62234133Y-66558000D01*
X62370866Y-66558000D01*
X62370867Y-66558000D01*
X62428031Y-66541214D01*
X62480612Y-66537454D01*
X62530004Y-66555876D01*
X62567280Y-66593152D01*
X62585703Y-66642545D01*
X62591568Y-66683342D01*
X62648369Y-66807717D01*
X62737912Y-66911056D01*
X62818827Y-66963056D01*
X62852939Y-66984978D01*
X62984133Y-67023500D01*
X63120867Y-67023500D01*
X63252061Y-66984978D01*
X63367089Y-66911055D01*
X63456630Y-66807718D01*
X63513431Y-66683342D01*
X63519296Y-66642545D01*
X63537718Y-66593154D01*
X63574994Y-66555877D01*
X63624387Y-66537454D01*
X63676968Y-66541214D01*
X63734133Y-66558000D01*
X63870865Y-66558000D01*
X63870867Y-66558000D01*
X63922209Y-66542924D01*
X63974785Y-66539164D01*
X64024178Y-66557586D01*
X64061454Y-66594862D01*
X64079877Y-66644255D01*
X64085496Y-66683342D01*
X64142297Y-66807717D01*
X64231840Y-66911056D01*
X64312755Y-66963056D01*
X64346867Y-66984978D01*
X64478061Y-67023500D01*
X64614795Y-67023500D01*
X64745989Y-66984978D01*
X64861017Y-66911055D01*
X64950558Y-66807718D01*
X65007359Y-66683342D01*
X65026818Y-66548000D01*
X67083610Y-66548000D01*
X67103068Y-66683342D01*
X67159869Y-66807717D01*
X67249412Y-66911056D01*
X67330327Y-66963056D01*
X67364439Y-66984978D01*
X67495633Y-67023500D01*
X67632367Y-67023500D01*
X67763561Y-66984978D01*
X67878589Y-66911055D01*
X67968130Y-66807718D01*
X67970742Y-66801999D01*
X69877610Y-66801999D01*
X69897068Y-66937342D01*
X69953869Y-67061717D01*
X70043412Y-67165056D01*
X70097787Y-67200000D01*
X70158439Y-67238978D01*
X70289633Y-67277500D01*
X70426367Y-67277500D01*
X70557561Y-67238978D01*
X70672589Y-67165055D01*
X70762130Y-67061718D01*
X70818931Y-66937342D01*
X70838390Y-66802000D01*
X70838390Y-66801999D01*
X71648741Y-66801999D01*
X71668199Y-66937342D01*
X71725000Y-67061717D01*
X71814543Y-67165056D01*
X71868918Y-67200000D01*
X71929570Y-67238978D01*
X72060764Y-67277500D01*
X72197498Y-67277500D01*
X72328692Y-67238978D01*
X72443720Y-67165055D01*
X72533261Y-67061718D01*
X72590062Y-66937342D01*
X72609521Y-66802000D01*
X72590062Y-66666658D01*
X72590061Y-66666656D01*
X72533261Y-66542282D01*
X72513501Y-66519478D01*
X72443720Y-66438945D01*
X72443719Y-66438944D01*
X72443718Y-66438943D01*
X72383934Y-66400523D01*
X72342140Y-66355634D01*
X72326972Y-66296207D01*
X72342140Y-66236779D01*
X72383934Y-66191891D01*
X72413770Y-66172717D01*
X72450589Y-66149055D01*
X72540130Y-66045718D01*
X72596931Y-65921342D01*
X72616390Y-65786000D01*
X72596931Y-65650658D01*
X72594585Y-65645522D01*
X72540130Y-65526282D01*
X72450587Y-65422943D01*
X72335562Y-65349022D01*
X72204367Y-65310500D01*
X72067633Y-65310500D01*
X71936437Y-65349022D01*
X71821412Y-65422943D01*
X71731869Y-65526282D01*
X71675068Y-65650657D01*
X71655610Y-65786000D01*
X71675068Y-65921342D01*
X71731869Y-66045717D01*
X71731870Y-66045718D01*
X71815975Y-66142782D01*
X71821412Y-66149056D01*
X71881196Y-66187476D01*
X71922990Y-66232364D01*
X71938158Y-66291791D01*
X71922990Y-66351218D01*
X71881198Y-66396107D01*
X71814543Y-66438943D01*
X71725000Y-66542282D01*
X71668199Y-66666657D01*
X71648741Y-66801999D01*
X70838390Y-66801999D01*
X70818931Y-66666658D01*
X70807963Y-66642641D01*
X70796756Y-66591130D01*
X70807961Y-66539617D01*
X70839553Y-66497415D01*
X70885819Y-66472152D01*
X71005611Y-66436978D01*
X71120639Y-66363055D01*
X71210180Y-66259718D01*
X71266981Y-66135342D01*
X71286440Y-66000000D01*
X71266981Y-65864658D01*
X71231058Y-65785999D01*
X71210180Y-65740282D01*
X71120637Y-65636943D01*
X71005612Y-65563022D01*
X70874417Y-65524500D01*
X70737683Y-65524500D01*
X70606487Y-65563022D01*
X70491462Y-65636943D01*
X70401919Y-65740282D01*
X70345118Y-65864657D01*
X70325660Y-66000000D01*
X70345118Y-66135342D01*
X70356087Y-66159359D01*
X70366031Y-66228517D01*
X70337006Y-66292073D01*
X70278229Y-66329848D01*
X70158437Y-66365022D01*
X70043412Y-66438943D01*
X69953869Y-66542282D01*
X69897068Y-66666657D01*
X69877610Y-66801999D01*
X67970742Y-66801999D01*
X68024931Y-66683342D01*
X68044390Y-66548000D01*
X68024931Y-66412658D01*
X68019389Y-66400523D01*
X67968130Y-66288282D01*
X67947659Y-66264657D01*
X67878589Y-66184945D01*
X67878588Y-66184944D01*
X67878587Y-66184943D01*
X67763562Y-66111022D01*
X67632367Y-66072500D01*
X67495633Y-66072500D01*
X67364437Y-66111022D01*
X67249412Y-66184943D01*
X67159869Y-66288282D01*
X67103068Y-66412657D01*
X67083610Y-66548000D01*
X65026818Y-66548000D01*
X65007359Y-66412658D01*
X65001817Y-66400523D01*
X64950558Y-66288282D01*
X64930087Y-66264657D01*
X64861017Y-66184945D01*
X64861016Y-66184944D01*
X64861015Y-66184943D01*
X64745990Y-66111022D01*
X64614795Y-66072500D01*
X64478061Y-66072500D01*
X64478060Y-66072500D01*
X64426722Y-66087574D01*
X64374140Y-66091335D01*
X64324747Y-66072912D01*
X64287472Y-66035635D01*
X64269050Y-65986242D01*
X64263431Y-65947157D01*
X64247832Y-65913000D01*
X68861610Y-65913000D01*
X68881068Y-66048342D01*
X68937869Y-66172717D01*
X69027412Y-66276056D01*
X69142437Y-66349977D01*
X69142439Y-66349978D01*
X69273633Y-66388500D01*
X69410367Y-66388500D01*
X69541561Y-66349978D01*
X69656589Y-66276055D01*
X69746130Y-66172718D01*
X69802931Y-66048342D01*
X69822390Y-65913000D01*
X69802931Y-65777658D01*
X69801172Y-65773807D01*
X69746130Y-65653282D01*
X69656587Y-65549943D01*
X69541562Y-65476022D01*
X69410367Y-65437500D01*
X69273633Y-65437500D01*
X69142437Y-65476022D01*
X69027412Y-65549943D01*
X68937869Y-65653282D01*
X68881068Y-65777657D01*
X68861610Y-65913000D01*
X64247832Y-65913000D01*
X64206630Y-65822782D01*
X64177342Y-65788981D01*
X64117089Y-65719445D01*
X64117088Y-65719444D01*
X64117087Y-65719443D01*
X64002062Y-65645522D01*
X63870867Y-65607000D01*
X63734133Y-65607000D01*
X63602937Y-65645522D01*
X63487912Y-65719443D01*
X63398369Y-65822782D01*
X63341568Y-65947157D01*
X63335703Y-65987954D01*
X63306678Y-66051510D01*
X63247900Y-66089284D01*
X63178031Y-66089284D01*
X63120868Y-66072500D01*
X63120867Y-66072500D01*
X62984133Y-66072500D01*
X62961166Y-66079243D01*
X62926967Y-66089285D01*
X62874385Y-66093045D01*
X62824993Y-66074622D01*
X62787718Y-66037345D01*
X62769296Y-65987952D01*
X62763431Y-65947157D01*
X62706630Y-65822782D01*
X62677342Y-65788981D01*
X62617089Y-65719445D01*
X62617088Y-65719444D01*
X62617087Y-65719443D01*
X62502062Y-65645522D01*
X62370867Y-65607000D01*
X62234133Y-65607000D01*
X62102937Y-65645522D01*
X61987912Y-65719443D01*
X61898369Y-65822782D01*
X61841568Y-65947157D01*
X61835602Y-65988658D01*
X61806577Y-66052213D01*
X61747800Y-66089988D01*
X61677931Y-66089989D01*
X61639025Y-66078565D01*
X61618367Y-66072500D01*
X61481633Y-66072500D01*
X61350437Y-66111022D01*
X61235412Y-66184943D01*
X61145869Y-66288282D01*
X61089068Y-66412657D01*
X61069610Y-66548000D01*
X56892542Y-66548000D01*
X56897181Y-66537842D01*
X56916640Y-66402500D01*
X56897181Y-66267158D01*
X56896039Y-66264658D01*
X56840380Y-66142782D01*
X56794024Y-66089284D01*
X56750839Y-66039445D01*
X56750838Y-66039444D01*
X56750837Y-66039443D01*
X56635812Y-65965522D01*
X56504617Y-65927000D01*
X56367883Y-65927000D01*
X56236687Y-65965522D01*
X56121662Y-66039443D01*
X56032119Y-66142782D01*
X55975318Y-66267157D01*
X55955860Y-66402500D01*
X53868794Y-66402500D01*
X53840380Y-66340282D01*
X53784728Y-66276056D01*
X53750839Y-66236945D01*
X53750838Y-66236944D01*
X53750837Y-66236943D01*
X53635812Y-66163022D01*
X53504617Y-66124500D01*
X53367883Y-66124500D01*
X53236687Y-66163022D01*
X53121662Y-66236943D01*
X53032119Y-66340282D01*
X52975318Y-66464657D01*
X52955860Y-66600000D01*
X49932652Y-66600000D01*
X49962181Y-66535342D01*
X49981640Y-66400000D01*
X49963820Y-66276055D01*
X49962181Y-66264657D01*
X49905380Y-66140282D01*
X49846647Y-66072500D01*
X49815839Y-66036945D01*
X49815838Y-66036944D01*
X49815837Y-66036943D01*
X49700812Y-65963022D01*
X49569617Y-65924500D01*
X49432883Y-65924500D01*
X49301687Y-65963022D01*
X49186662Y-66036943D01*
X49097119Y-66140282D01*
X49040318Y-66264657D01*
X49020860Y-66400000D01*
X47067652Y-66400000D01*
X47040380Y-66340282D01*
X46984728Y-66276056D01*
X46950839Y-66236945D01*
X46950838Y-66236944D01*
X46950837Y-66236943D01*
X46835812Y-66163022D01*
X46704617Y-66124500D01*
X46567883Y-66124500D01*
X46436687Y-66163022D01*
X46321662Y-66236943D01*
X46232119Y-66340282D01*
X46175318Y-66464657D01*
X46155860Y-66600000D01*
X45175332Y-66600000D01*
X45175332Y-63700000D01*
X50519610Y-63700000D01*
X50539068Y-63835342D01*
X50595869Y-63959717D01*
X50685412Y-64063056D01*
X50753029Y-64106510D01*
X50800439Y-64136978D01*
X50931633Y-64175500D01*
X51068367Y-64175500D01*
X51199561Y-64136978D01*
X51314589Y-64063055D01*
X51404130Y-63959718D01*
X51431402Y-63900000D01*
X54482110Y-63900000D01*
X54501568Y-64035342D01*
X54558369Y-64159717D01*
X54558370Y-64159718D01*
X54642040Y-64256280D01*
X54647912Y-64263056D01*
X54762937Y-64336977D01*
X54762939Y-64336978D01*
X54894133Y-64375500D01*
X55030867Y-64375500D01*
X55162061Y-64336978D01*
X55277089Y-64263055D01*
X55366630Y-64159718D01*
X55423431Y-64035342D01*
X55442890Y-63900000D01*
X55423431Y-63764658D01*
X55421175Y-63759719D01*
X55366630Y-63640282D01*
X55277087Y-63536943D01*
X55162062Y-63463022D01*
X55030867Y-63424500D01*
X54894133Y-63424500D01*
X54762937Y-63463022D01*
X54647912Y-63536943D01*
X54558369Y-63640282D01*
X54501568Y-63764657D01*
X54482110Y-63900000D01*
X51431402Y-63900000D01*
X51460931Y-63835342D01*
X51480390Y-63700000D01*
X51460931Y-63564658D01*
X51434013Y-63505717D01*
X51404130Y-63440282D01*
X51314587Y-63336943D01*
X51199562Y-63263022D01*
X51141586Y-63245999D01*
X57177610Y-63245999D01*
X57197068Y-63381342D01*
X57253869Y-63505717D01*
X57343412Y-63609056D01*
X57399279Y-63644959D01*
X57458439Y-63682978D01*
X57589633Y-63721500D01*
X57726367Y-63721500D01*
X57857561Y-63682978D01*
X57972589Y-63609055D01*
X58062130Y-63505718D01*
X58118931Y-63381342D01*
X58138390Y-63246000D01*
X58138390Y-63245999D01*
X64797610Y-63245999D01*
X64817068Y-63381342D01*
X64873869Y-63505717D01*
X64963412Y-63609056D01*
X65019279Y-63644959D01*
X65078439Y-63682978D01*
X65209633Y-63721500D01*
X65346367Y-63721500D01*
X65477561Y-63682978D01*
X65592589Y-63609055D01*
X65682130Y-63505718D01*
X65738931Y-63381342D01*
X65758390Y-63246000D01*
X65738931Y-63110658D01*
X65734545Y-63101055D01*
X65682130Y-62986282D01*
X65639407Y-62936977D01*
X65592589Y-62882945D01*
X65592588Y-62882944D01*
X65592587Y-62882943D01*
X65477562Y-62809022D01*
X65346367Y-62770500D01*
X65209633Y-62770500D01*
X65078437Y-62809022D01*
X64963412Y-62882943D01*
X64873869Y-62986282D01*
X64817068Y-63110657D01*
X64797610Y-63245999D01*
X58138390Y-63245999D01*
X58118931Y-63110658D01*
X58114545Y-63101055D01*
X58074331Y-63012998D01*
X58064493Y-62991457D01*
X58053339Y-62936407D01*
X58067618Y-62882081D01*
X58104403Y-62839629D01*
X58156143Y-62817763D01*
X58212223Y-62820970D01*
X58220437Y-62823382D01*
X58220439Y-62823383D01*
X58351633Y-62861905D01*
X58488367Y-62861905D01*
X58619561Y-62823383D01*
X58734589Y-62749460D01*
X58824130Y-62646123D01*
X58880931Y-62521747D01*
X58900390Y-62386405D01*
X58880931Y-62251063D01*
X58876007Y-62240282D01*
X58824130Y-62126687D01*
X58770361Y-62064634D01*
X58734589Y-62023350D01*
X58734588Y-62023349D01*
X58734587Y-62023348D01*
X58619562Y-61949427D01*
X58488367Y-61910905D01*
X58351633Y-61910905D01*
X58220437Y-61949427D01*
X58105412Y-62023348D01*
X58015869Y-62126687D01*
X57959068Y-62251062D01*
X57939610Y-62386404D01*
X57959068Y-62521747D01*
X58013505Y-62640945D01*
X58024660Y-62695998D01*
X58010381Y-62750323D01*
X57973597Y-62792775D01*
X57921856Y-62814641D01*
X57865776Y-62811434D01*
X57726367Y-62770500D01*
X57589633Y-62770500D01*
X57458437Y-62809022D01*
X57343412Y-62882943D01*
X57253869Y-62986282D01*
X57197068Y-63110657D01*
X57177610Y-63245999D01*
X51141586Y-63245999D01*
X51068367Y-63224500D01*
X50931633Y-63224500D01*
X50800437Y-63263022D01*
X50685412Y-63336943D01*
X50595869Y-63440282D01*
X50539068Y-63564657D01*
X50519610Y-63700000D01*
X45175332Y-63700000D01*
X45175332Y-60959999D01*
X57939610Y-60959999D01*
X57959068Y-61095342D01*
X58015869Y-61219717D01*
X58105412Y-61323056D01*
X58220437Y-61396977D01*
X58220439Y-61396978D01*
X58351633Y-61435500D01*
X58488367Y-61435500D01*
X58619561Y-61396978D01*
X58734589Y-61323055D01*
X58824130Y-61219718D01*
X58826741Y-61214000D01*
X64797610Y-61214000D01*
X64817068Y-61349342D01*
X64873869Y-61473717D01*
X64963412Y-61577056D01*
X65019116Y-61612854D01*
X65078439Y-61650978D01*
X65209633Y-61689500D01*
X65346367Y-61689500D01*
X65477561Y-61650978D01*
X65592589Y-61577055D01*
X65592589Y-61577054D01*
X65597812Y-61573698D01*
X65664851Y-61554014D01*
X65731890Y-61573698D01*
X65777645Y-61626502D01*
X65804089Y-61684404D01*
X65823870Y-61727718D01*
X65913411Y-61831055D01*
X66022080Y-61900891D01*
X66063873Y-61945779D01*
X66079041Y-62005206D01*
X66063873Y-62064634D01*
X66022080Y-62109522D01*
X65979413Y-62136942D01*
X65889869Y-62240282D01*
X65833068Y-62364657D01*
X65813610Y-62500000D01*
X65833068Y-62635342D01*
X65889869Y-62759717D01*
X65905701Y-62777988D01*
X65959112Y-62839629D01*
X65979412Y-62863056D01*
X66010361Y-62882945D01*
X66094439Y-62936978D01*
X66158220Y-62955705D01*
X66210965Y-62987000D01*
X66242262Y-63039746D01*
X66244452Y-63101038D01*
X66216999Y-63155883D01*
X66143870Y-63240280D01*
X66087068Y-63364657D01*
X66067610Y-63500000D01*
X66087068Y-63635342D01*
X66143870Y-63759719D01*
X66228050Y-63856869D01*
X66255503Y-63911713D01*
X66253314Y-63973005D01*
X66222019Y-64025752D01*
X66169273Y-64057048D01*
X66094437Y-64079022D01*
X65979412Y-64152943D01*
X65889869Y-64256282D01*
X65833068Y-64380657D01*
X65813610Y-64515999D01*
X65833068Y-64651342D01*
X65889869Y-64775717D01*
X65979412Y-64879056D01*
X66094437Y-64952977D01*
X66094439Y-64952978D01*
X66225633Y-64991500D01*
X66362367Y-64991500D01*
X66493561Y-64952978D01*
X66608589Y-64879055D01*
X66698130Y-64775718D01*
X66754931Y-64651342D01*
X66774390Y-64516000D01*
X66754931Y-64380658D01*
X66752575Y-64375500D01*
X66698129Y-64256280D01*
X66613949Y-64159130D01*
X66587609Y-64106510D01*
X72770120Y-64106510D01*
X72789578Y-64241852D01*
X72846379Y-64366227D01*
X72935922Y-64469566D01*
X73008176Y-64516000D01*
X73050949Y-64543488D01*
X73182143Y-64582010D01*
X73318877Y-64582010D01*
X73450071Y-64543488D01*
X73565099Y-64469565D01*
X73654640Y-64366228D01*
X73711441Y-64241852D01*
X73730900Y-64106510D01*
X73711441Y-63971168D01*
X73706211Y-63959717D01*
X73654640Y-63846792D01*
X73565098Y-63743454D01*
X73477680Y-63687275D01*
X73437332Y-63644959D01*
X73429666Y-63618854D01*
X73389258Y-63637309D01*
X73330856Y-63634527D01*
X73318878Y-63631010D01*
X73318877Y-63631010D01*
X73182143Y-63631010D01*
X73050947Y-63669532D01*
X72935922Y-63743453D01*
X72846379Y-63846792D01*
X72789578Y-63971167D01*
X72770120Y-64106510D01*
X66587609Y-64106510D01*
X66586496Y-64104286D01*
X66588685Y-64042993D01*
X66619981Y-63990247D01*
X66672726Y-63958951D01*
X66747561Y-63936978D01*
X66862589Y-63863055D01*
X66952130Y-63759718D01*
X67008931Y-63635342D01*
X67028390Y-63500000D01*
X67008931Y-63364658D01*
X67004545Y-63355055D01*
X66952130Y-63240282D01*
X66938455Y-63224500D01*
X66862589Y-63136945D01*
X66862588Y-63136944D01*
X66862587Y-63136943D01*
X66747562Y-63063022D01*
X66683779Y-63044294D01*
X66631033Y-63012998D01*
X66599737Y-62960252D01*
X66597548Y-62898959D01*
X66625001Y-62844115D01*
X66698129Y-62759719D01*
X66698128Y-62759719D01*
X66698130Y-62759718D01*
X66754931Y-62635342D01*
X66774390Y-62500000D01*
X66754931Y-62364658D01*
X66698130Y-62240282D01*
X66689220Y-62229999D01*
X72671610Y-62229999D01*
X72691068Y-62365342D01*
X72747869Y-62489717D01*
X72837412Y-62593056D01*
X72952437Y-62666977D01*
X72952439Y-62666978D01*
X73083633Y-62705500D01*
X73100740Y-62710523D01*
X73100268Y-62712127D01*
X73144737Y-62725184D01*
X73190492Y-62777988D01*
X73200436Y-62847146D01*
X73179610Y-62991999D01*
X73199068Y-63127342D01*
X73255869Y-63251717D01*
X73345412Y-63355056D01*
X73432828Y-63411234D01*
X73473177Y-63453549D01*
X73480842Y-63479654D01*
X73521254Y-63461200D01*
X73579655Y-63463982D01*
X73591633Y-63467500D01*
X73728367Y-63467500D01*
X73859561Y-63428978D01*
X73974589Y-63355055D01*
X74064130Y-63251718D01*
X74120931Y-63127342D01*
X74140390Y-62992000D01*
X74120931Y-62856658D01*
X74105734Y-62823382D01*
X74066741Y-62737999D01*
X74629610Y-62737999D01*
X74649068Y-62873342D01*
X74705869Y-62997717D01*
X74795412Y-63101056D01*
X74880726Y-63155883D01*
X74910439Y-63174978D01*
X75041633Y-63213500D01*
X75178367Y-63213500D01*
X75309561Y-63174978D01*
X75424589Y-63101055D01*
X75514130Y-62997718D01*
X75570931Y-62873342D01*
X75590390Y-62738000D01*
X75570931Y-62602658D01*
X75566545Y-62593055D01*
X75514130Y-62478282D01*
X75424587Y-62374943D01*
X75309562Y-62301022D01*
X75178367Y-62262500D01*
X75041633Y-62262500D01*
X74910437Y-62301022D01*
X74795412Y-62374943D01*
X74705869Y-62478282D01*
X74649068Y-62602657D01*
X74629610Y-62737999D01*
X74066741Y-62737999D01*
X74064130Y-62732282D01*
X74045276Y-62710523D01*
X73974589Y-62628945D01*
X73974588Y-62628944D01*
X73974587Y-62628943D01*
X73859562Y-62555022D01*
X73711260Y-62511477D01*
X73711731Y-62509872D01*
X73667263Y-62496816D01*
X73621508Y-62444012D01*
X73611564Y-62374854D01*
X73618746Y-62324896D01*
X73632390Y-62230000D01*
X73632390Y-62229999D01*
X80107110Y-62229999D01*
X80126568Y-62365342D01*
X80183369Y-62489717D01*
X80272912Y-62593056D01*
X80387937Y-62666977D01*
X80387939Y-62666978D01*
X80519133Y-62705500D01*
X80655867Y-62705500D01*
X80787061Y-62666978D01*
X80902089Y-62593055D01*
X80991630Y-62489718D01*
X81048431Y-62365342D01*
X81067890Y-62230000D01*
X81048431Y-62094658D01*
X81035849Y-62067108D01*
X80991630Y-61970282D01*
X80970398Y-61945779D01*
X80902089Y-61866945D01*
X80902088Y-61866944D01*
X80902087Y-61866943D01*
X80787062Y-61793022D01*
X80655867Y-61754500D01*
X80519133Y-61754500D01*
X80387937Y-61793022D01*
X80272912Y-61866943D01*
X80183369Y-61970282D01*
X80126568Y-62094657D01*
X80107110Y-62229999D01*
X73632390Y-62229999D01*
X73619011Y-62136944D01*
X73611564Y-62085146D01*
X73621508Y-62015988D01*
X73667263Y-61963184D01*
X73711731Y-61950127D01*
X73711260Y-61948523D01*
X73728367Y-61943500D01*
X73859561Y-61904978D01*
X73974589Y-61831055D01*
X74064130Y-61727718D01*
X74064131Y-61727715D01*
X74074286Y-61715996D01*
X74116488Y-61684404D01*
X74168000Y-61673198D01*
X74219512Y-61684404D01*
X74261714Y-61715996D01*
X74271868Y-61727715D01*
X74271870Y-61727718D01*
X74315111Y-61777621D01*
X74361412Y-61831056D01*
X74476437Y-61904977D01*
X74476439Y-61904978D01*
X74607633Y-61943500D01*
X74744367Y-61943500D01*
X74875561Y-61904978D01*
X74990589Y-61831055D01*
X75080130Y-61727718D01*
X75136931Y-61603342D01*
X75156390Y-61468000D01*
X75156390Y-61467999D01*
X77243610Y-61467999D01*
X77263068Y-61603342D01*
X77319869Y-61727717D01*
X77409412Y-61831056D01*
X77524437Y-61904977D01*
X77524439Y-61904978D01*
X77655633Y-61943500D01*
X77792367Y-61943500D01*
X77923561Y-61904978D01*
X78038589Y-61831055D01*
X78128130Y-61727718D01*
X78184931Y-61603342D01*
X78204390Y-61468000D01*
X78184931Y-61332658D01*
X78180545Y-61323055D01*
X78128130Y-61208282D01*
X78038587Y-61104943D01*
X77923562Y-61031022D01*
X77792367Y-60992500D01*
X77655633Y-60992500D01*
X77524437Y-61031022D01*
X77409412Y-61104943D01*
X77319869Y-61208282D01*
X77263068Y-61332657D01*
X77243610Y-61467999D01*
X75156390Y-61467999D01*
X75136931Y-61332658D01*
X75132545Y-61323055D01*
X75080130Y-61208282D01*
X74990587Y-61104943D01*
X74927368Y-61064316D01*
X74885574Y-61019428D01*
X74870406Y-60960000D01*
X74885574Y-60900572D01*
X74927368Y-60855684D01*
X74975646Y-60824658D01*
X74990589Y-60815055D01*
X75080130Y-60711718D01*
X75136931Y-60587342D01*
X75156390Y-60452000D01*
X75136931Y-60316658D01*
X75080130Y-60192282D01*
X74990589Y-60088945D01*
X74990588Y-60088944D01*
X74990587Y-60088943D01*
X74875562Y-60015022D01*
X74744367Y-59976500D01*
X74607633Y-59976500D01*
X74476437Y-60015022D01*
X74361412Y-60088943D01*
X74271869Y-60192282D01*
X74215068Y-60316657D01*
X74195610Y-60451999D01*
X74215068Y-60587342D01*
X74271869Y-60711717D01*
X74361411Y-60815055D01*
X74424632Y-60855684D01*
X74466425Y-60900573D01*
X74481593Y-60960000D01*
X74466425Y-61019427D01*
X74424632Y-61064316D01*
X74361408Y-61104946D01*
X74261713Y-61220003D01*
X74219512Y-61251595D01*
X74168000Y-61262801D01*
X74116488Y-61251595D01*
X74074287Y-61220003D01*
X73974589Y-61104944D01*
X73859562Y-61031022D01*
X73728367Y-60992500D01*
X73591633Y-60992500D01*
X73460437Y-61031022D01*
X73345412Y-61104943D01*
X73255869Y-61208282D01*
X73199068Y-61332657D01*
X73179610Y-61468000D01*
X73200436Y-61612854D01*
X73190492Y-61682012D01*
X73144737Y-61734816D01*
X73100268Y-61747872D01*
X73100740Y-61749477D01*
X72952437Y-61793022D01*
X72837412Y-61866943D01*
X72747869Y-61970282D01*
X72691068Y-62094657D01*
X72671610Y-62229999D01*
X66689220Y-62229999D01*
X66608589Y-62136945D01*
X66608588Y-62136944D01*
X66499919Y-62067108D01*
X66458126Y-62022219D01*
X66442958Y-61962791D01*
X66458127Y-61903364D01*
X66499919Y-61858476D01*
X66542589Y-61831055D01*
X66632130Y-61727718D01*
X66688931Y-61603342D01*
X66708390Y-61468000D01*
X66688931Y-61332658D01*
X66684545Y-61323055D01*
X66632129Y-61208280D01*
X66558068Y-61122808D01*
X66529043Y-61059252D01*
X66538987Y-60990094D01*
X66584742Y-60937290D01*
X66651781Y-60917606D01*
X66726261Y-60917606D01*
X66857455Y-60879084D01*
X66972483Y-60805161D01*
X67062024Y-60701824D01*
X67118825Y-60577448D01*
X67138284Y-60442106D01*
X67119803Y-60313568D01*
X67118825Y-60306763D01*
X67062024Y-60182388D01*
X67022676Y-60136978D01*
X66972483Y-60079051D01*
X66972482Y-60079050D01*
X66972480Y-60079048D01*
X66935467Y-60055261D01*
X66889712Y-60002458D01*
X66879768Y-59933299D01*
X66908793Y-59869743D01*
X66914587Y-59863056D01*
X66914589Y-59863055D01*
X67004130Y-59759718D01*
X67060931Y-59635342D01*
X67080390Y-59500000D01*
X67060931Y-59364658D01*
X67059789Y-59362158D01*
X67025297Y-59286630D01*
X67014142Y-59231577D01*
X67028421Y-59177251D01*
X67065206Y-59134800D01*
X67116947Y-59112934D01*
X67173021Y-59116140D01*
X67286633Y-59149500D01*
X67423364Y-59149500D01*
X67423367Y-59149500D01*
X67481185Y-59132522D01*
X67551048Y-59132522D01*
X67609827Y-59170295D01*
X67638853Y-59233849D01*
X67639067Y-59235339D01*
X67695869Y-59359717D01*
X67785412Y-59463056D01*
X67894577Y-59533211D01*
X67900439Y-59536978D01*
X68031633Y-59575500D01*
X68168367Y-59575500D01*
X68299561Y-59536978D01*
X68414589Y-59463055D01*
X68504130Y-59359718D01*
X68560931Y-59235342D01*
X68561348Y-59232444D01*
X68579768Y-59183055D01*
X68617044Y-59145778D01*
X68666437Y-59127354D01*
X68719019Y-59131114D01*
X68781633Y-59149500D01*
X68918366Y-59149500D01*
X68918367Y-59149500D01*
X68980981Y-59131115D01*
X69050848Y-59131115D01*
X69109626Y-59168888D01*
X69138652Y-59232444D01*
X69139068Y-59235342D01*
X69195869Y-59359717D01*
X69285412Y-59463056D01*
X69394577Y-59533211D01*
X69400439Y-59536978D01*
X69531633Y-59575500D01*
X69668367Y-59575500D01*
X69799561Y-59536978D01*
X69914589Y-59463055D01*
X70004130Y-59359718D01*
X70060931Y-59235342D01*
X70061671Y-59230190D01*
X70080092Y-59180801D01*
X70117368Y-59143524D01*
X70166761Y-59125100D01*
X70219342Y-59128860D01*
X70289633Y-59149500D01*
X70426367Y-59149500D01*
X70557561Y-59110978D01*
X70672589Y-59037055D01*
X70762130Y-58933718D01*
X70818931Y-58809342D01*
X70838390Y-58674000D01*
X70818931Y-58538658D01*
X70815193Y-58530474D01*
X70762130Y-58414282D01*
X70745776Y-58395408D01*
X70672589Y-58310945D01*
X70672588Y-58310944D01*
X70672587Y-58310943D01*
X70557562Y-58237022D01*
X70426367Y-58198500D01*
X70289633Y-58198500D01*
X70158437Y-58237022D01*
X70043412Y-58310943D01*
X69953869Y-58414282D01*
X69897068Y-58538657D01*
X69896328Y-58543810D01*
X69867302Y-58607364D01*
X69808525Y-58645138D01*
X69738656Y-58645138D01*
X69668368Y-58624500D01*
X69668367Y-58624500D01*
X69531633Y-58624500D01*
X69531632Y-58624500D01*
X69469019Y-58642884D01*
X69416436Y-58646645D01*
X69367043Y-58628221D01*
X69329768Y-58590944D01*
X69311347Y-58541550D01*
X69310931Y-58538657D01*
X69254130Y-58414282D01*
X69237776Y-58395408D01*
X69164589Y-58310945D01*
X69164588Y-58310944D01*
X69164587Y-58310943D01*
X69049562Y-58237022D01*
X68918367Y-58198500D01*
X68781633Y-58198500D01*
X68650437Y-58237022D01*
X68535412Y-58310943D01*
X68445869Y-58414282D01*
X68389068Y-58538657D01*
X68388652Y-58541556D01*
X68359626Y-58605111D01*
X68300849Y-58642884D01*
X68230980Y-58642884D01*
X68168368Y-58624500D01*
X68168367Y-58624500D01*
X68031633Y-58624500D01*
X67973818Y-58641476D01*
X67921236Y-58645237D01*
X67871843Y-58626814D01*
X67834567Y-58589538D01*
X67816145Y-58540145D01*
X67815931Y-58538657D01*
X67759130Y-58414282D01*
X67742776Y-58395408D01*
X67669589Y-58310945D01*
X67669588Y-58310944D01*
X67669587Y-58310943D01*
X67554562Y-58237022D01*
X67423367Y-58198500D01*
X67286633Y-58198500D01*
X67155437Y-58237022D01*
X67040412Y-58310943D01*
X66950869Y-58414282D01*
X66894068Y-58538657D01*
X66874610Y-58673999D01*
X66894069Y-58809344D01*
X66929702Y-58887370D01*
X66939646Y-58956528D01*
X66910621Y-59020084D01*
X66851843Y-59057858D01*
X66781974Y-59057858D01*
X66668367Y-59024500D01*
X66531633Y-59024500D01*
X66400437Y-59063022D01*
X66285412Y-59136943D01*
X66195869Y-59240282D01*
X66139068Y-59364657D01*
X66119610Y-59500000D01*
X66139068Y-59635342D01*
X66195869Y-59759717D01*
X66285411Y-59863055D01*
X66322426Y-59886843D01*
X66368181Y-59939647D01*
X66378125Y-60008805D01*
X66349101Y-60072361D01*
X66253763Y-60182388D01*
X66196962Y-60306763D01*
X66177504Y-60442106D01*
X66196962Y-60577448D01*
X66253764Y-60701825D01*
X66327826Y-60787298D01*
X66356851Y-60850854D01*
X66346907Y-60920012D01*
X66301152Y-60972816D01*
X66234113Y-60992500D01*
X66159633Y-60992500D01*
X66028437Y-61031022D01*
X65908186Y-61108301D01*
X65841147Y-61127985D01*
X65774108Y-61108300D01*
X65728354Y-61055497D01*
X65682130Y-60954282D01*
X65592589Y-60850945D01*
X65592588Y-60850944D01*
X65592587Y-60850943D01*
X65477562Y-60777022D01*
X65346367Y-60738500D01*
X65209633Y-60738500D01*
X65078437Y-60777022D01*
X64963412Y-60850943D01*
X64873869Y-60954282D01*
X64817068Y-61078657D01*
X64797610Y-61214000D01*
X58826741Y-61214000D01*
X58880931Y-61095342D01*
X58900390Y-60960000D01*
X58880931Y-60824658D01*
X58876545Y-60815055D01*
X58824130Y-60700282D01*
X58734587Y-60596943D01*
X58619562Y-60523022D01*
X58541156Y-60500000D01*
X63781610Y-60500000D01*
X63801068Y-60635342D01*
X63857869Y-60759717D01*
X63947412Y-60863056D01*
X64062437Y-60936977D01*
X64062439Y-60936978D01*
X64193633Y-60975500D01*
X64330367Y-60975500D01*
X64461561Y-60936978D01*
X64576589Y-60863055D01*
X64666130Y-60759718D01*
X64722931Y-60635342D01*
X64742390Y-60500000D01*
X64734914Y-60448002D01*
X64742101Y-60385367D01*
X64779159Y-60334362D01*
X64836508Y-60308172D01*
X64899323Y-60313568D01*
X64951366Y-60349154D01*
X64963412Y-60363056D01*
X65078437Y-60436977D01*
X65078439Y-60436978D01*
X65209633Y-60475500D01*
X65346367Y-60475500D01*
X65477561Y-60436978D01*
X65592589Y-60363055D01*
X65682130Y-60259718D01*
X65738931Y-60135342D01*
X65758390Y-60000000D01*
X65738931Y-59864658D01*
X65738199Y-59863056D01*
X65682130Y-59740282D01*
X65592587Y-59636943D01*
X65477562Y-59563022D01*
X65346367Y-59524500D01*
X65209633Y-59524500D01*
X65078437Y-59563022D01*
X64963412Y-59636943D01*
X64873869Y-59740282D01*
X64817068Y-59864657D01*
X64797610Y-60000000D01*
X64805085Y-60051998D01*
X64797897Y-60114633D01*
X64760839Y-60165638D01*
X64703490Y-60191827D01*
X64640675Y-60186431D01*
X64588633Y-60150845D01*
X64576617Y-60136978D01*
X64576589Y-60136945D01*
X64576588Y-60136944D01*
X64576587Y-60136943D01*
X64461562Y-60063022D01*
X64330367Y-60024500D01*
X64193633Y-60024500D01*
X64062437Y-60063022D01*
X63947412Y-60136943D01*
X63857869Y-60240282D01*
X63801068Y-60364657D01*
X63781610Y-60500000D01*
X58541156Y-60500000D01*
X58488367Y-60484500D01*
X58351633Y-60484500D01*
X58220437Y-60523022D01*
X58105412Y-60596943D01*
X58015869Y-60700282D01*
X57959068Y-60824657D01*
X57939610Y-60959999D01*
X45175332Y-60959999D01*
X45175332Y-59700000D01*
X46119610Y-59700000D01*
X46139068Y-59835342D01*
X46195869Y-59959717D01*
X46225080Y-59993429D01*
X46285382Y-60063022D01*
X46285412Y-60063056D01*
X46400437Y-60136977D01*
X46400439Y-60136978D01*
X46531633Y-60175500D01*
X46668367Y-60175500D01*
X46799561Y-60136978D01*
X46914589Y-60063055D01*
X47004130Y-59959718D01*
X47060931Y-59835342D01*
X47080390Y-59700000D01*
X47060931Y-59564658D01*
X47048289Y-59536977D01*
X47030261Y-59497500D01*
X48919610Y-59497500D01*
X48939068Y-59632842D01*
X48995869Y-59757217D01*
X49085412Y-59860556D01*
X49117201Y-59880985D01*
X49200439Y-59934478D01*
X49331633Y-59973000D01*
X49468367Y-59973000D01*
X49599561Y-59934478D01*
X49714589Y-59860555D01*
X49804130Y-59757218D01*
X49860931Y-59632842D01*
X49880031Y-59500000D01*
X54519610Y-59500000D01*
X54539068Y-59635342D01*
X54595869Y-59759717D01*
X54685412Y-59863056D01*
X54800437Y-59936977D01*
X54800439Y-59936978D01*
X54931633Y-59975500D01*
X55068367Y-59975500D01*
X55199561Y-59936978D01*
X55314589Y-59863055D01*
X55404130Y-59759718D01*
X55460931Y-59635342D01*
X55480390Y-59500000D01*
X55460931Y-59364658D01*
X55459789Y-59362158D01*
X55404130Y-59240282D01*
X55366977Y-59197405D01*
X55314589Y-59136945D01*
X55314588Y-59136944D01*
X55314587Y-59136943D01*
X55199562Y-59063022D01*
X55068367Y-59024500D01*
X54931633Y-59024500D01*
X54800437Y-59063022D01*
X54685412Y-59136943D01*
X54595869Y-59240282D01*
X54539068Y-59364657D01*
X54519610Y-59500000D01*
X49880031Y-59500000D01*
X49880390Y-59497500D01*
X49863376Y-59379170D01*
X49860931Y-59362157D01*
X49804130Y-59237782D01*
X49772755Y-59201573D01*
X49714589Y-59134445D01*
X49714588Y-59134444D01*
X49714587Y-59134443D01*
X49599562Y-59060522D01*
X49468367Y-59022000D01*
X49331633Y-59022000D01*
X49200437Y-59060522D01*
X49085412Y-59134443D01*
X48995869Y-59237782D01*
X48939068Y-59362157D01*
X48919610Y-59497500D01*
X47030261Y-59497500D01*
X47004130Y-59440282D01*
X46992672Y-59427059D01*
X46914589Y-59336945D01*
X46914588Y-59336944D01*
X46914587Y-59336943D01*
X46799562Y-59263022D01*
X46668367Y-59224500D01*
X46531633Y-59224500D01*
X46400437Y-59263022D01*
X46285412Y-59336943D01*
X46195869Y-59440282D01*
X46139068Y-59564657D01*
X46119610Y-59700000D01*
X45175332Y-59700000D01*
X45175332Y-58054974D01*
X54637610Y-58054974D01*
X54638767Y-58063022D01*
X54657068Y-58190316D01*
X54713869Y-58314691D01*
X54803412Y-58418030D01*
X54918437Y-58491951D01*
X54918439Y-58491952D01*
X55049633Y-58530474D01*
X55186366Y-58530474D01*
X55186367Y-58530474D01*
X55277061Y-58503843D01*
X55329639Y-58500083D01*
X55379032Y-58518505D01*
X55416308Y-58555781D01*
X55434731Y-58605173D01*
X55439068Y-58635342D01*
X55495869Y-58759717D01*
X55509726Y-58775709D01*
X55580144Y-58856977D01*
X55585412Y-58863056D01*
X55695366Y-58933718D01*
X55700439Y-58936978D01*
X55831633Y-58975500D01*
X55968367Y-58975500D01*
X56099561Y-58936978D01*
X56214589Y-58863055D01*
X56304130Y-58759718D01*
X56360931Y-58635342D01*
X56380390Y-58500000D01*
X56368888Y-58420000D01*
X59335110Y-58420000D01*
X59354568Y-58555342D01*
X59411369Y-58679717D01*
X59500912Y-58783056D01*
X59604505Y-58849630D01*
X59615939Y-58856978D01*
X59719130Y-58887277D01*
X59768040Y-58914898D01*
X59799745Y-58961266D01*
X59807739Y-59016865D01*
X59790381Y-59070287D01*
X59751233Y-59110569D01*
X59682297Y-59154871D01*
X59592753Y-59258211D01*
X59535952Y-59382586D01*
X59516494Y-59517928D01*
X59535952Y-59653271D01*
X59592753Y-59777646D01*
X59592754Y-59777647D01*
X59666760Y-59863056D01*
X59682296Y-59880985D01*
X59797321Y-59954906D01*
X59797323Y-59954907D01*
X59928517Y-59993429D01*
X60065251Y-59993429D01*
X60196445Y-59954907D01*
X60311473Y-59880984D01*
X60401014Y-59777647D01*
X60457815Y-59653271D01*
X60475077Y-59533207D01*
X60495455Y-59480867D01*
X60536839Y-59442885D01*
X60590735Y-59427059D01*
X60646084Y-59436638D01*
X60691527Y-59469655D01*
X60783451Y-59575742D01*
X60898478Y-59649664D01*
X60898480Y-59649665D01*
X61029674Y-59688187D01*
X61166408Y-59688187D01*
X61297602Y-59649665D01*
X61412630Y-59575742D01*
X61502171Y-59472405D01*
X61558972Y-59348029D01*
X61573066Y-59250000D01*
X62003610Y-59250000D01*
X62023068Y-59385342D01*
X62079869Y-59509717D01*
X62103490Y-59536977D01*
X62137079Y-59575742D01*
X62169412Y-59613056D01*
X62206585Y-59636945D01*
X62284439Y-59686978D01*
X62415633Y-59725500D01*
X62552367Y-59725500D01*
X62683561Y-59686978D01*
X62798589Y-59613055D01*
X62888130Y-59509718D01*
X62944931Y-59385342D01*
X62963548Y-59255852D01*
X62985278Y-59201573D01*
X63029466Y-59163285D01*
X63086286Y-59149500D01*
X63151714Y-59149500D01*
X63208534Y-59163285D01*
X63252722Y-59201573D01*
X63274451Y-59255852D01*
X63278877Y-59286630D01*
X63293068Y-59385342D01*
X63349869Y-59509717D01*
X63373490Y-59536977D01*
X63407079Y-59575742D01*
X63439412Y-59613056D01*
X63476585Y-59636945D01*
X63554439Y-59686978D01*
X63685633Y-59725500D01*
X63822367Y-59725500D01*
X63953561Y-59686978D01*
X64068589Y-59613055D01*
X64158130Y-59509718D01*
X64214931Y-59385342D01*
X64234390Y-59250000D01*
X64214931Y-59114658D01*
X64213995Y-59112609D01*
X64158130Y-58990282D01*
X64111941Y-58936977D01*
X64068589Y-58886945D01*
X64068588Y-58886944D01*
X64068587Y-58886943D01*
X63953562Y-58813022D01*
X63822367Y-58774500D01*
X63702286Y-58774500D01*
X63645466Y-58760715D01*
X63601278Y-58722427D01*
X63579548Y-58668146D01*
X63578811Y-58663022D01*
X63565176Y-58568183D01*
X63560931Y-58538657D01*
X63504130Y-58414282D01*
X63487776Y-58395408D01*
X63414589Y-58310945D01*
X63414588Y-58310944D01*
X63414587Y-58310943D01*
X63299562Y-58237022D01*
X63168367Y-58198500D01*
X63031633Y-58198500D01*
X62900437Y-58237022D01*
X62785412Y-58310943D01*
X62695869Y-58414282D01*
X62639068Y-58538657D01*
X62626727Y-58624500D01*
X62621189Y-58663022D01*
X62620452Y-58668146D01*
X62598722Y-58722427D01*
X62554534Y-58760715D01*
X62497714Y-58774500D01*
X62415633Y-58774500D01*
X62284437Y-58813022D01*
X62169412Y-58886943D01*
X62079869Y-58990282D01*
X62023068Y-59114657D01*
X62003610Y-59250000D01*
X61573066Y-59250000D01*
X61578431Y-59212687D01*
X61561417Y-59094357D01*
X61558972Y-59077344D01*
X61502171Y-58952969D01*
X61445249Y-58887277D01*
X61412630Y-58849632D01*
X61412629Y-58849631D01*
X61412628Y-58849630D01*
X61297603Y-58775709D01*
X61166408Y-58737187D01*
X61029674Y-58737187D01*
X60898478Y-58775709D01*
X60783453Y-58849630D01*
X60693910Y-58952969D01*
X60637109Y-59077344D01*
X60619848Y-59197405D01*
X60599469Y-59249749D01*
X60558085Y-59287731D01*
X60504189Y-59303556D01*
X60448840Y-59293977D01*
X60403397Y-59260960D01*
X60311473Y-59154873D01*
X60196445Y-59080951D01*
X60093254Y-59050651D01*
X60044343Y-59023029D01*
X60012637Y-58976661D01*
X60004644Y-58921061D01*
X60022003Y-58867639D01*
X60061151Y-58827358D01*
X60068709Y-58822501D01*
X60130089Y-58783055D01*
X60219630Y-58679718D01*
X60276431Y-58555342D01*
X60277416Y-58548485D01*
X60295838Y-58499091D01*
X60333114Y-58461814D01*
X60382508Y-58443391D01*
X60435088Y-58447151D01*
X60531633Y-58475500D01*
X60668367Y-58475500D01*
X60799561Y-58436978D01*
X60914589Y-58363055D01*
X61004130Y-58259718D01*
X61060931Y-58135342D01*
X61075273Y-58035593D01*
X72300911Y-58035593D01*
X72320369Y-58170936D01*
X72377170Y-58295311D01*
X72377171Y-58295312D01*
X72457051Y-58387500D01*
X72466713Y-58398650D01*
X72513837Y-58428934D01*
X72551113Y-58466209D01*
X72569537Y-58515601D01*
X72565777Y-58568183D01*
X72540513Y-58614452D01*
X72493869Y-58668282D01*
X72437068Y-58792657D01*
X72417610Y-58928000D01*
X72437068Y-59063342D01*
X72493869Y-59187717D01*
X72583412Y-59291056D01*
X72697941Y-59364658D01*
X72698439Y-59364978D01*
X72829633Y-59403500D01*
X72966367Y-59403500D01*
X73097561Y-59364978D01*
X73212589Y-59291055D01*
X73302130Y-59187718D01*
X73310457Y-59169484D01*
X73344756Y-59125005D01*
X73395164Y-59100221D01*
X73451335Y-59100220D01*
X73501743Y-59125004D01*
X73536044Y-59169486D01*
X73573369Y-59251217D01*
X73662912Y-59354556D01*
X73775731Y-59427059D01*
X73777939Y-59428478D01*
X73909133Y-59467000D01*
X74045867Y-59467000D01*
X74177061Y-59428478D01*
X74292089Y-59354555D01*
X74381630Y-59251218D01*
X74438431Y-59126842D01*
X74457890Y-58991500D01*
X74438431Y-58856158D01*
X74425278Y-58827358D01*
X74381630Y-58731782D01*
X74331561Y-58673999D01*
X74292089Y-58628445D01*
X74292088Y-58628444D01*
X74292087Y-58628443D01*
X74177062Y-58554522D01*
X74045867Y-58516000D01*
X73909133Y-58516000D01*
X73777937Y-58554522D01*
X73662912Y-58628443D01*
X73573369Y-58731783D01*
X73565042Y-58750016D01*
X73519286Y-58802818D01*
X73452247Y-58822501D01*
X73385209Y-58802816D01*
X73339456Y-58750014D01*
X73302130Y-58668282D01*
X73212589Y-58564945D01*
X73212588Y-58564944D01*
X73212587Y-58564943D01*
X73165463Y-58534659D01*
X73128186Y-58497383D01*
X73109763Y-58447990D01*
X73113524Y-58395408D01*
X73138785Y-58349144D01*
X73185431Y-58295312D01*
X73242232Y-58170936D01*
X73261691Y-58035594D01*
X73243921Y-57912000D01*
X74449610Y-57912000D01*
X74469068Y-58047342D01*
X74525869Y-58171717D01*
X74615412Y-58275056D01*
X74677088Y-58314692D01*
X74730439Y-58348978D01*
X74861633Y-58387500D01*
X74998367Y-58387500D01*
X75129561Y-58348978D01*
X75244589Y-58275055D01*
X75334130Y-58171718D01*
X75390931Y-58047342D01*
X75410390Y-57912000D01*
X80037610Y-57912000D01*
X80057068Y-58047342D01*
X80113869Y-58171717D01*
X80203412Y-58275056D01*
X80265088Y-58314692D01*
X80318439Y-58348978D01*
X80449633Y-58387500D01*
X80586367Y-58387500D01*
X80717561Y-58348978D01*
X80832589Y-58275055D01*
X80922130Y-58171718D01*
X80978931Y-58047342D01*
X80998390Y-57912000D01*
X80978931Y-57776658D01*
X80922130Y-57652282D01*
X80832589Y-57548945D01*
X80832588Y-57548944D01*
X80832587Y-57548943D01*
X80717562Y-57475022D01*
X80586367Y-57436500D01*
X80449633Y-57436500D01*
X80318437Y-57475022D01*
X80203412Y-57548943D01*
X80113869Y-57652282D01*
X80057068Y-57776657D01*
X80037610Y-57912000D01*
X75410390Y-57912000D01*
X75390931Y-57776658D01*
X75334130Y-57652282D01*
X75244589Y-57548945D01*
X75244588Y-57548944D01*
X75244587Y-57548943D01*
X75129562Y-57475022D01*
X74998367Y-57436500D01*
X74861633Y-57436500D01*
X74730437Y-57475022D01*
X74615412Y-57548943D01*
X74525869Y-57652282D01*
X74469068Y-57776657D01*
X74449610Y-57912000D01*
X73243921Y-57912000D01*
X73242232Y-57900252D01*
X73229110Y-57871520D01*
X73185431Y-57775876D01*
X73154589Y-57740282D01*
X73095890Y-57672539D01*
X73095889Y-57672538D01*
X73095888Y-57672537D01*
X72980863Y-57598616D01*
X72849668Y-57560094D01*
X72712934Y-57560094D01*
X72581738Y-57598616D01*
X72466713Y-57672537D01*
X72377170Y-57775876D01*
X72320369Y-57900251D01*
X72300911Y-58035593D01*
X61075273Y-58035593D01*
X61080390Y-58000000D01*
X61060931Y-57864658D01*
X61020742Y-57776658D01*
X61004130Y-57740282D01*
X60914587Y-57636943D01*
X60799562Y-57563022D01*
X60668367Y-57524500D01*
X60531633Y-57524500D01*
X60400437Y-57563022D01*
X60285412Y-57636943D01*
X60195869Y-57740282D01*
X60139067Y-57864660D01*
X60138081Y-57871520D01*
X60109056Y-57935074D01*
X60050278Y-57972847D01*
X59980410Y-57972847D01*
X59883868Y-57944500D01*
X59883867Y-57944500D01*
X59747133Y-57944500D01*
X59615937Y-57983022D01*
X59500912Y-58056943D01*
X59411369Y-58160282D01*
X59354568Y-58284657D01*
X59335110Y-58420000D01*
X56368888Y-58420000D01*
X56360931Y-58364658D01*
X56360199Y-58363056D01*
X56304130Y-58240282D01*
X56260835Y-58190316D01*
X56214589Y-58136945D01*
X56214588Y-58136944D01*
X56214587Y-58136943D01*
X56099562Y-58063022D01*
X55968367Y-58024500D01*
X55831633Y-58024500D01*
X55831632Y-58024500D01*
X55740940Y-58051129D01*
X55688358Y-58054890D01*
X55638966Y-58036467D01*
X55601690Y-57999190D01*
X55583268Y-57949797D01*
X55578931Y-57919631D01*
X55522130Y-57795256D01*
X55432587Y-57691917D01*
X55317562Y-57617996D01*
X55186367Y-57579474D01*
X55049633Y-57579474D01*
X54918437Y-57617996D01*
X54803412Y-57691917D01*
X54713869Y-57795256D01*
X54657068Y-57919631D01*
X54640396Y-58035594D01*
X54637610Y-58054974D01*
X45175332Y-58054974D01*
X45175332Y-57274000D01*
X45191945Y-57212000D01*
X45237332Y-57166613D01*
X45299332Y-57150000D01*
X55245000Y-57150000D01*
X55245000Y-55994701D01*
X55261505Y-55932888D01*
X55306628Y-55887530D01*
X55368354Y-55870703D01*
X61840668Y-55836992D01*
X81970604Y-55732149D01*
X82032877Y-55748545D01*
G37*
%TD.AperFunction*%
%TD*%
M02*
