%TF.GenerationSoftware,KiCad,Pcbnew,7.0.1*%
%TF.CreationDate,2023-04-30T22:37:30+01:00*%
%TF.ProjectId,left_main,6c656674-5f6d-4616-996e-2e6b69636164,rev?*%
%TF.SameCoordinates,Original*%
%TF.FileFunction,Paste,Top*%
%TF.FilePolarity,Positive*%
%FSLAX46Y46*%
G04 Gerber Fmt 4.6, Leading zero omitted, Abs format (unit mm)*
G04 Created by KiCad (PCBNEW 7.0.1) date 2023-04-30 22:37:30*
%MOMM*%
%LPD*%
G01*
G04 APERTURE LIST*
G04 Aperture macros list*
%AMRoundRect*
0 Rectangle with rounded corners*
0 $1 Rounding radius*
0 $2 $3 $4 $5 $6 $7 $8 $9 X,Y pos of 4 corners*
0 Add a 4 corners polygon primitive as box body*
4,1,4,$2,$3,$4,$5,$6,$7,$8,$9,$2,$3,0*
0 Add four circle primitives for the rounded corners*
1,1,$1+$1,$2,$3*
1,1,$1+$1,$4,$5*
1,1,$1+$1,$6,$7*
1,1,$1+$1,$8,$9*
0 Add four rect primitives between the rounded corners*
20,1,$1+$1,$2,$3,$4,$5,0*
20,1,$1+$1,$4,$5,$6,$7,0*
20,1,$1+$1,$6,$7,$8,$9,0*
20,1,$1+$1,$8,$9,$2,$3,0*%
G04 Aperture macros list end*
%ADD10RoundRect,0.155000X-0.212500X-0.155000X0.212500X-0.155000X0.212500X0.155000X-0.212500X0.155000X0*%
%ADD11RoundRect,0.155000X0.155000X-0.212500X0.155000X0.212500X-0.155000X0.212500X-0.155000X-0.212500X0*%
%ADD12RoundRect,0.160000X-0.160000X0.197500X-0.160000X-0.197500X0.160000X-0.197500X0.160000X0.197500X0*%
%ADD13RoundRect,0.155000X0.212500X0.155000X-0.212500X0.155000X-0.212500X-0.155000X0.212500X-0.155000X0*%
%ADD14RoundRect,0.155000X-0.155000X0.212500X-0.155000X-0.212500X0.155000X-0.212500X0.155000X0.212500X0*%
%ADD15RoundRect,0.160000X0.197500X0.160000X-0.197500X0.160000X-0.197500X-0.160000X0.197500X-0.160000X0*%
%ADD16R,0.304800X1.397000*%
%ADD17R,2.641600X2.311400*%
%ADD18RoundRect,0.160000X-0.197500X-0.160000X0.197500X-0.160000X0.197500X0.160000X-0.197500X0.160000X0*%
%ADD19RoundRect,0.160000X0.160000X-0.197500X0.160000X0.197500X-0.160000X0.197500X-0.160000X-0.197500X0*%
%ADD20R,0.900000X1.000000*%
%ADD21RoundRect,0.218750X-0.256250X0.218750X-0.256250X-0.218750X0.256250X-0.218750X0.256250X0.218750X0*%
G04 APERTURE END LIST*
D10*
%TO.C,C16*%
X70298500Y-67564000D03*
X71433500Y-67564000D03*
%TD*%
D11*
%TO.C,C42*%
X64482500Y-51417500D03*
X64482500Y-50282500D03*
%TD*%
D12*
%TO.C,R48*%
X58715000Y-53002500D03*
X58715000Y-54197500D03*
%TD*%
D10*
%TO.C,C66*%
X57151250Y-67902500D03*
X58286250Y-67902500D03*
%TD*%
D13*
%TO.C,C74*%
X51436250Y-66400000D03*
X50301250Y-66400000D03*
%TD*%
D11*
%TO.C,C56*%
X62302500Y-67967500D03*
X62302500Y-66832500D03*
%TD*%
D14*
%TO.C,C5*%
X82442500Y-36507000D03*
X82442500Y-37642000D03*
%TD*%
D15*
%TO.C,R28*%
X76962000Y-62230000D03*
X75767000Y-62230000D03*
%TD*%
D11*
%TO.C,C18*%
X68302000Y-71135500D03*
X68302000Y-70000500D03*
%TD*%
D10*
%TO.C,C23*%
X77918500Y-65151000D03*
X79053500Y-65151000D03*
%TD*%
D16*
%TO.C,J1*%
X63750001Y-76154500D03*
X64250000Y-76154500D03*
X64750001Y-76154500D03*
X65250000Y-76154500D03*
X65750002Y-76154500D03*
X66250001Y-76154500D03*
X66750000Y-76154500D03*
X67250002Y-76154500D03*
X67750000Y-76154500D03*
X68250002Y-76154500D03*
X68750001Y-76154500D03*
X69250000Y-76154500D03*
X69750002Y-76154500D03*
X70250001Y-76154500D03*
X70750002Y-76154500D03*
X71250001Y-76154500D03*
X71750000Y-76154500D03*
X72250002Y-76154500D03*
D17*
X74032500Y-77399100D03*
X61967500Y-77399100D03*
%TD*%
D15*
%TO.C,R54*%
X47197500Y-63852500D03*
X46002500Y-63852500D03*
%TD*%
D10*
%TO.C,C53*%
X57397500Y-55600000D03*
X58532500Y-55600000D03*
%TD*%
D18*
%TO.C,R58*%
X46002500Y-62352500D03*
X47197500Y-62352500D03*
%TD*%
D10*
%TO.C,C2*%
X80063000Y-41240500D03*
X81198000Y-41240500D03*
%TD*%
D19*
%TO.C,R15*%
X66802000Y-68415500D03*
X66802000Y-67220500D03*
%TD*%
D10*
%TO.C,C26*%
X78547000Y-56666000D03*
X79682000Y-56666000D03*
%TD*%
D14*
%TO.C,C4*%
X80192500Y-36507000D03*
X80192500Y-37642000D03*
%TD*%
D19*
%TO.C,R4*%
X88750000Y-56000000D03*
X88750000Y-54805000D03*
%TD*%
D18*
%TO.C,R38*%
X72554500Y-49975000D03*
X73749500Y-49975000D03*
%TD*%
D10*
%TO.C,C57*%
X60265000Y-54500000D03*
X61400000Y-54500000D03*
%TD*%
D14*
%TO.C,C14*%
X70100000Y-62530000D03*
X70100000Y-63665000D03*
%TD*%
D10*
%TO.C,C67*%
X55835000Y-62400000D03*
X56970000Y-62400000D03*
%TD*%
D11*
%TO.C,C51*%
X58715000Y-51417500D03*
X58715000Y-50282500D03*
%TD*%
D18*
%TO.C,R31*%
X75767000Y-63754000D03*
X76962000Y-63754000D03*
%TD*%
D14*
%TO.C,C21*%
X69644000Y-71330000D03*
X69644000Y-72465000D03*
%TD*%
D10*
%TO.C,C64*%
X53186250Y-69350000D03*
X54321250Y-69350000D03*
%TD*%
D19*
%TO.C,R75*%
X81200000Y-50697500D03*
X81200000Y-49502500D03*
%TD*%
D15*
%TO.C,R64*%
X54250000Y-62400000D03*
X53055000Y-62400000D03*
%TD*%
D14*
%TO.C,C48*%
X63802500Y-66832500D03*
X63802500Y-67967500D03*
%TD*%
D11*
%TO.C,C46*%
X61467500Y-50007500D03*
X61467500Y-48872500D03*
%TD*%
D18*
%TO.C,R45*%
X60237500Y-51500000D03*
X61432500Y-51500000D03*
%TD*%
D13*
%TO.C,C63*%
X50167500Y-62352500D03*
X49032500Y-62352500D03*
%TD*%
D14*
%TO.C,C22*%
X76430000Y-67885500D03*
X76430000Y-69020500D03*
%TD*%
D12*
%TO.C,R61*%
X55786250Y-66555000D03*
X55786250Y-67750000D03*
%TD*%
D18*
%TO.C,R62*%
X47600000Y-59497500D03*
X48795000Y-59497500D03*
%TD*%
%TO.C,R39*%
X75348500Y-45959500D03*
X76543500Y-45959500D03*
%TD*%
D15*
%TO.C,R49*%
X62147500Y-69600000D03*
X60952500Y-69600000D03*
%TD*%
D19*
%TO.C,R69*%
X52786250Y-67765000D03*
X52786250Y-66570000D03*
%TD*%
D12*
%TO.C,R6*%
X67600000Y-62500000D03*
X67600000Y-63695000D03*
%TD*%
D11*
%TO.C,C12*%
X67352500Y-60867500D03*
X67352500Y-59732500D03*
%TD*%
D13*
%TO.C,C20*%
X68119500Y-65818000D03*
X66984500Y-65818000D03*
%TD*%
D14*
%TO.C,C15*%
X72750000Y-66234500D03*
X72750000Y-67369500D03*
%TD*%
D15*
%TO.C,R66*%
X54250000Y-59500000D03*
X53055000Y-59500000D03*
%TD*%
%TO.C,R63*%
X58316250Y-66402500D03*
X57121250Y-66402500D03*
%TD*%
D13*
%TO.C,C72*%
X51403750Y-68100000D03*
X50268750Y-68100000D03*
%TD*%
D15*
%TO.C,R35*%
X73648000Y-48615500D03*
X72453000Y-48615500D03*
%TD*%
D10*
%TO.C,C29*%
X79950500Y-59537500D03*
X81085500Y-59537500D03*
%TD*%
D19*
%TO.C,R44*%
X64452500Y-62797500D03*
X64452500Y-61602500D03*
%TD*%
%TO.C,R26*%
X78518000Y-60897000D03*
X78518000Y-59702000D03*
%TD*%
D14*
%TO.C,C49*%
X64452500Y-64232500D03*
X64452500Y-65367500D03*
%TD*%
D10*
%TO.C,C68*%
X50268750Y-69600000D03*
X51403750Y-69600000D03*
%TD*%
D19*
%TO.C,R19*%
X76454000Y-66256500D03*
X76454000Y-65061500D03*
%TD*%
D12*
%TO.C,R32*%
X69342000Y-50187500D03*
X69342000Y-51382500D03*
%TD*%
D11*
%TO.C,C1*%
X78800000Y-46535000D03*
X78800000Y-45400000D03*
%TD*%
D15*
%TO.C,R50*%
X61430000Y-53000000D03*
X60235000Y-53000000D03*
%TD*%
D10*
%TO.C,C30*%
X78621000Y-62254000D03*
X79756000Y-62254000D03*
%TD*%
D14*
%TO.C,C54*%
X60550000Y-58832500D03*
X60550000Y-59967500D03*
%TD*%
D19*
%TO.C,R40*%
X76708000Y-51231000D03*
X76708000Y-50036000D03*
%TD*%
D12*
%TO.C,R21*%
X74954000Y-65061500D03*
X74954000Y-66256500D03*
%TD*%
D19*
%TO.C,R41*%
X62982500Y-54197500D03*
X62982500Y-53002500D03*
%TD*%
D15*
%TO.C,R59*%
X57033750Y-69350000D03*
X55838750Y-69350000D03*
%TD*%
D12*
%TO.C,R24*%
X81114500Y-56818500D03*
X81114500Y-58013500D03*
%TD*%
D10*
%TO.C,C35*%
X69524500Y-52697500D03*
X70659500Y-52697500D03*
%TD*%
D13*
%TO.C,C47*%
X60405165Y-57400000D03*
X59270165Y-57400000D03*
%TD*%
D18*
%TO.C,R55*%
X55838750Y-70850000D03*
X57033750Y-70850000D03*
%TD*%
D15*
%TO.C,R5*%
X81228000Y-43740500D03*
X80033000Y-43740500D03*
%TD*%
D13*
%TO.C,C41*%
X73660000Y-51499000D03*
X72525000Y-51499000D03*
%TD*%
D19*
%TO.C,R42*%
X63100000Y-62797500D03*
X63100000Y-61602500D03*
%TD*%
D11*
%TO.C,C9*%
X68100000Y-58417500D03*
X68100000Y-57282500D03*
%TD*%
D18*
%TO.C,R71*%
X47438750Y-68100000D03*
X48633750Y-68100000D03*
%TD*%
D14*
%TO.C,C40*%
X76708000Y-47316000D03*
X76708000Y-48451000D03*
%TD*%
D18*
%TO.C,R1*%
X86033000Y-46240500D03*
X87228000Y-46240500D03*
%TD*%
D14*
%TO.C,C19*%
X66802000Y-70000500D03*
X66802000Y-71135500D03*
%TD*%
D13*
%TO.C,C32*%
X79756000Y-63754000D03*
X78621000Y-63754000D03*
%TD*%
D11*
%TO.C,C62*%
X58436250Y-70600000D03*
X58436250Y-69465000D03*
%TD*%
%TO.C,C37*%
X72288500Y-47183000D03*
X72288500Y-46048000D03*
%TD*%
D15*
%TO.C,R68*%
X57000000Y-63900000D03*
X55805000Y-63900000D03*
%TD*%
D19*
%TO.C,R74*%
X79800000Y-50697500D03*
X79800000Y-49502500D03*
%TD*%
D10*
%TO.C,C6*%
X87432500Y-53402500D03*
X88567500Y-53402500D03*
%TD*%
%TO.C,C44*%
X63165000Y-55600000D03*
X64300000Y-55600000D03*
%TD*%
D11*
%TO.C,C31*%
X74422000Y-63500000D03*
X74422000Y-62365000D03*
%TD*%
D15*
%TO.C,R14*%
X68149500Y-72568000D03*
X66954500Y-72568000D03*
%TD*%
D12*
%TO.C,R56*%
X51600000Y-62505000D03*
X51600000Y-63700000D03*
%TD*%
D15*
%TO.C,R47*%
X65147500Y-69600000D03*
X63952500Y-69600000D03*
%TD*%
D13*
%TO.C,C77*%
X81198000Y-39990500D03*
X80063000Y-39990500D03*
%TD*%
D14*
%TO.C,C13*%
X70352500Y-59765000D03*
X70352500Y-60900000D03*
%TD*%
%TO.C,C10*%
X69600000Y-57282500D03*
X69600000Y-58417500D03*
%TD*%
%TO.C,C45*%
X62982500Y-50282500D03*
X62982500Y-51417500D03*
%TD*%
D18*
%TO.C,R33*%
X69494500Y-45947500D03*
X70689500Y-45947500D03*
%TD*%
D11*
%TO.C,C24*%
X74930000Y-69020500D03*
X74930000Y-67885500D03*
%TD*%
D12*
%TO.C,R72*%
X61976000Y-33946500D03*
X61976000Y-35141500D03*
%TD*%
D19*
%TO.C,R20*%
X77851000Y-67526500D03*
X77851000Y-66331500D03*
%TD*%
D11*
%TO.C,C34*%
X69342000Y-48505000D03*
X69342000Y-47370000D03*
%TD*%
D19*
%TO.C,R30*%
X81280000Y-63589500D03*
X81280000Y-62394500D03*
%TD*%
D12*
%TO.C,R2*%
X87630500Y-38143000D03*
X87630500Y-39338000D03*
%TD*%
D18*
%TO.C,R25*%
X75767000Y-58166000D03*
X76962000Y-58166000D03*
%TD*%
D19*
%TO.C,R7*%
X68850000Y-63695000D03*
X68850000Y-62500000D03*
%TD*%
D12*
%TO.C,R73*%
X60452000Y-33946500D03*
X60452000Y-35141500D03*
%TD*%
%TO.C,R36*%
X73914000Y-46018000D03*
X73914000Y-47213000D03*
%TD*%
D13*
%TO.C,C28*%
X79682000Y-58166000D03*
X78547000Y-58166000D03*
%TD*%
D15*
%TO.C,R22*%
X73622500Y-71501000D03*
X72427500Y-71501000D03*
%TD*%
D19*
%TO.C,R43*%
X65302500Y-67997500D03*
X65302500Y-66802500D03*
%TD*%
D15*
%TO.C,R67*%
X48698750Y-66400000D03*
X47503750Y-66400000D03*
%TD*%
D13*
%TO.C,C75*%
X81167500Y-52100000D03*
X80032500Y-52100000D03*
%TD*%
D10*
%TO.C,C59*%
X49032500Y-63852500D03*
X50167500Y-63852500D03*
%TD*%
D19*
%TO.C,R17*%
X71144000Y-72495000D03*
X71144000Y-71300000D03*
%TD*%
D14*
%TO.C,C78*%
X63500000Y-33976500D03*
X63500000Y-35111500D03*
%TD*%
D13*
%TO.C,C25*%
X73592500Y-70231000D03*
X72457500Y-70231000D03*
%TD*%
D12*
%TO.C,R46*%
X60085000Y-48902500D03*
X60085000Y-50097500D03*
%TD*%
D14*
%TO.C,C79*%
X65083500Y-33976500D03*
X65083500Y-35111500D03*
%TD*%
D11*
%TO.C,C58*%
X59150000Y-59967500D03*
X59150000Y-58832500D03*
%TD*%
D19*
%TO.C,R52*%
X57215000Y-54197500D03*
X57215000Y-53002500D03*
%TD*%
D11*
%TO.C,C38*%
X75184000Y-48451000D03*
X75184000Y-47316000D03*
%TD*%
D19*
%TO.C,R34*%
X70866000Y-51382500D03*
X70866000Y-50187500D03*
%TD*%
D18*
%TO.C,R51*%
X57367500Y-48850000D03*
X58562500Y-48850000D03*
%TD*%
D12*
%TO.C,R16*%
X68302000Y-67220500D03*
X68302000Y-68415500D03*
%TD*%
D20*
%TO.C,SW2*%
X64750000Y-39700000D03*
X60650000Y-39700000D03*
X64750000Y-38100000D03*
X60650000Y-38100000D03*
%TD*%
D12*
%TO.C,R29*%
X76962000Y-59600500D03*
X76962000Y-60795500D03*
%TD*%
D10*
%TO.C,C69*%
X52995000Y-63900000D03*
X54130000Y-63900000D03*
%TD*%
D11*
%TO.C,C70*%
X46036250Y-67735000D03*
X46036250Y-66600000D03*
%TD*%
%TO.C,C52*%
X61652500Y-65335000D03*
X61652500Y-64200000D03*
%TD*%
%TO.C,C33*%
X75438000Y-60765500D03*
X75438000Y-59630500D03*
%TD*%
D14*
%TO.C,C27*%
X74364500Y-56848500D03*
X74364500Y-57983500D03*
%TD*%
D11*
%TO.C,C76*%
X80200000Y-54967500D03*
X80200000Y-53832500D03*
%TD*%
D13*
%TO.C,C60*%
X54321250Y-70850000D03*
X53186250Y-70850000D03*
%TD*%
D18*
%TO.C,R13*%
X63135000Y-48850000D03*
X64330000Y-48850000D03*
%TD*%
%TO.C,R8*%
X66752500Y-55800000D03*
X67947500Y-55800000D03*
%TD*%
D12*
%TO.C,R37*%
X75184000Y-50036000D03*
X75184000Y-51231000D03*
%TD*%
D14*
%TO.C,C36*%
X70866000Y-47370000D03*
X70866000Y-48505000D03*
%TD*%
%TO.C,C11*%
X68850000Y-59782500D03*
X68850000Y-60917500D03*
%TD*%
D15*
%TO.C,R23*%
X76962000Y-56666000D03*
X75767000Y-56666000D03*
%TD*%
D12*
%TO.C,R10*%
X71100000Y-57252500D03*
X71100000Y-58447500D03*
%TD*%
D11*
%TO.C,C61*%
X46000000Y-60867500D03*
X46000000Y-59732500D03*
%TD*%
D13*
%TO.C,C65*%
X48762500Y-61067500D03*
X47627500Y-61067500D03*
%TD*%
D15*
%TO.C,R18*%
X70967500Y-70044500D03*
X69772500Y-70044500D03*
%TD*%
D19*
%TO.C,R57*%
X54236250Y-67797500D03*
X54236250Y-66602500D03*
%TD*%
%TO.C,R53*%
X60802500Y-67997500D03*
X60802500Y-66802500D03*
%TD*%
D13*
%TO.C,C71*%
X56970000Y-60900000D03*
X55835000Y-60900000D03*
%TD*%
D11*
%TO.C,C7*%
X82800000Y-52129500D03*
X82800000Y-50994500D03*
%TD*%
D12*
%TO.C,R11*%
X66600000Y-57252500D03*
X66600000Y-58447500D03*
%TD*%
D15*
%TO.C,R3*%
X86478000Y-39240500D03*
X85283000Y-39240500D03*
%TD*%
D14*
%TO.C,C55*%
X57215000Y-50282500D03*
X57215000Y-51417500D03*
%TD*%
D18*
%TO.C,R9*%
X69752500Y-55800000D03*
X70947500Y-55800000D03*
%TD*%
D15*
%TO.C,R65*%
X48633750Y-69600000D03*
X47438750Y-69600000D03*
%TD*%
D10*
%TO.C,C39*%
X75378500Y-52633500D03*
X76513500Y-52633500D03*
%TD*%
D21*
%TO.C,D1*%
X87380500Y-43203000D03*
X87380500Y-44778000D03*
%TD*%
D18*
%TO.C,R70*%
X53055000Y-60900000D03*
X54250000Y-60900000D03*
%TD*%
D15*
%TO.C,R27*%
X81115500Y-60960000D03*
X79920500Y-60960000D03*
%TD*%
D11*
%TO.C,C17*%
X71347500Y-66367500D03*
X71347500Y-65232500D03*
%TD*%
D13*
%TO.C,C73*%
X56930000Y-59500000D03*
X55795000Y-59500000D03*
%TD*%
D10*
%TO.C,C3*%
X80063000Y-42490500D03*
X81198000Y-42490500D03*
%TD*%
D12*
%TO.C,R12*%
X64482500Y-53002500D03*
X64482500Y-54197500D03*
%TD*%
D11*
%TO.C,C50*%
X63052500Y-65367500D03*
X63052500Y-64232500D03*
%TD*%
D12*
%TO.C,R60*%
X50195000Y-59700000D03*
X50195000Y-60895000D03*
%TD*%
D14*
%TO.C,C43*%
X61850000Y-61632500D03*
X61850000Y-62767500D03*
%TD*%
D10*
%TO.C,C8*%
X82832500Y-49784000D03*
X83967500Y-49784000D03*
%TD*%
M02*
