%TF.GenerationSoftware,KiCad,Pcbnew,7.0.1*%
%TF.CreationDate,2023-04-30T22:37:30+01:00*%
%TF.ProjectId,left_main,6c656674-5f6d-4616-996e-2e6b69636164,rev?*%
%TF.SameCoordinates,Original*%
%TF.FileFunction,Copper,L4,Bot*%
%TF.FilePolarity,Positive*%
%FSLAX46Y46*%
G04 Gerber Fmt 4.6, Leading zero omitted, Abs format (unit mm)*
G04 Created by KiCad (PCBNEW 7.0.1) date 2023-04-30 22:37:30*
%MOMM*%
%LPD*%
G01*
G04 APERTURE LIST*
G04 Aperture macros list*
%AMRoundRect*
0 Rectangle with rounded corners*
0 $1 Rounding radius*
0 $2 $3 $4 $5 $6 $7 $8 $9 X,Y pos of 4 corners*
0 Add a 4 corners polygon primitive as box body*
4,1,4,$2,$3,$4,$5,$6,$7,$8,$9,$2,$3,0*
0 Add four circle primitives for the rounded corners*
1,1,$1+$1,$2,$3*
1,1,$1+$1,$4,$5*
1,1,$1+$1,$6,$7*
1,1,$1+$1,$8,$9*
0 Add four rect primitives between the rounded corners*
20,1,$1+$1,$2,$3,$4,$5,0*
20,1,$1+$1,$4,$5,$6,$7,0*
20,1,$1+$1,$6,$7,$8,$9,0*
20,1,$1+$1,$8,$9,$2,$3,0*%
G04 Aperture macros list end*
%TA.AperFunction,SMDPad,CuDef*%
%ADD10R,0.600000X1.500000*%
%TD*%
%TA.AperFunction,SMDPad,CuDef*%
%ADD11R,1.500000X0.600000*%
%TD*%
%TA.AperFunction,SMDPad,CuDef*%
%ADD12R,0.760000X2.790000*%
%TD*%
%TA.AperFunction,SMDPad,CuDef*%
%ADD13R,1.780000X1.780000*%
%TD*%
%TA.AperFunction,SMDPad,CuDef*%
%ADD14O,0.650000X0.200000*%
%TD*%
%TA.AperFunction,SMDPad,CuDef*%
%ADD15O,0.200000X0.650000*%
%TD*%
%TA.AperFunction,SMDPad,CuDef*%
%ADD16R,0.875000X0.875000*%
%TD*%
%TA.AperFunction,SMDPad,CuDef*%
%ADD17R,1.000000X1.800000*%
%TD*%
%TA.AperFunction,SMDPad,CuDef*%
%ADD18RoundRect,0.062500X-0.062500X0.375000X-0.062500X-0.375000X0.062500X-0.375000X0.062500X0.375000X0*%
%TD*%
%TA.AperFunction,SMDPad,CuDef*%
%ADD19RoundRect,0.062500X-0.375000X0.062500X-0.375000X-0.062500X0.375000X-0.062500X0.375000X0.062500X0*%
%TD*%
%TA.AperFunction,SMDPad,CuDef*%
%ADD20R,5.100000X5.100000*%
%TD*%
%TA.AperFunction,SMDPad,CuDef*%
%ADD21RoundRect,0.225000X0.375000X-0.225000X0.375000X0.225000X-0.375000X0.225000X-0.375000X-0.225000X0*%
%TD*%
%TA.AperFunction,SMDPad,CuDef*%
%ADD22RoundRect,0.150000X-0.150000X0.512500X-0.150000X-0.512500X0.150000X-0.512500X0.150000X0.512500X0*%
%TD*%
%TA.AperFunction,SMDPad,CuDef*%
%ADD23RoundRect,0.150000X0.150000X-0.512500X0.150000X0.512500X-0.150000X0.512500X-0.150000X-0.512500X0*%
%TD*%
%TA.AperFunction,SMDPad,CuDef*%
%ADD24RoundRect,0.150000X-0.512500X-0.150000X0.512500X-0.150000X0.512500X0.150000X-0.512500X0.150000X0*%
%TD*%
%TA.AperFunction,SMDPad,CuDef*%
%ADD25R,0.254000X0.711200*%
%TD*%
%TA.AperFunction,SMDPad,CuDef*%
%ADD26R,1.295400X0.889000*%
%TD*%
%TA.AperFunction,SMDPad,CuDef*%
%ADD27RoundRect,0.150000X0.512500X0.150000X-0.512500X0.150000X-0.512500X-0.150000X0.512500X-0.150000X0*%
%TD*%
%TA.AperFunction,ViaPad*%
%ADD28C,0.450000*%
%TD*%
%TA.AperFunction,Conductor*%
%ADD29C,0.500000*%
%TD*%
%TA.AperFunction,Conductor*%
%ADD30C,0.250000*%
%TD*%
%TA.AperFunction,Conductor*%
%ADD31C,0.150000*%
%TD*%
%TA.AperFunction,Conductor*%
%ADD32C,0.100000*%
%TD*%
%TA.AperFunction,Conductor*%
%ADD33C,0.127000*%
%TD*%
%TA.AperFunction,Conductor*%
%ADD34C,0.200000*%
%TD*%
G04 APERTURE END LIST*
D10*
%TO.P,U1,1,DR1*%
%TO.N,/DR1*%
X56130000Y-41760000D03*
%TO.P,U1,2,RFS1*%
%TO.N,/RFS1*%
X57130000Y-41760000D03*
%TO.P,U1,3,SCLK1*%
%TO.N,/SCLK1*%
X58130000Y-41760000D03*
%TO.P,U1,4,DT1*%
%TO.N,/DT1*%
X59130000Y-41760000D03*
%TO.P,U1,5,MCLK1*%
%TO.N,/MCLK1*%
X60130000Y-41760000D03*
%TO.P,U1,6,AOHPR*%
%TO.N,/AOHPR*%
X61130000Y-41760000D03*
%TO.P,U1,7,AOHPM*%
%TO.N,/AOHPM*%
X62130000Y-41760000D03*
%TO.P,U1,8,AOHPL*%
%TO.N,/AOHPL*%
X63130000Y-41760000D03*
%TO.P,U1,9,MICN2*%
%TO.N,/MICN2*%
X64130000Y-41760000D03*
%TO.P,U1,10,MICP2*%
%TO.N,/MICP2*%
X65130000Y-41760000D03*
%TO.P,U1,11,AIR*%
%TO.N,/AIR*%
X66130000Y-41760000D03*
%TO.P,U1,12,AIL*%
%TO.N,/AIL*%
X67130000Y-41760000D03*
%TO.P,U1,13,MICN1*%
%TO.N,/MICN1*%
X68130000Y-41760000D03*
%TO.P,U1,14,MICP1*%
%TO.N,/MICP1*%
X69130000Y-41760000D03*
%TO.P,U1,15,MICBIAS*%
%TO.N,/MICBIAS*%
X70130000Y-41760000D03*
%TO.P,U1,16,GND*%
%TO.N,GND*%
X71130000Y-41760000D03*
%TO.P,U1,17,DMIC1_CLK*%
%TO.N,/DMIC1_CLK*%
X72130000Y-41760000D03*
%TO.P,U1,18,DMIC1_R*%
%TO.N,/DMIC1_R*%
X73130000Y-41760000D03*
%TO.P,U1,19,DMIC1_L*%
%TO.N,/DMIC1_L*%
X74130000Y-41760000D03*
%TO.P,U1,20,P3_2*%
%TO.N,/P3_2*%
X75130000Y-41760000D03*
D11*
%TO.P,U1,21,P2_6*%
%TO.N,/P2_6*%
X76780000Y-44510000D03*
%TO.P,U1,22,ADAP_IN*%
%TO.N,/ADAP_IN*%
X76780000Y-45510000D03*
%TO.P,U1,23,BAT_IN*%
%TO.N,+3V3*%
X76780000Y-46510000D03*
%TO.P,U1,24,SYS_PWR*%
%TO.N,/SYS_PWR*%
X76780000Y-47510000D03*
%TO.P,U1,25,VDD_IO*%
%TO.N,/VDD_IO*%
X76780000Y-48510000D03*
%TO.P,U1,26,PWR(MFB)*%
%TO.N,/D4*%
X76780000Y-49510000D03*
%TO.P,U1,27,SK1_AMB_DET*%
%TO.N,/SK1_AMB_DET*%
X76780000Y-50510000D03*
%TO.P,U1,28,SK2_KEY_AD*%
%TO.N,/SK2_KEY_AD*%
X76780000Y-51510000D03*
%TO.P,U1,29,P8_6/UART_RXD*%
%TO.N,/BM83_UART_RX*%
X76780000Y-52510000D03*
%TO.P,U1,30,P8_5/UART_TXD*%
%TO.N,/BM83_UART_TX*%
X76780000Y-53510000D03*
D10*
%TO.P,U1,31,P3_4/UART_RTS*%
%TO.N,/BM83_PROG_EN*%
X75130000Y-56260000D03*
%TO.P,U1,32,LED1*%
%TO.N,/LED1*%
X74130000Y-56260000D03*
%TO.P,U1,33,P0_2*%
%TO.N,/P0_2*%
X73130000Y-56260000D03*
%TO.P,U1,34,LED2*%
%TO.N,/LED2*%
X72130000Y-56260000D03*
%TO.P,U1,35,P0_6*%
%TO.N,/P0_6*%
X71130000Y-56260000D03*
%TO.P,U1,36,DM*%
%TO.N,/DN*%
X70130000Y-56260000D03*
%TO.P,U1,37,DP*%
%TO.N,/DP*%
X69130000Y-56260000D03*
%TO.P,U1,38,P0_3*%
%TO.N,/P0_3*%
X68130000Y-56260000D03*
%TO.P,U1,39,P2_7*%
%TO.N,/P2_7*%
X67130000Y-56260000D03*
%TO.P,U1,40,P0_5*%
%TO.N,/P0_5*%
X66130000Y-56260000D03*
%TO.P,U1,41,P1_6/PWM1*%
%TO.N,/P1_6*%
X65130000Y-56260000D03*
%TO.P,U1,42,P2_3*%
%TO.N,/P2_3*%
X64130000Y-56260000D03*
%TO.P,U1,43,RST_N*%
%TO.N,/~{RESET}*%
X63130000Y-56260000D03*
%TO.P,U1,44,P0_1*%
%TO.N,/P0_1*%
X62130000Y-56260000D03*
%TO.P,U1,45,P0_7*%
%TO.N,/P0_7*%
X61130000Y-56260000D03*
%TO.P,U1,46,P1_2/TDI_CPU/SDL*%
%TO.N,/P1_2*%
X60130000Y-56260000D03*
%TO.P,U1,47,P1_3/TCK_CPU/SDA*%
%TO.N,/P1_3*%
X59130000Y-56260000D03*
%TO.P,U1,48,P3_7/UART_CTS*%
%TO.N,/P3_7*%
X58130000Y-56260000D03*
%TO.P,U1,49,P0_0/UART_TX_IND*%
%TO.N,/P0_0*%
X57130000Y-56260000D03*
D12*
%TO.P,U1,50,GND*%
%TO.N,GND*%
X56450000Y-45470000D03*
D13*
X66560000Y-53530000D03*
D10*
X56130000Y-56260000D03*
%TD*%
D14*
%TO.P,IC1,1,AGND*%
%TO.N,GND*%
X67296428Y-64200000D03*
%TO.P,IC1,2,QLINL*%
%TO.N,Net-(IC1-LINL)*%
X67296428Y-63800000D03*
%TO.P,IC1,3,LINL*%
X67296428Y-63400000D03*
%TO.P,IC1,4,TRSDA*%
%TO.N,unconnected-(IC1-TRSDA-Pad4)*%
X67296428Y-63000000D03*
%TO.P,IC1,5,TRSCL*%
%TO.N,unconnected-(IC1-TRSCL-Pad5)*%
X67296428Y-62600000D03*
%TO.P,IC1,6,LINR*%
%TO.N,Net-(IC1-LINR)*%
X67296428Y-62200000D03*
%TO.P,IC1,7,QLINR*%
%TO.N,Net-(IC1-QLINR)*%
X67296428Y-61800000D03*
%TO.P,IC1,8,ANC/CSDA*%
%TO.N,/I2C_SDA*%
X67296428Y-61400000D03*
%TO.P,IC1,9,MODE/CSCL*%
%TO.N,/I2C_SCL*%
X67296428Y-61000000D03*
D15*
%TO.P,IC1,10,MICACL*%
%TO.N,Net-(IC1-MICACL)*%
X68321428Y-59975000D03*
%TO.P,IC1,11,MICL*%
%TO.N,Net-(IC1-MICL)*%
X68721428Y-59975000D03*
%TO.P,IC1,12,ILED*%
%TO.N,unconnected-(IC1-ILED-Pad12)*%
X69121428Y-59975000D03*
%TO.P,IC1,13,MICS*%
%TO.N,Net-(IC1-MICS)*%
X69521428Y-59975000D03*
%TO.P,IC1,14,MICR*%
%TO.N,Net-(IC1-MICR)*%
X69921428Y-59975000D03*
%TO.P,IC1,15,MICACR*%
%TO.N,Net-(IC1-MICACR)*%
X70321428Y-59975000D03*
%TO.P,IC1,16,QMICR*%
%TO.N,Net-(IC1-QMICR)*%
X70721428Y-59975000D03*
%TO.P,IC1,17,IOP1R*%
%TO.N,/HP_driver_R/IOP1R*%
X71121428Y-59975000D03*
%TO.P,IC1,18,QOP1R*%
%TO.N,/HP_driver_R/QOP1R*%
X71521428Y-59975000D03*
D14*
%TO.P,IC1,19,IOP2R*%
%TO.N,/HP_driver_R/IOP2R*%
X72546428Y-61000000D03*
%TO.P,IC1,20,QOP2R*%
%TO.N,/HP_driver_R/QOP2R*%
X72546428Y-61400000D03*
%TO.P,IC1,21,BPL*%
%TO.N,GND*%
X72546428Y-61800000D03*
%TO.P,IC1,22,HPL*%
%TO.N,/HP_R_-*%
X72546428Y-62200000D03*
%TO.P,IC1,23,MIXL*%
%TO.N,unconnected-(IC1-MIXL-Pad23)*%
X72546428Y-62600000D03*
%TO.P,IC1,24,MIXR*%
%TO.N,Net-(IC1-MIXR)*%
X72546428Y-63000000D03*
%TO.P,IC1,25,HPR*%
%TO.N,/HP_R_+*%
X72546428Y-63400000D03*
%TO.P,IC1,26,BPR*%
%TO.N,/audio_in_R*%
X72546428Y-63800000D03*
%TO.P,IC1,27,VBAT*%
%TO.N,+1V8*%
X72546428Y-64200000D03*
D15*
%TO.P,IC1,28,CPP*%
%TO.N,Net-(IC1-CPP)*%
X71521428Y-65225000D03*
%TO.P,IC1,29,GND*%
%TO.N,GND*%
X71121428Y-65225000D03*
%TO.P,IC1,30,CPN*%
%TO.N,Net-(IC1-CPN)*%
X70721428Y-65225000D03*
%TO.P,IC1,31,VNEG*%
%TO.N,/HP_driver_L/vneg*%
X70321428Y-65225000D03*
%TO.P,IC1,32,QOP2L*%
%TO.N,unconnected-(IC1-QOP2L-Pad32)*%
X69921428Y-65225000D03*
%TO.P,IC1,33,IOP2L*%
%TO.N,unconnected-(IC1-IOP2L-Pad33)*%
X69521428Y-65225000D03*
%TO.P,IC1,34,QOP1L*%
%TO.N,Net-(IC1-MIXR)*%
X69121428Y-65225000D03*
%TO.P,IC1,35,IOP1L*%
%TO.N,Net-(IC1-IOP1L)*%
X68721428Y-65225000D03*
%TO.P,IC1,36,QMICL*%
%TO.N,Net-(IC1-QMICL)*%
X68321428Y-65225000D03*
D16*
%TO.P,IC1,37,EP*%
%TO.N,/HP_driver_L/vneg*%
X68608928Y-61287500D03*
X68608928Y-62162500D03*
X68608928Y-63037500D03*
X68608928Y-63912500D03*
X69483928Y-61287500D03*
X69483928Y-62162500D03*
X69483928Y-63037500D03*
X69483928Y-63912500D03*
X70358928Y-61287500D03*
X70358928Y-62162500D03*
X70358928Y-63037500D03*
X70358928Y-63912500D03*
X71233928Y-61287500D03*
X71233928Y-62162500D03*
X71233928Y-63037500D03*
X71233928Y-63912500D03*
%TD*%
D17*
%TO.P,Y1,1,1*%
%TO.N,Net-(U2-PA00{slash}EINT0{slash}SERCOM1.0)*%
X80176500Y-36566500D03*
%TO.P,Y1,2,2*%
%TO.N,Net-(U2-PA01{slash}EINT1{slash}SERCOM1.1)*%
X82676500Y-36566500D03*
%TD*%
D18*
%TO.P,U2,1,PA00/EINT0/SERCOM1.0*%
%TO.N,Net-(U2-PA00{slash}EINT0{slash}SERCOM1.0)*%
X81098000Y-39353000D03*
%TO.P,U2,2,PA01/EINT1/SERCOM1.1*%
%TO.N,Net-(U2-PA01{slash}EINT1{slash}SERCOM1.1)*%
X81598000Y-39353000D03*
%TO.P,U2,3,PA02/EINT2/AIN0/Y0/VOUT*%
%TO.N,/A0*%
X82098000Y-39353000D03*
%TO.P,U2,4,PA03/EINT3/VREFA/AIN1*%
%TO.N,/AREF*%
X82598000Y-39353000D03*
%TO.P,U2,5,GNDA*%
%TO.N,GND*%
X83098000Y-39353000D03*
%TO.P,U2,6,VDDA*%
%TO.N,VDD*%
X83598000Y-39353000D03*
%TO.P,U2,7,PB08/I8/AIN2/SERCOM4.0*%
%TO.N,/A1*%
X84098000Y-39353000D03*
%TO.P,U2,8,PB09/I9/AIN3/SERCOM4.1*%
%TO.N,/A2*%
X84598000Y-39353000D03*
%TO.P,U2,9,PA04/EINT4/VREFB/AIN4/SERCOM0.0*%
%TO.N,/A3*%
X85098000Y-39353000D03*
%TO.P,U2,10,PA05/EINT5/AIN5/SERCOM0.1*%
%TO.N,/A4*%
X85598000Y-39353000D03*
%TO.P,U2,11,PA06/EINT6/AIN6/SERCOM0.2*%
%TO.N,/BM83_PROG_EN*%
X86098000Y-39353000D03*
%TO.P,U2,12,PA07/I7/AIN7/SERCOM0.3/I2SD0*%
%TO.N,/BAT_V_SENSE*%
X86598000Y-39353000D03*
D19*
%TO.P,U2,13,PA08/I2C/AIN16/SERCOM0+2.0/I2SD1*%
%TO.N,/D4*%
X87285500Y-40040500D03*
%TO.P,U2,14,PA09/I2C/I9/AIN17/SERCOM0+2.1/I2SMC*%
%TO.N,/D3*%
X87285500Y-40540500D03*
%TO.P,U2,15,PA10/I10/AIN18/SERCOM0+2.2/I2SCK*%
%TO.N,/BM83_UART_RX*%
X87285500Y-41040500D03*
%TO.P,U2,16,PA11/I11/AIN19/SERCOM0+2.3/I2SF0*%
%TO.N,/BM83_UART_TX*%
X87285500Y-41540500D03*
%TO.P,U2,17,VDDIO*%
%TO.N,VDD*%
X87285500Y-42040500D03*
%TO.P,U2,18,GND*%
%TO.N,GND*%
X87285500Y-42540500D03*
%TO.P,U2,19,PB10/I10/SERCOM4.2/I2SMC*%
%TO.N,/MOSI*%
X87285500Y-43040500D03*
%TO.P,U2,20,PB11/I11/SERCOM4.3/I2SCL*%
%TO.N,/SCLK*%
X87285500Y-43540500D03*
%TO.P,U2,21,PA12/I12/I2C/SERCOM2+4.0*%
%TO.N,/MISO*%
X87285500Y-44040500D03*
%TO.P,U2,22,PA13/I13/I2C/SERCOM2+4.1*%
%TO.N,unconnected-(U2-PA13{slash}I13{slash}I2C{slash}SERCOM2+4.1-Pad22)*%
X87285500Y-44540500D03*
%TO.P,U2,23,PA14/I14/SERCOM2+4.2*%
%TO.N,/D2*%
X87285500Y-45040500D03*
%TO.P,U2,24,PA15/I15/SERCOM3+4.3*%
%TO.N,/3V3_EN*%
X87285500Y-45540500D03*
D18*
%TO.P,U2,25,PA16/I2C/I0/SERCOM1+3.0*%
%TO.N,/D11*%
X86598000Y-46228000D03*
%TO.P,U2,26,PA17/I2C/I1/SERCOM1+3.1*%
%TO.N,/D13*%
X86098000Y-46228000D03*
%TO.P,U2,27,PA18/I2/SERCOM1+3.2*%
%TO.N,/D10*%
X85598000Y-46228000D03*
%TO.P,U2,28,PA19/I3/SERCOM1+3.3/I2SD0*%
%TO.N,/ANC_ON*%
X85098000Y-46228000D03*
%TO.P,U2,29,PA20/I4/SERCOM3+5.2/I2SSC*%
%TO.N,/ANC_OFF*%
X84598000Y-46228000D03*
%TO.P,U2,30,PA21/I5/SERCOM3+5.3/I2SFS0*%
%TO.N,/ANC_PBO*%
X84098000Y-46228000D03*
%TO.P,U2,31,PA22/I2C/I6/SERCOM3+5.0*%
%TO.N,/I2C_SDA*%
X83598000Y-46228000D03*
%TO.P,U2,32,PA23/I2C/I7/SERCOM3+5.1/SOF*%
%TO.N,/I2C_SCL*%
X83098000Y-46228000D03*
%TO.P,U2,33,PA24/I12/SERCOM3+5.2/D-*%
%TO.N,/USB_D-*%
X82598000Y-46228000D03*
%TO.P,U2,34,PA25/I13/SERCOM3+5.3/D+*%
%TO.N,/USB_D+*%
X82098000Y-46228000D03*
%TO.P,U2,35,GND*%
%TO.N,GND*%
X81598000Y-46228000D03*
%TO.P,U2,36,VDDIO*%
%TO.N,VDD*%
X81098000Y-46228000D03*
D19*
%TO.P,U2,37,PB22/I6/SERCOM5.2*%
%TO.N,unconnected-(U2-PB22{slash}I6{slash}SERCOM5.2-Pad37)*%
X80410500Y-45540500D03*
%TO.P,U2,38,PB23/I7/SERCOM5.3*%
%TO.N,unconnected-(U2-PB23{slash}I7{slash}SERCOM5.3-Pad38)*%
X80410500Y-45040500D03*
%TO.P,U2,39,PA27/I15*%
%TO.N,unconnected-(U2-PA27{slash}I15-Pad39)*%
X80410500Y-44540500D03*
%TO.P,U2,40,/RESET*%
%TO.N,/~{RESET}*%
X80410500Y-44040500D03*
%TO.P,U2,41,PA28/I8*%
%TO.N,unconnected-(U2-PA28{slash}I8-Pad41)*%
X80410500Y-43540500D03*
%TO.P,U2,42,GND*%
%TO.N,GND*%
X80410500Y-43040500D03*
%TO.P,U2,43,VDDCORE*%
%TO.N,Net-(U2-VDDCORE)*%
X80410500Y-42540500D03*
%TO.P,U2,44,VDDIN*%
%TO.N,VDD*%
X80410500Y-42040500D03*
%TO.P,U2,45,PA30/I10/SECOM1.2/SWCLK*%
%TO.N,/SWCLK*%
X80410500Y-41540500D03*
%TO.P,U2,46,PA31/I11/SECOM1.3/SWDIO*%
%TO.N,/SWDIO*%
X80410500Y-41040500D03*
%TO.P,U2,47,PB02/I2/AIN10/SERCOM5.0*%
%TO.N,/A5*%
X80410500Y-40540500D03*
%TO.P,U2,48,PB03/I3/AIN11/SERCOM5.1*%
%TO.N,unconnected-(U2-PB03{slash}I3{slash}AIN11{slash}SERCOM5.1-Pad48)*%
X80410500Y-40040500D03*
D20*
%TO.P,U2,49,GND*%
%TO.N,GND*%
X83848000Y-42790500D03*
%TD*%
D21*
%TO.P,D2,1,C*%
%TO.N,VBUS*%
X84000000Y-56450000D03*
%TO.P,D2,2,A*%
%TO.N,+BATT*%
X84000000Y-53150000D03*
%TD*%
D22*
%TO.P,U6,1,VIN*%
%TO.N,+3V3*%
X79300000Y-53925000D03*
%TO.P,U6,2,GND*%
%TO.N,GND*%
X80250000Y-53925000D03*
%TO.P,U6,3,EN*%
%TO.N,+3V3*%
X81200000Y-53925000D03*
%TO.P,U6,4,NC*%
%TO.N,unconnected-(U6-NC-Pad4)*%
X81200000Y-56200000D03*
%TO.P,U6,5,VOUT*%
%TO.N,+1V8*%
X79300000Y-56200000D03*
%TD*%
D23*
%TO.P,U7,1,OUT*%
%TO.N,+3V3*%
X81150000Y-51737500D03*
%TO.P,U7,2,GND*%
%TO.N,GND*%
X80200000Y-51737500D03*
%TO.P,U7,3,~{FLG}*%
%TO.N,unconnected-(U7-~{FLG}-Pad3)*%
X79250000Y-51737500D03*
%TO.P,U7,4,EN*%
%TO.N,/3V3_EN*%
X79250000Y-49462500D03*
%TO.P,U7,5,IN*%
%TO.N,VDD*%
X81150000Y-49462500D03*
%TD*%
D22*
%TO.P,U3,1,STAT*%
%TO.N,unconnected-(U3-STAT-Pad1)*%
X86850000Y-53627500D03*
%TO.P,U3,2,VSS*%
%TO.N,GND*%
X87800000Y-53627500D03*
%TO.P,U3,3,VBAT*%
%TO.N,+BATT*%
X88750000Y-53627500D03*
%TO.P,U3,4,VDD*%
%TO.N,VBUS*%
X88750000Y-55902500D03*
%TO.P,U3,5,PROG*%
%TO.N,Net-(U3-PROG)*%
X86850000Y-55902500D03*
%TD*%
D24*
%TO.P,U8,1,OUT*%
%TO.N,Net-(U8-OUT)*%
X62495000Y-33782000D03*
%TO.P,U8,2,GND*%
%TO.N,GND*%
X62495000Y-32832000D03*
%TO.P,U8,3,~{FLG}*%
%TO.N,unconnected-(U8-~{FLG}-Pad3)*%
X62495000Y-31882000D03*
%TO.P,U8,4,EN*%
%TO.N,/A3*%
X64770000Y-31882000D03*
%TO.P,U8,5,IN*%
%TO.N,+3V3*%
X64770000Y-33782000D03*
%TD*%
D25*
%TO.P,U5,1,CTG*%
%TO.N,GND*%
X88876002Y-50774600D03*
%TO.P,U5,2,CELL*%
%TO.N,+BATT*%
X88376001Y-50774600D03*
%TO.P,U5,3,VDD*%
X87876001Y-50774600D03*
%TO.P,U5,4,GND*%
%TO.N,GND*%
X87376000Y-50774600D03*
%TO.P,U5,5,\u002AALRT*%
%TO.N,unconnected-(U5-\u002AALRT-Pad5)*%
X87376000Y-48768000D03*
%TO.P,U5,6,QSTRT*%
%TO.N,GND*%
X87876001Y-48768000D03*
%TO.P,U5,7,SCL*%
%TO.N,/I2C_SCL*%
X88376001Y-48768000D03*
%TO.P,U5,8,SDA*%
%TO.N,/I2C_SDA*%
X88876002Y-48768000D03*
D26*
%TO.P,U5,9,EPAD*%
%TO.N,GND*%
X88126001Y-49771300D03*
%TD*%
D14*
%TO.P,IC2,1,AGND*%
%TO.N,GND*%
X64550000Y-61000000D03*
%TO.P,IC2,2,QLINL*%
%TO.N,Net-(IC2-LINL)*%
X64550000Y-61400000D03*
%TO.P,IC2,3,LINL*%
X64550000Y-61800000D03*
%TO.P,IC2,4,TRSDA*%
%TO.N,unconnected-(IC2-TRSDA-Pad4)*%
X64550000Y-62200000D03*
%TO.P,IC2,5,TRSCL*%
%TO.N,unconnected-(IC2-TRSCL-Pad5)*%
X64550000Y-62600000D03*
%TO.P,IC2,6,LINR*%
%TO.N,Net-(IC2-LINR)*%
X64550000Y-63000000D03*
%TO.P,IC2,7,QLINR*%
%TO.N,Net-(IC2-QLINR)*%
X64550000Y-63400000D03*
%TO.P,IC2,8,ANC/CSDA*%
%TO.N,/I2C_SCL*%
X64550000Y-63800000D03*
%TO.P,IC2,9,MODE/CSCL*%
%TO.N,/I2C_SDA*%
X64550000Y-64200000D03*
D15*
%TO.P,IC2,10,MICACL*%
%TO.N,Net-(IC2-MICACL)*%
X63525000Y-65225000D03*
%TO.P,IC2,11,MICL*%
%TO.N,Net-(IC2-MICL)*%
X63125000Y-65225000D03*
%TO.P,IC2,12,ILED*%
%TO.N,unconnected-(IC2-ILED-Pad12)*%
X62725000Y-65225000D03*
%TO.P,IC2,13,MICS*%
%TO.N,Net-(IC2-MICS)*%
X62325000Y-65225000D03*
%TO.P,IC2,14,MICR*%
%TO.N,Net-(IC2-MICR)*%
X61925000Y-65225000D03*
%TO.P,IC2,15,MICACR*%
%TO.N,Net-(IC2-MICACR)*%
X61525000Y-65225000D03*
%TO.P,IC2,16,QMICR*%
%TO.N,Net-(IC2-QMICR)*%
X61125000Y-65225000D03*
%TO.P,IC2,17,IOP1R*%
%TO.N,/HP_driver_L/IOP1R*%
X60725000Y-65225000D03*
%TO.P,IC2,18,QOP1R*%
%TO.N,/HP_driver_L/QOP1R*%
X60325000Y-65225000D03*
D14*
%TO.P,IC2,19,IOP2R*%
%TO.N,/HP_driver_L/IOP2R*%
X59300000Y-64200000D03*
%TO.P,IC2,20,QOP2R*%
%TO.N,/HP_driver_L/QOP2R*%
X59300000Y-63800000D03*
%TO.P,IC2,21,BPL*%
%TO.N,GND*%
X59300000Y-63400000D03*
%TO.P,IC2,22,HPL*%
%TO.N,/HP_L_-*%
X59300000Y-63000000D03*
%TO.P,IC2,23,MIXL*%
%TO.N,unconnected-(IC2-MIXL-Pad23)*%
X59300000Y-62600000D03*
%TO.P,IC2,24,MIXR*%
%TO.N,Net-(IC2-MIXR)*%
X59300000Y-62200000D03*
%TO.P,IC2,25,HPR*%
%TO.N,/HP_L_+*%
X59300000Y-61800000D03*
%TO.P,IC2,26,BPR*%
%TO.N,/audio_in_L*%
X59300000Y-61400000D03*
%TO.P,IC2,27,VBAT*%
%TO.N,+1V8*%
X59300000Y-61000000D03*
D15*
%TO.P,IC2,28,CPP*%
%TO.N,Net-(IC2-CPP)*%
X60325000Y-59975000D03*
%TO.P,IC2,29,GND*%
%TO.N,GND*%
X60725000Y-59975000D03*
%TO.P,IC2,30,CPN*%
%TO.N,Net-(IC2-CPN)*%
X61125000Y-59975000D03*
%TO.P,IC2,31,VNEG*%
%TO.N,/HP_driver_L/vneg*%
X61525000Y-59975000D03*
%TO.P,IC2,32,QOP2L*%
%TO.N,unconnected-(IC2-QOP2L-Pad32)*%
X61925000Y-59975000D03*
%TO.P,IC2,33,IOP2L*%
%TO.N,unconnected-(IC2-IOP2L-Pad33)*%
X62325000Y-59975000D03*
%TO.P,IC2,34,QOP1L*%
%TO.N,Net-(IC2-MIXR)*%
X62725000Y-59975000D03*
%TO.P,IC2,35,IOP1L*%
%TO.N,Net-(IC2-IOP1L)*%
X63125000Y-59975000D03*
%TO.P,IC2,36,QMICL*%
%TO.N,Net-(IC2-QMICL)*%
X63525000Y-59975000D03*
D16*
%TO.P,IC2,37,EP*%
%TO.N,/HP_driver_L/vneg*%
X63237500Y-63912500D03*
X63237500Y-63037500D03*
X63237500Y-62162500D03*
X63237500Y-61287500D03*
X62362500Y-63912500D03*
X62362500Y-63037500D03*
X62362500Y-62162500D03*
X62362500Y-61287500D03*
X61487500Y-63912500D03*
X61487500Y-63037500D03*
X61487500Y-62162500D03*
X61487500Y-61287500D03*
X60612500Y-63912500D03*
X60612500Y-63037500D03*
X60612500Y-62162500D03*
X60612500Y-61287500D03*
%TD*%
D27*
%TO.P,U4,1,IN*%
%TO.N,VBUS*%
X85537500Y-49300000D03*
%TO.P,U4,2,GND*%
%TO.N,GND*%
X85537500Y-50250000D03*
%TO.P,U4,3,EN*%
%TO.N,VBUS*%
X85537500Y-51200000D03*
%TO.P,U4,4,P4*%
%TO.N,unconnected-(U4-P4-Pad4)*%
X83262500Y-51200000D03*
%TO.P,U4,5,OUT*%
%TO.N,VDD*%
X83262500Y-49300000D03*
%TD*%
D28*
%TO.N,+3V3*%
X72000000Y-77400000D03*
X78000000Y-46535000D03*
X81200000Y-52800000D03*
X76500000Y-32000000D03*
X65786000Y-33782000D03*
%TO.N,GND*%
X85563914Y-41079448D03*
X56359500Y-55000000D03*
X85547496Y-44527343D03*
X78000000Y-45400000D03*
X57100000Y-45600000D03*
X57836250Y-69400000D03*
X66862944Y-54912444D03*
X88126001Y-49771300D03*
X81367000Y-36507000D03*
X63000000Y-76600000D03*
X73660000Y-61468000D03*
X63200000Y-74800000D03*
X80200000Y-52800000D03*
X80587500Y-62230000D03*
X75110000Y-62738000D03*
X59815500Y-58420000D03*
X58600000Y-55000000D03*
X66294000Y-64516000D03*
X71200000Y-77400000D03*
X53436250Y-66600000D03*
X77705627Y-29840795D03*
X74930000Y-57912000D03*
X70612000Y-45212000D03*
X54962500Y-63900000D03*
X69900000Y-55000000D03*
X63000000Y-78200000D03*
X73000000Y-76600000D03*
X75692000Y-44958000D03*
X87750000Y-54902500D03*
X66600000Y-59500000D03*
X84328000Y-50800000D03*
X55800000Y-76200000D03*
X85630500Y-42740500D03*
X78486000Y-65913000D03*
X81930926Y-42490500D03*
X61000000Y-76600000D03*
X51850000Y-72650000D03*
X61000000Y-78200000D03*
X64262000Y-60500000D03*
X46636250Y-66600000D03*
X80518000Y-57912000D03*
X51000000Y-63700000D03*
X82124228Y-41046611D03*
X75000000Y-78200000D03*
X70358000Y-52070000D03*
X82132438Y-44527343D03*
X61214000Y-33274000D03*
X58600000Y-49490500D03*
X46600000Y-59700000D03*
X57658000Y-63246000D03*
X71100000Y-42900000D03*
X67564000Y-71882000D03*
X64950500Y-48800000D03*
X75438000Y-53594000D03*
X64950500Y-54900000D03*
X73000000Y-78200000D03*
X75000000Y-76600000D03*
X62738000Y-38100000D03*
X66657894Y-60442106D03*
X62738000Y-35052000D03*
X72129131Y-66802000D03*
X67564000Y-66548000D03*
%TO.N,Net-(U2-VDDCORE)*%
X79380500Y-42490500D03*
%TO.N,Net-(U2-PA00{slash}EINT0{slash}SERCOM1.0)*%
X80918500Y-38090500D03*
%TO.N,Net-(U2-PA01{slash}EINT1{slash}SERCOM1.1)*%
X81934500Y-38090500D03*
%TO.N,+BATT*%
X88250000Y-52000000D03*
%TO.N,VBUS*%
X72675900Y-75469900D03*
X83400000Y-52000000D03*
%TO.N,VDD*%
X82100000Y-49300000D03*
X79380500Y-41615500D03*
X83598000Y-38590500D03*
X88392000Y-42926000D03*
X80730500Y-46190500D03*
%TO.N,Net-(IC1-MICL)*%
X68100000Y-59100000D03*
%TO.N,Net-(IC1-MICR)*%
X69600000Y-59100000D03*
%TO.N,Net-(IC1-MICS)*%
X68850000Y-58674000D03*
%TO.N,Net-(IC1-MICACL)*%
X67355000Y-58674000D03*
%TO.N,Net-(IC1-MICACR)*%
X70358000Y-58674000D03*
%TO.N,/AOHPR*%
X64000000Y-43000000D03*
%TO.N,+1V8*%
X73025000Y-65659000D03*
X59600000Y-60500000D03*
X80200000Y-56000000D03*
%TO.N,/HP_driver_L/vneg*%
X60600000Y-58000000D03*
X70358000Y-66802000D03*
%TO.N,Net-(IC1-CPN)*%
X70806050Y-66000000D03*
%TO.N,Net-(IC1-CPP)*%
X72136000Y-65786000D03*
%TO.N,Net-(IC1-QMICL)*%
X66802000Y-69088000D03*
%TO.N,Net-(IC1-IOP1L)*%
X71120000Y-70612000D03*
%TO.N,Net-(IC1-MIXR)*%
X69342000Y-65913000D03*
X73058750Y-70832250D03*
X73660000Y-62992000D03*
%TO.N,/HP_driver_R/QOP1R*%
X73977500Y-58991500D03*
%TO.N,/HP_driver_R/IOP2R*%
X77724000Y-61468000D03*
%TO.N,/HP_driver_R/QOP2R*%
X74676000Y-60452000D03*
%TO.N,Net-(IC1-QMICR)*%
X72781301Y-58035594D03*
%TO.N,/HP_driver_R/IOP1R*%
X72898000Y-58928000D03*
%TO.N,Net-(IC2-QMICL)*%
X63754000Y-59250000D03*
%TO.N,/AOHPL*%
X63000000Y-43000000D03*
%TO.N,Net-(IC2-MICL)*%
X63802500Y-66082500D03*
%TO.N,Net-(IC2-MICACL)*%
X64546428Y-66548000D03*
%TO.N,Net-(IC2-MICS)*%
X63052500Y-66548000D03*
%TO.N,Net-(IC2-IOP1L)*%
X63100000Y-58674000D03*
%TO.N,Net-(IC2-MICACR)*%
X61550000Y-66548000D03*
%TO.N,Net-(IC2-CPN)*%
X61098041Y-59212687D03*
%TO.N,Net-(IC2-CPP)*%
X59996884Y-59517929D03*
%TO.N,Net-(IC2-MICR)*%
X62302500Y-66082500D03*
%TO.N,Net-(IC2-MIXR)*%
X58420000Y-62386405D03*
X62484000Y-59250000D03*
%TO.N,/HP_driver_L/QOP1R*%
X49501250Y-66400000D03*
%TO.N,Net-(IC2-QMICR)*%
X55036250Y-70850000D03*
%TO.N,/HP_driver_L/IOP2R*%
X49400000Y-59497500D03*
%TO.N,/HP_driver_L/IOP1R*%
X49436250Y-69600000D03*
X56436250Y-66402500D03*
%TO.N,/HP_driver_L/QOP2R*%
X55000000Y-59500000D03*
%TO.N,/AREF*%
X82630500Y-38590500D03*
%TO.N,Net-(U8-OUT)*%
X64262000Y-33020000D03*
%TO.N,Net-(IC1-LINR)*%
X66548000Y-63500000D03*
%TO.N,Net-(IC1-QLINR)*%
X66294000Y-62500000D03*
%TO.N,/I2C_SDA*%
X66228000Y-61468000D03*
X84063188Y-48006000D03*
X65278000Y-60000000D03*
X79100000Y-50600000D03*
%TO.N,/I2C_SCL*%
X78486000Y-50038000D03*
X83130500Y-46990500D03*
%TO.N,/HP_R_-*%
X73152000Y-62230000D03*
%TO.N,/HP_R_+*%
X74676000Y-61468000D03*
%TO.N,/audio_in_R*%
X73250510Y-64106510D03*
%TO.N,Net-(IC2-LINR)*%
X65278000Y-61214000D03*
%TO.N,Net-(IC2-QLINR)*%
X65278000Y-63246000D03*
%TO.N,/HP_L_-*%
X55900000Y-58500000D03*
%TO.N,/HP_L_+*%
X55118000Y-58054974D03*
%TO.N,/audio_in_L*%
X58420000Y-60960000D03*
X64000000Y-74800000D03*
X59700000Y-67200000D03*
%TO.N,/D2*%
X88392000Y-44196000D03*
X68834000Y-75021000D03*
X75438000Y-75438000D03*
%TO.N,/ANC_PBO*%
X84130500Y-46990500D03*
%TO.N,/ANC_OFF*%
X85090000Y-48006000D03*
%TO.N,/ANC_ON*%
X85090000Y-46990000D03*
%TO.N,/D10*%
X86360000Y-48006000D03*
%TO.N,/USB_D+*%
X81948000Y-48260000D03*
%TO.N,/USB_D-*%
X82748000Y-48260000D03*
%TO.N,/D11*%
X74168000Y-75438000D03*
X65400000Y-75000000D03*
X87630000Y-47498000D03*
%TO.N,/D3*%
X75205627Y-29840795D03*
%TO.N,/A4*%
X64262000Y-29840795D03*
%TO.N,/D13*%
X86106000Y-46990000D03*
%TO.N,/BAT_V_SENSE*%
X87108140Y-38852500D03*
%TO.N,Net-(U3-PROG)*%
X87750000Y-55902500D03*
%TO.N,/~{RESET}*%
X79380500Y-43740500D03*
X62738000Y-39700000D03*
%TO.N,/BM83_UART_RX*%
X80518000Y-47498000D03*
X88392000Y-41148000D03*
%TO.N,/BM83_UART_TX*%
X88646000Y-41910000D03*
X79248000Y-48006000D03*
%TO.N,/BM83_PROG_EN*%
X86360000Y-37846000D03*
X77978000Y-47960000D03*
%TO.N,/A2*%
X61722000Y-29840795D03*
%TO.N,/A3*%
X85130500Y-38490500D03*
X83966500Y-36820500D03*
%TO.N,/D4*%
X77978000Y-48768000D03*
X88138000Y-39990500D03*
%TO.N,/3V3_EN*%
X80010000Y-48514000D03*
X88138000Y-45466000D03*
%TD*%
D29*
%TO.N,+3V3*%
X79300000Y-53925000D02*
X79300000Y-54486028D01*
D30*
X77975000Y-46510000D02*
X77030000Y-46510000D01*
D29*
X81200000Y-54486028D02*
X81200000Y-53925000D01*
X80648528Y-55037500D02*
X81200000Y-54486028D01*
X79300000Y-54486028D02*
X79851472Y-55037500D01*
X79851472Y-55037500D02*
X80648528Y-55037500D01*
X81200000Y-52800000D02*
X81200000Y-53925000D01*
X81150000Y-52750000D02*
X81200000Y-52800000D01*
D30*
X78000000Y-46535000D02*
X77975000Y-46510000D01*
X64770000Y-33782000D02*
X65786000Y-33782000D01*
D29*
X81150000Y-51737500D02*
X81150000Y-52750000D01*
%TO.N,GND*%
X87800000Y-54852500D02*
X87750000Y-54902500D01*
D30*
X61656000Y-32832000D02*
X61214000Y-33274000D01*
X87922801Y-49771300D02*
X88126001Y-49771300D01*
D31*
X57658000Y-63246000D02*
X57812000Y-63400000D01*
D30*
X87376000Y-50318101D02*
X87922801Y-49771300D01*
X82291889Y-41046611D02*
X83098000Y-40240500D01*
X66560000Y-53780000D02*
X66560000Y-54609500D01*
X88876002Y-50142001D02*
X88505301Y-49771300D01*
D31*
X66294000Y-64516000D02*
X66610000Y-64200000D01*
D30*
X62495000Y-32832000D02*
X61656000Y-32832000D01*
X87876001Y-48768000D02*
X87876001Y-49521300D01*
D29*
X80200000Y-52800000D02*
X80200000Y-51737500D01*
D31*
X73328000Y-61800000D02*
X72546428Y-61800000D01*
D29*
X87800000Y-53627500D02*
X87800000Y-54852500D01*
X80250000Y-52850000D02*
X80200000Y-52800000D01*
D31*
X59815500Y-58420000D02*
X59815500Y-58665500D01*
D30*
X56130000Y-55229500D02*
X56359500Y-55000000D01*
X81598000Y-46228000D02*
X81598000Y-45061781D01*
X71130000Y-42870000D02*
X71100000Y-42900000D01*
D29*
X80250000Y-53925000D02*
X80250000Y-52850000D01*
D30*
X81598000Y-45061781D02*
X82132438Y-44527343D01*
D31*
X71121428Y-65643626D02*
X71121428Y-65225000D01*
X59815500Y-58665500D02*
X60725000Y-59575000D01*
X64262000Y-60500000D02*
X64550000Y-60788000D01*
X57812000Y-63400000D02*
X59300000Y-63400000D01*
D30*
X88876002Y-50774600D02*
X88876002Y-50142001D01*
X87376000Y-50318101D02*
X87376000Y-50774600D01*
X56980000Y-45720000D02*
X57100000Y-45600000D01*
D29*
X84328000Y-50800000D02*
X84878000Y-50250000D01*
D31*
X64550000Y-60788000D02*
X64550000Y-61000000D01*
D30*
X56450000Y-45720000D02*
X56980000Y-45720000D01*
D31*
X66610000Y-64200000D02*
X67296428Y-64200000D01*
D30*
X88505301Y-49771300D02*
X88126001Y-49771300D01*
D31*
X73660000Y-61468000D02*
X73328000Y-61800000D01*
D29*
X84878000Y-50250000D02*
X85537500Y-50250000D01*
D30*
X56130000Y-56510000D02*
X56130000Y-55229500D01*
D31*
X72129131Y-66651329D02*
X71121428Y-65643626D01*
D30*
X71130000Y-41510000D02*
X71130000Y-42870000D01*
X83098000Y-40240500D02*
X83098000Y-39353000D01*
X82124228Y-41046611D02*
X82291889Y-41046611D01*
X87876001Y-49521300D02*
X88126001Y-49771300D01*
D31*
X72129131Y-66802000D02*
X72129131Y-66651329D01*
X60725000Y-59575000D02*
X60725000Y-59975000D01*
D30*
X80410500Y-43040500D02*
X83598000Y-43040500D01*
X66560000Y-54609500D02*
X66862944Y-54912444D01*
X84098000Y-42540500D02*
X83848000Y-42790500D01*
X87285500Y-42540500D02*
X84098000Y-42540500D01*
X83598000Y-43040500D02*
X83848000Y-42790500D01*
%TO.N,Net-(U2-VDDCORE)*%
X79430500Y-42540500D02*
X80410500Y-42540500D01*
X79380500Y-42490500D02*
X79430500Y-42540500D01*
%TO.N,Net-(U2-PA00{slash}EINT0{slash}SERCOM1.0)*%
X80176500Y-37348500D02*
X80918500Y-38090500D01*
X81098000Y-38270000D02*
X80918500Y-38090500D01*
X81098000Y-39360500D02*
X81098000Y-38270000D01*
X80176500Y-36566500D02*
X80176500Y-37348500D01*
%TO.N,Net-(U2-PA01{slash}EINT1{slash}SERCOM1.1)*%
X82676500Y-37348500D02*
X81934500Y-38090500D01*
X81598000Y-38427000D02*
X81598000Y-39360500D01*
X81934500Y-38090500D02*
X81598000Y-38427000D01*
X82676500Y-36566500D02*
X82676500Y-37348500D01*
D29*
%TO.N,+BATT*%
X88750000Y-52500000D02*
X88250000Y-52000000D01*
X88750000Y-53627500D02*
X88750000Y-52500000D01*
X88250000Y-52000000D02*
X86400000Y-52000000D01*
X86400000Y-52000000D02*
X85250000Y-53150000D01*
X85250000Y-53150000D02*
X84000000Y-53150000D01*
X88118125Y-51868125D02*
X88118125Y-50665800D01*
X88250000Y-52000000D02*
X88118125Y-51868125D01*
%TO.N,VBUS*%
X86600000Y-61482000D02*
X86600000Y-56915000D01*
X86098528Y-51200000D02*
X86650000Y-50648528D01*
X86600000Y-56915000D02*
X84465000Y-56915000D01*
X72675900Y-75469900D02*
X72675900Y-75406100D01*
X82800000Y-52400000D02*
X82800000Y-55250000D01*
X82800000Y-55250000D02*
X84000000Y-56450000D01*
X84000000Y-56450000D02*
X84465000Y-56915000D01*
X87737500Y-56915000D02*
X88750000Y-55902500D01*
X86650000Y-50648528D02*
X86650000Y-49851472D01*
X83400000Y-52000000D02*
X83200000Y-52000000D01*
X83400000Y-52000000D02*
X84737500Y-52000000D01*
X83200000Y-52000000D02*
X82800000Y-52400000D01*
X84737500Y-52000000D02*
X85537500Y-51200000D01*
X86650000Y-49851472D02*
X86098528Y-49300000D01*
X72675900Y-75406100D02*
X86600000Y-61482000D01*
X85537500Y-51200000D02*
X86098528Y-51200000D01*
X86098528Y-49300000D02*
X85537500Y-49300000D01*
X84465000Y-56915000D02*
X87737500Y-56915000D01*
D30*
%TO.N,VDD*%
X80768000Y-46228000D02*
X80730500Y-46190500D01*
D29*
X81312500Y-49300000D02*
X81150000Y-49462500D01*
D32*
X88392000Y-42926000D02*
X88392000Y-42908980D01*
D30*
X79380500Y-41615500D02*
X79805500Y-42040500D01*
X83598000Y-38590500D02*
X83598000Y-39353000D01*
D29*
X82100000Y-49300000D02*
X83262500Y-49300000D01*
D32*
X88392000Y-42908980D02*
X87523520Y-42040500D01*
X87523520Y-42040500D02*
X87285500Y-42040500D01*
D29*
X82100000Y-49300000D02*
X81312500Y-49300000D01*
D30*
X81098000Y-46228000D02*
X80768000Y-46228000D01*
X79805500Y-42040500D02*
X80410500Y-42040500D01*
D33*
%TO.N,Net-(IC1-MICL)*%
X68194512Y-59100000D02*
X68100000Y-59100000D01*
D31*
X68721428Y-59975000D02*
X68721428Y-59636638D01*
X68721428Y-59636638D02*
X68184790Y-59100000D01*
X68184790Y-59100000D02*
X68100000Y-59100000D01*
%TO.N,Net-(IC1-MICR)*%
X69921428Y-59975000D02*
X69921428Y-59421428D01*
X69921428Y-59421428D02*
X69600000Y-59100000D01*
%TO.N,Net-(IC1-MICS)*%
X69521428Y-59750000D02*
X69521428Y-59975000D01*
X68850000Y-58674000D02*
X68850000Y-59078572D01*
X68850000Y-59078572D02*
X69521428Y-59750000D01*
D33*
%TO.N,Net-(IC1-MICACL)*%
X67355000Y-59244786D02*
X67355000Y-58674000D01*
X68321428Y-59975000D02*
X68085214Y-59975000D01*
X68085214Y-59975000D02*
X67355000Y-59244786D01*
D31*
%TO.N,Net-(IC1-MICACR)*%
X70321428Y-58710572D02*
X70321428Y-59975000D01*
X70358000Y-58674000D02*
X70321428Y-58710572D01*
D30*
%TO.N,/AOHPR*%
X61130000Y-42260000D02*
X61130000Y-41510000D01*
X63312000Y-43688000D02*
X62558000Y-43688000D01*
X62558000Y-43688000D02*
X61130000Y-42260000D01*
X64000000Y-43000000D02*
X63312000Y-43688000D01*
%TO.N,+1V8*%
X79500000Y-56000000D02*
X79300000Y-56200000D01*
X80200000Y-56000000D02*
X79500000Y-56000000D01*
X59600000Y-60500000D02*
X59300000Y-60800000D01*
X73025000Y-65659000D02*
X72546428Y-65180428D01*
X59300000Y-60800000D02*
X59300000Y-60975000D01*
X72546428Y-65180428D02*
X72546428Y-64225000D01*
%TO.N,/HP_driver_L/vneg*%
X64349000Y-65024000D02*
X67497428Y-65024000D01*
D31*
X70321428Y-65225000D02*
X70321428Y-63950000D01*
X70675000Y-63672500D02*
X70675000Y-62622500D01*
X70321428Y-66765428D02*
X70321428Y-65225000D01*
X61525000Y-59975000D02*
X61525000Y-61250000D01*
X60600000Y-58000000D02*
X61525000Y-58925000D01*
D30*
X67497428Y-65024000D02*
X68608928Y-63912500D01*
D31*
X70321428Y-63950000D02*
X70358928Y-63912500D01*
X61525000Y-59975000D02*
X61525000Y-58925000D01*
X70358000Y-66802000D02*
X70321428Y-66765428D01*
D30*
X63237500Y-63912500D02*
X64349000Y-65024000D01*
X68671428Y-63850000D02*
X69921428Y-62600000D01*
D31*
%TO.N,Net-(IC1-CPN)*%
X70806050Y-66000000D02*
X70721428Y-65915378D01*
X70721428Y-65915378D02*
X70721428Y-65225000D01*
%TO.N,Net-(IC1-CPP)*%
X72136000Y-65786000D02*
X71758776Y-65786000D01*
X71758776Y-65786000D02*
X71521428Y-65548652D01*
X71521428Y-65548652D02*
X71521428Y-65225000D01*
%TO.N,Net-(IC1-QMICL)*%
X66802000Y-69088000D02*
X68321428Y-67568572D01*
X68321428Y-67568572D02*
X68321428Y-65225000D01*
%TO.N,Net-(IC1-IOP1L)*%
X68721428Y-68213428D02*
X71120000Y-70612000D01*
X68721428Y-65225000D02*
X68721428Y-68213428D01*
%TO.N,Net-(IC1-MIXR)*%
X73058750Y-70832250D02*
X72610250Y-70832250D01*
X69342000Y-67564000D02*
X72356250Y-70578250D01*
X72610250Y-70832250D02*
X72390000Y-70612000D01*
X69342000Y-65913000D02*
X69342000Y-67564000D01*
X73660000Y-62992000D02*
X73652000Y-63000000D01*
X69121428Y-65692428D02*
X69342000Y-65913000D01*
X69121428Y-65225000D02*
X69121428Y-65692428D01*
X73652000Y-63000000D02*
X72546428Y-63000000D01*
%TO.N,/HP_driver_R/QOP1R*%
X73977500Y-58991500D02*
X72994000Y-59975000D01*
X72994000Y-59975000D02*
X71521428Y-59975000D01*
%TO.N,/HP_driver_R/IOP2R*%
X74092615Y-59944000D02*
X76200000Y-59944000D01*
X73036615Y-61000000D02*
X74092615Y-59944000D01*
X76200000Y-59944000D02*
X77724000Y-61468000D01*
X72546428Y-61000000D02*
X73036615Y-61000000D01*
%TO.N,/HP_driver_R/QOP2R*%
X73938169Y-60452000D02*
X72990169Y-61400000D01*
X72990169Y-61400000D02*
X72546428Y-61400000D01*
X74676000Y-60452000D02*
X73938169Y-60452000D01*
%TO.N,Net-(IC1-QMICR)*%
X72012406Y-58035594D02*
X70721428Y-59326572D01*
X72781301Y-58035594D02*
X72012406Y-58035594D01*
X70721428Y-59326572D02*
X70721428Y-59975000D01*
%TO.N,/HP_driver_R/IOP1R*%
X71677777Y-58928000D02*
X71121428Y-59484349D01*
X72898000Y-58928000D02*
X71677777Y-58928000D01*
X71121428Y-59484349D02*
X71121428Y-59975000D01*
%TO.N,Net-(IC2-QMICL)*%
X63754000Y-59250000D02*
X63525000Y-59479000D01*
X63525000Y-59479000D02*
X63525000Y-59975000D01*
D30*
%TO.N,/AOHPL*%
X63000000Y-43000000D02*
X63000000Y-41640000D01*
D31*
%TO.N,Net-(IC2-MICL)*%
X63707500Y-66082500D02*
X63802500Y-66082500D01*
X63125000Y-65500000D02*
X63707500Y-66082500D01*
X63125000Y-65225000D02*
X63125000Y-65500000D01*
%TO.N,Net-(IC2-MICACL)*%
X63955000Y-65225000D02*
X63525000Y-65225000D01*
X64546428Y-65816428D02*
X63955000Y-65225000D01*
X64546428Y-66548000D02*
X64546428Y-65816428D01*
%TO.N,Net-(IC2-MICS)*%
X63052500Y-66548000D02*
X63052500Y-66227500D01*
X63052500Y-66227500D02*
X62325000Y-65500000D01*
X62325000Y-65500000D02*
X62325000Y-65225000D01*
%TO.N,Net-(IC2-IOP1L)*%
X63125000Y-58699000D02*
X63125000Y-59975000D01*
X63100000Y-58674000D02*
X63125000Y-58699000D01*
%TO.N,Net-(IC2-MICACR)*%
X61525000Y-66523000D02*
X61525000Y-65225000D01*
X61550000Y-66548000D02*
X61525000Y-66523000D01*
%TO.N,Net-(IC2-CPN)*%
X61098041Y-59212687D02*
X61125000Y-59239646D01*
X61125000Y-59239646D02*
X61125000Y-59975000D01*
%TO.N,Net-(IC2-CPP)*%
X60172955Y-59517929D02*
X60325000Y-59669974D01*
X60325000Y-59669974D02*
X60325000Y-59975000D01*
X59996884Y-59517929D02*
X60172955Y-59517929D01*
%TO.N,Net-(IC2-MICR)*%
X61925000Y-65225000D02*
X61925000Y-65705000D01*
X61925000Y-65705000D02*
X62302500Y-66082500D01*
%TO.N,Net-(IC2-MIXR)*%
X58606405Y-62200000D02*
X59300000Y-62200000D01*
X62484000Y-59250000D02*
X62725000Y-59491000D01*
X58420000Y-62386405D02*
X58606405Y-62200000D01*
X62725000Y-59491000D02*
X62725000Y-59975000D01*
%TO.N,/HP_driver_L/QOP1R*%
X60325000Y-65225000D02*
X60325000Y-65575000D01*
X50115250Y-65786000D02*
X49501250Y-66400000D01*
X60325000Y-65575000D02*
X60114000Y-65786000D01*
X60114000Y-65786000D02*
X50115250Y-65786000D01*
%TO.N,Net-(IC2-QMICR)*%
X59954607Y-66652500D02*
X59233750Y-66652500D01*
X61125000Y-65482107D02*
X59954607Y-66652500D01*
X61125000Y-65225000D02*
X61125000Y-65482107D01*
X59233750Y-66652500D02*
X55036250Y-70850000D01*
%TO.N,/HP_driver_L/IOP2R*%
X59300000Y-64200000D02*
X58835554Y-64200000D01*
X57416000Y-64516000D02*
X52397500Y-59497500D01*
X58835554Y-64200000D02*
X58519554Y-64516000D01*
X52397500Y-59497500D02*
X49400000Y-59497500D01*
X58519554Y-64516000D02*
X57416000Y-64516000D01*
%TO.N,/HP_driver_L/IOP1R*%
X53238750Y-69600000D02*
X49436250Y-69600000D01*
X56436250Y-66402500D02*
X53238750Y-69600000D01*
X59851054Y-66402500D02*
X56436250Y-66402500D01*
X60725000Y-65225000D02*
X60725000Y-65528554D01*
X60725000Y-65528554D02*
X59851054Y-66402500D01*
%TO.N,/HP_driver_L/QOP2R*%
X57802446Y-64008000D02*
X58674000Y-64008000D01*
X58674000Y-64008000D02*
X58882000Y-63800000D01*
X55000000Y-59500000D02*
X55000000Y-61205554D01*
X58882000Y-63800000D02*
X59300000Y-63800000D01*
X55000000Y-61205554D02*
X57802446Y-64008000D01*
D32*
%TO.N,/AREF*%
X82598000Y-38623000D02*
X82598000Y-39353000D01*
X82630500Y-38590500D02*
X82598000Y-38623000D01*
D30*
%TO.N,Net-(U8-OUT)*%
X63500000Y-33782000D02*
X64262000Y-33020000D01*
X62495000Y-33782000D02*
X63500000Y-33782000D01*
D33*
%TO.N,Net-(IC1-LINL)*%
X67296428Y-63800000D02*
X67296428Y-63400000D01*
D31*
%TO.N,Net-(IC1-LINR)*%
X66796428Y-62486091D02*
X67082519Y-62200000D01*
X67082519Y-62200000D02*
X67296428Y-62200000D01*
X66548000Y-63500000D02*
X66796428Y-63251572D01*
X66796428Y-63251572D02*
X66796428Y-62486091D01*
%TO.N,Net-(IC1-QLINR)*%
X66994000Y-61800000D02*
X67296428Y-61800000D01*
X66294000Y-62500000D02*
X66994000Y-61800000D01*
D32*
%TO.N,/I2C_SDA*%
X65900000Y-63582842D02*
X65900000Y-63000000D01*
X65800000Y-61896000D02*
X66228000Y-61468000D01*
X75622842Y-57400000D02*
X78480000Y-54542842D01*
X65900000Y-63000000D02*
X65800000Y-62900000D01*
X67822000Y-57400000D02*
X75622842Y-57400000D01*
X88876002Y-48502558D02*
X88876002Y-48768000D01*
X65282842Y-64200000D02*
X65900000Y-63582842D01*
X84571188Y-48514000D02*
X86564558Y-48514000D01*
X78480000Y-51220000D02*
X79100000Y-50600000D01*
X64550000Y-64200000D02*
X65282842Y-64200000D01*
X83598000Y-47540812D02*
X83598000Y-46228000D01*
X78480000Y-54542842D02*
X78480000Y-51220000D01*
X66296000Y-61400000D02*
X67296428Y-61400000D01*
X87016158Y-48062400D02*
X88435844Y-48062400D01*
X84063188Y-48006000D02*
X84571188Y-48514000D01*
X86564558Y-48514000D02*
X87016158Y-48062400D01*
X65278000Y-60000000D02*
X65278000Y-59944000D01*
X65800000Y-62900000D02*
X65800000Y-61896000D01*
X66228000Y-61468000D02*
X66296000Y-61400000D01*
X65278000Y-59944000D02*
X67822000Y-57400000D01*
X84063188Y-48006000D02*
X83598000Y-47540812D01*
X88435844Y-48062400D02*
X88876002Y-48502558D01*
%TO.N,/I2C_SCL*%
X88376001Y-48285400D02*
X88353001Y-48262400D01*
X64800000Y-60100000D02*
X65900000Y-61200000D01*
X65400000Y-63800000D02*
X65700000Y-63500000D01*
X87099000Y-48262400D02*
X86593400Y-48768000D01*
X86593400Y-48768000D02*
X83820000Y-48768000D01*
X83098000Y-46228000D02*
X83098000Y-46958000D01*
X65700000Y-63500000D02*
X65700000Y-63100000D01*
X65600000Y-61500000D02*
X65900000Y-61200000D01*
X64550000Y-63800000D02*
X65400000Y-63800000D01*
X78280000Y-54460000D02*
X75540000Y-57200000D01*
X65700000Y-63100000D02*
X65600000Y-63000000D01*
X83130500Y-48078500D02*
X83130500Y-46990500D01*
X64800000Y-59660000D02*
X64800000Y-60100000D01*
X66100000Y-61000000D02*
X67296428Y-61000000D01*
X65900000Y-61200000D02*
X66100000Y-61000000D01*
X88376001Y-48768000D02*
X88376001Y-48285400D01*
X88353001Y-48262400D02*
X87099000Y-48262400D01*
X75540000Y-57200000D02*
X67260000Y-57200000D01*
X65600000Y-63000000D02*
X65600000Y-61500000D01*
X83820000Y-48768000D02*
X83130500Y-48078500D01*
X78486000Y-50038000D02*
X78280000Y-50244000D01*
X67260000Y-57200000D02*
X64800000Y-59660000D01*
X78280000Y-50244000D02*
X78280000Y-54460000D01*
X83098000Y-46958000D02*
X83130500Y-46990500D01*
D31*
%TO.N,/HP_R_-*%
X73122000Y-62200000D02*
X72546428Y-62200000D01*
X73152000Y-62230000D02*
X73122000Y-62200000D01*
%TO.N,/HP_R_+*%
X73306000Y-63400000D02*
X73660000Y-63754000D01*
X74676000Y-62992000D02*
X74676000Y-61468000D01*
X73914000Y-63754000D02*
X74676000Y-62992000D01*
X73660000Y-63754000D02*
X73914000Y-63754000D01*
X72546428Y-63400000D02*
X73306000Y-63400000D01*
%TO.N,/audio_in_R*%
X72546428Y-63800000D02*
X72944000Y-63800000D01*
X72944000Y-63800000D02*
X73250510Y-64106510D01*
D33*
%TO.N,Net-(IC2-LINL)*%
X64550000Y-61400000D02*
X64550000Y-61800000D01*
D31*
%TO.N,Net-(IC2-LINR)*%
X65278000Y-61214000D02*
X65050000Y-61442000D01*
X64763909Y-63000000D02*
X64550000Y-63000000D01*
X65050000Y-61442000D02*
X65050000Y-62713909D01*
X65050000Y-62713909D02*
X64763909Y-63000000D01*
%TO.N,Net-(IC2-QLINR)*%
X64550000Y-63400000D02*
X65124000Y-63400000D01*
X65124000Y-63400000D02*
X65278000Y-63246000D01*
%TO.N,/HP_L_-*%
X55900000Y-58500000D02*
X55900000Y-60726000D01*
X55900000Y-60726000D02*
X58174000Y-63000000D01*
X58174000Y-63000000D02*
X59300000Y-63000000D01*
%TO.N,/HP_L_+*%
X55260974Y-57912000D02*
X56134000Y-57912000D01*
X56600000Y-58378000D02*
X56600000Y-60400000D01*
X58000000Y-61800000D02*
X59300000Y-61800000D01*
X55118000Y-58054974D02*
X55260974Y-57912000D01*
X56134000Y-57912000D02*
X56600000Y-58378000D01*
X56600000Y-60400000D02*
X58000000Y-61800000D01*
D30*
%TO.N,/audio_in_L*%
X64000000Y-73500000D02*
X64000000Y-74800000D01*
X59700000Y-69200000D02*
X64000000Y-73500000D01*
X59700000Y-67200000D02*
X59700000Y-69200000D01*
D31*
X59300000Y-61400000D02*
X58860000Y-61400000D01*
X58860000Y-61400000D02*
X58420000Y-60960000D01*
D32*
%TO.N,/D2*%
X70013000Y-76200000D02*
X68834000Y-75021000D01*
X74676000Y-76200000D02*
X70013000Y-76200000D01*
X88392000Y-44196000D02*
X87547500Y-45040500D01*
X75438000Y-75438000D02*
X74676000Y-76200000D01*
X87547500Y-45040500D02*
X87285500Y-45040500D01*
%TO.N,/ANC_PBO*%
X84098000Y-46840000D02*
X84098000Y-46958000D01*
X84098000Y-46228000D02*
X84098000Y-46840000D01*
X84098000Y-46958000D02*
X84130500Y-46990500D01*
%TO.N,/ANC_OFF*%
X85090000Y-48006000D02*
X84598000Y-47514000D01*
X84598000Y-47514000D02*
X84598000Y-46228000D01*
%TO.N,/ANC_ON*%
X85098000Y-46466020D02*
X85098000Y-46228000D01*
X85090000Y-46474020D02*
X85098000Y-46466020D01*
X85090000Y-46990000D02*
X85090000Y-46474020D01*
%TO.N,/D10*%
X85598000Y-47244000D02*
X85598000Y-46228000D01*
X86360000Y-48006000D02*
X85598000Y-47244000D01*
D34*
%TO.N,/USB_D+*%
X82122999Y-46252999D02*
X82122999Y-48085001D01*
X82123000Y-46253000D02*
X82098000Y-46228000D01*
X82122999Y-48085001D02*
X81948000Y-48260000D01*
X82098000Y-46228000D02*
X82122999Y-46252999D01*
%TO.N,/USB_D-*%
X82573001Y-46252999D02*
X82573001Y-48085001D01*
X82573000Y-46253000D02*
X82598000Y-46228000D01*
X82573001Y-48085001D02*
X82748000Y-48260000D01*
X82598000Y-46228000D02*
X82573001Y-46252999D01*
D32*
%TO.N,/D11*%
X74168000Y-75438000D02*
X73736100Y-75869900D01*
X86852000Y-46720000D02*
X86852000Y-46482000D01*
X66232000Y-74168000D02*
X65400000Y-75000000D01*
X73736100Y-75869900D02*
X70522875Y-75869900D01*
X86852000Y-46482000D02*
X86598000Y-46228000D01*
X68820975Y-74168000D02*
X66232000Y-74168000D01*
X70522875Y-75869900D02*
X68820975Y-74168000D01*
X87630000Y-47498000D02*
X86852000Y-46720000D01*
%TO.N,/D3*%
X88800000Y-39114157D02*
X88800000Y-40050000D01*
X88309500Y-40540500D02*
X87285500Y-40540500D01*
X80435843Y-30750000D02*
X88800000Y-39114157D01*
X76114832Y-30750000D02*
X80435843Y-30750000D01*
X88800000Y-40050000D02*
X88309500Y-40540500D01*
X75205627Y-29840795D02*
X76114832Y-30750000D01*
%TO.N,/A4*%
X65409205Y-30988000D02*
X64262000Y-29840795D01*
X85598000Y-39353000D02*
X85598000Y-36194999D01*
X80391000Y-30988000D02*
X65409205Y-30988000D01*
X85598000Y-36194999D02*
X80391000Y-30988000D01*
%TO.N,/D13*%
X86106000Y-46474020D02*
X86098000Y-46466020D01*
X86098000Y-46466020D02*
X86098000Y-46228000D01*
X86106000Y-46990000D02*
X86106000Y-46474020D01*
%TO.N,/BAT_V_SENSE*%
X86598000Y-39023000D02*
X86598000Y-39353000D01*
X87108140Y-38852500D02*
X86768500Y-38852500D01*
X86768500Y-38852500D02*
X86598000Y-39023000D01*
%TO.N,Net-(U3-PROG)*%
X87750000Y-55902500D02*
X86850000Y-55902500D01*
%TO.N,/~{RESET}*%
X77225500Y-43740500D02*
X77216000Y-43750000D01*
X63201000Y-54655000D02*
X63155000Y-54655000D01*
X77216000Y-40640000D02*
X77216000Y-43750000D01*
X80410500Y-44040500D02*
X79680500Y-44040500D01*
X74106000Y-43750000D02*
X63201000Y-54655000D01*
X77216000Y-43750000D02*
X74106000Y-43750000D01*
X63155000Y-54655000D02*
X63155000Y-56485000D01*
X79680500Y-44040500D02*
X79380500Y-43740500D01*
X62738000Y-39700000D02*
X62776000Y-39738000D01*
X63155000Y-56485000D02*
X63130000Y-56510000D01*
X79380500Y-43740500D02*
X77225500Y-43740500D01*
X76314000Y-39738000D02*
X77216000Y-40640000D01*
X62776000Y-39738000D02*
X76314000Y-39738000D01*
%TO.N,/BM83_UART_RX*%
X87285500Y-41040500D02*
X88284500Y-41040500D01*
X78994000Y-47498000D02*
X80518000Y-47498000D01*
X77880000Y-51840000D02*
X77880000Y-49462894D01*
X77030000Y-52510000D02*
X77210000Y-52510000D01*
X78486000Y-48856894D02*
X78486000Y-48006000D01*
X77880000Y-49462894D02*
X78486000Y-48856894D01*
X78486000Y-48006000D02*
X78994000Y-47498000D01*
X88284500Y-41040500D02*
X88392000Y-41148000D01*
X77210000Y-52510000D02*
X77880000Y-51840000D01*
%TO.N,/BM83_UART_TX*%
X88646000Y-41910000D02*
X88392000Y-41656000D01*
X78686000Y-48939736D02*
X78080000Y-49545736D01*
X78867000Y-48006000D02*
X78686000Y-48187000D01*
X78080000Y-49545736D02*
X78080000Y-52620000D01*
X88392000Y-41656000D02*
X87401000Y-41656000D01*
X79248000Y-48006000D02*
X78867000Y-48006000D01*
X78686000Y-48187000D02*
X78686000Y-48939736D01*
X87401000Y-41656000D02*
X87285500Y-41540500D01*
X77190000Y-53510000D02*
X77030000Y-53510000D01*
X78080000Y-52620000D02*
X77190000Y-53510000D01*
%TO.N,/BM83_PROG_EN*%
X75980000Y-47960000D02*
X75980000Y-47970000D01*
X77978000Y-47960000D02*
X75980000Y-47960000D01*
X74930000Y-49020000D02*
X74930000Y-56380000D01*
X75980000Y-47970000D02*
X74930000Y-49020000D01*
X86098000Y-38108000D02*
X86098000Y-39353000D01*
X74930000Y-56380000D02*
X75100000Y-56550000D01*
X86360000Y-37846000D02*
X86098000Y-38108000D01*
%TO.N,/A2*%
X84598000Y-35477842D02*
X80308158Y-31188000D01*
X84598000Y-39353000D02*
X84598000Y-35477842D01*
X80308158Y-31188000D02*
X63069205Y-31188000D01*
X63069205Y-31188000D02*
X61722000Y-29840795D01*
%TO.N,/A3*%
X83966500Y-35989184D02*
X83966500Y-35129184D01*
X85098000Y-39353000D02*
X85098000Y-38523000D01*
X85098000Y-38523000D02*
X85130500Y-38490500D01*
X83966500Y-35129184D02*
X80225316Y-31388000D01*
X80225316Y-31388000D02*
X65264000Y-31388000D01*
X83966500Y-36820500D02*
X83966500Y-35989184D01*
X65264000Y-31388000D02*
X64770000Y-31882000D01*
%TO.N,/D4*%
X88088000Y-40040500D02*
X87285500Y-40040500D01*
X88138000Y-39990500D02*
X88088000Y-40040500D01*
X77978000Y-49082052D02*
X77978000Y-48768000D01*
X77030000Y-49510000D02*
X77550052Y-49510000D01*
X77550052Y-49510000D02*
X77978000Y-49082052D01*
%TO.N,/3V3_EN*%
X80010000Y-48514000D02*
X79756000Y-48514000D01*
X79756000Y-48514000D02*
X79250000Y-49020000D01*
X79250000Y-49020000D02*
X79250000Y-49462500D01*
X88063500Y-45540500D02*
X87285500Y-45540500D01*
X88138000Y-45466000D02*
X88063500Y-45540500D01*
%TD*%
M02*
