%TF.GenerationSoftware,KiCad,Pcbnew,7.0.1*%
%TF.CreationDate,2023-04-30T22:37:30+01:00*%
%TF.ProjectId,left_main,6c656674-5f6d-4616-996e-2e6b69636164,rev?*%
%TF.SameCoordinates,Original*%
%TF.FileFunction,Copper,L1,Top*%
%TF.FilePolarity,Positive*%
%FSLAX46Y46*%
G04 Gerber Fmt 4.6, Leading zero omitted, Abs format (unit mm)*
G04 Created by KiCad (PCBNEW 7.0.1) date 2023-04-30 22:37:30*
%MOMM*%
%LPD*%
G01*
G04 APERTURE LIST*
G04 Aperture macros list*
%AMRoundRect*
0 Rectangle with rounded corners*
0 $1 Rounding radius*
0 $2 $3 $4 $5 $6 $7 $8 $9 X,Y pos of 4 corners*
0 Add a 4 corners polygon primitive as box body*
4,1,4,$2,$3,$4,$5,$6,$7,$8,$9,$2,$3,0*
0 Add four circle primitives for the rounded corners*
1,1,$1+$1,$2,$3*
1,1,$1+$1,$4,$5*
1,1,$1+$1,$6,$7*
1,1,$1+$1,$8,$9*
0 Add four rect primitives between the rounded corners*
20,1,$1+$1,$2,$3,$4,$5,0*
20,1,$1+$1,$4,$5,$6,$7,0*
20,1,$1+$1,$6,$7,$8,$9,0*
20,1,$1+$1,$8,$9,$2,$3,0*%
G04 Aperture macros list end*
%TA.AperFunction,SMDPad,CuDef*%
%ADD10C,1.000000*%
%TD*%
%TA.AperFunction,SMDPad,CuDef*%
%ADD11RoundRect,0.155000X-0.212500X-0.155000X0.212500X-0.155000X0.212500X0.155000X-0.212500X0.155000X0*%
%TD*%
%TA.AperFunction,SMDPad,CuDef*%
%ADD12RoundRect,0.155000X0.155000X-0.212500X0.155000X0.212500X-0.155000X0.212500X-0.155000X-0.212500X0*%
%TD*%
%TA.AperFunction,SMDPad,CuDef*%
%ADD13RoundRect,0.160000X-0.160000X0.197500X-0.160000X-0.197500X0.160000X-0.197500X0.160000X0.197500X0*%
%TD*%
%TA.AperFunction,SMDPad,CuDef*%
%ADD14RoundRect,0.155000X0.212500X0.155000X-0.212500X0.155000X-0.212500X-0.155000X0.212500X-0.155000X0*%
%TD*%
%TA.AperFunction,SMDPad,CuDef*%
%ADD15RoundRect,0.155000X-0.155000X0.212500X-0.155000X-0.212500X0.155000X-0.212500X0.155000X0.212500X0*%
%TD*%
%TA.AperFunction,SMDPad,CuDef*%
%ADD16RoundRect,0.160000X0.197500X0.160000X-0.197500X0.160000X-0.197500X-0.160000X0.197500X-0.160000X0*%
%TD*%
%TA.AperFunction,SMDPad,CuDef*%
%ADD17R,0.304800X1.397000*%
%TD*%
%TA.AperFunction,SMDPad,CuDef*%
%ADD18R,2.641600X2.311400*%
%TD*%
%TA.AperFunction,SMDPad,CuDef*%
%ADD19RoundRect,0.160000X-0.197500X-0.160000X0.197500X-0.160000X0.197500X0.160000X-0.197500X0.160000X0*%
%TD*%
%TA.AperFunction,SMDPad,CuDef*%
%ADD20RoundRect,0.160000X0.160000X-0.197500X0.160000X0.197500X-0.160000X0.197500X-0.160000X-0.197500X0*%
%TD*%
%TA.AperFunction,SMDPad,CuDef*%
%ADD21R,0.900000X1.000000*%
%TD*%
%TA.AperFunction,SMDPad,CuDef*%
%ADD22RoundRect,0.218750X-0.256250X0.218750X-0.256250X-0.218750X0.256250X-0.218750X0.256250X0.218750X0*%
%TD*%
%TA.AperFunction,ViaPad*%
%ADD23C,0.450000*%
%TD*%
%TA.AperFunction,Conductor*%
%ADD24C,0.250000*%
%TD*%
%TA.AperFunction,Conductor*%
%ADD25C,0.500000*%
%TD*%
%TA.AperFunction,Conductor*%
%ADD26C,0.100000*%
%TD*%
%TA.AperFunction,Conductor*%
%ADD27C,0.150000*%
%TD*%
%TA.AperFunction,Conductor*%
%ADD28C,0.127000*%
%TD*%
%TA.AperFunction,Conductor*%
%ADD29C,0.200000*%
%TD*%
G04 APERTURE END LIST*
D10*
%TO.P,J11,1,1*%
%TO.N,/FB_mic_R_+*%
X71500000Y-32000000D03*
%TD*%
D11*
%TO.P,C16,1*%
%TO.N,/HP_driver_L/vneg*%
X70298500Y-67564000D03*
%TO.P,C16,2*%
%TO.N,GND*%
X71433500Y-67564000D03*
%TD*%
D10*
%TO.P,J22,1,1*%
%TO.N,/A2*%
X61722000Y-29840795D03*
%TD*%
D12*
%TO.P,C42,1*%
%TO.N,Net-(IC2-QMICL)*%
X64482500Y-51417500D03*
%TO.P,C42,2*%
%TO.N,Net-(C42-Pad2)*%
X64482500Y-50282500D03*
%TD*%
D10*
%TO.P,J5,1,1*%
%TO.N,/FB_mic_L_+*%
X53800000Y-74400000D03*
%TD*%
D13*
%TO.P,R48,1*%
%TO.N,Net-(IC2-IOP1L)*%
X58715000Y-53002500D03*
%TO.P,R48,2*%
%TO.N,Net-(C53-Pad1)*%
X58715000Y-54197500D03*
%TD*%
D11*
%TO.P,C66,1*%
%TO.N,Net-(C64-Pad2)*%
X57151250Y-67902500D03*
%TO.P,C66,2*%
%TO.N,Net-(C66-Pad2)*%
X58286250Y-67902500D03*
%TD*%
D14*
%TO.P,C74,1*%
%TO.N,Net-(C72-Pad2)*%
X51436250Y-66400000D03*
%TO.P,C74,2*%
%TO.N,/HP_driver_L/QOP1R*%
X50301250Y-66400000D03*
%TD*%
D12*
%TO.P,C56,1*%
%TO.N,/FB_mic_L_+*%
X62302500Y-67967500D03*
%TO.P,C56,2*%
%TO.N,Net-(IC2-MICR)*%
X62302500Y-66832500D03*
%TD*%
D15*
%TO.P,C5,1*%
%TO.N,GND*%
X82442500Y-36507000D03*
%TO.P,C5,2*%
%TO.N,Net-(U2-PA01{slash}EINT1{slash}SERCOM1.1)*%
X82442500Y-37642000D03*
%TD*%
D16*
%TO.P,R28,1*%
%TO.N,/HP_driver_R/IOP2R*%
X76962000Y-62230000D03*
%TO.P,R28,2*%
%TO.N,Net-(C31-Pad1)*%
X75767000Y-62230000D03*
%TD*%
D12*
%TO.P,C18,1*%
%TO.N,Net-(C18-Pad1)*%
X68302000Y-71135500D03*
%TO.P,C18,2*%
%TO.N,Net-(C18-Pad2)*%
X68302000Y-70000500D03*
%TD*%
D11*
%TO.P,C23,1*%
%TO.N,Net-(C23-Pad1)*%
X77918500Y-65151000D03*
%TO.P,C23,2*%
%TO.N,GND*%
X79053500Y-65151000D03*
%TD*%
D17*
%TO.P,J1,1,Pin_1*%
%TO.N,GND*%
X63750001Y-76154500D03*
%TO.P,J1,2,Pin_2*%
%TO.N,/audio_in_L*%
X64250000Y-76154500D03*
%TO.P,J1,3,Pin_3*%
%TO.N,/audio_in_R*%
X64750001Y-76154500D03*
%TO.P,J1,4,Pin_4*%
%TO.N,/D11*%
X65250000Y-76154500D03*
%TO.P,J1,5,Pin_5*%
%TO.N,unconnected-(J1-Pin_5-Pad5)*%
X65750002Y-76154500D03*
%TO.P,J1,6,Pin_6*%
%TO.N,unconnected-(J1-Pin_6-Pad6)*%
X66250001Y-76154500D03*
%TO.P,J1,7,Pin_7*%
%TO.N,unconnected-(J1-Pin_7-Pad7)*%
X66750000Y-76154500D03*
%TO.P,J1,8,Pin_8*%
%TO.N,unconnected-(J1-Pin_8-Pad8)*%
X67250002Y-76154500D03*
%TO.P,J1,9,Pin_9*%
%TO.N,/USB_D+*%
X67750000Y-76154500D03*
%TO.P,J1,10,Pin_10*%
%TO.N,/USB_D-*%
X68250002Y-76154500D03*
%TO.P,J1,11,Pin_11*%
%TO.N,/D2*%
X68750001Y-76154500D03*
%TO.P,J1,12,Pin_12*%
%TO.N,/ANC_PBO*%
X69250000Y-76154500D03*
%TO.P,J1,13,Pin_13*%
%TO.N,/ANC_OFF*%
X69750002Y-76154500D03*
%TO.P,J1,14,Pin_14*%
%TO.N,/ANC_ON*%
X70250001Y-76154500D03*
%TO.P,J1,15,Pin_15*%
%TO.N,/D10*%
X70750002Y-76154500D03*
%TO.P,J1,16,Pin_16*%
%TO.N,GND*%
X71250001Y-76154500D03*
%TO.P,J1,17,Pin_17*%
%TO.N,+3V3*%
X71750000Y-76154500D03*
%TO.P,J1,18,Pin_18*%
%TO.N,VBUS*%
X72250002Y-76154500D03*
D18*
%TO.P,J1,19,Pin_19*%
%TO.N,GND*%
X74032500Y-77399100D03*
%TO.P,J1,20,Pin_20*%
X61967500Y-77399100D03*
%TD*%
D16*
%TO.P,R54,1*%
%TO.N,/HP_driver_L/QOP1R*%
X47197500Y-63852500D03*
%TO.P,R54,2*%
%TO.N,Net-(C61-Pad1)*%
X46002500Y-63852500D03*
%TD*%
D11*
%TO.P,C53,1*%
%TO.N,Net-(C53-Pad1)*%
X57397500Y-55600000D03*
%TO.P,C53,2*%
%TO.N,GND*%
X58532500Y-55600000D03*
%TD*%
D19*
%TO.P,R58,1*%
%TO.N,Net-(C61-Pad1)*%
X46002500Y-62352500D03*
%TO.P,R58,2*%
%TO.N,Net-(C63-Pad2)*%
X47197500Y-62352500D03*
%TD*%
D11*
%TO.P,C2,1*%
%TO.N,VDD*%
X80063000Y-41240500D03*
%TO.P,C2,2*%
%TO.N,GND*%
X81198000Y-41240500D03*
%TD*%
D20*
%TO.P,R15,1*%
%TO.N,Net-(IC1-QMICL)*%
X66802000Y-68415500D03*
%TO.P,R15,2*%
%TO.N,Net-(C20-Pad1)*%
X66802000Y-67220500D03*
%TD*%
D11*
%TO.P,C26,1*%
%TO.N,/HP_driver_R/QOP1R*%
X78547000Y-56666000D03*
%TO.P,C26,2*%
%TO.N,Net-(C26-Pad2)*%
X79682000Y-56666000D03*
%TD*%
D15*
%TO.P,C4,1*%
%TO.N,GND*%
X80192500Y-36507000D03*
%TO.P,C4,2*%
%TO.N,Net-(U2-PA00{slash}EINT0{slash}SERCOM1.0)*%
X80192500Y-37642000D03*
%TD*%
D20*
%TO.P,R4,1*%
%TO.N,Net-(U3-PROG)*%
X88750000Y-56000000D03*
%TO.P,R4,2*%
%TO.N,GND*%
X88750000Y-54805000D03*
%TD*%
D19*
%TO.P,R38,1*%
%TO.N,/HP_driver_R/QOP1R*%
X72554500Y-49975000D03*
%TO.P,R38,2*%
%TO.N,/HP_driver_R/IOP1R*%
X73749500Y-49975000D03*
%TD*%
D11*
%TO.P,C57,1*%
%TO.N,Net-(C55-Pad2)*%
X60265000Y-54500000D03*
%TO.P,C57,2*%
%TO.N,Net-(IC2-MIXR)*%
X61400000Y-54500000D03*
%TD*%
D15*
%TO.P,C14,1*%
%TO.N,/AOHPR*%
X70100000Y-62530000D03*
%TO.P,C14,2*%
%TO.N,Net-(C14-Pad2)*%
X70100000Y-63665000D03*
%TD*%
D11*
%TO.P,C67,1*%
%TO.N,/HP_driver_L/IOP2R*%
X55835000Y-62400000D03*
%TO.P,C67,2*%
%TO.N,Net-(C67-Pad2)*%
X56970000Y-62400000D03*
%TD*%
D12*
%TO.P,C51,1*%
%TO.N,Net-(IC2-IOP1L)*%
X58715000Y-51417500D03*
%TO.P,C51,2*%
%TO.N,Net-(C51-Pad2)*%
X58715000Y-50282500D03*
%TD*%
D19*
%TO.P,R31,1*%
%TO.N,Net-(C31-Pad1)*%
X75767000Y-63754000D03*
%TO.P,R31,2*%
%TO.N,Net-(C32-Pad2)*%
X76962000Y-63754000D03*
%TD*%
D15*
%TO.P,C21,1*%
%TO.N,Net-(C18-Pad2)*%
X69644000Y-71330000D03*
%TO.P,C21,2*%
%TO.N,Net-(C21-Pad2)*%
X69644000Y-72465000D03*
%TD*%
D11*
%TO.P,C64,1*%
%TO.N,Net-(C60-Pad2)*%
X53186250Y-69350000D03*
%TO.P,C64,2*%
%TO.N,Net-(C64-Pad2)*%
X54321250Y-69350000D03*
%TD*%
D20*
%TO.P,R75,1*%
%TO.N,VDD*%
X81200000Y-50697500D03*
%TO.P,R75,2*%
%TO.N,/I2C_SDA*%
X81200000Y-49502500D03*
%TD*%
D16*
%TO.P,R64,1*%
%TO.N,/HP_driver_L/IOP2R*%
X54250000Y-62400000D03*
%TO.P,R64,2*%
%TO.N,Net-(C69-Pad1)*%
X53055000Y-62400000D03*
%TD*%
D15*
%TO.P,C48,1*%
%TO.N,Net-(IC2-MICL)*%
X63802500Y-66832500D03*
%TO.P,C48,2*%
%TO.N,/FF_mic_L_+*%
X63802500Y-67967500D03*
%TD*%
D12*
%TO.P,C46,1*%
%TO.N,Net-(C45-Pad2)*%
X61467500Y-50007500D03*
%TO.P,C46,2*%
%TO.N,Net-(C46-Pad2)*%
X61467500Y-48872500D03*
%TD*%
D19*
%TO.P,R45,1*%
%TO.N,Net-(IC2-IOP1L)*%
X60237500Y-51500000D03*
%TO.P,R45,2*%
%TO.N,Net-(C45-Pad2)*%
X61432500Y-51500000D03*
%TD*%
D14*
%TO.P,C63,1*%
%TO.N,Net-(C59-Pad2)*%
X50167500Y-62352500D03*
%TO.P,C63,2*%
%TO.N,Net-(C63-Pad2)*%
X49032500Y-62352500D03*
%TD*%
D10*
%TO.P,J3,1,1*%
%TO.N,/FF_mic_L_+*%
X57550000Y-77950000D03*
%TD*%
%TO.P,J16,1,1*%
%TO.N,+BATT*%
X79000000Y-32000000D03*
%TD*%
D15*
%TO.P,C22,1*%
%TO.N,Net-(IC1-IOP1L)*%
X76430000Y-67885500D03*
%TO.P,C22,2*%
%TO.N,Net-(C22-Pad2)*%
X76430000Y-69020500D03*
%TD*%
D13*
%TO.P,R61,1*%
%TO.N,/HP_driver_L/IOP1R*%
X55786250Y-66555000D03*
%TO.P,R61,2*%
%TO.N,Net-(C64-Pad2)*%
X55786250Y-67750000D03*
%TD*%
D19*
%TO.P,R62,1*%
%TO.N,Net-(C65-Pad2)*%
X47600000Y-59497500D03*
%TO.P,R62,2*%
%TO.N,/HP_driver_L/IOP2R*%
X48795000Y-59497500D03*
%TD*%
%TO.P,R39,1*%
%TO.N,Net-(C38-Pad2)*%
X75348500Y-45959500D03*
%TO.P,R39,2*%
%TO.N,GND*%
X76543500Y-45959500D03*
%TD*%
D16*
%TO.P,R49,1*%
%TO.N,Net-(IC2-MICS)*%
X62147500Y-69600000D03*
%TO.P,R49,2*%
%TO.N,/FB_mic_L_+*%
X60952500Y-69600000D03*
%TD*%
D20*
%TO.P,R69,1*%
%TO.N,Net-(C68-Pad2)*%
X52786250Y-67765000D03*
%TO.P,R69,2*%
%TO.N,GND*%
X52786250Y-66570000D03*
%TD*%
D13*
%TO.P,R6,1*%
%TO.N,Net-(IC1-QLINR)*%
X67600000Y-62500000D03*
%TO.P,R6,2*%
%TO.N,Net-(IC1-LINR)*%
X67600000Y-63695000D03*
%TD*%
D12*
%TO.P,C12,1*%
%TO.N,GND*%
X67352500Y-60867500D03*
%TO.P,C12,2*%
%TO.N,Net-(IC1-MICACL)*%
X67352500Y-59732500D03*
%TD*%
D14*
%TO.P,C20,1*%
%TO.N,Net-(C20-Pad1)*%
X68119500Y-65818000D03*
%TO.P,C20,2*%
%TO.N,GND*%
X66984500Y-65818000D03*
%TD*%
D15*
%TO.P,C15,1*%
%TO.N,+1V8*%
X72750000Y-66234500D03*
%TO.P,C15,2*%
%TO.N,GND*%
X72750000Y-67369500D03*
%TD*%
D16*
%TO.P,R66,1*%
%TO.N,/HP_driver_L/QOP2R*%
X54250000Y-59500000D03*
%TO.P,R66,2*%
%TO.N,/HP_driver_L/IOP2R*%
X53055000Y-59500000D03*
%TD*%
%TO.P,R63,1*%
%TO.N,Net-(C66-Pad2)*%
X58316250Y-66402500D03*
%TO.P,R63,2*%
%TO.N,/HP_driver_L/IOP1R*%
X57121250Y-66402500D03*
%TD*%
D10*
%TO.P,J7,1,1*%
%TO.N,/HP_L_+*%
X58801000Y-29845000D03*
%TD*%
D14*
%TO.P,C72,1*%
%TO.N,Net-(C68-Pad2)*%
X51403750Y-68100000D03*
%TO.P,C72,2*%
%TO.N,Net-(C72-Pad2)*%
X50268750Y-68100000D03*
%TD*%
D16*
%TO.P,R35,1*%
%TO.N,/HP_driver_R/IOP1R*%
X73648000Y-48615500D03*
%TO.P,R35,2*%
%TO.N,Net-(C36-Pad2)*%
X72453000Y-48615500D03*
%TD*%
D11*
%TO.P,C29,1*%
%TO.N,Net-(C28-Pad2)*%
X79950500Y-59537500D03*
%TO.P,C29,2*%
%TO.N,Net-(C29-Pad2)*%
X81085500Y-59537500D03*
%TD*%
D20*
%TO.P,R44,1*%
%TO.N,Net-(IC2-QLINR)*%
X64452500Y-62797500D03*
%TO.P,R44,2*%
%TO.N,Net-(IC2-LINR)*%
X64452500Y-61602500D03*
%TD*%
%TO.P,R26,1*%
%TO.N,/HP_driver_R/IOP2R*%
X78518000Y-60897000D03*
%TO.P,R26,2*%
%TO.N,Net-(C28-Pad2)*%
X78518000Y-59702000D03*
%TD*%
D10*
%TO.P,J14,1,1*%
%TO.N,/HP_R_-*%
X72705627Y-29840795D03*
%TD*%
D15*
%TO.P,C49,1*%
%TO.N,GND*%
X64452500Y-64232500D03*
%TO.P,C49,2*%
%TO.N,Net-(IC2-MICACL)*%
X64452500Y-65367500D03*
%TD*%
D11*
%TO.P,C68,1*%
%TO.N,/HP_driver_L/IOP1R*%
X50268750Y-69600000D03*
%TO.P,C68,2*%
%TO.N,Net-(C68-Pad2)*%
X51403750Y-69600000D03*
%TD*%
D20*
%TO.P,R19,1*%
%TO.N,Net-(IC1-IOP1L)*%
X76454000Y-66256500D03*
%TO.P,R19,2*%
%TO.N,Net-(C23-Pad1)*%
X76454000Y-65061500D03*
%TD*%
D13*
%TO.P,R32,1*%
%TO.N,Net-(IC1-QMICR)*%
X69342000Y-50187500D03*
%TO.P,R32,2*%
%TO.N,Net-(C35-Pad1)*%
X69342000Y-51382500D03*
%TD*%
D12*
%TO.P,C1,1*%
%TO.N,+3V3*%
X78800000Y-46535000D03*
%TO.P,C1,2*%
%TO.N,GND*%
X78800000Y-45400000D03*
%TD*%
D16*
%TO.P,R50,1*%
%TO.N,Net-(IC2-MIXR)*%
X61430000Y-53000000D03*
%TO.P,R50,2*%
%TO.N,Net-(IC2-IOP1L)*%
X60235000Y-53000000D03*
%TD*%
D11*
%TO.P,C30,1*%
%TO.N,/HP_driver_R/IOP2R*%
X78621000Y-62254000D03*
%TO.P,C30,2*%
%TO.N,Net-(C30-Pad2)*%
X79756000Y-62254000D03*
%TD*%
D15*
%TO.P,C54,1*%
%TO.N,Net-(IC2-CPN)*%
X60550000Y-58832500D03*
%TO.P,C54,2*%
%TO.N,Net-(IC2-CPP)*%
X60550000Y-59967500D03*
%TD*%
D20*
%TO.P,R40,1*%
%TO.N,Net-(C39-Pad1)*%
X76708000Y-51231000D03*
%TO.P,R40,2*%
%TO.N,Net-(C40-Pad2)*%
X76708000Y-50036000D03*
%TD*%
D13*
%TO.P,R21,1*%
%TO.N,Net-(C23-Pad1)*%
X74954000Y-65061500D03*
%TO.P,R21,2*%
%TO.N,Net-(C24-Pad2)*%
X74954000Y-66256500D03*
%TD*%
D20*
%TO.P,R41,1*%
%TO.N,Net-(C44-Pad1)*%
X62982500Y-54197500D03*
%TO.P,R41,2*%
%TO.N,Net-(C45-Pad2)*%
X62982500Y-53002500D03*
%TD*%
D16*
%TO.P,R59,1*%
%TO.N,Net-(C62-Pad1)*%
X57033750Y-69350000D03*
%TO.P,R59,2*%
%TO.N,Net-(C64-Pad2)*%
X55838750Y-69350000D03*
%TD*%
D13*
%TO.P,R24,1*%
%TO.N,Net-(C26-Pad2)*%
X81114500Y-56818500D03*
%TO.P,R24,2*%
%TO.N,GND*%
X81114500Y-58013500D03*
%TD*%
D11*
%TO.P,C35,1*%
%TO.N,Net-(C35-Pad1)*%
X69524500Y-52697500D03*
%TO.P,C35,2*%
%TO.N,GND*%
X70659500Y-52697500D03*
%TD*%
D14*
%TO.P,C47,1*%
%TO.N,/HP_driver_L/vneg*%
X60405165Y-57400000D03*
%TO.P,C47,2*%
%TO.N,GND*%
X59270165Y-57400000D03*
%TD*%
D19*
%TO.P,R55,1*%
%TO.N,Net-(IC2-QMICR)*%
X55838750Y-70850000D03*
%TO.P,R55,2*%
%TO.N,Net-(C62-Pad1)*%
X57033750Y-70850000D03*
%TD*%
D16*
%TO.P,R5,1*%
%TO.N,VDD*%
X81228000Y-43740500D03*
%TO.P,R5,2*%
%TO.N,/~{RESET}*%
X80033000Y-43740500D03*
%TD*%
D14*
%TO.P,C41,1*%
%TO.N,Net-(C40-Pad2)*%
X73660000Y-51499000D03*
%TO.P,C41,2*%
%TO.N,/HP_driver_R/QOP1R*%
X72525000Y-51499000D03*
%TD*%
D20*
%TO.P,R42,1*%
%TO.N,Net-(C43-Pad2)*%
X63100000Y-62797500D03*
%TO.P,R42,2*%
%TO.N,Net-(IC2-QLINR)*%
X63100000Y-61602500D03*
%TD*%
D12*
%TO.P,C9,1*%
%TO.N,Net-(IC1-MICL)*%
X68100000Y-58417500D03*
%TO.P,C9,2*%
%TO.N,/FF_mic_R_+*%
X68100000Y-57282500D03*
%TD*%
D10*
%TO.P,J13,1,1*%
%TO.N,/HP_R_+*%
X74000000Y-32000000D03*
%TD*%
D19*
%TO.P,R71,1*%
%TO.N,Net-(C70-Pad1)*%
X47438750Y-68100000D03*
%TO.P,R71,2*%
%TO.N,Net-(C72-Pad2)*%
X48633750Y-68100000D03*
%TD*%
D15*
%TO.P,C40,1*%
%TO.N,Net-(C38-Pad2)*%
X76708000Y-47316000D03*
%TO.P,C40,2*%
%TO.N,Net-(C40-Pad2)*%
X76708000Y-48451000D03*
%TD*%
D19*
%TO.P,R1,1*%
%TO.N,/D13*%
X86033000Y-46240500D03*
%TO.P,R1,2*%
%TO.N,Net-(D1-A)*%
X87228000Y-46240500D03*
%TD*%
D15*
%TO.P,C19,1*%
%TO.N,Net-(IC1-QMICL)*%
X66802000Y-70000500D03*
%TO.P,C19,2*%
%TO.N,Net-(C18-Pad1)*%
X66802000Y-71135500D03*
%TD*%
D10*
%TO.P,J8,1,1*%
%TO.N,/HP_L_-*%
X60071000Y-32004000D03*
%TD*%
D14*
%TO.P,C32,1*%
%TO.N,Net-(C30-Pad2)*%
X79756000Y-63754000D03*
%TO.P,C32,2*%
%TO.N,Net-(C32-Pad2)*%
X78621000Y-63754000D03*
%TD*%
D12*
%TO.P,C62,1*%
%TO.N,Net-(C62-Pad1)*%
X58436250Y-70600000D03*
%TO.P,C62,2*%
%TO.N,GND*%
X58436250Y-69465000D03*
%TD*%
%TO.P,C37,1*%
%TO.N,Net-(C36-Pad2)*%
X72288500Y-47183000D03*
%TO.P,C37,2*%
%TO.N,Net-(C37-Pad2)*%
X72288500Y-46048000D03*
%TD*%
D16*
%TO.P,R68,1*%
%TO.N,Net-(C67-Pad2)*%
X57000000Y-63900000D03*
%TO.P,R68,2*%
%TO.N,GND*%
X55805000Y-63900000D03*
%TD*%
D20*
%TO.P,R74,1*%
%TO.N,VDD*%
X79800000Y-50697500D03*
%TO.P,R74,2*%
%TO.N,/I2C_SCL*%
X79800000Y-49502500D03*
%TD*%
D10*
%TO.P,J10,1,1*%
%TO.N,GND*%
X67729627Y-29840795D03*
%TD*%
D11*
%TO.P,C6,1*%
%TO.N,+BATT*%
X87432500Y-53402500D03*
%TO.P,C6,2*%
%TO.N,GND*%
X88567500Y-53402500D03*
%TD*%
%TO.P,C44,1*%
%TO.N,Net-(C44-Pad1)*%
X63165000Y-55600000D03*
%TO.P,C44,2*%
%TO.N,GND*%
X64300000Y-55600000D03*
%TD*%
D12*
%TO.P,C31,1*%
%TO.N,Net-(C31-Pad1)*%
X74422000Y-63500000D03*
%TO.P,C31,2*%
%TO.N,GND*%
X74422000Y-62365000D03*
%TD*%
D16*
%TO.P,R14,1*%
%TO.N,Net-(C18-Pad1)*%
X68149500Y-72568000D03*
%TO.P,R14,2*%
%TO.N,GND*%
X66954500Y-72568000D03*
%TD*%
D13*
%TO.P,R56,1*%
%TO.N,Net-(C59-Pad2)*%
X51600000Y-62505000D03*
%TO.P,R56,2*%
%TO.N,GND*%
X51600000Y-63700000D03*
%TD*%
D16*
%TO.P,R47,1*%
%TO.N,/FF_mic_L_+*%
X65147500Y-69600000D03*
%TO.P,R47,2*%
%TO.N,Net-(IC2-MICS)*%
X63952500Y-69600000D03*
%TD*%
D14*
%TO.P,C77,1*%
%TO.N,/AREF*%
X81198000Y-39990500D03*
%TO.P,C77,2*%
%TO.N,GND*%
X80063000Y-39990500D03*
%TD*%
D15*
%TO.P,C13,1*%
%TO.N,Net-(IC1-MICACR)*%
X70352500Y-59765000D03*
%TO.P,C13,2*%
%TO.N,GND*%
X70352500Y-60900000D03*
%TD*%
%TO.P,C10,1*%
%TO.N,/FB_mic_R_+*%
X69600000Y-57282500D03*
%TO.P,C10,2*%
%TO.N,Net-(IC1-MICR)*%
X69600000Y-58417500D03*
%TD*%
%TO.P,C45,1*%
%TO.N,Net-(C42-Pad2)*%
X62982500Y-50282500D03*
%TO.P,C45,2*%
%TO.N,Net-(C45-Pad2)*%
X62982500Y-51417500D03*
%TD*%
D10*
%TO.P,J6,1,1*%
%TO.N,GND*%
X51800000Y-72600000D03*
%TD*%
D19*
%TO.P,R33,1*%
%TO.N,Net-(C34-Pad2)*%
X69494500Y-45947500D03*
%TO.P,R33,2*%
%TO.N,GND*%
X70689500Y-45947500D03*
%TD*%
D12*
%TO.P,C24,1*%
%TO.N,Net-(C22-Pad2)*%
X74930000Y-69020500D03*
%TO.P,C24,2*%
%TO.N,Net-(C24-Pad2)*%
X74930000Y-67885500D03*
%TD*%
D13*
%TO.P,R72,1*%
%TO.N,Net-(J20-Pad1)*%
X61976000Y-33946500D03*
%TO.P,R72,2*%
%TO.N,GND*%
X61976000Y-35141500D03*
%TD*%
D20*
%TO.P,R20,1*%
%TO.N,Net-(C22-Pad2)*%
X77851000Y-67526500D03*
%TO.P,R20,2*%
%TO.N,GND*%
X77851000Y-66331500D03*
%TD*%
D12*
%TO.P,C34,1*%
%TO.N,Net-(IC1-QMICR)*%
X69342000Y-48505000D03*
%TO.P,C34,2*%
%TO.N,Net-(C34-Pad2)*%
X69342000Y-47370000D03*
%TD*%
D20*
%TO.P,R30,1*%
%TO.N,Net-(C30-Pad2)*%
X81280000Y-63589500D03*
%TO.P,R30,2*%
%TO.N,GND*%
X81280000Y-62394500D03*
%TD*%
D13*
%TO.P,R2,1*%
%TO.N,+BATT*%
X87630500Y-38143000D03*
%TO.P,R2,2*%
%TO.N,/BAT_V_SENSE*%
X87630500Y-39338000D03*
%TD*%
D10*
%TO.P,J12,1,1*%
%TO.N,GND*%
X70205627Y-29840795D03*
%TD*%
D19*
%TO.P,R25,1*%
%TO.N,Net-(C27-Pad1)*%
X75767000Y-58166000D03*
%TO.P,R25,2*%
%TO.N,Net-(C28-Pad2)*%
X76962000Y-58166000D03*
%TD*%
D20*
%TO.P,R7,1*%
%TO.N,Net-(C14-Pad2)*%
X68850000Y-63695000D03*
%TO.P,R7,2*%
%TO.N,Net-(IC1-QLINR)*%
X68850000Y-62500000D03*
%TD*%
D10*
%TO.P,J20,1,1*%
%TO.N,Net-(J20-Pad1)*%
X62992000Y-32258000D03*
%TD*%
D13*
%TO.P,R73,1*%
%TO.N,/A4*%
X60452000Y-33946500D03*
%TO.P,R73,2*%
%TO.N,GND*%
X60452000Y-35141500D03*
%TD*%
%TO.P,R36,1*%
%TO.N,Net-(C37-Pad2)*%
X73914000Y-46018000D03*
%TO.P,R36,2*%
%TO.N,/HP_driver_R/IOP1R*%
X73914000Y-47213000D03*
%TD*%
D14*
%TO.P,C28,1*%
%TO.N,Net-(C26-Pad2)*%
X79682000Y-58166000D03*
%TO.P,C28,2*%
%TO.N,Net-(C28-Pad2)*%
X78547000Y-58166000D03*
%TD*%
D16*
%TO.P,R22,1*%
%TO.N,Net-(IC1-MIXR)*%
X73622500Y-71501000D03*
%TO.P,R22,2*%
%TO.N,Net-(IC1-IOP1L)*%
X72427500Y-71501000D03*
%TD*%
D20*
%TO.P,R43,1*%
%TO.N,Net-(IC2-MICL)*%
X65302500Y-67997500D03*
%TO.P,R43,2*%
%TO.N,GND*%
X65302500Y-66802500D03*
%TD*%
D16*
%TO.P,R67,1*%
%TO.N,/HP_driver_L/QOP1R*%
X48698750Y-66400000D03*
%TO.P,R67,2*%
%TO.N,/HP_driver_L/IOP1R*%
X47503750Y-66400000D03*
%TD*%
D14*
%TO.P,C75,1*%
%TO.N,+3V3*%
X81167500Y-52100000D03*
%TO.P,C75,2*%
%TO.N,GND*%
X80032500Y-52100000D03*
%TD*%
D11*
%TO.P,C59,1*%
%TO.N,/HP_driver_L/QOP1R*%
X49032500Y-63852500D03*
%TO.P,C59,2*%
%TO.N,Net-(C59-Pad2)*%
X50167500Y-63852500D03*
%TD*%
D20*
%TO.P,R17,1*%
%TO.N,Net-(C21-Pad2)*%
X71144000Y-72495000D03*
%TO.P,R17,2*%
%TO.N,Net-(IC1-IOP1L)*%
X71144000Y-71300000D03*
%TD*%
D15*
%TO.P,C78,1*%
%TO.N,Net-(U8-OUT)*%
X63500000Y-33976500D03*
%TO.P,C78,2*%
%TO.N,GND*%
X63500000Y-35111500D03*
%TD*%
D14*
%TO.P,C25,1*%
%TO.N,Net-(C24-Pad2)*%
X73592500Y-70231000D03*
%TO.P,C25,2*%
%TO.N,Net-(IC1-MIXR)*%
X72457500Y-70231000D03*
%TD*%
D13*
%TO.P,R46,1*%
%TO.N,Net-(C46-Pad2)*%
X60085000Y-48902500D03*
%TO.P,R46,2*%
%TO.N,Net-(IC2-IOP1L)*%
X60085000Y-50097500D03*
%TD*%
D15*
%TO.P,C79,1*%
%TO.N,+3V3*%
X65083500Y-33976500D03*
%TO.P,C79,2*%
%TO.N,GND*%
X65083500Y-35111500D03*
%TD*%
D12*
%TO.P,C58,1*%
%TO.N,+1V8*%
X59150000Y-59967500D03*
%TO.P,C58,2*%
%TO.N,GND*%
X59150000Y-58832500D03*
%TD*%
D10*
%TO.P,J15,1,1*%
%TO.N,/D3*%
X75205627Y-29840795D03*
%TD*%
D20*
%TO.P,R52,1*%
%TO.N,Net-(C53-Pad1)*%
X57215000Y-54197500D03*
%TO.P,R52,2*%
%TO.N,Net-(C55-Pad2)*%
X57215000Y-53002500D03*
%TD*%
D10*
%TO.P,J21,1,1*%
%TO.N,/A4*%
X64262000Y-29840795D03*
%TD*%
D12*
%TO.P,C38,1*%
%TO.N,/HP_driver_R/IOP1R*%
X75184000Y-48451000D03*
%TO.P,C38,2*%
%TO.N,Net-(C38-Pad2)*%
X75184000Y-47316000D03*
%TD*%
D20*
%TO.P,R34,1*%
%TO.N,Net-(C35-Pad1)*%
X70866000Y-51382500D03*
%TO.P,R34,2*%
%TO.N,Net-(C36-Pad2)*%
X70866000Y-50187500D03*
%TD*%
D10*
%TO.P,J9,1,1*%
%TO.N,/FF_mic_R_+*%
X69000000Y-32000000D03*
%TD*%
D19*
%TO.P,R51,1*%
%TO.N,Net-(C51-Pad2)*%
X57367500Y-48850000D03*
%TO.P,R51,2*%
%TO.N,GND*%
X58562500Y-48850000D03*
%TD*%
D13*
%TO.P,R16,1*%
%TO.N,Net-(C20-Pad1)*%
X68302000Y-67220500D03*
%TO.P,R16,2*%
%TO.N,Net-(C18-Pad2)*%
X68302000Y-68415500D03*
%TD*%
D21*
%TO.P,SW2,1,A*%
%TO.N,/~{RESET}*%
X64750000Y-39700000D03*
X60650000Y-39700000D03*
%TO.P,SW2,2,B*%
%TO.N,GND*%
X64750000Y-38100000D03*
X60650000Y-38100000D03*
%TD*%
D13*
%TO.P,R29,1*%
%TO.N,/HP_driver_R/QOP2R*%
X76962000Y-59600500D03*
%TO.P,R29,2*%
%TO.N,/HP_driver_R/IOP2R*%
X76962000Y-60795500D03*
%TD*%
D11*
%TO.P,C69,1*%
%TO.N,Net-(C69-Pad1)*%
X52995000Y-63900000D03*
%TO.P,C69,2*%
%TO.N,GND*%
X54130000Y-63900000D03*
%TD*%
D12*
%TO.P,C70,1*%
%TO.N,Net-(C70-Pad1)*%
X46036250Y-67735000D03*
%TO.P,C70,2*%
%TO.N,GND*%
X46036250Y-66600000D03*
%TD*%
%TO.P,C52,1*%
%TO.N,Net-(IC2-MICACR)*%
X61652500Y-65335000D03*
%TO.P,C52,2*%
%TO.N,GND*%
X61652500Y-64200000D03*
%TD*%
%TO.P,C33,1*%
%TO.N,Net-(C32-Pad2)*%
X75438000Y-60765500D03*
%TO.P,C33,2*%
%TO.N,/HP_driver_R/QOP2R*%
X75438000Y-59630500D03*
%TD*%
D15*
%TO.P,C27,1*%
%TO.N,Net-(C27-Pad1)*%
X74364500Y-56848500D03*
%TO.P,C27,2*%
%TO.N,GND*%
X74364500Y-57983500D03*
%TD*%
D12*
%TO.P,C76,1*%
%TO.N,+1V8*%
X80200000Y-54967500D03*
%TO.P,C76,2*%
%TO.N,GND*%
X80200000Y-53832500D03*
%TD*%
D14*
%TO.P,C60,1*%
%TO.N,Net-(IC2-QMICR)*%
X54321250Y-70850000D03*
%TO.P,C60,2*%
%TO.N,Net-(C60-Pad2)*%
X53186250Y-70850000D03*
%TD*%
D19*
%TO.P,R13,1*%
%TO.N,Net-(C42-Pad2)*%
X63135000Y-48850000D03*
%TO.P,R13,2*%
%TO.N,GND*%
X64330000Y-48850000D03*
%TD*%
%TO.P,R8,1*%
%TO.N,/FF_mic_R_+*%
X66752500Y-55800000D03*
%TO.P,R8,2*%
%TO.N,Net-(IC1-MICS)*%
X67947500Y-55800000D03*
%TD*%
D13*
%TO.P,R37,1*%
%TO.N,/HP_driver_R/IOP1R*%
X75184000Y-50036000D03*
%TO.P,R37,2*%
%TO.N,Net-(C39-Pad1)*%
X75184000Y-51231000D03*
%TD*%
D10*
%TO.P,J17,1,1*%
%TO.N,+3V3*%
X76500000Y-32000000D03*
%TD*%
D15*
%TO.P,C36,1*%
%TO.N,Net-(C34-Pad2)*%
X70866000Y-47370000D03*
%TO.P,C36,2*%
%TO.N,Net-(C36-Pad2)*%
X70866000Y-48505000D03*
%TD*%
%TO.P,C11,1*%
%TO.N,Net-(IC1-MICS)*%
X68850000Y-59782500D03*
%TO.P,C11,2*%
%TO.N,GND*%
X68850000Y-60917500D03*
%TD*%
D16*
%TO.P,R23,1*%
%TO.N,/HP_driver_R/QOP1R*%
X76962000Y-56666000D03*
%TO.P,R23,2*%
%TO.N,Net-(C27-Pad1)*%
X75767000Y-56666000D03*
%TD*%
D13*
%TO.P,R10,1*%
%TO.N,Net-(IC1-MICR)*%
X71100000Y-57252500D03*
%TO.P,R10,2*%
%TO.N,GND*%
X71100000Y-58447500D03*
%TD*%
D10*
%TO.P,J4,1,1*%
%TO.N,GND*%
X55800000Y-76200000D03*
%TD*%
D12*
%TO.P,C61,1*%
%TO.N,Net-(C61-Pad1)*%
X46000000Y-60867500D03*
%TO.P,C61,2*%
%TO.N,GND*%
X46000000Y-59732500D03*
%TD*%
D14*
%TO.P,C65,1*%
%TO.N,Net-(C63-Pad2)*%
X48762500Y-61067500D03*
%TO.P,C65,2*%
%TO.N,Net-(C65-Pad2)*%
X47627500Y-61067500D03*
%TD*%
D16*
%TO.P,R18,1*%
%TO.N,Net-(IC1-IOP1L)*%
X70967500Y-70044500D03*
%TO.P,R18,2*%
%TO.N,Net-(C18-Pad2)*%
X69772500Y-70044500D03*
%TD*%
D20*
%TO.P,R57,1*%
%TO.N,Net-(C60-Pad2)*%
X54236250Y-67797500D03*
%TO.P,R57,2*%
%TO.N,GND*%
X54236250Y-66602500D03*
%TD*%
%TO.P,R53,1*%
%TO.N,Net-(IC2-MICR)*%
X60802500Y-67997500D03*
%TO.P,R53,2*%
%TO.N,GND*%
X60802500Y-66802500D03*
%TD*%
D14*
%TO.P,C71,1*%
%TO.N,Net-(C67-Pad2)*%
X56970000Y-60900000D03*
%TO.P,C71,2*%
%TO.N,Net-(C71-Pad2)*%
X55835000Y-60900000D03*
%TD*%
D12*
%TO.P,C7,1*%
%TO.N,VBUS*%
X82800000Y-52129500D03*
%TO.P,C7,2*%
%TO.N,GND*%
X82800000Y-50994500D03*
%TD*%
D13*
%TO.P,R11,1*%
%TO.N,Net-(IC1-MICL)*%
X66600000Y-57252500D03*
%TO.P,R11,2*%
%TO.N,GND*%
X66600000Y-58447500D03*
%TD*%
D16*
%TO.P,R3,1*%
%TO.N,/BAT_V_SENSE*%
X86478000Y-39240500D03*
%TO.P,R3,2*%
%TO.N,GND*%
X85283000Y-39240500D03*
%TD*%
D15*
%TO.P,C55,1*%
%TO.N,Net-(C51-Pad2)*%
X57215000Y-50282500D03*
%TO.P,C55,2*%
%TO.N,Net-(C55-Pad2)*%
X57215000Y-51417500D03*
%TD*%
D19*
%TO.P,R9,1*%
%TO.N,Net-(IC1-MICS)*%
X69752500Y-55800000D03*
%TO.P,R9,2*%
%TO.N,/FB_mic_R_+*%
X70947500Y-55800000D03*
%TD*%
D16*
%TO.P,R65,1*%
%TO.N,/HP_driver_L/IOP1R*%
X48633750Y-69600000D03*
%TO.P,R65,2*%
%TO.N,Net-(C70-Pad1)*%
X47438750Y-69600000D03*
%TD*%
D11*
%TO.P,C39,1*%
%TO.N,Net-(C39-Pad1)*%
X75378500Y-52633500D03*
%TO.P,C39,2*%
%TO.N,GND*%
X76513500Y-52633500D03*
%TD*%
D22*
%TO.P,D1,1,C*%
%TO.N,GND*%
X87380500Y-43203000D03*
%TO.P,D1,2,A*%
%TO.N,Net-(D1-A)*%
X87380500Y-44778000D03*
%TD*%
D19*
%TO.P,R70,1*%
%TO.N,Net-(C69-Pad1)*%
X53055000Y-60900000D03*
%TO.P,R70,2*%
%TO.N,Net-(C71-Pad2)*%
X54250000Y-60900000D03*
%TD*%
D10*
%TO.P,J19,1,1*%
%TO.N,Net-(U8-OUT)*%
X65532000Y-32258000D03*
%TD*%
D16*
%TO.P,R27,1*%
%TO.N,Net-(C29-Pad2)*%
X81115500Y-60960000D03*
%TO.P,R27,2*%
%TO.N,/HP_driver_R/IOP2R*%
X79920500Y-60960000D03*
%TD*%
D12*
%TO.P,C17,1*%
%TO.N,Net-(IC1-CPN)*%
X71347500Y-66367500D03*
%TO.P,C17,2*%
%TO.N,Net-(IC1-CPP)*%
X71347500Y-65232500D03*
%TD*%
D14*
%TO.P,C73,1*%
%TO.N,Net-(C71-Pad2)*%
X56930000Y-59500000D03*
%TO.P,C73,2*%
%TO.N,/HP_driver_L/QOP2R*%
X55795000Y-59500000D03*
%TD*%
D10*
%TO.P,J18,1,1*%
%TO.N,GND*%
X77705627Y-29840795D03*
%TD*%
D11*
%TO.P,C3,1*%
%TO.N,Net-(U2-VDDCORE)*%
X80063000Y-42490500D03*
%TO.P,C3,2*%
%TO.N,GND*%
X81198000Y-42490500D03*
%TD*%
D13*
%TO.P,R12,1*%
%TO.N,Net-(IC2-QMICL)*%
X64482500Y-53002500D03*
%TO.P,R12,2*%
%TO.N,Net-(C44-Pad1)*%
X64482500Y-54197500D03*
%TD*%
D12*
%TO.P,C50,1*%
%TO.N,Net-(IC2-MICS)*%
X63052500Y-65367500D03*
%TO.P,C50,2*%
%TO.N,GND*%
X63052500Y-64232500D03*
%TD*%
D13*
%TO.P,R60,1*%
%TO.N,/HP_driver_L/IOP2R*%
X50195000Y-59700000D03*
%TO.P,R60,2*%
%TO.N,Net-(C63-Pad2)*%
X50195000Y-60895000D03*
%TD*%
D15*
%TO.P,C43,1*%
%TO.N,/AOHPL*%
X61850000Y-61632500D03*
%TO.P,C43,2*%
%TO.N,Net-(C43-Pad2)*%
X61850000Y-62767500D03*
%TD*%
D11*
%TO.P,C8,1*%
%TO.N,VDD*%
X82832500Y-49784000D03*
%TO.P,C8,2*%
%TO.N,GND*%
X83967500Y-49784000D03*
%TD*%
D23*
%TO.N,+3V3*%
X72000000Y-77400000D03*
X78000000Y-46535000D03*
X81200000Y-52800000D03*
X76500000Y-32000000D03*
X65786000Y-33782000D03*
%TO.N,GND*%
X85563914Y-41079448D03*
X56359500Y-55000000D03*
X85547496Y-44527343D03*
X78000000Y-45400000D03*
X57100000Y-45600000D03*
X57836250Y-69400000D03*
X66862944Y-54912444D03*
X88126001Y-49771300D03*
X81367000Y-36507000D03*
X63000000Y-76600000D03*
X73660000Y-61468000D03*
X63200000Y-74800000D03*
X80200000Y-52800000D03*
X80587500Y-62230000D03*
X75110000Y-62738000D03*
X59815500Y-58420000D03*
X58600000Y-55000000D03*
X66294000Y-64516000D03*
X71200000Y-77400000D03*
X53436250Y-66600000D03*
X77705627Y-29840795D03*
X74930000Y-57912000D03*
X70612000Y-45212000D03*
X54962500Y-63900000D03*
X69900000Y-55000000D03*
X63000000Y-78200000D03*
X73000000Y-76600000D03*
X75692000Y-44958000D03*
X87750000Y-54902500D03*
X66600000Y-59500000D03*
X84328000Y-50800000D03*
X55800000Y-76200000D03*
X85630500Y-42740500D03*
X78486000Y-65913000D03*
X81930926Y-42490500D03*
X61000000Y-76600000D03*
X51850000Y-72650000D03*
X61000000Y-78200000D03*
X64262000Y-60500000D03*
X46636250Y-66600000D03*
X80518000Y-57912000D03*
X51000000Y-63700000D03*
X82124228Y-41046611D03*
X75000000Y-78200000D03*
X70358000Y-52070000D03*
X82132438Y-44527343D03*
X61214000Y-33274000D03*
X58600000Y-49490500D03*
X46600000Y-59700000D03*
X57658000Y-63246000D03*
X71100000Y-42900000D03*
X67564000Y-71882000D03*
X64950500Y-48800000D03*
X75438000Y-53594000D03*
X64950500Y-54900000D03*
X73000000Y-78200000D03*
X75000000Y-76600000D03*
X62738000Y-38100000D03*
X66657894Y-60442106D03*
X62738000Y-35052000D03*
X72129131Y-66802000D03*
X67564000Y-66548000D03*
%TO.N,Net-(U2-VDDCORE)*%
X79380500Y-42490500D03*
%TO.N,Net-(U2-PA00{slash}EINT0{slash}SERCOM1.0)*%
X80918500Y-38090500D03*
%TO.N,Net-(U2-PA01{slash}EINT1{slash}SERCOM1.1)*%
X81934500Y-38090500D03*
%TO.N,+BATT*%
X88250000Y-52000000D03*
%TO.N,VBUS*%
X72675900Y-75469900D03*
X83400000Y-52000000D03*
%TO.N,VDD*%
X82100000Y-49300000D03*
X79380500Y-41615500D03*
X83598000Y-38590500D03*
X88392000Y-42926000D03*
X80730500Y-46190500D03*
%TO.N,Net-(IC1-MICL)*%
X68100000Y-59100000D03*
%TO.N,Net-(IC1-MICR)*%
X69600000Y-59100000D03*
%TO.N,Net-(IC1-MICS)*%
X68850000Y-58674000D03*
%TO.N,Net-(IC1-MICACL)*%
X67355000Y-58674000D03*
%TO.N,Net-(IC1-MICACR)*%
X70358000Y-58674000D03*
%TO.N,/AOHPR*%
X64000000Y-43000000D03*
%TO.N,+1V8*%
X73025000Y-65659000D03*
X59600000Y-60500000D03*
X80200000Y-56000000D03*
%TO.N,/HP_driver_L/vneg*%
X60600000Y-58000000D03*
X70358000Y-66802000D03*
%TO.N,Net-(IC1-CPN)*%
X70806050Y-66000000D03*
%TO.N,Net-(IC1-CPP)*%
X72136000Y-65786000D03*
%TO.N,Net-(IC1-QMICL)*%
X66802000Y-69088000D03*
%TO.N,Net-(IC1-IOP1L)*%
X71120000Y-70612000D03*
%TO.N,Net-(IC1-MIXR)*%
X69342000Y-65913000D03*
X73058750Y-70832250D03*
X73660000Y-62992000D03*
%TO.N,/HP_driver_R/QOP1R*%
X73977500Y-58991500D03*
%TO.N,/HP_driver_R/IOP2R*%
X77724000Y-61468000D03*
%TO.N,/HP_driver_R/QOP2R*%
X74676000Y-60452000D03*
%TO.N,Net-(IC1-QMICR)*%
X72781301Y-58035594D03*
%TO.N,/HP_driver_R/IOP1R*%
X72898000Y-58928000D03*
%TO.N,Net-(IC2-QMICL)*%
X63754000Y-59250000D03*
%TO.N,/AOHPL*%
X63000000Y-43000000D03*
%TO.N,Net-(IC2-MICL)*%
X63802500Y-66082500D03*
%TO.N,Net-(IC2-MICACL)*%
X64546428Y-66548000D03*
%TO.N,Net-(IC2-MICS)*%
X63052500Y-66548000D03*
%TO.N,Net-(IC2-IOP1L)*%
X63100000Y-58674000D03*
%TO.N,Net-(IC2-MICACR)*%
X61550000Y-66548000D03*
%TO.N,Net-(IC2-CPN)*%
X61098041Y-59212687D03*
%TO.N,Net-(IC2-CPP)*%
X59996884Y-59517929D03*
%TO.N,Net-(IC2-MICR)*%
X62302500Y-66082500D03*
%TO.N,Net-(IC2-MIXR)*%
X58420000Y-62386405D03*
X62484000Y-59250000D03*
%TO.N,/HP_driver_L/QOP1R*%
X49501250Y-66400000D03*
%TO.N,Net-(IC2-QMICR)*%
X55036250Y-70850000D03*
%TO.N,/HP_driver_L/IOP2R*%
X49400000Y-59497500D03*
%TO.N,/HP_driver_L/IOP1R*%
X49436250Y-69600000D03*
X56436250Y-66402500D03*
%TO.N,/HP_driver_L/QOP2R*%
X55000000Y-59500000D03*
%TO.N,/AREF*%
X82630500Y-38590500D03*
%TO.N,Net-(U8-OUT)*%
X64262000Y-33020000D03*
%TO.N,Net-(IC1-LINR)*%
X66548000Y-63500000D03*
%TO.N,Net-(IC1-QLINR)*%
X66294000Y-62500000D03*
%TO.N,/I2C_SDA*%
X66228000Y-61468000D03*
X84063188Y-48006000D03*
X65278000Y-60000000D03*
X79100000Y-50600000D03*
%TO.N,/I2C_SCL*%
X78486000Y-50038000D03*
X83130500Y-46990500D03*
%TO.N,/HP_R_-*%
X73152000Y-62230000D03*
%TO.N,/HP_R_+*%
X74676000Y-61468000D03*
%TO.N,/audio_in_R*%
X73250510Y-64106510D03*
%TO.N,Net-(IC2-LINR)*%
X65278000Y-61214000D03*
%TO.N,Net-(IC2-QLINR)*%
X65278000Y-63246000D03*
%TO.N,/HP_L_-*%
X55900000Y-58500000D03*
%TO.N,/HP_L_+*%
X55118000Y-58054974D03*
%TO.N,/audio_in_L*%
X58420000Y-60960000D03*
X64000000Y-74800000D03*
X59700000Y-67200000D03*
%TO.N,/D2*%
X88392000Y-44196000D03*
X68834000Y-75021000D03*
X75438000Y-75438000D03*
%TO.N,/ANC_PBO*%
X84130500Y-46990500D03*
%TO.N,/ANC_OFF*%
X85090000Y-48006000D03*
%TO.N,/ANC_ON*%
X85090000Y-46990000D03*
%TO.N,/D10*%
X86360000Y-48006000D03*
%TO.N,/USB_D+*%
X81948000Y-48260000D03*
%TO.N,/USB_D-*%
X82748000Y-48260000D03*
%TO.N,/D11*%
X74168000Y-75438000D03*
X65400000Y-75000000D03*
X87630000Y-47498000D03*
%TO.N,/D3*%
X75205627Y-29840795D03*
%TO.N,/A4*%
X64262000Y-29840795D03*
%TO.N,/D13*%
X86106000Y-46990000D03*
%TO.N,/BAT_V_SENSE*%
X87108140Y-38852500D03*
%TO.N,Net-(U3-PROG)*%
X87750000Y-55902500D03*
%TO.N,/~{RESET}*%
X79380500Y-43740500D03*
X62738000Y-39700000D03*
%TO.N,/BM83_UART_RX*%
X80518000Y-47498000D03*
X88392000Y-41148000D03*
%TO.N,/BM83_UART_TX*%
X88646000Y-41910000D03*
X79248000Y-48006000D03*
%TO.N,/BM83_PROG_EN*%
X86360000Y-37846000D03*
X77978000Y-47960000D03*
%TO.N,/A2*%
X61722000Y-29840795D03*
%TO.N,/A3*%
X85130500Y-38490500D03*
X83966500Y-36820500D03*
%TO.N,/D4*%
X77978000Y-48768000D03*
X88138000Y-39990500D03*
%TO.N,/3V3_EN*%
X80010000Y-48514000D03*
X88138000Y-45466000D03*
%TD*%
D24*
%TO.N,+3V3*%
X71750000Y-76154500D02*
X71750000Y-77150000D01*
X81167500Y-52767500D02*
X81200000Y-52800000D01*
X71750000Y-77150000D02*
X72000000Y-77400000D01*
X65591500Y-33976500D02*
X65786000Y-33782000D01*
X65083500Y-33976500D02*
X65591500Y-33976500D01*
X81167500Y-52100000D02*
X81167500Y-52767500D01*
X78000000Y-46535000D02*
X78800000Y-46535000D01*
%TO.N,GND*%
X67310000Y-53594000D02*
X67310000Y-35290000D01*
X64300000Y-55600000D02*
X64300000Y-55550500D01*
X63750001Y-75350001D02*
X63750001Y-76154500D01*
X81198000Y-41240500D02*
X81198000Y-41125500D01*
X78800000Y-45400000D02*
X78000000Y-45400000D01*
X72129131Y-66868369D02*
X71433500Y-67564000D01*
X67564000Y-66397500D02*
X66984500Y-65818000D01*
X62797500Y-35111500D02*
X62738000Y-35052000D01*
X75692000Y-44958000D02*
X75692000Y-45108000D01*
X78067500Y-66331500D02*
X78486000Y-65913000D01*
X72129131Y-66802000D02*
X72182500Y-66802000D01*
X67691000Y-32398026D02*
X67691000Y-29879422D01*
X80032500Y-52632500D02*
X80200000Y-52800000D01*
X75692000Y-45108000D02*
X76543500Y-45959500D01*
X85283000Y-39240500D02*
X83930339Y-39240500D01*
X64452500Y-64232500D02*
X65350000Y-64232500D01*
X64330000Y-48850000D02*
X64900500Y-48850000D01*
X59815500Y-58420000D02*
X59815500Y-57945335D01*
X81391889Y-41046611D02*
X81198000Y-41240500D01*
X71100000Y-60152500D02*
X70352500Y-60900000D01*
X67691000Y-29879422D02*
X67729627Y-29840795D01*
X83930339Y-39240500D02*
X82124228Y-41046611D01*
X66600000Y-54649500D02*
X66600000Y-33489026D01*
X75438000Y-53594000D02*
X75553000Y-53594000D01*
X81367000Y-36507000D02*
X82442500Y-36507000D01*
X53406250Y-66570000D02*
X53436250Y-66600000D01*
X81367000Y-36507000D02*
X80192500Y-36507000D01*
X72129131Y-66802000D02*
X72129131Y-66868369D01*
X59815500Y-57945335D02*
X59270165Y-57400000D01*
X80032500Y-52100000D02*
X80032500Y-52632500D01*
X64300000Y-55550500D02*
X64950500Y-54900000D01*
D25*
X88750000Y-54805000D02*
X88750000Y-53585000D01*
D24*
X69900000Y-55000000D02*
X68716000Y-55000000D01*
X58532500Y-55600000D02*
X58532500Y-55067500D01*
X67385000Y-60900000D02*
X67352500Y-60867500D01*
X75553000Y-53594000D02*
X76513500Y-52633500D01*
X80587500Y-62230000D02*
X80752000Y-62394500D01*
X60452000Y-35141500D02*
X61976000Y-35141500D01*
X62738000Y-38100000D02*
X64750000Y-38100000D01*
X62648500Y-35141500D02*
X62738000Y-35052000D01*
X68716000Y-55000000D02*
X67310000Y-53594000D01*
D25*
X83967500Y-50439500D02*
X83967500Y-49784000D01*
D24*
X81198000Y-42490500D02*
X81930926Y-42490500D01*
X67083288Y-60867500D02*
X66657894Y-60442106D01*
X46036250Y-66600000D02*
X46636250Y-66600000D01*
X72182500Y-66802000D02*
X72750000Y-67369500D01*
X59403000Y-58832500D02*
X59150000Y-58832500D01*
X70352500Y-60900000D02*
X67385000Y-60900000D01*
X71250001Y-76154500D02*
X71250001Y-77349999D01*
X61685000Y-64232500D02*
X61652500Y-64200000D01*
X66600000Y-58447500D02*
X66600000Y-59500000D01*
X57901250Y-69465000D02*
X57836250Y-69400000D01*
X70205627Y-32394373D02*
X70205627Y-29840795D01*
X60802500Y-66802500D02*
X60802500Y-65050000D01*
X58436250Y-69465000D02*
X57901250Y-69465000D01*
X55805000Y-63900000D02*
X54962500Y-63900000D01*
X71100000Y-58447500D02*
X71100000Y-60152500D01*
X80752000Y-62394500D02*
X81280000Y-62394500D01*
X62738000Y-38100000D02*
X60650000Y-38100000D01*
X70358000Y-52070000D02*
X70659500Y-52371500D01*
X71250001Y-77349999D02*
X71200000Y-77400000D01*
X81114500Y-58013500D02*
X80619500Y-58013500D01*
X66862944Y-54912444D02*
X66600000Y-54649500D01*
X75110000Y-62738000D02*
X74737000Y-62365000D01*
X70612000Y-45212000D02*
X70612000Y-45870000D01*
X74364500Y-57983500D02*
X74858500Y-57983500D01*
X67352500Y-60867500D02*
X67083288Y-60867500D01*
X80619500Y-58013500D02*
X80518000Y-57912000D01*
X67564000Y-66548000D02*
X67564000Y-66397500D01*
X46567500Y-59732500D02*
X46600000Y-59700000D01*
X77851000Y-66331500D02*
X78067500Y-66331500D01*
X66010500Y-64232500D02*
X65350000Y-64232500D01*
X82124228Y-41046611D02*
X81391889Y-41046611D01*
X79053500Y-65151000D02*
X79053500Y-65345500D01*
X46000000Y-59732500D02*
X46567500Y-59732500D01*
X65083500Y-35111500D02*
X63500000Y-35111500D01*
X58562500Y-49453000D02*
X58600000Y-49490500D01*
X66294000Y-64516000D02*
X66010500Y-64232500D01*
X79053500Y-65345500D02*
X78486000Y-65913000D01*
X87380500Y-43203000D02*
X86093000Y-43203000D01*
X64900500Y-48850000D02*
X64950500Y-48800000D01*
X66600000Y-33489026D02*
X67691000Y-32398026D01*
X58562500Y-48850000D02*
X58562500Y-49453000D01*
X59815500Y-58420000D02*
X59403000Y-58832500D01*
X70612000Y-45870000D02*
X70689500Y-45947500D01*
D25*
X88750000Y-53585000D02*
X88567500Y-53402500D01*
X88750000Y-54805000D02*
X87847500Y-54805000D01*
D24*
X64452500Y-64232500D02*
X61685000Y-64232500D01*
X63200000Y-74800000D02*
X63750001Y-75350001D01*
X65302500Y-64280000D02*
X65350000Y-64232500D01*
X67310000Y-35290000D02*
X70205627Y-32394373D01*
D25*
X82994500Y-50800000D02*
X82800000Y-50994500D01*
X84328000Y-50800000D02*
X82994500Y-50800000D01*
D24*
X63500000Y-35111500D02*
X62797500Y-35111500D01*
D25*
X84328000Y-50800000D02*
X83967500Y-50439500D01*
D24*
X54962500Y-63900000D02*
X54130000Y-63900000D01*
X74858500Y-57983500D02*
X74930000Y-57912000D01*
X67564000Y-71958500D02*
X66954500Y-72568000D01*
X61976000Y-35141500D02*
X62648500Y-35141500D01*
X81198000Y-41125500D02*
X80063000Y-39990500D01*
X65302500Y-66802500D02*
X65302500Y-64280000D01*
X58532500Y-55067500D02*
X58600000Y-55000000D01*
X52786250Y-66570000D02*
X53406250Y-66570000D01*
X86093000Y-43203000D02*
X85630500Y-42740500D01*
X67564000Y-71882000D02*
X67564000Y-71958500D01*
X60802500Y-65050000D02*
X61652500Y-64200000D01*
X51600000Y-63700000D02*
X51000000Y-63700000D01*
X53436250Y-66600000D02*
X54233750Y-66600000D01*
X70659500Y-52371500D02*
X70659500Y-52697500D01*
D25*
X87847500Y-54805000D02*
X87750000Y-54902500D01*
D24*
X80200000Y-53832500D02*
X80200000Y-52800000D01*
X74737000Y-62365000D02*
X74422000Y-62365000D01*
%TO.N,Net-(U2-VDDCORE)*%
X79380500Y-42490500D02*
X80063000Y-42490500D01*
%TO.N,Net-(U2-PA00{slash}EINT0{slash}SERCOM1.0)*%
X80192500Y-37642000D02*
X80470000Y-37642000D01*
X80470000Y-37642000D02*
X80918500Y-38090500D01*
%TO.N,Net-(U2-PA01{slash}EINT1{slash}SERCOM1.1)*%
X82442500Y-37642000D02*
X82383000Y-37642000D01*
X82383000Y-37642000D02*
X81934500Y-38090500D01*
D25*
%TO.N,+BATT*%
X87630500Y-38100500D02*
X87630500Y-38143000D01*
X81530000Y-32000000D02*
X87630500Y-38100500D01*
X79000000Y-32000000D02*
X81530000Y-32000000D01*
X87432500Y-53402500D02*
X87432500Y-52817500D01*
X87630500Y-38143000D02*
X88943000Y-38143000D01*
X88943000Y-38143000D02*
X89408000Y-38608000D01*
X89408000Y-38608000D02*
X89408000Y-50842000D01*
X87432500Y-52817500D02*
X88250000Y-52000000D01*
X89408000Y-50842000D02*
X88250000Y-52000000D01*
%TO.N,VBUS*%
X72675900Y-75469900D02*
X72352400Y-75793400D01*
X83400000Y-52000000D02*
X82929500Y-52000000D01*
X82929500Y-52000000D02*
X82800000Y-52129500D01*
D26*
%TO.N,VDD*%
X81228000Y-45693000D02*
X80730500Y-46190500D01*
X81228000Y-43740500D02*
X81228000Y-45693000D01*
D24*
X79380500Y-41615500D02*
X79755500Y-41240500D01*
D25*
X82832500Y-49784000D02*
X82584000Y-49784000D01*
X82584000Y-49784000D02*
X82100000Y-49300000D01*
D26*
X81228000Y-43740500D02*
X80580500Y-43093000D01*
D25*
X82100000Y-49300000D02*
X82100000Y-49797500D01*
X82100000Y-49797500D02*
X81200000Y-50697500D01*
D24*
X79755500Y-41240500D02*
X80063000Y-41240500D01*
D25*
X81200000Y-50697500D02*
X79800000Y-50697500D01*
D26*
X80580500Y-43093000D02*
X80580500Y-41758000D01*
X80580500Y-41758000D02*
X80063000Y-41240500D01*
D24*
%TO.N,Net-(IC1-MICL)*%
X66935000Y-57252500D02*
X66600000Y-57252500D01*
X68100000Y-58417500D02*
X68100000Y-59100000D01*
X68100000Y-58417500D02*
X66935000Y-57252500D01*
%TO.N,/FF_mic_R_+*%
X68584000Y-32000000D02*
X66950000Y-33634000D01*
X66950000Y-33634000D02*
X66950000Y-54221682D01*
X68100000Y-57282500D02*
X66752500Y-55935000D01*
X66752500Y-55935000D02*
X66752500Y-55800000D01*
X67412944Y-54684626D02*
X67412944Y-55139556D01*
X66950000Y-54221682D02*
X67412944Y-54684626D01*
X67412944Y-55139556D02*
X66752500Y-55800000D01*
X69000000Y-32000000D02*
X68584000Y-32000000D01*
%TO.N,/FB_mic_R_+*%
X70947500Y-55935000D02*
X70947500Y-55800000D01*
X70125199Y-54356000D02*
X70947500Y-55178301D01*
X67660000Y-35464000D02*
X67660000Y-53182000D01*
X71500000Y-32000000D02*
X71124000Y-32000000D01*
X71124000Y-32000000D02*
X67660000Y-35464000D01*
X70947500Y-55178301D02*
X70947500Y-55800000D01*
X68834000Y-54356000D02*
X70125199Y-54356000D01*
X67660000Y-53182000D02*
X68834000Y-54356000D01*
X69600000Y-57282500D02*
X70947500Y-55935000D01*
%TO.N,Net-(IC1-MICR)*%
X70847500Y-57252500D02*
X71100000Y-57252500D01*
X69682500Y-58417500D02*
X70847500Y-57252500D01*
X69600000Y-58417500D02*
X69600000Y-59100000D01*
X69600000Y-58417500D02*
X69682500Y-58417500D01*
%TO.N,Net-(IC1-MICS)*%
X68850000Y-56850000D02*
X68850000Y-59782500D01*
X69752500Y-55800000D02*
X69752500Y-55947500D01*
X67947500Y-55947500D02*
X68850000Y-56850000D01*
X69752500Y-55947500D02*
X68850000Y-56850000D01*
X67947500Y-55800000D02*
X67947500Y-55947500D01*
%TO.N,Net-(IC1-MICACL)*%
X67355000Y-58674000D02*
X67355000Y-59682500D01*
%TO.N,Net-(IC1-MICACR)*%
X70352500Y-58679500D02*
X70358000Y-58674000D01*
X70352500Y-59765000D02*
X70352500Y-58679500D01*
%TO.N,/AOHPR*%
X67160677Y-61722000D02*
X69292000Y-61722000D01*
X65850000Y-44850000D02*
X65850000Y-60411323D01*
X65850000Y-60411323D02*
X67160677Y-61722000D01*
X69292000Y-61722000D02*
X70100000Y-62530000D01*
X64000000Y-43000000D02*
X65850000Y-44850000D01*
%TO.N,Net-(C14-Pad2)*%
X68850000Y-63695000D02*
X70070000Y-63695000D01*
%TO.N,+1V8*%
X73025000Y-65659000D02*
X72750000Y-65934000D01*
X80200000Y-54967500D02*
X80200000Y-56000000D01*
X59150000Y-60050000D02*
X59600000Y-60500000D01*
X72750000Y-65934000D02*
X72750000Y-66234500D01*
D27*
%TO.N,/HP_driver_L/vneg*%
X70358000Y-67504500D02*
X70298500Y-67564000D01*
X60600000Y-58000000D02*
X60600000Y-57594835D01*
X60600000Y-57594835D02*
X60405165Y-57400000D01*
X70358000Y-66802000D02*
X70358000Y-67504500D01*
D28*
%TO.N,Net-(IC1-CPN)*%
X70806050Y-66000000D02*
X70980000Y-66000000D01*
X70980000Y-66000000D02*
X71347500Y-66367500D01*
D27*
%TO.N,Net-(IC1-CPP)*%
X72136000Y-65786000D02*
X71901000Y-65786000D01*
X71901000Y-65786000D02*
X71347500Y-65232500D01*
D24*
%TO.N,Net-(C18-Pad1)*%
X68302000Y-72415500D02*
X68149500Y-72568000D01*
X68302000Y-71135500D02*
X68302000Y-72415500D01*
X68302000Y-71135500D02*
X66802000Y-71135500D01*
%TO.N,Net-(C18-Pad2)*%
X68302000Y-68415500D02*
X68302000Y-70000500D01*
X69620000Y-70197000D02*
X69772500Y-70044500D01*
X68302000Y-70000500D02*
X69728500Y-70000500D01*
X69620000Y-71479000D02*
X69620000Y-70197000D01*
X69728500Y-70000500D02*
X69772500Y-70044500D01*
%TO.N,Net-(IC1-QMICL)*%
X66802000Y-70000500D02*
X66802000Y-69088000D01*
X66802000Y-69088000D02*
X66802000Y-68415500D01*
%TO.N,Net-(C20-Pad1)*%
X68302000Y-66000500D02*
X68119500Y-65818000D01*
X68302000Y-67220500D02*
X68302000Y-66000500D01*
X68302000Y-67220500D02*
X66802000Y-67220500D01*
%TO.N,Net-(C21-Pad2)*%
X71120000Y-72644000D02*
X69650000Y-72644000D01*
%TO.N,Net-(IC1-IOP1L)*%
X72427500Y-71501000D02*
X71345000Y-71501000D01*
X71416000Y-69596000D02*
X73800026Y-69596000D01*
X74634528Y-65674000D02*
X75871500Y-65674000D01*
X71120000Y-70612000D02*
X71120000Y-70197000D01*
X71120000Y-70197000D02*
X70967500Y-70044500D01*
X76454000Y-66256500D02*
X76454000Y-67861500D01*
X76454000Y-67861500D02*
X76430000Y-67885500D01*
X71120000Y-71509000D02*
X71120000Y-70612000D01*
X73800026Y-69596000D02*
X74045000Y-69351026D01*
X70967500Y-70044500D02*
X71416000Y-69596000D01*
X74045000Y-66263528D02*
X74634528Y-65674000D01*
X75871500Y-65674000D02*
X76454000Y-66256500D01*
X74045000Y-69351026D02*
X74045000Y-66263528D01*
X71345000Y-71501000D02*
X71144000Y-71300000D01*
%TO.N,Net-(C22-Pad2)*%
X76430000Y-69020500D02*
X74930000Y-69020500D01*
X77851000Y-67526500D02*
X77851000Y-67599500D01*
X77851000Y-67599500D02*
X76430000Y-69020500D01*
%TO.N,Net-(C23-Pad1)*%
X77918500Y-65151000D02*
X76543500Y-65151000D01*
X74954000Y-65061500D02*
X76454000Y-65061500D01*
X76543500Y-65151000D02*
X76454000Y-65061500D01*
%TO.N,Net-(C24-Pad2)*%
X73660000Y-70231000D02*
X74395000Y-69496000D01*
X74395000Y-68420500D02*
X74930000Y-67885500D01*
X74395000Y-69496000D02*
X74395000Y-68420500D01*
X74954000Y-67861500D02*
X74930000Y-67885500D01*
X74954000Y-66256500D02*
X74954000Y-67861500D01*
X73592500Y-70231000D02*
X73660000Y-70231000D01*
D27*
%TO.N,Net-(IC1-MIXR)*%
X70565000Y-64690000D02*
X69342000Y-65913000D01*
X73914000Y-64262000D02*
X73406000Y-64770000D01*
X71639190Y-64690000D02*
X70565000Y-64690000D01*
D24*
X73622500Y-71396000D02*
X73058750Y-70832250D01*
D27*
X71719190Y-64770000D02*
X71639190Y-64690000D01*
X73660000Y-62992000D02*
X73914000Y-63246000D01*
X73406000Y-64770000D02*
X71719190Y-64770000D01*
D24*
X73058750Y-70832250D02*
X72457500Y-70231000D01*
D27*
X73914000Y-63246000D02*
X73914000Y-64262000D01*
D24*
%TO.N,/HP_driver_R/QOP1R*%
X72390000Y-50139500D02*
X72554500Y-49975000D01*
X73977500Y-58991500D02*
X73660000Y-58674000D01*
X76962000Y-56666000D02*
X78547000Y-56666000D01*
X76962000Y-56666000D02*
X76049000Y-55753000D01*
X76049000Y-55753000D02*
X73660000Y-55753000D01*
X72390000Y-53710104D02*
X72390000Y-51634000D01*
X72525000Y-51499000D02*
X72390000Y-51364000D01*
X73660000Y-54980104D02*
X72390000Y-53710104D01*
X72390000Y-51364000D02*
X72390000Y-50139500D01*
X73660000Y-58674000D02*
X73660000Y-54980104D01*
X72390000Y-51634000D02*
X72525000Y-51499000D01*
%TO.N,Net-(C26-Pad2)*%
X80962000Y-56666000D02*
X81114500Y-56818500D01*
X79682000Y-58166000D02*
X79682000Y-56666000D01*
X79682000Y-56666000D02*
X80962000Y-56666000D01*
%TO.N,Net-(C27-Pad1)*%
X75767000Y-56666000D02*
X74547000Y-56666000D01*
X74547000Y-56666000D02*
X74364500Y-56848500D01*
X75767000Y-56666000D02*
X75767000Y-58166000D01*
%TO.N,Net-(C28-Pad2)*%
X78547000Y-59673000D02*
X78518000Y-59702000D01*
X79950500Y-59537500D02*
X78682500Y-59537500D01*
X78547000Y-58166000D02*
X78547000Y-59673000D01*
X76962000Y-58166000D02*
X78547000Y-58166000D01*
X78682500Y-59537500D02*
X78518000Y-59702000D01*
%TO.N,Net-(C29-Pad2)*%
X81085500Y-59537500D02*
X81085500Y-60930000D01*
%TO.N,/HP_driver_R/IOP2R*%
X79920500Y-60960000D02*
X78581000Y-60960000D01*
D27*
X77724000Y-61468000D02*
X77947000Y-61468000D01*
X77724000Y-61468000D02*
X77835000Y-61468000D01*
X77724000Y-61468000D02*
X76962000Y-62230000D01*
X77835000Y-61468000D02*
X78621000Y-62254000D01*
X77947000Y-61468000D02*
X78518000Y-60897000D01*
X77634500Y-61468000D02*
X76962000Y-60795500D01*
X77724000Y-61468000D02*
X77634500Y-61468000D01*
D24*
%TO.N,Net-(C30-Pad2)*%
X79920500Y-63589500D02*
X79756000Y-63754000D01*
X81280000Y-63589500D02*
X79920500Y-63589500D01*
X79756000Y-62254000D02*
X79756000Y-63754000D01*
%TO.N,Net-(C31-Pad1)*%
X74422000Y-63500000D02*
X75602500Y-63500000D01*
X75602500Y-63500000D02*
X75856500Y-63754000D01*
X75767000Y-63754000D02*
X75767000Y-62230000D01*
%TO.N,Net-(C32-Pad2)*%
X76349500Y-61677000D02*
X75438000Y-60765500D01*
X76962000Y-63754000D02*
X76349500Y-63141500D01*
X78621000Y-63754000D02*
X77051500Y-63754000D01*
X76349500Y-63141500D02*
X76349500Y-61677000D01*
%TO.N,/HP_driver_R/QOP2R*%
X74676000Y-60452000D02*
X74676000Y-60392500D01*
X76962000Y-59600500D02*
X75468000Y-59600500D01*
X74676000Y-60392500D02*
X75438000Y-59630500D01*
X75468000Y-59600500D02*
X75438000Y-59630500D01*
%TO.N,Net-(IC1-QMICR)*%
X69342000Y-50187500D02*
X69342000Y-48505000D01*
X72700000Y-55010052D02*
X71411000Y-53721052D01*
X72700000Y-57954293D02*
X72700000Y-55010052D01*
X72781301Y-58035594D02*
X72700000Y-57954293D01*
X71185472Y-50800000D02*
X69954500Y-50800000D01*
X69954500Y-50800000D02*
X69342000Y-50187500D01*
X71411000Y-51025528D02*
X71185472Y-50800000D01*
X71411000Y-53721052D02*
X71411000Y-51025528D01*
%TO.N,Net-(C34-Pad2)*%
X70866000Y-47370000D02*
X69342000Y-47370000D01*
X69342000Y-46100000D02*
X69494500Y-45947500D01*
X69342000Y-47380000D02*
X69342000Y-46100000D01*
%TO.N,Net-(C35-Pad1)*%
X69342000Y-51392500D02*
X69342000Y-52515000D01*
X69342000Y-52515000D02*
X69524500Y-52697500D01*
X69342000Y-51382500D02*
X70866000Y-51382500D01*
%TO.N,Net-(C36-Pad2)*%
X70866000Y-48505000D02*
X70866000Y-50187500D01*
X72288500Y-48451000D02*
X72453000Y-48615500D01*
X70866000Y-48505000D02*
X72342500Y-48505000D01*
X72255000Y-48417500D02*
X72453000Y-48615500D01*
X72342500Y-48505000D02*
X72453000Y-48615500D01*
X72288500Y-47183000D02*
X72288500Y-48451000D01*
%TO.N,Net-(C37-Pad2)*%
X73884000Y-46048000D02*
X73914000Y-46018000D01*
X72288500Y-46048000D02*
X73884000Y-46048000D01*
%TO.N,/HP_driver_R/IOP1R*%
X73914000Y-47213000D02*
X73914000Y-48349500D01*
X73152000Y-49213000D02*
X73749500Y-49810500D01*
X73152000Y-49213000D02*
X73648000Y-48717000D01*
X71882000Y-49745528D02*
X72414528Y-49213000D01*
X73914000Y-48349500D02*
X73648000Y-48615500D01*
X73310000Y-58516000D02*
X73310000Y-55125078D01*
X75184000Y-50036000D02*
X75184000Y-48451000D01*
X73749500Y-49810500D02*
X73749500Y-49975000D01*
X73736500Y-48527000D02*
X73648000Y-48615500D01*
X71882000Y-53697078D02*
X71882000Y-49745528D01*
X75184000Y-48527000D02*
X73736500Y-48527000D01*
X73648000Y-48717000D02*
X73648000Y-48615500D01*
X72414528Y-49213000D02*
X73152000Y-49213000D01*
X73310000Y-55125078D02*
X71882000Y-53697078D01*
X72898000Y-58928000D02*
X73310000Y-58516000D01*
%TO.N,Net-(C38-Pad2)*%
X75184000Y-46124000D02*
X75348500Y-45959500D01*
X76708000Y-47316000D02*
X75184000Y-47316000D01*
X75184000Y-47392000D02*
X75184000Y-46124000D01*
%TO.N,Net-(C39-Pad1)*%
X75360500Y-52451000D02*
X75543000Y-52633500D01*
X76708000Y-51231000D02*
X75184000Y-51231000D01*
X75184000Y-52439000D02*
X75378500Y-52633500D01*
X75184000Y-51231000D02*
X75184000Y-52439000D01*
%TO.N,Net-(C40-Pad2)*%
X76708000Y-48451000D02*
X76708000Y-50036000D01*
X74510500Y-50648500D02*
X76095500Y-50648500D01*
X76095500Y-50648500D02*
X76708000Y-50036000D01*
X73660000Y-51499000D02*
X74510500Y-50648500D01*
%TO.N,Net-(IC2-QMICL)*%
X63754000Y-59250000D02*
X63754000Y-58554000D01*
X62437500Y-53840528D02*
X62663028Y-53615000D01*
X63870000Y-53615000D02*
X64482500Y-53002500D01*
X64482500Y-53002500D02*
X64482500Y-51417500D01*
X62437500Y-57237500D02*
X62437500Y-53840528D01*
X63754000Y-58554000D02*
X62437500Y-57237500D01*
X62663028Y-53615000D02*
X63870000Y-53615000D01*
%TO.N,Net-(C42-Pad2)*%
X62982500Y-49002500D02*
X63135000Y-48850000D01*
X62982500Y-50282500D02*
X64482500Y-50282500D01*
X62982500Y-50282500D02*
X62982500Y-49002500D01*
%TO.N,/AOHPL*%
X62462500Y-61020000D02*
X62932000Y-61020000D01*
X65500000Y-58452000D02*
X65500000Y-45500000D01*
X61850000Y-61632500D02*
X62462500Y-61020000D01*
X62932000Y-61020000D02*
X65500000Y-58452000D01*
X65500000Y-45500000D02*
X63000000Y-43000000D01*
%TO.N,Net-(C43-Pad2)*%
X61850000Y-62767500D02*
X63070000Y-62767500D01*
X63070000Y-62767500D02*
X63100000Y-62797500D01*
%TO.N,Net-(C44-Pad1)*%
X62982500Y-55417500D02*
X63165000Y-55600000D01*
X62982500Y-54197500D02*
X64482500Y-54197500D01*
X62982500Y-54197500D02*
X62982500Y-55417500D01*
%TO.N,Net-(C45-Pad2)*%
X61467500Y-50007500D02*
X61467500Y-51465000D01*
X62982500Y-51417500D02*
X62982500Y-53002500D01*
X62982500Y-51417500D02*
X61415000Y-51417500D01*
%TO.N,Net-(C46-Pad2)*%
X60115000Y-48872500D02*
X60085000Y-48902500D01*
X61467500Y-48872500D02*
X60115000Y-48872500D01*
%TO.N,Net-(IC2-MICL)*%
X63961000Y-66832500D02*
X65126000Y-67997500D01*
X65126000Y-67997500D02*
X65302500Y-67997500D01*
X63802500Y-66832500D02*
X63802500Y-66082500D01*
X63802500Y-66832500D02*
X63961000Y-66832500D01*
%TO.N,/FF_mic_L_+*%
X62400000Y-70600000D02*
X64147500Y-70600000D01*
X65147500Y-69312500D02*
X63802500Y-67967500D01*
X65147500Y-69600000D02*
X64147500Y-70600000D01*
X57550000Y-75450000D02*
X57550000Y-77950000D01*
X57550000Y-75450000D02*
X62400000Y-70600000D01*
X65147500Y-69600000D02*
X65147500Y-69312500D01*
D27*
%TO.N,Net-(IC2-MICACL)*%
X64546428Y-65461428D02*
X64452500Y-65367500D01*
X64546428Y-66548000D02*
X64546428Y-65461428D01*
D24*
%TO.N,Net-(IC2-MICS)*%
X63952500Y-69600000D02*
X63952500Y-69397500D01*
X62147500Y-69402500D02*
X63052500Y-68497500D01*
X63952500Y-69397500D02*
X63052500Y-68497500D01*
D27*
X63052500Y-66548000D02*
X63052500Y-65367500D01*
D24*
X63052500Y-68497500D02*
X63052500Y-66548000D01*
X62147500Y-69600000D02*
X62147500Y-69402500D01*
%TO.N,Net-(IC2-IOP1L)*%
X62087500Y-52587500D02*
X61800000Y-52300000D01*
X60137500Y-51500000D02*
X58797500Y-51500000D01*
X62087500Y-57382474D02*
X62087500Y-52587500D01*
X61800000Y-52300000D02*
X61037500Y-52300000D01*
X58715000Y-51417500D02*
X58715000Y-53002500D01*
X63100000Y-58394974D02*
X62087500Y-57382474D01*
X60085000Y-51347500D02*
X60237500Y-51500000D01*
X58797500Y-51500000D02*
X58715000Y-51417500D01*
X60935000Y-52300000D02*
X60235000Y-53000000D01*
X60155000Y-51417500D02*
X60237500Y-51500000D01*
X61037500Y-52300000D02*
X60935000Y-52300000D01*
X63100000Y-58674000D02*
X63100000Y-58394974D01*
X60085000Y-50097500D02*
X60085000Y-51347500D01*
X61037500Y-52300000D02*
X60237500Y-51500000D01*
%TO.N,Net-(C51-Pad2)*%
X57215000Y-50282500D02*
X57215000Y-49002500D01*
X57215000Y-49002500D02*
X57367500Y-48850000D01*
X57215000Y-50282500D02*
X58715000Y-50282500D01*
D27*
%TO.N,Net-(IC2-MICACR)*%
X61550000Y-66548000D02*
X61550000Y-65437500D01*
X61550000Y-65437500D02*
X61652500Y-65335000D01*
D24*
%TO.N,Net-(C53-Pad1)*%
X57215000Y-55417500D02*
X57397500Y-55600000D01*
X58715000Y-54197500D02*
X57215000Y-54197500D01*
X57215000Y-54197500D02*
X57215000Y-55417500D01*
D27*
%TO.N,Net-(IC2-CPN)*%
X60717854Y-58832500D02*
X60550000Y-58832500D01*
X61098041Y-59212687D02*
X60717854Y-58832500D01*
%TO.N,Net-(IC2-CPP)*%
X60100429Y-59517929D02*
X60550000Y-59967500D01*
X59996884Y-59517929D02*
X60100429Y-59517929D01*
D24*
%TO.N,Net-(C55-Pad2)*%
X59280000Y-53615000D02*
X57827500Y-53615000D01*
X57215000Y-53002500D02*
X57215000Y-51417500D01*
X57215000Y-53002500D02*
X57827500Y-53615000D01*
X60165000Y-54500000D02*
X59280000Y-53615000D01*
%TO.N,/FB_mic_L_+*%
X60952500Y-69600000D02*
X60952500Y-69317500D01*
X56000000Y-74400000D02*
X53800000Y-74400000D01*
X60952500Y-69317500D02*
X62302500Y-67967500D01*
X60952500Y-71300000D02*
X57252500Y-75000000D01*
X57252500Y-75000000D02*
X56600000Y-75000000D01*
X56600000Y-75000000D02*
X56000000Y-74400000D01*
X60952500Y-69600000D02*
X60952500Y-71300000D01*
%TO.N,Net-(IC2-MICR)*%
X62302500Y-66832500D02*
X62199500Y-66832500D01*
X62302500Y-66832500D02*
X62302500Y-66082500D01*
X62199500Y-66832500D02*
X61034500Y-67997500D01*
X61034500Y-67997500D02*
X60802500Y-67997500D01*
%TO.N,Net-(IC2-MIXR)*%
X62484000Y-59250000D02*
X62484000Y-58284000D01*
X61400000Y-57200000D02*
X61400000Y-54600000D01*
D27*
X60213595Y-62386405D02*
X58420000Y-62386405D01*
X62484000Y-60116000D02*
X60213595Y-62386405D01*
X62484000Y-59250000D02*
X62484000Y-60116000D01*
D24*
X62484000Y-58284000D02*
X61400000Y-57200000D01*
X61430000Y-53000000D02*
X61430000Y-54470000D01*
%TO.N,/HP_driver_L/QOP1R*%
X50301250Y-66400000D02*
X49501250Y-66400000D01*
X49501250Y-66400000D02*
X48698750Y-66400000D01*
X48698750Y-66400000D02*
X48698750Y-64186250D01*
X47197500Y-63852500D02*
X49032500Y-63852500D01*
X48698750Y-64186250D02*
X49032500Y-63852500D01*
%TO.N,Net-(C59-Pad2)*%
X50167500Y-62352500D02*
X51447500Y-62352500D01*
X50167500Y-62352500D02*
X50167500Y-63852500D01*
X51447500Y-62352500D02*
X51600000Y-62505000D01*
%TO.N,Net-(IC2-QMICR)*%
X55838750Y-70850000D02*
X55036250Y-70850000D01*
X55036250Y-70850000D02*
X54321250Y-70850000D01*
%TO.N,Net-(C60-Pad2)*%
X54236250Y-68398750D02*
X54236250Y-67797500D01*
X53186250Y-69350000D02*
X53285000Y-69350000D01*
X53285000Y-69350000D02*
X54236250Y-68398750D01*
X53186250Y-69350000D02*
X53186250Y-70850000D01*
%TO.N,Net-(C61-Pad1)*%
X46002500Y-62352500D02*
X46002500Y-60870000D01*
X46002500Y-62352500D02*
X46002500Y-63852500D01*
%TO.N,Net-(C62-Pad1)*%
X58186250Y-70850000D02*
X58436250Y-70600000D01*
X57033750Y-69350000D02*
X57033750Y-70850000D01*
X57033750Y-70850000D02*
X58186250Y-70850000D01*
%TO.N,Net-(C63-Pad2)*%
X49032500Y-62352500D02*
X49032500Y-61337500D01*
X49032500Y-61337500D02*
X48762500Y-61067500D01*
X48762500Y-61067500D02*
X50022500Y-61067500D01*
X47197500Y-62352500D02*
X49032500Y-62352500D01*
X50022500Y-61067500D02*
X50195000Y-60895000D01*
%TO.N,Net-(C64-Pad2)*%
X57151250Y-67902500D02*
X55938750Y-67902500D01*
X54321250Y-69350000D02*
X55838750Y-69350000D01*
X55938750Y-67902500D02*
X55786250Y-67750000D01*
X55838750Y-69350000D02*
X55838750Y-67802500D01*
X55838750Y-67802500D02*
X55786250Y-67750000D01*
%TO.N,Net-(C65-Pad2)*%
X47627500Y-59525000D02*
X47600000Y-59497500D01*
X47627500Y-61067500D02*
X47627500Y-59525000D01*
%TO.N,Net-(C66-Pad2)*%
X58286250Y-66432500D02*
X58316250Y-66402500D01*
X58286250Y-67902500D02*
X58286250Y-66432500D01*
%TO.N,/HP_driver_L/IOP2R*%
X53055000Y-59500000D02*
X50395000Y-59500000D01*
X53637500Y-61787500D02*
X53637500Y-60082500D01*
X49992500Y-59497500D02*
X50195000Y-59700000D01*
X53637500Y-60082500D02*
X53055000Y-59500000D01*
X49400000Y-59497500D02*
X49992500Y-59497500D01*
X53656250Y-61806250D02*
X53637500Y-61787500D01*
X48795000Y-59497500D02*
X49400000Y-59497500D01*
X54250000Y-62400000D02*
X53656250Y-61806250D01*
X54250000Y-62400000D02*
X55835000Y-62400000D01*
X50395000Y-59500000D02*
X50195000Y-59700000D01*
%TO.N,Net-(C67-Pad2)*%
X57000000Y-63900000D02*
X57000000Y-62430000D01*
X56970000Y-60900000D02*
X56970000Y-62400000D01*
X57000000Y-62430000D02*
X56970000Y-62400000D01*
%TO.N,/HP_driver_L/IOP1R*%
X57121250Y-66402500D02*
X56436250Y-66402500D01*
X55938750Y-66402500D02*
X55786250Y-66555000D01*
X49436250Y-69600000D02*
X48633750Y-69600000D01*
X48051250Y-69017500D02*
X48051250Y-66947500D01*
X48633750Y-69600000D02*
X48051250Y-69017500D01*
X50268750Y-69600000D02*
X49436250Y-69600000D01*
X48051250Y-66947500D02*
X47503750Y-66400000D01*
X56436250Y-66402500D02*
X55938750Y-66402500D01*
%TO.N,Net-(C68-Pad2)*%
X51403750Y-68100000D02*
X51403750Y-69600000D01*
X52451250Y-68100000D02*
X52786250Y-67765000D01*
X51403750Y-68100000D02*
X52451250Y-68100000D01*
%TO.N,Net-(C69-Pad1)*%
X53055000Y-63840000D02*
X52995000Y-63900000D01*
X53055000Y-62400000D02*
X53055000Y-60900000D01*
X53055000Y-62400000D02*
X53055000Y-63840000D01*
%TO.N,Net-(C70-Pad1)*%
X46401250Y-68100000D02*
X46036250Y-67735000D01*
X47438750Y-68100000D02*
X46401250Y-68100000D01*
X47438750Y-69600000D02*
X47438750Y-68100000D01*
%TO.N,Net-(C71-Pad2)*%
X56930000Y-59732500D02*
X55835000Y-60827500D01*
X55835000Y-60900000D02*
X54250000Y-60900000D01*
X56930000Y-59500000D02*
X56930000Y-59732500D01*
X55835000Y-60827500D02*
X55835000Y-60900000D01*
%TO.N,Net-(C72-Pad2)*%
X51436250Y-66400000D02*
X51436250Y-66932500D01*
X48633750Y-68100000D02*
X50268750Y-68100000D01*
X51436250Y-66932500D02*
X50268750Y-68100000D01*
%TO.N,/HP_driver_L/QOP2R*%
X54250000Y-59500000D02*
X55000000Y-59500000D01*
X55000000Y-59500000D02*
X55795000Y-59500000D01*
D26*
%TO.N,/AREF*%
X82630500Y-38590500D02*
X82630500Y-39290500D01*
X81930500Y-39990500D02*
X81198000Y-39990500D01*
X82630500Y-39290500D02*
X81930500Y-39990500D01*
D24*
%TO.N,Net-(U8-OUT)*%
X65024000Y-32258000D02*
X65532000Y-32258000D01*
X63500000Y-33782000D02*
X64262000Y-33020000D01*
X64262000Y-33020000D02*
X65024000Y-32258000D01*
X63500000Y-33976500D02*
X63500000Y-33782000D01*
D26*
%TO.N,Net-(D1-A)*%
X87228000Y-46240500D02*
X87380500Y-46088000D01*
X87380500Y-46088000D02*
X87380500Y-44778000D01*
D24*
%TO.N,Net-(IC1-LINR)*%
X66743000Y-63695000D02*
X67600000Y-63695000D01*
X66548000Y-63500000D02*
X66743000Y-63695000D01*
%TO.N,Net-(IC1-QLINR)*%
X66294000Y-62500000D02*
X67600000Y-62500000D01*
X67600000Y-62500000D02*
X68850000Y-62500000D01*
D26*
%TO.N,/I2C_SDA*%
X65278000Y-60518000D02*
X66228000Y-61468000D01*
X81200000Y-49502500D02*
X80664500Y-50038000D01*
X83555188Y-47498000D02*
X82087342Y-47498000D01*
X80664500Y-50038000D02*
X79662000Y-50038000D01*
X82087342Y-47498000D02*
X81200000Y-48385342D01*
X79662000Y-50038000D02*
X79100000Y-50600000D01*
X81200000Y-48385342D02*
X81200000Y-49502500D01*
X84063188Y-48006000D02*
X83555188Y-47498000D01*
X65278000Y-60000000D02*
X65278000Y-60518000D01*
%TO.N,/I2C_SCL*%
X79021500Y-49502500D02*
X79800000Y-49502500D01*
X78486000Y-50038000D02*
X79021500Y-49502500D01*
X83130500Y-46990500D02*
X82312000Y-46990500D01*
X82312000Y-46990500D02*
X79800000Y-49502500D01*
D24*
%TO.N,/HP_R_-*%
X70213026Y-53944000D02*
X69183999Y-53944000D01*
X71882000Y-61275000D02*
X71882000Y-55612974D01*
X71882000Y-55612974D02*
X70213026Y-53944000D01*
X73152000Y-62230000D02*
X72837000Y-62230000D01*
X69183999Y-53944000D02*
X68200000Y-52960000D01*
X72837000Y-62230000D02*
X71882000Y-61275000D01*
X68200000Y-52960000D02*
X68200000Y-36956000D01*
X72705627Y-32450373D02*
X72705627Y-29840795D01*
X68200000Y-36956000D02*
X72705627Y-32450373D01*
%TO.N,/HP_R_+*%
X70358000Y-53594000D02*
X69328974Y-53594000D01*
X72232000Y-59024000D02*
X72232000Y-55467999D01*
X73664000Y-32000000D02*
X74000000Y-32000000D01*
X69328974Y-53594000D02*
X68550000Y-52815026D01*
X68550000Y-52815026D02*
X68550000Y-37114000D01*
X72232000Y-55467999D02*
X70358000Y-53594000D01*
X74676000Y-61468000D02*
X72232000Y-59024000D01*
X68550000Y-37114000D02*
X73664000Y-32000000D01*
%TO.N,/audio_in_R*%
X67526000Y-64300000D02*
X66040000Y-65786000D01*
X73250510Y-64106510D02*
X72898000Y-63754000D01*
X72898000Y-63754000D02*
X70915901Y-63754000D01*
X64750001Y-71139999D02*
X64750001Y-76154500D01*
X66040000Y-69850000D02*
X64750001Y-71139999D01*
X70915901Y-63754000D02*
X70369901Y-64300000D01*
X70369901Y-64300000D02*
X67526000Y-64300000D01*
X66040000Y-65786000D02*
X66040000Y-69850000D01*
%TO.N,Net-(IC2-LINR)*%
X65278000Y-61214000D02*
X64889500Y-61602500D01*
X64889500Y-61602500D02*
X64452500Y-61602500D01*
%TO.N,Net-(IC2-QLINR)*%
X63100000Y-61602500D02*
X63257500Y-61602500D01*
X65278000Y-63246000D02*
X64901000Y-63246000D01*
X64901000Y-63246000D02*
X64452500Y-62797500D01*
X63257500Y-61602500D02*
X64452500Y-62797500D01*
%TO.N,/HP_L_-*%
X58150000Y-40050000D02*
X55810000Y-42390000D01*
X58150000Y-40050000D02*
X59100000Y-39100000D01*
X55810000Y-58410000D02*
X55900000Y-58500000D01*
X59100000Y-39100000D02*
X59100000Y-32975000D01*
X59100000Y-32975000D02*
X60071000Y-32004000D01*
X55810000Y-42390000D02*
X55810000Y-58410000D01*
%TO.N,/HP_L_+*%
X55460000Y-42245026D02*
X55460000Y-57712974D01*
X58750000Y-38955026D02*
X55460000Y-42245026D01*
X55460000Y-57712974D02*
X55118000Y-58054974D01*
X58750000Y-30000000D02*
X58750000Y-38955026D01*
%TO.N,/audio_in_L*%
X59700000Y-64546500D02*
X59700000Y-67200000D01*
X57912000Y-62758500D02*
X59700000Y-64546500D01*
X57912000Y-61468000D02*
X57912000Y-62758500D01*
X58420000Y-60960000D02*
X57912000Y-61468000D01*
X64250000Y-76154500D02*
X64250000Y-75050000D01*
X64250000Y-75050000D02*
X64000000Y-74800000D01*
D26*
%TO.N,/D2*%
X88392000Y-44196000D02*
X88646000Y-44450000D01*
X88646000Y-44450000D02*
X88646000Y-48006000D01*
X86600000Y-63011392D02*
X75438000Y-74173392D01*
X68834000Y-75021000D02*
X68750001Y-75104999D01*
X88646000Y-48006000D02*
X86600000Y-50052000D01*
X75438000Y-74173392D02*
X75438000Y-75438000D01*
X86600000Y-50052000D02*
X86600000Y-63011392D01*
X68750001Y-75104999D02*
X68750001Y-76154500D01*
%TO.N,/ANC_PBO*%
X85601996Y-62598004D02*
X73870000Y-74330000D01*
X84130500Y-46990500D02*
X84130500Y-47300500D01*
X84582000Y-48160446D02*
X85601996Y-49180442D01*
X84130500Y-47300500D02*
X84582000Y-47752000D01*
X85601996Y-49180442D02*
X85601996Y-62598004D01*
X73870000Y-74330000D02*
X70423602Y-74330000D01*
X84582000Y-47752000D02*
X84582000Y-48160446D01*
X69250000Y-75503602D02*
X69250000Y-76154500D01*
X70423602Y-74330000D02*
X69250000Y-75503602D01*
%TO.N,/ANC_OFF*%
X69750002Y-75286442D02*
X69750002Y-76154500D01*
X85801497Y-62680641D02*
X73952138Y-74530000D01*
X73952138Y-74530000D02*
X70506444Y-74530000D01*
X85801497Y-48997084D02*
X85801497Y-62680641D01*
X70506444Y-74530000D02*
X69750002Y-75286442D01*
X85090000Y-48285587D02*
X85801497Y-48997084D01*
X85090000Y-48006000D02*
X85090000Y-48285587D01*
%TO.N,/ANC_ON*%
X86000998Y-48801163D02*
X86000998Y-62763278D01*
X85852000Y-47752000D02*
X85852000Y-48652165D01*
X70250001Y-75307642D02*
X70250001Y-76154500D01*
X86000998Y-62763278D02*
X74034276Y-74730000D01*
X70827643Y-74730000D02*
X70250001Y-75307642D01*
X85852000Y-48652165D02*
X86000998Y-48801163D01*
X74034276Y-74730000D02*
X70827643Y-74730000D01*
X85090000Y-46990000D02*
X85852000Y-47752000D01*
%TO.N,/D10*%
X86200498Y-48165502D02*
X86200498Y-62845915D01*
X74116413Y-74930000D02*
X71120000Y-74930000D01*
X71120000Y-74930000D02*
X70750002Y-75299998D01*
X86360000Y-48006000D02*
X86200498Y-48165502D01*
X70750002Y-75299998D02*
X70750002Y-76154500D01*
X86200498Y-62845915D02*
X74116413Y-74930000D01*
D29*
%TO.N,/USB_D+*%
X67750000Y-74744000D02*
X68834000Y-73660000D01*
X67750000Y-76154500D02*
X67750000Y-74744000D01*
X84440706Y-49086745D02*
X82774745Y-49086745D01*
X84902496Y-62163504D02*
X84902496Y-49548535D01*
X73406000Y-73660000D02*
X84902496Y-62163504D01*
X82774745Y-49086745D02*
X81948000Y-48260000D01*
X68834000Y-73660000D02*
X73406000Y-73660000D01*
X84902496Y-49548535D02*
X84440706Y-49086745D01*
%TO.N,/USB_D-*%
X73620000Y-74080000D02*
X68922000Y-74080000D01*
X68922000Y-74080000D02*
X68250002Y-74751998D01*
X83101733Y-48613733D02*
X84681733Y-48613733D01*
X68250002Y-74751998D02*
X68250002Y-76154500D01*
X82748000Y-48260000D02*
X83101733Y-48613733D01*
X85352496Y-62347504D02*
X73620000Y-74080000D01*
X84681733Y-48613733D02*
X85352496Y-49284496D01*
X85352496Y-49284496D02*
X85352496Y-62347504D01*
D26*
%TO.N,/D11*%
X86400499Y-48981501D02*
X87630000Y-47752000D01*
X86400499Y-62928051D02*
X86400499Y-48981501D01*
X74168000Y-75438000D02*
X74168000Y-75160550D01*
X65250000Y-75150000D02*
X65250000Y-76154500D01*
X74168000Y-75160550D02*
X86400499Y-62928051D01*
X65400000Y-75000000D02*
X65250000Y-75150000D01*
X87630000Y-47752000D02*
X87630000Y-47498000D01*
D24*
%TO.N,Net-(J20-Pad1)*%
X61976000Y-33946500D02*
X61976000Y-33274000D01*
X61976000Y-33274000D02*
X62992000Y-32258000D01*
%TO.N,/A4*%
X60452000Y-33946500D02*
X60452000Y-33274000D01*
X60452000Y-33274000D02*
X63885205Y-29840795D01*
X63885205Y-29840795D02*
X64262000Y-29840795D01*
D26*
%TO.N,/D13*%
X86106000Y-46313500D02*
X86033000Y-46240500D01*
X86106000Y-46990000D02*
X86106000Y-46313500D01*
%TO.N,/BAT_V_SENSE*%
X87145000Y-38852500D02*
X87630500Y-39338000D01*
X86720140Y-39240500D02*
X86478000Y-39240500D01*
X87108140Y-38852500D02*
X87145000Y-38852500D01*
X87108140Y-38852500D02*
X86720140Y-39240500D01*
%TO.N,Net-(U3-PROG)*%
X88652500Y-55902500D02*
X87750000Y-55902500D01*
X88750000Y-56000000D02*
X88652500Y-55902500D01*
D24*
%TO.N,/~{RESET}*%
X62738000Y-39700000D02*
X64750000Y-39700000D01*
X62738000Y-39700000D02*
X60650000Y-39700000D01*
D26*
X80033000Y-43740500D02*
X79380500Y-43740500D01*
%TO.N,/BM83_UART_RX*%
X87723000Y-41148000D02*
X86880500Y-41990500D01*
X80518000Y-47498000D02*
X80840158Y-47498000D01*
X88392000Y-41148000D02*
X87723000Y-41148000D01*
X85319840Y-41990500D02*
X86880500Y-41990500D01*
X80840158Y-47498000D02*
X84880500Y-43457658D01*
X84880500Y-43457658D02*
X84880500Y-42429840D01*
X84880500Y-42429840D02*
X85319840Y-41990500D01*
%TO.N,/BM83_UART_TX*%
X80615000Y-48006000D02*
X79248000Y-48006000D01*
X87603500Y-42190500D02*
X85402682Y-42190500D01*
X85402682Y-42190500D02*
X85080500Y-42512682D01*
X87884000Y-41910000D02*
X87603500Y-42190500D01*
X88646000Y-41910000D02*
X87884000Y-41910000D01*
X85080500Y-42512682D02*
X85080500Y-43540500D01*
X85080500Y-43540500D02*
X80615000Y-48006000D01*
%TO.N,/BM83_PROG_EN*%
X85970500Y-38235500D02*
X85970500Y-39895044D01*
X86360000Y-37846000D02*
X85970500Y-38235500D01*
X78278000Y-47960000D02*
X77978000Y-47960000D01*
X85970500Y-39895044D02*
X84480500Y-41385044D01*
X84480500Y-43291974D02*
X80881974Y-46890500D01*
X80881974Y-46890500D02*
X79347500Y-46890500D01*
X84480500Y-41385044D02*
X84480500Y-43291974D01*
X79347500Y-46890500D02*
X78278000Y-47960000D01*
%TO.N,/A3*%
X85130500Y-37984500D02*
X85130500Y-38490500D01*
X83966500Y-36820500D02*
X85130500Y-37984500D01*
%TO.N,/D4*%
X77978000Y-48768000D02*
X77978000Y-48542843D01*
X84680500Y-42346998D02*
X85236998Y-41790500D01*
X86580500Y-41790500D02*
X88138000Y-40233000D01*
X79430342Y-47090500D02*
X80964817Y-47090500D01*
X77978000Y-48542843D02*
X79430342Y-47090500D01*
X85236998Y-41790500D02*
X86580500Y-41790500D01*
X84680500Y-43374816D02*
X84680500Y-42346998D01*
X88138000Y-40233000D02*
X88138000Y-39990500D01*
X80964817Y-47090500D02*
X84680500Y-43374816D01*
%TO.N,/3V3_EN*%
X80010000Y-48514000D02*
X80389842Y-48514000D01*
X80389842Y-48514000D02*
X84926499Y-43977343D01*
X84926499Y-43977343D02*
X87576334Y-43977343D01*
X88005500Y-45333500D02*
X88138000Y-45466000D01*
X88005500Y-44406509D02*
X88005500Y-45333500D01*
X87576334Y-43977343D02*
X88005500Y-44406509D01*
%TD*%
M02*
