M48
; DRILL file {KiCad (7.0.0)} date Sat May 27 11:20:45 2023
; FORMAT={-:-/ absolute / inch / decimal}
; #@! TF.CreationDate,2023-05-27T11:20:45+01:00
; #@! TF.GenerationSoftware,Kicad,Pcbnew,(7.0.0)
; #@! TF.FileFunction,Plated,1,4,PTH
FMAT,2
INCH
; #@! TA.AperFunction,Plated,PTH,ViaDrill
T1C0.0118
%
G90
G05
T1
X1.9803Y-2.437
X1.9803Y-2.5787
X2.0413Y-2.8602
X2.1535Y-2.437
X2.1535Y-2.5787
X2.17Y-2.2856
X2.1969Y-3.0
X2.2008Y-2.3031
X2.2244Y-2.1654
X2.2362Y-2.4646
X2.248Y-1.7953
X2.2717Y-2.3937
X2.2874Y-2.5118
X2.3Y-2.4562
X2.3268Y-2.6496
X2.3268Y-2.685
X2.3268Y-2.7205
X2.3465Y-2.3819
X2.3549Y-2.3
X2.3621Y-2.3432
X2.3858Y-2.2835
X2.4016Y-3.0157
X2.4016Y-3.0787
X2.4054Y-2.3312
X2.41Y-1.31
X2.4232Y-2.62
X2.43Y-1.1748
X2.4528Y-2.3189
X2.4529Y-2.6017
X2.47Y-1.38
X2.47Y-1.5
X2.47Y-1.563
X2.4803Y-1.6929
X2.4803Y-3.0157
X2.4803Y-3.0787
X2.4824Y-2.62
X2.4852Y-2.2953
X2.5118Y-3.0433
X2.5119Y-2.6017
X2.5197Y-1.6929
X2.5197Y-2.2756
X2.5197Y-2.9449
X2.53Y-1.1748
X2.53Y-1.3
X2.53Y-2.3819
X2.5412Y-2.62
X2.5551Y-2.3465
X2.57Y-2.41
X2.57Y-2.49
X2.5748Y-2.9528
X2.59Y-1.33
X2.5984Y-2.2992
X2.6074Y-2.42
X2.61Y-2.4606
X2.61Y-2.54
X2.62Y-2.5
X2.6243Y-2.3661
X2.6324Y-2.1619
X2.6518Y-2.31
X2.6811Y-2.3268
X2.71Y-2.9536
X2.7106Y-2.31
X2.7117Y-2.6133
X2.7402Y-2.3268
X2.752Y-2.1654
X2.77Y-2.31
X2.77Y-2.63
X2.7876Y-2.5984
X2.7992Y-1.689
X2.8031Y-3.0472
X2.8346Y-3.0472
X2.8397Y-2.63
X2.84Y-2.59
X2.8613Y-2.9713
X2.874Y-3.0157
X2.874Y-3.0787
X2.875Y-2.585
X2.88Y-2.45
X2.9Y-2.48
X2.9173Y-2.5472
X2.92Y-2.97
X2.9213Y-2.4409
X2.9449Y-2.5079
X2.9528Y-3.0157
X2.9528Y-3.0787
X2.9609Y-1.1748
X2.9685Y-2.3287
X2.9685Y-2.4705
X2.97Y-2.97
X2.9882Y-2.2736
X2.9882Y-2.628
X3.0118Y-1.2598
X3.0197Y-2.6083
X3.0315Y-2.3819
X3.0413Y-2.2736
X3.0512Y-2.5886
X3.0593Y-1.1748
X3.07Y-1.8882
X3.07Y-1.92
X3.0709Y-1.7874
X3.0709Y-1.8321
X3.0827Y-2.5689
X3.0866Y-2.2047
X3.0866Y-2.2362
X3.09Y-1.97
X3.0906Y-2.3819
X3.1102Y-2.2736
X3.1142Y-1.9921
X3.1142Y-2.5492
X3.12Y-1.89
X3.1252Y-1.6384
X3.1252Y-1.6729
X3.1252Y-1.7221
X3.1299Y-2.3287
X3.1299Y-2.4705
X3.15Y-1.91
X3.1575Y-2.0787
X3.1575Y-2.2047
X3.1575Y-2.2362
X3.17Y-1.87
X3.1784Y-1.8185
X3.1858Y-1.4996
X3.1969Y-2.0787
X3.2034Y-1.4373
X3.2256Y-1.6729
X3.2258Y-1.4996
X3.2263Y-1.9
X3.2283Y-2.0787
X3.2323Y-1.9409
X3.2332Y-1.616
X3.2336Y-1.753
X3.2532Y-1.5193
X3.2578Y-1.9
X3.2729Y-1.85
X3.2835Y-2.0472
X3.2913Y-1.5193
X3.3058Y-1.4496
X3.3096Y-1.89
X3.3122Y-1.85
X3.32Y-2.0
X3.35Y-1.85
X3.35Y-1.89
X3.3516Y-1.5154
X3.368Y-1.753
X3.3687Y-1.6173
X3.3713Y-1.6827
X3.39Y-1.85
X3.4Y-1.49
X3.4Y-1.89
X3.4295Y-1.5296
X3.45Y-1.87
X3.4547Y-2.1615
X3.4547Y-2.2009
X3.4695Y-1.9595
X3.47Y-1.5744
X3.47Y-1.79
X3.4744Y-2.0472
X3.48Y-1.62
X3.48Y-1.69
X3.48Y-1.74
X3.49Y-1.65
T0
M30
