%TF.GenerationSoftware,KiCad,Pcbnew,(7.0.0)*%
%TF.CreationDate,2023-05-27T11:20:30+01:00*%
%TF.ProjectId,left_main,6c656674-5f6d-4616-996e-2e6b69636164,rev?*%
%TF.SameCoordinates,Original*%
%TF.FileFunction,Soldermask,Top*%
%TF.FilePolarity,Negative*%
%FSLAX46Y46*%
G04 Gerber Fmt 4.6, Leading zero omitted, Abs format (unit mm)*
G04 Created by KiCad (PCBNEW (7.0.0)) date 2023-05-27 11:20:30*
%MOMM*%
%LPD*%
G01*
G04 APERTURE LIST*
G04 Aperture macros list*
%AMRoundRect*
0 Rectangle with rounded corners*
0 $1 Rounding radius*
0 $2 $3 $4 $5 $6 $7 $8 $9 X,Y pos of 4 corners*
0 Add a 4 corners polygon primitive as box body*
4,1,4,$2,$3,$4,$5,$6,$7,$8,$9,$2,$3,0*
0 Add four circle primitives for the rounded corners*
1,1,$1+$1,$2,$3*
1,1,$1+$1,$4,$5*
1,1,$1+$1,$6,$7*
1,1,$1+$1,$8,$9*
0 Add four rect primitives between the rounded corners*
20,1,$1+$1,$2,$3,$4,$5,0*
20,1,$1+$1,$4,$5,$6,$7,0*
20,1,$1+$1,$6,$7,$8,$9,0*
20,1,$1+$1,$8,$9,$2,$3,0*%
G04 Aperture macros list end*
%ADD10C,1.000000*%
%ADD11RoundRect,0.155000X-0.212500X-0.155000X0.212500X-0.155000X0.212500X0.155000X-0.212500X0.155000X0*%
%ADD12RoundRect,0.155000X0.155000X-0.212500X0.155000X0.212500X-0.155000X0.212500X-0.155000X-0.212500X0*%
%ADD13RoundRect,0.155000X-0.155000X0.212500X-0.155000X-0.212500X0.155000X-0.212500X0.155000X0.212500X0*%
%ADD14R,0.304800X1.397000*%
%ADD15R,2.641600X2.311400*%
%ADD16RoundRect,0.160000X0.160000X-0.197500X0.160000X0.197500X-0.160000X0.197500X-0.160000X-0.197500X0*%
%ADD17RoundRect,0.160000X0.197500X0.160000X-0.197500X0.160000X-0.197500X-0.160000X0.197500X-0.160000X0*%
%ADD18RoundRect,0.160000X-0.160000X0.197500X-0.160000X-0.197500X0.160000X-0.197500X0.160000X0.197500X0*%
%ADD19RoundRect,0.155000X0.212500X0.155000X-0.212500X0.155000X-0.212500X-0.155000X0.212500X-0.155000X0*%
%ADD20RoundRect,0.160000X-0.197500X-0.160000X0.197500X-0.160000X0.197500X0.160000X-0.197500X0.160000X0*%
%ADD21R,0.300000X1.600000*%
%ADD22R,0.900000X1.000000*%
%ADD23RoundRect,0.218750X-0.256250X0.218750X-0.256250X-0.218750X0.256250X-0.218750X0.256250X0.218750X0*%
G04 APERTURE END LIST*
D10*
%TO.C,J11*%
X71500000Y-32000000D03*
%TD*%
D11*
%TO.C,C16*%
X70298500Y-67564000D03*
X71433500Y-67564000D03*
%TD*%
D10*
%TO.C,J22*%
X61722000Y-29840795D03*
%TD*%
%TO.C,J5*%
X53800000Y-74400000D03*
%TD*%
D12*
%TO.C,C56*%
X62302500Y-67967500D03*
X62302500Y-66832500D03*
%TD*%
D13*
%TO.C,C5*%
X82442500Y-36507000D03*
X82442500Y-37642000D03*
%TD*%
D14*
%TO.C,J1*%
X63750000Y-76154499D03*
X64249999Y-76154499D03*
X64750000Y-76154499D03*
X65249999Y-76154499D03*
X65750001Y-76154499D03*
X66250000Y-76154499D03*
X66749999Y-76154499D03*
X67250001Y-76154499D03*
X67749999Y-76154499D03*
X68250001Y-76154499D03*
X68750000Y-76154499D03*
X69249999Y-76154499D03*
X69750001Y-76154499D03*
X70250000Y-76154499D03*
X70750001Y-76154499D03*
X71250000Y-76154499D03*
X71749999Y-76154499D03*
X72250001Y-76154499D03*
D15*
X74032499Y-77399099D03*
X61967499Y-77399099D03*
%TD*%
D11*
%TO.C,C2*%
X80063000Y-41240500D03*
X81198000Y-41240500D03*
%TD*%
D13*
%TO.C,C4*%
X80192500Y-36507000D03*
X80192500Y-37642000D03*
%TD*%
D16*
%TO.C,R4*%
X88750000Y-56000000D03*
X88750000Y-54805000D03*
%TD*%
D13*
%TO.C,C14*%
X70100000Y-62530000D03*
X70100000Y-63665000D03*
%TD*%
D16*
%TO.C,R75*%
X81200000Y-50697500D03*
X81200000Y-49502500D03*
%TD*%
D13*
%TO.C,C48*%
X63802500Y-66832500D03*
X63802500Y-67967500D03*
%TD*%
D10*
%TO.C,J3*%
X57550000Y-77950000D03*
%TD*%
%TO.C,J16*%
X79000000Y-32000000D03*
%TD*%
D17*
%TO.C,R49*%
X62147500Y-69600000D03*
X60952500Y-69600000D03*
%TD*%
D18*
%TO.C,R6*%
X67600000Y-62500000D03*
X67600000Y-63695000D03*
%TD*%
D12*
%TO.C,C12*%
X67352500Y-60867500D03*
X67352500Y-59732500D03*
%TD*%
D13*
%TO.C,C15*%
X72750000Y-66234500D03*
X72750000Y-67369500D03*
%TD*%
D10*
%TO.C,J7*%
X58801000Y-29845000D03*
%TD*%
D16*
%TO.C,R44*%
X64452500Y-62797500D03*
X64452500Y-61602500D03*
%TD*%
D10*
%TO.C,J14*%
X72705627Y-29840795D03*
%TD*%
D13*
%TO.C,C49*%
X64452500Y-64232500D03*
X64452500Y-65367500D03*
%TD*%
D12*
%TO.C,C1*%
X78800000Y-46535000D03*
X78800000Y-45400000D03*
%TD*%
D13*
%TO.C,C54*%
X60550000Y-58832500D03*
X60550000Y-59967500D03*
%TD*%
D19*
%TO.C,C47*%
X60405165Y-57400000D03*
X59270165Y-57400000D03*
%TD*%
D17*
%TO.C,R5*%
X81228000Y-43740500D03*
X80033000Y-43740500D03*
%TD*%
D16*
%TO.C,R42*%
X63100000Y-62797500D03*
X63100000Y-61602500D03*
%TD*%
D12*
%TO.C,C9*%
X68100000Y-58417500D03*
X68100000Y-57282500D03*
%TD*%
D10*
%TO.C,J13*%
X74000000Y-32000000D03*
%TD*%
D20*
%TO.C,R1*%
X86033000Y-46240500D03*
X87228000Y-46240500D03*
%TD*%
D10*
%TO.C,J8*%
X60071000Y-32004000D03*
%TD*%
D21*
%TO.C,J24*%
X53999999Y-61899999D03*
X53499999Y-61899999D03*
X52999999Y-61899999D03*
X52499999Y-61899999D03*
X51999999Y-61899999D03*
X51499999Y-61899999D03*
X50999999Y-61899999D03*
X53999999Y-65499999D03*
X53499999Y-65499999D03*
X52999999Y-65499999D03*
X52499999Y-65499999D03*
X51999999Y-65499999D03*
X51499999Y-65499999D03*
X50999999Y-65499999D03*
%TD*%
D16*
%TO.C,R74*%
X79800000Y-50697500D03*
X79800000Y-49502500D03*
%TD*%
D10*
%TO.C,J10*%
X67729627Y-29840795D03*
%TD*%
D11*
%TO.C,C6*%
X87432500Y-53402500D03*
X88567500Y-53402500D03*
%TD*%
D17*
%TO.C,R47*%
X65147500Y-69600000D03*
X63952500Y-69600000D03*
%TD*%
D19*
%TO.C,C77*%
X81198000Y-39990500D03*
X80063000Y-39990500D03*
%TD*%
D13*
%TO.C,C13*%
X70352500Y-59765000D03*
X70352500Y-60900000D03*
%TD*%
%TO.C,C10*%
X69600000Y-57282500D03*
X69600000Y-58417500D03*
%TD*%
D10*
%TO.C,J6*%
X51800000Y-72600000D03*
%TD*%
D18*
%TO.C,R72*%
X61976000Y-33946500D03*
X61976000Y-35141500D03*
%TD*%
D21*
%TO.C,J23*%
X75999999Y-62749999D03*
X76499999Y-62749999D03*
X76999999Y-62749999D03*
X77499999Y-62749999D03*
X77999999Y-62749999D03*
X78499999Y-62749999D03*
X78999999Y-62749999D03*
X75999999Y-59149999D03*
X76499999Y-59149999D03*
X76999999Y-59149999D03*
X77499999Y-59149999D03*
X77999999Y-59149999D03*
X78499999Y-59149999D03*
X78999999Y-59149999D03*
%TD*%
D18*
%TO.C,R2*%
X87630500Y-38143000D03*
X87630500Y-39338000D03*
%TD*%
D10*
%TO.C,J12*%
X70205627Y-29840795D03*
%TD*%
D16*
%TO.C,R7*%
X68850000Y-63695000D03*
X68850000Y-62500000D03*
%TD*%
D10*
%TO.C,J20*%
X62992000Y-32258000D03*
%TD*%
D18*
%TO.C,R73*%
X60452000Y-33946500D03*
X60452000Y-35141500D03*
%TD*%
D16*
%TO.C,R43*%
X65302500Y-67997500D03*
X65302500Y-66802500D03*
%TD*%
D19*
%TO.C,C75*%
X81167500Y-52100000D03*
X80032500Y-52100000D03*
%TD*%
D13*
%TO.C,C78*%
X63500000Y-33976500D03*
X63500000Y-35111500D03*
%TD*%
%TO.C,C79*%
X65083500Y-33976500D03*
X65083500Y-35111500D03*
%TD*%
D12*
%TO.C,C58*%
X59150000Y-59967500D03*
X59150000Y-58832500D03*
%TD*%
D10*
%TO.C,J15*%
X75205627Y-29840795D03*
%TD*%
%TO.C,J21*%
X64262000Y-29840795D03*
%TD*%
%TO.C,J9*%
X69000000Y-32000000D03*
%TD*%
D22*
%TO.C,SW2*%
X64749999Y-39699999D03*
X60649999Y-39699999D03*
X64749999Y-38099999D03*
X60649999Y-38099999D03*
%TD*%
D12*
%TO.C,C52*%
X61652500Y-65335000D03*
X61652500Y-64200000D03*
%TD*%
%TO.C,C76*%
X80200000Y-54967500D03*
X80200000Y-53832500D03*
%TD*%
D20*
%TO.C,R8*%
X66752500Y-55800000D03*
X67947500Y-55800000D03*
%TD*%
D10*
%TO.C,J17*%
X76500000Y-32000000D03*
%TD*%
D13*
%TO.C,C11*%
X68850000Y-59782500D03*
X68850000Y-60917500D03*
%TD*%
D18*
%TO.C,R10*%
X71100000Y-57252500D03*
X71100000Y-58447500D03*
%TD*%
D10*
%TO.C,J4*%
X55800000Y-76200000D03*
%TD*%
D16*
%TO.C,R53*%
X60802500Y-67997500D03*
X60802500Y-66802500D03*
%TD*%
D12*
%TO.C,C7*%
X82800000Y-52129500D03*
X82800000Y-50994500D03*
%TD*%
D18*
%TO.C,R11*%
X66600000Y-57252500D03*
X66600000Y-58447500D03*
%TD*%
D17*
%TO.C,R3*%
X86478000Y-39240500D03*
X85283000Y-39240500D03*
%TD*%
D20*
%TO.C,R9*%
X69752500Y-55800000D03*
X70947500Y-55800000D03*
%TD*%
D23*
%TO.C,D1*%
X87380500Y-43203000D03*
X87380500Y-44778000D03*
%TD*%
D10*
%TO.C,J19*%
X65532000Y-32258000D03*
%TD*%
D12*
%TO.C,C17*%
X71347500Y-66367500D03*
X71347500Y-65232500D03*
%TD*%
D10*
%TO.C,J18*%
X77705627Y-29840795D03*
%TD*%
D11*
%TO.C,C3*%
X80063000Y-42490500D03*
X81198000Y-42490500D03*
%TD*%
D12*
%TO.C,C50*%
X63052500Y-65367500D03*
X63052500Y-64232500D03*
%TD*%
D13*
%TO.C,C43*%
X61850000Y-61632500D03*
X61850000Y-62767500D03*
%TD*%
D11*
%TO.C,C8*%
X82832500Y-49784000D03*
X83967500Y-49784000D03*
%TD*%
M02*
