%TF.GenerationSoftware,KiCad,Pcbnew,(7.0.0)*%
%TF.CreationDate,2023-05-27T11:20:30+01:00*%
%TF.ProjectId,left_main,6c656674-5f6d-4616-996e-2e6b69636164,rev?*%
%TF.SameCoordinates,Original*%
%TF.FileFunction,Legend,Top*%
%TF.FilePolarity,Positive*%
%FSLAX46Y46*%
G04 Gerber Fmt 4.6, Leading zero omitted, Abs format (unit mm)*
G04 Created by KiCad (PCBNEW (7.0.0)) date 2023-05-27 11:20:30*
%MOMM*%
%LPD*%
G01*
G04 APERTURE LIST*
G04 Aperture macros list*
%AMRoundRect*
0 Rectangle with rounded corners*
0 $1 Rounding radius*
0 $2 $3 $4 $5 $6 $7 $8 $9 X,Y pos of 4 corners*
0 Add a 4 corners polygon primitive as box body*
4,1,4,$2,$3,$4,$5,$6,$7,$8,$9,$2,$3,0*
0 Add four circle primitives for the rounded corners*
1,1,$1+$1,$2,$3*
1,1,$1+$1,$4,$5*
1,1,$1+$1,$6,$7*
1,1,$1+$1,$8,$9*
0 Add four rect primitives between the rounded corners*
20,1,$1+$1,$2,$3,$4,$5,0*
20,1,$1+$1,$4,$5,$6,$7,0*
20,1,$1+$1,$6,$7,$8,$9,0*
20,1,$1+$1,$8,$9,$2,$3,0*%
G04 Aperture macros list end*
%ADD10C,0.150000*%
%ADD11C,0.000000*%
%ADD12C,0.120000*%
%ADD13C,0.152400*%
%ADD14C,1.000000*%
%ADD15RoundRect,0.155000X-0.212500X-0.155000X0.212500X-0.155000X0.212500X0.155000X-0.212500X0.155000X0*%
%ADD16RoundRect,0.155000X0.155000X-0.212500X0.155000X0.212500X-0.155000X0.212500X-0.155000X-0.212500X0*%
%ADD17RoundRect,0.155000X-0.155000X0.212500X-0.155000X-0.212500X0.155000X-0.212500X0.155000X0.212500X0*%
%ADD18R,0.304800X1.397000*%
%ADD19R,2.641600X2.311400*%
%ADD20RoundRect,0.160000X0.160000X-0.197500X0.160000X0.197500X-0.160000X0.197500X-0.160000X-0.197500X0*%
%ADD21RoundRect,0.160000X0.197500X0.160000X-0.197500X0.160000X-0.197500X-0.160000X0.197500X-0.160000X0*%
%ADD22RoundRect,0.160000X-0.160000X0.197500X-0.160000X-0.197500X0.160000X-0.197500X0.160000X0.197500X0*%
%ADD23RoundRect,0.155000X0.212500X0.155000X-0.212500X0.155000X-0.212500X-0.155000X0.212500X-0.155000X0*%
%ADD24RoundRect,0.160000X-0.197500X-0.160000X0.197500X-0.160000X0.197500X0.160000X-0.197500X0.160000X0*%
%ADD25R,0.300000X1.600000*%
%ADD26R,0.900000X1.000000*%
%ADD27RoundRect,0.218750X-0.256250X0.218750X-0.256250X-0.218750X0.256250X-0.218750X0.256250X0.218750X0*%
G04 APERTURE END LIST*
D10*
X63914859Y-32221874D02*
X63701007Y-32223352D01*
X64514859Y-32221874D02*
X64810380Y-32221878D01*
X61800000Y-31200000D02*
X64100000Y-31200000D01*
X63659117Y-30497911D02*
X63800000Y-30800000D01*
X59600000Y-33100000D02*
X61500000Y-33100000D01*
X64514859Y-32621874D02*
X64014859Y-32221874D01*
X63400000Y-31200000D02*
X63700000Y-30400000D01*
X61500000Y-33100000D02*
X61500000Y-31300000D01*
X59600000Y-36900000D02*
X59600000Y-33100000D01*
X64514859Y-31821874D02*
X64514859Y-32621874D01*
X67300000Y-31600000D02*
X66000000Y-30400000D01*
X66000000Y-55200000D02*
X71800000Y-55200000D01*
X71800000Y-55200000D02*
X71800000Y-64300000D01*
X71800000Y-64300000D02*
X66000000Y-64300000D01*
X66000000Y-64300000D02*
X66000000Y-55200000D01*
X63659117Y-30497911D02*
X63349831Y-30639448D01*
X63914859Y-32621874D02*
X63914859Y-31821874D01*
D11*
G36*
X53777851Y-41265209D02*
G01*
X52073511Y-42096741D01*
X53780179Y-42914198D01*
X53782402Y-44478414D01*
X50482095Y-42871759D01*
X47186234Y-44487622D01*
X47184117Y-42923406D01*
X48888457Y-42101293D01*
X47181789Y-41274417D01*
X47179672Y-39738458D01*
X53775735Y-39729251D01*
X53777851Y-41265209D01*
G37*
D10*
X60300000Y-60900000D02*
X65900000Y-60900000D01*
X65900000Y-60900000D02*
X65900000Y-70300000D01*
X65900000Y-70300000D02*
X60300000Y-70300000D01*
X60300000Y-70300000D02*
X60300000Y-60900000D01*
X61500000Y-31300000D02*
X60600000Y-30600000D01*
X62200000Y-30400000D02*
X62400000Y-31200000D01*
X59600000Y-36900000D02*
X67300000Y-36900000D01*
D11*
G36*
X53790340Y-50169920D02*
G01*
X52405193Y-50171825D01*
X52400748Y-47043391D01*
X51186205Y-47770678D01*
X51189591Y-50173518D01*
X49804445Y-50175529D01*
X49802222Y-48611312D01*
X47194277Y-50179127D01*
X47192055Y-48577233D01*
X49800000Y-47000000D01*
X49797777Y-45426259D01*
X51182924Y-45424353D01*
X51183982Y-46159365D01*
X52398525Y-45422660D01*
X53783672Y-45420756D01*
X53790340Y-50169920D01*
G37*
D10*
X67300000Y-36900000D02*
X67300000Y-31600000D01*
D11*
G36*
X53798277Y-55861424D02*
G01*
X52413130Y-55863330D01*
X47197770Y-52723360D01*
X47195547Y-51121467D01*
X52410907Y-54242598D01*
X52406463Y-51114165D01*
X53791715Y-51112260D01*
X53798277Y-55861424D01*
G37*
D10*
X66000000Y-30400000D02*
X66000000Y-28700000D01*
X64014859Y-32221874D02*
X64514859Y-31821874D01*
X60600000Y-30600000D02*
X60600000Y-28700000D01*
X68258571Y-39128571D02*
X68258571Y-39461904D01*
X68782380Y-39461904D02*
X67782380Y-39461904D01*
X67782380Y-39461904D02*
X67782380Y-38985714D01*
X68258571Y-38271428D02*
X68258571Y-38604761D01*
X68782380Y-38604761D02*
X67782380Y-38604761D01*
X67782380Y-38604761D02*
X67782380Y-38128571D01*
X68782380Y-37147618D02*
X68115714Y-37147618D01*
X68210952Y-37147618D02*
X68163333Y-37099999D01*
X68163333Y-37099999D02*
X68115714Y-37004761D01*
X68115714Y-37004761D02*
X68115714Y-36861904D01*
X68115714Y-36861904D02*
X68163333Y-36766666D01*
X68163333Y-36766666D02*
X68258571Y-36719047D01*
X68258571Y-36719047D02*
X68782380Y-36719047D01*
X68258571Y-36719047D02*
X68163333Y-36671428D01*
X68163333Y-36671428D02*
X68115714Y-36576190D01*
X68115714Y-36576190D02*
X68115714Y-36433333D01*
X68115714Y-36433333D02*
X68163333Y-36338094D01*
X68163333Y-36338094D02*
X68258571Y-36290475D01*
X68258571Y-36290475D02*
X68782380Y-36290475D01*
X68782380Y-35814285D02*
X68115714Y-35814285D01*
X67782380Y-35814285D02*
X67830000Y-35861904D01*
X67830000Y-35861904D02*
X67877619Y-35814285D01*
X67877619Y-35814285D02*
X67830000Y-35766666D01*
X67830000Y-35766666D02*
X67782380Y-35814285D01*
X67782380Y-35814285D02*
X67877619Y-35814285D01*
X68734761Y-34909524D02*
X68782380Y-35004762D01*
X68782380Y-35004762D02*
X68782380Y-35195238D01*
X68782380Y-35195238D02*
X68734761Y-35290476D01*
X68734761Y-35290476D02*
X68687142Y-35338095D01*
X68687142Y-35338095D02*
X68591904Y-35385714D01*
X68591904Y-35385714D02*
X68306190Y-35385714D01*
X68306190Y-35385714D02*
X68210952Y-35338095D01*
X68210952Y-35338095D02*
X68163333Y-35290476D01*
X68163333Y-35290476D02*
X68115714Y-35195238D01*
X68115714Y-35195238D02*
X68115714Y-35004762D01*
X68115714Y-35004762D02*
X68163333Y-34909524D01*
X68782380Y-33309524D02*
X68306190Y-33642857D01*
X68782380Y-33880952D02*
X67782380Y-33880952D01*
X67782380Y-33880952D02*
X67782380Y-33500000D01*
X67782380Y-33500000D02*
X67830000Y-33404762D01*
X67830000Y-33404762D02*
X67877619Y-33357143D01*
X67877619Y-33357143D02*
X67972857Y-33309524D01*
X67972857Y-33309524D02*
X68115714Y-33309524D01*
X68115714Y-33309524D02*
X68210952Y-33357143D01*
X68210952Y-33357143D02*
X68258571Y-33404762D01*
X68258571Y-33404762D02*
X68306190Y-33500000D01*
X68306190Y-33500000D02*
X68306190Y-33880952D01*
X49871428Y-59558571D02*
X49538095Y-59558571D01*
X49538095Y-60082380D02*
X49538095Y-59082380D01*
X49538095Y-59082380D02*
X50014285Y-59082380D01*
X50728571Y-59558571D02*
X50395238Y-59558571D01*
X50395238Y-60082380D02*
X50395238Y-59082380D01*
X50395238Y-59082380D02*
X50871428Y-59082380D01*
X51709524Y-59415714D02*
X52090476Y-59415714D01*
X51852381Y-60082380D02*
X51852381Y-59225238D01*
X51852381Y-59225238D02*
X51900000Y-59130000D01*
X51900000Y-59130000D02*
X51995238Y-59082380D01*
X51995238Y-59082380D02*
X52090476Y-59082380D01*
X52423810Y-60082380D02*
X52423810Y-59415714D01*
X52423810Y-59082380D02*
X52376191Y-59130000D01*
X52376191Y-59130000D02*
X52423810Y-59177619D01*
X52423810Y-59177619D02*
X52471429Y-59130000D01*
X52471429Y-59130000D02*
X52423810Y-59082380D01*
X52423810Y-59082380D02*
X52423810Y-59177619D01*
X53042857Y-60082380D02*
X52947619Y-60034761D01*
X52947619Y-60034761D02*
X52900000Y-59939523D01*
X52900000Y-59939523D02*
X52900000Y-59082380D01*
X53280953Y-59415714D02*
X53661905Y-59415714D01*
X53423810Y-59082380D02*
X53423810Y-59939523D01*
X53423810Y-59939523D02*
X53471429Y-60034761D01*
X53471429Y-60034761D02*
X53566667Y-60082380D01*
X53566667Y-60082380D02*
X53661905Y-60082380D01*
X54376191Y-60034761D02*
X54280953Y-60082380D01*
X54280953Y-60082380D02*
X54090477Y-60082380D01*
X54090477Y-60082380D02*
X53995239Y-60034761D01*
X53995239Y-60034761D02*
X53947620Y-59939523D01*
X53947620Y-59939523D02*
X53947620Y-59558571D01*
X53947620Y-59558571D02*
X53995239Y-59463333D01*
X53995239Y-59463333D02*
X54090477Y-59415714D01*
X54090477Y-59415714D02*
X54280953Y-59415714D01*
X54280953Y-59415714D02*
X54376191Y-59463333D01*
X54376191Y-59463333D02*
X54423810Y-59558571D01*
X54423810Y-59558571D02*
X54423810Y-59653809D01*
X54423810Y-59653809D02*
X53947620Y-59749047D01*
X54852382Y-60082380D02*
X54852382Y-59415714D01*
X54852382Y-59606190D02*
X54900001Y-59510952D01*
X54900001Y-59510952D02*
X54947620Y-59463333D01*
X54947620Y-59463333D02*
X55042858Y-59415714D01*
X55042858Y-59415714D02*
X55138096Y-59415714D01*
X55423811Y-60034761D02*
X55519049Y-60082380D01*
X55519049Y-60082380D02*
X55709525Y-60082380D01*
X55709525Y-60082380D02*
X55804763Y-60034761D01*
X55804763Y-60034761D02*
X55852382Y-59939523D01*
X55852382Y-59939523D02*
X55852382Y-59891904D01*
X55852382Y-59891904D02*
X55804763Y-59796666D01*
X55804763Y-59796666D02*
X55709525Y-59749047D01*
X55709525Y-59749047D02*
X55566668Y-59749047D01*
X55566668Y-59749047D02*
X55471430Y-59701428D01*
X55471430Y-59701428D02*
X55423811Y-59606190D01*
X55423811Y-59606190D02*
X55423811Y-59558571D01*
X55423811Y-59558571D02*
X55471430Y-59463333D01*
X55471430Y-59463333D02*
X55566668Y-59415714D01*
X55566668Y-59415714D02*
X55709525Y-59415714D01*
X55709525Y-59415714D02*
X55804763Y-59463333D01*
X60319047Y-36334761D02*
X60223809Y-36382380D01*
X60223809Y-36382380D02*
X60033333Y-36382380D01*
X60033333Y-36382380D02*
X59938095Y-36334761D01*
X59938095Y-36334761D02*
X59890476Y-36239523D01*
X59890476Y-36239523D02*
X59890476Y-35858571D01*
X59890476Y-35858571D02*
X59938095Y-35763333D01*
X59938095Y-35763333D02*
X60033333Y-35715714D01*
X60033333Y-35715714D02*
X60223809Y-35715714D01*
X60223809Y-35715714D02*
X60319047Y-35763333D01*
X60319047Y-35763333D02*
X60366666Y-35858571D01*
X60366666Y-35858571D02*
X60366666Y-35953809D01*
X60366666Y-35953809D02*
X59890476Y-36049047D01*
X61223809Y-36382380D02*
X61223809Y-35858571D01*
X61223809Y-35858571D02*
X61176190Y-35763333D01*
X61176190Y-35763333D02*
X61080952Y-35715714D01*
X61080952Y-35715714D02*
X60890476Y-35715714D01*
X60890476Y-35715714D02*
X60795238Y-35763333D01*
X61223809Y-36334761D02*
X61128571Y-36382380D01*
X61128571Y-36382380D02*
X60890476Y-36382380D01*
X60890476Y-36382380D02*
X60795238Y-36334761D01*
X60795238Y-36334761D02*
X60747619Y-36239523D01*
X60747619Y-36239523D02*
X60747619Y-36144285D01*
X60747619Y-36144285D02*
X60795238Y-36049047D01*
X60795238Y-36049047D02*
X60890476Y-36001428D01*
X60890476Y-36001428D02*
X61128571Y-36001428D01*
X61128571Y-36001428D02*
X61223809Y-35953809D01*
X61700000Y-36382380D02*
X61700000Y-35715714D01*
X61700000Y-35906190D02*
X61747619Y-35810952D01*
X61747619Y-35810952D02*
X61795238Y-35763333D01*
X61795238Y-35763333D02*
X61890476Y-35715714D01*
X61890476Y-35715714D02*
X61985714Y-35715714D01*
X62080953Y-36477619D02*
X62842857Y-36477619D01*
X63033334Y-36334761D02*
X63128572Y-36382380D01*
X63128572Y-36382380D02*
X63319048Y-36382380D01*
X63319048Y-36382380D02*
X63414286Y-36334761D01*
X63414286Y-36334761D02*
X63461905Y-36239523D01*
X63461905Y-36239523D02*
X63461905Y-36191904D01*
X63461905Y-36191904D02*
X63414286Y-36096666D01*
X63414286Y-36096666D02*
X63319048Y-36049047D01*
X63319048Y-36049047D02*
X63176191Y-36049047D01*
X63176191Y-36049047D02*
X63080953Y-36001428D01*
X63080953Y-36001428D02*
X63033334Y-35906190D01*
X63033334Y-35906190D02*
X63033334Y-35858571D01*
X63033334Y-35858571D02*
X63080953Y-35763333D01*
X63080953Y-35763333D02*
X63176191Y-35715714D01*
X63176191Y-35715714D02*
X63319048Y-35715714D01*
X63319048Y-35715714D02*
X63414286Y-35763333D01*
X64271429Y-36334761D02*
X64176191Y-36382380D01*
X64176191Y-36382380D02*
X63985715Y-36382380D01*
X63985715Y-36382380D02*
X63890477Y-36334761D01*
X63890477Y-36334761D02*
X63842858Y-36239523D01*
X63842858Y-36239523D02*
X63842858Y-35858571D01*
X63842858Y-35858571D02*
X63890477Y-35763333D01*
X63890477Y-35763333D02*
X63985715Y-35715714D01*
X63985715Y-35715714D02*
X64176191Y-35715714D01*
X64176191Y-35715714D02*
X64271429Y-35763333D01*
X64271429Y-35763333D02*
X64319048Y-35858571D01*
X64319048Y-35858571D02*
X64319048Y-35953809D01*
X64319048Y-35953809D02*
X63842858Y-36049047D01*
X64747620Y-35715714D02*
X64747620Y-36382380D01*
X64747620Y-35810952D02*
X64795239Y-35763333D01*
X64795239Y-35763333D02*
X64890477Y-35715714D01*
X64890477Y-35715714D02*
X65033334Y-35715714D01*
X65033334Y-35715714D02*
X65128572Y-35763333D01*
X65128572Y-35763333D02*
X65176191Y-35858571D01*
X65176191Y-35858571D02*
X65176191Y-36382380D01*
X65604763Y-36334761D02*
X65700001Y-36382380D01*
X65700001Y-36382380D02*
X65890477Y-36382380D01*
X65890477Y-36382380D02*
X65985715Y-36334761D01*
X65985715Y-36334761D02*
X66033334Y-36239523D01*
X66033334Y-36239523D02*
X66033334Y-36191904D01*
X66033334Y-36191904D02*
X65985715Y-36096666D01*
X65985715Y-36096666D02*
X65890477Y-36049047D01*
X65890477Y-36049047D02*
X65747620Y-36049047D01*
X65747620Y-36049047D02*
X65652382Y-36001428D01*
X65652382Y-36001428D02*
X65604763Y-35906190D01*
X65604763Y-35906190D02*
X65604763Y-35858571D01*
X65604763Y-35858571D02*
X65652382Y-35763333D01*
X65652382Y-35763333D02*
X65747620Y-35715714D01*
X65747620Y-35715714D02*
X65890477Y-35715714D01*
X65890477Y-35715714D02*
X65985715Y-35763333D01*
X66842858Y-36334761D02*
X66747620Y-36382380D01*
X66747620Y-36382380D02*
X66557144Y-36382380D01*
X66557144Y-36382380D02*
X66461906Y-36334761D01*
X66461906Y-36334761D02*
X66414287Y-36239523D01*
X66414287Y-36239523D02*
X66414287Y-35858571D01*
X66414287Y-35858571D02*
X66461906Y-35763333D01*
X66461906Y-35763333D02*
X66557144Y-35715714D01*
X66557144Y-35715714D02*
X66747620Y-35715714D01*
X66747620Y-35715714D02*
X66842858Y-35763333D01*
X66842858Y-35763333D02*
X66890477Y-35858571D01*
X66890477Y-35858571D02*
X66890477Y-35953809D01*
X66890477Y-35953809D02*
X66414287Y-36049047D01*
X75382380Y-40157142D02*
X75382380Y-39538095D01*
X75382380Y-39538095D02*
X75763333Y-39871428D01*
X75763333Y-39871428D02*
X75763333Y-39728571D01*
X75763333Y-39728571D02*
X75810952Y-39633333D01*
X75810952Y-39633333D02*
X75858571Y-39585714D01*
X75858571Y-39585714D02*
X75953809Y-39538095D01*
X75953809Y-39538095D02*
X76191904Y-39538095D01*
X76191904Y-39538095D02*
X76287142Y-39585714D01*
X76287142Y-39585714D02*
X76334761Y-39633333D01*
X76334761Y-39633333D02*
X76382380Y-39728571D01*
X76382380Y-39728571D02*
X76382380Y-40014285D01*
X76382380Y-40014285D02*
X76334761Y-40109523D01*
X76334761Y-40109523D02*
X76287142Y-40157142D01*
X75382380Y-39252380D02*
X76382380Y-38919047D01*
X76382380Y-38919047D02*
X75382380Y-38585714D01*
X75382380Y-38347618D02*
X75382380Y-37728571D01*
X75382380Y-37728571D02*
X75763333Y-38061904D01*
X75763333Y-38061904D02*
X75763333Y-37919047D01*
X75763333Y-37919047D02*
X75810952Y-37823809D01*
X75810952Y-37823809D02*
X75858571Y-37776190D01*
X75858571Y-37776190D02*
X75953809Y-37728571D01*
X75953809Y-37728571D02*
X76191904Y-37728571D01*
X76191904Y-37728571D02*
X76287142Y-37776190D01*
X76287142Y-37776190D02*
X76334761Y-37823809D01*
X76334761Y-37823809D02*
X76382380Y-37919047D01*
X76382380Y-37919047D02*
X76382380Y-38204761D01*
X76382380Y-38204761D02*
X76334761Y-38299999D01*
X76334761Y-38299999D02*
X76287142Y-38347618D01*
X76715714Y-37061904D02*
X75287142Y-37061904D01*
X76382380Y-35919047D02*
X75382380Y-35919047D01*
X76334761Y-35919047D02*
X76382380Y-36014285D01*
X76382380Y-36014285D02*
X76382380Y-36204761D01*
X76382380Y-36204761D02*
X76334761Y-36299999D01*
X76334761Y-36299999D02*
X76287142Y-36347618D01*
X76287142Y-36347618D02*
X76191904Y-36395237D01*
X76191904Y-36395237D02*
X75906190Y-36395237D01*
X75906190Y-36395237D02*
X75810952Y-36347618D01*
X75810952Y-36347618D02*
X75763333Y-36299999D01*
X75763333Y-36299999D02*
X75715714Y-36204761D01*
X75715714Y-36204761D02*
X75715714Y-36014285D01*
X75715714Y-36014285D02*
X75763333Y-35919047D01*
X76382380Y-35014285D02*
X75858571Y-35014285D01*
X75858571Y-35014285D02*
X75763333Y-35061904D01*
X75763333Y-35061904D02*
X75715714Y-35157142D01*
X75715714Y-35157142D02*
X75715714Y-35347618D01*
X75715714Y-35347618D02*
X75763333Y-35442856D01*
X76334761Y-35014285D02*
X76382380Y-35109523D01*
X76382380Y-35109523D02*
X76382380Y-35347618D01*
X76382380Y-35347618D02*
X76334761Y-35442856D01*
X76334761Y-35442856D02*
X76239523Y-35490475D01*
X76239523Y-35490475D02*
X76144285Y-35490475D01*
X76144285Y-35490475D02*
X76049047Y-35442856D01*
X76049047Y-35442856D02*
X76001428Y-35347618D01*
X76001428Y-35347618D02*
X76001428Y-35109523D01*
X76001428Y-35109523D02*
X75953809Y-35014285D01*
X75715714Y-34680951D02*
X75715714Y-34299999D01*
X75382380Y-34538094D02*
X76239523Y-34538094D01*
X76239523Y-34538094D02*
X76334761Y-34490475D01*
X76334761Y-34490475D02*
X76382380Y-34395237D01*
X76382380Y-34395237D02*
X76382380Y-34299999D01*
X76382380Y-33538094D02*
X75858571Y-33538094D01*
X75858571Y-33538094D02*
X75763333Y-33585713D01*
X75763333Y-33585713D02*
X75715714Y-33680951D01*
X75715714Y-33680951D02*
X75715714Y-33871427D01*
X75715714Y-33871427D02*
X75763333Y-33966665D01*
X76334761Y-33538094D02*
X76382380Y-33633332D01*
X76382380Y-33633332D02*
X76382380Y-33871427D01*
X76382380Y-33871427D02*
X76334761Y-33966665D01*
X76334761Y-33966665D02*
X76239523Y-34014284D01*
X76239523Y-34014284D02*
X76144285Y-34014284D01*
X76144285Y-34014284D02*
X76049047Y-33966665D01*
X76049047Y-33966665D02*
X76001428Y-33871427D01*
X76001428Y-33871427D02*
X76001428Y-33633332D01*
X76001428Y-33633332D02*
X75953809Y-33538094D01*
X66938095Y-54782380D02*
X66938095Y-53782380D01*
X66938095Y-53782380D02*
X67271428Y-54496666D01*
X67271428Y-54496666D02*
X67604761Y-53782380D01*
X67604761Y-53782380D02*
X67604761Y-54782380D01*
X68080952Y-54782380D02*
X68080952Y-54115714D01*
X68080952Y-53782380D02*
X68033333Y-53830000D01*
X68033333Y-53830000D02*
X68080952Y-53877619D01*
X68080952Y-53877619D02*
X68128571Y-53830000D01*
X68128571Y-53830000D02*
X68080952Y-53782380D01*
X68080952Y-53782380D02*
X68080952Y-53877619D01*
X68985713Y-54734761D02*
X68890475Y-54782380D01*
X68890475Y-54782380D02*
X68699999Y-54782380D01*
X68699999Y-54782380D02*
X68604761Y-54734761D01*
X68604761Y-54734761D02*
X68557142Y-54687142D01*
X68557142Y-54687142D02*
X68509523Y-54591904D01*
X68509523Y-54591904D02*
X68509523Y-54306190D01*
X68509523Y-54306190D02*
X68557142Y-54210952D01*
X68557142Y-54210952D02*
X68604761Y-54163333D01*
X68604761Y-54163333D02*
X68699999Y-54115714D01*
X68699999Y-54115714D02*
X68890475Y-54115714D01*
X68890475Y-54115714D02*
X68985713Y-54163333D01*
X70585713Y-54782380D02*
X70252380Y-54306190D01*
X70014285Y-54782380D02*
X70014285Y-53782380D01*
X70014285Y-53782380D02*
X70395237Y-53782380D01*
X70395237Y-53782380D02*
X70490475Y-53830000D01*
X70490475Y-53830000D02*
X70538094Y-53877619D01*
X70538094Y-53877619D02*
X70585713Y-53972857D01*
X70585713Y-53972857D02*
X70585713Y-54115714D01*
X70585713Y-54115714D02*
X70538094Y-54210952D01*
X70538094Y-54210952D02*
X70490475Y-54258571D01*
X70490475Y-54258571D02*
X70395237Y-54306190D01*
X70395237Y-54306190D02*
X70014285Y-54306190D01*
X56451428Y-74758571D02*
X56118095Y-74758571D01*
X56118095Y-75282380D02*
X56118095Y-74282380D01*
X56118095Y-74282380D02*
X56594285Y-74282380D01*
X57308571Y-74758571D02*
X56975238Y-74758571D01*
X56975238Y-75282380D02*
X56975238Y-74282380D01*
X56975238Y-74282380D02*
X57451428Y-74282380D01*
X58432381Y-75282380D02*
X58432381Y-74615714D01*
X58432381Y-74710952D02*
X58480000Y-74663333D01*
X58480000Y-74663333D02*
X58575238Y-74615714D01*
X58575238Y-74615714D02*
X58718095Y-74615714D01*
X58718095Y-74615714D02*
X58813333Y-74663333D01*
X58813333Y-74663333D02*
X58860952Y-74758571D01*
X58860952Y-74758571D02*
X58860952Y-75282380D01*
X58860952Y-74758571D02*
X58908571Y-74663333D01*
X58908571Y-74663333D02*
X59003809Y-74615714D01*
X59003809Y-74615714D02*
X59146666Y-74615714D01*
X59146666Y-74615714D02*
X59241905Y-74663333D01*
X59241905Y-74663333D02*
X59289524Y-74758571D01*
X59289524Y-74758571D02*
X59289524Y-75282380D01*
X59765714Y-75282380D02*
X59765714Y-74615714D01*
X59765714Y-74282380D02*
X59718095Y-74330000D01*
X59718095Y-74330000D02*
X59765714Y-74377619D01*
X59765714Y-74377619D02*
X59813333Y-74330000D01*
X59813333Y-74330000D02*
X59765714Y-74282380D01*
X59765714Y-74282380D02*
X59765714Y-74377619D01*
X60670475Y-75234761D02*
X60575237Y-75282380D01*
X60575237Y-75282380D02*
X60384761Y-75282380D01*
X60384761Y-75282380D02*
X60289523Y-75234761D01*
X60289523Y-75234761D02*
X60241904Y-75187142D01*
X60241904Y-75187142D02*
X60194285Y-75091904D01*
X60194285Y-75091904D02*
X60194285Y-74806190D01*
X60194285Y-74806190D02*
X60241904Y-74710952D01*
X60241904Y-74710952D02*
X60289523Y-74663333D01*
X60289523Y-74663333D02*
X60384761Y-74615714D01*
X60384761Y-74615714D02*
X60575237Y-74615714D01*
X60575237Y-74615714D02*
X60670475Y-74663333D01*
X70138095Y-32701428D02*
X70900000Y-32701428D01*
X70519047Y-33082380D02*
X70519047Y-32320476D01*
X61038095Y-41682380D02*
X61038095Y-41015714D01*
X61038095Y-41206190D02*
X61085714Y-41110952D01*
X61085714Y-41110952D02*
X61133333Y-41063333D01*
X61133333Y-41063333D02*
X61228571Y-41015714D01*
X61228571Y-41015714D02*
X61323809Y-41015714D01*
X62038095Y-41634761D02*
X61942857Y-41682380D01*
X61942857Y-41682380D02*
X61752381Y-41682380D01*
X61752381Y-41682380D02*
X61657143Y-41634761D01*
X61657143Y-41634761D02*
X61609524Y-41539523D01*
X61609524Y-41539523D02*
X61609524Y-41158571D01*
X61609524Y-41158571D02*
X61657143Y-41063333D01*
X61657143Y-41063333D02*
X61752381Y-41015714D01*
X61752381Y-41015714D02*
X61942857Y-41015714D01*
X61942857Y-41015714D02*
X62038095Y-41063333D01*
X62038095Y-41063333D02*
X62085714Y-41158571D01*
X62085714Y-41158571D02*
X62085714Y-41253809D01*
X62085714Y-41253809D02*
X61609524Y-41349047D01*
X62466667Y-41634761D02*
X62561905Y-41682380D01*
X62561905Y-41682380D02*
X62752381Y-41682380D01*
X62752381Y-41682380D02*
X62847619Y-41634761D01*
X62847619Y-41634761D02*
X62895238Y-41539523D01*
X62895238Y-41539523D02*
X62895238Y-41491904D01*
X62895238Y-41491904D02*
X62847619Y-41396666D01*
X62847619Y-41396666D02*
X62752381Y-41349047D01*
X62752381Y-41349047D02*
X62609524Y-41349047D01*
X62609524Y-41349047D02*
X62514286Y-41301428D01*
X62514286Y-41301428D02*
X62466667Y-41206190D01*
X62466667Y-41206190D02*
X62466667Y-41158571D01*
X62466667Y-41158571D02*
X62514286Y-41063333D01*
X62514286Y-41063333D02*
X62609524Y-41015714D01*
X62609524Y-41015714D02*
X62752381Y-41015714D01*
X62752381Y-41015714D02*
X62847619Y-41063333D01*
X63704762Y-41634761D02*
X63609524Y-41682380D01*
X63609524Y-41682380D02*
X63419048Y-41682380D01*
X63419048Y-41682380D02*
X63323810Y-41634761D01*
X63323810Y-41634761D02*
X63276191Y-41539523D01*
X63276191Y-41539523D02*
X63276191Y-41158571D01*
X63276191Y-41158571D02*
X63323810Y-41063333D01*
X63323810Y-41063333D02*
X63419048Y-41015714D01*
X63419048Y-41015714D02*
X63609524Y-41015714D01*
X63609524Y-41015714D02*
X63704762Y-41063333D01*
X63704762Y-41063333D02*
X63752381Y-41158571D01*
X63752381Y-41158571D02*
X63752381Y-41253809D01*
X63752381Y-41253809D02*
X63276191Y-41349047D01*
X64038096Y-41015714D02*
X64419048Y-41015714D01*
X64180953Y-40682380D02*
X64180953Y-41539523D01*
X64180953Y-41539523D02*
X64228572Y-41634761D01*
X64228572Y-41634761D02*
X64323810Y-41682380D01*
X64323810Y-41682380D02*
X64419048Y-41682380D01*
X73782380Y-36561904D02*
X72782380Y-36561904D01*
X73258571Y-36561904D02*
X73258571Y-35990476D01*
X73782380Y-35990476D02*
X72782380Y-35990476D01*
X73782380Y-35514285D02*
X72782380Y-35514285D01*
X72782380Y-35514285D02*
X72782380Y-35133333D01*
X72782380Y-35133333D02*
X72830000Y-35038095D01*
X72830000Y-35038095D02*
X72877619Y-34990476D01*
X72877619Y-34990476D02*
X72972857Y-34942857D01*
X72972857Y-34942857D02*
X73115714Y-34942857D01*
X73115714Y-34942857D02*
X73210952Y-34990476D01*
X73210952Y-34990476D02*
X73258571Y-35038095D01*
X73258571Y-35038095D02*
X73306190Y-35133333D01*
X73306190Y-35133333D02*
X73306190Y-35514285D01*
X73782380Y-33342857D02*
X73306190Y-33676190D01*
X73782380Y-33914285D02*
X72782380Y-33914285D01*
X72782380Y-33914285D02*
X72782380Y-33533333D01*
X72782380Y-33533333D02*
X72830000Y-33438095D01*
X72830000Y-33438095D02*
X72877619Y-33390476D01*
X72877619Y-33390476D02*
X72972857Y-33342857D01*
X72972857Y-33342857D02*
X73115714Y-33342857D01*
X73115714Y-33342857D02*
X73210952Y-33390476D01*
X73210952Y-33390476D02*
X73258571Y-33438095D01*
X73258571Y-33438095D02*
X73306190Y-33533333D01*
X73306190Y-33533333D02*
X73306190Y-33914285D01*
X72638095Y-32701428D02*
X73400000Y-32701428D01*
X73019047Y-33082380D02*
X73019047Y-32320476D01*
X70858571Y-39328571D02*
X70858571Y-39661904D01*
X71382380Y-39661904D02*
X70382380Y-39661904D01*
X70382380Y-39661904D02*
X70382380Y-39185714D01*
X70858571Y-38471428D02*
X70906190Y-38328571D01*
X70906190Y-38328571D02*
X70953809Y-38280952D01*
X70953809Y-38280952D02*
X71049047Y-38233333D01*
X71049047Y-38233333D02*
X71191904Y-38233333D01*
X71191904Y-38233333D02*
X71287142Y-38280952D01*
X71287142Y-38280952D02*
X71334761Y-38328571D01*
X71334761Y-38328571D02*
X71382380Y-38423809D01*
X71382380Y-38423809D02*
X71382380Y-38804761D01*
X71382380Y-38804761D02*
X70382380Y-38804761D01*
X70382380Y-38804761D02*
X70382380Y-38471428D01*
X70382380Y-38471428D02*
X70430000Y-38376190D01*
X70430000Y-38376190D02*
X70477619Y-38328571D01*
X70477619Y-38328571D02*
X70572857Y-38280952D01*
X70572857Y-38280952D02*
X70668095Y-38280952D01*
X70668095Y-38280952D02*
X70763333Y-38328571D01*
X70763333Y-38328571D02*
X70810952Y-38376190D01*
X70810952Y-38376190D02*
X70858571Y-38471428D01*
X70858571Y-38471428D02*
X70858571Y-38804761D01*
X71382380Y-37204761D02*
X70715714Y-37204761D01*
X70810952Y-37204761D02*
X70763333Y-37157142D01*
X70763333Y-37157142D02*
X70715714Y-37061904D01*
X70715714Y-37061904D02*
X70715714Y-36919047D01*
X70715714Y-36919047D02*
X70763333Y-36823809D01*
X70763333Y-36823809D02*
X70858571Y-36776190D01*
X70858571Y-36776190D02*
X71382380Y-36776190D01*
X70858571Y-36776190D02*
X70763333Y-36728571D01*
X70763333Y-36728571D02*
X70715714Y-36633333D01*
X70715714Y-36633333D02*
X70715714Y-36490476D01*
X70715714Y-36490476D02*
X70763333Y-36395237D01*
X70763333Y-36395237D02*
X70858571Y-36347618D01*
X70858571Y-36347618D02*
X71382380Y-36347618D01*
X71382380Y-35871428D02*
X70715714Y-35871428D01*
X70382380Y-35871428D02*
X70430000Y-35919047D01*
X70430000Y-35919047D02*
X70477619Y-35871428D01*
X70477619Y-35871428D02*
X70430000Y-35823809D01*
X70430000Y-35823809D02*
X70382380Y-35871428D01*
X70382380Y-35871428D02*
X70477619Y-35871428D01*
X71334761Y-34966667D02*
X71382380Y-35061905D01*
X71382380Y-35061905D02*
X71382380Y-35252381D01*
X71382380Y-35252381D02*
X71334761Y-35347619D01*
X71334761Y-35347619D02*
X71287142Y-35395238D01*
X71287142Y-35395238D02*
X71191904Y-35442857D01*
X71191904Y-35442857D02*
X70906190Y-35442857D01*
X70906190Y-35442857D02*
X70810952Y-35395238D01*
X70810952Y-35395238D02*
X70763333Y-35347619D01*
X70763333Y-35347619D02*
X70715714Y-35252381D01*
X70715714Y-35252381D02*
X70715714Y-35061905D01*
X70715714Y-35061905D02*
X70763333Y-34966667D01*
X71382380Y-33366667D02*
X70906190Y-33700000D01*
X71382380Y-33938095D02*
X70382380Y-33938095D01*
X70382380Y-33938095D02*
X70382380Y-33557143D01*
X70382380Y-33557143D02*
X70430000Y-33461905D01*
X70430000Y-33461905D02*
X70477619Y-33414286D01*
X70477619Y-33414286D02*
X70572857Y-33366667D01*
X70572857Y-33366667D02*
X70715714Y-33366667D01*
X70715714Y-33366667D02*
X70810952Y-33414286D01*
X70810952Y-33414286D02*
X70858571Y-33461905D01*
X70858571Y-33461905D02*
X70906190Y-33557143D01*
X70906190Y-33557143D02*
X70906190Y-33938095D01*
X59182380Y-36261904D02*
X58182380Y-36261904D01*
X58658571Y-36261904D02*
X58658571Y-35690476D01*
X59182380Y-35690476D02*
X58182380Y-35690476D01*
X59182380Y-35214285D02*
X58182380Y-35214285D01*
X58182380Y-35214285D02*
X58182380Y-34833333D01*
X58182380Y-34833333D02*
X58230000Y-34738095D01*
X58230000Y-34738095D02*
X58277619Y-34690476D01*
X58277619Y-34690476D02*
X58372857Y-34642857D01*
X58372857Y-34642857D02*
X58515714Y-34642857D01*
X58515714Y-34642857D02*
X58610952Y-34690476D01*
X58610952Y-34690476D02*
X58658571Y-34738095D01*
X58658571Y-34738095D02*
X58706190Y-34833333D01*
X58706190Y-34833333D02*
X58706190Y-35214285D01*
X59182380Y-33138095D02*
X59182380Y-33614285D01*
X59182380Y-33614285D02*
X58182380Y-33614285D01*
X59438095Y-29201428D02*
X60200000Y-29201428D01*
X59819047Y-29582380D02*
X59819047Y-28820476D01*
X77271428Y-57358571D02*
X76938095Y-57358571D01*
X76938095Y-57882380D02*
X76938095Y-56882380D01*
X76938095Y-56882380D02*
X77414285Y-56882380D01*
X78128571Y-57358571D02*
X78271428Y-57406190D01*
X78271428Y-57406190D02*
X78319047Y-57453809D01*
X78319047Y-57453809D02*
X78366666Y-57549047D01*
X78366666Y-57549047D02*
X78366666Y-57691904D01*
X78366666Y-57691904D02*
X78319047Y-57787142D01*
X78319047Y-57787142D02*
X78271428Y-57834761D01*
X78271428Y-57834761D02*
X78176190Y-57882380D01*
X78176190Y-57882380D02*
X77795238Y-57882380D01*
X77795238Y-57882380D02*
X77795238Y-56882380D01*
X77795238Y-56882380D02*
X78128571Y-56882380D01*
X78128571Y-56882380D02*
X78223809Y-56930000D01*
X78223809Y-56930000D02*
X78271428Y-56977619D01*
X78271428Y-56977619D02*
X78319047Y-57072857D01*
X78319047Y-57072857D02*
X78319047Y-57168095D01*
X78319047Y-57168095D02*
X78271428Y-57263333D01*
X78271428Y-57263333D02*
X78223809Y-57310952D01*
X78223809Y-57310952D02*
X78128571Y-57358571D01*
X78128571Y-57358571D02*
X77795238Y-57358571D01*
X79252381Y-57215714D02*
X79633333Y-57215714D01*
X79395238Y-57882380D02*
X79395238Y-57025238D01*
X79395238Y-57025238D02*
X79442857Y-56930000D01*
X79442857Y-56930000D02*
X79538095Y-56882380D01*
X79538095Y-56882380D02*
X79633333Y-56882380D01*
X79966667Y-57882380D02*
X79966667Y-57215714D01*
X79966667Y-56882380D02*
X79919048Y-56930000D01*
X79919048Y-56930000D02*
X79966667Y-56977619D01*
X79966667Y-56977619D02*
X80014286Y-56930000D01*
X80014286Y-56930000D02*
X79966667Y-56882380D01*
X79966667Y-56882380D02*
X79966667Y-56977619D01*
X80585714Y-57882380D02*
X80490476Y-57834761D01*
X80490476Y-57834761D02*
X80442857Y-57739523D01*
X80442857Y-57739523D02*
X80442857Y-56882380D01*
X80823810Y-57215714D02*
X81204762Y-57215714D01*
X80966667Y-56882380D02*
X80966667Y-57739523D01*
X80966667Y-57739523D02*
X81014286Y-57834761D01*
X81014286Y-57834761D02*
X81109524Y-57882380D01*
X81109524Y-57882380D02*
X81204762Y-57882380D01*
X81919048Y-57834761D02*
X81823810Y-57882380D01*
X81823810Y-57882380D02*
X81633334Y-57882380D01*
X81633334Y-57882380D02*
X81538096Y-57834761D01*
X81538096Y-57834761D02*
X81490477Y-57739523D01*
X81490477Y-57739523D02*
X81490477Y-57358571D01*
X81490477Y-57358571D02*
X81538096Y-57263333D01*
X81538096Y-57263333D02*
X81633334Y-57215714D01*
X81633334Y-57215714D02*
X81823810Y-57215714D01*
X81823810Y-57215714D02*
X81919048Y-57263333D01*
X81919048Y-57263333D02*
X81966667Y-57358571D01*
X81966667Y-57358571D02*
X81966667Y-57453809D01*
X81966667Y-57453809D02*
X81490477Y-57549047D01*
X82395239Y-57882380D02*
X82395239Y-57215714D01*
X82395239Y-57406190D02*
X82442858Y-57310952D01*
X82442858Y-57310952D02*
X82490477Y-57263333D01*
X82490477Y-57263333D02*
X82585715Y-57215714D01*
X82585715Y-57215714D02*
X82680953Y-57215714D01*
X82966668Y-57834761D02*
X83061906Y-57882380D01*
X83061906Y-57882380D02*
X83252382Y-57882380D01*
X83252382Y-57882380D02*
X83347620Y-57834761D01*
X83347620Y-57834761D02*
X83395239Y-57739523D01*
X83395239Y-57739523D02*
X83395239Y-57691904D01*
X83395239Y-57691904D02*
X83347620Y-57596666D01*
X83347620Y-57596666D02*
X83252382Y-57549047D01*
X83252382Y-57549047D02*
X83109525Y-57549047D01*
X83109525Y-57549047D02*
X83014287Y-57501428D01*
X83014287Y-57501428D02*
X82966668Y-57406190D01*
X82966668Y-57406190D02*
X82966668Y-57358571D01*
X82966668Y-57358571D02*
X83014287Y-57263333D01*
X83014287Y-57263333D02*
X83109525Y-57215714D01*
X83109525Y-57215714D02*
X83252382Y-57215714D01*
X83252382Y-57215714D02*
X83347620Y-57263333D01*
X77538095Y-32601428D02*
X78300000Y-32601428D01*
X77919047Y-32982380D02*
X77919047Y-32220476D01*
X87367142Y-58690476D02*
X87414761Y-58738095D01*
X87414761Y-58738095D02*
X87462380Y-58880952D01*
X87462380Y-58880952D02*
X87462380Y-58976190D01*
X87462380Y-58976190D02*
X87414761Y-59119047D01*
X87414761Y-59119047D02*
X87319523Y-59214285D01*
X87319523Y-59214285D02*
X87224285Y-59261904D01*
X87224285Y-59261904D02*
X87033809Y-59309523D01*
X87033809Y-59309523D02*
X86890952Y-59309523D01*
X86890952Y-59309523D02*
X86700476Y-59261904D01*
X86700476Y-59261904D02*
X86605238Y-59214285D01*
X86605238Y-59214285D02*
X86510000Y-59119047D01*
X86510000Y-59119047D02*
X86462380Y-58976190D01*
X86462380Y-58976190D02*
X86462380Y-58880952D01*
X86462380Y-58880952D02*
X86510000Y-58738095D01*
X86510000Y-58738095D02*
X86557619Y-58690476D01*
X87462380Y-58261904D02*
X86462380Y-58261904D01*
X86938571Y-58261904D02*
X86938571Y-57690476D01*
X87462380Y-57690476D02*
X86462380Y-57690476D01*
X87462380Y-56642857D02*
X86986190Y-56976190D01*
X87462380Y-57214285D02*
X86462380Y-57214285D01*
X86462380Y-57214285D02*
X86462380Y-56833333D01*
X86462380Y-56833333D02*
X86510000Y-56738095D01*
X86510000Y-56738095D02*
X86557619Y-56690476D01*
X86557619Y-56690476D02*
X86652857Y-56642857D01*
X86652857Y-56642857D02*
X86795714Y-56642857D01*
X86795714Y-56642857D02*
X86890952Y-56690476D01*
X86890952Y-56690476D02*
X86938571Y-56738095D01*
X86938571Y-56738095D02*
X86986190Y-56833333D01*
X86986190Y-56833333D02*
X86986190Y-57214285D01*
X86510000Y-55690476D02*
X86462380Y-55785714D01*
X86462380Y-55785714D02*
X86462380Y-55928571D01*
X86462380Y-55928571D02*
X86510000Y-56071428D01*
X86510000Y-56071428D02*
X86605238Y-56166666D01*
X86605238Y-56166666D02*
X86700476Y-56214285D01*
X86700476Y-56214285D02*
X86890952Y-56261904D01*
X86890952Y-56261904D02*
X87033809Y-56261904D01*
X87033809Y-56261904D02*
X87224285Y-56214285D01*
X87224285Y-56214285D02*
X87319523Y-56166666D01*
X87319523Y-56166666D02*
X87414761Y-56071428D01*
X87414761Y-56071428D02*
X87462380Y-55928571D01*
X87462380Y-55928571D02*
X87462380Y-55833333D01*
X87462380Y-55833333D02*
X87414761Y-55690476D01*
X87414761Y-55690476D02*
X87367142Y-55642857D01*
X87367142Y-55642857D02*
X87033809Y-55642857D01*
X87033809Y-55642857D02*
X87033809Y-55833333D01*
X89082380Y-59261904D02*
X88415714Y-59261904D01*
X88606190Y-59261904D02*
X88510952Y-59214285D01*
X88510952Y-59214285D02*
X88463333Y-59166666D01*
X88463333Y-59166666D02*
X88415714Y-59071428D01*
X88415714Y-59071428D02*
X88415714Y-58976190D01*
X89082380Y-58214285D02*
X88558571Y-58214285D01*
X88558571Y-58214285D02*
X88463333Y-58261904D01*
X88463333Y-58261904D02*
X88415714Y-58357142D01*
X88415714Y-58357142D02*
X88415714Y-58547618D01*
X88415714Y-58547618D02*
X88463333Y-58642856D01*
X89034761Y-58214285D02*
X89082380Y-58309523D01*
X89082380Y-58309523D02*
X89082380Y-58547618D01*
X89082380Y-58547618D02*
X89034761Y-58642856D01*
X89034761Y-58642856D02*
X88939523Y-58690475D01*
X88939523Y-58690475D02*
X88844285Y-58690475D01*
X88844285Y-58690475D02*
X88749047Y-58642856D01*
X88749047Y-58642856D02*
X88701428Y-58547618D01*
X88701428Y-58547618D02*
X88701428Y-58309523D01*
X88701428Y-58309523D02*
X88653809Y-58214285D01*
X88415714Y-57880951D02*
X88415714Y-57499999D01*
X88082380Y-57738094D02*
X88939523Y-57738094D01*
X88939523Y-57738094D02*
X89034761Y-57690475D01*
X89034761Y-57690475D02*
X89082380Y-57595237D01*
X89082380Y-57595237D02*
X89082380Y-57499999D01*
X89034761Y-56785713D02*
X89082380Y-56880951D01*
X89082380Y-56880951D02*
X89082380Y-57071427D01*
X89082380Y-57071427D02*
X89034761Y-57166665D01*
X89034761Y-57166665D02*
X88939523Y-57214284D01*
X88939523Y-57214284D02*
X88558571Y-57214284D01*
X88558571Y-57214284D02*
X88463333Y-57166665D01*
X88463333Y-57166665D02*
X88415714Y-57071427D01*
X88415714Y-57071427D02*
X88415714Y-56880951D01*
X88415714Y-56880951D02*
X88463333Y-56785713D01*
X88463333Y-56785713D02*
X88558571Y-56738094D01*
X88558571Y-56738094D02*
X88653809Y-56738094D01*
X88653809Y-56738094D02*
X88749047Y-57214284D01*
X53838095Y-75601428D02*
X54600000Y-75601428D01*
X54219047Y-75982380D02*
X54219047Y-75220476D01*
X67638095Y-32701428D02*
X68400000Y-32701428D01*
X68019047Y-33082380D02*
X68019047Y-32320476D01*
X57938095Y-78901428D02*
X58700000Y-78901428D01*
X58319047Y-79282380D02*
X58319047Y-78520476D01*
X78358571Y-35828571D02*
X78406190Y-35685714D01*
X78406190Y-35685714D02*
X78453809Y-35638095D01*
X78453809Y-35638095D02*
X78549047Y-35590476D01*
X78549047Y-35590476D02*
X78691904Y-35590476D01*
X78691904Y-35590476D02*
X78787142Y-35638095D01*
X78787142Y-35638095D02*
X78834761Y-35685714D01*
X78834761Y-35685714D02*
X78882380Y-35780952D01*
X78882380Y-35780952D02*
X78882380Y-36161904D01*
X78882380Y-36161904D02*
X77882380Y-36161904D01*
X77882380Y-36161904D02*
X77882380Y-35828571D01*
X77882380Y-35828571D02*
X77930000Y-35733333D01*
X77930000Y-35733333D02*
X77977619Y-35685714D01*
X77977619Y-35685714D02*
X78072857Y-35638095D01*
X78072857Y-35638095D02*
X78168095Y-35638095D01*
X78168095Y-35638095D02*
X78263333Y-35685714D01*
X78263333Y-35685714D02*
X78310952Y-35733333D01*
X78310952Y-35733333D02*
X78358571Y-35828571D01*
X78358571Y-35828571D02*
X78358571Y-36161904D01*
X78882380Y-34733333D02*
X78358571Y-34733333D01*
X78358571Y-34733333D02*
X78263333Y-34780952D01*
X78263333Y-34780952D02*
X78215714Y-34876190D01*
X78215714Y-34876190D02*
X78215714Y-35066666D01*
X78215714Y-35066666D02*
X78263333Y-35161904D01*
X78834761Y-34733333D02*
X78882380Y-34828571D01*
X78882380Y-34828571D02*
X78882380Y-35066666D01*
X78882380Y-35066666D02*
X78834761Y-35161904D01*
X78834761Y-35161904D02*
X78739523Y-35209523D01*
X78739523Y-35209523D02*
X78644285Y-35209523D01*
X78644285Y-35209523D02*
X78549047Y-35161904D01*
X78549047Y-35161904D02*
X78501428Y-35066666D01*
X78501428Y-35066666D02*
X78501428Y-34828571D01*
X78501428Y-34828571D02*
X78453809Y-34733333D01*
X78215714Y-34399999D02*
X78215714Y-34019047D01*
X77882380Y-34257142D02*
X78739523Y-34257142D01*
X78739523Y-34257142D02*
X78834761Y-34209523D01*
X78834761Y-34209523D02*
X78882380Y-34114285D01*
X78882380Y-34114285D02*
X78882380Y-34019047D01*
X78215714Y-33828570D02*
X78215714Y-33447618D01*
X77882380Y-33685713D02*
X78739523Y-33685713D01*
X78739523Y-33685713D02*
X78834761Y-33638094D01*
X78834761Y-33638094D02*
X78882380Y-33542856D01*
X78882380Y-33542856D02*
X78882380Y-33447618D01*
X54371428Y-72958571D02*
X54038095Y-72958571D01*
X54038095Y-73482380D02*
X54038095Y-72482380D01*
X54038095Y-72482380D02*
X54514285Y-72482380D01*
X55228571Y-72958571D02*
X55371428Y-73006190D01*
X55371428Y-73006190D02*
X55419047Y-73053809D01*
X55419047Y-73053809D02*
X55466666Y-73149047D01*
X55466666Y-73149047D02*
X55466666Y-73291904D01*
X55466666Y-73291904D02*
X55419047Y-73387142D01*
X55419047Y-73387142D02*
X55371428Y-73434761D01*
X55371428Y-73434761D02*
X55276190Y-73482380D01*
X55276190Y-73482380D02*
X54895238Y-73482380D01*
X54895238Y-73482380D02*
X54895238Y-72482380D01*
X54895238Y-72482380D02*
X55228571Y-72482380D01*
X55228571Y-72482380D02*
X55323809Y-72530000D01*
X55323809Y-72530000D02*
X55371428Y-72577619D01*
X55371428Y-72577619D02*
X55419047Y-72672857D01*
X55419047Y-72672857D02*
X55419047Y-72768095D01*
X55419047Y-72768095D02*
X55371428Y-72863333D01*
X55371428Y-72863333D02*
X55323809Y-72910952D01*
X55323809Y-72910952D02*
X55228571Y-72958571D01*
X55228571Y-72958571D02*
X54895238Y-72958571D01*
X56495238Y-73482380D02*
X56495238Y-72815714D01*
X56495238Y-72910952D02*
X56542857Y-72863333D01*
X56542857Y-72863333D02*
X56638095Y-72815714D01*
X56638095Y-72815714D02*
X56780952Y-72815714D01*
X56780952Y-72815714D02*
X56876190Y-72863333D01*
X56876190Y-72863333D02*
X56923809Y-72958571D01*
X56923809Y-72958571D02*
X56923809Y-73482380D01*
X56923809Y-72958571D02*
X56971428Y-72863333D01*
X56971428Y-72863333D02*
X57066666Y-72815714D01*
X57066666Y-72815714D02*
X57209523Y-72815714D01*
X57209523Y-72815714D02*
X57304762Y-72863333D01*
X57304762Y-72863333D02*
X57352381Y-72958571D01*
X57352381Y-72958571D02*
X57352381Y-73482380D01*
X57828571Y-73482380D02*
X57828571Y-72815714D01*
X57828571Y-72482380D02*
X57780952Y-72530000D01*
X57780952Y-72530000D02*
X57828571Y-72577619D01*
X57828571Y-72577619D02*
X57876190Y-72530000D01*
X57876190Y-72530000D02*
X57828571Y-72482380D01*
X57828571Y-72482380D02*
X57828571Y-72577619D01*
X58733332Y-73434761D02*
X58638094Y-73482380D01*
X58638094Y-73482380D02*
X58447618Y-73482380D01*
X58447618Y-73482380D02*
X58352380Y-73434761D01*
X58352380Y-73434761D02*
X58304761Y-73387142D01*
X58304761Y-73387142D02*
X58257142Y-73291904D01*
X58257142Y-73291904D02*
X58257142Y-73006190D01*
X58257142Y-73006190D02*
X58304761Y-72910952D01*
X58304761Y-72910952D02*
X58352380Y-72863333D01*
X58352380Y-72863333D02*
X58447618Y-72815714D01*
X58447618Y-72815714D02*
X58638094Y-72815714D01*
X58638094Y-72815714D02*
X58733332Y-72863333D01*
X61038095Y-71682380D02*
X61038095Y-70682380D01*
X61038095Y-70682380D02*
X61371428Y-71396666D01*
X61371428Y-71396666D02*
X61704761Y-70682380D01*
X61704761Y-70682380D02*
X61704761Y-71682380D01*
X62180952Y-71682380D02*
X62180952Y-71015714D01*
X62180952Y-70682380D02*
X62133333Y-70730000D01*
X62133333Y-70730000D02*
X62180952Y-70777619D01*
X62180952Y-70777619D02*
X62228571Y-70730000D01*
X62228571Y-70730000D02*
X62180952Y-70682380D01*
X62180952Y-70682380D02*
X62180952Y-70777619D01*
X63085713Y-71634761D02*
X62990475Y-71682380D01*
X62990475Y-71682380D02*
X62799999Y-71682380D01*
X62799999Y-71682380D02*
X62704761Y-71634761D01*
X62704761Y-71634761D02*
X62657142Y-71587142D01*
X62657142Y-71587142D02*
X62609523Y-71491904D01*
X62609523Y-71491904D02*
X62609523Y-71206190D01*
X62609523Y-71206190D02*
X62657142Y-71110952D01*
X62657142Y-71110952D02*
X62704761Y-71063333D01*
X62704761Y-71063333D02*
X62799999Y-71015714D01*
X62799999Y-71015714D02*
X62990475Y-71015714D01*
X62990475Y-71015714D02*
X63085713Y-71063333D01*
X64590475Y-71682380D02*
X64114285Y-71682380D01*
X64114285Y-71682380D02*
X64114285Y-70682380D01*
%TO.C,J24*%
X47767380Y-64409523D02*
X48481666Y-64409523D01*
X48481666Y-64409523D02*
X48624523Y-64457142D01*
X48624523Y-64457142D02*
X48719761Y-64552380D01*
X48719761Y-64552380D02*
X48767380Y-64695237D01*
X48767380Y-64695237D02*
X48767380Y-64790475D01*
X47862619Y-63980951D02*
X47815000Y-63933332D01*
X47815000Y-63933332D02*
X47767380Y-63838094D01*
X47767380Y-63838094D02*
X47767380Y-63599999D01*
X47767380Y-63599999D02*
X47815000Y-63504761D01*
X47815000Y-63504761D02*
X47862619Y-63457142D01*
X47862619Y-63457142D02*
X47957857Y-63409523D01*
X47957857Y-63409523D02*
X48053095Y-63409523D01*
X48053095Y-63409523D02*
X48195952Y-63457142D01*
X48195952Y-63457142D02*
X48767380Y-64028570D01*
X48767380Y-64028570D02*
X48767380Y-63409523D01*
X48100714Y-62552380D02*
X48767380Y-62552380D01*
X47719761Y-62790475D02*
X48434047Y-63028570D01*
X48434047Y-63028570D02*
X48434047Y-62409523D01*
%TO.C,J23*%
X82382619Y-60190476D02*
X81668333Y-60190476D01*
X81668333Y-60190476D02*
X81525476Y-60142857D01*
X81525476Y-60142857D02*
X81430238Y-60047619D01*
X81430238Y-60047619D02*
X81382619Y-59904762D01*
X81382619Y-59904762D02*
X81382619Y-59809524D01*
X82287380Y-60619048D02*
X82335000Y-60666667D01*
X82335000Y-60666667D02*
X82382619Y-60761905D01*
X82382619Y-60761905D02*
X82382619Y-61000000D01*
X82382619Y-61000000D02*
X82335000Y-61095238D01*
X82335000Y-61095238D02*
X82287380Y-61142857D01*
X82287380Y-61142857D02*
X82192142Y-61190476D01*
X82192142Y-61190476D02*
X82096904Y-61190476D01*
X82096904Y-61190476D02*
X81954047Y-61142857D01*
X81954047Y-61142857D02*
X81382619Y-60571429D01*
X81382619Y-60571429D02*
X81382619Y-61190476D01*
X82382619Y-61523810D02*
X82382619Y-62142857D01*
X82382619Y-62142857D02*
X82001666Y-61809524D01*
X82001666Y-61809524D02*
X82001666Y-61952381D01*
X82001666Y-61952381D02*
X81954047Y-62047619D01*
X81954047Y-62047619D02*
X81906428Y-62095238D01*
X81906428Y-62095238D02*
X81811190Y-62142857D01*
X81811190Y-62142857D02*
X81573095Y-62142857D01*
X81573095Y-62142857D02*
X81477857Y-62095238D01*
X81477857Y-62095238D02*
X81430238Y-62047619D01*
X81430238Y-62047619D02*
X81382619Y-61952381D01*
X81382619Y-61952381D02*
X81382619Y-61666667D01*
X81382619Y-61666667D02*
X81430238Y-61571429D01*
X81430238Y-61571429D02*
X81477857Y-61523810D01*
D12*
%TO.C,J11*%
X72200000Y-32000000D02*
G75*
G03*
X72200000Y-32000000I-700000J0D01*
G01*
%TO.C,C16*%
X70750165Y-67204000D02*
X70981835Y-67204000D01*
X70750165Y-67924000D02*
X70981835Y-67924000D01*
%TO.C,J22*%
X62422000Y-29840795D02*
G75*
G03*
X62422000Y-29840795I-700000J0D01*
G01*
%TO.C,J5*%
X54500000Y-74400000D02*
G75*
G03*
X54500000Y-74400000I-700000J0D01*
G01*
%TO.C,C56*%
X61942500Y-67515835D02*
X61942500Y-67284165D01*
X62662500Y-67515835D02*
X62662500Y-67284165D01*
%TO.C,C5*%
X82802500Y-36958665D02*
X82802500Y-37190335D01*
X82082500Y-36958665D02*
X82082500Y-37190335D01*
D13*
%TO.C,J1*%
X75378700Y-80472500D02*
X75378700Y-78886569D01*
X60621300Y-80472500D02*
X75378700Y-80472500D01*
X60621300Y-78886569D02*
X60621300Y-80472500D01*
D12*
%TO.C,C2*%
X80514665Y-40880500D02*
X80746335Y-40880500D01*
X80514665Y-41600500D02*
X80746335Y-41600500D01*
%TO.C,C4*%
X80552500Y-36958665D02*
X80552500Y-37190335D01*
X79832500Y-36958665D02*
X79832500Y-37190335D01*
%TO.C,R4*%
X88370000Y-55570121D02*
X88370000Y-55234879D01*
X89130000Y-55570121D02*
X89130000Y-55234879D01*
%TO.C,C14*%
X70460000Y-62981665D02*
X70460000Y-63213335D01*
X69740000Y-62981665D02*
X69740000Y-63213335D01*
%TO.C,R75*%
X80820000Y-50267621D02*
X80820000Y-49932379D01*
X81580000Y-50267621D02*
X81580000Y-49932379D01*
%TO.C,C48*%
X64162500Y-67284165D02*
X64162500Y-67515835D01*
X63442500Y-67284165D02*
X63442500Y-67515835D01*
%TO.C,J3*%
X58250000Y-77950000D02*
G75*
G03*
X58250000Y-77950000I-700000J0D01*
G01*
%TO.C,J16*%
X79700000Y-32000000D02*
G75*
G03*
X79700000Y-32000000I-700000J0D01*
G01*
%TO.C,R49*%
X61717621Y-69980000D02*
X61382379Y-69980000D01*
X61717621Y-69220000D02*
X61382379Y-69220000D01*
%TO.C,R6*%
X67980000Y-62929879D02*
X67980000Y-63265121D01*
X67220000Y-62929879D02*
X67220000Y-63265121D01*
%TO.C,C12*%
X66992500Y-60415835D02*
X66992500Y-60184165D01*
X67712500Y-60415835D02*
X67712500Y-60184165D01*
%TO.C,C15*%
X73110000Y-66686165D02*
X73110000Y-66917835D01*
X72390000Y-66686165D02*
X72390000Y-66917835D01*
%TO.C,J7*%
X59501000Y-29845000D02*
G75*
G03*
X59501000Y-29845000I-700000J0D01*
G01*
%TO.C,R44*%
X64072500Y-62367621D02*
X64072500Y-62032379D01*
X64832500Y-62367621D02*
X64832500Y-62032379D01*
%TO.C,J14*%
X73405627Y-29840795D02*
G75*
G03*
X73405627Y-29840795I-700000J0D01*
G01*
%TO.C,C49*%
X64812500Y-64684165D02*
X64812500Y-64915835D01*
X64092500Y-64684165D02*
X64092500Y-64915835D01*
%TO.C,C1*%
X78440000Y-46083335D02*
X78440000Y-45851665D01*
X79160000Y-46083335D02*
X79160000Y-45851665D01*
%TO.C,C54*%
X60910000Y-59284165D02*
X60910000Y-59515835D01*
X60190000Y-59284165D02*
X60190000Y-59515835D01*
%TO.C,C47*%
X59953500Y-57760000D02*
X59721830Y-57760000D01*
X59953500Y-57040000D02*
X59721830Y-57040000D01*
%TO.C,R5*%
X80798121Y-44120500D02*
X80462879Y-44120500D01*
X80798121Y-43360500D02*
X80462879Y-43360500D01*
%TO.C,R42*%
X62720000Y-62367621D02*
X62720000Y-62032379D01*
X63480000Y-62367621D02*
X63480000Y-62032379D01*
%TO.C,C9*%
X67740000Y-57965835D02*
X67740000Y-57734165D01*
X68460000Y-57965835D02*
X68460000Y-57734165D01*
%TO.C,J13*%
X74700000Y-32000000D02*
G75*
G03*
X74700000Y-32000000I-700000J0D01*
G01*
%TO.C,R1*%
X86462879Y-45860500D02*
X86798121Y-45860500D01*
X86462879Y-46620500D02*
X86798121Y-46620500D01*
%TO.C,J8*%
X60771000Y-32004000D02*
G75*
G03*
X60771000Y-32004000I-700000J0D01*
G01*
%TO.C,J24*%
X55460000Y-65710000D02*
X54410000Y-65710000D01*
X55460000Y-61690000D02*
X55460000Y-65710000D01*
X54410000Y-61690000D02*
X55460000Y-61690000D01*
X54410000Y-61266667D02*
X54410000Y-61690000D01*
X50590000Y-61690000D02*
X49540000Y-61690000D01*
X49540000Y-65710000D02*
X50590000Y-65710000D01*
X49540000Y-61690000D02*
X49540000Y-65710000D01*
%TO.C,R74*%
X79420000Y-50267621D02*
X79420000Y-49932379D01*
X80180000Y-50267621D02*
X80180000Y-49932379D01*
%TO.C,J10*%
X68429627Y-29840795D02*
G75*
G03*
X68429627Y-29840795I-700000J0D01*
G01*
%TO.C,C6*%
X87884165Y-53042500D02*
X88115835Y-53042500D01*
X87884165Y-53762500D02*
X88115835Y-53762500D01*
%TO.C,R47*%
X64717621Y-69980000D02*
X64382379Y-69980000D01*
X64717621Y-69220000D02*
X64382379Y-69220000D01*
%TO.C,C77*%
X80746335Y-40350500D02*
X80514665Y-40350500D01*
X80746335Y-39630500D02*
X80514665Y-39630500D01*
%TO.C,C13*%
X70712500Y-60216665D02*
X70712500Y-60448335D01*
X69992500Y-60216665D02*
X69992500Y-60448335D01*
%TO.C,C10*%
X69960000Y-57734165D02*
X69960000Y-57965835D01*
X69240000Y-57734165D02*
X69240000Y-57965835D01*
%TO.C,J6*%
X52500000Y-72600000D02*
G75*
G03*
X52500000Y-72600000I-700000J0D01*
G01*
%TO.C,R72*%
X62356000Y-34376379D02*
X62356000Y-34711621D01*
X61596000Y-34376379D02*
X61596000Y-34711621D01*
%TO.C,J23*%
X74540000Y-58940000D02*
X75590000Y-58940000D01*
X74540000Y-62960000D02*
X74540000Y-58940000D01*
X75590000Y-62960000D02*
X74540000Y-62960000D01*
X75590000Y-63383333D02*
X75590000Y-62960000D01*
X79410000Y-62960000D02*
X80460000Y-62960000D01*
X80460000Y-58940000D02*
X79410000Y-58940000D01*
X80460000Y-62960000D02*
X80460000Y-58940000D01*
%TO.C,R2*%
X88010500Y-38572879D02*
X88010500Y-38908121D01*
X87250500Y-38572879D02*
X87250500Y-38908121D01*
%TO.C,J12*%
X70905627Y-29840795D02*
G75*
G03*
X70905627Y-29840795I-700000J0D01*
G01*
%TO.C,R7*%
X68470000Y-63265121D02*
X68470000Y-62929879D01*
X69230000Y-63265121D02*
X69230000Y-62929879D01*
%TO.C,J20*%
X63692000Y-32258000D02*
G75*
G03*
X63692000Y-32258000I-700000J0D01*
G01*
%TO.C,R73*%
X60832000Y-34376379D02*
X60832000Y-34711621D01*
X60072000Y-34376379D02*
X60072000Y-34711621D01*
%TO.C,R43*%
X64922500Y-67567621D02*
X64922500Y-67232379D01*
X65682500Y-67567621D02*
X65682500Y-67232379D01*
%TO.C,C75*%
X80715835Y-52460000D02*
X80484165Y-52460000D01*
X80715835Y-51740000D02*
X80484165Y-51740000D01*
%TO.C,C78*%
X63860000Y-34428165D02*
X63860000Y-34659835D01*
X63140000Y-34428165D02*
X63140000Y-34659835D01*
%TO.C,C79*%
X65443500Y-34428165D02*
X65443500Y-34659835D01*
X64723500Y-34428165D02*
X64723500Y-34659835D01*
%TO.C,C58*%
X58790000Y-59515835D02*
X58790000Y-59284165D01*
X59510000Y-59515835D02*
X59510000Y-59284165D01*
%TO.C,J15*%
X75905627Y-29840795D02*
G75*
G03*
X75905627Y-29840795I-700000J0D01*
G01*
%TO.C,J21*%
X64962000Y-29840795D02*
G75*
G03*
X64962000Y-29840795I-700000J0D01*
G01*
%TO.C,J9*%
X69700000Y-32000000D02*
G75*
G03*
X69700000Y-32000000I-700000J0D01*
G01*
%TO.C,SW2*%
X64900000Y-38850000D02*
X64900000Y-38950000D01*
X64900000Y-37350000D02*
X60500000Y-37350000D01*
X60500000Y-40450000D02*
X64900000Y-40450000D01*
X60500000Y-38850000D02*
X60500000Y-38950000D01*
%TO.C,C52*%
X61292500Y-64883335D02*
X61292500Y-64651665D01*
X62012500Y-64883335D02*
X62012500Y-64651665D01*
%TO.C,C76*%
X79840000Y-54515835D02*
X79840000Y-54284165D01*
X80560000Y-54515835D02*
X80560000Y-54284165D01*
%TO.C,R8*%
X67182379Y-55420000D02*
X67517621Y-55420000D01*
X67182379Y-56180000D02*
X67517621Y-56180000D01*
%TO.C,J17*%
X77200000Y-32000000D02*
G75*
G03*
X77200000Y-32000000I-700000J0D01*
G01*
%TO.C,C11*%
X69210000Y-60234165D02*
X69210000Y-60465835D01*
X68490000Y-60234165D02*
X68490000Y-60465835D01*
%TO.C,R10*%
X71480000Y-57682379D02*
X71480000Y-58017621D01*
X70720000Y-57682379D02*
X70720000Y-58017621D01*
%TO.C,J4*%
X56500000Y-76200000D02*
G75*
G03*
X56500000Y-76200000I-700000J0D01*
G01*
%TO.C,R53*%
X60422500Y-67567621D02*
X60422500Y-67232379D01*
X61182500Y-67567621D02*
X61182500Y-67232379D01*
%TO.C,C7*%
X82440000Y-51677835D02*
X82440000Y-51446165D01*
X83160000Y-51677835D02*
X83160000Y-51446165D01*
%TO.C,R11*%
X66980000Y-57682379D02*
X66980000Y-58017621D01*
X66220000Y-57682379D02*
X66220000Y-58017621D01*
%TO.C,R3*%
X86048121Y-39620500D02*
X85712879Y-39620500D01*
X86048121Y-38860500D02*
X85712879Y-38860500D01*
%TO.C,R9*%
X70182379Y-55420000D02*
X70517621Y-55420000D01*
X70182379Y-56180000D02*
X70517621Y-56180000D01*
%TO.C,D1*%
X88115500Y-42505500D02*
X86645500Y-42505500D01*
X86645500Y-42505500D02*
X86645500Y-44790500D01*
X88115500Y-44790500D02*
X88115500Y-42505500D01*
%TO.C,J19*%
X66232000Y-32258000D02*
G75*
G03*
X66232000Y-32258000I-700000J0D01*
G01*
%TO.C,C17*%
X70987500Y-65915835D02*
X70987500Y-65684165D01*
X71707500Y-65915835D02*
X71707500Y-65684165D01*
%TO.C,J18*%
X78405627Y-29840795D02*
G75*
G03*
X78405627Y-29840795I-700000J0D01*
G01*
%TO.C,C3*%
X80514665Y-42130500D02*
X80746335Y-42130500D01*
X80514665Y-42850500D02*
X80746335Y-42850500D01*
%TO.C,C50*%
X62692500Y-64915835D02*
X62692500Y-64684165D01*
X63412500Y-64915835D02*
X63412500Y-64684165D01*
%TO.C,C43*%
X62210000Y-62084165D02*
X62210000Y-62315835D01*
X61490000Y-62084165D02*
X61490000Y-62315835D01*
%TO.C,C8*%
X83284165Y-49424000D02*
X83515835Y-49424000D01*
X83284165Y-50144000D02*
X83515835Y-50144000D01*
%TD*%
%LPC*%
D14*
%TO.C,J11*%
X71500000Y-32000000D03*
%TD*%
D15*
%TO.C,C16*%
X70298500Y-67564000D03*
X71433500Y-67564000D03*
%TD*%
D14*
%TO.C,J22*%
X61722000Y-29840795D03*
%TD*%
%TO.C,J5*%
X53800000Y-74400000D03*
%TD*%
D16*
%TO.C,C56*%
X62302500Y-67967500D03*
X62302500Y-66832500D03*
%TD*%
D17*
%TO.C,C5*%
X82442500Y-36507000D03*
X82442500Y-37642000D03*
%TD*%
D18*
%TO.C,J1*%
X63750000Y-76154499D03*
X64249999Y-76154499D03*
X64750000Y-76154499D03*
X65249999Y-76154499D03*
X65750001Y-76154499D03*
X66250000Y-76154499D03*
X66749999Y-76154499D03*
X67250001Y-76154499D03*
X67749999Y-76154499D03*
X68250001Y-76154499D03*
X68750000Y-76154499D03*
X69249999Y-76154499D03*
X69750001Y-76154499D03*
X70250000Y-76154499D03*
X70750001Y-76154499D03*
X71250000Y-76154499D03*
X71749999Y-76154499D03*
X72250001Y-76154499D03*
D19*
X74032499Y-77399099D03*
X61967499Y-77399099D03*
%TD*%
D15*
%TO.C,C2*%
X80063000Y-41240500D03*
X81198000Y-41240500D03*
%TD*%
D17*
%TO.C,C4*%
X80192500Y-36507000D03*
X80192500Y-37642000D03*
%TD*%
D20*
%TO.C,R4*%
X88750000Y-56000000D03*
X88750000Y-54805000D03*
%TD*%
D17*
%TO.C,C14*%
X70100000Y-62530000D03*
X70100000Y-63665000D03*
%TD*%
D20*
%TO.C,R75*%
X81200000Y-50697500D03*
X81200000Y-49502500D03*
%TD*%
D17*
%TO.C,C48*%
X63802500Y-66832500D03*
X63802500Y-67967500D03*
%TD*%
D14*
%TO.C,J3*%
X57550000Y-77950000D03*
%TD*%
%TO.C,J16*%
X79000000Y-32000000D03*
%TD*%
D21*
%TO.C,R49*%
X62147500Y-69600000D03*
X60952500Y-69600000D03*
%TD*%
D22*
%TO.C,R6*%
X67600000Y-62500000D03*
X67600000Y-63695000D03*
%TD*%
D16*
%TO.C,C12*%
X67352500Y-60867500D03*
X67352500Y-59732500D03*
%TD*%
D17*
%TO.C,C15*%
X72750000Y-66234500D03*
X72750000Y-67369500D03*
%TD*%
D14*
%TO.C,J7*%
X58801000Y-29845000D03*
%TD*%
D20*
%TO.C,R44*%
X64452500Y-62797500D03*
X64452500Y-61602500D03*
%TD*%
D14*
%TO.C,J14*%
X72705627Y-29840795D03*
%TD*%
D17*
%TO.C,C49*%
X64452500Y-64232500D03*
X64452500Y-65367500D03*
%TD*%
D16*
%TO.C,C1*%
X78800000Y-46535000D03*
X78800000Y-45400000D03*
%TD*%
D17*
%TO.C,C54*%
X60550000Y-58832500D03*
X60550000Y-59967500D03*
%TD*%
D23*
%TO.C,C47*%
X60405165Y-57400000D03*
X59270165Y-57400000D03*
%TD*%
D21*
%TO.C,R5*%
X81228000Y-43740500D03*
X80033000Y-43740500D03*
%TD*%
D20*
%TO.C,R42*%
X63100000Y-62797500D03*
X63100000Y-61602500D03*
%TD*%
D16*
%TO.C,C9*%
X68100000Y-58417500D03*
X68100000Y-57282500D03*
%TD*%
D14*
%TO.C,J13*%
X74000000Y-32000000D03*
%TD*%
D24*
%TO.C,R1*%
X86033000Y-46240500D03*
X87228000Y-46240500D03*
%TD*%
D14*
%TO.C,J8*%
X60071000Y-32004000D03*
%TD*%
D25*
%TO.C,J24*%
X53999999Y-61899999D03*
X53499999Y-61899999D03*
X52999999Y-61899999D03*
X52499999Y-61899999D03*
X51999999Y-61899999D03*
X51499999Y-61899999D03*
X50999999Y-61899999D03*
X53999999Y-65499999D03*
X53499999Y-65499999D03*
X52999999Y-65499999D03*
X52499999Y-65499999D03*
X51999999Y-65499999D03*
X51499999Y-65499999D03*
X50999999Y-65499999D03*
%TD*%
D20*
%TO.C,R74*%
X79800000Y-50697500D03*
X79800000Y-49502500D03*
%TD*%
D14*
%TO.C,J10*%
X67729627Y-29840795D03*
%TD*%
D15*
%TO.C,C6*%
X87432500Y-53402500D03*
X88567500Y-53402500D03*
%TD*%
D21*
%TO.C,R47*%
X65147500Y-69600000D03*
X63952500Y-69600000D03*
%TD*%
D23*
%TO.C,C77*%
X81198000Y-39990500D03*
X80063000Y-39990500D03*
%TD*%
D17*
%TO.C,C13*%
X70352500Y-59765000D03*
X70352500Y-60900000D03*
%TD*%
%TO.C,C10*%
X69600000Y-57282500D03*
X69600000Y-58417500D03*
%TD*%
D14*
%TO.C,J6*%
X51800000Y-72600000D03*
%TD*%
D22*
%TO.C,R72*%
X61976000Y-33946500D03*
X61976000Y-35141500D03*
%TD*%
D25*
%TO.C,J23*%
X75999999Y-62749999D03*
X76499999Y-62749999D03*
X76999999Y-62749999D03*
X77499999Y-62749999D03*
X77999999Y-62749999D03*
X78499999Y-62749999D03*
X78999999Y-62749999D03*
X75999999Y-59149999D03*
X76499999Y-59149999D03*
X76999999Y-59149999D03*
X77499999Y-59149999D03*
X77999999Y-59149999D03*
X78499999Y-59149999D03*
X78999999Y-59149999D03*
%TD*%
D22*
%TO.C,R2*%
X87630500Y-38143000D03*
X87630500Y-39338000D03*
%TD*%
D14*
%TO.C,J12*%
X70205627Y-29840795D03*
%TD*%
D20*
%TO.C,R7*%
X68850000Y-63695000D03*
X68850000Y-62500000D03*
%TD*%
D14*
%TO.C,J20*%
X62992000Y-32258000D03*
%TD*%
D22*
%TO.C,R73*%
X60452000Y-33946500D03*
X60452000Y-35141500D03*
%TD*%
D20*
%TO.C,R43*%
X65302500Y-67997500D03*
X65302500Y-66802500D03*
%TD*%
D23*
%TO.C,C75*%
X81167500Y-52100000D03*
X80032500Y-52100000D03*
%TD*%
D17*
%TO.C,C78*%
X63500000Y-33976500D03*
X63500000Y-35111500D03*
%TD*%
%TO.C,C79*%
X65083500Y-33976500D03*
X65083500Y-35111500D03*
%TD*%
D16*
%TO.C,C58*%
X59150000Y-59967500D03*
X59150000Y-58832500D03*
%TD*%
D14*
%TO.C,J15*%
X75205627Y-29840795D03*
%TD*%
%TO.C,J21*%
X64262000Y-29840795D03*
%TD*%
%TO.C,J9*%
X69000000Y-32000000D03*
%TD*%
D26*
%TO.C,SW2*%
X64749999Y-39699999D03*
X60649999Y-39699999D03*
X64749999Y-38099999D03*
X60649999Y-38099999D03*
%TD*%
D16*
%TO.C,C52*%
X61652500Y-65335000D03*
X61652500Y-64200000D03*
%TD*%
%TO.C,C76*%
X80200000Y-54967500D03*
X80200000Y-53832500D03*
%TD*%
D24*
%TO.C,R8*%
X66752500Y-55800000D03*
X67947500Y-55800000D03*
%TD*%
D14*
%TO.C,J17*%
X76500000Y-32000000D03*
%TD*%
D17*
%TO.C,C11*%
X68850000Y-59782500D03*
X68850000Y-60917500D03*
%TD*%
D22*
%TO.C,R10*%
X71100000Y-57252500D03*
X71100000Y-58447500D03*
%TD*%
D14*
%TO.C,J4*%
X55800000Y-76200000D03*
%TD*%
D20*
%TO.C,R53*%
X60802500Y-67997500D03*
X60802500Y-66802500D03*
%TD*%
D16*
%TO.C,C7*%
X82800000Y-52129500D03*
X82800000Y-50994500D03*
%TD*%
D22*
%TO.C,R11*%
X66600000Y-57252500D03*
X66600000Y-58447500D03*
%TD*%
D21*
%TO.C,R3*%
X86478000Y-39240500D03*
X85283000Y-39240500D03*
%TD*%
D24*
%TO.C,R9*%
X69752500Y-55800000D03*
X70947500Y-55800000D03*
%TD*%
D27*
%TO.C,D1*%
X87380500Y-43203000D03*
X87380500Y-44778000D03*
%TD*%
D14*
%TO.C,J19*%
X65532000Y-32258000D03*
%TD*%
D16*
%TO.C,C17*%
X71347500Y-66367500D03*
X71347500Y-65232500D03*
%TD*%
D14*
%TO.C,J18*%
X77705627Y-29840795D03*
%TD*%
D15*
%TO.C,C3*%
X80063000Y-42490500D03*
X81198000Y-42490500D03*
%TD*%
D16*
%TO.C,C50*%
X63052500Y-65367500D03*
X63052500Y-64232500D03*
%TD*%
D17*
%TO.C,C43*%
X61850000Y-61632500D03*
X61850000Y-62767500D03*
%TD*%
D15*
%TO.C,C8*%
X82832500Y-49784000D03*
X83967500Y-49784000D03*
%TD*%
M02*
