%TF.GenerationSoftware,KiCad,Pcbnew,(7.0.0)*%
%TF.CreationDate,2023-05-27T11:20:30+01:00*%
%TF.ProjectId,left_main,6c656674-5f6d-4616-996e-2e6b69636164,rev?*%
%TF.SameCoordinates,Original*%
%TF.FileFunction,Copper,L2,Inr*%
%TF.FilePolarity,Positive*%
%FSLAX46Y46*%
G04 Gerber Fmt 4.6, Leading zero omitted, Abs format (unit mm)*
G04 Created by KiCad (PCBNEW (7.0.0)) date 2023-05-27 11:20:30*
%MOMM*%
%LPD*%
G01*
G04 APERTURE LIST*
%TA.AperFunction,ViaPad*%
%ADD10C,0.450000*%
%TD*%
G04 APERTURE END LIST*
D10*
%TO.N,+3V3*%
X82000000Y-52800000D03*
X72000000Y-77400000D03*
X78000000Y-46535000D03*
X81200000Y-52800000D03*
X76500000Y-32000000D03*
X65786000Y-33782000D03*
%TO.N,GND*%
X85563914Y-41079448D03*
X75400000Y-62750000D03*
X85547496Y-44527343D03*
X78000000Y-45400000D03*
X57100000Y-45600000D03*
X66862944Y-54912444D03*
X79500000Y-62750000D03*
X75400000Y-59150000D03*
X88126001Y-49771300D03*
X81367000Y-36507000D03*
X63000000Y-76600000D03*
X74200000Y-62000000D03*
X50300000Y-61900000D03*
X80200000Y-52800000D03*
X59815500Y-58420000D03*
X66294000Y-64516000D03*
X71200000Y-77400000D03*
X77705627Y-29840795D03*
X69900000Y-55000000D03*
X79500000Y-59150000D03*
X63000000Y-78200000D03*
X73000000Y-76600000D03*
X87750000Y-54902500D03*
X66000000Y-58400000D03*
X84328000Y-50800000D03*
X55800000Y-76200000D03*
X85630500Y-42740500D03*
X63800000Y-77300000D03*
X81930926Y-42490500D03*
X54700000Y-61900000D03*
X61000000Y-76600000D03*
X51850000Y-72650000D03*
X61000000Y-78200000D03*
X64262000Y-60500000D03*
X82124228Y-41046611D03*
X50300000Y-65500000D03*
X75000000Y-78200000D03*
X82132438Y-44527343D03*
X61214000Y-33274000D03*
X58100000Y-63800000D03*
X71100000Y-42900000D03*
X54700000Y-65500000D03*
X73000000Y-78200000D03*
X75000000Y-76600000D03*
X62738000Y-38100000D03*
X66657894Y-60100000D03*
X62738000Y-35052000D03*
X72129131Y-66802000D03*
X56500000Y-55000000D03*
%TO.N,Net-(U2-VDDCORE)*%
X79380500Y-42490500D03*
%TO.N,Net-(U2-PA00{slash}EINT0{slash}SERCOM1.0)*%
X80918500Y-38090500D03*
%TO.N,Net-(U2-PA01{slash}EINT1{slash}SERCOM1.1)*%
X81934500Y-38090500D03*
%TO.N,+BATT*%
X88250000Y-52000000D03*
%TO.N,VBUS*%
X72675900Y-75469900D03*
X83400000Y-52000000D03*
%TO.N,VDD*%
X82100000Y-49300000D03*
X79380500Y-41615500D03*
X83598000Y-38590500D03*
X88392000Y-42926000D03*
X80730500Y-46190500D03*
%TO.N,Net-(IC1-MICL)*%
X68100000Y-59100000D03*
%TO.N,Net-(IC1-MICR)*%
X69600000Y-59100000D03*
%TO.N,Net-(IC1-MICS)*%
X68850000Y-58674000D03*
%TO.N,Net-(IC1-MICACL)*%
X67355000Y-58674000D03*
%TO.N,Net-(IC1-MICACR)*%
X70358000Y-58674000D03*
%TO.N,/AOHPR*%
X64000000Y-43000000D03*
%TO.N,+1V8*%
X80200000Y-56800000D03*
X78400000Y-56800000D03*
X73025000Y-65659000D03*
X78400000Y-56000000D03*
X59600000Y-60500000D03*
X80200000Y-56000000D03*
%TO.N,/HP_driver_L/vneg*%
X60600000Y-58000000D03*
X70358000Y-66802000D03*
%TO.N,Net-(IC1-CPN)*%
X70806050Y-66000000D03*
%TO.N,Net-(IC1-CPP)*%
X72136000Y-65786000D03*
%TO.N,/FB_QMIC_R*%
X75900000Y-57750000D03*
%TO.N,/FB_IOP1_R*%
X77250000Y-57750000D03*
%TO.N,/FB_QOP1_R*%
X77000000Y-60500000D03*
%TO.N,/FB_IOP2_R*%
X79000000Y-57750000D03*
%TO.N,/FB_QOP2_R*%
X78500000Y-60500000D03*
%TO.N,/FF_QOP1_R*%
X68877500Y-66377500D03*
X59100000Y-69100000D03*
X73660000Y-62992000D03*
%TO.N,/FF_IOP1_R*%
X59100000Y-68200000D03*
%TO.N,/FF_QMIC_R*%
X59100000Y-67300000D03*
%TO.N,/FB_QMIC_L*%
X75900000Y-66750000D03*
%TO.N,/FB_IOP1_L*%
X76700000Y-66250000D03*
%TO.N,/FB_QOP1_L*%
X77500000Y-65750000D03*
%TO.N,/FB_IOP2_L*%
X78300000Y-65250000D03*
%TO.N,/AOHPL*%
X63000000Y-43000000D03*
%TO.N,Net-(IC2-MICL)*%
X63802500Y-66082500D03*
%TO.N,Net-(IC2-MICACL)*%
X64546428Y-66548000D03*
%TO.N,Net-(IC2-MICS)*%
X63052500Y-66548000D03*
%TO.N,Net-(IC2-MICACR)*%
X61550000Y-66548000D03*
%TO.N,Net-(IC2-CPN)*%
X61098041Y-59212687D03*
%TO.N,Net-(IC2-CPP)*%
X59996884Y-59517929D03*
%TO.N,Net-(IC2-MICR)*%
X62302500Y-66082500D03*
%TO.N,/FB_QOP2_L*%
X79100000Y-64750000D03*
%TO.N,/FF_QOP1_L*%
X58420000Y-62386405D03*
X62300000Y-58900000D03*
%TO.N,/FF_IOP1_L*%
X63125000Y-58300000D03*
%TO.N,/FF_QMIC_L*%
X64000000Y-57800000D03*
%TO.N,/AREF*%
X82630500Y-38590500D03*
%TO.N,Net-(U8-OUT)*%
X64262000Y-33020000D03*
%TO.N,Net-(IC1-LINR)*%
X66548000Y-63500000D03*
%TO.N,Net-(IC1-QLINR)*%
X66294000Y-62500000D03*
%TO.N,/I2C_SDA*%
X66228000Y-61468000D03*
X84063188Y-48006000D03*
X64900000Y-59600000D03*
X79100000Y-50600000D03*
%TO.N,/I2C_SCL*%
X78486000Y-50038000D03*
X83130500Y-46990500D03*
%TO.N,/HP_R_-*%
X73152000Y-62230000D03*
%TO.N,/HP_R_+*%
X74800000Y-63700000D03*
%TO.N,/audio_in_R*%
X74100000Y-64700000D03*
%TO.N,Net-(IC2-LINR)*%
X65278000Y-61214000D03*
%TO.N,Net-(IC2-QLINR)*%
X65278000Y-63246000D03*
%TO.N,/HP_L_-*%
X55900000Y-58500000D03*
%TO.N,/HP_L_+*%
X55118000Y-58054974D03*
%TO.N,/audio_in_L*%
X56800000Y-62600000D03*
X57700000Y-60800000D03*
X64000000Y-74800000D03*
%TO.N,/D2*%
X88392000Y-44196000D03*
X68834000Y-75021000D03*
X75438000Y-75438000D03*
%TO.N,/ANC_PBO*%
X84130500Y-46990500D03*
%TO.N,/ANC_OFF*%
X85090000Y-48006000D03*
%TO.N,/ANC_ON*%
X85090000Y-46990000D03*
%TO.N,/D10*%
X86360000Y-48006000D03*
%TO.N,/USB_D+*%
X81948000Y-48260000D03*
%TO.N,/USB_D-*%
X82748000Y-48260000D03*
%TO.N,/D11*%
X74168000Y-75438000D03*
X65400000Y-75000000D03*
X87630000Y-47498000D03*
%TO.N,/D3*%
X75205627Y-29840795D03*
%TO.N,/A4*%
X64262000Y-29840795D03*
%TO.N,/D13*%
X86106000Y-46990000D03*
%TO.N,/BAT_V_SENSE*%
X87108140Y-38852500D03*
%TO.N,Net-(U3-PROG)*%
X87750000Y-55902500D03*
%TO.N,/~{RESET}*%
X79380500Y-43740500D03*
X62738000Y-39700000D03*
%TO.N,/BM83_UART_RX*%
X80518000Y-47498000D03*
X88392000Y-41148000D03*
%TO.N,/BM83_UART_TX*%
X88646000Y-41910000D03*
X79248000Y-48006000D03*
%TO.N,/BM83_PROG_EN*%
X86360000Y-37846000D03*
X77978000Y-47960000D03*
%TO.N,/A2*%
X61722000Y-29840795D03*
%TO.N,/A3*%
X85130500Y-38490500D03*
X83966500Y-36820500D03*
%TO.N,/D4*%
X77978000Y-48768000D03*
X88138000Y-39990500D03*
%TO.N,/3V3_EN*%
X80010000Y-48514000D03*
X88138000Y-45466000D03*
%TD*%
%TA.AperFunction,Conductor*%
%TO.N,GND*%
G36*
X78387149Y-28759217D02*
G01*
X78424331Y-28780570D01*
X82122785Y-31864658D01*
X89725452Y-38204414D01*
X89729746Y-38207994D01*
X89762634Y-38250651D01*
X89774332Y-38303228D01*
X89774332Y-66353968D01*
X89766854Y-66396379D01*
X89745322Y-66433673D01*
X89256339Y-67016421D01*
X84131987Y-73123385D01*
X84126361Y-73129644D01*
X83965910Y-73296439D01*
X83953455Y-73307742D01*
X83775208Y-73448680D01*
X83761336Y-73458194D01*
X83565657Y-73573710D01*
X83550627Y-73581258D01*
X83341117Y-73669231D01*
X83325203Y-73674676D01*
X83105713Y-73733487D01*
X83089208Y-73736728D01*
X82863784Y-73765293D01*
X82846993Y-73766271D01*
X82619775Y-73764066D01*
X82603006Y-73762763D01*
X82378171Y-73729829D01*
X82361732Y-73726268D01*
X82139078Y-73661954D01*
X82131077Y-73659345D01*
X82097845Y-73647249D01*
X82098682Y-73644946D01*
X82098681Y-73644945D01*
X82097843Y-73647249D01*
X79517584Y-72708110D01*
X79517525Y-72708079D01*
X79517533Y-72708060D01*
X79374072Y-72655903D01*
X79370681Y-72655087D01*
X79080649Y-72585298D01*
X79080638Y-72585296D01*
X79077247Y-72584480D01*
X79073784Y-72584051D01*
X79073772Y-72584049D01*
X78777741Y-72547392D01*
X78777733Y-72547391D01*
X78774265Y-72546962D01*
X78770759Y-72546926D01*
X78472493Y-72543864D01*
X78468984Y-72543828D01*
X78465503Y-72544186D01*
X78465495Y-72544187D01*
X78168777Y-72574758D01*
X78168772Y-72574758D01*
X78165295Y-72575117D01*
X78161877Y-72575865D01*
X78161874Y-72575866D01*
X77870491Y-72639679D01*
X77870472Y-72639684D01*
X77867067Y-72640430D01*
X77863754Y-72641559D01*
X77863748Y-72641561D01*
X77581425Y-72737802D01*
X77581421Y-72737803D01*
X77578099Y-72738936D01*
X77574921Y-72740437D01*
X77574918Y-72740439D01*
X77305236Y-72867884D01*
X77305225Y-72867889D01*
X77302072Y-72869380D01*
X77299114Y-72871211D01*
X77299102Y-72871218D01*
X77045472Y-73028261D01*
X77045461Y-73028268D01*
X77042505Y-73030099D01*
X77039768Y-73032255D01*
X77039763Y-73032259D01*
X76805459Y-73216873D01*
X76805451Y-73216879D01*
X76802702Y-73219046D01*
X76800209Y-73221512D01*
X76800205Y-73221517D01*
X76588211Y-73431347D01*
X76588199Y-73431360D01*
X76585721Y-73433813D01*
X76583530Y-73436534D01*
X76583527Y-73436539D01*
X76396518Y-73668939D01*
X76396513Y-73668945D01*
X76394325Y-73671665D01*
X76392461Y-73674606D01*
X76392452Y-73674620D01*
X76334344Y-73766353D01*
X76230953Y-73929571D01*
X76229425Y-73932719D01*
X76229419Y-73932731D01*
X76115375Y-74167784D01*
X76097685Y-74204245D01*
X76096527Y-74207531D01*
X76096520Y-74207548D01*
X76017376Y-74432152D01*
X75996221Y-74492188D01*
X75995439Y-74495589D01*
X75995439Y-74495591D01*
X75928636Y-74786320D01*
X75928633Y-74786332D01*
X75927853Y-74789731D01*
X75927458Y-74793207D01*
X75927458Y-74793212D01*
X75908272Y-74962388D01*
X75885969Y-75020483D01*
X75838253Y-75060427D01*
X75777141Y-75072162D01*
X75718023Y-75052731D01*
X75645020Y-75005815D01*
X75645017Y-75005813D01*
X75637561Y-75001022D01*
X75629055Y-74998524D01*
X75629052Y-74998523D01*
X75550339Y-74975411D01*
X75506367Y-74962500D01*
X75369633Y-74962500D01*
X75361122Y-74964998D01*
X75361122Y-74964999D01*
X75246947Y-74998523D01*
X75246941Y-74998525D01*
X75238439Y-75001022D01*
X75230985Y-75005812D01*
X75230979Y-75005815D01*
X75130867Y-75070152D01*
X75130860Y-75070157D01*
X75123411Y-75074945D01*
X75117609Y-75081639D01*
X75117604Y-75081645D01*
X75039678Y-75171578D01*
X75039675Y-75171582D01*
X75033870Y-75178282D01*
X75030188Y-75186344D01*
X75030185Y-75186349D01*
X74982603Y-75290540D01*
X74977069Y-75302658D01*
X74975807Y-75311431D01*
X74975806Y-75311437D01*
X74968385Y-75363055D01*
X74957610Y-75438000D01*
X74958872Y-75446778D01*
X74975806Y-75564562D01*
X74975807Y-75564566D01*
X74977069Y-75573342D01*
X75033870Y-75697718D01*
X75039677Y-75704420D01*
X75039678Y-75704421D01*
X75117604Y-75794354D01*
X75117606Y-75794356D01*
X75123411Y-75801055D01*
X75130865Y-75805845D01*
X75130867Y-75805847D01*
X75230979Y-75870184D01*
X75238439Y-75874978D01*
X75369633Y-75913500D01*
X75497497Y-75913500D01*
X75506367Y-75913500D01*
X75637561Y-75874978D01*
X75702358Y-75833335D01*
X75764972Y-75813731D01*
X75828824Y-75828820D01*
X75876039Y-75874379D01*
X75893397Y-75937652D01*
X75893397Y-79226804D01*
X75876784Y-79288804D01*
X75831397Y-79334191D01*
X75769397Y-79350804D01*
X57585003Y-79350804D01*
X57541197Y-79342808D01*
X57503039Y-79319852D01*
X55323548Y-77400000D01*
X71519610Y-77400000D01*
X71520872Y-77408778D01*
X71537806Y-77526562D01*
X71537807Y-77526566D01*
X71539069Y-77535342D01*
X71595870Y-77659718D01*
X71601677Y-77666420D01*
X71601678Y-77666421D01*
X71679604Y-77756354D01*
X71679606Y-77756356D01*
X71685411Y-77763055D01*
X71692865Y-77767845D01*
X71692867Y-77767847D01*
X71792979Y-77832184D01*
X71800439Y-77836978D01*
X71931633Y-77875500D01*
X72059497Y-77875500D01*
X72068367Y-77875500D01*
X72199561Y-77836978D01*
X72314589Y-77763055D01*
X72404130Y-77659718D01*
X72460931Y-77535342D01*
X72480390Y-77400000D01*
X72460931Y-77264658D01*
X72404130Y-77140282D01*
X72314589Y-77036945D01*
X72307135Y-77032154D01*
X72307132Y-77032152D01*
X72207020Y-76967815D01*
X72207017Y-76967813D01*
X72199561Y-76963022D01*
X72191055Y-76960524D01*
X72191052Y-76960523D01*
X72112339Y-76937411D01*
X72068367Y-76924500D01*
X71931633Y-76924500D01*
X71923122Y-76926998D01*
X71923122Y-76926999D01*
X71808947Y-76960523D01*
X71808941Y-76960525D01*
X71800439Y-76963022D01*
X71792985Y-76967812D01*
X71792979Y-76967815D01*
X71692867Y-77032152D01*
X71692860Y-77032157D01*
X71685411Y-77036945D01*
X71679609Y-77043639D01*
X71679604Y-77043645D01*
X71601678Y-77133578D01*
X71601675Y-77133582D01*
X71595870Y-77140282D01*
X71592188Y-77148344D01*
X71592185Y-77148349D01*
X71542754Y-77256588D01*
X71539069Y-77264658D01*
X71537807Y-77273431D01*
X71537806Y-77273437D01*
X71520872Y-77391222D01*
X71519610Y-77400000D01*
X55323548Y-77400000D01*
X52371926Y-74800000D01*
X63519610Y-74800000D01*
X63520872Y-74808778D01*
X63537806Y-74926562D01*
X63537807Y-74926566D01*
X63539069Y-74935342D01*
X63542753Y-74943410D01*
X63542754Y-74943411D01*
X63583632Y-75032922D01*
X63595870Y-75059718D01*
X63601677Y-75066420D01*
X63601678Y-75066421D01*
X63679604Y-75156354D01*
X63679606Y-75156356D01*
X63685411Y-75163055D01*
X63692865Y-75167845D01*
X63692867Y-75167847D01*
X63792979Y-75232184D01*
X63800439Y-75236978D01*
X63931633Y-75275500D01*
X64059497Y-75275500D01*
X64068367Y-75275500D01*
X64199561Y-75236978D01*
X64314589Y-75163055D01*
X64404130Y-75059718D01*
X64431402Y-75000000D01*
X64919610Y-75000000D01*
X64920872Y-75008778D01*
X64937806Y-75126562D01*
X64937807Y-75126566D01*
X64939069Y-75135342D01*
X64942753Y-75143410D01*
X64942754Y-75143411D01*
X64986625Y-75239476D01*
X64995870Y-75259718D01*
X65001677Y-75266420D01*
X65001678Y-75266421D01*
X65079604Y-75356354D01*
X65079606Y-75356356D01*
X65085411Y-75363055D01*
X65092865Y-75367845D01*
X65092867Y-75367847D01*
X65188370Y-75429222D01*
X65200439Y-75436978D01*
X65331633Y-75475500D01*
X65459497Y-75475500D01*
X65468367Y-75475500D01*
X65599561Y-75436978D01*
X65714589Y-75363055D01*
X65804130Y-75259718D01*
X65860931Y-75135342D01*
X65877371Y-75021000D01*
X68353610Y-75021000D01*
X68354872Y-75029778D01*
X68371806Y-75147562D01*
X68371807Y-75147566D01*
X68373069Y-75156342D01*
X68376753Y-75164410D01*
X68376754Y-75164411D01*
X68423340Y-75266421D01*
X68429870Y-75280718D01*
X68435677Y-75287420D01*
X68435678Y-75287421D01*
X68513604Y-75377354D01*
X68513606Y-75377356D01*
X68519411Y-75384055D01*
X68526865Y-75388845D01*
X68526867Y-75388847D01*
X68589693Y-75429222D01*
X68634439Y-75457978D01*
X68765633Y-75496500D01*
X68893497Y-75496500D01*
X68902367Y-75496500D01*
X68992958Y-75469900D01*
X72195510Y-75469900D01*
X72196772Y-75478678D01*
X72213706Y-75596462D01*
X72213707Y-75596466D01*
X72214969Y-75605242D01*
X72218653Y-75613310D01*
X72218654Y-75613311D01*
X72260262Y-75704421D01*
X72271770Y-75729618D01*
X72277577Y-75736320D01*
X72277578Y-75736321D01*
X72355504Y-75826254D01*
X72355506Y-75826256D01*
X72361311Y-75832955D01*
X72368765Y-75837745D01*
X72368767Y-75837747D01*
X72426701Y-75874978D01*
X72476339Y-75906878D01*
X72607533Y-75945400D01*
X72735397Y-75945400D01*
X72744267Y-75945400D01*
X72875461Y-75906878D01*
X72990489Y-75832955D01*
X73080030Y-75729618D01*
X73136831Y-75605242D01*
X73156290Y-75469900D01*
X73151704Y-75438000D01*
X73687610Y-75438000D01*
X73688872Y-75446778D01*
X73705806Y-75564562D01*
X73705807Y-75564566D01*
X73707069Y-75573342D01*
X73763870Y-75697718D01*
X73769677Y-75704420D01*
X73769678Y-75704421D01*
X73847604Y-75794354D01*
X73847606Y-75794356D01*
X73853411Y-75801055D01*
X73860865Y-75805845D01*
X73860867Y-75805847D01*
X73960979Y-75870184D01*
X73968439Y-75874978D01*
X74099633Y-75913500D01*
X74227497Y-75913500D01*
X74236367Y-75913500D01*
X74367561Y-75874978D01*
X74482589Y-75801055D01*
X74572130Y-75697718D01*
X74628931Y-75573342D01*
X74648390Y-75438000D01*
X74628931Y-75302658D01*
X74572130Y-75178282D01*
X74558936Y-75163055D01*
X74488395Y-75081645D01*
X74488393Y-75081643D01*
X74482589Y-75074945D01*
X74475135Y-75070154D01*
X74475132Y-75070152D01*
X74375020Y-75005815D01*
X74375017Y-75005813D01*
X74367561Y-75001022D01*
X74359055Y-74998524D01*
X74359052Y-74998523D01*
X74280339Y-74975411D01*
X74236367Y-74962500D01*
X74099633Y-74962500D01*
X74091122Y-74964998D01*
X74091122Y-74964999D01*
X73976947Y-74998523D01*
X73976941Y-74998525D01*
X73968439Y-75001022D01*
X73960985Y-75005812D01*
X73960979Y-75005815D01*
X73860867Y-75070152D01*
X73860860Y-75070157D01*
X73853411Y-75074945D01*
X73847609Y-75081639D01*
X73847604Y-75081645D01*
X73769678Y-75171578D01*
X73769675Y-75171582D01*
X73763870Y-75178282D01*
X73760188Y-75186344D01*
X73760185Y-75186349D01*
X73712603Y-75290540D01*
X73707069Y-75302658D01*
X73705807Y-75311431D01*
X73705806Y-75311437D01*
X73698385Y-75363055D01*
X73687610Y-75438000D01*
X73151704Y-75438000D01*
X73136831Y-75334558D01*
X73080030Y-75210182D01*
X73039195Y-75163055D01*
X72996295Y-75113545D01*
X72996293Y-75113543D01*
X72990489Y-75106845D01*
X72983035Y-75102054D01*
X72983032Y-75102052D01*
X72882920Y-75037715D01*
X72882917Y-75037713D01*
X72875461Y-75032922D01*
X72866955Y-75030424D01*
X72866952Y-75030423D01*
X72766819Y-75001022D01*
X72744267Y-74994400D01*
X72607533Y-74994400D01*
X72599022Y-74996898D01*
X72599022Y-74996899D01*
X72484847Y-75030423D01*
X72484841Y-75030425D01*
X72476339Y-75032922D01*
X72468885Y-75037712D01*
X72468879Y-75037715D01*
X72368767Y-75102052D01*
X72368760Y-75102057D01*
X72361311Y-75106845D01*
X72355509Y-75113539D01*
X72355504Y-75113545D01*
X72277578Y-75203478D01*
X72277575Y-75203482D01*
X72271770Y-75210182D01*
X72268088Y-75218244D01*
X72268085Y-75218249D01*
X72229537Y-75302658D01*
X72214969Y-75334558D01*
X72213707Y-75343331D01*
X72213706Y-75343337D01*
X72200243Y-75436978D01*
X72195510Y-75469900D01*
X68992958Y-75469900D01*
X69033561Y-75457978D01*
X69148589Y-75384055D01*
X69238130Y-75280718D01*
X69294931Y-75156342D01*
X69314390Y-75021000D01*
X69294931Y-74885658D01*
X69238130Y-74761282D01*
X69148589Y-74657945D01*
X69141135Y-74653154D01*
X69141132Y-74653152D01*
X69041020Y-74588815D01*
X69041017Y-74588813D01*
X69033561Y-74584022D01*
X69025055Y-74581524D01*
X69025052Y-74581523D01*
X68946339Y-74558411D01*
X68902367Y-74545500D01*
X68765633Y-74545500D01*
X68757122Y-74547998D01*
X68757122Y-74547999D01*
X68642947Y-74581523D01*
X68642941Y-74581525D01*
X68634439Y-74584022D01*
X68626985Y-74588812D01*
X68626979Y-74588815D01*
X68526867Y-74653152D01*
X68526860Y-74653157D01*
X68519411Y-74657945D01*
X68513609Y-74664639D01*
X68513604Y-74664645D01*
X68435678Y-74754578D01*
X68435675Y-74754582D01*
X68429870Y-74761282D01*
X68426188Y-74769344D01*
X68426185Y-74769349D01*
X68382659Y-74864658D01*
X68373069Y-74885658D01*
X68371807Y-74894431D01*
X68371806Y-74894437D01*
X68357891Y-74991222D01*
X68353610Y-75021000D01*
X65877371Y-75021000D01*
X65880390Y-75000000D01*
X65860931Y-74864658D01*
X65804130Y-74740282D01*
X65746209Y-74673437D01*
X65720395Y-74643645D01*
X65720393Y-74643643D01*
X65714589Y-74636945D01*
X65707135Y-74632154D01*
X65707132Y-74632152D01*
X65607020Y-74567815D01*
X65607017Y-74567813D01*
X65599561Y-74563022D01*
X65591055Y-74560524D01*
X65591052Y-74560523D01*
X65499284Y-74533578D01*
X65468367Y-74524500D01*
X65331633Y-74524500D01*
X65323122Y-74526998D01*
X65323122Y-74526999D01*
X65208947Y-74560523D01*
X65208941Y-74560525D01*
X65200439Y-74563022D01*
X65192985Y-74567812D01*
X65192979Y-74567815D01*
X65092867Y-74632152D01*
X65092860Y-74632157D01*
X65085411Y-74636945D01*
X65079609Y-74643639D01*
X65079604Y-74643645D01*
X65001678Y-74733578D01*
X65001675Y-74733582D01*
X64995870Y-74740282D01*
X64992188Y-74748344D01*
X64992185Y-74748349D01*
X64942754Y-74856588D01*
X64939069Y-74864658D01*
X64937807Y-74873431D01*
X64937806Y-74873437D01*
X64924642Y-74964999D01*
X64919610Y-75000000D01*
X64431402Y-75000000D01*
X64460931Y-74935342D01*
X64480390Y-74800000D01*
X64460931Y-74664658D01*
X64404130Y-74540282D01*
X64390455Y-74524500D01*
X64320395Y-74443645D01*
X64320393Y-74443643D01*
X64314589Y-74436945D01*
X64307135Y-74432154D01*
X64307132Y-74432152D01*
X64207020Y-74367815D01*
X64207017Y-74367813D01*
X64199561Y-74363022D01*
X64191055Y-74360524D01*
X64191052Y-74360523D01*
X64112339Y-74337411D01*
X64068367Y-74324500D01*
X63931633Y-74324500D01*
X63923122Y-74326998D01*
X63923122Y-74326999D01*
X63808947Y-74360523D01*
X63808941Y-74360525D01*
X63800439Y-74363022D01*
X63792985Y-74367812D01*
X63792979Y-74367815D01*
X63692867Y-74432152D01*
X63692860Y-74432157D01*
X63685411Y-74436945D01*
X63679609Y-74443639D01*
X63679604Y-74443645D01*
X63601678Y-74533578D01*
X63601675Y-74533582D01*
X63595870Y-74540282D01*
X63592188Y-74548344D01*
X63592185Y-74548349D01*
X63542754Y-74656588D01*
X63539069Y-74664658D01*
X63537807Y-74673431D01*
X63537806Y-74673437D01*
X63524017Y-74769349D01*
X63519610Y-74800000D01*
X52371926Y-74800000D01*
X45901063Y-69100000D01*
X58619610Y-69100000D01*
X58620872Y-69108778D01*
X58637806Y-69226562D01*
X58637807Y-69226566D01*
X58639069Y-69235342D01*
X58642753Y-69243410D01*
X58642754Y-69243411D01*
X58680310Y-69325648D01*
X58695870Y-69359718D01*
X58701677Y-69366420D01*
X58701678Y-69366421D01*
X58779604Y-69456354D01*
X58779606Y-69456356D01*
X58785411Y-69463055D01*
X58792865Y-69467845D01*
X58792867Y-69467847D01*
X58892979Y-69532184D01*
X58900439Y-69536978D01*
X59031633Y-69575500D01*
X59159497Y-69575500D01*
X59168367Y-69575500D01*
X59250771Y-69551304D01*
X81769564Y-69551304D01*
X81788610Y-69805461D01*
X81845324Y-70053941D01*
X81938439Y-70291192D01*
X82065873Y-70511916D01*
X82224782Y-70711181D01*
X82411615Y-70884536D01*
X82622198Y-71028109D01*
X82851828Y-71138693D01*
X82856256Y-71140058D01*
X82856259Y-71140060D01*
X82956408Y-71170951D01*
X83095374Y-71213817D01*
X83347397Y-71251804D01*
X83597632Y-71251804D01*
X83602267Y-71251804D01*
X83854290Y-71213817D01*
X84097836Y-71138693D01*
X84327466Y-71028109D01*
X84538049Y-70884536D01*
X84724882Y-70711181D01*
X84883791Y-70511916D01*
X85011225Y-70291192D01*
X85104340Y-70053941D01*
X85161054Y-69805461D01*
X85180100Y-69551304D01*
X85161054Y-69297147D01*
X85104340Y-69048667D01*
X85011225Y-68811416D01*
X84883791Y-68590692D01*
X84724882Y-68391427D01*
X84538049Y-68218072D01*
X84327466Y-68074499D01*
X84307031Y-68064658D01*
X84102015Y-67965927D01*
X84102009Y-67965924D01*
X84097836Y-67963915D01*
X84093414Y-67962551D01*
X84093404Y-67962547D01*
X83858723Y-67890158D01*
X83858718Y-67890156D01*
X83854290Y-67888791D01*
X83849710Y-67888100D01*
X83849703Y-67888099D01*
X83606850Y-67851494D01*
X83606839Y-67851493D01*
X83602267Y-67850804D01*
X83347397Y-67850804D01*
X83342825Y-67851493D01*
X83342813Y-67851494D01*
X83099960Y-67888099D01*
X83099950Y-67888101D01*
X83095374Y-67888791D01*
X83090948Y-67890155D01*
X83090940Y-67890158D01*
X82856259Y-67962547D01*
X82856244Y-67962552D01*
X82851828Y-67963915D01*
X82847659Y-67965922D01*
X82847648Y-67965927D01*
X82626383Y-68072483D01*
X82626376Y-68072486D01*
X82622198Y-68074499D01*
X82411615Y-68218072D01*
X82408223Y-68221218D01*
X82408217Y-68221224D01*
X82294690Y-68326562D01*
X82224782Y-68391427D01*
X82221892Y-68395049D01*
X82221889Y-68395054D01*
X82079269Y-68573894D01*
X82065873Y-68590692D01*
X82063554Y-68594707D01*
X82063553Y-68594710D01*
X81940760Y-68807395D01*
X81940757Y-68807400D01*
X81938439Y-68811416D01*
X81936745Y-68815730D01*
X81936743Y-68815736D01*
X81847021Y-69044342D01*
X81845324Y-69048667D01*
X81844291Y-69053188D01*
X81844290Y-69053195D01*
X81789641Y-69292627D01*
X81789639Y-69292635D01*
X81788610Y-69297147D01*
X81788263Y-69301766D01*
X81788263Y-69301772D01*
X81776679Y-69456354D01*
X81769564Y-69551304D01*
X59250771Y-69551304D01*
X59299561Y-69536978D01*
X59414589Y-69463055D01*
X59504130Y-69359718D01*
X59560931Y-69235342D01*
X59580390Y-69100000D01*
X59560931Y-68964658D01*
X59504130Y-68840282D01*
X59414589Y-68736945D01*
X59414589Y-68736944D01*
X59415084Y-68736515D01*
X59388880Y-68701512D01*
X59377674Y-68650000D01*
X59388880Y-68598488D01*
X59415084Y-68563484D01*
X59414589Y-68563055D01*
X59448662Y-68523732D01*
X59504130Y-68459718D01*
X59560931Y-68335342D01*
X59576350Y-68228094D01*
X59579128Y-68208778D01*
X59580390Y-68200000D01*
X59560931Y-68064658D01*
X59504130Y-67940282D01*
X59414589Y-67836945D01*
X59415084Y-67836515D01*
X59388880Y-67801512D01*
X59377674Y-67750000D01*
X59388880Y-67698488D01*
X59415084Y-67663484D01*
X59414589Y-67663055D01*
X59414588Y-67663055D01*
X59504130Y-67559718D01*
X59560931Y-67435342D01*
X59580390Y-67300000D01*
X59560931Y-67164658D01*
X59504130Y-67040282D01*
X59495654Y-67030500D01*
X59420395Y-66943645D01*
X59420393Y-66943643D01*
X59414589Y-66936945D01*
X59407135Y-66932154D01*
X59407132Y-66932152D01*
X59307020Y-66867815D01*
X59307017Y-66867813D01*
X59299561Y-66863022D01*
X59291055Y-66860524D01*
X59291052Y-66860523D01*
X59189683Y-66830759D01*
X59168367Y-66824500D01*
X59031633Y-66824500D01*
X59023122Y-66826998D01*
X59023122Y-66826999D01*
X58908947Y-66860523D01*
X58908941Y-66860525D01*
X58900439Y-66863022D01*
X58892985Y-66867812D01*
X58892979Y-66867815D01*
X58792867Y-66932152D01*
X58792860Y-66932157D01*
X58785411Y-66936945D01*
X58779609Y-66943639D01*
X58779604Y-66943645D01*
X58701678Y-67033578D01*
X58701675Y-67033582D01*
X58695870Y-67040282D01*
X58692188Y-67048344D01*
X58692185Y-67048349D01*
X58654645Y-67130551D01*
X58639069Y-67164658D01*
X58637807Y-67173431D01*
X58637806Y-67173437D01*
X58628024Y-67241476D01*
X58619610Y-67300000D01*
X58620872Y-67308778D01*
X58637806Y-67426562D01*
X58637807Y-67426566D01*
X58639069Y-67435342D01*
X58695870Y-67559718D01*
X58701677Y-67566420D01*
X58701678Y-67566421D01*
X58785411Y-67663055D01*
X58784425Y-67663908D01*
X58817300Y-67715056D01*
X58817306Y-67784921D01*
X58784428Y-67836093D01*
X58785411Y-67836945D01*
X58701678Y-67933578D01*
X58701675Y-67933582D01*
X58695870Y-67940282D01*
X58692188Y-67948344D01*
X58692185Y-67948349D01*
X58642754Y-68056588D01*
X58639069Y-68064658D01*
X58637807Y-68073431D01*
X58637806Y-68073437D01*
X58620872Y-68191222D01*
X58619610Y-68200000D01*
X58620872Y-68208778D01*
X58637806Y-68326562D01*
X58637807Y-68326566D01*
X58639069Y-68335342D01*
X58642753Y-68343410D01*
X58642754Y-68343411D01*
X58680427Y-68425904D01*
X58695870Y-68459718D01*
X58701677Y-68466420D01*
X58701678Y-68466421D01*
X58785411Y-68563055D01*
X58784426Y-68563907D01*
X58817303Y-68615067D01*
X58817303Y-68684933D01*
X58784426Y-68736092D01*
X58785411Y-68736945D01*
X58701678Y-68833578D01*
X58701675Y-68833582D01*
X58695870Y-68840282D01*
X58692188Y-68848344D01*
X58692185Y-68848349D01*
X58642754Y-68956588D01*
X58639069Y-68964658D01*
X58637807Y-68973431D01*
X58637806Y-68973437D01*
X58627612Y-69044342D01*
X58619610Y-69100000D01*
X45901063Y-69100000D01*
X45217368Y-68497752D01*
X45186329Y-68455756D01*
X45175332Y-68404704D01*
X45175332Y-66548000D01*
X61069610Y-66548000D01*
X61070872Y-66556778D01*
X61087806Y-66674562D01*
X61087807Y-66674566D01*
X61089069Y-66683342D01*
X61092753Y-66691410D01*
X61092754Y-66691411D01*
X61139249Y-66793222D01*
X61145870Y-66807718D01*
X61151677Y-66814420D01*
X61151678Y-66814421D01*
X61229604Y-66904354D01*
X61229606Y-66904356D01*
X61235411Y-66911055D01*
X61242865Y-66915845D01*
X61242867Y-66915847D01*
X61342979Y-66980184D01*
X61350439Y-66984978D01*
X61481633Y-67023500D01*
X61609497Y-67023500D01*
X61618367Y-67023500D01*
X61749561Y-66984978D01*
X61864589Y-66911055D01*
X61954130Y-66807718D01*
X62010931Y-66683342D01*
X62016897Y-66641840D01*
X62035318Y-66592449D01*
X62072595Y-66555172D01*
X62121988Y-66536749D01*
X62174566Y-66540509D01*
X62234133Y-66558000D01*
X62361997Y-66558000D01*
X62370867Y-66558000D01*
X62428032Y-66541214D01*
X62480611Y-66537454D01*
X62530004Y-66555876D01*
X62567280Y-66593152D01*
X62585703Y-66642544D01*
X62590306Y-66674563D01*
X62590307Y-66674568D01*
X62591569Y-66683342D01*
X62595253Y-66691410D01*
X62595254Y-66691411D01*
X62641749Y-66793222D01*
X62648370Y-66807718D01*
X62654177Y-66814420D01*
X62654178Y-66814421D01*
X62732104Y-66904354D01*
X62732106Y-66904356D01*
X62737911Y-66911055D01*
X62745365Y-66915845D01*
X62745367Y-66915847D01*
X62845479Y-66980184D01*
X62852939Y-66984978D01*
X62984133Y-67023500D01*
X63111997Y-67023500D01*
X63120867Y-67023500D01*
X63252061Y-66984978D01*
X63367089Y-66911055D01*
X63456630Y-66807718D01*
X63513431Y-66683342D01*
X63519297Y-66642544D01*
X63537718Y-66593154D01*
X63574994Y-66555877D01*
X63624387Y-66537454D01*
X63676968Y-66541214D01*
X63734133Y-66558000D01*
X63861997Y-66558000D01*
X63870867Y-66558000D01*
X63922204Y-66542926D01*
X63992073Y-66542926D01*
X64050852Y-66580700D01*
X64079877Y-66644255D01*
X64084234Y-66674563D01*
X64084235Y-66674568D01*
X64085497Y-66683342D01*
X64089181Y-66691410D01*
X64089182Y-66691411D01*
X64135677Y-66793222D01*
X64142298Y-66807718D01*
X64148105Y-66814420D01*
X64148106Y-66814421D01*
X64226032Y-66904354D01*
X64226034Y-66904356D01*
X64231839Y-66911055D01*
X64239293Y-66915845D01*
X64239295Y-66915847D01*
X64339407Y-66980184D01*
X64346867Y-66984978D01*
X64478061Y-67023500D01*
X64605925Y-67023500D01*
X64614795Y-67023500D01*
X64745989Y-66984978D01*
X64861017Y-66911055D01*
X64950558Y-66807718D01*
X65007359Y-66683342D01*
X65026818Y-66548000D01*
X65007359Y-66412658D01*
X64991303Y-66377500D01*
X68397110Y-66377500D01*
X68398372Y-66386278D01*
X68415306Y-66504062D01*
X68415307Y-66504066D01*
X68416569Y-66512842D01*
X68420253Y-66520910D01*
X68420254Y-66520911D01*
X68464523Y-66617847D01*
X68473370Y-66637218D01*
X68479177Y-66643920D01*
X68479178Y-66643921D01*
X68557104Y-66733854D01*
X68557106Y-66733856D01*
X68562911Y-66740555D01*
X68570365Y-66745345D01*
X68570367Y-66745347D01*
X68667420Y-66807718D01*
X68677939Y-66814478D01*
X68809133Y-66853000D01*
X68936997Y-66853000D01*
X68945867Y-66853000D01*
X69077061Y-66814478D01*
X69096477Y-66802000D01*
X69877610Y-66802000D01*
X69878872Y-66810778D01*
X69895806Y-66928562D01*
X69895807Y-66928566D01*
X69897069Y-66937342D01*
X69900753Y-66945410D01*
X69900754Y-66945411D01*
X69947764Y-67048349D01*
X69953870Y-67061718D01*
X69959677Y-67068420D01*
X69959678Y-67068421D01*
X70037604Y-67158354D01*
X70037606Y-67158356D01*
X70043411Y-67165055D01*
X70050865Y-67169845D01*
X70050867Y-67169847D01*
X70150979Y-67234184D01*
X70158439Y-67238978D01*
X70289633Y-67277500D01*
X70417497Y-67277500D01*
X70426367Y-67277500D01*
X70557561Y-67238978D01*
X70672589Y-67165055D01*
X70762130Y-67061718D01*
X70818931Y-66937342D01*
X70838390Y-66802000D01*
X70830914Y-66750000D01*
X75419610Y-66750000D01*
X75420872Y-66758778D01*
X75437806Y-66876562D01*
X75437807Y-66876566D01*
X75439069Y-66885342D01*
X75442753Y-66893410D01*
X75442754Y-66893411D01*
X75484571Y-66984978D01*
X75495870Y-67009718D01*
X75501677Y-67016420D01*
X75501678Y-67016421D01*
X75579604Y-67106354D01*
X75579606Y-67106356D01*
X75585411Y-67113055D01*
X75592865Y-67117845D01*
X75592867Y-67117847D01*
X75692979Y-67182184D01*
X75700439Y-67186978D01*
X75831633Y-67225500D01*
X75959497Y-67225500D01*
X75968367Y-67225500D01*
X76099561Y-67186978D01*
X76214589Y-67113055D01*
X76304130Y-67009718D01*
X76360931Y-66885342D01*
X76373581Y-66797356D01*
X76392003Y-66747964D01*
X76429279Y-66710688D01*
X76478672Y-66692265D01*
X76531253Y-66696025D01*
X76631633Y-66725500D01*
X76759497Y-66725500D01*
X76768367Y-66725500D01*
X76899561Y-66686978D01*
X77014589Y-66613055D01*
X77104130Y-66509718D01*
X77160931Y-66385342D01*
X77173581Y-66297356D01*
X77192003Y-66247964D01*
X77229279Y-66210688D01*
X77278672Y-66192265D01*
X77331253Y-66196025D01*
X77431633Y-66225500D01*
X77559497Y-66225500D01*
X77568367Y-66225500D01*
X77699561Y-66186978D01*
X77814589Y-66113055D01*
X77868096Y-66051304D01*
X85269189Y-66051304D01*
X85269718Y-66057013D01*
X85288434Y-66259000D01*
X85289717Y-66272840D01*
X85291286Y-66278354D01*
X85349033Y-66481317D01*
X85349036Y-66481325D01*
X85350603Y-66486832D01*
X85353155Y-66491957D01*
X85353157Y-66491962D01*
X85447219Y-66680863D01*
X85447221Y-66680867D01*
X85449774Y-66685993D01*
X85453223Y-66690560D01*
X85453226Y-66690565D01*
X85580393Y-66858962D01*
X85580398Y-66858967D01*
X85583851Y-66863540D01*
X85588087Y-66867401D01*
X85588091Y-66867406D01*
X85664372Y-66936945D01*
X85748270Y-67013428D01*
X85937431Y-67130551D01*
X86144892Y-67210922D01*
X86363589Y-67251804D01*
X86580346Y-67251804D01*
X86586075Y-67251804D01*
X86804772Y-67210922D01*
X87012233Y-67130551D01*
X87201394Y-67013428D01*
X87365813Y-66863540D01*
X87499890Y-66685993D01*
X87599061Y-66486832D01*
X87659947Y-66272840D01*
X87680475Y-66051304D01*
X87659947Y-65829768D01*
X87603720Y-65632152D01*
X87600630Y-65621290D01*
X87600629Y-65621288D01*
X87599061Y-65615776D01*
X87499890Y-65416615D01*
X87482544Y-65393645D01*
X87369270Y-65243645D01*
X87369266Y-65243641D01*
X87365813Y-65239068D01*
X87361576Y-65235205D01*
X87361572Y-65235201D01*
X87205628Y-65093040D01*
X87205629Y-65093040D01*
X87201394Y-65089180D01*
X87196524Y-65086165D01*
X87196522Y-65086163D01*
X87054696Y-64998349D01*
X87012233Y-64972057D01*
X86980382Y-64959718D01*
X86810118Y-64893757D01*
X86810117Y-64893756D01*
X86804772Y-64891686D01*
X86799134Y-64890632D01*
X86591704Y-64851856D01*
X86591701Y-64851855D01*
X86586075Y-64850804D01*
X86363589Y-64850804D01*
X86357963Y-64851855D01*
X86357959Y-64851856D01*
X86150529Y-64890632D01*
X86150526Y-64890632D01*
X86144892Y-64891686D01*
X86139549Y-64893755D01*
X86139545Y-64893757D01*
X85942773Y-64969987D01*
X85942768Y-64969989D01*
X85937431Y-64972057D01*
X85932559Y-64975073D01*
X85932556Y-64975075D01*
X85753141Y-65086163D01*
X85753133Y-65086168D01*
X85748270Y-65089180D01*
X85744039Y-65093036D01*
X85744035Y-65093040D01*
X85588091Y-65235201D01*
X85588081Y-65235211D01*
X85583851Y-65239068D01*
X85580402Y-65243634D01*
X85580393Y-65243645D01*
X85453226Y-65412042D01*
X85453219Y-65412052D01*
X85449774Y-65416615D01*
X85447224Y-65421735D01*
X85447219Y-65421744D01*
X85353157Y-65610645D01*
X85353153Y-65610653D01*
X85350603Y-65615776D01*
X85349037Y-65621279D01*
X85349033Y-65621290D01*
X85293612Y-65816078D01*
X85289717Y-65829768D01*
X85289188Y-65835473D01*
X85289188Y-65835475D01*
X85280484Y-65929411D01*
X85269189Y-66051304D01*
X77868096Y-66051304D01*
X77904130Y-66009718D01*
X77960931Y-65885342D01*
X77973581Y-65797356D01*
X77992003Y-65747964D01*
X78029279Y-65710688D01*
X78078672Y-65692265D01*
X78131253Y-65696025D01*
X78231633Y-65725500D01*
X78359497Y-65725500D01*
X78368367Y-65725500D01*
X78499561Y-65686978D01*
X78614589Y-65613055D01*
X78704130Y-65509718D01*
X78760931Y-65385342D01*
X78773581Y-65297356D01*
X78792003Y-65247964D01*
X78829279Y-65210688D01*
X78878672Y-65192265D01*
X78931253Y-65196025D01*
X79031633Y-65225500D01*
X79159497Y-65225500D01*
X79168367Y-65225500D01*
X79299561Y-65186978D01*
X79414589Y-65113055D01*
X79504130Y-65009718D01*
X79560931Y-64885342D01*
X79580390Y-64750000D01*
X79560931Y-64614658D01*
X79504130Y-64490282D01*
X79460805Y-64440282D01*
X79420395Y-64393645D01*
X79420393Y-64393643D01*
X79414589Y-64386945D01*
X79407135Y-64382154D01*
X79407132Y-64382152D01*
X79307020Y-64317815D01*
X79307017Y-64317813D01*
X79299561Y-64313022D01*
X79291055Y-64310524D01*
X79291052Y-64310523D01*
X79212339Y-64287411D01*
X79168367Y-64274500D01*
X79031633Y-64274500D01*
X79023122Y-64276998D01*
X79023122Y-64276999D01*
X78908947Y-64310523D01*
X78908941Y-64310525D01*
X78900439Y-64313022D01*
X78892985Y-64317812D01*
X78892979Y-64317815D01*
X78792867Y-64382152D01*
X78792860Y-64382157D01*
X78785411Y-64386945D01*
X78779609Y-64393639D01*
X78779604Y-64393645D01*
X78701678Y-64483578D01*
X78701675Y-64483582D01*
X78695870Y-64490282D01*
X78692188Y-64498344D01*
X78692185Y-64498349D01*
X78661903Y-64564658D01*
X78639069Y-64614658D01*
X78637807Y-64623429D01*
X78637806Y-64623436D01*
X78626418Y-64702644D01*
X78597393Y-64766199D01*
X78538615Y-64803973D01*
X78468746Y-64803973D01*
X78376880Y-64776999D01*
X78376875Y-64776998D01*
X78368367Y-64774500D01*
X78231633Y-64774500D01*
X78223122Y-64776998D01*
X78223122Y-64776999D01*
X78108947Y-64810523D01*
X78108941Y-64810525D01*
X78100439Y-64813022D01*
X78092985Y-64817812D01*
X78092979Y-64817815D01*
X77992867Y-64882152D01*
X77992860Y-64882157D01*
X77985411Y-64886945D01*
X77979609Y-64893639D01*
X77979604Y-64893645D01*
X77901678Y-64983578D01*
X77901675Y-64983582D01*
X77895870Y-64990282D01*
X77892188Y-64998344D01*
X77892185Y-64998349D01*
X77842861Y-65106354D01*
X77839069Y-65114658D01*
X77837807Y-65123429D01*
X77837806Y-65123436D01*
X77826418Y-65202644D01*
X77797393Y-65266199D01*
X77738615Y-65303973D01*
X77668746Y-65303973D01*
X77576880Y-65276999D01*
X77576875Y-65276998D01*
X77568367Y-65274500D01*
X77431633Y-65274500D01*
X77423122Y-65276998D01*
X77423122Y-65276999D01*
X77308947Y-65310523D01*
X77308941Y-65310525D01*
X77300439Y-65313022D01*
X77292985Y-65317812D01*
X77292979Y-65317815D01*
X77192867Y-65382152D01*
X77192860Y-65382157D01*
X77185411Y-65386945D01*
X77179609Y-65393639D01*
X77179604Y-65393645D01*
X77101678Y-65483578D01*
X77101675Y-65483582D01*
X77095870Y-65490282D01*
X77092188Y-65498344D01*
X77092185Y-65498349D01*
X77042861Y-65606354D01*
X77039069Y-65614658D01*
X77037807Y-65623429D01*
X77037806Y-65623436D01*
X77026418Y-65702644D01*
X76997393Y-65766199D01*
X76938615Y-65803973D01*
X76868746Y-65803973D01*
X76776880Y-65776999D01*
X76776875Y-65776998D01*
X76768367Y-65774500D01*
X76631633Y-65774500D01*
X76623122Y-65776998D01*
X76623122Y-65776999D01*
X76508947Y-65810523D01*
X76508941Y-65810525D01*
X76500439Y-65813022D01*
X76492985Y-65817812D01*
X76492979Y-65817815D01*
X76392867Y-65882152D01*
X76392860Y-65882157D01*
X76385411Y-65886945D01*
X76379609Y-65893639D01*
X76379604Y-65893645D01*
X76301678Y-65983578D01*
X76301675Y-65983582D01*
X76295870Y-65990282D01*
X76292188Y-65998344D01*
X76292185Y-65998349D01*
X76246459Y-66098476D01*
X76239069Y-66114658D01*
X76237807Y-66123429D01*
X76237806Y-66123436D01*
X76226418Y-66202644D01*
X76197393Y-66266199D01*
X76138615Y-66303973D01*
X76068746Y-66303973D01*
X75976880Y-66276999D01*
X75976875Y-66276998D01*
X75968367Y-66274500D01*
X75831633Y-66274500D01*
X75823122Y-66276998D01*
X75823122Y-66276999D01*
X75708947Y-66310523D01*
X75708941Y-66310525D01*
X75700439Y-66313022D01*
X75692985Y-66317812D01*
X75692979Y-66317815D01*
X75592867Y-66382152D01*
X75592860Y-66382157D01*
X75585411Y-66386945D01*
X75579609Y-66393639D01*
X75579604Y-66393645D01*
X75501678Y-66483578D01*
X75501675Y-66483582D01*
X75495870Y-66490282D01*
X75492188Y-66498344D01*
X75492185Y-66498349D01*
X75446191Y-66599063D01*
X75439069Y-66614658D01*
X75437807Y-66623431D01*
X75437806Y-66623437D01*
X75421931Y-66733854D01*
X75419610Y-66750000D01*
X70830914Y-66750000D01*
X70818931Y-66666658D01*
X70807961Y-66642637D01*
X70796756Y-66591129D01*
X70807961Y-66539617D01*
X70839553Y-66497415D01*
X70885821Y-66472151D01*
X71005611Y-66436978D01*
X71120639Y-66363055D01*
X71210180Y-66259718D01*
X71266981Y-66135342D01*
X71284079Y-66016421D01*
X71285178Y-66008778D01*
X71286440Y-66000000D01*
X71266981Y-65864658D01*
X71231059Y-65786000D01*
X71655610Y-65786000D01*
X71656872Y-65794778D01*
X71673806Y-65912562D01*
X71673807Y-65912566D01*
X71675069Y-65921342D01*
X71678753Y-65929410D01*
X71678754Y-65929411D01*
X71723251Y-66026847D01*
X71731870Y-66045718D01*
X71737677Y-66052420D01*
X71737678Y-66052421D01*
X71815604Y-66142354D01*
X71815606Y-66142356D01*
X71821411Y-66149055D01*
X71828865Y-66153845D01*
X71828867Y-66153847D01*
X71880421Y-66186978D01*
X71936439Y-66222978D01*
X72067633Y-66261500D01*
X72195497Y-66261500D01*
X72204367Y-66261500D01*
X72335561Y-66222978D01*
X72450589Y-66149055D01*
X72540130Y-66045718D01*
X72540954Y-66046432D01*
X72570435Y-66016950D01*
X72619832Y-65998525D01*
X72672418Y-66002287D01*
X72709944Y-66022781D01*
X72710411Y-66022055D01*
X72804466Y-66082500D01*
X72825439Y-66095978D01*
X72956633Y-66134500D01*
X73084497Y-66134500D01*
X73093367Y-66134500D01*
X73224561Y-66095978D01*
X73339589Y-66022055D01*
X73429130Y-65918718D01*
X73485931Y-65794342D01*
X73505390Y-65659000D01*
X73485931Y-65523658D01*
X73429130Y-65399282D01*
X73369946Y-65330979D01*
X73345395Y-65302645D01*
X73345393Y-65302643D01*
X73339589Y-65295945D01*
X73332135Y-65291154D01*
X73332132Y-65291152D01*
X73232020Y-65226815D01*
X73232017Y-65226813D01*
X73224561Y-65222022D01*
X73216055Y-65219524D01*
X73216052Y-65219523D01*
X73113719Y-65189476D01*
X73093367Y-65183500D01*
X72956633Y-65183500D01*
X72948122Y-65185998D01*
X72948122Y-65185999D01*
X72833947Y-65219523D01*
X72833941Y-65219525D01*
X72825439Y-65222022D01*
X72817985Y-65226812D01*
X72817979Y-65226815D01*
X72717867Y-65291152D01*
X72717860Y-65291157D01*
X72710411Y-65295945D01*
X72704609Y-65302639D01*
X72704604Y-65302645D01*
X72620870Y-65399282D01*
X72619447Y-65398049D01*
X72575020Y-65436536D01*
X72505863Y-65446472D01*
X72451443Y-65421615D01*
X72450589Y-65422945D01*
X72343020Y-65353815D01*
X72343017Y-65353813D01*
X72335561Y-65349022D01*
X72327055Y-65346524D01*
X72327052Y-65346523D01*
X72248339Y-65323411D01*
X72204367Y-65310500D01*
X72067633Y-65310500D01*
X72059122Y-65312998D01*
X72059122Y-65312999D01*
X71944947Y-65346523D01*
X71944941Y-65346525D01*
X71936439Y-65349022D01*
X71928985Y-65353812D01*
X71928979Y-65353815D01*
X71828867Y-65418152D01*
X71828860Y-65418157D01*
X71821411Y-65422945D01*
X71815609Y-65429639D01*
X71815604Y-65429645D01*
X71737678Y-65519578D01*
X71737675Y-65519582D01*
X71731870Y-65526282D01*
X71728188Y-65534344D01*
X71728185Y-65534349D01*
X71678754Y-65642588D01*
X71675069Y-65650658D01*
X71673807Y-65659431D01*
X71673806Y-65659437D01*
X71661023Y-65748349D01*
X71655610Y-65786000D01*
X71231059Y-65786000D01*
X71210180Y-65740282D01*
X71177567Y-65702644D01*
X71126445Y-65643645D01*
X71126443Y-65643643D01*
X71120639Y-65636945D01*
X71113185Y-65632154D01*
X71113182Y-65632152D01*
X71013070Y-65567815D01*
X71013067Y-65567813D01*
X71005611Y-65563022D01*
X70997105Y-65560524D01*
X70997102Y-65560523D01*
X70918389Y-65537411D01*
X70874417Y-65524500D01*
X70737683Y-65524500D01*
X70729172Y-65526998D01*
X70729172Y-65526999D01*
X70614997Y-65560523D01*
X70614991Y-65560525D01*
X70606489Y-65563022D01*
X70599035Y-65567812D01*
X70599029Y-65567815D01*
X70498917Y-65632152D01*
X70498910Y-65632157D01*
X70491461Y-65636945D01*
X70485659Y-65643639D01*
X70485654Y-65643645D01*
X70407728Y-65733578D01*
X70407725Y-65733582D01*
X70401920Y-65740282D01*
X70398238Y-65748344D01*
X70398235Y-65748349D01*
X70348804Y-65856588D01*
X70345119Y-65864658D01*
X70343857Y-65873431D01*
X70343856Y-65873437D01*
X70327057Y-65990282D01*
X70325660Y-66000000D01*
X70326922Y-66008778D01*
X70343856Y-66126562D01*
X70343857Y-66126566D01*
X70345119Y-66135342D01*
X70348803Y-66143408D01*
X70356088Y-66159360D01*
X70366031Y-66228518D01*
X70337006Y-66292074D01*
X70278229Y-66329848D01*
X70166946Y-66362524D01*
X70158439Y-66365022D01*
X70150985Y-66369812D01*
X70150979Y-66369815D01*
X70050867Y-66434152D01*
X70050860Y-66434157D01*
X70043411Y-66438945D01*
X70037609Y-66445639D01*
X70037604Y-66445645D01*
X69959678Y-66535578D01*
X69959675Y-66535582D01*
X69953870Y-66542282D01*
X69950188Y-66550344D01*
X69950185Y-66550349D01*
X69907300Y-66644255D01*
X69897069Y-66666658D01*
X69895807Y-66675431D01*
X69895806Y-66675437D01*
X69878872Y-66793222D01*
X69877610Y-66802000D01*
X69096477Y-66802000D01*
X69192089Y-66740555D01*
X69281630Y-66637218D01*
X69338431Y-66512842D01*
X69357890Y-66377500D01*
X69338431Y-66242158D01*
X69281630Y-66117782D01*
X69257548Y-66089989D01*
X69197895Y-66021145D01*
X69197893Y-66021143D01*
X69192089Y-66014445D01*
X69184635Y-66009654D01*
X69184632Y-66009652D01*
X69084520Y-65945315D01*
X69084517Y-65945313D01*
X69077061Y-65940522D01*
X69068555Y-65938024D01*
X69068552Y-65938023D01*
X68975326Y-65910650D01*
X68945867Y-65902000D01*
X68809133Y-65902000D01*
X68800622Y-65904498D01*
X68800622Y-65904499D01*
X68686447Y-65938023D01*
X68686441Y-65938025D01*
X68677939Y-65940522D01*
X68670485Y-65945312D01*
X68670479Y-65945315D01*
X68570367Y-66009652D01*
X68570360Y-66009657D01*
X68562911Y-66014445D01*
X68557109Y-66021139D01*
X68557104Y-66021145D01*
X68479178Y-66111078D01*
X68479175Y-66111082D01*
X68473370Y-66117782D01*
X68469688Y-66125844D01*
X68469685Y-66125849D01*
X68420254Y-66234088D01*
X68416569Y-66242158D01*
X68415307Y-66250931D01*
X68415306Y-66250937D01*
X68403961Y-66329848D01*
X68397110Y-66377500D01*
X64991303Y-66377500D01*
X64950558Y-66288282D01*
X64927352Y-66261500D01*
X64866823Y-66191645D01*
X64866821Y-66191643D01*
X64861017Y-66184945D01*
X64853563Y-66180154D01*
X64853560Y-66180152D01*
X64753448Y-66115815D01*
X64753445Y-66115813D01*
X64745989Y-66111022D01*
X64737483Y-66108524D01*
X64737480Y-66108523D01*
X64648852Y-66082500D01*
X64614795Y-66072500D01*
X64478061Y-66072500D01*
X64469551Y-66074998D01*
X64469549Y-66074999D01*
X64426720Y-66087574D01*
X64356851Y-66087572D01*
X64298074Y-66049797D01*
X64269050Y-65986241D01*
X64264693Y-65955938D01*
X64264693Y-65955937D01*
X64263431Y-65947158D01*
X64206630Y-65822782D01*
X64174379Y-65785562D01*
X64122895Y-65726145D01*
X64122893Y-65726143D01*
X64117089Y-65719445D01*
X64109635Y-65714654D01*
X64109632Y-65714652D01*
X64009520Y-65650315D01*
X64009517Y-65650313D01*
X64002061Y-65645522D01*
X63993555Y-65643024D01*
X63993552Y-65643023D01*
X63914839Y-65619911D01*
X63870867Y-65607000D01*
X63734133Y-65607000D01*
X63725622Y-65609498D01*
X63725622Y-65609499D01*
X63611447Y-65643023D01*
X63611441Y-65643025D01*
X63602939Y-65645522D01*
X63595485Y-65650312D01*
X63595479Y-65650315D01*
X63495367Y-65714652D01*
X63495360Y-65714657D01*
X63487911Y-65719445D01*
X63482109Y-65726139D01*
X63482104Y-65726145D01*
X63404178Y-65816078D01*
X63404175Y-65816082D01*
X63398370Y-65822782D01*
X63394688Y-65830844D01*
X63394685Y-65830849D01*
X63345254Y-65939088D01*
X63341569Y-65947158D01*
X63340307Y-65955931D01*
X63340306Y-65955937D01*
X63335703Y-65987955D01*
X63306678Y-66051510D01*
X63247900Y-66089284D01*
X63178031Y-66089284D01*
X63129380Y-66074999D01*
X63129375Y-66074998D01*
X63120867Y-66072500D01*
X62984133Y-66072500D01*
X62975627Y-66074997D01*
X62975624Y-66074998D01*
X62926967Y-66089285D01*
X62857098Y-66089284D01*
X62798320Y-66051508D01*
X62769296Y-65987952D01*
X62764693Y-65955938D01*
X62764693Y-65955937D01*
X62763431Y-65947158D01*
X62706630Y-65822782D01*
X62674379Y-65785562D01*
X62622895Y-65726145D01*
X62622893Y-65726143D01*
X62617089Y-65719445D01*
X62609635Y-65714654D01*
X62609632Y-65714652D01*
X62509520Y-65650315D01*
X62509517Y-65650313D01*
X62502061Y-65645522D01*
X62493555Y-65643024D01*
X62493552Y-65643023D01*
X62414839Y-65619911D01*
X62370867Y-65607000D01*
X62234133Y-65607000D01*
X62225622Y-65609498D01*
X62225622Y-65609499D01*
X62111447Y-65643023D01*
X62111441Y-65643025D01*
X62102939Y-65645522D01*
X62095485Y-65650312D01*
X62095479Y-65650315D01*
X61995367Y-65714652D01*
X61995360Y-65714657D01*
X61987911Y-65719445D01*
X61982109Y-65726139D01*
X61982104Y-65726145D01*
X61904178Y-65816078D01*
X61904175Y-65816082D01*
X61898370Y-65822782D01*
X61894688Y-65830844D01*
X61894685Y-65830849D01*
X61845254Y-65939088D01*
X61841569Y-65947158D01*
X61840307Y-65955931D01*
X61840306Y-65955937D01*
X61835602Y-65988659D01*
X61806577Y-66052215D01*
X61747799Y-66089989D01*
X61677929Y-66089989D01*
X61618367Y-66072500D01*
X61481633Y-66072500D01*
X61473122Y-66074998D01*
X61473122Y-66074999D01*
X61358947Y-66108523D01*
X61358941Y-66108525D01*
X61350439Y-66111022D01*
X61342985Y-66115812D01*
X61342979Y-66115815D01*
X61242867Y-66180152D01*
X61242860Y-66180157D01*
X61235411Y-66184945D01*
X61229609Y-66191639D01*
X61229604Y-66191645D01*
X61151678Y-66281578D01*
X61151675Y-66281582D01*
X61145870Y-66288282D01*
X61142188Y-66296344D01*
X61142185Y-66296349D01*
X61095260Y-66399101D01*
X61089069Y-66412658D01*
X61087807Y-66421431D01*
X61087806Y-66421437D01*
X61076274Y-66501650D01*
X61069610Y-66548000D01*
X45175332Y-66548000D01*
X45175332Y-64700000D01*
X73619610Y-64700000D01*
X73620872Y-64708778D01*
X73637806Y-64826562D01*
X73637807Y-64826566D01*
X73639069Y-64835342D01*
X73642753Y-64843410D01*
X73642754Y-64843411D01*
X73664800Y-64891686D01*
X73695870Y-64959718D01*
X73701677Y-64966420D01*
X73701678Y-64966421D01*
X73779604Y-65056354D01*
X73779606Y-65056356D01*
X73785411Y-65063055D01*
X73792865Y-65067845D01*
X73792867Y-65067847D01*
X73865708Y-65114658D01*
X73900439Y-65136978D01*
X74031633Y-65175500D01*
X74159497Y-65175500D01*
X74168367Y-65175500D01*
X74299561Y-65136978D01*
X74414589Y-65063055D01*
X74504130Y-64959718D01*
X74560931Y-64835342D01*
X74580390Y-64700000D01*
X74560931Y-64564658D01*
X74504130Y-64440282D01*
X74414589Y-64336945D01*
X74407135Y-64332154D01*
X74407132Y-64332152D01*
X74307020Y-64267815D01*
X74307017Y-64267813D01*
X74299561Y-64263022D01*
X74291055Y-64260524D01*
X74291052Y-64260523D01*
X74212339Y-64237411D01*
X74168367Y-64224500D01*
X74031633Y-64224500D01*
X74023122Y-64226998D01*
X74023122Y-64226999D01*
X73908947Y-64260523D01*
X73908941Y-64260525D01*
X73900439Y-64263022D01*
X73892985Y-64267812D01*
X73892979Y-64267815D01*
X73792867Y-64332152D01*
X73792860Y-64332157D01*
X73785411Y-64336945D01*
X73779609Y-64343639D01*
X73779604Y-64343645D01*
X73701678Y-64433578D01*
X73701675Y-64433582D01*
X73695870Y-64440282D01*
X73692188Y-64448344D01*
X73692185Y-64448349D01*
X73642754Y-64556588D01*
X73639069Y-64564658D01*
X73637807Y-64573431D01*
X73637806Y-64573437D01*
X73620872Y-64691222D01*
X73619610Y-64700000D01*
X45175332Y-64700000D01*
X45175332Y-63246000D01*
X64797610Y-63246000D01*
X64798872Y-63254778D01*
X64815806Y-63372562D01*
X64815807Y-63372566D01*
X64817069Y-63381342D01*
X64820753Y-63389410D01*
X64820754Y-63389411D01*
X64867249Y-63491222D01*
X64873870Y-63505718D01*
X64879677Y-63512420D01*
X64879678Y-63512421D01*
X64957604Y-63602354D01*
X64957606Y-63602356D01*
X64963411Y-63609055D01*
X64970865Y-63613845D01*
X64970867Y-63613847D01*
X65070979Y-63678184D01*
X65078439Y-63682978D01*
X65209633Y-63721500D01*
X65337497Y-63721500D01*
X65346367Y-63721500D01*
X65477561Y-63682978D01*
X65592589Y-63609055D01*
X65682130Y-63505718D01*
X65738931Y-63381342D01*
X65758390Y-63246000D01*
X65738931Y-63110658D01*
X65682130Y-62986282D01*
X65641573Y-62939476D01*
X65598395Y-62889645D01*
X65598393Y-62889643D01*
X65592589Y-62882945D01*
X65585135Y-62878154D01*
X65585132Y-62878152D01*
X65485020Y-62813815D01*
X65485017Y-62813813D01*
X65477561Y-62809022D01*
X65469055Y-62806524D01*
X65469052Y-62806523D01*
X65390339Y-62783411D01*
X65346367Y-62770500D01*
X65209633Y-62770500D01*
X65201122Y-62772998D01*
X65201122Y-62772999D01*
X65086947Y-62806523D01*
X65086941Y-62806525D01*
X65078439Y-62809022D01*
X65070985Y-62813812D01*
X65070979Y-62813815D01*
X64970867Y-62878152D01*
X64970860Y-62878157D01*
X64963411Y-62882945D01*
X64957609Y-62889639D01*
X64957604Y-62889645D01*
X64879678Y-62979578D01*
X64879675Y-62979582D01*
X64873870Y-62986282D01*
X64870188Y-62994344D01*
X64870185Y-62994349D01*
X64833125Y-63075500D01*
X64817069Y-63110658D01*
X64815807Y-63119431D01*
X64815806Y-63119437D01*
X64812326Y-63143645D01*
X64797610Y-63246000D01*
X45175332Y-63246000D01*
X45175332Y-62600000D01*
X56319610Y-62600000D01*
X56320872Y-62608778D01*
X56337806Y-62726562D01*
X56337807Y-62726566D01*
X56339069Y-62735342D01*
X56342753Y-62743410D01*
X56342754Y-62743411D01*
X56374906Y-62813815D01*
X56395870Y-62859718D01*
X56401677Y-62866420D01*
X56401678Y-62866421D01*
X56479604Y-62956354D01*
X56479606Y-62956356D01*
X56485411Y-62963055D01*
X56492865Y-62967845D01*
X56492867Y-62967847D01*
X56592979Y-63032184D01*
X56600439Y-63036978D01*
X56731633Y-63075500D01*
X56859497Y-63075500D01*
X56868367Y-63075500D01*
X56999561Y-63036978D01*
X57114589Y-62963055D01*
X57204130Y-62859718D01*
X57260931Y-62735342D01*
X57280390Y-62600000D01*
X57260931Y-62464658D01*
X57225194Y-62386405D01*
X57939610Y-62386405D01*
X57940872Y-62395183D01*
X57957806Y-62512967D01*
X57957807Y-62512971D01*
X57959069Y-62521747D01*
X57962753Y-62529815D01*
X57962754Y-62529816D01*
X58011084Y-62635645D01*
X58015870Y-62646123D01*
X58021677Y-62652825D01*
X58021678Y-62652826D01*
X58099604Y-62742759D01*
X58099606Y-62742761D01*
X58105411Y-62749460D01*
X58112865Y-62754250D01*
X58112867Y-62754252D01*
X58212979Y-62818589D01*
X58220439Y-62823383D01*
X58351633Y-62861905D01*
X58479497Y-62861905D01*
X58488367Y-62861905D01*
X58619561Y-62823383D01*
X58734589Y-62749460D01*
X58824130Y-62646123D01*
X58880931Y-62521747D01*
X58900390Y-62386405D01*
X58880931Y-62251063D01*
X58824130Y-62126687D01*
X58796377Y-62094658D01*
X58740395Y-62030050D01*
X58740393Y-62030048D01*
X58734589Y-62023350D01*
X58727135Y-62018559D01*
X58727132Y-62018557D01*
X58627020Y-61954220D01*
X58627017Y-61954218D01*
X58619561Y-61949427D01*
X58611055Y-61946929D01*
X58611052Y-61946928D01*
X58532339Y-61923816D01*
X58488367Y-61910905D01*
X58351633Y-61910905D01*
X58343122Y-61913403D01*
X58343122Y-61913404D01*
X58228947Y-61946928D01*
X58228941Y-61946930D01*
X58220439Y-61949427D01*
X58212985Y-61954217D01*
X58212979Y-61954220D01*
X58112867Y-62018557D01*
X58112860Y-62018562D01*
X58105411Y-62023350D01*
X58099609Y-62030044D01*
X58099604Y-62030050D01*
X58021678Y-62119983D01*
X58021675Y-62119987D01*
X58015870Y-62126687D01*
X58012188Y-62134749D01*
X58012185Y-62134754D01*
X57962754Y-62242993D01*
X57959069Y-62251063D01*
X57957807Y-62259836D01*
X57957806Y-62259842D01*
X57943901Y-62356560D01*
X57939610Y-62386405D01*
X57225194Y-62386405D01*
X57204130Y-62340282D01*
X57195654Y-62330500D01*
X57120395Y-62243645D01*
X57120393Y-62243643D01*
X57114589Y-62236945D01*
X57107135Y-62232154D01*
X57107132Y-62232152D01*
X57007020Y-62167815D01*
X57007017Y-62167813D01*
X56999561Y-62163022D01*
X56991055Y-62160524D01*
X56991052Y-62160523D01*
X56894427Y-62132152D01*
X56868367Y-62124500D01*
X56731633Y-62124500D01*
X56723122Y-62126998D01*
X56723122Y-62126999D01*
X56608947Y-62160523D01*
X56608941Y-62160525D01*
X56600439Y-62163022D01*
X56592985Y-62167812D01*
X56592979Y-62167815D01*
X56492867Y-62232152D01*
X56492860Y-62232157D01*
X56485411Y-62236945D01*
X56479609Y-62243639D01*
X56479604Y-62243645D01*
X56401678Y-62333578D01*
X56401675Y-62333582D01*
X56395870Y-62340282D01*
X56392188Y-62348344D01*
X56392185Y-62348349D01*
X56370797Y-62395183D01*
X56339069Y-62464658D01*
X56337807Y-62473431D01*
X56337806Y-62473437D01*
X56321572Y-62586354D01*
X56319610Y-62600000D01*
X45175332Y-62600000D01*
X45175332Y-60800000D01*
X57219610Y-60800000D01*
X57220872Y-60808778D01*
X57237806Y-60926562D01*
X57237807Y-60926566D01*
X57239069Y-60935342D01*
X57242753Y-60943410D01*
X57242754Y-60943411D01*
X57284953Y-61035815D01*
X57295870Y-61059718D01*
X57301677Y-61066420D01*
X57301678Y-61066421D01*
X57379604Y-61156354D01*
X57379606Y-61156356D01*
X57385411Y-61163055D01*
X57392865Y-61167845D01*
X57392867Y-61167847D01*
X57464684Y-61214000D01*
X57500439Y-61236978D01*
X57631633Y-61275500D01*
X57759497Y-61275500D01*
X57768367Y-61275500D01*
X57899561Y-61236978D01*
X57935316Y-61214000D01*
X64797610Y-61214000D01*
X64798872Y-61222778D01*
X64815806Y-61340562D01*
X64815807Y-61340566D01*
X64817069Y-61349342D01*
X64820753Y-61357410D01*
X64820754Y-61357411D01*
X64867249Y-61459222D01*
X64873870Y-61473718D01*
X64879677Y-61480420D01*
X64879678Y-61480421D01*
X64957604Y-61570354D01*
X64957606Y-61570356D01*
X64963411Y-61577055D01*
X64970865Y-61581845D01*
X64970867Y-61581847D01*
X65070979Y-61646184D01*
X65078439Y-61650978D01*
X65209633Y-61689500D01*
X65337497Y-61689500D01*
X65346367Y-61689500D01*
X65477561Y-61650978D01*
X65592589Y-61577055D01*
X65593326Y-61578202D01*
X65633790Y-61557030D01*
X65690818Y-61556007D01*
X65742272Y-61580621D01*
X65777262Y-61625662D01*
X65788824Y-61650978D01*
X65805274Y-61687000D01*
X65823870Y-61727718D01*
X65829677Y-61734420D01*
X65829678Y-61734421D01*
X65907604Y-61824354D01*
X65907606Y-61824356D01*
X65913411Y-61831055D01*
X65920865Y-61835845D01*
X65920867Y-61835847D01*
X65969258Y-61866945D01*
X66022080Y-61900891D01*
X66063873Y-61945779D01*
X66079041Y-62005206D01*
X66063874Y-62064633D01*
X66022081Y-62109522D01*
X65986870Y-62132150D01*
X65986863Y-62132155D01*
X65979411Y-62136945D01*
X65973609Y-62143639D01*
X65973604Y-62143645D01*
X65895678Y-62233578D01*
X65895675Y-62233582D01*
X65889870Y-62240282D01*
X65886188Y-62248344D01*
X65886185Y-62248349D01*
X65844201Y-62340282D01*
X65833069Y-62364658D01*
X65831807Y-62373431D01*
X65831806Y-62373437D01*
X65819338Y-62460158D01*
X65813610Y-62500000D01*
X65814872Y-62508778D01*
X65831806Y-62626562D01*
X65831807Y-62626566D01*
X65833069Y-62635342D01*
X65836753Y-62643410D01*
X65836754Y-62643411D01*
X65882422Y-62743411D01*
X65889870Y-62759718D01*
X65895675Y-62766417D01*
X65895678Y-62766421D01*
X65973604Y-62856354D01*
X65973606Y-62856356D01*
X65979411Y-62863055D01*
X65986865Y-62867845D01*
X65986867Y-62867847D01*
X66020786Y-62889645D01*
X66094439Y-62936978D01*
X66158221Y-62955706D01*
X66210967Y-62987001D01*
X66242263Y-63039748D01*
X66244452Y-63101040D01*
X66217000Y-63155883D01*
X66143870Y-63240282D01*
X66140188Y-63248344D01*
X66140185Y-63248349D01*
X66090754Y-63356588D01*
X66087069Y-63364658D01*
X66085807Y-63373431D01*
X66085806Y-63373437D01*
X66077821Y-63428978D01*
X66067610Y-63500000D01*
X66068872Y-63508778D01*
X66085806Y-63626562D01*
X66085807Y-63626566D01*
X66087069Y-63635342D01*
X66090753Y-63643410D01*
X66090754Y-63643411D01*
X66125274Y-63719000D01*
X66143870Y-63759718D01*
X66149677Y-63766420D01*
X66149678Y-63766421D01*
X66227604Y-63856354D01*
X66227606Y-63856356D01*
X66233411Y-63863055D01*
X66240865Y-63867845D01*
X66240867Y-63867847D01*
X66340979Y-63932184D01*
X66348439Y-63936978D01*
X66479633Y-63975500D01*
X66607497Y-63975500D01*
X66616367Y-63975500D01*
X66747561Y-63936978D01*
X66862589Y-63863055D01*
X66952130Y-63759718D01*
X66979402Y-63700000D01*
X74319610Y-63700000D01*
X74320872Y-63708778D01*
X74337806Y-63826562D01*
X74337807Y-63826566D01*
X74339069Y-63835342D01*
X74342753Y-63843410D01*
X74342754Y-63843411D01*
X74386625Y-63939476D01*
X74395870Y-63959718D01*
X74401677Y-63966420D01*
X74401678Y-63966421D01*
X74479604Y-64056354D01*
X74479606Y-64056356D01*
X74485411Y-64063055D01*
X74492865Y-64067845D01*
X74492867Y-64067847D01*
X74592979Y-64132184D01*
X74600439Y-64136978D01*
X74731633Y-64175500D01*
X74859497Y-64175500D01*
X74868367Y-64175500D01*
X74999561Y-64136978D01*
X75114589Y-64063055D01*
X75204130Y-63959718D01*
X75260931Y-63835342D01*
X75280390Y-63700000D01*
X75260931Y-63564658D01*
X75204130Y-63440282D01*
X75145451Y-63372562D01*
X75120395Y-63343645D01*
X75120393Y-63343643D01*
X75114589Y-63336945D01*
X75107135Y-63332154D01*
X75107132Y-63332152D01*
X75007020Y-63267815D01*
X75007017Y-63267813D01*
X74999561Y-63263022D01*
X74991055Y-63260524D01*
X74991052Y-63260523D01*
X74899284Y-63233578D01*
X74868367Y-63224500D01*
X74731633Y-63224500D01*
X74723122Y-63226998D01*
X74723122Y-63226999D01*
X74608947Y-63260523D01*
X74608941Y-63260525D01*
X74600439Y-63263022D01*
X74592985Y-63267812D01*
X74592979Y-63267815D01*
X74492867Y-63332152D01*
X74492860Y-63332157D01*
X74485411Y-63336945D01*
X74479609Y-63343639D01*
X74479604Y-63343645D01*
X74401678Y-63433578D01*
X74401675Y-63433582D01*
X74395870Y-63440282D01*
X74392188Y-63448344D01*
X74392185Y-63448349D01*
X74342754Y-63556588D01*
X74339069Y-63564658D01*
X74337807Y-63573431D01*
X74337806Y-63573437D01*
X74322057Y-63682978D01*
X74319610Y-63700000D01*
X66979402Y-63700000D01*
X67008931Y-63635342D01*
X67028390Y-63500000D01*
X67008931Y-63364658D01*
X66952130Y-63240282D01*
X66938455Y-63224500D01*
X66868395Y-63143645D01*
X66868393Y-63143643D01*
X66862589Y-63136945D01*
X66855135Y-63132154D01*
X66855132Y-63132152D01*
X66755020Y-63067815D01*
X66755017Y-63067813D01*
X66747561Y-63063022D01*
X66720641Y-63055117D01*
X66683777Y-63044293D01*
X66631031Y-63012997D01*
X66599736Y-62960250D01*
X66597547Y-62898957D01*
X66624997Y-62844118D01*
X66698130Y-62759718D01*
X66754931Y-62635342D01*
X66774390Y-62500000D01*
X66754931Y-62364658D01*
X66698130Y-62240282D01*
X66689221Y-62230000D01*
X72671610Y-62230000D01*
X72672872Y-62238778D01*
X72689806Y-62356562D01*
X72689807Y-62356566D01*
X72691069Y-62365342D01*
X72694753Y-62373410D01*
X72694754Y-62373411D01*
X72740434Y-62473437D01*
X72747870Y-62489718D01*
X72753677Y-62496420D01*
X72753678Y-62496421D01*
X72831604Y-62586354D01*
X72831606Y-62586356D01*
X72837411Y-62593055D01*
X72844865Y-62597845D01*
X72844867Y-62597847D01*
X72944979Y-62662184D01*
X72952439Y-62666978D01*
X73083633Y-62705500D01*
X73092505Y-62705500D01*
X73096950Y-62706139D01*
X73160505Y-62735161D01*
X73198282Y-62793937D01*
X73198284Y-62856545D01*
X73199069Y-62856658D01*
X73198284Y-62862111D01*
X73198284Y-62862117D01*
X73197808Y-62865426D01*
X73197807Y-62865431D01*
X73181982Y-62975500D01*
X73179610Y-62992000D01*
X73180872Y-63000778D01*
X73197806Y-63118562D01*
X73197807Y-63118566D01*
X73199069Y-63127342D01*
X73202753Y-63135410D01*
X73202754Y-63135411D01*
X73249249Y-63237222D01*
X73255870Y-63251718D01*
X73261677Y-63258420D01*
X73261678Y-63258421D01*
X73339604Y-63348354D01*
X73339606Y-63348356D01*
X73345411Y-63355055D01*
X73352865Y-63359845D01*
X73352867Y-63359847D01*
X73452979Y-63424184D01*
X73460439Y-63428978D01*
X73591633Y-63467500D01*
X73719497Y-63467500D01*
X73728367Y-63467500D01*
X73859561Y-63428978D01*
X73974589Y-63355055D01*
X74064130Y-63251718D01*
X74120931Y-63127342D01*
X74140390Y-62992000D01*
X74120931Y-62856658D01*
X74064130Y-62732282D01*
X74038758Y-62703001D01*
X73980395Y-62635645D01*
X73980393Y-62635643D01*
X73974589Y-62628945D01*
X73967135Y-62624154D01*
X73967132Y-62624152D01*
X73867020Y-62559815D01*
X73867017Y-62559813D01*
X73859561Y-62555022D01*
X73851055Y-62552524D01*
X73851052Y-62552523D01*
X73772339Y-62529411D01*
X73728367Y-62516500D01*
X73719497Y-62516500D01*
X73715046Y-62515860D01*
X73665652Y-62497436D01*
X73628375Y-62460158D01*
X73609954Y-62410763D01*
X73613202Y-62365381D01*
X73612931Y-62365342D01*
X73613477Y-62361542D01*
X73632390Y-62230000D01*
X73612931Y-62094658D01*
X73556130Y-61970282D01*
X73532924Y-61943500D01*
X73472395Y-61873645D01*
X73472393Y-61873643D01*
X73466589Y-61866945D01*
X73459135Y-61862154D01*
X73459132Y-61862152D01*
X73359020Y-61797815D01*
X73359017Y-61797813D01*
X73351561Y-61793022D01*
X73343055Y-61790524D01*
X73343052Y-61790523D01*
X73264339Y-61767411D01*
X73220367Y-61754500D01*
X73083633Y-61754500D01*
X73075122Y-61756998D01*
X73075122Y-61756999D01*
X72960947Y-61790523D01*
X72960941Y-61790525D01*
X72952439Y-61793022D01*
X72944985Y-61797812D01*
X72944979Y-61797815D01*
X72844867Y-61862152D01*
X72844860Y-61862157D01*
X72837411Y-61866945D01*
X72831609Y-61873639D01*
X72831604Y-61873645D01*
X72753678Y-61963578D01*
X72753675Y-61963582D01*
X72747870Y-61970282D01*
X72744188Y-61978344D01*
X72744185Y-61978349D01*
X72694754Y-62086588D01*
X72691069Y-62094658D01*
X72689807Y-62103431D01*
X72689806Y-62103437D01*
X72672872Y-62221222D01*
X72671610Y-62230000D01*
X66689221Y-62230000D01*
X66631185Y-62163022D01*
X66614395Y-62143645D01*
X66614393Y-62143643D01*
X66608589Y-62136945D01*
X66601135Y-62132154D01*
X66601132Y-62132152D01*
X66499919Y-62067108D01*
X66458126Y-62022219D01*
X66442958Y-61962791D01*
X66458127Y-61903363D01*
X66499919Y-61858476D01*
X66542589Y-61831055D01*
X66632130Y-61727718D01*
X66688931Y-61603342D01*
X66708390Y-61468000D01*
X66688931Y-61332658D01*
X66632130Y-61208282D01*
X66542589Y-61104945D01*
X66535135Y-61100154D01*
X66535132Y-61100152D01*
X66435020Y-61035815D01*
X66435017Y-61035813D01*
X66427561Y-61031022D01*
X66419055Y-61028524D01*
X66419052Y-61028523D01*
X66340339Y-61005411D01*
X66296367Y-60992500D01*
X66159633Y-60992500D01*
X66151122Y-60994998D01*
X66151122Y-60994999D01*
X66036947Y-61028523D01*
X66036941Y-61028525D01*
X66028439Y-61031022D01*
X66020985Y-61035812D01*
X66020979Y-61035815D01*
X65913411Y-61104945D01*
X65912674Y-61103799D01*
X65872189Y-61124974D01*
X65815167Y-61125989D01*
X65763722Y-61101374D01*
X65728738Y-61056339D01*
X65682130Y-60954282D01*
X65658111Y-60926562D01*
X65598395Y-60857645D01*
X65598393Y-60857643D01*
X65592589Y-60850945D01*
X65585135Y-60846154D01*
X65585132Y-60846152D01*
X65485020Y-60781815D01*
X65485017Y-60781813D01*
X65477561Y-60777022D01*
X65469055Y-60774524D01*
X65469052Y-60774523D01*
X65390339Y-60751411D01*
X65346367Y-60738500D01*
X65209633Y-60738500D01*
X65201122Y-60740998D01*
X65201122Y-60740999D01*
X65086947Y-60774523D01*
X65086941Y-60774525D01*
X65078439Y-60777022D01*
X65070985Y-60781812D01*
X65070979Y-60781815D01*
X64970867Y-60846152D01*
X64970860Y-60846157D01*
X64963411Y-60850945D01*
X64957609Y-60857639D01*
X64957604Y-60857645D01*
X64879678Y-60947578D01*
X64879675Y-60947582D01*
X64873870Y-60954282D01*
X64870188Y-60962344D01*
X64870185Y-60962349D01*
X64822657Y-61066421D01*
X64817069Y-61078658D01*
X64815807Y-61087431D01*
X64815806Y-61087437D01*
X64799396Y-61201578D01*
X64797610Y-61214000D01*
X57935316Y-61214000D01*
X58014589Y-61163055D01*
X58104130Y-61059718D01*
X58160931Y-60935342D01*
X58180390Y-60800000D01*
X58160931Y-60664658D01*
X58104130Y-60540282D01*
X58069226Y-60500000D01*
X59119610Y-60500000D01*
X59120872Y-60508778D01*
X59137806Y-60626562D01*
X59137807Y-60626566D01*
X59139069Y-60635342D01*
X59142753Y-60643410D01*
X59142754Y-60643411D01*
X59156466Y-60673437D01*
X59195870Y-60759718D01*
X59201677Y-60766420D01*
X59201678Y-60766421D01*
X59279604Y-60856354D01*
X59279606Y-60856356D01*
X59285411Y-60863055D01*
X59292865Y-60867845D01*
X59292867Y-60867847D01*
X59384231Y-60926562D01*
X59400439Y-60936978D01*
X59531633Y-60975500D01*
X59659497Y-60975500D01*
X59668367Y-60975500D01*
X59799561Y-60936978D01*
X59914589Y-60863055D01*
X60004130Y-60759718D01*
X60060931Y-60635342D01*
X60080390Y-60500000D01*
X76519610Y-60500000D01*
X76520872Y-60508778D01*
X76537806Y-60626562D01*
X76537807Y-60626566D01*
X76539069Y-60635342D01*
X76542753Y-60643410D01*
X76542754Y-60643411D01*
X76556466Y-60673437D01*
X76595870Y-60759718D01*
X76601677Y-60766420D01*
X76601678Y-60766421D01*
X76679604Y-60856354D01*
X76679606Y-60856356D01*
X76685411Y-60863055D01*
X76692865Y-60867845D01*
X76692867Y-60867847D01*
X76784231Y-60926562D01*
X76800439Y-60936978D01*
X76931633Y-60975500D01*
X77059497Y-60975500D01*
X77068367Y-60975500D01*
X77199561Y-60936978D01*
X77314589Y-60863055D01*
X77404130Y-60759718D01*
X77460931Y-60635342D01*
X77480390Y-60500000D01*
X78019610Y-60500000D01*
X78020872Y-60508778D01*
X78037806Y-60626562D01*
X78037807Y-60626566D01*
X78039069Y-60635342D01*
X78042753Y-60643410D01*
X78042754Y-60643411D01*
X78056466Y-60673437D01*
X78095870Y-60759718D01*
X78101677Y-60766420D01*
X78101678Y-60766421D01*
X78179604Y-60856354D01*
X78179606Y-60856356D01*
X78185411Y-60863055D01*
X78192865Y-60867845D01*
X78192867Y-60867847D01*
X78284231Y-60926562D01*
X78300439Y-60936978D01*
X78431633Y-60975500D01*
X78559497Y-60975500D01*
X78568367Y-60975500D01*
X78699561Y-60936978D01*
X78814589Y-60863055D01*
X78904130Y-60759718D01*
X78960931Y-60635342D01*
X78980390Y-60500000D01*
X78960931Y-60364658D01*
X78904130Y-60240282D01*
X78814589Y-60136945D01*
X78807135Y-60132154D01*
X78807132Y-60132152D01*
X78707020Y-60067815D01*
X78707017Y-60067813D01*
X78699561Y-60063022D01*
X78691055Y-60060524D01*
X78691052Y-60060523D01*
X78594536Y-60032184D01*
X78568367Y-60024500D01*
X78431633Y-60024500D01*
X78423122Y-60026998D01*
X78423122Y-60026999D01*
X78308947Y-60060523D01*
X78308941Y-60060525D01*
X78300439Y-60063022D01*
X78292985Y-60067812D01*
X78292979Y-60067815D01*
X78192867Y-60132152D01*
X78192860Y-60132157D01*
X78185411Y-60136945D01*
X78179609Y-60143639D01*
X78179604Y-60143645D01*
X78101678Y-60233578D01*
X78101675Y-60233582D01*
X78095870Y-60240282D01*
X78092188Y-60248344D01*
X78092185Y-60248349D01*
X78056267Y-60326999D01*
X78039069Y-60364658D01*
X78037807Y-60373431D01*
X78037806Y-60373437D01*
X78020872Y-60491222D01*
X78019610Y-60500000D01*
X77480390Y-60500000D01*
X77460931Y-60364658D01*
X77404130Y-60240282D01*
X77314589Y-60136945D01*
X77307135Y-60132154D01*
X77307132Y-60132152D01*
X77207020Y-60067815D01*
X77207017Y-60067813D01*
X77199561Y-60063022D01*
X77191055Y-60060524D01*
X77191052Y-60060523D01*
X77094536Y-60032184D01*
X77068367Y-60024500D01*
X76931633Y-60024500D01*
X76923122Y-60026998D01*
X76923122Y-60026999D01*
X76808947Y-60060523D01*
X76808941Y-60060525D01*
X76800439Y-60063022D01*
X76792985Y-60067812D01*
X76792979Y-60067815D01*
X76692867Y-60132152D01*
X76692860Y-60132157D01*
X76685411Y-60136945D01*
X76679609Y-60143639D01*
X76679604Y-60143645D01*
X76601678Y-60233578D01*
X76601675Y-60233582D01*
X76595870Y-60240282D01*
X76592188Y-60248344D01*
X76592185Y-60248349D01*
X76556267Y-60326999D01*
X76539069Y-60364658D01*
X76537807Y-60373431D01*
X76537806Y-60373437D01*
X76520872Y-60491222D01*
X76519610Y-60500000D01*
X60080390Y-60500000D01*
X60060931Y-60364658D01*
X60004130Y-60240282D01*
X59968038Y-60198629D01*
X59939015Y-60135075D01*
X59948959Y-60065917D01*
X59994714Y-60013113D01*
X60048003Y-59997466D01*
X60047604Y-59994691D01*
X60056379Y-59993429D01*
X60065251Y-59993429D01*
X60196445Y-59954907D01*
X60311473Y-59880984D01*
X60401014Y-59777647D01*
X60457815Y-59653271D01*
X60475189Y-59532426D01*
X60497607Y-59477191D01*
X60543211Y-59438799D01*
X60601461Y-59426124D01*
X60658893Y-59442097D01*
X60692387Y-59473725D01*
X60693911Y-59472405D01*
X60777645Y-59569041D01*
X60777647Y-59569043D01*
X60783452Y-59575742D01*
X60790906Y-59580532D01*
X60790908Y-59580534D01*
X60890427Y-59644490D01*
X60898480Y-59649665D01*
X61029674Y-59688187D01*
X61157538Y-59688187D01*
X61166408Y-59688187D01*
X61297602Y-59649665D01*
X61374883Y-59600000D01*
X64419610Y-59600000D01*
X64420872Y-59608778D01*
X64437806Y-59726562D01*
X64437807Y-59726566D01*
X64439069Y-59735342D01*
X64442753Y-59743410D01*
X64442754Y-59743411D01*
X64477410Y-59819298D01*
X64495870Y-59859718D01*
X64501677Y-59866420D01*
X64501678Y-59866421D01*
X64579604Y-59956354D01*
X64579606Y-59956356D01*
X64585411Y-59963055D01*
X64592865Y-59967845D01*
X64592867Y-59967847D01*
X64684911Y-60026999D01*
X64700439Y-60036978D01*
X64831633Y-60075500D01*
X64959497Y-60075500D01*
X64968367Y-60075500D01*
X65099561Y-60036978D01*
X65214589Y-59963055D01*
X65304130Y-59859718D01*
X65360931Y-59735342D01*
X65380390Y-59600000D01*
X65376867Y-59575500D01*
X65367328Y-59509151D01*
X65360931Y-59464658D01*
X65304130Y-59340282D01*
X65295654Y-59330500D01*
X65220395Y-59243645D01*
X65220393Y-59243643D01*
X65214589Y-59236945D01*
X65207135Y-59232154D01*
X65207132Y-59232152D01*
X65107020Y-59167815D01*
X65107017Y-59167813D01*
X65099561Y-59163022D01*
X65091055Y-59160524D01*
X65091052Y-59160523D01*
X65012339Y-59137411D01*
X64968367Y-59124500D01*
X64831633Y-59124500D01*
X64823122Y-59126998D01*
X64823122Y-59126999D01*
X64708947Y-59160523D01*
X64708941Y-59160525D01*
X64700439Y-59163022D01*
X64692985Y-59167812D01*
X64692979Y-59167815D01*
X64592867Y-59232152D01*
X64592860Y-59232157D01*
X64585411Y-59236945D01*
X64579609Y-59243639D01*
X64579604Y-59243645D01*
X64501678Y-59333578D01*
X64501675Y-59333582D01*
X64495870Y-59340282D01*
X64492188Y-59348344D01*
X64492185Y-59348349D01*
X64450878Y-59438799D01*
X64439069Y-59464658D01*
X64437807Y-59473431D01*
X64437806Y-59473437D01*
X64423098Y-59575742D01*
X64419610Y-59600000D01*
X61374883Y-59600000D01*
X61412630Y-59575742D01*
X61502171Y-59472405D01*
X61558972Y-59348029D01*
X61578431Y-59212687D01*
X61558972Y-59077345D01*
X61502171Y-58952969D01*
X61456274Y-58900000D01*
X61819610Y-58900000D01*
X61820872Y-58908778D01*
X61837806Y-59026562D01*
X61837807Y-59026566D01*
X61839069Y-59035342D01*
X61842753Y-59043410D01*
X61842754Y-59043411D01*
X61891468Y-59150081D01*
X61895870Y-59159718D01*
X61901677Y-59166420D01*
X61901678Y-59166421D01*
X61979604Y-59256354D01*
X61979606Y-59256356D01*
X61985411Y-59263055D01*
X61992865Y-59267845D01*
X61992867Y-59267847D01*
X62049886Y-59304490D01*
X62100439Y-59336978D01*
X62231633Y-59375500D01*
X62359497Y-59375500D01*
X62368367Y-59375500D01*
X62499561Y-59336978D01*
X62614589Y-59263055D01*
X62704130Y-59159718D01*
X62760931Y-59035342D01*
X62780390Y-58900000D01*
X62776984Y-58876310D01*
X62783538Y-58815330D01*
X62818517Y-58764949D01*
X62873362Y-58737495D01*
X62934654Y-58739683D01*
X63056633Y-58775500D01*
X63184497Y-58775500D01*
X63193367Y-58775500D01*
X63324561Y-58736978D01*
X63422558Y-58674000D01*
X66874610Y-58674000D01*
X66875872Y-58682778D01*
X66892806Y-58800562D01*
X66892807Y-58800566D01*
X66894069Y-58809342D01*
X66897753Y-58817410D01*
X66897754Y-58817411D01*
X66931462Y-58891222D01*
X66950870Y-58933718D01*
X66956677Y-58940420D01*
X66956678Y-58940421D01*
X67034604Y-59030354D01*
X67034606Y-59030356D01*
X67040411Y-59037055D01*
X67047865Y-59041845D01*
X67047867Y-59041847D01*
X67147979Y-59106184D01*
X67155439Y-59110978D01*
X67286633Y-59149500D01*
X67414497Y-59149500D01*
X67423367Y-59149500D01*
X67481187Y-59132522D01*
X67533764Y-59128762D01*
X67583159Y-59147186D01*
X67620435Y-59184465D01*
X67633192Y-59218674D01*
X67635308Y-59218053D01*
X67637806Y-59226562D01*
X67639069Y-59235342D01*
X67642753Y-59243410D01*
X67642754Y-59243411D01*
X67690677Y-59348349D01*
X67695870Y-59359718D01*
X67701677Y-59366420D01*
X67701678Y-59366421D01*
X67779604Y-59456354D01*
X67779606Y-59456356D01*
X67785411Y-59463055D01*
X67792865Y-59467845D01*
X67792867Y-59467847D01*
X67892979Y-59532184D01*
X67900439Y-59536978D01*
X68031633Y-59575500D01*
X68159497Y-59575500D01*
X68168367Y-59575500D01*
X68299561Y-59536978D01*
X68414589Y-59463055D01*
X68504130Y-59359718D01*
X68560931Y-59235342D01*
X68562193Y-59226560D01*
X68564692Y-59218053D01*
X68566517Y-59218589D01*
X68579761Y-59183066D01*
X68617036Y-59145782D01*
X68666433Y-59127355D01*
X68719019Y-59131114D01*
X68781633Y-59149500D01*
X68909497Y-59149500D01*
X68918367Y-59149500D01*
X68980980Y-59131114D01*
X69050842Y-59131113D01*
X69109618Y-59168879D01*
X69132464Y-59218887D01*
X69135308Y-59218053D01*
X69137806Y-59226562D01*
X69139069Y-59235342D01*
X69142753Y-59243410D01*
X69142754Y-59243411D01*
X69190677Y-59348349D01*
X69195870Y-59359718D01*
X69201677Y-59366420D01*
X69201678Y-59366421D01*
X69279604Y-59456354D01*
X69279606Y-59456356D01*
X69285411Y-59463055D01*
X69292865Y-59467845D01*
X69292867Y-59467847D01*
X69392979Y-59532184D01*
X69400439Y-59536978D01*
X69531633Y-59575500D01*
X69659497Y-59575500D01*
X69668367Y-59575500D01*
X69799561Y-59536978D01*
X69914589Y-59463055D01*
X70004130Y-59359718D01*
X70060931Y-59235342D01*
X70062193Y-59226560D01*
X70064692Y-59218053D01*
X70066051Y-59218452D01*
X70080088Y-59180807D01*
X70117364Y-59143526D01*
X70166759Y-59125101D01*
X70219342Y-59128860D01*
X70289633Y-59149500D01*
X70417497Y-59149500D01*
X70426367Y-59149500D01*
X70557561Y-59110978D01*
X70672589Y-59037055D01*
X70762130Y-58933718D01*
X70818931Y-58809342D01*
X70838390Y-58674000D01*
X70818931Y-58538658D01*
X70762130Y-58414282D01*
X70726738Y-58373437D01*
X70678395Y-58317645D01*
X70678393Y-58317643D01*
X70672589Y-58310945D01*
X70665135Y-58306154D01*
X70665132Y-58306152D01*
X70565020Y-58241815D01*
X70565017Y-58241813D01*
X70557561Y-58237022D01*
X70549055Y-58234524D01*
X70549052Y-58234523D01*
X70470339Y-58211411D01*
X70426367Y-58198500D01*
X70289633Y-58198500D01*
X70281122Y-58200998D01*
X70281122Y-58200999D01*
X70166947Y-58234523D01*
X70166941Y-58234525D01*
X70158439Y-58237022D01*
X70150985Y-58241812D01*
X70150979Y-58241815D01*
X70050867Y-58306152D01*
X70050860Y-58306157D01*
X70043411Y-58310945D01*
X70037609Y-58317639D01*
X70037604Y-58317645D01*
X69959678Y-58407578D01*
X69959675Y-58407582D01*
X69953870Y-58414282D01*
X69950188Y-58422344D01*
X69950185Y-58422349D01*
X69900754Y-58530588D01*
X69897069Y-58538658D01*
X69895806Y-58547436D01*
X69893308Y-58555947D01*
X69891085Y-58555294D01*
X69867298Y-58607370D01*
X69808521Y-58645139D01*
X69738656Y-58645138D01*
X69676880Y-58626999D01*
X69676875Y-58626998D01*
X69668367Y-58624500D01*
X69531633Y-58624500D01*
X69523127Y-58626997D01*
X69523124Y-58626998D01*
X69469018Y-58642885D01*
X69416433Y-58646644D01*
X69367038Y-58628218D01*
X69329763Y-58590936D01*
X69316517Y-58555410D01*
X69314692Y-58555947D01*
X69312193Y-58547437D01*
X69310931Y-58538658D01*
X69254130Y-58414282D01*
X69218738Y-58373437D01*
X69170395Y-58317645D01*
X69170393Y-58317643D01*
X69164589Y-58310945D01*
X69157135Y-58306154D01*
X69157132Y-58306152D01*
X69057020Y-58241815D01*
X69057017Y-58241813D01*
X69049561Y-58237022D01*
X69041055Y-58234524D01*
X69041052Y-58234523D01*
X68962339Y-58211411D01*
X68918367Y-58198500D01*
X68781633Y-58198500D01*
X68773122Y-58200998D01*
X68773122Y-58200999D01*
X68658947Y-58234523D01*
X68658941Y-58234525D01*
X68650439Y-58237022D01*
X68642985Y-58241812D01*
X68642979Y-58241815D01*
X68542867Y-58306152D01*
X68542860Y-58306157D01*
X68535411Y-58310945D01*
X68529609Y-58317639D01*
X68529604Y-58317645D01*
X68451678Y-58407578D01*
X68451675Y-58407582D01*
X68445870Y-58414282D01*
X68442188Y-58422344D01*
X68442185Y-58422349D01*
X68392754Y-58530588D01*
X68389069Y-58538658D01*
X68387806Y-58547436D01*
X68385308Y-58555947D01*
X68382465Y-58555112D01*
X68359616Y-58605123D01*
X68300841Y-58642886D01*
X68230980Y-58642884D01*
X68176880Y-58626999D01*
X68176875Y-58626998D01*
X68168367Y-58624500D01*
X68031633Y-58624500D01*
X68023125Y-58626998D01*
X68023119Y-58626999D01*
X67973816Y-58641476D01*
X67921215Y-58645234D01*
X67871810Y-58626793D01*
X67834535Y-58589490D01*
X67821813Y-58555324D01*
X67819692Y-58555947D01*
X67817193Y-58547437D01*
X67815931Y-58538658D01*
X67759130Y-58414282D01*
X67723738Y-58373437D01*
X67675395Y-58317645D01*
X67675393Y-58317643D01*
X67669589Y-58310945D01*
X67662135Y-58306154D01*
X67662132Y-58306152D01*
X67562020Y-58241815D01*
X67562017Y-58241813D01*
X67554561Y-58237022D01*
X67546055Y-58234524D01*
X67546052Y-58234523D01*
X67467339Y-58211411D01*
X67423367Y-58198500D01*
X67286633Y-58198500D01*
X67278122Y-58200998D01*
X67278122Y-58200999D01*
X67163947Y-58234523D01*
X67163941Y-58234525D01*
X67155439Y-58237022D01*
X67147985Y-58241812D01*
X67147979Y-58241815D01*
X67047867Y-58306152D01*
X67047860Y-58306157D01*
X67040411Y-58310945D01*
X67034609Y-58317639D01*
X67034604Y-58317645D01*
X66956678Y-58407578D01*
X66956675Y-58407582D01*
X66950870Y-58414282D01*
X66947188Y-58422344D01*
X66947185Y-58422349D01*
X66897754Y-58530588D01*
X66894069Y-58538658D01*
X66892807Y-58547431D01*
X66892806Y-58547437D01*
X66878746Y-58645234D01*
X66874610Y-58674000D01*
X63422558Y-58674000D01*
X63439589Y-58663055D01*
X63529130Y-58559718D01*
X63585931Y-58435342D01*
X63602723Y-58318544D01*
X63626193Y-58261882D01*
X63673949Y-58223398D01*
X63734306Y-58212508D01*
X63784572Y-58229237D01*
X63784910Y-58228499D01*
X63791780Y-58231636D01*
X63792500Y-58231876D01*
X63800439Y-58236978D01*
X63931633Y-58275500D01*
X64059497Y-58275500D01*
X64068367Y-58275500D01*
X64199561Y-58236978D01*
X64314589Y-58163055D01*
X64404130Y-58059718D01*
X64460931Y-57935342D01*
X64480390Y-57800000D01*
X64473201Y-57750000D01*
X75419610Y-57750000D01*
X75420872Y-57758778D01*
X75437806Y-57876562D01*
X75437807Y-57876566D01*
X75439069Y-57885342D01*
X75442753Y-57893410D01*
X75442754Y-57893411D01*
X75491431Y-58000000D01*
X75495870Y-58009718D01*
X75501677Y-58016420D01*
X75501678Y-58016421D01*
X75579604Y-58106354D01*
X75579606Y-58106356D01*
X75585411Y-58113055D01*
X75592865Y-58117845D01*
X75592867Y-58117847D01*
X75691971Y-58181536D01*
X75700439Y-58186978D01*
X75831633Y-58225500D01*
X75959497Y-58225500D01*
X75968367Y-58225500D01*
X76099561Y-58186978D01*
X76214589Y-58113055D01*
X76304130Y-58009718D01*
X76360931Y-57885342D01*
X76380390Y-57750000D01*
X76769610Y-57750000D01*
X76770872Y-57758778D01*
X76787806Y-57876562D01*
X76787807Y-57876566D01*
X76789069Y-57885342D01*
X76792753Y-57893410D01*
X76792754Y-57893411D01*
X76841431Y-58000000D01*
X76845870Y-58009718D01*
X76851677Y-58016420D01*
X76851678Y-58016421D01*
X76929604Y-58106354D01*
X76929606Y-58106356D01*
X76935411Y-58113055D01*
X76942865Y-58117845D01*
X76942867Y-58117847D01*
X77041971Y-58181536D01*
X77050439Y-58186978D01*
X77181633Y-58225500D01*
X77309497Y-58225500D01*
X77318367Y-58225500D01*
X77449561Y-58186978D01*
X77564589Y-58113055D01*
X77654130Y-58009718D01*
X77710931Y-57885342D01*
X77730390Y-57750000D01*
X77710931Y-57614658D01*
X77654130Y-57490282D01*
X77564589Y-57386945D01*
X77557135Y-57382154D01*
X77557132Y-57382152D01*
X77457020Y-57317815D01*
X77457017Y-57317813D01*
X77449561Y-57313022D01*
X77441055Y-57310524D01*
X77441052Y-57310523D01*
X77362339Y-57287411D01*
X77318367Y-57274500D01*
X77181633Y-57274500D01*
X77173122Y-57276998D01*
X77173122Y-57276999D01*
X77058947Y-57310523D01*
X77058941Y-57310525D01*
X77050439Y-57313022D01*
X77042985Y-57317812D01*
X77042979Y-57317815D01*
X76942867Y-57382152D01*
X76942860Y-57382157D01*
X76935411Y-57386945D01*
X76929609Y-57393639D01*
X76929604Y-57393645D01*
X76851678Y-57483578D01*
X76851675Y-57483582D01*
X76845870Y-57490282D01*
X76842188Y-57498344D01*
X76842185Y-57498349D01*
X76792754Y-57606588D01*
X76789069Y-57614658D01*
X76787807Y-57623431D01*
X76787806Y-57623437D01*
X76776997Y-57698619D01*
X76769610Y-57750000D01*
X76380390Y-57750000D01*
X76360931Y-57614658D01*
X76304130Y-57490282D01*
X76214589Y-57386945D01*
X76207135Y-57382154D01*
X76207132Y-57382152D01*
X76107020Y-57317815D01*
X76107017Y-57317813D01*
X76099561Y-57313022D01*
X76091055Y-57310524D01*
X76091052Y-57310523D01*
X76012339Y-57287411D01*
X75968367Y-57274500D01*
X75831633Y-57274500D01*
X75823122Y-57276998D01*
X75823122Y-57276999D01*
X75708947Y-57310523D01*
X75708941Y-57310525D01*
X75700439Y-57313022D01*
X75692985Y-57317812D01*
X75692979Y-57317815D01*
X75592867Y-57382152D01*
X75592860Y-57382157D01*
X75585411Y-57386945D01*
X75579609Y-57393639D01*
X75579604Y-57393645D01*
X75501678Y-57483578D01*
X75501675Y-57483582D01*
X75495870Y-57490282D01*
X75492188Y-57498344D01*
X75492185Y-57498349D01*
X75442754Y-57606588D01*
X75439069Y-57614658D01*
X75437807Y-57623431D01*
X75437806Y-57623437D01*
X75426997Y-57698619D01*
X75419610Y-57750000D01*
X64473201Y-57750000D01*
X64460931Y-57664658D01*
X64404130Y-57540282D01*
X64360805Y-57490282D01*
X64320395Y-57443645D01*
X64320393Y-57443643D01*
X64314589Y-57436945D01*
X64307135Y-57432154D01*
X64307132Y-57432152D01*
X64207020Y-57367815D01*
X64207017Y-57367813D01*
X64199561Y-57363022D01*
X64191055Y-57360524D01*
X64191052Y-57360523D01*
X64112339Y-57337411D01*
X64068367Y-57324500D01*
X63931633Y-57324500D01*
X63923122Y-57326998D01*
X63923122Y-57326999D01*
X63808947Y-57360523D01*
X63808941Y-57360525D01*
X63800439Y-57363022D01*
X63792985Y-57367812D01*
X63792979Y-57367815D01*
X63692867Y-57432152D01*
X63692860Y-57432157D01*
X63685411Y-57436945D01*
X63679609Y-57443639D01*
X63679604Y-57443645D01*
X63601678Y-57533578D01*
X63601675Y-57533582D01*
X63595870Y-57540282D01*
X63592188Y-57548344D01*
X63592185Y-57548349D01*
X63557894Y-57623437D01*
X63539069Y-57664658D01*
X63537807Y-57673431D01*
X63537806Y-57673437D01*
X63522276Y-57781454D01*
X63498806Y-57838117D01*
X63451052Y-57876600D01*
X63390696Y-57887491D01*
X63340427Y-57870762D01*
X63340090Y-57871501D01*
X63333219Y-57868363D01*
X63332503Y-57868125D01*
X63332025Y-57867818D01*
X63332020Y-57867816D01*
X63324561Y-57863022D01*
X63316055Y-57860524D01*
X63316052Y-57860523D01*
X63237339Y-57837411D01*
X63193367Y-57824500D01*
X63056633Y-57824500D01*
X63048122Y-57826998D01*
X63048122Y-57826999D01*
X62933947Y-57860523D01*
X62933941Y-57860525D01*
X62925439Y-57863022D01*
X62917985Y-57867812D01*
X62917979Y-57867815D01*
X62817867Y-57932152D01*
X62817860Y-57932157D01*
X62810411Y-57936945D01*
X62804609Y-57943639D01*
X62804604Y-57943645D01*
X62726678Y-58033578D01*
X62726675Y-58033582D01*
X62720870Y-58040282D01*
X62717188Y-58048344D01*
X62717185Y-58048349D01*
X62676725Y-58136945D01*
X62664069Y-58164658D01*
X62662807Y-58173431D01*
X62662806Y-58173437D01*
X62645872Y-58291222D01*
X62644610Y-58300000D01*
X62645872Y-58308778D01*
X62645872Y-58308779D01*
X62648016Y-58323692D01*
X62641459Y-58384672D01*
X62606480Y-58435051D01*
X62551636Y-58462504D01*
X62490344Y-58460315D01*
X62376879Y-58426999D01*
X62376876Y-58426998D01*
X62368367Y-58424500D01*
X62231633Y-58424500D01*
X62223122Y-58426998D01*
X62223122Y-58426999D01*
X62108947Y-58460523D01*
X62108941Y-58460525D01*
X62100439Y-58463022D01*
X62092985Y-58467812D01*
X62092979Y-58467815D01*
X61992867Y-58532152D01*
X61992860Y-58532157D01*
X61985411Y-58536945D01*
X61979609Y-58543639D01*
X61979604Y-58543645D01*
X61901678Y-58633578D01*
X61901675Y-58633582D01*
X61895870Y-58640282D01*
X61892188Y-58648344D01*
X61892185Y-58648349D01*
X61842754Y-58756588D01*
X61839069Y-58764658D01*
X61837807Y-58773431D01*
X61837806Y-58773437D01*
X61825888Y-58856332D01*
X61819610Y-58900000D01*
X61456274Y-58900000D01*
X61448666Y-58891220D01*
X61418436Y-58856332D01*
X61418434Y-58856330D01*
X61412630Y-58849632D01*
X61405176Y-58844841D01*
X61405173Y-58844839D01*
X61305061Y-58780502D01*
X61305058Y-58780500D01*
X61297602Y-58775709D01*
X61289096Y-58773211D01*
X61289093Y-58773210D01*
X61210380Y-58750098D01*
X61166408Y-58737187D01*
X61029674Y-58737187D01*
X61021163Y-58739685D01*
X61021163Y-58739686D01*
X60906988Y-58773210D01*
X60906982Y-58773212D01*
X60898480Y-58775709D01*
X60891026Y-58780499D01*
X60891020Y-58780502D01*
X60790908Y-58844839D01*
X60790901Y-58844844D01*
X60783452Y-58849632D01*
X60777650Y-58856326D01*
X60777645Y-58856332D01*
X60699719Y-58946265D01*
X60699716Y-58946269D01*
X60693911Y-58952969D01*
X60690229Y-58961031D01*
X60690226Y-58961036D01*
X60642275Y-59066035D01*
X60637110Y-59077345D01*
X60635848Y-59086118D01*
X60635847Y-59086124D01*
X60619735Y-59198188D01*
X60597315Y-59253426D01*
X60551709Y-59291818D01*
X60493458Y-59304490D01*
X60436024Y-59288515D01*
X60402538Y-59256890D01*
X60401014Y-59258211D01*
X60317279Y-59161574D01*
X60317277Y-59161572D01*
X60311473Y-59154874D01*
X60304019Y-59150083D01*
X60304016Y-59150081D01*
X60203904Y-59085744D01*
X60203901Y-59085742D01*
X60196445Y-59080951D01*
X60187939Y-59078453D01*
X60187936Y-59078452D01*
X60109223Y-59055340D01*
X60065251Y-59042429D01*
X59928517Y-59042429D01*
X59920006Y-59044927D01*
X59920006Y-59044928D01*
X59805831Y-59078452D01*
X59805825Y-59078454D01*
X59797323Y-59080951D01*
X59789869Y-59085741D01*
X59789863Y-59085744D01*
X59689751Y-59150081D01*
X59689744Y-59150086D01*
X59682295Y-59154874D01*
X59676493Y-59161568D01*
X59676488Y-59161574D01*
X59598562Y-59251507D01*
X59598559Y-59251511D01*
X59592754Y-59258211D01*
X59589072Y-59266273D01*
X59589069Y-59266278D01*
X59540331Y-59373000D01*
X59535953Y-59382587D01*
X59534691Y-59391360D01*
X59534690Y-59391366D01*
X59517756Y-59509151D01*
X59516494Y-59517929D01*
X59517756Y-59526707D01*
X59534690Y-59644491D01*
X59534691Y-59644495D01*
X59535953Y-59653271D01*
X59539637Y-59661339D01*
X59539638Y-59661340D01*
X59577118Y-59743411D01*
X59592754Y-59777647D01*
X59628845Y-59819299D01*
X59657869Y-59882854D01*
X59647925Y-59952012D01*
X59602170Y-60004816D01*
X59548880Y-60020462D01*
X59549280Y-60023238D01*
X59540503Y-60024500D01*
X59531633Y-60024500D01*
X59523122Y-60026998D01*
X59523122Y-60026999D01*
X59408947Y-60060523D01*
X59408941Y-60060525D01*
X59400439Y-60063022D01*
X59392985Y-60067812D01*
X59392979Y-60067815D01*
X59292867Y-60132152D01*
X59292860Y-60132157D01*
X59285411Y-60136945D01*
X59279609Y-60143639D01*
X59279604Y-60143645D01*
X59201678Y-60233578D01*
X59201675Y-60233582D01*
X59195870Y-60240282D01*
X59192188Y-60248344D01*
X59192185Y-60248349D01*
X59156267Y-60326999D01*
X59139069Y-60364658D01*
X59137807Y-60373431D01*
X59137806Y-60373437D01*
X59120872Y-60491222D01*
X59119610Y-60500000D01*
X58069226Y-60500000D01*
X58014589Y-60436945D01*
X58007135Y-60432154D01*
X58007132Y-60432152D01*
X57907020Y-60367815D01*
X57907017Y-60367813D01*
X57899561Y-60363022D01*
X57891055Y-60360524D01*
X57891052Y-60360523D01*
X57812339Y-60337411D01*
X57768367Y-60324500D01*
X57631633Y-60324500D01*
X57623122Y-60326998D01*
X57623122Y-60326999D01*
X57508947Y-60360523D01*
X57508941Y-60360525D01*
X57500439Y-60363022D01*
X57492985Y-60367812D01*
X57492979Y-60367815D01*
X57392867Y-60432152D01*
X57392860Y-60432157D01*
X57385411Y-60436945D01*
X57379609Y-60443639D01*
X57379604Y-60443645D01*
X57301678Y-60533578D01*
X57301675Y-60533582D01*
X57295870Y-60540282D01*
X57292188Y-60548344D01*
X57292185Y-60548349D01*
X57252457Y-60635342D01*
X57239069Y-60664658D01*
X57237807Y-60673431D01*
X57237806Y-60673437D01*
X57220872Y-60791222D01*
X57219610Y-60800000D01*
X45175332Y-60800000D01*
X45175332Y-58054974D01*
X54637610Y-58054974D01*
X54638872Y-58063752D01*
X54655806Y-58181536D01*
X54655807Y-58181540D01*
X54657069Y-58190316D01*
X54660753Y-58198384D01*
X54660754Y-58198385D01*
X54709969Y-58306152D01*
X54713870Y-58314692D01*
X54719677Y-58321394D01*
X54719678Y-58321395D01*
X54797604Y-58411328D01*
X54797606Y-58411330D01*
X54803411Y-58418029D01*
X54810865Y-58422819D01*
X54810867Y-58422821D01*
X54910979Y-58487158D01*
X54918439Y-58491952D01*
X55049633Y-58530474D01*
X55177497Y-58530474D01*
X55186367Y-58530474D01*
X55277061Y-58503844D01*
X55346927Y-58503844D01*
X55405705Y-58541617D01*
X55434731Y-58605172D01*
X55437806Y-58626563D01*
X55437807Y-58626568D01*
X55439069Y-58635342D01*
X55442753Y-58643410D01*
X55442754Y-58643411D01*
X55486721Y-58739686D01*
X55495870Y-58759718D01*
X55501677Y-58766420D01*
X55501678Y-58766421D01*
X55579604Y-58856354D01*
X55579606Y-58856356D01*
X55585411Y-58863055D01*
X55592865Y-58867845D01*
X55592867Y-58867847D01*
X55629237Y-58891220D01*
X55700439Y-58936978D01*
X55831633Y-58975500D01*
X55959497Y-58975500D01*
X55968367Y-58975500D01*
X56099561Y-58936978D01*
X56214589Y-58863055D01*
X56304130Y-58759718D01*
X56360931Y-58635342D01*
X56380390Y-58500000D01*
X56376867Y-58475500D01*
X56367102Y-58407578D01*
X56360931Y-58364658D01*
X56304130Y-58240282D01*
X56280064Y-58212508D01*
X56220395Y-58143645D01*
X56220393Y-58143643D01*
X56214589Y-58136945D01*
X56207135Y-58132154D01*
X56207132Y-58132152D01*
X56107020Y-58067815D01*
X56107017Y-58067813D01*
X56099561Y-58063022D01*
X56091055Y-58060524D01*
X56091052Y-58060523D01*
X55999284Y-58033578D01*
X55968367Y-58024500D01*
X55831633Y-58024500D01*
X55823125Y-58026998D01*
X55823119Y-58026999D01*
X55740940Y-58051129D01*
X55688358Y-58054890D01*
X55638966Y-58036467D01*
X55602500Y-58000000D01*
X60119610Y-58000000D01*
X60120872Y-58008778D01*
X60137806Y-58126562D01*
X60137807Y-58126566D01*
X60139069Y-58135342D01*
X60142753Y-58143410D01*
X60142754Y-58143411D01*
X60190677Y-58248349D01*
X60195870Y-58259718D01*
X60201677Y-58266420D01*
X60201678Y-58266421D01*
X60279604Y-58356354D01*
X60279606Y-58356356D01*
X60285411Y-58363055D01*
X60292865Y-58367845D01*
X60292867Y-58367847D01*
X60384911Y-58426999D01*
X60400439Y-58436978D01*
X60531633Y-58475500D01*
X60659497Y-58475500D01*
X60668367Y-58475500D01*
X60799561Y-58436978D01*
X60914589Y-58363055D01*
X61004130Y-58259718D01*
X61060931Y-58135342D01*
X61080390Y-58000000D01*
X61060931Y-57864658D01*
X61004130Y-57740282D01*
X60946209Y-57673437D01*
X60920395Y-57643645D01*
X60920393Y-57643643D01*
X60914589Y-57636945D01*
X60907135Y-57632154D01*
X60907132Y-57632152D01*
X60807020Y-57567815D01*
X60807017Y-57567813D01*
X60799561Y-57563022D01*
X60791055Y-57560524D01*
X60791052Y-57560523D01*
X60699284Y-57533578D01*
X60668367Y-57524500D01*
X60531633Y-57524500D01*
X60523122Y-57526998D01*
X60523122Y-57526999D01*
X60408947Y-57560523D01*
X60408941Y-57560525D01*
X60400439Y-57563022D01*
X60392985Y-57567812D01*
X60392979Y-57567815D01*
X60292867Y-57632152D01*
X60292860Y-57632157D01*
X60285411Y-57636945D01*
X60279609Y-57643639D01*
X60279604Y-57643645D01*
X60201678Y-57733578D01*
X60201675Y-57733582D01*
X60195870Y-57740282D01*
X60192188Y-57748344D01*
X60192185Y-57748349D01*
X60142754Y-57856588D01*
X60139069Y-57864658D01*
X60137807Y-57873431D01*
X60137806Y-57873437D01*
X60126828Y-57949798D01*
X60119610Y-58000000D01*
X55602500Y-58000000D01*
X55601690Y-57999190D01*
X55583268Y-57949798D01*
X55578931Y-57919632D01*
X55522130Y-57795256D01*
X55482916Y-57750000D01*
X55438395Y-57698619D01*
X55438393Y-57698617D01*
X55432589Y-57691919D01*
X55425135Y-57687128D01*
X55425132Y-57687126D01*
X55325020Y-57622789D01*
X55325017Y-57622787D01*
X55317561Y-57617996D01*
X55309055Y-57615498D01*
X55309052Y-57615497D01*
X55230339Y-57592385D01*
X55186367Y-57579474D01*
X55049633Y-57579474D01*
X55041122Y-57581972D01*
X55041122Y-57581973D01*
X54926947Y-57615497D01*
X54926941Y-57615499D01*
X54918439Y-57617996D01*
X54910985Y-57622786D01*
X54910979Y-57622789D01*
X54810867Y-57687126D01*
X54810860Y-57687131D01*
X54803411Y-57691919D01*
X54797609Y-57698613D01*
X54797604Y-57698619D01*
X54719678Y-57788552D01*
X54719675Y-57788556D01*
X54713870Y-57795256D01*
X54710188Y-57803318D01*
X54710185Y-57803323D01*
X54660754Y-57911562D01*
X54657069Y-57919632D01*
X54655807Y-57928405D01*
X54655806Y-57928411D01*
X54643153Y-58016421D01*
X54637610Y-58054974D01*
X45175332Y-58054974D01*
X45175332Y-57274000D01*
X45191945Y-57212000D01*
X45237332Y-57166613D01*
X45299332Y-57150000D01*
X55228674Y-57150000D01*
X55245000Y-57150000D01*
X55245000Y-56800000D01*
X77919610Y-56800000D01*
X77920872Y-56808778D01*
X77937806Y-56926562D01*
X77937807Y-56926566D01*
X77939069Y-56935342D01*
X77995870Y-57059718D01*
X78001675Y-57066417D01*
X78001678Y-57066421D01*
X78079604Y-57156354D01*
X78079606Y-57156356D01*
X78085411Y-57163055D01*
X78092865Y-57167845D01*
X78092867Y-57167847D01*
X78161572Y-57212000D01*
X78200439Y-57236978D01*
X78331633Y-57275500D01*
X78459497Y-57275500D01*
X78468367Y-57275500D01*
X78483798Y-57270968D01*
X78546817Y-57269165D01*
X78602578Y-57298584D01*
X78636666Y-57351620D01*
X78640268Y-57414564D01*
X78612453Y-57471143D01*
X78601678Y-57483578D01*
X78601675Y-57483582D01*
X78595870Y-57490282D01*
X78592188Y-57498344D01*
X78592185Y-57498349D01*
X78542754Y-57606588D01*
X78539069Y-57614658D01*
X78537807Y-57623431D01*
X78537806Y-57623437D01*
X78526997Y-57698619D01*
X78519610Y-57750000D01*
X78520872Y-57758778D01*
X78537806Y-57876562D01*
X78537807Y-57876566D01*
X78539069Y-57885342D01*
X78542753Y-57893410D01*
X78542754Y-57893411D01*
X78591431Y-58000000D01*
X78595870Y-58009718D01*
X78601677Y-58016420D01*
X78601678Y-58016421D01*
X78679604Y-58106354D01*
X78679606Y-58106356D01*
X78685411Y-58113055D01*
X78692865Y-58117845D01*
X78692867Y-58117847D01*
X78791971Y-58181536D01*
X78800439Y-58186978D01*
X78931633Y-58225500D01*
X79059497Y-58225500D01*
X79068367Y-58225500D01*
X79199561Y-58186978D01*
X79314589Y-58113055D01*
X79404130Y-58009718D01*
X79460931Y-57885342D01*
X79480390Y-57750000D01*
X79460931Y-57614658D01*
X79404130Y-57490282D01*
X79314589Y-57386945D01*
X79307135Y-57382154D01*
X79307132Y-57382152D01*
X79207020Y-57317815D01*
X79207017Y-57317813D01*
X79199561Y-57313022D01*
X79191055Y-57310524D01*
X79191052Y-57310523D01*
X79112339Y-57287411D01*
X79068367Y-57274500D01*
X78931633Y-57274500D01*
X78923123Y-57276998D01*
X78923121Y-57276999D01*
X78916194Y-57279033D01*
X78853174Y-57280832D01*
X78797414Y-57251409D01*
X78763330Y-57198371D01*
X78759732Y-57135428D01*
X78787548Y-57078854D01*
X78804130Y-57059718D01*
X78860931Y-56935342D01*
X78880390Y-56800000D01*
X79719610Y-56800000D01*
X79720872Y-56808778D01*
X79737806Y-56926562D01*
X79737807Y-56926566D01*
X79739069Y-56935342D01*
X79795870Y-57059718D01*
X79801675Y-57066417D01*
X79801678Y-57066421D01*
X79879604Y-57156354D01*
X79879606Y-57156356D01*
X79885411Y-57163055D01*
X79892865Y-57167845D01*
X79892867Y-57167847D01*
X79961572Y-57212000D01*
X80000439Y-57236978D01*
X80131633Y-57275500D01*
X80259497Y-57275500D01*
X80268367Y-57275500D01*
X80399561Y-57236978D01*
X80514589Y-57163055D01*
X80604130Y-57059718D01*
X80660931Y-56935342D01*
X80680390Y-56800000D01*
X80660931Y-56664658D01*
X80604130Y-56540282D01*
X80552935Y-56481199D01*
X80526145Y-56429234D01*
X80526145Y-56370766D01*
X80552935Y-56318800D01*
X80604130Y-56259718D01*
X80660931Y-56135342D01*
X80680390Y-56000000D01*
X80666372Y-55902500D01*
X87269610Y-55902500D01*
X87270872Y-55911278D01*
X87287806Y-56029062D01*
X87287807Y-56029066D01*
X87289069Y-56037842D01*
X87345870Y-56162218D01*
X87351677Y-56168920D01*
X87351678Y-56168921D01*
X87429604Y-56258854D01*
X87429606Y-56258856D01*
X87435411Y-56265555D01*
X87442865Y-56270345D01*
X87442867Y-56270347D01*
X87542979Y-56334684D01*
X87550439Y-56339478D01*
X87681633Y-56378000D01*
X87809497Y-56378000D01*
X87818367Y-56378000D01*
X87949561Y-56339478D01*
X88064589Y-56265555D01*
X88154130Y-56162218D01*
X88210931Y-56037842D01*
X88230390Y-55902500D01*
X88210931Y-55767158D01*
X88154130Y-55642782D01*
X88144919Y-55632152D01*
X88070395Y-55546145D01*
X88070393Y-55546143D01*
X88064589Y-55539445D01*
X88057135Y-55534654D01*
X88057132Y-55534652D01*
X87957020Y-55470315D01*
X87957017Y-55470313D01*
X87949561Y-55465522D01*
X87941055Y-55463024D01*
X87941052Y-55463023D01*
X87862339Y-55439911D01*
X87818367Y-55427000D01*
X87681633Y-55427000D01*
X87673122Y-55429498D01*
X87673122Y-55429499D01*
X87558947Y-55463023D01*
X87558941Y-55463025D01*
X87550439Y-55465522D01*
X87542985Y-55470312D01*
X87542979Y-55470315D01*
X87442867Y-55534652D01*
X87442860Y-55534657D01*
X87435411Y-55539445D01*
X87429609Y-55546139D01*
X87429604Y-55546145D01*
X87351678Y-55636078D01*
X87351675Y-55636082D01*
X87345870Y-55642782D01*
X87342188Y-55650844D01*
X87342185Y-55650849D01*
X87292754Y-55759088D01*
X87289069Y-55767158D01*
X87287807Y-55775931D01*
X87287806Y-55775937D01*
X87270872Y-55893722D01*
X87269610Y-55902500D01*
X80666372Y-55902500D01*
X80660931Y-55864658D01*
X80604130Y-55740282D01*
X80514589Y-55636945D01*
X80507135Y-55632154D01*
X80507132Y-55632152D01*
X80407020Y-55567815D01*
X80407017Y-55567813D01*
X80399561Y-55563022D01*
X80391055Y-55560524D01*
X80391052Y-55560523D01*
X80312339Y-55537411D01*
X80268367Y-55524500D01*
X80131633Y-55524500D01*
X80123122Y-55526998D01*
X80123122Y-55526999D01*
X80008947Y-55560523D01*
X80008941Y-55560525D01*
X80000439Y-55563022D01*
X79992985Y-55567812D01*
X79992979Y-55567815D01*
X79892867Y-55632152D01*
X79892860Y-55632157D01*
X79885411Y-55636945D01*
X79879609Y-55643639D01*
X79879604Y-55643645D01*
X79801678Y-55733578D01*
X79801675Y-55733582D01*
X79795870Y-55740282D01*
X79792188Y-55748344D01*
X79792185Y-55748349D01*
X79742754Y-55856588D01*
X79739069Y-55864658D01*
X79737807Y-55873431D01*
X79737806Y-55873437D01*
X79734890Y-55893722D01*
X79719610Y-56000000D01*
X79720872Y-56008778D01*
X79737806Y-56126562D01*
X79737807Y-56126566D01*
X79739069Y-56135342D01*
X79795870Y-56259718D01*
X79847062Y-56318797D01*
X79847063Y-56318798D01*
X79873854Y-56370766D01*
X79873854Y-56429234D01*
X79847063Y-56481200D01*
X79795870Y-56540282D01*
X79792188Y-56548344D01*
X79792185Y-56548349D01*
X79742754Y-56656588D01*
X79739069Y-56664658D01*
X79737807Y-56673431D01*
X79737806Y-56673437D01*
X79720872Y-56791222D01*
X79719610Y-56800000D01*
X78880390Y-56800000D01*
X78860931Y-56664658D01*
X78804130Y-56540282D01*
X78752935Y-56481199D01*
X78726145Y-56429234D01*
X78726145Y-56370766D01*
X78752935Y-56318800D01*
X78804130Y-56259718D01*
X78860931Y-56135342D01*
X78880390Y-56000000D01*
X78860931Y-55864658D01*
X78804130Y-55740282D01*
X78714589Y-55636945D01*
X78707135Y-55632154D01*
X78707132Y-55632152D01*
X78607020Y-55567815D01*
X78607017Y-55567813D01*
X78599561Y-55563022D01*
X78591055Y-55560524D01*
X78591052Y-55560523D01*
X78512339Y-55537411D01*
X78468367Y-55524500D01*
X78331633Y-55524500D01*
X78323122Y-55526998D01*
X78323122Y-55526999D01*
X78208947Y-55560523D01*
X78208941Y-55560525D01*
X78200439Y-55563022D01*
X78192985Y-55567812D01*
X78192979Y-55567815D01*
X78092867Y-55632152D01*
X78092860Y-55632157D01*
X78085411Y-55636945D01*
X78079609Y-55643639D01*
X78079604Y-55643645D01*
X78001678Y-55733578D01*
X78001675Y-55733582D01*
X77995870Y-55740282D01*
X77992188Y-55748344D01*
X77992185Y-55748349D01*
X77942754Y-55856588D01*
X77939069Y-55864658D01*
X77937807Y-55873431D01*
X77937806Y-55873437D01*
X77934890Y-55893722D01*
X77919610Y-56000000D01*
X77920872Y-56008778D01*
X77937806Y-56126562D01*
X77937807Y-56126566D01*
X77939069Y-56135342D01*
X77995870Y-56259718D01*
X78047062Y-56318797D01*
X78047063Y-56318798D01*
X78073854Y-56370766D01*
X78073854Y-56429234D01*
X78047063Y-56481200D01*
X77995870Y-56540282D01*
X77992188Y-56548344D01*
X77992185Y-56548349D01*
X77942754Y-56656588D01*
X77939069Y-56664658D01*
X77937807Y-56673431D01*
X77937806Y-56673437D01*
X77920872Y-56791222D01*
X77919610Y-56800000D01*
X55245000Y-56800000D01*
X55245000Y-52800000D01*
X80719610Y-52800000D01*
X80720872Y-52808778D01*
X80737806Y-52926562D01*
X80737807Y-52926566D01*
X80739069Y-52935342D01*
X80795870Y-53059718D01*
X80801677Y-53066420D01*
X80801678Y-53066421D01*
X80879604Y-53156354D01*
X80879606Y-53156356D01*
X80885411Y-53163055D01*
X80892865Y-53167845D01*
X80892867Y-53167847D01*
X80892872Y-53167850D01*
X81000439Y-53236978D01*
X81131633Y-53275500D01*
X81259497Y-53275500D01*
X81268367Y-53275500D01*
X81399561Y-53236978D01*
X81514589Y-53163055D01*
X81519517Y-53157366D01*
X81570765Y-53130947D01*
X81629235Y-53130947D01*
X81680482Y-53157366D01*
X81685411Y-53163055D01*
X81800439Y-53236978D01*
X81931633Y-53275500D01*
X82059497Y-53275500D01*
X82068367Y-53275500D01*
X82199561Y-53236978D01*
X82314589Y-53163055D01*
X82404130Y-53059718D01*
X82460931Y-52935342D01*
X82480390Y-52800000D01*
X82460931Y-52664658D01*
X82404130Y-52540282D01*
X82347997Y-52475500D01*
X82320395Y-52443645D01*
X82320393Y-52443643D01*
X82314589Y-52436945D01*
X82307135Y-52432154D01*
X82307132Y-52432152D01*
X82207020Y-52367815D01*
X82207017Y-52367813D01*
X82199561Y-52363022D01*
X82191055Y-52360524D01*
X82191052Y-52360523D01*
X82112339Y-52337411D01*
X82068367Y-52324500D01*
X81931633Y-52324500D01*
X81923122Y-52326998D01*
X81923122Y-52326999D01*
X81808947Y-52360523D01*
X81808941Y-52360525D01*
X81800439Y-52363022D01*
X81792985Y-52367812D01*
X81792979Y-52367815D01*
X81692868Y-52432152D01*
X81692864Y-52432154D01*
X81685411Y-52436945D01*
X81680483Y-52442632D01*
X81629234Y-52469053D01*
X81570766Y-52469053D01*
X81519516Y-52442632D01*
X81514589Y-52436945D01*
X81507131Y-52432152D01*
X81407020Y-52367815D01*
X81407017Y-52367813D01*
X81399561Y-52363022D01*
X81391055Y-52360524D01*
X81391052Y-52360523D01*
X81312339Y-52337411D01*
X81268367Y-52324500D01*
X81131633Y-52324500D01*
X81123122Y-52326998D01*
X81123122Y-52326999D01*
X81008947Y-52360523D01*
X81008941Y-52360525D01*
X81000439Y-52363022D01*
X80992985Y-52367812D01*
X80992979Y-52367815D01*
X80892867Y-52432152D01*
X80892860Y-52432157D01*
X80885411Y-52436945D01*
X80879609Y-52443639D01*
X80879604Y-52443645D01*
X80801678Y-52533578D01*
X80801675Y-52533582D01*
X80795870Y-52540282D01*
X80792188Y-52548344D01*
X80792185Y-52548349D01*
X80742754Y-52656588D01*
X80739069Y-52664658D01*
X80737807Y-52673431D01*
X80737806Y-52673437D01*
X80720872Y-52791222D01*
X80719610Y-52800000D01*
X55245000Y-52800000D01*
X55245000Y-52000000D01*
X82919610Y-52000000D01*
X82920872Y-52008778D01*
X82937806Y-52126562D01*
X82937807Y-52126566D01*
X82939069Y-52135342D01*
X82995870Y-52259718D01*
X83001677Y-52266420D01*
X83001678Y-52266421D01*
X83079604Y-52356354D01*
X83079606Y-52356356D01*
X83085411Y-52363055D01*
X83092865Y-52367845D01*
X83092867Y-52367847D01*
X83192929Y-52432152D01*
X83200439Y-52436978D01*
X83331633Y-52475500D01*
X83459497Y-52475500D01*
X83468367Y-52475500D01*
X83599561Y-52436978D01*
X83714589Y-52363055D01*
X83804130Y-52259718D01*
X83860931Y-52135342D01*
X83880390Y-52000000D01*
X87769610Y-52000000D01*
X87770872Y-52008778D01*
X87787806Y-52126562D01*
X87787807Y-52126566D01*
X87789069Y-52135342D01*
X87845870Y-52259718D01*
X87851677Y-52266420D01*
X87851678Y-52266421D01*
X87929604Y-52356354D01*
X87929606Y-52356356D01*
X87935411Y-52363055D01*
X87942865Y-52367845D01*
X87942867Y-52367847D01*
X88042929Y-52432152D01*
X88050439Y-52436978D01*
X88181633Y-52475500D01*
X88309497Y-52475500D01*
X88318367Y-52475500D01*
X88449561Y-52436978D01*
X88564589Y-52363055D01*
X88654130Y-52259718D01*
X88710931Y-52135342D01*
X88730390Y-52000000D01*
X88710931Y-51864658D01*
X88654130Y-51740282D01*
X88564589Y-51636945D01*
X88557135Y-51632154D01*
X88557132Y-51632152D01*
X88457020Y-51567815D01*
X88457017Y-51567813D01*
X88449561Y-51563022D01*
X88441055Y-51560524D01*
X88441052Y-51560523D01*
X88362339Y-51537411D01*
X88318367Y-51524500D01*
X88181633Y-51524500D01*
X88173122Y-51526998D01*
X88173122Y-51526999D01*
X88058947Y-51560523D01*
X88058941Y-51560525D01*
X88050439Y-51563022D01*
X88042985Y-51567812D01*
X88042979Y-51567815D01*
X87942867Y-51632152D01*
X87942860Y-51632157D01*
X87935411Y-51636945D01*
X87929609Y-51643639D01*
X87929604Y-51643645D01*
X87851678Y-51733578D01*
X87851675Y-51733582D01*
X87845870Y-51740282D01*
X87842188Y-51748344D01*
X87842185Y-51748349D01*
X87792754Y-51856588D01*
X87789069Y-51864658D01*
X87787807Y-51873431D01*
X87787806Y-51873437D01*
X87770872Y-51991222D01*
X87769610Y-52000000D01*
X83880390Y-52000000D01*
X83860931Y-51864658D01*
X83804130Y-51740282D01*
X83714589Y-51636945D01*
X83707135Y-51632154D01*
X83707132Y-51632152D01*
X83607020Y-51567815D01*
X83607017Y-51567813D01*
X83599561Y-51563022D01*
X83591055Y-51560524D01*
X83591052Y-51560523D01*
X83512339Y-51537411D01*
X83468367Y-51524500D01*
X83331633Y-51524500D01*
X83323122Y-51526998D01*
X83323122Y-51526999D01*
X83208947Y-51560523D01*
X83208941Y-51560525D01*
X83200439Y-51563022D01*
X83192985Y-51567812D01*
X83192979Y-51567815D01*
X83092867Y-51632152D01*
X83092860Y-51632157D01*
X83085411Y-51636945D01*
X83079609Y-51643639D01*
X83079604Y-51643645D01*
X83001678Y-51733578D01*
X83001675Y-51733582D01*
X82995870Y-51740282D01*
X82992188Y-51748344D01*
X82992185Y-51748349D01*
X82942754Y-51856588D01*
X82939069Y-51864658D01*
X82937807Y-51873431D01*
X82937806Y-51873437D01*
X82920872Y-51991222D01*
X82919610Y-52000000D01*
X55245000Y-52000000D01*
X55245000Y-50038000D01*
X78005610Y-50038000D01*
X78006872Y-50046778D01*
X78023806Y-50164562D01*
X78023807Y-50164566D01*
X78025069Y-50173342D01*
X78028753Y-50181410D01*
X78028754Y-50181411D01*
X78057175Y-50243645D01*
X78081870Y-50297718D01*
X78087677Y-50304420D01*
X78087678Y-50304421D01*
X78165604Y-50394354D01*
X78165606Y-50394356D01*
X78171411Y-50401055D01*
X78178865Y-50405845D01*
X78178867Y-50405847D01*
X78278979Y-50470184D01*
X78286439Y-50474978D01*
X78417633Y-50513500D01*
X78426503Y-50513500D01*
X78499726Y-50513500D01*
X78556546Y-50527284D01*
X78600733Y-50565573D01*
X78622464Y-50619853D01*
X78637806Y-50726562D01*
X78637807Y-50726566D01*
X78639069Y-50735342D01*
X78695870Y-50859718D01*
X78701677Y-50866420D01*
X78701678Y-50866421D01*
X78779604Y-50956354D01*
X78779606Y-50956356D01*
X78785411Y-50963055D01*
X78792865Y-50967845D01*
X78792867Y-50967847D01*
X78892979Y-51032184D01*
X78900439Y-51036978D01*
X79031633Y-51075500D01*
X79159497Y-51075500D01*
X79168367Y-51075500D01*
X79299561Y-51036978D01*
X79414589Y-50963055D01*
X79504130Y-50859718D01*
X79560931Y-50735342D01*
X79580390Y-50600000D01*
X79560931Y-50464658D01*
X79504130Y-50340282D01*
X79414589Y-50236945D01*
X79407135Y-50232154D01*
X79407132Y-50232152D01*
X79307020Y-50167815D01*
X79307017Y-50167813D01*
X79299561Y-50163022D01*
X79291055Y-50160524D01*
X79291052Y-50160523D01*
X79212339Y-50137411D01*
X79168367Y-50124500D01*
X79086274Y-50124500D01*
X79029454Y-50110716D01*
X78985267Y-50072427D01*
X78963536Y-50018147D01*
X78948193Y-49911437D01*
X78946931Y-49902658D01*
X78890130Y-49778282D01*
X78854340Y-49736978D01*
X78806395Y-49681645D01*
X78806393Y-49681643D01*
X78800589Y-49674945D01*
X78793135Y-49670154D01*
X78793132Y-49670152D01*
X78693020Y-49605815D01*
X78693017Y-49605813D01*
X78685561Y-49601022D01*
X78677055Y-49598524D01*
X78677052Y-49598523D01*
X78598339Y-49575411D01*
X78554367Y-49562500D01*
X78417633Y-49562500D01*
X78409122Y-49564998D01*
X78409122Y-49564999D01*
X78294947Y-49598523D01*
X78294941Y-49598525D01*
X78286439Y-49601022D01*
X78278985Y-49605812D01*
X78278979Y-49605815D01*
X78178867Y-49670152D01*
X78178860Y-49670157D01*
X78171411Y-49674945D01*
X78165609Y-49681639D01*
X78165604Y-49681645D01*
X78087678Y-49771578D01*
X78087675Y-49771582D01*
X78081870Y-49778282D01*
X78078188Y-49786344D01*
X78078185Y-49786349D01*
X78028754Y-49894588D01*
X78025069Y-49902658D01*
X78023807Y-49911431D01*
X78023806Y-49911437D01*
X78008464Y-50018147D01*
X78005610Y-50038000D01*
X55245000Y-50038000D01*
X55245000Y-48768000D01*
X77497610Y-48768000D01*
X77498872Y-48776778D01*
X77515806Y-48894562D01*
X77515807Y-48894566D01*
X77517069Y-48903342D01*
X77520753Y-48911410D01*
X77520754Y-48911411D01*
X77555274Y-48987000D01*
X77573870Y-49027718D01*
X77579677Y-49034420D01*
X77579678Y-49034421D01*
X77657604Y-49124354D01*
X77657606Y-49124356D01*
X77663411Y-49131055D01*
X77670865Y-49135845D01*
X77670867Y-49135847D01*
X77770979Y-49200184D01*
X77778439Y-49204978D01*
X77909633Y-49243500D01*
X78037497Y-49243500D01*
X78046367Y-49243500D01*
X78177561Y-49204978D01*
X78292589Y-49131055D01*
X78382130Y-49027718D01*
X78438931Y-48903342D01*
X78458390Y-48768000D01*
X78438931Y-48632658D01*
X78382130Y-48508282D01*
X78327469Y-48445199D01*
X78300679Y-48393234D01*
X78300679Y-48334766D01*
X78327469Y-48282800D01*
X78382130Y-48219718D01*
X78438931Y-48095342D01*
X78451776Y-48006000D01*
X78767610Y-48006000D01*
X78768872Y-48014778D01*
X78785806Y-48132562D01*
X78785807Y-48132566D01*
X78787069Y-48141342D01*
X78790753Y-48149410D01*
X78790754Y-48149411D01*
X78837249Y-48251222D01*
X78843870Y-48265718D01*
X78849677Y-48272420D01*
X78849678Y-48272421D01*
X78927604Y-48362354D01*
X78927606Y-48362356D01*
X78933411Y-48369055D01*
X78940865Y-48373845D01*
X78940867Y-48373847D01*
X79040979Y-48438184D01*
X79048439Y-48442978D01*
X79179633Y-48481500D01*
X79307497Y-48481500D01*
X79316367Y-48481500D01*
X79379181Y-48463055D01*
X79431763Y-48459295D01*
X79481155Y-48477717D01*
X79518431Y-48514993D01*
X79536854Y-48564386D01*
X79547806Y-48640562D01*
X79547807Y-48640566D01*
X79549069Y-48649342D01*
X79552753Y-48657410D01*
X79552754Y-48657411D01*
X79599249Y-48759222D01*
X79605870Y-48773718D01*
X79611677Y-48780420D01*
X79611678Y-48780421D01*
X79689604Y-48870354D01*
X79689606Y-48870356D01*
X79695411Y-48877055D01*
X79702865Y-48881845D01*
X79702867Y-48881847D01*
X79788603Y-48936945D01*
X79810439Y-48950978D01*
X79941633Y-48989500D01*
X80069497Y-48989500D01*
X80078367Y-48989500D01*
X80209561Y-48950978D01*
X80324589Y-48877055D01*
X80414130Y-48773718D01*
X80470931Y-48649342D01*
X80490390Y-48514000D01*
X80470931Y-48378658D01*
X80416741Y-48260000D01*
X81467610Y-48260000D01*
X81468872Y-48268778D01*
X81485806Y-48386562D01*
X81485807Y-48386566D01*
X81487069Y-48395342D01*
X81490753Y-48403410D01*
X81490754Y-48403411D01*
X81537249Y-48505222D01*
X81543870Y-48519718D01*
X81549677Y-48526420D01*
X81549678Y-48526421D01*
X81627604Y-48616354D01*
X81627606Y-48616356D01*
X81633411Y-48623055D01*
X81640865Y-48627845D01*
X81640867Y-48627847D01*
X81712365Y-48673795D01*
X81748439Y-48696978D01*
X81756947Y-48699476D01*
X81756949Y-48699477D01*
X81769588Y-48703188D01*
X81818499Y-48730808D01*
X81850205Y-48777176D01*
X81858199Y-48832775D01*
X81840842Y-48886197D01*
X81801694Y-48926480D01*
X81792870Y-48932150D01*
X81792863Y-48932155D01*
X81785411Y-48936945D01*
X81779609Y-48943639D01*
X81779604Y-48943645D01*
X81701678Y-49033578D01*
X81701675Y-49033582D01*
X81695870Y-49040282D01*
X81692188Y-49048344D01*
X81692185Y-49048349D01*
X81642754Y-49156588D01*
X81639069Y-49164658D01*
X81637807Y-49173431D01*
X81637806Y-49173437D01*
X81627733Y-49243500D01*
X81619610Y-49300000D01*
X81620872Y-49308778D01*
X81637806Y-49426562D01*
X81637807Y-49426566D01*
X81639069Y-49435342D01*
X81695870Y-49559718D01*
X81701677Y-49566420D01*
X81701678Y-49566421D01*
X81779604Y-49656354D01*
X81779606Y-49656356D01*
X81785411Y-49663055D01*
X81792865Y-49667845D01*
X81792867Y-49667847D01*
X81892979Y-49732184D01*
X81900439Y-49736978D01*
X82031633Y-49775500D01*
X82159497Y-49775500D01*
X82168367Y-49775500D01*
X82299561Y-49736978D01*
X82414589Y-49663055D01*
X82504130Y-49559718D01*
X82560931Y-49435342D01*
X82580390Y-49300000D01*
X82560931Y-49164658D01*
X82504130Y-49040282D01*
X82493243Y-49027718D01*
X82420395Y-48943645D01*
X82420393Y-48943643D01*
X82414589Y-48936945D01*
X82407135Y-48932154D01*
X82407132Y-48932152D01*
X82307020Y-48867815D01*
X82307017Y-48867813D01*
X82299561Y-48863022D01*
X82291056Y-48860524D01*
X82291048Y-48860521D01*
X82278408Y-48856810D01*
X82229497Y-48829187D01*
X82197792Y-48782818D01*
X82189800Y-48727217D01*
X82207161Y-48673795D01*
X82246308Y-48633517D01*
X82262589Y-48623055D01*
X82267517Y-48617366D01*
X82318765Y-48590947D01*
X82377235Y-48590947D01*
X82428482Y-48617366D01*
X82433411Y-48623055D01*
X82440871Y-48627849D01*
X82440872Y-48627850D01*
X82486870Y-48657411D01*
X82548439Y-48696978D01*
X82679633Y-48735500D01*
X82807497Y-48735500D01*
X82816367Y-48735500D01*
X82947561Y-48696978D01*
X83062589Y-48623055D01*
X83152130Y-48519718D01*
X83208931Y-48395342D01*
X83228390Y-48260000D01*
X83208931Y-48124658D01*
X83152130Y-48000282D01*
X83097709Y-47937476D01*
X83068395Y-47903645D01*
X83068393Y-47903643D01*
X83062589Y-47896945D01*
X83055135Y-47892154D01*
X83055132Y-47892152D01*
X82955020Y-47827815D01*
X82955017Y-47827813D01*
X82947561Y-47823022D01*
X82939055Y-47820524D01*
X82939052Y-47820523D01*
X82860339Y-47797411D01*
X82816367Y-47784500D01*
X82679633Y-47784500D01*
X82671122Y-47786998D01*
X82671122Y-47786999D01*
X82556947Y-47820523D01*
X82556941Y-47820525D01*
X82548439Y-47823022D01*
X82540985Y-47827812D01*
X82540979Y-47827815D01*
X82440868Y-47892152D01*
X82440864Y-47892154D01*
X82433411Y-47896945D01*
X82428483Y-47902632D01*
X82377234Y-47929053D01*
X82318766Y-47929053D01*
X82267516Y-47902632D01*
X82262589Y-47896945D01*
X82209128Y-47862588D01*
X82155020Y-47827815D01*
X82155017Y-47827813D01*
X82147561Y-47823022D01*
X82139055Y-47820524D01*
X82139052Y-47820523D01*
X82060339Y-47797411D01*
X82016367Y-47784500D01*
X81879633Y-47784500D01*
X81871122Y-47786998D01*
X81871122Y-47786999D01*
X81756947Y-47820523D01*
X81756941Y-47820525D01*
X81748439Y-47823022D01*
X81740985Y-47827812D01*
X81740979Y-47827815D01*
X81640867Y-47892152D01*
X81640860Y-47892157D01*
X81633411Y-47896945D01*
X81627609Y-47903639D01*
X81627604Y-47903645D01*
X81549678Y-47993578D01*
X81549675Y-47993582D01*
X81543870Y-48000282D01*
X81540188Y-48008344D01*
X81540185Y-48008349D01*
X81500457Y-48095342D01*
X81487069Y-48124658D01*
X81485807Y-48133431D01*
X81485806Y-48133437D01*
X81472438Y-48226417D01*
X81467610Y-48260000D01*
X80416741Y-48260000D01*
X80414130Y-48254282D01*
X80347604Y-48177506D01*
X80320539Y-48124388D01*
X80321391Y-48064779D01*
X80349963Y-48012456D01*
X80399651Y-47979514D01*
X80449633Y-47974503D01*
X80449633Y-47973500D01*
X80577497Y-47973500D01*
X80586367Y-47973500D01*
X80717561Y-47934978D01*
X80832589Y-47861055D01*
X80922130Y-47757718D01*
X80978931Y-47633342D01*
X80998390Y-47498000D01*
X80978931Y-47362658D01*
X80922130Y-47238282D01*
X80894403Y-47206283D01*
X80838395Y-47141645D01*
X80838393Y-47141643D01*
X80832589Y-47134945D01*
X80825135Y-47130154D01*
X80825132Y-47130152D01*
X80725020Y-47065815D01*
X80725017Y-47065813D01*
X80717561Y-47061022D01*
X80709055Y-47058524D01*
X80709052Y-47058523D01*
X80630339Y-47035411D01*
X80586367Y-47022500D01*
X80449633Y-47022500D01*
X80441122Y-47024998D01*
X80441122Y-47024999D01*
X80326947Y-47058523D01*
X80326941Y-47058525D01*
X80318439Y-47061022D01*
X80310985Y-47065812D01*
X80310979Y-47065815D01*
X80210867Y-47130152D01*
X80210860Y-47130157D01*
X80203411Y-47134945D01*
X80197609Y-47141639D01*
X80197604Y-47141645D01*
X80119678Y-47231578D01*
X80119675Y-47231582D01*
X80113870Y-47238282D01*
X80110188Y-47246344D01*
X80110185Y-47246349D01*
X80061226Y-47353555D01*
X80057069Y-47362658D01*
X80055807Y-47371431D01*
X80055806Y-47371437D01*
X80039551Y-47484500D01*
X80037610Y-47498000D01*
X80038872Y-47506778D01*
X80055806Y-47624562D01*
X80055807Y-47624566D01*
X80057069Y-47633342D01*
X80060753Y-47641410D01*
X80060754Y-47641411D01*
X80105587Y-47739582D01*
X80113870Y-47757718D01*
X80180397Y-47834495D01*
X80207459Y-47887609D01*
X80206609Y-47947216D01*
X80178041Y-47999538D01*
X80128358Y-48032482D01*
X80078367Y-48037498D01*
X80078367Y-48038500D01*
X79941633Y-48038500D01*
X79933128Y-48040997D01*
X79933123Y-48040998D01*
X79878816Y-48056944D01*
X79808947Y-48056943D01*
X79750169Y-48019168D01*
X79721145Y-47955612D01*
X79718178Y-47934978D01*
X79708931Y-47870658D01*
X79652130Y-47746282D01*
X79562589Y-47642945D01*
X79555135Y-47638154D01*
X79555132Y-47638152D01*
X79455020Y-47573815D01*
X79455017Y-47573813D01*
X79447561Y-47569022D01*
X79439055Y-47566524D01*
X79439052Y-47566523D01*
X79360339Y-47543411D01*
X79316367Y-47530500D01*
X79179633Y-47530500D01*
X79171122Y-47532998D01*
X79171122Y-47532999D01*
X79056947Y-47566523D01*
X79056941Y-47566525D01*
X79048439Y-47569022D01*
X79040985Y-47573812D01*
X79040979Y-47573815D01*
X78940867Y-47638152D01*
X78940860Y-47638157D01*
X78933411Y-47642945D01*
X78927609Y-47649639D01*
X78927604Y-47649645D01*
X78849678Y-47739578D01*
X78849675Y-47739582D01*
X78843870Y-47746282D01*
X78840188Y-47754344D01*
X78840185Y-47754349D01*
X78790754Y-47862588D01*
X78787069Y-47870658D01*
X78785807Y-47879431D01*
X78785806Y-47879437D01*
X78771418Y-47979514D01*
X78767610Y-48006000D01*
X78451776Y-48006000D01*
X78456449Y-47973500D01*
X78457128Y-47968778D01*
X78458390Y-47960000D01*
X78438931Y-47824658D01*
X78382130Y-47700282D01*
X78373654Y-47690500D01*
X78298395Y-47603645D01*
X78298393Y-47603643D01*
X78292589Y-47596945D01*
X78285135Y-47592154D01*
X78285132Y-47592152D01*
X78185020Y-47527815D01*
X78185017Y-47527813D01*
X78177561Y-47523022D01*
X78169055Y-47520524D01*
X78169052Y-47520523D01*
X78090339Y-47497411D01*
X78046367Y-47484500D01*
X77909633Y-47484500D01*
X77901122Y-47486998D01*
X77901122Y-47486999D01*
X77786947Y-47520523D01*
X77786941Y-47520525D01*
X77778439Y-47523022D01*
X77770985Y-47527812D01*
X77770979Y-47527815D01*
X77670867Y-47592152D01*
X77670860Y-47592157D01*
X77663411Y-47596945D01*
X77657609Y-47603639D01*
X77657604Y-47603645D01*
X77579678Y-47693578D01*
X77579675Y-47693582D01*
X77573870Y-47700282D01*
X77570188Y-47708344D01*
X77570185Y-47708349D01*
X77522258Y-47813295D01*
X77517069Y-47824658D01*
X77515807Y-47833431D01*
X77515806Y-47833437D01*
X77500848Y-47937476D01*
X77497610Y-47960000D01*
X77498872Y-47968778D01*
X77515806Y-48086562D01*
X77515807Y-48086566D01*
X77517069Y-48095342D01*
X77520753Y-48103410D01*
X77520754Y-48103411D01*
X77541761Y-48149411D01*
X77573870Y-48219718D01*
X77628528Y-48282797D01*
X77628529Y-48282798D01*
X77655320Y-48334766D01*
X77655320Y-48393234D01*
X77628529Y-48445200D01*
X77573870Y-48508282D01*
X77570188Y-48516344D01*
X77570185Y-48516349D01*
X77520754Y-48624588D01*
X77517069Y-48632658D01*
X77515807Y-48641431D01*
X77515806Y-48641437D01*
X77502957Y-48730808D01*
X77497610Y-48768000D01*
X55245000Y-48768000D01*
X55245000Y-46535000D01*
X77519610Y-46535000D01*
X77520872Y-46543778D01*
X77537806Y-46661562D01*
X77537807Y-46661566D01*
X77539069Y-46670342D01*
X77542753Y-46678410D01*
X77542754Y-46678411D01*
X77571448Y-46741243D01*
X77595870Y-46794718D01*
X77601677Y-46801420D01*
X77601678Y-46801421D01*
X77679604Y-46891354D01*
X77679606Y-46891356D01*
X77685411Y-46898055D01*
X77692865Y-46902845D01*
X77692867Y-46902847D01*
X77792979Y-46967184D01*
X77800439Y-46971978D01*
X77931633Y-47010500D01*
X78059497Y-47010500D01*
X78068367Y-47010500D01*
X78136481Y-46990500D01*
X82650110Y-46990500D01*
X82651372Y-46999278D01*
X82668306Y-47117062D01*
X82668307Y-47117066D01*
X82669569Y-47125842D01*
X82673253Y-47133910D01*
X82673254Y-47133911D01*
X82721363Y-47239256D01*
X82726370Y-47250218D01*
X82732177Y-47256920D01*
X82732178Y-47256921D01*
X82810104Y-47346854D01*
X82810105Y-47346855D01*
X82815911Y-47353555D01*
X82823365Y-47358345D01*
X82823367Y-47358347D01*
X82914933Y-47417192D01*
X82930939Y-47427478D01*
X83062133Y-47466000D01*
X83189997Y-47466000D01*
X83198867Y-47466000D01*
X83330061Y-47427478D01*
X83445089Y-47353555D01*
X83534630Y-47250218D01*
X83536268Y-47251637D01*
X83571068Y-47219233D01*
X83630500Y-47204063D01*
X83689932Y-47219233D01*
X83724731Y-47251637D01*
X83726370Y-47250218D01*
X83810104Y-47346854D01*
X83810105Y-47346855D01*
X83815911Y-47353555D01*
X83823367Y-47358347D01*
X83823370Y-47358349D01*
X83845085Y-47372304D01*
X83886878Y-47417192D01*
X83902047Y-47476619D01*
X83886880Y-47536046D01*
X83845087Y-47580935D01*
X83756058Y-47638150D01*
X83756051Y-47638155D01*
X83748599Y-47642945D01*
X83742797Y-47649639D01*
X83742792Y-47649645D01*
X83664866Y-47739578D01*
X83664863Y-47739582D01*
X83659058Y-47746282D01*
X83655376Y-47754344D01*
X83655373Y-47754349D01*
X83605942Y-47862588D01*
X83602257Y-47870658D01*
X83600995Y-47879431D01*
X83600994Y-47879437D01*
X83586606Y-47979514D01*
X83582798Y-48006000D01*
X83584060Y-48014778D01*
X83600994Y-48132562D01*
X83600995Y-48132566D01*
X83602257Y-48141342D01*
X83605941Y-48149410D01*
X83605942Y-48149411D01*
X83652437Y-48251222D01*
X83659058Y-48265718D01*
X83664865Y-48272420D01*
X83664866Y-48272421D01*
X83742792Y-48362354D01*
X83742794Y-48362356D01*
X83748599Y-48369055D01*
X83756053Y-48373845D01*
X83756055Y-48373847D01*
X83856167Y-48438184D01*
X83863627Y-48442978D01*
X83994821Y-48481500D01*
X84122685Y-48481500D01*
X84131555Y-48481500D01*
X84262749Y-48442978D01*
X84377777Y-48369055D01*
X84467318Y-48265718D01*
X84471002Y-48257650D01*
X84472279Y-48255664D01*
X84517168Y-48213872D01*
X84576594Y-48198704D01*
X84636020Y-48213872D01*
X84680909Y-48255664D01*
X84682185Y-48257650D01*
X84685870Y-48265718D01*
X84691677Y-48272420D01*
X84691678Y-48272421D01*
X84769604Y-48362354D01*
X84769606Y-48362356D01*
X84775411Y-48369055D01*
X84782865Y-48373845D01*
X84782867Y-48373847D01*
X84882979Y-48438184D01*
X84890439Y-48442978D01*
X85021633Y-48481500D01*
X85149497Y-48481500D01*
X85158367Y-48481500D01*
X85289561Y-48442978D01*
X85404589Y-48369055D01*
X85494130Y-48265718D01*
X85550931Y-48141342D01*
X85570390Y-48006000D01*
X85550931Y-47870658D01*
X85494130Y-47746282D01*
X85404589Y-47642945D01*
X85397135Y-47638154D01*
X85397132Y-47638152D01*
X85341368Y-47602316D01*
X85299575Y-47557427D01*
X85284407Y-47498000D01*
X85299575Y-47438573D01*
X85341368Y-47393684D01*
X85341370Y-47393683D01*
X85404589Y-47353055D01*
X85494130Y-47249718D01*
X85495763Y-47246140D01*
X85538573Y-47206283D01*
X85598000Y-47191115D01*
X85657427Y-47206283D01*
X85700236Y-47246140D01*
X85701870Y-47249718D01*
X85707675Y-47256417D01*
X85707678Y-47256421D01*
X85785604Y-47346354D01*
X85785606Y-47346356D01*
X85791411Y-47353055D01*
X85798865Y-47357845D01*
X85798867Y-47357847D01*
X85891211Y-47417192D01*
X85906439Y-47426978D01*
X85914947Y-47429476D01*
X85914949Y-47429477D01*
X85981272Y-47448951D01*
X86034019Y-47480246D01*
X86065315Y-47532992D01*
X86067504Y-47594285D01*
X86040052Y-47649129D01*
X85955870Y-47746282D01*
X85952188Y-47754344D01*
X85952185Y-47754349D01*
X85902754Y-47862588D01*
X85899069Y-47870658D01*
X85897807Y-47879431D01*
X85897806Y-47879437D01*
X85883418Y-47979514D01*
X85879610Y-48006000D01*
X85880872Y-48014778D01*
X85897806Y-48132562D01*
X85897807Y-48132566D01*
X85899069Y-48141342D01*
X85902753Y-48149410D01*
X85902754Y-48149411D01*
X85949249Y-48251222D01*
X85955870Y-48265718D01*
X85961677Y-48272420D01*
X85961678Y-48272421D01*
X86039604Y-48362354D01*
X86039606Y-48362356D01*
X86045411Y-48369055D01*
X86052865Y-48373845D01*
X86052867Y-48373847D01*
X86152979Y-48438184D01*
X86160439Y-48442978D01*
X86291633Y-48481500D01*
X86419497Y-48481500D01*
X86428367Y-48481500D01*
X86559561Y-48442978D01*
X86674589Y-48369055D01*
X86764130Y-48265718D01*
X86820931Y-48141342D01*
X86840390Y-48006000D01*
X86820931Y-47870658D01*
X86764130Y-47746282D01*
X86674589Y-47642945D01*
X86667135Y-47638154D01*
X86667132Y-47638152D01*
X86567020Y-47573815D01*
X86567017Y-47573813D01*
X86559561Y-47569022D01*
X86519296Y-47557199D01*
X86484725Y-47547048D01*
X86431979Y-47515752D01*
X86421447Y-47498000D01*
X87149610Y-47498000D01*
X87150872Y-47506778D01*
X87167806Y-47624562D01*
X87167807Y-47624566D01*
X87169069Y-47633342D01*
X87172753Y-47641410D01*
X87172754Y-47641411D01*
X87217587Y-47739582D01*
X87225870Y-47757718D01*
X87231675Y-47764417D01*
X87231678Y-47764421D01*
X87309604Y-47854354D01*
X87309606Y-47854356D01*
X87315411Y-47861055D01*
X87322865Y-47865845D01*
X87322867Y-47865847D01*
X87379531Y-47902262D01*
X87430439Y-47934978D01*
X87561633Y-47973500D01*
X87689497Y-47973500D01*
X87698367Y-47973500D01*
X87829561Y-47934978D01*
X87944589Y-47861055D01*
X88034130Y-47757718D01*
X88090931Y-47633342D01*
X88110390Y-47498000D01*
X88090931Y-47362658D01*
X88034130Y-47238282D01*
X88006403Y-47206283D01*
X87950395Y-47141645D01*
X87950393Y-47141643D01*
X87944589Y-47134945D01*
X87937135Y-47130154D01*
X87937132Y-47130152D01*
X87837020Y-47065815D01*
X87837017Y-47065813D01*
X87829561Y-47061022D01*
X87821055Y-47058524D01*
X87821052Y-47058523D01*
X87742339Y-47035411D01*
X87698367Y-47022500D01*
X87561633Y-47022500D01*
X87553122Y-47024998D01*
X87553122Y-47024999D01*
X87438947Y-47058523D01*
X87438941Y-47058525D01*
X87430439Y-47061022D01*
X87422985Y-47065812D01*
X87422979Y-47065815D01*
X87322867Y-47130152D01*
X87322860Y-47130157D01*
X87315411Y-47134945D01*
X87309609Y-47141639D01*
X87309604Y-47141645D01*
X87231678Y-47231578D01*
X87231675Y-47231582D01*
X87225870Y-47238282D01*
X87222188Y-47246344D01*
X87222185Y-47246349D01*
X87173226Y-47353555D01*
X87169069Y-47362658D01*
X87167807Y-47371431D01*
X87167806Y-47371437D01*
X87151551Y-47484500D01*
X87149610Y-47498000D01*
X86421447Y-47498000D01*
X86400684Y-47463005D01*
X86398495Y-47401713D01*
X86425945Y-47346873D01*
X86510130Y-47249718D01*
X86566931Y-47125342D01*
X86586390Y-46990000D01*
X86566931Y-46854658D01*
X86510130Y-46730282D01*
X86465184Y-46678411D01*
X86426395Y-46633645D01*
X86426392Y-46633642D01*
X86420589Y-46626945D01*
X86413135Y-46622154D01*
X86413132Y-46622152D01*
X86313020Y-46557815D01*
X86313017Y-46557813D01*
X86305561Y-46553022D01*
X86297055Y-46550524D01*
X86297052Y-46550523D01*
X86218339Y-46527411D01*
X86174367Y-46514500D01*
X86037633Y-46514500D01*
X86029122Y-46516998D01*
X86029122Y-46516999D01*
X85914947Y-46550523D01*
X85914941Y-46550525D01*
X85906439Y-46553022D01*
X85898985Y-46557812D01*
X85898979Y-46557815D01*
X85798867Y-46622152D01*
X85798860Y-46622157D01*
X85791411Y-46626945D01*
X85785609Y-46633639D01*
X85785604Y-46633645D01*
X85707679Y-46723578D01*
X85701870Y-46730282D01*
X85700236Y-46733859D01*
X85657426Y-46773717D01*
X85598000Y-46788884D01*
X85538574Y-46773717D01*
X85495763Y-46733859D01*
X85494130Y-46730282D01*
X85436264Y-46663500D01*
X85410395Y-46633645D01*
X85410392Y-46633642D01*
X85404589Y-46626945D01*
X85397135Y-46622154D01*
X85397132Y-46622152D01*
X85297020Y-46557815D01*
X85297017Y-46557813D01*
X85289561Y-46553022D01*
X85281055Y-46550524D01*
X85281052Y-46550523D01*
X85202339Y-46527411D01*
X85158367Y-46514500D01*
X85021633Y-46514500D01*
X85013122Y-46516998D01*
X85013122Y-46516999D01*
X84898947Y-46550523D01*
X84898941Y-46550525D01*
X84890439Y-46553022D01*
X84882985Y-46557812D01*
X84882979Y-46557815D01*
X84782867Y-46622152D01*
X84782860Y-46622157D01*
X84775411Y-46626945D01*
X84769608Y-46633641D01*
X84769608Y-46633642D01*
X84703746Y-46709652D01*
X84661544Y-46741243D01*
X84610033Y-46752449D01*
X84558521Y-46741243D01*
X84516320Y-46709651D01*
X84450895Y-46634145D01*
X84450893Y-46634143D01*
X84445089Y-46627445D01*
X84437635Y-46622654D01*
X84437632Y-46622652D01*
X84337520Y-46558315D01*
X84337517Y-46558313D01*
X84330061Y-46553522D01*
X84321555Y-46551024D01*
X84321552Y-46551023D01*
X84237086Y-46526222D01*
X84198867Y-46515000D01*
X84062133Y-46515000D01*
X84053622Y-46517498D01*
X84053622Y-46517499D01*
X83939447Y-46551023D01*
X83939441Y-46551025D01*
X83930939Y-46553522D01*
X83923485Y-46558312D01*
X83923479Y-46558315D01*
X83823367Y-46622652D01*
X83823360Y-46622657D01*
X83815911Y-46627445D01*
X83810109Y-46634139D01*
X83810104Y-46634145D01*
X83726370Y-46730782D01*
X83724733Y-46729363D01*
X83689924Y-46761770D01*
X83630500Y-46776936D01*
X83571076Y-46761770D01*
X83536266Y-46729363D01*
X83534630Y-46730782D01*
X83450895Y-46634145D01*
X83450893Y-46634143D01*
X83445089Y-46627445D01*
X83437635Y-46622654D01*
X83437632Y-46622652D01*
X83337520Y-46558315D01*
X83337517Y-46558313D01*
X83330061Y-46553522D01*
X83321555Y-46551024D01*
X83321552Y-46551023D01*
X83237086Y-46526222D01*
X83198867Y-46515000D01*
X83062133Y-46515000D01*
X83053622Y-46517498D01*
X83053622Y-46517499D01*
X82939447Y-46551023D01*
X82939441Y-46551025D01*
X82930939Y-46553522D01*
X82923485Y-46558312D01*
X82923479Y-46558315D01*
X82823367Y-46622652D01*
X82823360Y-46622657D01*
X82815911Y-46627445D01*
X82810109Y-46634139D01*
X82810104Y-46634145D01*
X82732178Y-46724078D01*
X82732175Y-46724082D01*
X82726370Y-46730782D01*
X82722688Y-46738844D01*
X82722685Y-46738849D01*
X82673254Y-46847088D01*
X82669569Y-46855158D01*
X82668307Y-46863931D01*
X82668306Y-46863937D01*
X82663401Y-46898055D01*
X82650110Y-46990500D01*
X78136481Y-46990500D01*
X78199561Y-46971978D01*
X78314589Y-46898055D01*
X78404130Y-46794718D01*
X78460931Y-46670342D01*
X78480390Y-46535000D01*
X78477514Y-46515000D01*
X78462193Y-46408437D01*
X78460931Y-46399658D01*
X78404130Y-46275282D01*
X78330667Y-46190500D01*
X80250110Y-46190500D01*
X80251372Y-46199278D01*
X80268306Y-46317062D01*
X80268307Y-46317066D01*
X80269569Y-46325842D01*
X80326370Y-46450218D01*
X80332177Y-46456920D01*
X80332178Y-46456921D01*
X80410104Y-46546854D01*
X80410106Y-46546856D01*
X80415911Y-46553555D01*
X80423365Y-46558345D01*
X80423367Y-46558347D01*
X80522651Y-46622152D01*
X80530939Y-46627478D01*
X80662133Y-46666000D01*
X80789997Y-46666000D01*
X80798867Y-46666000D01*
X80930061Y-46627478D01*
X81045089Y-46553555D01*
X81134630Y-46450218D01*
X81191431Y-46325842D01*
X81210890Y-46190500D01*
X81191431Y-46055158D01*
X81134630Y-45930782D01*
X81126154Y-45921000D01*
X81050895Y-45834145D01*
X81050893Y-45834143D01*
X81045089Y-45827445D01*
X81037635Y-45822654D01*
X81037632Y-45822652D01*
X80937520Y-45758315D01*
X80937517Y-45758313D01*
X80930061Y-45753522D01*
X80921555Y-45751024D01*
X80921552Y-45751023D01*
X80835369Y-45725718D01*
X80798867Y-45715000D01*
X80662133Y-45715000D01*
X80653622Y-45717498D01*
X80653622Y-45717499D01*
X80539447Y-45751023D01*
X80539441Y-45751025D01*
X80530939Y-45753522D01*
X80523485Y-45758312D01*
X80523479Y-45758315D01*
X80423367Y-45822652D01*
X80423360Y-45822657D01*
X80415911Y-45827445D01*
X80410109Y-45834139D01*
X80410104Y-45834145D01*
X80332178Y-45924078D01*
X80332175Y-45924082D01*
X80326370Y-45930782D01*
X80322688Y-45938844D01*
X80322685Y-45938849D01*
X80273254Y-46047088D01*
X80269569Y-46055158D01*
X80268307Y-46063931D01*
X80268306Y-46063937D01*
X80253467Y-46167152D01*
X80250110Y-46190500D01*
X78330667Y-46190500D01*
X78314589Y-46171945D01*
X78307135Y-46167154D01*
X78307132Y-46167152D01*
X78207020Y-46102815D01*
X78207017Y-46102813D01*
X78199561Y-46098022D01*
X78191055Y-46095524D01*
X78191052Y-46095523D01*
X78112339Y-46072411D01*
X78068367Y-46059500D01*
X77931633Y-46059500D01*
X77923122Y-46061998D01*
X77923122Y-46061999D01*
X77808947Y-46095523D01*
X77808941Y-46095525D01*
X77800439Y-46098022D01*
X77792985Y-46102812D01*
X77792979Y-46102815D01*
X77692867Y-46167152D01*
X77692860Y-46167157D01*
X77685411Y-46171945D01*
X77679609Y-46178639D01*
X77679604Y-46178645D01*
X77601678Y-46268578D01*
X77601675Y-46268582D01*
X77595870Y-46275282D01*
X77592188Y-46283344D01*
X77592185Y-46283349D01*
X77542754Y-46391588D01*
X77539069Y-46399658D01*
X77537807Y-46408431D01*
X77537806Y-46408437D01*
X77522198Y-46516999D01*
X77519610Y-46535000D01*
X55245000Y-46535000D01*
X55245000Y-45466000D01*
X87657610Y-45466000D01*
X87658872Y-45474778D01*
X87675806Y-45592562D01*
X87675807Y-45592566D01*
X87677069Y-45601342D01*
X87733870Y-45725718D01*
X87739677Y-45732420D01*
X87739678Y-45732421D01*
X87817604Y-45822354D01*
X87817606Y-45822356D01*
X87823411Y-45829055D01*
X87830865Y-45833845D01*
X87830867Y-45833847D01*
X87831331Y-45834145D01*
X87938439Y-45902978D01*
X88069633Y-45941500D01*
X88197497Y-45941500D01*
X88206367Y-45941500D01*
X88337561Y-45902978D01*
X88452589Y-45829055D01*
X88542130Y-45725718D01*
X88598931Y-45601342D01*
X88618390Y-45466000D01*
X88598931Y-45330658D01*
X88542130Y-45206282D01*
X88452589Y-45102945D01*
X88445135Y-45098154D01*
X88445132Y-45098152D01*
X88345020Y-45033815D01*
X88345017Y-45033813D01*
X88337561Y-45029022D01*
X88329055Y-45026524D01*
X88329052Y-45026523D01*
X88250339Y-45003411D01*
X88206367Y-44990500D01*
X88069633Y-44990500D01*
X88061122Y-44992998D01*
X88061122Y-44992999D01*
X87946947Y-45026523D01*
X87946941Y-45026525D01*
X87938439Y-45029022D01*
X87930985Y-45033812D01*
X87930979Y-45033815D01*
X87830867Y-45098152D01*
X87830860Y-45098157D01*
X87823411Y-45102945D01*
X87817609Y-45109639D01*
X87817604Y-45109645D01*
X87739678Y-45199578D01*
X87739675Y-45199582D01*
X87733870Y-45206282D01*
X87730188Y-45214344D01*
X87730185Y-45214349D01*
X87680754Y-45322588D01*
X87677069Y-45330658D01*
X87675807Y-45339431D01*
X87675806Y-45339437D01*
X87658872Y-45457222D01*
X87657610Y-45466000D01*
X55245000Y-45466000D01*
X55245000Y-43740500D01*
X78900110Y-43740500D01*
X78901372Y-43749278D01*
X78918306Y-43867062D01*
X78918307Y-43867066D01*
X78919569Y-43875842D01*
X78923253Y-43883910D01*
X78923254Y-43883911D01*
X78944109Y-43929578D01*
X78976370Y-44000218D01*
X78982177Y-44006920D01*
X78982178Y-44006921D01*
X79060104Y-44096854D01*
X79060106Y-44096856D01*
X79065911Y-44103555D01*
X79073365Y-44108345D01*
X79073367Y-44108347D01*
X79173479Y-44172684D01*
X79180939Y-44177478D01*
X79312133Y-44216000D01*
X79439997Y-44216000D01*
X79448867Y-44216000D01*
X79516981Y-44196000D01*
X87911610Y-44196000D01*
X87912872Y-44204778D01*
X87929806Y-44322562D01*
X87929807Y-44322566D01*
X87931069Y-44331342D01*
X87987870Y-44455718D01*
X87993677Y-44462420D01*
X87993678Y-44462421D01*
X88071604Y-44552354D01*
X88071606Y-44552356D01*
X88077411Y-44559055D01*
X88084865Y-44563845D01*
X88084867Y-44563847D01*
X88184979Y-44628184D01*
X88192439Y-44632978D01*
X88323633Y-44671500D01*
X88451497Y-44671500D01*
X88460367Y-44671500D01*
X88591561Y-44632978D01*
X88706589Y-44559055D01*
X88796130Y-44455718D01*
X88852931Y-44331342D01*
X88872390Y-44196000D01*
X88852931Y-44060658D01*
X88796130Y-43936282D01*
X88743759Y-43875842D01*
X88712395Y-43839645D01*
X88712393Y-43839643D01*
X88706589Y-43832945D01*
X88699135Y-43828154D01*
X88699132Y-43828152D01*
X88599020Y-43763815D01*
X88599017Y-43763813D01*
X88591561Y-43759022D01*
X88583055Y-43756524D01*
X88583052Y-43756523D01*
X88498586Y-43731722D01*
X88460367Y-43720500D01*
X88323633Y-43720500D01*
X88315122Y-43722998D01*
X88315122Y-43722999D01*
X88200947Y-43756523D01*
X88200941Y-43756525D01*
X88192439Y-43759022D01*
X88184985Y-43763812D01*
X88184979Y-43763815D01*
X88084867Y-43828152D01*
X88084860Y-43828157D01*
X88077411Y-43832945D01*
X88071609Y-43839639D01*
X88071604Y-43839645D01*
X87993678Y-43929578D01*
X87993675Y-43929582D01*
X87987870Y-43936282D01*
X87984188Y-43944344D01*
X87984185Y-43944349D01*
X87934754Y-44052588D01*
X87931069Y-44060658D01*
X87929807Y-44069431D01*
X87929806Y-44069437D01*
X87924901Y-44103555D01*
X87911610Y-44196000D01*
X79516981Y-44196000D01*
X79580061Y-44177478D01*
X79695089Y-44103555D01*
X79784630Y-44000218D01*
X79841431Y-43875842D01*
X79860890Y-43740500D01*
X79858014Y-43720500D01*
X79842693Y-43613937D01*
X79841431Y-43605158D01*
X79784630Y-43480782D01*
X79715933Y-43401500D01*
X79700895Y-43384145D01*
X79700893Y-43384143D01*
X79695089Y-43377445D01*
X79687635Y-43372654D01*
X79687632Y-43372652D01*
X79587520Y-43308315D01*
X79587517Y-43308313D01*
X79580061Y-43303522D01*
X79571555Y-43301024D01*
X79571552Y-43301023D01*
X79492839Y-43277911D01*
X79448867Y-43265000D01*
X79312133Y-43265000D01*
X79303622Y-43267498D01*
X79303622Y-43267499D01*
X79189447Y-43301023D01*
X79189441Y-43301025D01*
X79180939Y-43303522D01*
X79173485Y-43308312D01*
X79173479Y-43308315D01*
X79073367Y-43372652D01*
X79073360Y-43372657D01*
X79065911Y-43377445D01*
X79060109Y-43384139D01*
X79060104Y-43384145D01*
X78982178Y-43474078D01*
X78982175Y-43474082D01*
X78976370Y-43480782D01*
X78972688Y-43488844D01*
X78972685Y-43488849D01*
X78923254Y-43597088D01*
X78919569Y-43605158D01*
X78918307Y-43613931D01*
X78918306Y-43613937D01*
X78902626Y-43722999D01*
X78900110Y-43740500D01*
X55245000Y-43740500D01*
X55245000Y-43000000D01*
X62519610Y-43000000D01*
X62520872Y-43008778D01*
X62537806Y-43126562D01*
X62537807Y-43126566D01*
X62539069Y-43135342D01*
X62542753Y-43143410D01*
X62542754Y-43143411D01*
X62581719Y-43228733D01*
X62595870Y-43259718D01*
X62601677Y-43266420D01*
X62601678Y-43266421D01*
X62679604Y-43356354D01*
X62679606Y-43356356D01*
X62685411Y-43363055D01*
X62692865Y-43367845D01*
X62692867Y-43367847D01*
X62718228Y-43384145D01*
X62800439Y-43436978D01*
X62931633Y-43475500D01*
X63059497Y-43475500D01*
X63068367Y-43475500D01*
X63199561Y-43436978D01*
X63314589Y-43363055D01*
X63404130Y-43259718D01*
X63405768Y-43261137D01*
X63440568Y-43228733D01*
X63500000Y-43213563D01*
X63559432Y-43228733D01*
X63594231Y-43261137D01*
X63595870Y-43259718D01*
X63679604Y-43356354D01*
X63679606Y-43356356D01*
X63685411Y-43363055D01*
X63692865Y-43367845D01*
X63692867Y-43367847D01*
X63718228Y-43384145D01*
X63800439Y-43436978D01*
X63931633Y-43475500D01*
X64059497Y-43475500D01*
X64068367Y-43475500D01*
X64199561Y-43436978D01*
X64314589Y-43363055D01*
X64404130Y-43259718D01*
X64460931Y-43135342D01*
X64480390Y-43000000D01*
X64460931Y-42864658D01*
X64404130Y-42740282D01*
X64395654Y-42730500D01*
X64320395Y-42643645D01*
X64320393Y-42643643D01*
X64314589Y-42636945D01*
X64307135Y-42632154D01*
X64307132Y-42632152D01*
X64207020Y-42567815D01*
X64207017Y-42567813D01*
X64199561Y-42563022D01*
X64191055Y-42560524D01*
X64191052Y-42560523D01*
X64112339Y-42537411D01*
X64068367Y-42524500D01*
X63931633Y-42524500D01*
X63923122Y-42526998D01*
X63923122Y-42526999D01*
X63808947Y-42560523D01*
X63808941Y-42560525D01*
X63800439Y-42563022D01*
X63792985Y-42567812D01*
X63792979Y-42567815D01*
X63692867Y-42632152D01*
X63692860Y-42632157D01*
X63685411Y-42636945D01*
X63679609Y-42643639D01*
X63679604Y-42643645D01*
X63595870Y-42740282D01*
X63594233Y-42738863D01*
X63559424Y-42771270D01*
X63500000Y-42786436D01*
X63440576Y-42771270D01*
X63405766Y-42738863D01*
X63404130Y-42740282D01*
X63320395Y-42643645D01*
X63320393Y-42643643D01*
X63314589Y-42636945D01*
X63307135Y-42632154D01*
X63307132Y-42632152D01*
X63207020Y-42567815D01*
X63207017Y-42567813D01*
X63199561Y-42563022D01*
X63191055Y-42560524D01*
X63191052Y-42560523D01*
X63112339Y-42537411D01*
X63068367Y-42524500D01*
X62931633Y-42524500D01*
X62923122Y-42526998D01*
X62923122Y-42526999D01*
X62808947Y-42560523D01*
X62808941Y-42560525D01*
X62800439Y-42563022D01*
X62792985Y-42567812D01*
X62792979Y-42567815D01*
X62692867Y-42632152D01*
X62692860Y-42632157D01*
X62685411Y-42636945D01*
X62679609Y-42643639D01*
X62679604Y-42643645D01*
X62601678Y-42733578D01*
X62601675Y-42733582D01*
X62595870Y-42740282D01*
X62592188Y-42748344D01*
X62592185Y-42748349D01*
X62542754Y-42856588D01*
X62539069Y-42864658D01*
X62537807Y-42873431D01*
X62537806Y-42873437D01*
X62528987Y-42934778D01*
X62519610Y-43000000D01*
X55245000Y-43000000D01*
X55245000Y-42490500D01*
X78900110Y-42490500D01*
X78901372Y-42499278D01*
X78918306Y-42617062D01*
X78918307Y-42617066D01*
X78919569Y-42625842D01*
X78923253Y-42633910D01*
X78923254Y-42633911D01*
X78968770Y-42733578D01*
X78976370Y-42750218D01*
X78982177Y-42756920D01*
X78982178Y-42756921D01*
X79060104Y-42846854D01*
X79060106Y-42846856D01*
X79065911Y-42853555D01*
X79073365Y-42858345D01*
X79073367Y-42858347D01*
X79096848Y-42873437D01*
X79180939Y-42927478D01*
X79312133Y-42966000D01*
X79439997Y-42966000D01*
X79448867Y-42966000D01*
X79580061Y-42927478D01*
X79582361Y-42926000D01*
X87911610Y-42926000D01*
X87912872Y-42934778D01*
X87929806Y-43052562D01*
X87929807Y-43052566D01*
X87931069Y-43061342D01*
X87987870Y-43185718D01*
X87993677Y-43192420D01*
X87993678Y-43192421D01*
X88071604Y-43282354D01*
X88071606Y-43282356D01*
X88077411Y-43289055D01*
X88084865Y-43293845D01*
X88084867Y-43293847D01*
X88184979Y-43358184D01*
X88192439Y-43362978D01*
X88323633Y-43401500D01*
X88451497Y-43401500D01*
X88460367Y-43401500D01*
X88591561Y-43362978D01*
X88706589Y-43289055D01*
X88796130Y-43185718D01*
X88852931Y-43061342D01*
X88872390Y-42926000D01*
X88852931Y-42790658D01*
X88796130Y-42666282D01*
X88711947Y-42569129D01*
X88684495Y-42514286D01*
X88686684Y-42452993D01*
X88717980Y-42400246D01*
X88770726Y-42368951D01*
X88845561Y-42346978D01*
X88960589Y-42273055D01*
X89050130Y-42169718D01*
X89106931Y-42045342D01*
X89126390Y-41910000D01*
X89106931Y-41774658D01*
X89050130Y-41650282D01*
X89019992Y-41615500D01*
X88966395Y-41553645D01*
X88966393Y-41553643D01*
X88960589Y-41546945D01*
X88912199Y-41515847D01*
X88874680Y-41491735D01*
X88834332Y-41449419D01*
X88817859Y-41393319D01*
X88828925Y-41335907D01*
X88852931Y-41283342D01*
X88872390Y-41148000D01*
X88852931Y-41012658D01*
X88796130Y-40888282D01*
X88706589Y-40784945D01*
X88699135Y-40780154D01*
X88699132Y-40780152D01*
X88599020Y-40715815D01*
X88599017Y-40715813D01*
X88591561Y-40711022D01*
X88583055Y-40708524D01*
X88583052Y-40708523D01*
X88504339Y-40685411D01*
X88460367Y-40672500D01*
X88365531Y-40672500D01*
X88308711Y-40658715D01*
X88279705Y-40633582D01*
X88250038Y-40679744D01*
X88208503Y-40703723D01*
X88209014Y-40704840D01*
X88200945Y-40708524D01*
X88192439Y-40711022D01*
X88184985Y-40715812D01*
X88184979Y-40715815D01*
X88084867Y-40780152D01*
X88084860Y-40780157D01*
X88077411Y-40784945D01*
X88071609Y-40791639D01*
X88071604Y-40791645D01*
X87993678Y-40881578D01*
X87993675Y-40881582D01*
X87987870Y-40888282D01*
X87984188Y-40896344D01*
X87984185Y-40896349D01*
X87934754Y-41004588D01*
X87931069Y-41012658D01*
X87929807Y-41021431D01*
X87929806Y-41021437D01*
X87912872Y-41139222D01*
X87911610Y-41148000D01*
X87912872Y-41156778D01*
X87929806Y-41274562D01*
X87929807Y-41274566D01*
X87931069Y-41283342D01*
X87934753Y-41291410D01*
X87934754Y-41291411D01*
X87967835Y-41363849D01*
X87987870Y-41407718D01*
X87993677Y-41414420D01*
X87993678Y-41414421D01*
X88071604Y-41504354D01*
X88071606Y-41504356D01*
X88077411Y-41511055D01*
X88084865Y-41515845D01*
X88084867Y-41515847D01*
X88163319Y-41566264D01*
X88203667Y-41608579D01*
X88220139Y-41664678D01*
X88209075Y-41722090D01*
X88195945Y-41750842D01*
X88185069Y-41774658D01*
X88183807Y-41783431D01*
X88183806Y-41783437D01*
X88169647Y-41881921D01*
X88165610Y-41910000D01*
X88166872Y-41918778D01*
X88183806Y-42036562D01*
X88183807Y-42036566D01*
X88185069Y-42045342D01*
X88188753Y-42053410D01*
X88188754Y-42053411D01*
X88225650Y-42134203D01*
X88241870Y-42169718D01*
X88247677Y-42176420D01*
X88247678Y-42176421D01*
X88326051Y-42266869D01*
X88353504Y-42321713D01*
X88351315Y-42383006D01*
X88320020Y-42435752D01*
X88267274Y-42467048D01*
X88200946Y-42486524D01*
X88192439Y-42489022D01*
X88184985Y-42493812D01*
X88184979Y-42493815D01*
X88084867Y-42558152D01*
X88084860Y-42558157D01*
X88077411Y-42562945D01*
X88071609Y-42569639D01*
X88071604Y-42569645D01*
X87993678Y-42659578D01*
X87993675Y-42659582D01*
X87987870Y-42666282D01*
X87984188Y-42674344D01*
X87984185Y-42674349D01*
X87949537Y-42750218D01*
X87931069Y-42790658D01*
X87929807Y-42799431D01*
X87929806Y-42799437D01*
X87919167Y-42873437D01*
X87911610Y-42926000D01*
X79582361Y-42926000D01*
X79695089Y-42853555D01*
X79784630Y-42750218D01*
X79841431Y-42625842D01*
X79860890Y-42490500D01*
X79841431Y-42355158D01*
X79784630Y-42230782D01*
X79700940Y-42134197D01*
X79674151Y-42082234D01*
X79674151Y-42023766D01*
X79700940Y-41971802D01*
X79784630Y-41875218D01*
X79841431Y-41750842D01*
X79860890Y-41615500D01*
X79841431Y-41480158D01*
X79784630Y-41355782D01*
X79721861Y-41283342D01*
X79700895Y-41259145D01*
X79700893Y-41259143D01*
X79695089Y-41252445D01*
X79687635Y-41247654D01*
X79687632Y-41247652D01*
X79587520Y-41183315D01*
X79587517Y-41183313D01*
X79580061Y-41178522D01*
X79571555Y-41176024D01*
X79571552Y-41176023D01*
X79492839Y-41152911D01*
X79448867Y-41140000D01*
X79312133Y-41140000D01*
X79303622Y-41142498D01*
X79303622Y-41142499D01*
X79189447Y-41176023D01*
X79189441Y-41176025D01*
X79180939Y-41178522D01*
X79173485Y-41183312D01*
X79173479Y-41183315D01*
X79073367Y-41247652D01*
X79073360Y-41247657D01*
X79065911Y-41252445D01*
X79060109Y-41259139D01*
X79060104Y-41259145D01*
X78982178Y-41349078D01*
X78982175Y-41349082D01*
X78976370Y-41355782D01*
X78972688Y-41363844D01*
X78972685Y-41363849D01*
X78952651Y-41407718D01*
X78919569Y-41480158D01*
X78918307Y-41488931D01*
X78918306Y-41488937D01*
X78909003Y-41553645D01*
X78900110Y-41615500D01*
X78901372Y-41624278D01*
X78918306Y-41742062D01*
X78918307Y-41742066D01*
X78919569Y-41750842D01*
X78976370Y-41875218D01*
X78982175Y-41881917D01*
X78982178Y-41881921D01*
X79060056Y-41971798D01*
X79086848Y-42023766D01*
X79086848Y-42082234D01*
X79060056Y-42134202D01*
X78982178Y-42224078D01*
X78982175Y-42224082D01*
X78976370Y-42230782D01*
X78972688Y-42238844D01*
X78972685Y-42238849D01*
X78923254Y-42347088D01*
X78919569Y-42355158D01*
X78918307Y-42363931D01*
X78918306Y-42363937D01*
X78903482Y-42467048D01*
X78900110Y-42490500D01*
X55245000Y-42490500D01*
X55245000Y-39284794D01*
X55260118Y-39225459D01*
X55301785Y-39180591D01*
X55359842Y-39161133D01*
X55420132Y-39171827D01*
X55467953Y-39210066D01*
X55583851Y-39363540D01*
X55588087Y-39367401D01*
X55588091Y-39367406D01*
X55660679Y-39433578D01*
X55748270Y-39513428D01*
X55937431Y-39630551D01*
X56144892Y-39710922D01*
X56363589Y-39751804D01*
X56580346Y-39751804D01*
X56586075Y-39751804D01*
X56804772Y-39710922D01*
X56832965Y-39700000D01*
X62257610Y-39700000D01*
X62258872Y-39708778D01*
X62275806Y-39826562D01*
X62275807Y-39826566D01*
X62277069Y-39835342D01*
X62333870Y-39959718D01*
X62339677Y-39966420D01*
X62339678Y-39966421D01*
X62417604Y-40056354D01*
X62417606Y-40056356D01*
X62423411Y-40063055D01*
X62430865Y-40067845D01*
X62430867Y-40067847D01*
X62530979Y-40132184D01*
X62538439Y-40136978D01*
X62669633Y-40175500D01*
X62797497Y-40175500D01*
X62806367Y-40175500D01*
X62937561Y-40136978D01*
X63052589Y-40063055D01*
X63115458Y-39990500D01*
X87657610Y-39990500D01*
X87658872Y-39999278D01*
X87675806Y-40117062D01*
X87675807Y-40117066D01*
X87677069Y-40125842D01*
X87733870Y-40250218D01*
X87739677Y-40256920D01*
X87739678Y-40256921D01*
X87817604Y-40346854D01*
X87817606Y-40346856D01*
X87823411Y-40353555D01*
X87830865Y-40358345D01*
X87830867Y-40358347D01*
X87930979Y-40422684D01*
X87938439Y-40427478D01*
X88069633Y-40466000D01*
X88078503Y-40466000D01*
X88164469Y-40466000D01*
X88221289Y-40479785D01*
X88250294Y-40504917D01*
X88279962Y-40458756D01*
X88321496Y-40434776D01*
X88320986Y-40433660D01*
X88329051Y-40429976D01*
X88337561Y-40427478D01*
X88452589Y-40353555D01*
X88542130Y-40250218D01*
X88598931Y-40125842D01*
X88618390Y-39990500D01*
X88598931Y-39855158D01*
X88542130Y-39730782D01*
X88515458Y-39700000D01*
X88458395Y-39634145D01*
X88458393Y-39634143D01*
X88452589Y-39627445D01*
X88445135Y-39622654D01*
X88445132Y-39622652D01*
X88345020Y-39558315D01*
X88345017Y-39558313D01*
X88337561Y-39553522D01*
X88329055Y-39551024D01*
X88329052Y-39551023D01*
X88250339Y-39527911D01*
X88206367Y-39515000D01*
X88069633Y-39515000D01*
X88061122Y-39517498D01*
X88061122Y-39517499D01*
X87946947Y-39551023D01*
X87946941Y-39551025D01*
X87938439Y-39553522D01*
X87930985Y-39558312D01*
X87930979Y-39558315D01*
X87830867Y-39622652D01*
X87830860Y-39622657D01*
X87823411Y-39627445D01*
X87817609Y-39634139D01*
X87817604Y-39634145D01*
X87739678Y-39724078D01*
X87739675Y-39724082D01*
X87733870Y-39730782D01*
X87730188Y-39738844D01*
X87730185Y-39738849D01*
X87680754Y-39847088D01*
X87677069Y-39855158D01*
X87675807Y-39863931D01*
X87675806Y-39863937D01*
X87662036Y-39959718D01*
X87657610Y-39990500D01*
X63115458Y-39990500D01*
X63142130Y-39959718D01*
X63198931Y-39835342D01*
X63218390Y-39700000D01*
X63198931Y-39564658D01*
X63142130Y-39440282D01*
X63133654Y-39430500D01*
X63058395Y-39343645D01*
X63058393Y-39343643D01*
X63052589Y-39336945D01*
X63045135Y-39332154D01*
X63045132Y-39332152D01*
X62945020Y-39267815D01*
X62945017Y-39267813D01*
X62937561Y-39263022D01*
X62929055Y-39260524D01*
X62929052Y-39260523D01*
X62850339Y-39237411D01*
X62806367Y-39224500D01*
X62669633Y-39224500D01*
X62661122Y-39226998D01*
X62661122Y-39226999D01*
X62546947Y-39260523D01*
X62546941Y-39260525D01*
X62538439Y-39263022D01*
X62530985Y-39267812D01*
X62530979Y-39267815D01*
X62430867Y-39332152D01*
X62430860Y-39332157D01*
X62423411Y-39336945D01*
X62417609Y-39343639D01*
X62417604Y-39343645D01*
X62339678Y-39433578D01*
X62339675Y-39433582D01*
X62333870Y-39440282D01*
X62330188Y-39448344D01*
X62330185Y-39448349D01*
X62280754Y-39556588D01*
X62277069Y-39564658D01*
X62275807Y-39573431D01*
X62275806Y-39573437D01*
X62267078Y-39634145D01*
X62257610Y-39700000D01*
X56832965Y-39700000D01*
X57012233Y-39630551D01*
X57201394Y-39513428D01*
X57365813Y-39363540D01*
X57499890Y-39185993D01*
X57599061Y-38986832D01*
X57659947Y-38772840D01*
X57680475Y-38551304D01*
X57659947Y-38329768D01*
X57608371Y-38148498D01*
X57600630Y-38121290D01*
X57600629Y-38121288D01*
X57599061Y-38115776D01*
X57586475Y-38090500D01*
X80438110Y-38090500D01*
X80439372Y-38099278D01*
X80456306Y-38217062D01*
X80456307Y-38217066D01*
X80457569Y-38225842D01*
X80461253Y-38233910D01*
X80461254Y-38233911D01*
X80509177Y-38338849D01*
X80514370Y-38350218D01*
X80520177Y-38356920D01*
X80520178Y-38356921D01*
X80598104Y-38446854D01*
X80598106Y-38446856D01*
X80603911Y-38453555D01*
X80611365Y-38458345D01*
X80611367Y-38458347D01*
X80661399Y-38490500D01*
X80718939Y-38527478D01*
X80850133Y-38566000D01*
X80977997Y-38566000D01*
X80986867Y-38566000D01*
X81118061Y-38527478D01*
X81233089Y-38453555D01*
X81322630Y-38350218D01*
X81324263Y-38346640D01*
X81367073Y-38306783D01*
X81426500Y-38291615D01*
X81485927Y-38306783D01*
X81528736Y-38346640D01*
X81530370Y-38350218D01*
X81536177Y-38356920D01*
X81536178Y-38356921D01*
X81614104Y-38446854D01*
X81614106Y-38446856D01*
X81619911Y-38453555D01*
X81627365Y-38458345D01*
X81627367Y-38458347D01*
X81677399Y-38490500D01*
X81734939Y-38527478D01*
X81866133Y-38566000D01*
X81993997Y-38566000D01*
X82002867Y-38566000D01*
X82011377Y-38563500D01*
X82020155Y-38562239D01*
X82020496Y-38564615D01*
X82055973Y-38562056D01*
X82105394Y-38580463D01*
X82142696Y-38617744D01*
X82161131Y-38667155D01*
X82168306Y-38717063D01*
X82168307Y-38717068D01*
X82169569Y-38725842D01*
X82173253Y-38733910D01*
X82173254Y-38733911D01*
X82219369Y-38834890D01*
X82226370Y-38850218D01*
X82232177Y-38856920D01*
X82232178Y-38856921D01*
X82310104Y-38946854D01*
X82310106Y-38946856D01*
X82315911Y-38953555D01*
X82323365Y-38958345D01*
X82323367Y-38958347D01*
X82369263Y-38987842D01*
X82430939Y-39027478D01*
X82562133Y-39066000D01*
X82689997Y-39066000D01*
X82698867Y-39066000D01*
X82830061Y-39027478D01*
X82945089Y-38953555D01*
X83020539Y-38866479D01*
X83062738Y-38834890D01*
X83114250Y-38823684D01*
X83165762Y-38834890D01*
X83207960Y-38866479D01*
X83283411Y-38953555D01*
X83290865Y-38958345D01*
X83290867Y-38958347D01*
X83336763Y-38987842D01*
X83398439Y-39027478D01*
X83529633Y-39066000D01*
X83657497Y-39066000D01*
X83666367Y-39066000D01*
X83797561Y-39027478D01*
X83912589Y-38953555D01*
X84002130Y-38850218D01*
X84058931Y-38725842D01*
X84078390Y-38590500D01*
X84074867Y-38566000D01*
X84068640Y-38522684D01*
X84064013Y-38490500D01*
X84650110Y-38490500D01*
X84651372Y-38499278D01*
X84668306Y-38617062D01*
X84668307Y-38617066D01*
X84669569Y-38625842D01*
X84673253Y-38633910D01*
X84673254Y-38633911D01*
X84718922Y-38733911D01*
X84726370Y-38750218D01*
X84732177Y-38756920D01*
X84732178Y-38756921D01*
X84810104Y-38846854D01*
X84810106Y-38846856D01*
X84815911Y-38853555D01*
X84823365Y-38858345D01*
X84823367Y-38858347D01*
X84923479Y-38922684D01*
X84930939Y-38927478D01*
X85062133Y-38966000D01*
X85189997Y-38966000D01*
X85198867Y-38966000D01*
X85330061Y-38927478D01*
X85445089Y-38853555D01*
X85446003Y-38852500D01*
X86627750Y-38852500D01*
X86629012Y-38861278D01*
X86645946Y-38979062D01*
X86645947Y-38979066D01*
X86647209Y-38987842D01*
X86704010Y-39112218D01*
X86709817Y-39118920D01*
X86709818Y-39118921D01*
X86787744Y-39208854D01*
X86787746Y-39208856D01*
X86793551Y-39215555D01*
X86801005Y-39220345D01*
X86801007Y-39220347D01*
X86867412Y-39263022D01*
X86908579Y-39289478D01*
X87039773Y-39328000D01*
X87167637Y-39328000D01*
X87176507Y-39328000D01*
X87307701Y-39289478D01*
X87422729Y-39215555D01*
X87512270Y-39112218D01*
X87569071Y-38987842D01*
X87588530Y-38852500D01*
X87569071Y-38717158D01*
X87512270Y-38592782D01*
X87489064Y-38566000D01*
X87428535Y-38496145D01*
X87428533Y-38496143D01*
X87422729Y-38489445D01*
X87415275Y-38484654D01*
X87415272Y-38484652D01*
X87315160Y-38420315D01*
X87315157Y-38420313D01*
X87307701Y-38415522D01*
X87299195Y-38413024D01*
X87299192Y-38413023D01*
X87220479Y-38389911D01*
X87176507Y-38377000D01*
X87039773Y-38377000D01*
X87031262Y-38379498D01*
X87031262Y-38379499D01*
X86917087Y-38413023D01*
X86917081Y-38413025D01*
X86908579Y-38415522D01*
X86901125Y-38420312D01*
X86901119Y-38420315D01*
X86801007Y-38484652D01*
X86801000Y-38484657D01*
X86793551Y-38489445D01*
X86787749Y-38496139D01*
X86787744Y-38496145D01*
X86709818Y-38586078D01*
X86709815Y-38586082D01*
X86704010Y-38592782D01*
X86700328Y-38600844D01*
X86700325Y-38600849D01*
X86650894Y-38709088D01*
X86647209Y-38717158D01*
X86645947Y-38725931D01*
X86645946Y-38725937D01*
X86639203Y-38772840D01*
X86627750Y-38852500D01*
X85446003Y-38852500D01*
X85534630Y-38750218D01*
X85591431Y-38625842D01*
X85610890Y-38490500D01*
X85591431Y-38355158D01*
X85534630Y-38230782D01*
X85509997Y-38202354D01*
X85450895Y-38134145D01*
X85450893Y-38134143D01*
X85445089Y-38127445D01*
X85437635Y-38122654D01*
X85437632Y-38122652D01*
X85337520Y-38058315D01*
X85337517Y-38058313D01*
X85330061Y-38053522D01*
X85321555Y-38051024D01*
X85321552Y-38051023D01*
X85242839Y-38027911D01*
X85198867Y-38015000D01*
X85062133Y-38015000D01*
X85053622Y-38017498D01*
X85053622Y-38017499D01*
X84939447Y-38051023D01*
X84939441Y-38051025D01*
X84930939Y-38053522D01*
X84923485Y-38058312D01*
X84923479Y-38058315D01*
X84823367Y-38122652D01*
X84823360Y-38122657D01*
X84815911Y-38127445D01*
X84810109Y-38134139D01*
X84810104Y-38134145D01*
X84732178Y-38224078D01*
X84732175Y-38224082D01*
X84726370Y-38230782D01*
X84722688Y-38238844D01*
X84722685Y-38238849D01*
X84673254Y-38347088D01*
X84669569Y-38355158D01*
X84668307Y-38363931D01*
X84668306Y-38363937D01*
X84655422Y-38453555D01*
X84650110Y-38490500D01*
X84064013Y-38490500D01*
X84058931Y-38455158D01*
X84002130Y-38330782D01*
X83932697Y-38250651D01*
X83918395Y-38234145D01*
X83918392Y-38234142D01*
X83912589Y-38227445D01*
X83905135Y-38222654D01*
X83905132Y-38222652D01*
X83805020Y-38158315D01*
X83805017Y-38158313D01*
X83797561Y-38153522D01*
X83789055Y-38151024D01*
X83789052Y-38151023D01*
X83692427Y-38122652D01*
X83666367Y-38115000D01*
X83529633Y-38115000D01*
X83521122Y-38117498D01*
X83521122Y-38117499D01*
X83406947Y-38151023D01*
X83406941Y-38151025D01*
X83398439Y-38153522D01*
X83390985Y-38158312D01*
X83390979Y-38158315D01*
X83290867Y-38222652D01*
X83290860Y-38222657D01*
X83283411Y-38227445D01*
X83217746Y-38303228D01*
X83207963Y-38314518D01*
X83165762Y-38346109D01*
X83114250Y-38357315D01*
X83062738Y-38346109D01*
X83020537Y-38314518D01*
X83013835Y-38306783D01*
X82945089Y-38227445D01*
X82937635Y-38222654D01*
X82937632Y-38222652D01*
X82837520Y-38158315D01*
X82837517Y-38158313D01*
X82830061Y-38153522D01*
X82821555Y-38151024D01*
X82821552Y-38151023D01*
X82724927Y-38122652D01*
X82698867Y-38115000D01*
X82562133Y-38115000D01*
X82553622Y-38117499D01*
X82544845Y-38118761D01*
X82544332Y-38115199D01*
X82491569Y-38115143D01*
X82432858Y-38077358D01*
X82403868Y-38013842D01*
X82403572Y-38011785D01*
X82395431Y-37955158D01*
X82345580Y-37846000D01*
X85879610Y-37846000D01*
X85880872Y-37854778D01*
X85897806Y-37972562D01*
X85897807Y-37972566D01*
X85899069Y-37981342D01*
X85902753Y-37989410D01*
X85902754Y-37989411D01*
X85936961Y-38064315D01*
X85955870Y-38105718D01*
X85961677Y-38112420D01*
X85961678Y-38112421D01*
X86039604Y-38202354D01*
X86039606Y-38202356D01*
X86045411Y-38209055D01*
X86052865Y-38213845D01*
X86052867Y-38213847D01*
X86152979Y-38278184D01*
X86160439Y-38282978D01*
X86291633Y-38321500D01*
X86419497Y-38321500D01*
X86428367Y-38321500D01*
X86559561Y-38282978D01*
X86674589Y-38209055D01*
X86764130Y-38105718D01*
X86820931Y-37981342D01*
X86840390Y-37846000D01*
X86820931Y-37710658D01*
X86764130Y-37586282D01*
X86674589Y-37482945D01*
X86667135Y-37478154D01*
X86667132Y-37478152D01*
X86567020Y-37413815D01*
X86567017Y-37413813D01*
X86559561Y-37409022D01*
X86551055Y-37406524D01*
X86551052Y-37406523D01*
X86472339Y-37383411D01*
X86428367Y-37370500D01*
X86291633Y-37370500D01*
X86283122Y-37372998D01*
X86283122Y-37372999D01*
X86168947Y-37406523D01*
X86168941Y-37406525D01*
X86160439Y-37409022D01*
X86152985Y-37413812D01*
X86152979Y-37413815D01*
X86052867Y-37478152D01*
X86052860Y-37478157D01*
X86045411Y-37482945D01*
X86039609Y-37489639D01*
X86039604Y-37489645D01*
X85961678Y-37579578D01*
X85961675Y-37579582D01*
X85955870Y-37586282D01*
X85952188Y-37594344D01*
X85952185Y-37594349D01*
X85925162Y-37653522D01*
X85899069Y-37710658D01*
X85897807Y-37719431D01*
X85897806Y-37719437D01*
X85881798Y-37830782D01*
X85879610Y-37846000D01*
X82345580Y-37846000D01*
X82338630Y-37830782D01*
X82270196Y-37751804D01*
X82254895Y-37734145D01*
X82254893Y-37734143D01*
X82249089Y-37727445D01*
X82241635Y-37722654D01*
X82241632Y-37722652D01*
X82141520Y-37658315D01*
X82141517Y-37658313D01*
X82134061Y-37653522D01*
X82125555Y-37651024D01*
X82125552Y-37651023D01*
X82046839Y-37627911D01*
X82002867Y-37615000D01*
X81866133Y-37615000D01*
X81857622Y-37617498D01*
X81857622Y-37617499D01*
X81743447Y-37651023D01*
X81743441Y-37651025D01*
X81734939Y-37653522D01*
X81727485Y-37658312D01*
X81727479Y-37658315D01*
X81627367Y-37722652D01*
X81627360Y-37722657D01*
X81619911Y-37727445D01*
X81614109Y-37734139D01*
X81614104Y-37734145D01*
X81536179Y-37824078D01*
X81530370Y-37830782D01*
X81528736Y-37834359D01*
X81485926Y-37874217D01*
X81426500Y-37889384D01*
X81367074Y-37874217D01*
X81324263Y-37834359D01*
X81322630Y-37830782D01*
X81254196Y-37751804D01*
X81238895Y-37734145D01*
X81238893Y-37734143D01*
X81233089Y-37727445D01*
X81225635Y-37722654D01*
X81225632Y-37722652D01*
X81125520Y-37658315D01*
X81125517Y-37658313D01*
X81118061Y-37653522D01*
X81109555Y-37651024D01*
X81109552Y-37651023D01*
X81030839Y-37627911D01*
X80986867Y-37615000D01*
X80850133Y-37615000D01*
X80841622Y-37617498D01*
X80841622Y-37617499D01*
X80727447Y-37651023D01*
X80727441Y-37651025D01*
X80718939Y-37653522D01*
X80711485Y-37658312D01*
X80711479Y-37658315D01*
X80611367Y-37722652D01*
X80611360Y-37722657D01*
X80603911Y-37727445D01*
X80598109Y-37734139D01*
X80598104Y-37734145D01*
X80520178Y-37824078D01*
X80520177Y-37824080D01*
X80514370Y-37830782D01*
X80510688Y-37838844D01*
X80510685Y-37838849D01*
X80461254Y-37947088D01*
X80457569Y-37955158D01*
X80456307Y-37963931D01*
X80456306Y-37963937D01*
X80439372Y-38081722D01*
X80438110Y-38090500D01*
X57586475Y-38090500D01*
X57499890Y-37916615D01*
X57496437Y-37912042D01*
X57369270Y-37743645D01*
X57369266Y-37743641D01*
X57365813Y-37739068D01*
X57361576Y-37735205D01*
X57361572Y-37735201D01*
X57205628Y-37593040D01*
X57205629Y-37593040D01*
X57201394Y-37589180D01*
X57196524Y-37586165D01*
X57196522Y-37586163D01*
X57017107Y-37475075D01*
X57017108Y-37475075D01*
X57012233Y-37472057D01*
X56861893Y-37413815D01*
X56810118Y-37393757D01*
X56810117Y-37393756D01*
X56804772Y-37391686D01*
X56799134Y-37390632D01*
X56591704Y-37351856D01*
X56591701Y-37351855D01*
X56586075Y-37350804D01*
X56363589Y-37350804D01*
X56357963Y-37351855D01*
X56357959Y-37351856D01*
X56150529Y-37390632D01*
X56150526Y-37390632D01*
X56144892Y-37391686D01*
X56139549Y-37393755D01*
X56139545Y-37393757D01*
X55942773Y-37469987D01*
X55942768Y-37469989D01*
X55937431Y-37472057D01*
X55932559Y-37475073D01*
X55932556Y-37475075D01*
X55753141Y-37586163D01*
X55753133Y-37586168D01*
X55748270Y-37589180D01*
X55744039Y-37593036D01*
X55744035Y-37593040D01*
X55588091Y-37735201D01*
X55588081Y-37735211D01*
X55583851Y-37739068D01*
X55580397Y-37743641D01*
X55580394Y-37743645D01*
X55519653Y-37824080D01*
X55481792Y-37874217D01*
X55467954Y-37892541D01*
X55420132Y-37930781D01*
X55359842Y-37941475D01*
X55301785Y-37922017D01*
X55260118Y-37877149D01*
X55245000Y-37817814D01*
X55245000Y-36820500D01*
X83486110Y-36820500D01*
X83487372Y-36829278D01*
X83504306Y-36947062D01*
X83504307Y-36947066D01*
X83505569Y-36955842D01*
X83562370Y-37080218D01*
X83568177Y-37086920D01*
X83568178Y-37086921D01*
X83646104Y-37176854D01*
X83646106Y-37176856D01*
X83651911Y-37183555D01*
X83659365Y-37188345D01*
X83659367Y-37188347D01*
X83759479Y-37252684D01*
X83766939Y-37257478D01*
X83898133Y-37296000D01*
X84025997Y-37296000D01*
X84034867Y-37296000D01*
X84166061Y-37257478D01*
X84281089Y-37183555D01*
X84370630Y-37080218D01*
X84427431Y-36955842D01*
X84446890Y-36820500D01*
X84427431Y-36685158D01*
X84370630Y-36560782D01*
X84281089Y-36457445D01*
X84273635Y-36452654D01*
X84273632Y-36452652D01*
X84173520Y-36388315D01*
X84173517Y-36388313D01*
X84166061Y-36383522D01*
X84157555Y-36381024D01*
X84157552Y-36381023D01*
X84078839Y-36357911D01*
X84034867Y-36345000D01*
X83898133Y-36345000D01*
X83889622Y-36347498D01*
X83889622Y-36347499D01*
X83775447Y-36381023D01*
X83775441Y-36381025D01*
X83766939Y-36383522D01*
X83759485Y-36388312D01*
X83759479Y-36388315D01*
X83659367Y-36452652D01*
X83659360Y-36452657D01*
X83651911Y-36457445D01*
X83646109Y-36464139D01*
X83646104Y-36464145D01*
X83568178Y-36554078D01*
X83568175Y-36554082D01*
X83562370Y-36560782D01*
X83558688Y-36568844D01*
X83558685Y-36568849D01*
X83509254Y-36677088D01*
X83505569Y-36685158D01*
X83504307Y-36693931D01*
X83504306Y-36693937D01*
X83487372Y-36811722D01*
X83486110Y-36820500D01*
X55245000Y-36820500D01*
X55245000Y-36061802D01*
X55259685Y-36003269D01*
X55300260Y-35958599D01*
X55357116Y-35938373D01*
X55373942Y-35936753D01*
X55673938Y-35872986D01*
X55964787Y-35775670D01*
X56242749Y-35646053D01*
X56504252Y-35485804D01*
X56745933Y-35296982D01*
X56964686Y-35082015D01*
X57157697Y-34843666D01*
X57322486Y-34585000D01*
X57456934Y-34309342D01*
X57559312Y-34020236D01*
X57614313Y-33782000D01*
X65305610Y-33782000D01*
X65306872Y-33790778D01*
X65323806Y-33908562D01*
X65323807Y-33908566D01*
X65325069Y-33917342D01*
X65381870Y-34041718D01*
X65387677Y-34048420D01*
X65387678Y-34048421D01*
X65465604Y-34138354D01*
X65465606Y-34138356D01*
X65471411Y-34145055D01*
X65478865Y-34149845D01*
X65478867Y-34149847D01*
X65578979Y-34214184D01*
X65586439Y-34218978D01*
X65717633Y-34257500D01*
X65845497Y-34257500D01*
X65854367Y-34257500D01*
X65985561Y-34218978D01*
X66100589Y-34145055D01*
X66190130Y-34041718D01*
X66246931Y-33917342D01*
X66266390Y-33782000D01*
X66246931Y-33646658D01*
X66190130Y-33522282D01*
X66135709Y-33459476D01*
X66106395Y-33425645D01*
X66106393Y-33425643D01*
X66100589Y-33418945D01*
X66093135Y-33414154D01*
X66093132Y-33414152D01*
X65993020Y-33349815D01*
X65993017Y-33349813D01*
X65985561Y-33345022D01*
X65977055Y-33342524D01*
X65977052Y-33342523D01*
X65898339Y-33319411D01*
X65854367Y-33306500D01*
X65717633Y-33306500D01*
X65709122Y-33308998D01*
X65709122Y-33308999D01*
X65594947Y-33342523D01*
X65594941Y-33342525D01*
X65586439Y-33345022D01*
X65578985Y-33349812D01*
X65578979Y-33349815D01*
X65478867Y-33414152D01*
X65478860Y-33414157D01*
X65471411Y-33418945D01*
X65465609Y-33425639D01*
X65465604Y-33425645D01*
X65387678Y-33515578D01*
X65387675Y-33515582D01*
X65381870Y-33522282D01*
X65378188Y-33530344D01*
X65378185Y-33530349D01*
X65368110Y-33552411D01*
X65325069Y-33646658D01*
X65323807Y-33655431D01*
X65323806Y-33655437D01*
X65306872Y-33773222D01*
X65305610Y-33782000D01*
X57614313Y-33782000D01*
X57628304Y-33721398D01*
X57663023Y-33416672D01*
X57662963Y-33263323D01*
X57662963Y-33223441D01*
X57662963Y-33020000D01*
X63781610Y-33020000D01*
X63782872Y-33028778D01*
X63799806Y-33146562D01*
X63799807Y-33146566D01*
X63801069Y-33155342D01*
X63804753Y-33163410D01*
X63804754Y-33163411D01*
X63850382Y-33263323D01*
X63857870Y-33279718D01*
X63863677Y-33286420D01*
X63863678Y-33286421D01*
X63941604Y-33376354D01*
X63941606Y-33376356D01*
X63947411Y-33383055D01*
X63954865Y-33387845D01*
X63954867Y-33387847D01*
X64005176Y-33420178D01*
X64062439Y-33456978D01*
X64193633Y-33495500D01*
X64321497Y-33495500D01*
X64330367Y-33495500D01*
X64461561Y-33456978D01*
X64576589Y-33383055D01*
X64666130Y-33279718D01*
X64722931Y-33155342D01*
X64742390Y-33020000D01*
X64722931Y-32884658D01*
X64666130Y-32760282D01*
X64576589Y-32656945D01*
X64569135Y-32652154D01*
X64569132Y-32652152D01*
X64469020Y-32587815D01*
X64469017Y-32587813D01*
X64461561Y-32583022D01*
X64453055Y-32580524D01*
X64453052Y-32580523D01*
X64374339Y-32557411D01*
X64330367Y-32544500D01*
X64193633Y-32544500D01*
X64185122Y-32546998D01*
X64185122Y-32546999D01*
X64070947Y-32580523D01*
X64070941Y-32580525D01*
X64062439Y-32583022D01*
X64054985Y-32587812D01*
X64054979Y-32587815D01*
X63954867Y-32652152D01*
X63954860Y-32652157D01*
X63947411Y-32656945D01*
X63941609Y-32663639D01*
X63941604Y-32663645D01*
X63863678Y-32753578D01*
X63863675Y-32753582D01*
X63857870Y-32760282D01*
X63854188Y-32768344D01*
X63854185Y-32768349D01*
X63804754Y-32876588D01*
X63801069Y-32884658D01*
X63799807Y-32893431D01*
X63799806Y-32893437D01*
X63782872Y-33011222D01*
X63781610Y-33020000D01*
X57662963Y-33020000D01*
X57662963Y-32000000D01*
X76019610Y-32000000D01*
X76020872Y-32008778D01*
X76037806Y-32126562D01*
X76037807Y-32126566D01*
X76039069Y-32135342D01*
X76095870Y-32259718D01*
X76101677Y-32266420D01*
X76101678Y-32266421D01*
X76179604Y-32356354D01*
X76179606Y-32356356D01*
X76185411Y-32363055D01*
X76192865Y-32367845D01*
X76192867Y-32367847D01*
X76292979Y-32432184D01*
X76300439Y-32436978D01*
X76431633Y-32475500D01*
X76559497Y-32475500D01*
X76568367Y-32475500D01*
X76699561Y-32436978D01*
X76814589Y-32363055D01*
X76904130Y-32259718D01*
X76960931Y-32135342D01*
X76980390Y-32000000D01*
X76960931Y-31864658D01*
X76904130Y-31740282D01*
X76814589Y-31636945D01*
X76807135Y-31632154D01*
X76807132Y-31632152D01*
X76707020Y-31567815D01*
X76707017Y-31567813D01*
X76699561Y-31563022D01*
X76691055Y-31560524D01*
X76691052Y-31560523D01*
X76612339Y-31537411D01*
X76568367Y-31524500D01*
X76431633Y-31524500D01*
X76423122Y-31526998D01*
X76423122Y-31526999D01*
X76308947Y-31560523D01*
X76308941Y-31560525D01*
X76300439Y-31563022D01*
X76292985Y-31567812D01*
X76292979Y-31567815D01*
X76192867Y-31632152D01*
X76192860Y-31632157D01*
X76185411Y-31636945D01*
X76179609Y-31643639D01*
X76179604Y-31643645D01*
X76101678Y-31733578D01*
X76101675Y-31733582D01*
X76095870Y-31740282D01*
X76092188Y-31748344D01*
X76092185Y-31748349D01*
X76042754Y-31856588D01*
X76039069Y-31864658D01*
X76037807Y-31873431D01*
X76037806Y-31873437D01*
X76020872Y-31991222D01*
X76019610Y-32000000D01*
X57662963Y-32000000D01*
X57662963Y-29840795D01*
X61241610Y-29840795D01*
X61242872Y-29849573D01*
X61259806Y-29967357D01*
X61259807Y-29967361D01*
X61261069Y-29976137D01*
X61317870Y-30100513D01*
X61323677Y-30107215D01*
X61323678Y-30107216D01*
X61401604Y-30197149D01*
X61401606Y-30197151D01*
X61407411Y-30203850D01*
X61414865Y-30208640D01*
X61414867Y-30208642D01*
X61514979Y-30272979D01*
X61522439Y-30277773D01*
X61653633Y-30316295D01*
X61781497Y-30316295D01*
X61790367Y-30316295D01*
X61921561Y-30277773D01*
X62036589Y-30203850D01*
X62126130Y-30100513D01*
X62182931Y-29976137D01*
X62202390Y-29840795D01*
X63781610Y-29840795D01*
X63782872Y-29849573D01*
X63799806Y-29967357D01*
X63799807Y-29967361D01*
X63801069Y-29976137D01*
X63857870Y-30100513D01*
X63863677Y-30107215D01*
X63863678Y-30107216D01*
X63941604Y-30197149D01*
X63941606Y-30197151D01*
X63947411Y-30203850D01*
X63954865Y-30208640D01*
X63954867Y-30208642D01*
X64054979Y-30272979D01*
X64062439Y-30277773D01*
X64193633Y-30316295D01*
X64321497Y-30316295D01*
X64330367Y-30316295D01*
X64461561Y-30277773D01*
X64576589Y-30203850D01*
X64666130Y-30100513D01*
X64722931Y-29976137D01*
X64742390Y-29840795D01*
X74725237Y-29840795D01*
X74726499Y-29849573D01*
X74743433Y-29967357D01*
X74743434Y-29967361D01*
X74744696Y-29976137D01*
X74801497Y-30100513D01*
X74807304Y-30107215D01*
X74807305Y-30107216D01*
X74885231Y-30197149D01*
X74885233Y-30197151D01*
X74891038Y-30203850D01*
X74898492Y-30208640D01*
X74898494Y-30208642D01*
X74998606Y-30272979D01*
X75006066Y-30277773D01*
X75137260Y-30316295D01*
X75265124Y-30316295D01*
X75273994Y-30316295D01*
X75405188Y-30277773D01*
X75520216Y-30203850D01*
X75609757Y-30100513D01*
X75666558Y-29976137D01*
X75686017Y-29840795D01*
X75666558Y-29705453D01*
X75609757Y-29581077D01*
X75520216Y-29477740D01*
X75512762Y-29472949D01*
X75512759Y-29472947D01*
X75412647Y-29408610D01*
X75412644Y-29408608D01*
X75405188Y-29403817D01*
X75396682Y-29401319D01*
X75396679Y-29401318D01*
X75317966Y-29378206D01*
X75273994Y-29365295D01*
X75137260Y-29365295D01*
X75128749Y-29367793D01*
X75128749Y-29367794D01*
X75014574Y-29401318D01*
X75014568Y-29401320D01*
X75006066Y-29403817D01*
X74998612Y-29408607D01*
X74998606Y-29408610D01*
X74898494Y-29472947D01*
X74898487Y-29472952D01*
X74891038Y-29477740D01*
X74885236Y-29484434D01*
X74885231Y-29484440D01*
X74807305Y-29574373D01*
X74807302Y-29574377D01*
X74801497Y-29581077D01*
X74797815Y-29589139D01*
X74797812Y-29589144D01*
X74748381Y-29697383D01*
X74744696Y-29705453D01*
X74743434Y-29714226D01*
X74743433Y-29714232D01*
X74726499Y-29832017D01*
X74725237Y-29840795D01*
X64742390Y-29840795D01*
X64722931Y-29705453D01*
X64666130Y-29581077D01*
X64576589Y-29477740D01*
X64569135Y-29472949D01*
X64569132Y-29472947D01*
X64469020Y-29408610D01*
X64469017Y-29408608D01*
X64461561Y-29403817D01*
X64453055Y-29401319D01*
X64453052Y-29401318D01*
X64374339Y-29378206D01*
X64330367Y-29365295D01*
X64193633Y-29365295D01*
X64185122Y-29367793D01*
X64185122Y-29367794D01*
X64070947Y-29401318D01*
X64070941Y-29401320D01*
X64062439Y-29403817D01*
X64054985Y-29408607D01*
X64054979Y-29408610D01*
X63954867Y-29472947D01*
X63954860Y-29472952D01*
X63947411Y-29477740D01*
X63941609Y-29484434D01*
X63941604Y-29484440D01*
X63863678Y-29574373D01*
X63863675Y-29574377D01*
X63857870Y-29581077D01*
X63854188Y-29589139D01*
X63854185Y-29589144D01*
X63804754Y-29697383D01*
X63801069Y-29705453D01*
X63799807Y-29714226D01*
X63799806Y-29714232D01*
X63782872Y-29832017D01*
X63781610Y-29840795D01*
X62202390Y-29840795D01*
X62182931Y-29705453D01*
X62126130Y-29581077D01*
X62036589Y-29477740D01*
X62029135Y-29472949D01*
X62029132Y-29472947D01*
X61929020Y-29408610D01*
X61929017Y-29408608D01*
X61921561Y-29403817D01*
X61913055Y-29401319D01*
X61913052Y-29401318D01*
X61834339Y-29378206D01*
X61790367Y-29365295D01*
X61653633Y-29365295D01*
X61645122Y-29367793D01*
X61645122Y-29367794D01*
X61530947Y-29401318D01*
X61530941Y-29401320D01*
X61522439Y-29403817D01*
X61514985Y-29408607D01*
X61514979Y-29408610D01*
X61414867Y-29472947D01*
X61414860Y-29472952D01*
X61407411Y-29477740D01*
X61401609Y-29484434D01*
X61401604Y-29484440D01*
X61323678Y-29574373D01*
X61323675Y-29574377D01*
X61317870Y-29581077D01*
X61314188Y-29589139D01*
X61314185Y-29589144D01*
X61264754Y-29697383D01*
X61261069Y-29705453D01*
X61259807Y-29714226D01*
X61259806Y-29714232D01*
X61242872Y-29832017D01*
X61241610Y-29840795D01*
X57662963Y-29840795D01*
X57662963Y-28875804D01*
X57679576Y-28813804D01*
X57724963Y-28768417D01*
X57786963Y-28751804D01*
X78344917Y-28751804D01*
X78387149Y-28759217D01*
G37*
%TD.AperFunction*%
%TD*%
M02*
