%TF.GenerationSoftware,KiCad,Pcbnew,(7.0.0)*%
%TF.CreationDate,2023-05-27T11:20:30+01:00*%
%TF.ProjectId,left_main,6c656674-5f6d-4616-996e-2e6b69636164,rev?*%
%TF.SameCoordinates,Original*%
%TF.FileFunction,Copper,L1,Top*%
%TF.FilePolarity,Positive*%
%FSLAX46Y46*%
G04 Gerber Fmt 4.6, Leading zero omitted, Abs format (unit mm)*
G04 Created by KiCad (PCBNEW (7.0.0)) date 2023-05-27 11:20:30*
%MOMM*%
%LPD*%
G01*
G04 APERTURE LIST*
G04 Aperture macros list*
%AMRoundRect*
0 Rectangle with rounded corners*
0 $1 Rounding radius*
0 $2 $3 $4 $5 $6 $7 $8 $9 X,Y pos of 4 corners*
0 Add a 4 corners polygon primitive as box body*
4,1,4,$2,$3,$4,$5,$6,$7,$8,$9,$2,$3,0*
0 Add four circle primitives for the rounded corners*
1,1,$1+$1,$2,$3*
1,1,$1+$1,$4,$5*
1,1,$1+$1,$6,$7*
1,1,$1+$1,$8,$9*
0 Add four rect primitives between the rounded corners*
20,1,$1+$1,$2,$3,$4,$5,0*
20,1,$1+$1,$4,$5,$6,$7,0*
20,1,$1+$1,$6,$7,$8,$9,0*
20,1,$1+$1,$8,$9,$2,$3,0*%
G04 Aperture macros list end*
%TA.AperFunction,SMDPad,CuDef*%
%ADD10C,1.000000*%
%TD*%
%TA.AperFunction,SMDPad,CuDef*%
%ADD11RoundRect,0.155000X-0.212500X-0.155000X0.212500X-0.155000X0.212500X0.155000X-0.212500X0.155000X0*%
%TD*%
%TA.AperFunction,SMDPad,CuDef*%
%ADD12RoundRect,0.155000X0.155000X-0.212500X0.155000X0.212500X-0.155000X0.212500X-0.155000X-0.212500X0*%
%TD*%
%TA.AperFunction,SMDPad,CuDef*%
%ADD13RoundRect,0.155000X-0.155000X0.212500X-0.155000X-0.212500X0.155000X-0.212500X0.155000X0.212500X0*%
%TD*%
%TA.AperFunction,SMDPad,CuDef*%
%ADD14R,0.304800X1.397000*%
%TD*%
%TA.AperFunction,SMDPad,CuDef*%
%ADD15R,2.641600X2.311400*%
%TD*%
%TA.AperFunction,SMDPad,CuDef*%
%ADD16RoundRect,0.160000X0.160000X-0.197500X0.160000X0.197500X-0.160000X0.197500X-0.160000X-0.197500X0*%
%TD*%
%TA.AperFunction,SMDPad,CuDef*%
%ADD17RoundRect,0.160000X0.197500X0.160000X-0.197500X0.160000X-0.197500X-0.160000X0.197500X-0.160000X0*%
%TD*%
%TA.AperFunction,SMDPad,CuDef*%
%ADD18RoundRect,0.160000X-0.160000X0.197500X-0.160000X-0.197500X0.160000X-0.197500X0.160000X0.197500X0*%
%TD*%
%TA.AperFunction,SMDPad,CuDef*%
%ADD19RoundRect,0.155000X0.212500X0.155000X-0.212500X0.155000X-0.212500X-0.155000X0.212500X-0.155000X0*%
%TD*%
%TA.AperFunction,SMDPad,CuDef*%
%ADD20RoundRect,0.160000X-0.197500X-0.160000X0.197500X-0.160000X0.197500X0.160000X-0.197500X0.160000X0*%
%TD*%
%TA.AperFunction,SMDPad,CuDef*%
%ADD21R,0.300000X1.600000*%
%TD*%
%TA.AperFunction,SMDPad,CuDef*%
%ADD22R,0.900000X1.000000*%
%TD*%
%TA.AperFunction,SMDPad,CuDef*%
%ADD23RoundRect,0.218750X-0.256250X0.218750X-0.256250X-0.218750X0.256250X-0.218750X0.256250X0.218750X0*%
%TD*%
%TA.AperFunction,ViaPad*%
%ADD24C,0.450000*%
%TD*%
%TA.AperFunction,Conductor*%
%ADD25C,0.500000*%
%TD*%
%TA.AperFunction,Conductor*%
%ADD26C,0.250000*%
%TD*%
%TA.AperFunction,Conductor*%
%ADD27C,0.150000*%
%TD*%
%TA.AperFunction,Conductor*%
%ADD28C,0.100000*%
%TD*%
%TA.AperFunction,Conductor*%
%ADD29C,0.127000*%
%TD*%
%TA.AperFunction,Conductor*%
%ADD30C,0.200000*%
%TD*%
G04 APERTURE END LIST*
D10*
%TO.P,J11,1,1*%
%TO.N,/FB_mic_R_+*%
X71500000Y-32000000D03*
%TD*%
D11*
%TO.P,C16,1*%
%TO.N,/HP_driver_L/vneg*%
X70298500Y-67564000D03*
%TO.P,C16,2*%
%TO.N,GND*%
X71433500Y-67564000D03*
%TD*%
D10*
%TO.P,J22,1,1*%
%TO.N,/A2*%
X61722000Y-29840795D03*
%TD*%
%TO.P,J5,1,1*%
%TO.N,/FB_mic_L_+*%
X53800000Y-74400000D03*
%TD*%
D12*
%TO.P,C56,1*%
%TO.N,/FB_mic_L_+*%
X62302500Y-67967500D03*
%TO.P,C56,2*%
%TO.N,Net-(IC2-MICR)*%
X62302500Y-66832500D03*
%TD*%
D13*
%TO.P,C5,1*%
%TO.N,GND*%
X82442500Y-36507000D03*
%TO.P,C5,2*%
%TO.N,Net-(U2-PA01{slash}EINT1{slash}SERCOM1.1)*%
X82442500Y-37642000D03*
%TD*%
D14*
%TO.P,J1,1,Pin_1*%
%TO.N,GND*%
X63750000Y-76154499D03*
%TO.P,J1,2,Pin_2*%
%TO.N,/audio_in_L*%
X64249999Y-76154499D03*
%TO.P,J1,3,Pin_3*%
%TO.N,/audio_in_R*%
X64750000Y-76154499D03*
%TO.P,J1,4,Pin_4*%
%TO.N,/D11*%
X65249999Y-76154499D03*
%TO.P,J1,5,Pin_5*%
%TO.N,unconnected-(J1-Pin_5-Pad5)*%
X65750001Y-76154499D03*
%TO.P,J1,6,Pin_6*%
%TO.N,unconnected-(J1-Pin_6-Pad6)*%
X66250000Y-76154499D03*
%TO.P,J1,7,Pin_7*%
%TO.N,unconnected-(J1-Pin_7-Pad7)*%
X66749999Y-76154499D03*
%TO.P,J1,8,Pin_8*%
%TO.N,unconnected-(J1-Pin_8-Pad8)*%
X67250001Y-76154499D03*
%TO.P,J1,9,Pin_9*%
%TO.N,/USB_D+*%
X67749999Y-76154499D03*
%TO.P,J1,10,Pin_10*%
%TO.N,/USB_D-*%
X68250001Y-76154499D03*
%TO.P,J1,11,Pin_11*%
%TO.N,/D2*%
X68750000Y-76154499D03*
%TO.P,J1,12,Pin_12*%
%TO.N,/ANC_PBO*%
X69249999Y-76154499D03*
%TO.P,J1,13,Pin_13*%
%TO.N,/ANC_OFF*%
X69750001Y-76154499D03*
%TO.P,J1,14,Pin_14*%
%TO.N,/ANC_ON*%
X70250000Y-76154499D03*
%TO.P,J1,15,Pin_15*%
%TO.N,/D10*%
X70750001Y-76154499D03*
%TO.P,J1,16,Pin_16*%
%TO.N,GND*%
X71250000Y-76154499D03*
%TO.P,J1,17,Pin_17*%
%TO.N,+3V3*%
X71749999Y-76154499D03*
%TO.P,J1,18,Pin_18*%
%TO.N,VBUS*%
X72250001Y-76154499D03*
D15*
%TO.P,J1,19,Pin_19*%
%TO.N,GND*%
X74032499Y-77399099D03*
%TO.P,J1,20,Pin_20*%
X61967499Y-77399099D03*
%TD*%
D11*
%TO.P,C2,1*%
%TO.N,VDD*%
X80063000Y-41240500D03*
%TO.P,C2,2*%
%TO.N,GND*%
X81198000Y-41240500D03*
%TD*%
D13*
%TO.P,C4,1*%
%TO.N,GND*%
X80192500Y-36507000D03*
%TO.P,C4,2*%
%TO.N,Net-(U2-PA00{slash}EINT0{slash}SERCOM1.0)*%
X80192500Y-37642000D03*
%TD*%
D16*
%TO.P,R4,1*%
%TO.N,Net-(U3-PROG)*%
X88750000Y-56000000D03*
%TO.P,R4,2*%
%TO.N,GND*%
X88750000Y-54805000D03*
%TD*%
D13*
%TO.P,C14,1*%
%TO.N,/AOHPR*%
X70100000Y-62530000D03*
%TO.P,C14,2*%
%TO.N,Net-(C14-Pad2)*%
X70100000Y-63665000D03*
%TD*%
D16*
%TO.P,R75,1*%
%TO.N,VDD*%
X81200000Y-50697500D03*
%TO.P,R75,2*%
%TO.N,/I2C_SDA*%
X81200000Y-49502500D03*
%TD*%
D13*
%TO.P,C48,1*%
%TO.N,Net-(IC2-MICL)*%
X63802500Y-66832500D03*
%TO.P,C48,2*%
%TO.N,/FF_mic_L_+*%
X63802500Y-67967500D03*
%TD*%
D10*
%TO.P,J3,1,1*%
%TO.N,/FF_mic_L_+*%
X57550000Y-77950000D03*
%TD*%
%TO.P,J16,1,1*%
%TO.N,+BATT*%
X79000000Y-32000000D03*
%TD*%
D17*
%TO.P,R49,1*%
%TO.N,Net-(IC2-MICS)*%
X62147500Y-69600000D03*
%TO.P,R49,2*%
%TO.N,/FB_mic_L_+*%
X60952500Y-69600000D03*
%TD*%
D18*
%TO.P,R6,1*%
%TO.N,Net-(IC1-QLINR)*%
X67600000Y-62500000D03*
%TO.P,R6,2*%
%TO.N,Net-(IC1-LINR)*%
X67600000Y-63695000D03*
%TD*%
D12*
%TO.P,C12,1*%
%TO.N,GND*%
X67352500Y-60867500D03*
%TO.P,C12,2*%
%TO.N,Net-(IC1-MICACL)*%
X67352500Y-59732500D03*
%TD*%
D13*
%TO.P,C15,1*%
%TO.N,+1V8*%
X72750000Y-66234500D03*
%TO.P,C15,2*%
%TO.N,GND*%
X72750000Y-67369500D03*
%TD*%
D10*
%TO.P,J7,1,1*%
%TO.N,/HP_L_+*%
X58801000Y-29845000D03*
%TD*%
D16*
%TO.P,R44,1*%
%TO.N,Net-(IC2-QLINR)*%
X64452500Y-62797500D03*
%TO.P,R44,2*%
%TO.N,Net-(IC2-LINR)*%
X64452500Y-61602500D03*
%TD*%
D10*
%TO.P,J14,1,1*%
%TO.N,/HP_R_-*%
X72705627Y-29840795D03*
%TD*%
D13*
%TO.P,C49,1*%
%TO.N,GND*%
X64452500Y-64232500D03*
%TO.P,C49,2*%
%TO.N,Net-(IC2-MICACL)*%
X64452500Y-65367500D03*
%TD*%
D12*
%TO.P,C1,1*%
%TO.N,+3V3*%
X78800000Y-46535000D03*
%TO.P,C1,2*%
%TO.N,GND*%
X78800000Y-45400000D03*
%TD*%
D13*
%TO.P,C54,1*%
%TO.N,Net-(IC2-CPN)*%
X60550000Y-58832500D03*
%TO.P,C54,2*%
%TO.N,Net-(IC2-CPP)*%
X60550000Y-59967500D03*
%TD*%
D19*
%TO.P,C47,1*%
%TO.N,/HP_driver_L/vneg*%
X60405165Y-57400000D03*
%TO.P,C47,2*%
%TO.N,GND*%
X59270165Y-57400000D03*
%TD*%
D17*
%TO.P,R5,1*%
%TO.N,VDD*%
X81228000Y-43740500D03*
%TO.P,R5,2*%
%TO.N,/~{RESET}*%
X80033000Y-43740500D03*
%TD*%
D16*
%TO.P,R42,1*%
%TO.N,Net-(C43-Pad2)*%
X63100000Y-62797500D03*
%TO.P,R42,2*%
%TO.N,Net-(IC2-QLINR)*%
X63100000Y-61602500D03*
%TD*%
D12*
%TO.P,C9,1*%
%TO.N,Net-(IC1-MICL)*%
X68100000Y-58417500D03*
%TO.P,C9,2*%
%TO.N,/FF_mic_R_+*%
X68100000Y-57282500D03*
%TD*%
D10*
%TO.P,J13,1,1*%
%TO.N,/HP_R_+*%
X74000000Y-32000000D03*
%TD*%
D20*
%TO.P,R1,1*%
%TO.N,/D13*%
X86033000Y-46240500D03*
%TO.P,R1,2*%
%TO.N,Net-(D1-A)*%
X87228000Y-46240500D03*
%TD*%
D10*
%TO.P,J8,1,1*%
%TO.N,/HP_L_-*%
X60071000Y-32004000D03*
%TD*%
D21*
%TO.P,J24,1,Pin_1*%
%TO.N,GND*%
X53999999Y-61899999D03*
%TO.P,J24,2,Pin_2*%
X53499999Y-61899999D03*
%TO.P,J24,3,Pin_3*%
%TO.N,/FF_QOP1_L*%
X52999999Y-61899999D03*
%TO.P,J24,4,Pin_4*%
%TO.N,/FF_IOP1_L*%
X52499999Y-61899999D03*
%TO.P,J24,5,Pin_5*%
%TO.N,/FF_QMIC_L*%
X51999999Y-61899999D03*
%TO.P,J24,6,Pin_6*%
%TO.N,GND*%
X51499999Y-61899999D03*
%TO.P,J24,7,Pin_7*%
X50999999Y-61899999D03*
%TO.P,J24,8,Pin_8*%
X53999999Y-65499999D03*
%TO.P,J24,9,Pin_9*%
X53499999Y-65499999D03*
%TO.P,J24,10,Pin_10*%
%TO.N,/FF_QMIC_R*%
X52999999Y-65499999D03*
%TO.P,J24,11,Pin_11*%
%TO.N,/FF_IOP1_R*%
X52499999Y-65499999D03*
%TO.P,J24,12,Pin_12*%
%TO.N,/FF_QOP1_R*%
X51999999Y-65499999D03*
%TO.P,J24,13,Pin_13*%
%TO.N,GND*%
X51499999Y-65499999D03*
%TO.P,J24,14,Pin_14*%
X50999999Y-65499999D03*
%TD*%
D16*
%TO.P,R74,1*%
%TO.N,VDD*%
X79800000Y-50697500D03*
%TO.P,R74,2*%
%TO.N,/I2C_SCL*%
X79800000Y-49502500D03*
%TD*%
D10*
%TO.P,J10,1,1*%
%TO.N,GND*%
X67729627Y-29840795D03*
%TD*%
D11*
%TO.P,C6,1*%
%TO.N,+BATT*%
X87432500Y-53402500D03*
%TO.P,C6,2*%
%TO.N,GND*%
X88567500Y-53402500D03*
%TD*%
D17*
%TO.P,R47,1*%
%TO.N,/FF_mic_L_+*%
X65147500Y-69600000D03*
%TO.P,R47,2*%
%TO.N,Net-(IC2-MICS)*%
X63952500Y-69600000D03*
%TD*%
D19*
%TO.P,C77,1*%
%TO.N,/AREF*%
X81198000Y-39990500D03*
%TO.P,C77,2*%
%TO.N,GND*%
X80063000Y-39990500D03*
%TD*%
D13*
%TO.P,C13,1*%
%TO.N,Net-(IC1-MICACR)*%
X70352500Y-59765000D03*
%TO.P,C13,2*%
%TO.N,GND*%
X70352500Y-60900000D03*
%TD*%
%TO.P,C10,1*%
%TO.N,/FB_mic_R_+*%
X69600000Y-57282500D03*
%TO.P,C10,2*%
%TO.N,Net-(IC1-MICR)*%
X69600000Y-58417500D03*
%TD*%
D10*
%TO.P,J6,1,1*%
%TO.N,GND*%
X51800000Y-72600000D03*
%TD*%
D18*
%TO.P,R72,1*%
%TO.N,Net-(J20-Pad1)*%
X61976000Y-33946500D03*
%TO.P,R72,2*%
%TO.N,GND*%
X61976000Y-35141500D03*
%TD*%
D21*
%TO.P,J23,1,Pin_1*%
%TO.N,GND*%
X75999999Y-62749999D03*
%TO.P,J23,2,Pin_2*%
%TO.N,/FB_QMIC_L*%
X76499999Y-62749999D03*
%TO.P,J23,3,Pin_3*%
%TO.N,/FB_IOP1_L*%
X76999999Y-62749999D03*
%TO.P,J23,4,Pin_4*%
%TO.N,/FB_QOP1_L*%
X77499999Y-62749999D03*
%TO.P,J23,5,Pin_5*%
%TO.N,/FB_IOP2_L*%
X77999999Y-62749999D03*
%TO.P,J23,6,Pin_6*%
%TO.N,/FB_QOP2_L*%
X78499999Y-62749999D03*
%TO.P,J23,7,Pin_7*%
%TO.N,GND*%
X78999999Y-62749999D03*
%TO.P,J23,8,Pin_8*%
X75999999Y-59149999D03*
%TO.P,J23,9,Pin_9*%
%TO.N,/FB_QMIC_R*%
X76499999Y-59149999D03*
%TO.P,J23,10,Pin_10*%
%TO.N,/FB_IOP1_R*%
X76999999Y-59149999D03*
%TO.P,J23,11,Pin_11*%
%TO.N,/FB_QOP1_R*%
X77499999Y-59149999D03*
%TO.P,J23,12,Pin_12*%
%TO.N,/FB_IOP2_R*%
X77999999Y-59149999D03*
%TO.P,J23,13,Pin_13*%
%TO.N,/FB_QOP2_R*%
X78499999Y-59149999D03*
%TO.P,J23,14,Pin_14*%
%TO.N,GND*%
X78999999Y-59149999D03*
%TD*%
D18*
%TO.P,R2,1*%
%TO.N,+BATT*%
X87630500Y-38143000D03*
%TO.P,R2,2*%
%TO.N,/BAT_V_SENSE*%
X87630500Y-39338000D03*
%TD*%
D10*
%TO.P,J12,1,1*%
%TO.N,GND*%
X70205627Y-29840795D03*
%TD*%
D16*
%TO.P,R7,1*%
%TO.N,Net-(C14-Pad2)*%
X68850000Y-63695000D03*
%TO.P,R7,2*%
%TO.N,Net-(IC1-QLINR)*%
X68850000Y-62500000D03*
%TD*%
D10*
%TO.P,J20,1,1*%
%TO.N,Net-(J20-Pad1)*%
X62992000Y-32258000D03*
%TD*%
D18*
%TO.P,R73,1*%
%TO.N,/A4*%
X60452000Y-33946500D03*
%TO.P,R73,2*%
%TO.N,GND*%
X60452000Y-35141500D03*
%TD*%
D16*
%TO.P,R43,1*%
%TO.N,Net-(IC2-MICL)*%
X65302500Y-67997500D03*
%TO.P,R43,2*%
%TO.N,GND*%
X65302500Y-66802500D03*
%TD*%
D19*
%TO.P,C75,1*%
%TO.N,+3V3*%
X81167500Y-52100000D03*
%TO.P,C75,2*%
%TO.N,GND*%
X80032500Y-52100000D03*
%TD*%
D13*
%TO.P,C78,1*%
%TO.N,Net-(U8-OUT)*%
X63500000Y-33976500D03*
%TO.P,C78,2*%
%TO.N,GND*%
X63500000Y-35111500D03*
%TD*%
%TO.P,C79,1*%
%TO.N,+3V3*%
X65083500Y-33976500D03*
%TO.P,C79,2*%
%TO.N,GND*%
X65083500Y-35111500D03*
%TD*%
D12*
%TO.P,C58,1*%
%TO.N,+1V8*%
X59150000Y-59967500D03*
%TO.P,C58,2*%
%TO.N,GND*%
X59150000Y-58832500D03*
%TD*%
D10*
%TO.P,J15,1,1*%
%TO.N,/D3*%
X75205627Y-29840795D03*
%TD*%
%TO.P,J21,1,1*%
%TO.N,/A4*%
X64262000Y-29840795D03*
%TD*%
%TO.P,J9,1,1*%
%TO.N,/FF_mic_R_+*%
X69000000Y-32000000D03*
%TD*%
D22*
%TO.P,SW2,1,A*%
%TO.N,/~{RESET}*%
X64749999Y-39699999D03*
X60649999Y-39699999D03*
%TO.P,SW2,2,B*%
%TO.N,GND*%
X64749999Y-38099999D03*
X60649999Y-38099999D03*
%TD*%
D12*
%TO.P,C52,1*%
%TO.N,Net-(IC2-MICACR)*%
X61652500Y-65335000D03*
%TO.P,C52,2*%
%TO.N,GND*%
X61652500Y-64200000D03*
%TD*%
%TO.P,C76,1*%
%TO.N,+1V8*%
X80200000Y-54967500D03*
%TO.P,C76,2*%
%TO.N,GND*%
X80200000Y-53832500D03*
%TD*%
D20*
%TO.P,R8,1*%
%TO.N,/FF_mic_R_+*%
X66752500Y-55800000D03*
%TO.P,R8,2*%
%TO.N,Net-(IC1-MICS)*%
X67947500Y-55800000D03*
%TD*%
D10*
%TO.P,J17,1,1*%
%TO.N,+3V3*%
X76500000Y-32000000D03*
%TD*%
D13*
%TO.P,C11,1*%
%TO.N,Net-(IC1-MICS)*%
X68850000Y-59782500D03*
%TO.P,C11,2*%
%TO.N,GND*%
X68850000Y-60917500D03*
%TD*%
D18*
%TO.P,R10,1*%
%TO.N,Net-(IC1-MICR)*%
X71100000Y-57252500D03*
%TO.P,R10,2*%
%TO.N,GND*%
X71100000Y-58447500D03*
%TD*%
D10*
%TO.P,J4,1,1*%
%TO.N,GND*%
X55800000Y-76200000D03*
%TD*%
D16*
%TO.P,R53,1*%
%TO.N,Net-(IC2-MICR)*%
X60802500Y-67997500D03*
%TO.P,R53,2*%
%TO.N,GND*%
X60802500Y-66802500D03*
%TD*%
D12*
%TO.P,C7,1*%
%TO.N,VBUS*%
X82800000Y-52129500D03*
%TO.P,C7,2*%
%TO.N,GND*%
X82800000Y-50994500D03*
%TD*%
D18*
%TO.P,R11,1*%
%TO.N,Net-(IC1-MICL)*%
X66600000Y-57252500D03*
%TO.P,R11,2*%
%TO.N,GND*%
X66600000Y-58447500D03*
%TD*%
D17*
%TO.P,R3,1*%
%TO.N,/BAT_V_SENSE*%
X86478000Y-39240500D03*
%TO.P,R3,2*%
%TO.N,GND*%
X85283000Y-39240500D03*
%TD*%
D20*
%TO.P,R9,1*%
%TO.N,Net-(IC1-MICS)*%
X69752500Y-55800000D03*
%TO.P,R9,2*%
%TO.N,/FB_mic_R_+*%
X70947500Y-55800000D03*
%TD*%
D23*
%TO.P,D1,1,C*%
%TO.N,GND*%
X87380500Y-43203000D03*
%TO.P,D1,2,A*%
%TO.N,Net-(D1-A)*%
X87380500Y-44778000D03*
%TD*%
D10*
%TO.P,J19,1,1*%
%TO.N,Net-(U8-OUT)*%
X65532000Y-32258000D03*
%TD*%
D12*
%TO.P,C17,1*%
%TO.N,Net-(IC1-CPN)*%
X71347500Y-66367500D03*
%TO.P,C17,2*%
%TO.N,Net-(IC1-CPP)*%
X71347500Y-65232500D03*
%TD*%
D10*
%TO.P,J18,1,1*%
%TO.N,GND*%
X77705627Y-29840795D03*
%TD*%
D11*
%TO.P,C3,1*%
%TO.N,Net-(U2-VDDCORE)*%
X80063000Y-42490500D03*
%TO.P,C3,2*%
%TO.N,GND*%
X81198000Y-42490500D03*
%TD*%
D12*
%TO.P,C50,1*%
%TO.N,Net-(IC2-MICS)*%
X63052500Y-65367500D03*
%TO.P,C50,2*%
%TO.N,GND*%
X63052500Y-64232500D03*
%TD*%
D13*
%TO.P,C43,1*%
%TO.N,/AOHPL*%
X61850000Y-61632500D03*
%TO.P,C43,2*%
%TO.N,Net-(C43-Pad2)*%
X61850000Y-62767500D03*
%TD*%
D11*
%TO.P,C8,1*%
%TO.N,VDD*%
X82832500Y-49784000D03*
%TO.P,C8,2*%
%TO.N,GND*%
X83967500Y-49784000D03*
%TD*%
D24*
%TO.N,+3V3*%
X82000000Y-52800000D03*
X72000000Y-77400000D03*
X78000000Y-46535000D03*
X81200000Y-52800000D03*
X76500000Y-32000000D03*
X65786000Y-33782000D03*
%TO.N,GND*%
X85563914Y-41079448D03*
X75400000Y-62750000D03*
X85547496Y-44527343D03*
X78000000Y-45400000D03*
X57100000Y-45600000D03*
X66862944Y-54912444D03*
X79500000Y-62750000D03*
X75400000Y-59150000D03*
X88126001Y-49771300D03*
X81367000Y-36507000D03*
X63000000Y-76600000D03*
X74200000Y-62000000D03*
X50300000Y-61900000D03*
X80200000Y-52800000D03*
X59815500Y-58420000D03*
X66294000Y-64516000D03*
X71200000Y-77400000D03*
X77705627Y-29840795D03*
X69900000Y-55000000D03*
X79500000Y-59150000D03*
X63000000Y-78200000D03*
X73000000Y-76600000D03*
X87750000Y-54902500D03*
X66000000Y-58400000D03*
X84328000Y-50800000D03*
X55800000Y-76200000D03*
X85630500Y-42740500D03*
X63800000Y-77300000D03*
X81930926Y-42490500D03*
X54700000Y-61900000D03*
X61000000Y-76600000D03*
X51850000Y-72650000D03*
X61000000Y-78200000D03*
X64262000Y-60500000D03*
X82124228Y-41046611D03*
X50300000Y-65500000D03*
X75000000Y-78200000D03*
X82132438Y-44527343D03*
X61214000Y-33274000D03*
X58100000Y-63800000D03*
X71100000Y-42900000D03*
X54700000Y-65500000D03*
X73000000Y-78200000D03*
X75000000Y-76600000D03*
X62738000Y-38100000D03*
X66657894Y-60100000D03*
X62738000Y-35052000D03*
X72129131Y-66802000D03*
X56500000Y-55000000D03*
%TO.N,Net-(U2-VDDCORE)*%
X79380500Y-42490500D03*
%TO.N,Net-(U2-PA00{slash}EINT0{slash}SERCOM1.0)*%
X80918500Y-38090500D03*
%TO.N,Net-(U2-PA01{slash}EINT1{slash}SERCOM1.1)*%
X81934500Y-38090500D03*
%TO.N,+BATT*%
X88250000Y-52000000D03*
%TO.N,VBUS*%
X72675900Y-75469900D03*
X83400000Y-52000000D03*
%TO.N,VDD*%
X82100000Y-49300000D03*
X79380500Y-41615500D03*
X83598000Y-38590500D03*
X88392000Y-42926000D03*
X80730500Y-46190500D03*
%TO.N,Net-(IC1-MICL)*%
X68100000Y-59100000D03*
%TO.N,Net-(IC1-MICR)*%
X69600000Y-59100000D03*
%TO.N,Net-(IC1-MICS)*%
X68850000Y-58674000D03*
%TO.N,Net-(IC1-MICACL)*%
X67355000Y-58674000D03*
%TO.N,Net-(IC1-MICACR)*%
X70358000Y-58674000D03*
%TO.N,/AOHPR*%
X64000000Y-43000000D03*
%TO.N,+1V8*%
X80200000Y-56800000D03*
X78400000Y-56800000D03*
X73025000Y-65659000D03*
X78400000Y-56000000D03*
X59600000Y-60500000D03*
X80200000Y-56000000D03*
%TO.N,/HP_driver_L/vneg*%
X60600000Y-58000000D03*
X70358000Y-66802000D03*
%TO.N,Net-(IC1-CPN)*%
X70806050Y-66000000D03*
%TO.N,Net-(IC1-CPP)*%
X72136000Y-65786000D03*
%TO.N,/FB_QMIC_R*%
X75900000Y-57750000D03*
%TO.N,/FB_IOP1_R*%
X77250000Y-57750000D03*
%TO.N,/FB_QOP1_R*%
X77000000Y-60500000D03*
%TO.N,/FB_IOP2_R*%
X79000000Y-57750000D03*
%TO.N,/FB_QOP2_R*%
X78500000Y-60500000D03*
%TO.N,/FF_QOP1_R*%
X68877500Y-66377500D03*
X59100000Y-69100000D03*
X73660000Y-62992000D03*
%TO.N,/FF_IOP1_R*%
X59100000Y-68200000D03*
%TO.N,/FF_QMIC_R*%
X59100000Y-67300000D03*
%TO.N,/FB_QMIC_L*%
X75900000Y-66750000D03*
%TO.N,/FB_IOP1_L*%
X76700000Y-66250000D03*
%TO.N,/FB_QOP1_L*%
X77500000Y-65750000D03*
%TO.N,/FB_IOP2_L*%
X78300000Y-65250000D03*
%TO.N,/AOHPL*%
X63000000Y-43000000D03*
%TO.N,Net-(IC2-MICL)*%
X63802500Y-66082500D03*
%TO.N,Net-(IC2-MICACL)*%
X64546428Y-66548000D03*
%TO.N,Net-(IC2-MICS)*%
X63052500Y-66548000D03*
%TO.N,Net-(IC2-MICACR)*%
X61550000Y-66548000D03*
%TO.N,Net-(IC2-CPN)*%
X61098041Y-59212687D03*
%TO.N,Net-(IC2-CPP)*%
X59996884Y-59517929D03*
%TO.N,Net-(IC2-MICR)*%
X62302500Y-66082500D03*
%TO.N,/FB_QOP2_L*%
X79100000Y-64750000D03*
%TO.N,/FF_QOP1_L*%
X58420000Y-62386405D03*
X62300000Y-58900000D03*
%TO.N,/FF_IOP1_L*%
X63125000Y-58300000D03*
%TO.N,/FF_QMIC_L*%
X64000000Y-57800000D03*
%TO.N,/AREF*%
X82630500Y-38590500D03*
%TO.N,Net-(U8-OUT)*%
X64262000Y-33020000D03*
%TO.N,Net-(IC1-LINR)*%
X66548000Y-63500000D03*
%TO.N,Net-(IC1-QLINR)*%
X66294000Y-62500000D03*
%TO.N,/I2C_SDA*%
X66228000Y-61468000D03*
X84063188Y-48006000D03*
X64900000Y-59600000D03*
X79100000Y-50600000D03*
%TO.N,/I2C_SCL*%
X78486000Y-50038000D03*
X83130500Y-46990500D03*
%TO.N,/HP_R_-*%
X73152000Y-62230000D03*
%TO.N,/HP_R_+*%
X74800000Y-63700000D03*
%TO.N,/audio_in_R*%
X74100000Y-64700000D03*
%TO.N,Net-(IC2-LINR)*%
X65278000Y-61214000D03*
%TO.N,Net-(IC2-QLINR)*%
X65278000Y-63246000D03*
%TO.N,/HP_L_-*%
X55900000Y-58500000D03*
%TO.N,/HP_L_+*%
X55118000Y-58054974D03*
%TO.N,/audio_in_L*%
X56800000Y-62600000D03*
X57700000Y-60800000D03*
X64000000Y-74800000D03*
%TO.N,/D2*%
X88392000Y-44196000D03*
X68834000Y-75021000D03*
X75438000Y-75438000D03*
%TO.N,/ANC_PBO*%
X84130500Y-46990500D03*
%TO.N,/ANC_OFF*%
X85090000Y-48006000D03*
%TO.N,/ANC_ON*%
X85090000Y-46990000D03*
%TO.N,/D10*%
X86360000Y-48006000D03*
%TO.N,/USB_D+*%
X81948000Y-48260000D03*
%TO.N,/USB_D-*%
X82748000Y-48260000D03*
%TO.N,/D11*%
X74168000Y-75438000D03*
X65400000Y-75000000D03*
X87630000Y-47498000D03*
%TO.N,/D3*%
X75205627Y-29840795D03*
%TO.N,/A4*%
X64262000Y-29840795D03*
%TO.N,/D13*%
X86106000Y-46990000D03*
%TO.N,/BAT_V_SENSE*%
X87108140Y-38852500D03*
%TO.N,Net-(U3-PROG)*%
X87750000Y-55902500D03*
%TO.N,/~{RESET}*%
X79380500Y-43740500D03*
X62738000Y-39700000D03*
%TO.N,/BM83_UART_RX*%
X80518000Y-47498000D03*
X88392000Y-41148000D03*
%TO.N,/BM83_UART_TX*%
X88646000Y-41910000D03*
X79248000Y-48006000D03*
%TO.N,/BM83_PROG_EN*%
X86360000Y-37846000D03*
X77978000Y-47960000D03*
%TO.N,/A2*%
X61722000Y-29840795D03*
%TO.N,/A3*%
X85130500Y-38490500D03*
X83966500Y-36820500D03*
%TO.N,/D4*%
X77978000Y-48768000D03*
X88138000Y-39990500D03*
%TO.N,/3V3_EN*%
X80010000Y-48514000D03*
X88138000Y-45466000D03*
%TD*%
D25*
%TO.N,+3V3*%
X82000000Y-52800000D02*
X81200000Y-52800000D01*
D26*
X71750000Y-76154500D02*
X71750000Y-77150000D01*
X81167500Y-52767500D02*
X81200000Y-52800000D01*
D25*
X81167500Y-52100000D02*
X81167500Y-52767500D01*
D26*
X71750000Y-77150000D02*
X72000000Y-77400000D01*
X65591500Y-33976500D02*
X65786000Y-33782000D01*
X65083500Y-33976500D02*
X65591500Y-33976500D01*
X78000000Y-46535000D02*
X78800000Y-46535000D01*
%TO.N,GND*%
X66657894Y-60100000D02*
X66657894Y-60172894D01*
X67310000Y-53594000D02*
X67310000Y-35290000D01*
X81198000Y-41240500D02*
X81198000Y-41125500D01*
X78800000Y-45400000D02*
X78000000Y-45400000D01*
X72129131Y-66868369D02*
X71433500Y-67564000D01*
X73030500Y-67369500D02*
X72750000Y-67369500D01*
X62797500Y-35111500D02*
X62738000Y-35052000D01*
X72129131Y-66802000D02*
X72182500Y-66802000D01*
D25*
X80032500Y-52100000D02*
X80032500Y-52632500D01*
D26*
X69700000Y-68100000D02*
X69700000Y-65900000D01*
X66600000Y-33489026D02*
X67729627Y-32359399D01*
X58615000Y-61015000D02*
X58900000Y-61300000D01*
D27*
X76000000Y-59150000D02*
X75400000Y-59150000D01*
D26*
X58615000Y-59367500D02*
X59150000Y-58832500D01*
X85283000Y-39240500D02*
X83930339Y-39240500D01*
X64452500Y-64232500D02*
X65350000Y-64232500D01*
X59815500Y-58420000D02*
X59815500Y-57945335D01*
X81391889Y-41046611D02*
X81198000Y-41240500D01*
X71100000Y-60152500D02*
X70352500Y-60900000D01*
X83930339Y-39240500D02*
X82124228Y-41046611D01*
X66657894Y-60172894D02*
X67352500Y-60867500D01*
X81367000Y-36507000D02*
X82442500Y-36507000D01*
X66000000Y-58400000D02*
X66552500Y-58400000D01*
X81367000Y-36507000D02*
X80192500Y-36507000D01*
X72129131Y-66802000D02*
X72129131Y-66868369D01*
X58900000Y-61300000D02*
X60400000Y-61300000D01*
X59815500Y-57945335D02*
X59270165Y-57400000D01*
D25*
X88750000Y-54805000D02*
X88750000Y-53585000D01*
D26*
X69900000Y-55000000D02*
X68716000Y-55000000D01*
X67385000Y-60900000D02*
X67352500Y-60867500D01*
X60452000Y-35141500D02*
X61976000Y-35141500D01*
X62738000Y-38100000D02*
X64750000Y-38100000D01*
X62648500Y-35141500D02*
X62738000Y-35052000D01*
X51000000Y-61900000D02*
X50300000Y-61900000D01*
X68716000Y-55000000D02*
X67310000Y-53594000D01*
D25*
X83967500Y-50439500D02*
X83967500Y-49784000D01*
D26*
X63750001Y-76154500D02*
X63750001Y-77250001D01*
X81198000Y-42490500D02*
X81930926Y-42490500D01*
X72182500Y-66802000D02*
X72750000Y-67369500D01*
X66552500Y-58400000D02*
X66600000Y-58447500D01*
X73500000Y-66900000D02*
X73030500Y-67369500D01*
X59403000Y-58832500D02*
X59150000Y-58832500D01*
X70352500Y-60900000D02*
X67385000Y-60900000D01*
X71250001Y-76154500D02*
X71250001Y-77349999D01*
X61685000Y-64232500D02*
X61652500Y-64200000D01*
X58615000Y-61015000D02*
X58615000Y-59367500D01*
X70205627Y-32394373D02*
X70205627Y-29840795D01*
X60802500Y-66802500D02*
X60802500Y-65050000D01*
X51000000Y-65500000D02*
X50300000Y-65500000D01*
X73500000Y-65300000D02*
X73500000Y-66900000D01*
X60775066Y-56865000D02*
X61600000Y-57689934D01*
X54000000Y-61900000D02*
X54700000Y-61900000D01*
X71100000Y-58447500D02*
X71100000Y-60152500D01*
X62738000Y-38100000D02*
X60650000Y-38100000D01*
X69700000Y-65900000D02*
X70960000Y-64640000D01*
X71250001Y-77349999D02*
X71200000Y-77400000D01*
X66010500Y-64232500D02*
X65350000Y-64232500D01*
X82124228Y-41046611D02*
X81391889Y-41046611D01*
X66600000Y-54649500D02*
X66600000Y-33489026D01*
D27*
X76000000Y-62750000D02*
X75400000Y-62750000D01*
D26*
X59805165Y-56865000D02*
X60775066Y-56865000D01*
X65083500Y-35111500D02*
X63500000Y-35111500D01*
X60400000Y-61300000D02*
X61600000Y-60100000D01*
X53500000Y-61900000D02*
X54000000Y-61900000D01*
D27*
X79000000Y-62750000D02*
X79500000Y-62750000D01*
D26*
X72840000Y-64640000D02*
X73500000Y-65300000D01*
X66294000Y-64516000D02*
X66010500Y-64232500D01*
D25*
X80200000Y-53832500D02*
X80200000Y-52800000D01*
D26*
X87380500Y-43203000D02*
X86093000Y-43203000D01*
X54000000Y-65500000D02*
X54700000Y-65500000D01*
X51500000Y-65500000D02*
X51000000Y-65500000D01*
X59815500Y-58420000D02*
X59403000Y-58832500D01*
D25*
X88750000Y-53585000D02*
X88567500Y-53402500D01*
X88750000Y-54805000D02*
X87847500Y-54805000D01*
D26*
X64452500Y-64232500D02*
X61685000Y-64232500D01*
X65302500Y-64280000D02*
X65350000Y-64232500D01*
X67310000Y-35290000D02*
X70205627Y-32394373D01*
D25*
X82994500Y-50800000D02*
X82800000Y-50994500D01*
X84328000Y-50800000D02*
X82994500Y-50800000D01*
D26*
X63500000Y-35111500D02*
X62797500Y-35111500D01*
X70897500Y-68100000D02*
X69700000Y-68100000D01*
X63750001Y-77250001D02*
X63800000Y-77300000D01*
D25*
X84328000Y-50800000D02*
X83967500Y-50439500D01*
D27*
X79000000Y-59150000D02*
X79500000Y-59150000D01*
D26*
X61976000Y-35141500D02*
X62648500Y-35141500D01*
X81198000Y-41125500D02*
X80063000Y-39990500D01*
X70960000Y-64640000D02*
X72840000Y-64640000D01*
D25*
X80032500Y-52632500D02*
X80200000Y-52800000D01*
D26*
X65302500Y-66802500D02*
X65302500Y-64280000D01*
X86093000Y-43203000D02*
X85630500Y-42740500D01*
X53500000Y-65500000D02*
X54000000Y-65500000D01*
X66862944Y-54912444D02*
X66600000Y-54649500D01*
X71433500Y-67564000D02*
X70897500Y-68100000D01*
X51500000Y-61900000D02*
X51000000Y-61900000D01*
X60802500Y-65050000D02*
X61652500Y-64200000D01*
X59270165Y-57400000D02*
X59805165Y-56865000D01*
X61600000Y-57689934D02*
X61600000Y-60100000D01*
D25*
X87847500Y-54805000D02*
X87750000Y-54902500D01*
D26*
X67729627Y-32359399D02*
X67729627Y-29840795D01*
%TO.N,Net-(U2-VDDCORE)*%
X79380500Y-42490500D02*
X80063000Y-42490500D01*
%TO.N,Net-(U2-PA00{slash}EINT0{slash}SERCOM1.0)*%
X80192500Y-37642000D02*
X80470000Y-37642000D01*
X80470000Y-37642000D02*
X80918500Y-38090500D01*
%TO.N,Net-(U2-PA01{slash}EINT1{slash}SERCOM1.1)*%
X82442500Y-37642000D02*
X82383000Y-37642000D01*
X82383000Y-37642000D02*
X81934500Y-38090500D01*
D25*
%TO.N,+BATT*%
X87630500Y-38100500D02*
X87630500Y-38143000D01*
X81530000Y-32000000D02*
X87630500Y-38100500D01*
X79000000Y-32000000D02*
X81530000Y-32000000D01*
X87432500Y-53402500D02*
X87432500Y-52817500D01*
X87630500Y-38143000D02*
X88943000Y-38143000D01*
X88943000Y-38143000D02*
X89408000Y-38608000D01*
X89408000Y-38608000D02*
X89408000Y-50842000D01*
X87432500Y-52817500D02*
X88250000Y-52000000D01*
X89408000Y-50842000D02*
X88250000Y-52000000D01*
%TO.N,VBUS*%
X72675900Y-75469900D02*
X72352400Y-75793400D01*
X83400000Y-52000000D02*
X82929500Y-52000000D01*
X82929500Y-52000000D02*
X82800000Y-52129500D01*
D28*
%TO.N,VDD*%
X81228000Y-45693000D02*
X80730500Y-46190500D01*
X81228000Y-43740500D02*
X81228000Y-45693000D01*
D26*
X79380500Y-41615500D02*
X79755500Y-41240500D01*
D25*
X82832500Y-49784000D02*
X82584000Y-49784000D01*
X82584000Y-49784000D02*
X82100000Y-49300000D01*
D28*
X81228000Y-43740500D02*
X80580500Y-43093000D01*
D25*
X82100000Y-49300000D02*
X82100000Y-49797500D01*
X82100000Y-49797500D02*
X81200000Y-50697500D01*
D26*
X79755500Y-41240500D02*
X80063000Y-41240500D01*
D25*
X81200000Y-50697500D02*
X79800000Y-50697500D01*
D28*
X80580500Y-43093000D02*
X80580500Y-41758000D01*
X80580500Y-41758000D02*
X80063000Y-41240500D01*
D26*
%TO.N,Net-(IC1-MICL)*%
X66935000Y-57252500D02*
X66600000Y-57252500D01*
X68100000Y-58417500D02*
X68100000Y-59100000D01*
X68100000Y-58417500D02*
X66935000Y-57252500D01*
%TO.N,/FF_mic_R_+*%
X68584000Y-32000000D02*
X66950000Y-33634000D01*
X66950000Y-33634000D02*
X66950000Y-54221682D01*
X68100000Y-57282500D02*
X66752500Y-55935000D01*
X66752500Y-55935000D02*
X66752500Y-55800000D01*
X67412944Y-54684626D02*
X67412944Y-55139556D01*
X66950000Y-54221682D02*
X67412944Y-54684626D01*
X67412944Y-55139556D02*
X66752500Y-55800000D01*
X69000000Y-32000000D02*
X68584000Y-32000000D01*
%TO.N,/FB_mic_R_+*%
X70947500Y-55935000D02*
X70947500Y-55800000D01*
X70125199Y-54356000D02*
X70947500Y-55178301D01*
X67660000Y-35464000D02*
X67660000Y-53182000D01*
X71500000Y-32000000D02*
X71124000Y-32000000D01*
X71124000Y-32000000D02*
X67660000Y-35464000D01*
X70947500Y-55178301D02*
X70947500Y-55800000D01*
X68834000Y-54356000D02*
X70125199Y-54356000D01*
X67660000Y-53182000D02*
X68834000Y-54356000D01*
X69600000Y-57282500D02*
X70947500Y-55935000D01*
%TO.N,Net-(IC1-MICR)*%
X70847500Y-57252500D02*
X71100000Y-57252500D01*
X69682500Y-58417500D02*
X70847500Y-57252500D01*
X69600000Y-58417500D02*
X69600000Y-59100000D01*
X69600000Y-58417500D02*
X69682500Y-58417500D01*
%TO.N,Net-(IC1-MICS)*%
X68850000Y-56850000D02*
X68850000Y-59782500D01*
X69752500Y-55800000D02*
X69752500Y-55947500D01*
X67947500Y-55947500D02*
X68850000Y-56850000D01*
X69752500Y-55947500D02*
X68850000Y-56850000D01*
X67947500Y-55800000D02*
X67947500Y-55947500D01*
%TO.N,Net-(IC1-MICACL)*%
X67355000Y-58674000D02*
X67355000Y-59682500D01*
%TO.N,Net-(IC1-MICACR)*%
X70352500Y-58679500D02*
X70358000Y-58674000D01*
X70352500Y-59765000D02*
X70352500Y-58679500D01*
%TO.N,/AOHPR*%
X67172000Y-61722000D02*
X69292000Y-61722000D01*
X65500000Y-44500000D02*
X65500000Y-60050000D01*
X64000000Y-43000000D02*
X65500000Y-44500000D01*
X69292000Y-61722000D02*
X70100000Y-62530000D01*
X65500000Y-60050000D02*
X67172000Y-61722000D01*
%TO.N,Net-(C14-Pad2)*%
X68850000Y-63695000D02*
X70070000Y-63695000D01*
%TO.N,+1V8*%
X73025000Y-65659000D02*
X72750000Y-65934000D01*
X80200000Y-54967500D02*
X80200000Y-56000000D01*
X59150000Y-60050000D02*
X59600000Y-60500000D01*
X72750000Y-65934000D02*
X72750000Y-66234500D01*
D27*
%TO.N,/HP_driver_L/vneg*%
X70358000Y-67504500D02*
X70298500Y-67564000D01*
X60600000Y-58000000D02*
X60600000Y-57594835D01*
X60600000Y-57594835D02*
X60405165Y-57400000D01*
X70358000Y-66802000D02*
X70358000Y-67504500D01*
D29*
%TO.N,Net-(IC1-CPN)*%
X70806050Y-66000000D02*
X70980000Y-66000000D01*
X70980000Y-66000000D02*
X71347500Y-66367500D01*
D27*
%TO.N,Net-(IC1-CPP)*%
X72136000Y-65786000D02*
X71901000Y-65786000D01*
X71901000Y-65786000D02*
X71347500Y-65232500D01*
%TO.N,/FB_QMIC_R*%
X75900000Y-57750000D02*
X76500000Y-58350000D01*
X76500000Y-58350000D02*
X76500000Y-59150000D01*
%TO.N,/FB_IOP1_R*%
X77250000Y-57750000D02*
X77000000Y-58000000D01*
X77000000Y-58000000D02*
X77000000Y-59150000D01*
%TO.N,/FB_QOP1_R*%
X77000000Y-60500000D02*
X77500000Y-60000000D01*
X77500000Y-60000000D02*
X77500000Y-59150000D01*
%TO.N,/FB_IOP2_R*%
X78600000Y-57750000D02*
X78000000Y-58350000D01*
X78000000Y-58350000D02*
X78000000Y-59150000D01*
X79000000Y-57750000D02*
X78600000Y-57750000D01*
%TO.N,/FB_QOP2_R*%
X78500000Y-60500000D02*
X78500000Y-59150000D01*
%TO.N,/FF_QOP1_R*%
X54800000Y-69100000D02*
X52000000Y-66300000D01*
X68877500Y-66377500D02*
X68877500Y-65722500D01*
X71608000Y-62992000D02*
X73660000Y-62992000D01*
X59100000Y-69100000D02*
X54800000Y-69100000D01*
X68877500Y-65722500D02*
X71608000Y-62992000D01*
X52000000Y-66300000D02*
X52000000Y-65500000D01*
%TO.N,/FF_IOP1_R*%
X52500000Y-66300000D02*
X54400000Y-68200000D01*
X52500000Y-65500000D02*
X52500000Y-66300000D01*
X54400000Y-68200000D02*
X59100000Y-68200000D01*
%TO.N,/FF_QMIC_R*%
X53000000Y-66300000D02*
X54000000Y-67300000D01*
X53000000Y-65500000D02*
X53000000Y-66300000D01*
X54000000Y-67300000D02*
X59100000Y-67300000D01*
%TO.N,/FB_QMIC_L*%
X75900000Y-66292157D02*
X76500000Y-65692157D01*
X76500000Y-65692157D02*
X76500000Y-62750000D01*
X75900000Y-66750000D02*
X75900000Y-66292157D01*
%TO.N,/FB_IOP1_L*%
X77000000Y-65950000D02*
X77000000Y-62750000D01*
X76700000Y-66250000D02*
X77000000Y-65950000D01*
%TO.N,/FB_QOP1_L*%
X77500000Y-65750000D02*
X77500000Y-62750000D01*
%TO.N,/FB_IOP2_L*%
X78300000Y-65250000D02*
X78000000Y-64950000D01*
X78000000Y-64950000D02*
X78000000Y-62750000D01*
D26*
%TO.N,/AOHPL*%
X64800000Y-44800000D02*
X63000000Y-43000000D01*
X64800000Y-58500000D02*
X64800000Y-44800000D01*
X61850000Y-61450000D02*
X64800000Y-58500000D01*
X61850000Y-61632500D02*
X61850000Y-61450000D01*
%TO.N,Net-(C43-Pad2)*%
X61850000Y-62767500D02*
X63070000Y-62767500D01*
X63070000Y-62767500D02*
X63100000Y-62797500D01*
%TO.N,Net-(IC2-MICL)*%
X63961000Y-66832500D02*
X65126000Y-67997500D01*
X65126000Y-67997500D02*
X65302500Y-67997500D01*
X63802500Y-66832500D02*
X63802500Y-66082500D01*
X63802500Y-66832500D02*
X63961000Y-66832500D01*
%TO.N,/FF_mic_L_+*%
X63747500Y-71000000D02*
X65147500Y-69600000D01*
X57550000Y-77950000D02*
X57550000Y-74650000D01*
X57550000Y-74650000D02*
X61200000Y-71000000D01*
X65147500Y-69312500D02*
X63802500Y-67967500D01*
X61200000Y-71000000D02*
X63747500Y-71000000D01*
X65147500Y-69600000D02*
X65147500Y-69312500D01*
D27*
%TO.N,Net-(IC2-MICACL)*%
X64546428Y-65461428D02*
X64452500Y-65367500D01*
X64546428Y-66548000D02*
X64546428Y-65461428D01*
D26*
%TO.N,Net-(IC2-MICS)*%
X63952500Y-69600000D02*
X63952500Y-69397500D01*
X62147500Y-69402500D02*
X63052500Y-68497500D01*
X63952500Y-69397500D02*
X63052500Y-68497500D01*
D27*
X63052500Y-66548000D02*
X63052500Y-65367500D01*
D26*
X63052500Y-68497500D02*
X63052500Y-66548000D01*
X62147500Y-69600000D02*
X62147500Y-69402500D01*
D27*
%TO.N,Net-(IC2-MICACR)*%
X61550000Y-66548000D02*
X61550000Y-65437500D01*
X61550000Y-65437500D02*
X61652500Y-65335000D01*
%TO.N,Net-(IC2-CPN)*%
X60717854Y-58832500D02*
X60550000Y-58832500D01*
X61098041Y-59212687D02*
X60717854Y-58832500D01*
%TO.N,Net-(IC2-CPP)*%
X60100429Y-59517929D02*
X60550000Y-59967500D01*
X59996884Y-59517929D02*
X60100429Y-59517929D01*
D26*
%TO.N,/FB_mic_L_+*%
X60952500Y-69600000D02*
X60952500Y-69317500D01*
X60952500Y-69317500D02*
X62302500Y-67967500D01*
X60952500Y-69600000D02*
X60952500Y-70747500D01*
X57300000Y-74400000D02*
X53800000Y-74400000D01*
X60952500Y-70747500D02*
X57300000Y-74400000D01*
%TO.N,Net-(IC2-MICR)*%
X62302500Y-66832500D02*
X62199500Y-66832500D01*
X62302500Y-66832500D02*
X62302500Y-66082500D01*
X62199500Y-66832500D02*
X61034500Y-67997500D01*
X61034500Y-67997500D02*
X60802500Y-67997500D01*
D27*
%TO.N,/FB_QOP2_L*%
X78500000Y-64150000D02*
X78500000Y-62750000D01*
X79100000Y-64750000D02*
X78500000Y-64150000D01*
%TO.N,/FF_QOP1_L*%
X57700000Y-59000000D02*
X56407108Y-60292892D01*
X61400000Y-55600000D02*
X58800000Y-55600000D01*
X62300000Y-60300000D02*
X60213595Y-62386405D01*
X62300000Y-56500000D02*
X61400000Y-55600000D01*
X56407108Y-60292892D02*
X53407108Y-60292892D01*
X53000000Y-60700000D02*
X53000000Y-61900000D01*
X57700000Y-56700000D02*
X57700000Y-59000000D01*
X62300000Y-58900000D02*
X62300000Y-60300000D01*
X58800000Y-55600000D02*
X57700000Y-56700000D01*
X53407108Y-60292892D02*
X53000000Y-60700000D01*
X60213595Y-62386405D02*
X58420000Y-62386405D01*
X62300000Y-58900000D02*
X62300000Y-56500000D01*
%TO.N,/FF_IOP1_L*%
X52500000Y-61900000D02*
X52500000Y-60700000D01*
X57450000Y-58896446D02*
X57450000Y-56596446D01*
X53157108Y-60042892D02*
X56303554Y-60042892D01*
X63125000Y-56971446D02*
X63125000Y-58300000D01*
X52500000Y-60700000D02*
X53157108Y-60042892D01*
X56303554Y-60042892D02*
X57450000Y-58896446D01*
X57450000Y-56596446D02*
X58696446Y-55350000D01*
X61503553Y-55350000D02*
X63125000Y-56971446D01*
X58696446Y-55350000D02*
X61503553Y-55350000D01*
%TO.N,/FF_QMIC_L*%
X52000000Y-60700000D02*
X52000000Y-61900000D01*
X64000000Y-57800000D02*
X64000000Y-57492894D01*
X61607106Y-55100000D02*
X58592892Y-55100000D01*
X52907108Y-59792892D02*
X52000000Y-60700000D01*
X56200000Y-59792892D02*
X52907108Y-59792892D01*
X64000000Y-57492894D02*
X61607106Y-55100000D01*
X57200000Y-56492892D02*
X57200000Y-58792892D01*
X58592892Y-55100000D02*
X57200000Y-56492892D01*
X57200000Y-58792892D02*
X56200000Y-59792892D01*
D28*
%TO.N,/AREF*%
X82630500Y-38590500D02*
X82630500Y-39290500D01*
X81930500Y-39990500D02*
X81198000Y-39990500D01*
X82630500Y-39290500D02*
X81930500Y-39990500D01*
D26*
%TO.N,Net-(U8-OUT)*%
X65024000Y-32258000D02*
X65532000Y-32258000D01*
X63500000Y-33782000D02*
X64262000Y-33020000D01*
X64262000Y-33020000D02*
X65024000Y-32258000D01*
X63500000Y-33976500D02*
X63500000Y-33782000D01*
D28*
%TO.N,Net-(D1-A)*%
X87228000Y-46240500D02*
X87380500Y-46088000D01*
X87380500Y-46088000D02*
X87380500Y-44778000D01*
D26*
%TO.N,Net-(IC1-LINR)*%
X66743000Y-63695000D02*
X67600000Y-63695000D01*
X66548000Y-63500000D02*
X66743000Y-63695000D01*
%TO.N,Net-(IC1-QLINR)*%
X66294000Y-62500000D02*
X67600000Y-62500000D01*
X67600000Y-62500000D02*
X68850000Y-62500000D01*
D28*
%TO.N,/I2C_SDA*%
X81200000Y-49502500D02*
X80664500Y-50038000D01*
X83555188Y-47498000D02*
X82087342Y-47498000D01*
X80664500Y-50038000D02*
X79662000Y-50038000D01*
X64900000Y-59600000D02*
X64900000Y-60140000D01*
X82087342Y-47498000D02*
X81200000Y-48385342D01*
X64900000Y-60140000D02*
X66228000Y-61468000D01*
X79662000Y-50038000D02*
X79100000Y-50600000D01*
X81200000Y-48385342D02*
X81200000Y-49502500D01*
X84063188Y-48006000D02*
X83555188Y-47498000D01*
%TO.N,/I2C_SCL*%
X79021500Y-49502500D02*
X79800000Y-49502500D01*
X78486000Y-50038000D02*
X79021500Y-49502500D01*
X83130500Y-46990500D02*
X82312000Y-46990500D01*
X82312000Y-46990500D02*
X79800000Y-49502500D01*
D26*
%TO.N,/HP_R_-*%
X73850000Y-61532000D02*
X73850000Y-33550000D01*
X73850000Y-33550000D02*
X72705627Y-32405627D01*
X73152000Y-62230000D02*
X73850000Y-61532000D01*
X72705627Y-32405627D02*
X72705627Y-29840795D01*
%TO.N,/HP_R_+*%
X74200000Y-32200000D02*
X74000000Y-32000000D01*
X74800000Y-61963603D02*
X74200000Y-61363603D01*
X74800000Y-63700000D02*
X74800000Y-61963603D01*
X74200000Y-61363603D02*
X74200000Y-32200000D01*
%TO.N,/audio_in_R*%
X72600000Y-72700000D02*
X66881802Y-72700000D01*
X66881802Y-72700000D02*
X64750001Y-74831801D01*
X64750001Y-74831801D02*
X64750001Y-76154500D01*
X74700000Y-65300000D02*
X74700000Y-70600000D01*
X74100000Y-64700000D02*
X74700000Y-65300000D01*
X74700000Y-70600000D02*
X72600000Y-72700000D01*
%TO.N,Net-(IC2-LINR)*%
X65278000Y-61214000D02*
X64889500Y-61602500D01*
X64889500Y-61602500D02*
X64452500Y-61602500D01*
%TO.N,Net-(IC2-QLINR)*%
X63100000Y-61602500D02*
X63257500Y-61602500D01*
X65278000Y-63246000D02*
X64901000Y-63246000D01*
X64901000Y-63246000D02*
X64452500Y-62797500D01*
X63257500Y-61602500D02*
X64452500Y-62797500D01*
%TO.N,/HP_L_-*%
X58150000Y-40050000D02*
X55810000Y-42390000D01*
X58150000Y-40050000D02*
X59100000Y-39100000D01*
X55810000Y-58410000D02*
X55900000Y-58500000D01*
X59100000Y-39100000D02*
X59100000Y-32975000D01*
X59100000Y-32975000D02*
X60071000Y-32004000D01*
X55810000Y-42390000D02*
X55810000Y-58410000D01*
%TO.N,/HP_L_+*%
X55460000Y-42245026D02*
X55460000Y-57712974D01*
X58750000Y-38955026D02*
X55460000Y-42245026D01*
X55460000Y-57712974D02*
X55118000Y-58054974D01*
X58750000Y-30000000D02*
X58750000Y-38955026D01*
%TO.N,/audio_in_L*%
X64250000Y-76154500D02*
X64250000Y-75050000D01*
X64250000Y-75050000D02*
X64000000Y-74800000D01*
X57700000Y-60800000D02*
X57700000Y-61700000D01*
X57700000Y-61700000D02*
X56800000Y-62600000D01*
D28*
%TO.N,/D2*%
X88392000Y-44196000D02*
X88646000Y-44450000D01*
X88646000Y-44450000D02*
X88646000Y-48006000D01*
X86600000Y-63011392D02*
X75438000Y-74173392D01*
X68834000Y-75021000D02*
X68750001Y-75104999D01*
X88646000Y-48006000D02*
X86600000Y-50052000D01*
X75438000Y-74173392D02*
X75438000Y-75438000D01*
X86600000Y-50052000D02*
X86600000Y-63011392D01*
X68750001Y-75104999D02*
X68750001Y-76154500D01*
%TO.N,/ANC_PBO*%
X85601996Y-62598004D02*
X73870000Y-74330000D01*
X84130500Y-46990500D02*
X84130500Y-47300500D01*
X84582000Y-48160446D02*
X85601996Y-49180442D01*
X84130500Y-47300500D02*
X84582000Y-47752000D01*
X85601996Y-49180442D02*
X85601996Y-62598004D01*
X73870000Y-74330000D02*
X70423602Y-74330000D01*
X84582000Y-47752000D02*
X84582000Y-48160446D01*
X69250000Y-75503602D02*
X69250000Y-76154500D01*
X70423602Y-74330000D02*
X69250000Y-75503602D01*
%TO.N,/ANC_OFF*%
X69750002Y-75286442D02*
X69750002Y-76154500D01*
X85801497Y-62680641D02*
X73952138Y-74530000D01*
X73952138Y-74530000D02*
X70506444Y-74530000D01*
X85801497Y-48997084D02*
X85801497Y-62680641D01*
X70506444Y-74530000D02*
X69750002Y-75286442D01*
X85090000Y-48285587D02*
X85801497Y-48997084D01*
X85090000Y-48006000D02*
X85090000Y-48285587D01*
%TO.N,/ANC_ON*%
X86000998Y-48801163D02*
X86000998Y-62763278D01*
X85852000Y-47752000D02*
X85852000Y-48652165D01*
X70250001Y-75307642D02*
X70250001Y-76154500D01*
X86000998Y-62763278D02*
X74034276Y-74730000D01*
X70827643Y-74730000D02*
X70250001Y-75307642D01*
X85852000Y-48652165D02*
X86000998Y-48801163D01*
X74034276Y-74730000D02*
X70827643Y-74730000D01*
X85090000Y-46990000D02*
X85852000Y-47752000D01*
%TO.N,/D10*%
X86200498Y-48165502D02*
X86200498Y-62845915D01*
X74116413Y-74930000D02*
X71120000Y-74930000D01*
X71120000Y-74930000D02*
X70750002Y-75299998D01*
X86360000Y-48006000D02*
X86200498Y-48165502D01*
X70750002Y-75299998D02*
X70750002Y-76154500D01*
X86200498Y-62845915D02*
X74116413Y-74930000D01*
D30*
%TO.N,/USB_D+*%
X67750000Y-74744000D02*
X68834000Y-73660000D01*
X67750000Y-76154500D02*
X67750000Y-74744000D01*
X84440706Y-49086745D02*
X82774745Y-49086745D01*
X84902496Y-62163504D02*
X84902496Y-49548535D01*
X73406000Y-73660000D02*
X84902496Y-62163504D01*
X82774745Y-49086745D02*
X81948000Y-48260000D01*
X68834000Y-73660000D02*
X73406000Y-73660000D01*
X84902496Y-49548535D02*
X84440706Y-49086745D01*
%TO.N,/USB_D-*%
X73620000Y-74080000D02*
X68922000Y-74080000D01*
X68922000Y-74080000D02*
X68250002Y-74751998D01*
X83101733Y-48613733D02*
X84681733Y-48613733D01*
X68250002Y-74751998D02*
X68250002Y-76154500D01*
X82748000Y-48260000D02*
X83101733Y-48613733D01*
X85352496Y-62347504D02*
X73620000Y-74080000D01*
X84681733Y-48613733D02*
X85352496Y-49284496D01*
X85352496Y-49284496D02*
X85352496Y-62347504D01*
D28*
%TO.N,/D11*%
X86400499Y-48981501D02*
X87630000Y-47752000D01*
X86400499Y-62928051D02*
X86400499Y-48981501D01*
X74168000Y-75438000D02*
X74168000Y-75160550D01*
X65250000Y-75150000D02*
X65250000Y-76154500D01*
X74168000Y-75160550D02*
X86400499Y-62928051D01*
X65400000Y-75000000D02*
X65250000Y-75150000D01*
X87630000Y-47752000D02*
X87630000Y-47498000D01*
D26*
%TO.N,Net-(J20-Pad1)*%
X61976000Y-33946500D02*
X61976000Y-33274000D01*
X61976000Y-33274000D02*
X62992000Y-32258000D01*
%TO.N,/A4*%
X60452000Y-33946500D02*
X60452000Y-33274000D01*
X60452000Y-33274000D02*
X63885205Y-29840795D01*
X63885205Y-29840795D02*
X64262000Y-29840795D01*
D28*
%TO.N,/D13*%
X86106000Y-46313500D02*
X86033000Y-46240500D01*
X86106000Y-46990000D02*
X86106000Y-46313500D01*
%TO.N,/BAT_V_SENSE*%
X87145000Y-38852500D02*
X87630500Y-39338000D01*
X86720140Y-39240500D02*
X86478000Y-39240500D01*
X87108140Y-38852500D02*
X87145000Y-38852500D01*
X87108140Y-38852500D02*
X86720140Y-39240500D01*
%TO.N,Net-(U3-PROG)*%
X88652500Y-55902500D02*
X87750000Y-55902500D01*
X88750000Y-56000000D02*
X88652500Y-55902500D01*
D26*
%TO.N,/~{RESET}*%
X62738000Y-39700000D02*
X64750000Y-39700000D01*
X62738000Y-39700000D02*
X60650000Y-39700000D01*
D28*
X80033000Y-43740500D02*
X79380500Y-43740500D01*
%TO.N,/BM83_UART_RX*%
X87723000Y-41148000D02*
X86880500Y-41990500D01*
X80518000Y-47498000D02*
X80840158Y-47498000D01*
X88392000Y-41148000D02*
X87723000Y-41148000D01*
X85319840Y-41990500D02*
X86880500Y-41990500D01*
X80840158Y-47498000D02*
X84880500Y-43457658D01*
X84880500Y-43457658D02*
X84880500Y-42429840D01*
X84880500Y-42429840D02*
X85319840Y-41990500D01*
%TO.N,/BM83_UART_TX*%
X80615000Y-48006000D02*
X79248000Y-48006000D01*
X87603500Y-42190500D02*
X85402682Y-42190500D01*
X85402682Y-42190500D02*
X85080500Y-42512682D01*
X87884000Y-41910000D02*
X87603500Y-42190500D01*
X88646000Y-41910000D02*
X87884000Y-41910000D01*
X85080500Y-42512682D02*
X85080500Y-43540500D01*
X85080500Y-43540500D02*
X80615000Y-48006000D01*
%TO.N,/BM83_PROG_EN*%
X85970500Y-38235500D02*
X85970500Y-39895044D01*
X86360000Y-37846000D02*
X85970500Y-38235500D01*
X78278000Y-47960000D02*
X77978000Y-47960000D01*
X85970500Y-39895044D02*
X84480500Y-41385044D01*
X84480500Y-43291974D02*
X80881974Y-46890500D01*
X80881974Y-46890500D02*
X79347500Y-46890500D01*
X84480500Y-41385044D02*
X84480500Y-43291974D01*
X79347500Y-46890500D02*
X78278000Y-47960000D01*
%TO.N,/A3*%
X85130500Y-37984500D02*
X85130500Y-38490500D01*
X83966500Y-36820500D02*
X85130500Y-37984500D01*
%TO.N,/D4*%
X77978000Y-48768000D02*
X77978000Y-48542843D01*
X84680500Y-42346998D02*
X85236998Y-41790500D01*
X86580500Y-41790500D02*
X88138000Y-40233000D01*
X79430342Y-47090500D02*
X80964817Y-47090500D01*
X77978000Y-48542843D02*
X79430342Y-47090500D01*
X85236998Y-41790500D02*
X86580500Y-41790500D01*
X84680500Y-43374816D02*
X84680500Y-42346998D01*
X88138000Y-40233000D02*
X88138000Y-39990500D01*
X80964817Y-47090500D02*
X84680500Y-43374816D01*
%TO.N,/3V3_EN*%
X80010000Y-48514000D02*
X80389842Y-48514000D01*
X80389842Y-48514000D02*
X84926499Y-43977343D01*
X84926499Y-43977343D02*
X87576334Y-43977343D01*
X88005500Y-45333500D02*
X88138000Y-45466000D01*
X88005500Y-44406509D02*
X88005500Y-45333500D01*
X87576334Y-43977343D02*
X88005500Y-44406509D01*
%TD*%
M02*
