%TF.GenerationSoftware,KiCad,Pcbnew,(7.0.0)*%
%TF.CreationDate,2023-05-27T11:20:30+01:00*%
%TF.ProjectId,left_main,6c656674-5f6d-4616-996e-2e6b69636164,rev?*%
%TF.SameCoordinates,Original*%
%TF.FileFunction,Legend,Bot*%
%TF.FilePolarity,Positive*%
%FSLAX46Y46*%
G04 Gerber Fmt 4.6, Leading zero omitted, Abs format (unit mm)*
G04 Created by KiCad (PCBNEW (7.0.0)) date 2023-05-27 11:20:30*
%MOMM*%
%LPD*%
G01*
G04 APERTURE LIST*
G04 Aperture macros list*
%AMRoundRect*
0 Rectangle with rounded corners*
0 $1 Rounding radius*
0 $2 $3 $4 $5 $6 $7 $8 $9 X,Y pos of 4 corners*
0 Add a 4 corners polygon primitive as box body*
4,1,4,$2,$3,$4,$5,$6,$7,$8,$9,$2,$3,0*
0 Add four circle primitives for the rounded corners*
1,1,$1+$1,$2,$3*
1,1,$1+$1,$4,$5*
1,1,$1+$1,$6,$7*
1,1,$1+$1,$8,$9*
0 Add four rect primitives between the rounded corners*
20,1,$1+$1,$2,$3,$4,$5,0*
20,1,$1+$1,$4,$5,$6,$7,0*
20,1,$1+$1,$6,$7,$8,$9,0*
20,1,$1+$1,$8,$9,$2,$3,0*%
G04 Aperture macros list end*
%ADD10C,0.150000*%
%ADD11C,0.120000*%
%ADD12C,0.152400*%
%ADD13R,0.600000X1.500000*%
%ADD14R,1.500000X0.600000*%
%ADD15R,0.760000X2.790000*%
%ADD16R,1.780000X1.780000*%
%ADD17O,0.650000X0.200000*%
%ADD18O,0.200000X0.650000*%
%ADD19R,0.875000X0.875000*%
%ADD20R,1.000000X1.800000*%
%ADD21RoundRect,0.062500X-0.062500X0.375000X-0.062500X-0.375000X0.062500X-0.375000X0.062500X0.375000X0*%
%ADD22RoundRect,0.062500X-0.375000X0.062500X-0.375000X-0.062500X0.375000X-0.062500X0.375000X0.062500X0*%
%ADD23R,5.100000X5.100000*%
%ADD24RoundRect,0.225000X0.375000X-0.225000X0.375000X0.225000X-0.375000X0.225000X-0.375000X-0.225000X0*%
%ADD25RoundRect,0.150000X-0.150000X0.512500X-0.150000X-0.512500X0.150000X-0.512500X0.150000X0.512500X0*%
%ADD26RoundRect,0.150000X0.150000X-0.512500X0.150000X0.512500X-0.150000X0.512500X-0.150000X-0.512500X0*%
%ADD27RoundRect,0.150000X-0.512500X-0.150000X0.512500X-0.150000X0.512500X0.150000X-0.512500X0.150000X0*%
%ADD28R,0.254000X0.711200*%
%ADD29R,1.295400X0.889000*%
%ADD30RoundRect,0.150000X0.512500X0.150000X-0.512500X0.150000X-0.512500X-0.150000X0.512500X-0.150000X0*%
G04 APERTURE END LIST*
D10*
%TO.C,U1*%
X76861904Y-39467380D02*
X76861904Y-40276904D01*
X76861904Y-40276904D02*
X76814285Y-40372142D01*
X76814285Y-40372142D02*
X76766666Y-40419761D01*
X76766666Y-40419761D02*
X76671428Y-40467380D01*
X76671428Y-40467380D02*
X76480952Y-40467380D01*
X76480952Y-40467380D02*
X76385714Y-40419761D01*
X76385714Y-40419761D02*
X76338095Y-40372142D01*
X76338095Y-40372142D02*
X76290476Y-40276904D01*
X76290476Y-40276904D02*
X76290476Y-39467380D01*
X75290476Y-40467380D02*
X75861904Y-40467380D01*
X75576190Y-40467380D02*
X75576190Y-39467380D01*
X75576190Y-39467380D02*
X75671428Y-39610238D01*
X75671428Y-39610238D02*
X75766666Y-39705476D01*
X75766666Y-39705476D02*
X75861904Y-39753095D01*
%TO.C,IC1*%
X70897617Y-67467380D02*
X70897617Y-66467380D01*
X69849999Y-67372142D02*
X69897618Y-67419761D01*
X69897618Y-67419761D02*
X70040475Y-67467380D01*
X70040475Y-67467380D02*
X70135713Y-67467380D01*
X70135713Y-67467380D02*
X70278570Y-67419761D01*
X70278570Y-67419761D02*
X70373808Y-67324523D01*
X70373808Y-67324523D02*
X70421427Y-67229285D01*
X70421427Y-67229285D02*
X70469046Y-67038809D01*
X70469046Y-67038809D02*
X70469046Y-66895952D01*
X70469046Y-66895952D02*
X70421427Y-66705476D01*
X70421427Y-66705476D02*
X70373808Y-66610238D01*
X70373808Y-66610238D02*
X70278570Y-66515000D01*
X70278570Y-66515000D02*
X70135713Y-66467380D01*
X70135713Y-66467380D02*
X70040475Y-66467380D01*
X70040475Y-66467380D02*
X69897618Y-66515000D01*
X69897618Y-66515000D02*
X69849999Y-66562619D01*
X68897618Y-67467380D02*
X69469046Y-67467380D01*
X69183332Y-67467380D02*
X69183332Y-66467380D01*
X69183332Y-66467380D02*
X69278570Y-66610238D01*
X69278570Y-66610238D02*
X69373808Y-66705476D01*
X69373808Y-66705476D02*
X69469046Y-66753095D01*
%TO.C,Y1*%
X81902690Y-34457690D02*
X81902690Y-34933880D01*
X82236023Y-33933880D02*
X81902690Y-34457690D01*
X81902690Y-34457690D02*
X81569357Y-33933880D01*
X80712214Y-34933880D02*
X81283642Y-34933880D01*
X80997928Y-34933880D02*
X80997928Y-33933880D01*
X80997928Y-33933880D02*
X81093166Y-34076738D01*
X81093166Y-34076738D02*
X81188404Y-34171976D01*
X81188404Y-34171976D02*
X81283642Y-34219595D01*
%TO.C,U2*%
X86061904Y-36467380D02*
X86061904Y-37276904D01*
X86061904Y-37276904D02*
X86014285Y-37372142D01*
X86014285Y-37372142D02*
X85966666Y-37419761D01*
X85966666Y-37419761D02*
X85871428Y-37467380D01*
X85871428Y-37467380D02*
X85680952Y-37467380D01*
X85680952Y-37467380D02*
X85585714Y-37419761D01*
X85585714Y-37419761D02*
X85538095Y-37372142D01*
X85538095Y-37372142D02*
X85490476Y-37276904D01*
X85490476Y-37276904D02*
X85490476Y-36467380D01*
X85061904Y-36562619D02*
X85014285Y-36515000D01*
X85014285Y-36515000D02*
X84919047Y-36467380D01*
X84919047Y-36467380D02*
X84680952Y-36467380D01*
X84680952Y-36467380D02*
X84585714Y-36515000D01*
X84585714Y-36515000D02*
X84538095Y-36562619D01*
X84538095Y-36562619D02*
X84490476Y-36657857D01*
X84490476Y-36657857D02*
X84490476Y-36753095D01*
X84490476Y-36753095D02*
X84538095Y-36895952D01*
X84538095Y-36895952D02*
X85109523Y-37467380D01*
X85109523Y-37467380D02*
X84490476Y-37467380D01*
%TO.C,D2*%
X84738094Y-58567380D02*
X84738094Y-57567380D01*
X84738094Y-57567380D02*
X84499999Y-57567380D01*
X84499999Y-57567380D02*
X84357142Y-57615000D01*
X84357142Y-57615000D02*
X84261904Y-57710238D01*
X84261904Y-57710238D02*
X84214285Y-57805476D01*
X84214285Y-57805476D02*
X84166666Y-57995952D01*
X84166666Y-57995952D02*
X84166666Y-58138809D01*
X84166666Y-58138809D02*
X84214285Y-58329285D01*
X84214285Y-58329285D02*
X84261904Y-58424523D01*
X84261904Y-58424523D02*
X84357142Y-58519761D01*
X84357142Y-58519761D02*
X84499999Y-58567380D01*
X84499999Y-58567380D02*
X84738094Y-58567380D01*
X83785713Y-57662619D02*
X83738094Y-57615000D01*
X83738094Y-57615000D02*
X83642856Y-57567380D01*
X83642856Y-57567380D02*
X83404761Y-57567380D01*
X83404761Y-57567380D02*
X83309523Y-57615000D01*
X83309523Y-57615000D02*
X83261904Y-57662619D01*
X83261904Y-57662619D02*
X83214285Y-57757857D01*
X83214285Y-57757857D02*
X83214285Y-57853095D01*
X83214285Y-57853095D02*
X83261904Y-57995952D01*
X83261904Y-57995952D02*
X83833332Y-58567380D01*
X83833332Y-58567380D02*
X83214285Y-58567380D01*
%TO.C,U6*%
X81161904Y-57467380D02*
X81161904Y-58276904D01*
X81161904Y-58276904D02*
X81114285Y-58372142D01*
X81114285Y-58372142D02*
X81066666Y-58419761D01*
X81066666Y-58419761D02*
X80971428Y-58467380D01*
X80971428Y-58467380D02*
X80780952Y-58467380D01*
X80780952Y-58467380D02*
X80685714Y-58419761D01*
X80685714Y-58419761D02*
X80638095Y-58372142D01*
X80638095Y-58372142D02*
X80590476Y-58276904D01*
X80590476Y-58276904D02*
X80590476Y-57467380D01*
X79685714Y-57467380D02*
X79876190Y-57467380D01*
X79876190Y-57467380D02*
X79971428Y-57515000D01*
X79971428Y-57515000D02*
X80019047Y-57562619D01*
X80019047Y-57562619D02*
X80114285Y-57705476D01*
X80114285Y-57705476D02*
X80161904Y-57895952D01*
X80161904Y-57895952D02*
X80161904Y-58276904D01*
X80161904Y-58276904D02*
X80114285Y-58372142D01*
X80114285Y-58372142D02*
X80066666Y-58419761D01*
X80066666Y-58419761D02*
X79971428Y-58467380D01*
X79971428Y-58467380D02*
X79780952Y-58467380D01*
X79780952Y-58467380D02*
X79685714Y-58419761D01*
X79685714Y-58419761D02*
X79638095Y-58372142D01*
X79638095Y-58372142D02*
X79590476Y-58276904D01*
X79590476Y-58276904D02*
X79590476Y-58038809D01*
X79590476Y-58038809D02*
X79638095Y-57943571D01*
X79638095Y-57943571D02*
X79685714Y-57895952D01*
X79685714Y-57895952D02*
X79780952Y-57848333D01*
X79780952Y-57848333D02*
X79971428Y-57848333D01*
X79971428Y-57848333D02*
X80066666Y-57895952D01*
X80066666Y-57895952D02*
X80114285Y-57943571D01*
X80114285Y-57943571D02*
X80161904Y-58038809D01*
%TO.C,U7*%
X80961904Y-47067380D02*
X80961904Y-47876904D01*
X80961904Y-47876904D02*
X80914285Y-47972142D01*
X80914285Y-47972142D02*
X80866666Y-48019761D01*
X80866666Y-48019761D02*
X80771428Y-48067380D01*
X80771428Y-48067380D02*
X80580952Y-48067380D01*
X80580952Y-48067380D02*
X80485714Y-48019761D01*
X80485714Y-48019761D02*
X80438095Y-47972142D01*
X80438095Y-47972142D02*
X80390476Y-47876904D01*
X80390476Y-47876904D02*
X80390476Y-47067380D01*
X80009523Y-47067380D02*
X79342857Y-47067380D01*
X79342857Y-47067380D02*
X79771428Y-48067380D01*
%TO.C,U3*%
X88461904Y-57467380D02*
X88461904Y-58276904D01*
X88461904Y-58276904D02*
X88414285Y-58372142D01*
X88414285Y-58372142D02*
X88366666Y-58419761D01*
X88366666Y-58419761D02*
X88271428Y-58467380D01*
X88271428Y-58467380D02*
X88080952Y-58467380D01*
X88080952Y-58467380D02*
X87985714Y-58419761D01*
X87985714Y-58419761D02*
X87938095Y-58372142D01*
X87938095Y-58372142D02*
X87890476Y-58276904D01*
X87890476Y-58276904D02*
X87890476Y-57467380D01*
X87509523Y-57467380D02*
X86890476Y-57467380D01*
X86890476Y-57467380D02*
X87223809Y-57848333D01*
X87223809Y-57848333D02*
X87080952Y-57848333D01*
X87080952Y-57848333D02*
X86985714Y-57895952D01*
X86985714Y-57895952D02*
X86938095Y-57943571D01*
X86938095Y-57943571D02*
X86890476Y-58038809D01*
X86890476Y-58038809D02*
X86890476Y-58276904D01*
X86890476Y-58276904D02*
X86938095Y-58372142D01*
X86938095Y-58372142D02*
X86985714Y-58419761D01*
X86985714Y-58419761D02*
X87080952Y-58467380D01*
X87080952Y-58467380D02*
X87366666Y-58467380D01*
X87366666Y-58467380D02*
X87461904Y-58419761D01*
X87461904Y-58419761D02*
X87509523Y-58372142D01*
%TO.C,U8*%
X64394404Y-34599380D02*
X64394404Y-35408904D01*
X64394404Y-35408904D02*
X64346785Y-35504142D01*
X64346785Y-35504142D02*
X64299166Y-35551761D01*
X64299166Y-35551761D02*
X64203928Y-35599380D01*
X64203928Y-35599380D02*
X64013452Y-35599380D01*
X64013452Y-35599380D02*
X63918214Y-35551761D01*
X63918214Y-35551761D02*
X63870595Y-35504142D01*
X63870595Y-35504142D02*
X63822976Y-35408904D01*
X63822976Y-35408904D02*
X63822976Y-34599380D01*
X63203928Y-35027952D02*
X63299166Y-34980333D01*
X63299166Y-34980333D02*
X63346785Y-34932714D01*
X63346785Y-34932714D02*
X63394404Y-34837476D01*
X63394404Y-34837476D02*
X63394404Y-34789857D01*
X63394404Y-34789857D02*
X63346785Y-34694619D01*
X63346785Y-34694619D02*
X63299166Y-34647000D01*
X63299166Y-34647000D02*
X63203928Y-34599380D01*
X63203928Y-34599380D02*
X63013452Y-34599380D01*
X63013452Y-34599380D02*
X62918214Y-34647000D01*
X62918214Y-34647000D02*
X62870595Y-34694619D01*
X62870595Y-34694619D02*
X62822976Y-34789857D01*
X62822976Y-34789857D02*
X62822976Y-34837476D01*
X62822976Y-34837476D02*
X62870595Y-34932714D01*
X62870595Y-34932714D02*
X62918214Y-34980333D01*
X62918214Y-34980333D02*
X63013452Y-35027952D01*
X63013452Y-35027952D02*
X63203928Y-35027952D01*
X63203928Y-35027952D02*
X63299166Y-35075571D01*
X63299166Y-35075571D02*
X63346785Y-35123190D01*
X63346785Y-35123190D02*
X63394404Y-35218428D01*
X63394404Y-35218428D02*
X63394404Y-35408904D01*
X63394404Y-35408904D02*
X63346785Y-35504142D01*
X63346785Y-35504142D02*
X63299166Y-35551761D01*
X63299166Y-35551761D02*
X63203928Y-35599380D01*
X63203928Y-35599380D02*
X63013452Y-35599380D01*
X63013452Y-35599380D02*
X62918214Y-35551761D01*
X62918214Y-35551761D02*
X62870595Y-35504142D01*
X62870595Y-35504142D02*
X62822976Y-35408904D01*
X62822976Y-35408904D02*
X62822976Y-35218428D01*
X62822976Y-35218428D02*
X62870595Y-35123190D01*
X62870595Y-35123190D02*
X62918214Y-35075571D01*
X62918214Y-35075571D02*
X63013452Y-35027952D01*
%TO.C,U5*%
X88761904Y-47067380D02*
X88761904Y-47876904D01*
X88761904Y-47876904D02*
X88714285Y-47972142D01*
X88714285Y-47972142D02*
X88666666Y-48019761D01*
X88666666Y-48019761D02*
X88571428Y-48067380D01*
X88571428Y-48067380D02*
X88380952Y-48067380D01*
X88380952Y-48067380D02*
X88285714Y-48019761D01*
X88285714Y-48019761D02*
X88238095Y-47972142D01*
X88238095Y-47972142D02*
X88190476Y-47876904D01*
X88190476Y-47876904D02*
X88190476Y-47067380D01*
X87238095Y-47067380D02*
X87714285Y-47067380D01*
X87714285Y-47067380D02*
X87761904Y-47543571D01*
X87761904Y-47543571D02*
X87714285Y-47495952D01*
X87714285Y-47495952D02*
X87619047Y-47448333D01*
X87619047Y-47448333D02*
X87380952Y-47448333D01*
X87380952Y-47448333D02*
X87285714Y-47495952D01*
X87285714Y-47495952D02*
X87238095Y-47543571D01*
X87238095Y-47543571D02*
X87190476Y-47638809D01*
X87190476Y-47638809D02*
X87190476Y-47876904D01*
X87190476Y-47876904D02*
X87238095Y-47972142D01*
X87238095Y-47972142D02*
X87285714Y-48019761D01*
X87285714Y-48019761D02*
X87380952Y-48067380D01*
X87380952Y-48067380D02*
X87619047Y-48067380D01*
X87619047Y-48067380D02*
X87714285Y-48019761D01*
X87714285Y-48019761D02*
X87761904Y-47972142D01*
%TO.C,IC2*%
X63176189Y-67367380D02*
X63176189Y-66367380D01*
X62128571Y-67272142D02*
X62176190Y-67319761D01*
X62176190Y-67319761D02*
X62319047Y-67367380D01*
X62319047Y-67367380D02*
X62414285Y-67367380D01*
X62414285Y-67367380D02*
X62557142Y-67319761D01*
X62557142Y-67319761D02*
X62652380Y-67224523D01*
X62652380Y-67224523D02*
X62699999Y-67129285D01*
X62699999Y-67129285D02*
X62747618Y-66938809D01*
X62747618Y-66938809D02*
X62747618Y-66795952D01*
X62747618Y-66795952D02*
X62699999Y-66605476D01*
X62699999Y-66605476D02*
X62652380Y-66510238D01*
X62652380Y-66510238D02*
X62557142Y-66415000D01*
X62557142Y-66415000D02*
X62414285Y-66367380D01*
X62414285Y-66367380D02*
X62319047Y-66367380D01*
X62319047Y-66367380D02*
X62176190Y-66415000D01*
X62176190Y-66415000D02*
X62128571Y-66462619D01*
X61747618Y-66462619D02*
X61699999Y-66415000D01*
X61699999Y-66415000D02*
X61604761Y-66367380D01*
X61604761Y-66367380D02*
X61366666Y-66367380D01*
X61366666Y-66367380D02*
X61271428Y-66415000D01*
X61271428Y-66415000D02*
X61223809Y-66462619D01*
X61223809Y-66462619D02*
X61176190Y-66557857D01*
X61176190Y-66557857D02*
X61176190Y-66653095D01*
X61176190Y-66653095D02*
X61223809Y-66795952D01*
X61223809Y-66795952D02*
X61795237Y-67367380D01*
X61795237Y-67367380D02*
X61176190Y-67367380D01*
%TO.C,U4*%
X85061904Y-47067380D02*
X85061904Y-47876904D01*
X85061904Y-47876904D02*
X85014285Y-47972142D01*
X85014285Y-47972142D02*
X84966666Y-48019761D01*
X84966666Y-48019761D02*
X84871428Y-48067380D01*
X84871428Y-48067380D02*
X84680952Y-48067380D01*
X84680952Y-48067380D02*
X84585714Y-48019761D01*
X84585714Y-48019761D02*
X84538095Y-47972142D01*
X84538095Y-47972142D02*
X84490476Y-47876904D01*
X84490476Y-47876904D02*
X84490476Y-47067380D01*
X83585714Y-47400714D02*
X83585714Y-48067380D01*
X83823809Y-47019761D02*
X84061904Y-47734047D01*
X84061904Y-47734047D02*
X83442857Y-47734047D01*
D11*
%TO.C,U1*%
X77030000Y-41510000D02*
X45030000Y-41510000D01*
X55030000Y-41510000D02*
X55030000Y-56510000D01*
X45030000Y-41510000D02*
X45030000Y-56510000D01*
X59030000Y-50410000D02*
X59030000Y-55410000D01*
X55030000Y-50410000D02*
X59030000Y-50410000D01*
X59030000Y-55410000D02*
X55030000Y-55410000D01*
X77030000Y-56510000D02*
X77030000Y-41510000D01*
X45030000Y-56510000D02*
X77030000Y-56510000D01*
X50530000Y-41510000D02*
G75*
G03*
X51530000Y-41510000I500000J0D01*
G01*
X55230000Y-40910000D02*
G75*
G03*
X55230000Y-40910000I-200000J0D01*
G01*
%TO.C,IC1*%
X66821428Y-59500000D02*
X66821428Y-60600000D01*
X67921428Y-59500000D02*
X66821428Y-59500000D01*
X67921428Y-65700000D02*
X66646428Y-65700000D01*
X71921428Y-59500000D02*
X73021428Y-59500000D01*
X71921428Y-65700000D02*
X73021428Y-65700000D01*
X73021428Y-59500000D02*
X73021428Y-60600000D01*
X73021428Y-65700000D02*
X73021428Y-64600000D01*
%TO.C,Y1*%
X82101500Y-37441500D02*
X80751500Y-37441500D01*
X82101500Y-35691500D02*
X80751500Y-35691500D01*
%TO.C,U2*%
X87458000Y-39180500D02*
X86983000Y-39180500D01*
X87458000Y-39655500D02*
X87458000Y-39180500D01*
X80238000Y-39655500D02*
X80238000Y-39180500D01*
X87458000Y-45925500D02*
X87458000Y-46400500D01*
X80238000Y-45925500D02*
X80238000Y-46400500D01*
X87458000Y-46400500D02*
X86983000Y-46400500D01*
X80238000Y-46400500D02*
X80713000Y-46400500D01*
%TO.C,D2*%
X83000000Y-57160000D02*
X83000000Y-53150000D01*
X85000000Y-57160000D02*
X83000000Y-57160000D01*
X85000000Y-57160000D02*
X85000000Y-53150000D01*
%TO.C,U6*%
X81810000Y-55062500D02*
X81810000Y-54262500D01*
X81810000Y-55062500D02*
X81810000Y-55862500D01*
X78690000Y-55062500D02*
X78690000Y-53262500D01*
X78690000Y-55062500D02*
X78690000Y-55862500D01*
%TO.C,U7*%
X78640000Y-50600000D02*
X78640000Y-51400000D01*
X78640000Y-50600000D02*
X78640000Y-49800000D01*
X81760000Y-50600000D02*
X81760000Y-52400000D01*
X81760000Y-50600000D02*
X81760000Y-49800000D01*
%TO.C,U3*%
X89360000Y-54765000D02*
X89360000Y-53965000D01*
X89360000Y-54765000D02*
X89360000Y-55565000D01*
X86240000Y-54765000D02*
X86240000Y-52965000D01*
X86240000Y-54765000D02*
X86240000Y-55565000D01*
%TO.C,U8*%
X63632500Y-31272000D02*
X62832500Y-31272000D01*
X63632500Y-31272000D02*
X64432500Y-31272000D01*
X63632500Y-34392000D02*
X61832500Y-34392000D01*
X63632500Y-34392000D02*
X64432500Y-34392000D01*
D12*
%TO.C,U5*%
X86944901Y-50283945D02*
X86944901Y-49258655D01*
X89307101Y-49258655D02*
X89307101Y-50283945D01*
X88977601Y-51681000D02*
G75*
G03*
X88977601Y-51681000I-101600J0D01*
G01*
D11*
%TO.C,IC2*%
X65025000Y-65700000D02*
X65025000Y-64600000D01*
X63925000Y-65700000D02*
X65025000Y-65700000D01*
X63925000Y-59500000D02*
X65200000Y-59500000D01*
X59925000Y-65700000D02*
X58825000Y-65700000D01*
X59925000Y-59500000D02*
X58825000Y-59500000D01*
X58825000Y-65700000D02*
X58825000Y-64600000D01*
X58825000Y-59500000D02*
X58825000Y-60600000D01*
%TO.C,U4*%
X84400000Y-51810000D02*
X85200000Y-51810000D01*
X84400000Y-51810000D02*
X83600000Y-51810000D01*
X84400000Y-48690000D02*
X86200000Y-48690000D01*
X84400000Y-48690000D02*
X83600000Y-48690000D01*
%TD*%
%LPC*%
D13*
%TO.C,U1*%
X56129999Y-41759999D03*
X57129999Y-41759999D03*
X58129999Y-41759999D03*
X59129999Y-41759999D03*
X60129999Y-41759999D03*
X61129999Y-41759999D03*
X62129999Y-41759999D03*
X63129999Y-41759999D03*
X64129999Y-41759999D03*
X65129999Y-41759999D03*
X66129999Y-41759999D03*
X67129999Y-41759999D03*
X68129999Y-41759999D03*
X69129999Y-41759999D03*
X70129999Y-41759999D03*
X71129999Y-41759999D03*
X72129999Y-41759999D03*
X73129999Y-41759999D03*
X74129999Y-41759999D03*
X75129999Y-41759999D03*
D14*
X76779999Y-44509999D03*
X76779999Y-45509999D03*
X76779999Y-46509999D03*
X76779999Y-47509999D03*
X76779999Y-48509999D03*
X76779999Y-49509999D03*
X76779999Y-50509999D03*
X76779999Y-51509999D03*
X76779999Y-52509999D03*
X76779999Y-53509999D03*
D13*
X75129999Y-56259999D03*
X74129999Y-56259999D03*
X73129999Y-56259999D03*
X72129999Y-56259999D03*
X71129999Y-56259999D03*
X70129999Y-56259999D03*
X69129999Y-56259999D03*
X68129999Y-56259999D03*
X67129999Y-56259999D03*
X66129999Y-56259999D03*
X65129999Y-56259999D03*
X64129999Y-56259999D03*
X63129999Y-56259999D03*
X62129999Y-56259999D03*
X61129999Y-56259999D03*
X60129999Y-56259999D03*
X59129999Y-56259999D03*
X58129999Y-56259999D03*
X57129999Y-56259999D03*
D15*
X56449999Y-45469999D03*
D16*
X66559999Y-53529999D03*
D13*
X56129999Y-56259999D03*
%TD*%
D17*
%TO.C,IC1*%
X67296427Y-64199999D03*
X67296427Y-63799999D03*
X67296427Y-63399999D03*
X67296427Y-62999999D03*
X67296427Y-62599999D03*
X67296427Y-62199999D03*
X67296427Y-61799999D03*
X67296427Y-61399999D03*
X67296427Y-60999999D03*
D18*
X68321427Y-59974999D03*
X68721427Y-59974999D03*
X69121427Y-59974999D03*
X69521427Y-59974999D03*
X69921427Y-59974999D03*
X70321427Y-59974999D03*
X70721427Y-59974999D03*
X71121427Y-59974999D03*
X71521427Y-59974999D03*
D17*
X72546427Y-60999999D03*
X72546427Y-61399999D03*
X72546427Y-61799999D03*
X72546427Y-62199999D03*
X72546427Y-62599999D03*
X72546427Y-62999999D03*
X72546427Y-63399999D03*
X72546427Y-63799999D03*
X72546427Y-64199999D03*
D18*
X71521427Y-65224999D03*
X71121427Y-65224999D03*
X70721427Y-65224999D03*
X70321427Y-65224999D03*
X69921427Y-65224999D03*
X69521427Y-65224999D03*
X69121427Y-65224999D03*
X68721427Y-65224999D03*
X68321427Y-65224999D03*
D19*
X68608927Y-61287499D03*
X68608927Y-62162499D03*
X68608927Y-63037499D03*
X68608927Y-63912499D03*
X69483927Y-61287499D03*
X69483927Y-62162499D03*
X69483927Y-63037499D03*
X69483927Y-63912499D03*
X70358927Y-61287499D03*
X70358927Y-62162499D03*
X70358927Y-63037499D03*
X70358927Y-63912499D03*
X71233927Y-61287499D03*
X71233927Y-62162499D03*
X71233927Y-63037499D03*
X71233927Y-63912499D03*
%TD*%
D20*
%TO.C,Y1*%
X80176499Y-36566499D03*
X82676499Y-36566499D03*
%TD*%
D21*
%TO.C,U2*%
X81098000Y-39353000D03*
X81598000Y-39353000D03*
X82098000Y-39353000D03*
X82598000Y-39353000D03*
X83098000Y-39353000D03*
X83598000Y-39353000D03*
X84098000Y-39353000D03*
X84598000Y-39353000D03*
X85098000Y-39353000D03*
X85598000Y-39353000D03*
X86098000Y-39353000D03*
X86598000Y-39353000D03*
D22*
X87285500Y-40040500D03*
X87285500Y-40540500D03*
X87285500Y-41040500D03*
X87285500Y-41540500D03*
X87285500Y-42040500D03*
X87285500Y-42540500D03*
X87285500Y-43040500D03*
X87285500Y-43540500D03*
X87285500Y-44040500D03*
X87285500Y-44540500D03*
X87285500Y-45040500D03*
X87285500Y-45540500D03*
D21*
X86598000Y-46228000D03*
X86098000Y-46228000D03*
X85598000Y-46228000D03*
X85098000Y-46228000D03*
X84598000Y-46228000D03*
X84098000Y-46228000D03*
X83598000Y-46228000D03*
X83098000Y-46228000D03*
X82598000Y-46228000D03*
X82098000Y-46228000D03*
X81598000Y-46228000D03*
X81098000Y-46228000D03*
D22*
X80410500Y-45540500D03*
X80410500Y-45040500D03*
X80410500Y-44540500D03*
X80410500Y-44040500D03*
X80410500Y-43540500D03*
X80410500Y-43040500D03*
X80410500Y-42540500D03*
X80410500Y-42040500D03*
X80410500Y-41540500D03*
X80410500Y-41040500D03*
X80410500Y-40540500D03*
X80410500Y-40040500D03*
D23*
X83847999Y-42790499D03*
%TD*%
D24*
%TO.C,D2*%
X84000000Y-56450000D03*
X84000000Y-53150000D03*
%TD*%
D25*
%TO.C,U6*%
X79300000Y-53925000D03*
X80250000Y-53925000D03*
X81200000Y-53925000D03*
X81200000Y-56200000D03*
X79300000Y-56200000D03*
%TD*%
D26*
%TO.C,U7*%
X81150000Y-51737500D03*
X80200000Y-51737500D03*
X79250000Y-51737500D03*
X79250000Y-49462500D03*
X81150000Y-49462500D03*
%TD*%
D25*
%TO.C,U3*%
X86850000Y-53627500D03*
X87800000Y-53627500D03*
X88750000Y-53627500D03*
X88750000Y-55902500D03*
X86850000Y-55902500D03*
%TD*%
D27*
%TO.C,U8*%
X62495000Y-33782000D03*
X62495000Y-32832000D03*
X62495000Y-31882000D03*
X64770000Y-31882000D03*
X64770000Y-33782000D03*
%TD*%
D28*
%TO.C,U5*%
X88876001Y-50774599D03*
X88376000Y-50774599D03*
X87876000Y-50774599D03*
X87375999Y-50774599D03*
X87375999Y-48767999D03*
X87876000Y-48767999D03*
X88376000Y-48767999D03*
X88876001Y-48767999D03*
D29*
X88126000Y-49771299D03*
%TD*%
D17*
%TO.C,IC2*%
X64549999Y-60999999D03*
X64549999Y-61399999D03*
X64549999Y-61799999D03*
X64549999Y-62199999D03*
X64549999Y-62599999D03*
X64549999Y-62999999D03*
X64549999Y-63399999D03*
X64549999Y-63799999D03*
X64549999Y-64199999D03*
D18*
X63524999Y-65224999D03*
X63124999Y-65224999D03*
X62724999Y-65224999D03*
X62324999Y-65224999D03*
X61924999Y-65224999D03*
X61524999Y-65224999D03*
X61124999Y-65224999D03*
X60724999Y-65224999D03*
X60324999Y-65224999D03*
D17*
X59299999Y-64199999D03*
X59299999Y-63799999D03*
X59299999Y-63399999D03*
X59299999Y-62999999D03*
X59299999Y-62599999D03*
X59299999Y-62199999D03*
X59299999Y-61799999D03*
X59299999Y-61399999D03*
X59299999Y-60999999D03*
D18*
X60324999Y-59974999D03*
X60724999Y-59974999D03*
X61124999Y-59974999D03*
X61524999Y-59974999D03*
X61924999Y-59974999D03*
X62324999Y-59974999D03*
X62724999Y-59974999D03*
X63124999Y-59974999D03*
X63524999Y-59974999D03*
D19*
X63237499Y-63912499D03*
X63237499Y-63037499D03*
X63237499Y-62162499D03*
X63237499Y-61287499D03*
X62362499Y-63912499D03*
X62362499Y-63037499D03*
X62362499Y-62162499D03*
X62362499Y-61287499D03*
X61487499Y-63912499D03*
X61487499Y-63037499D03*
X61487499Y-62162499D03*
X61487499Y-61287499D03*
X60612499Y-63912499D03*
X60612499Y-63037499D03*
X60612499Y-62162499D03*
X60612499Y-61287499D03*
%TD*%
D30*
%TO.C,U4*%
X85537500Y-49300000D03*
X85537500Y-50250000D03*
X85537500Y-51200000D03*
X83262500Y-51200000D03*
X83262500Y-49300000D03*
%TD*%
M02*
