%TF.GenerationSoftware,KiCad,Pcbnew,(7.0.0)*%
%TF.CreationDate,2023-05-27T11:23:17+01:00*%
%TF.ProjectId,FF_Filter_PCB,46465f46-696c-4746-9572-5f5043422e6b,rev?*%
%TF.SameCoordinates,Original*%
%TF.FileFunction,Legend,Top*%
%TF.FilePolarity,Positive*%
%FSLAX46Y46*%
G04 Gerber Fmt 4.6, Leading zero omitted, Abs format (unit mm)*
G04 Created by KiCad (PCBNEW (7.0.0)) date 2023-05-27 11:23:17*
%MOMM*%
%LPD*%
G01*
G04 APERTURE LIST*
%ADD10C,0.150000*%
G04 APERTURE END LIST*
D10*
X77321428Y-46638571D02*
X76988095Y-46638571D01*
X76988095Y-47162380D02*
X76988095Y-46162380D01*
X76988095Y-46162380D02*
X77464285Y-46162380D01*
X78178571Y-46638571D02*
X77845238Y-46638571D01*
X77845238Y-47162380D02*
X77845238Y-46162380D01*
X77845238Y-46162380D02*
X78321428Y-46162380D01*
X79635714Y-46638571D02*
X79302381Y-46638571D01*
X79302381Y-47162380D02*
X79302381Y-46162380D01*
X79302381Y-46162380D02*
X79778571Y-46162380D01*
X80159524Y-47162380D02*
X80159524Y-46495714D01*
X80159524Y-46162380D02*
X80111905Y-46210000D01*
X80111905Y-46210000D02*
X80159524Y-46257619D01*
X80159524Y-46257619D02*
X80207143Y-46210000D01*
X80207143Y-46210000D02*
X80159524Y-46162380D01*
X80159524Y-46162380D02*
X80159524Y-46257619D01*
X80778571Y-47162380D02*
X80683333Y-47114761D01*
X80683333Y-47114761D02*
X80635714Y-47019523D01*
X80635714Y-47019523D02*
X80635714Y-46162380D01*
X81016667Y-46495714D02*
X81397619Y-46495714D01*
X81159524Y-46162380D02*
X81159524Y-47019523D01*
X81159524Y-47019523D02*
X81207143Y-47114761D01*
X81207143Y-47114761D02*
X81302381Y-47162380D01*
X81302381Y-47162380D02*
X81397619Y-47162380D01*
X82111905Y-47114761D02*
X82016667Y-47162380D01*
X82016667Y-47162380D02*
X81826191Y-47162380D01*
X81826191Y-47162380D02*
X81730953Y-47114761D01*
X81730953Y-47114761D02*
X81683334Y-47019523D01*
X81683334Y-47019523D02*
X81683334Y-46638571D01*
X81683334Y-46638571D02*
X81730953Y-46543333D01*
X81730953Y-46543333D02*
X81826191Y-46495714D01*
X81826191Y-46495714D02*
X82016667Y-46495714D01*
X82016667Y-46495714D02*
X82111905Y-46543333D01*
X82111905Y-46543333D02*
X82159524Y-46638571D01*
X82159524Y-46638571D02*
X82159524Y-46733809D01*
X82159524Y-46733809D02*
X81683334Y-46829047D01*
X82588096Y-47162380D02*
X82588096Y-46495714D01*
X82588096Y-46686190D02*
X82635715Y-46590952D01*
X82635715Y-46590952D02*
X82683334Y-46543333D01*
X82683334Y-46543333D02*
X82778572Y-46495714D01*
X82778572Y-46495714D02*
X82873810Y-46495714D01*
X76988095Y-48782380D02*
X76988095Y-47782380D01*
X76988095Y-47782380D02*
X77369047Y-47782380D01*
X77369047Y-47782380D02*
X77464285Y-47830000D01*
X77464285Y-47830000D02*
X77511904Y-47877619D01*
X77511904Y-47877619D02*
X77559523Y-47972857D01*
X77559523Y-47972857D02*
X77559523Y-48115714D01*
X77559523Y-48115714D02*
X77511904Y-48210952D01*
X77511904Y-48210952D02*
X77464285Y-48258571D01*
X77464285Y-48258571D02*
X77369047Y-48306190D01*
X77369047Y-48306190D02*
X76988095Y-48306190D01*
X78559523Y-48687142D02*
X78511904Y-48734761D01*
X78511904Y-48734761D02*
X78369047Y-48782380D01*
X78369047Y-48782380D02*
X78273809Y-48782380D01*
X78273809Y-48782380D02*
X78130952Y-48734761D01*
X78130952Y-48734761D02*
X78035714Y-48639523D01*
X78035714Y-48639523D02*
X77988095Y-48544285D01*
X77988095Y-48544285D02*
X77940476Y-48353809D01*
X77940476Y-48353809D02*
X77940476Y-48210952D01*
X77940476Y-48210952D02*
X77988095Y-48020476D01*
X77988095Y-48020476D02*
X78035714Y-47925238D01*
X78035714Y-47925238D02*
X78130952Y-47830000D01*
X78130952Y-47830000D02*
X78273809Y-47782380D01*
X78273809Y-47782380D02*
X78369047Y-47782380D01*
X78369047Y-47782380D02*
X78511904Y-47830000D01*
X78511904Y-47830000D02*
X78559523Y-47877619D01*
X79321428Y-48258571D02*
X79464285Y-48306190D01*
X79464285Y-48306190D02*
X79511904Y-48353809D01*
X79511904Y-48353809D02*
X79559523Y-48449047D01*
X79559523Y-48449047D02*
X79559523Y-48591904D01*
X79559523Y-48591904D02*
X79511904Y-48687142D01*
X79511904Y-48687142D02*
X79464285Y-48734761D01*
X79464285Y-48734761D02*
X79369047Y-48782380D01*
X79369047Y-48782380D02*
X78988095Y-48782380D01*
X78988095Y-48782380D02*
X78988095Y-47782380D01*
X78988095Y-47782380D02*
X79321428Y-47782380D01*
X79321428Y-47782380D02*
X79416666Y-47830000D01*
X79416666Y-47830000D02*
X79464285Y-47877619D01*
X79464285Y-47877619D02*
X79511904Y-47972857D01*
X79511904Y-47972857D02*
X79511904Y-48068095D01*
X79511904Y-48068095D02*
X79464285Y-48163333D01*
X79464285Y-48163333D02*
X79416666Y-48210952D01*
X79416666Y-48210952D02*
X79321428Y-48258571D01*
X79321428Y-48258571D02*
X78988095Y-48258571D01*
X80445238Y-47782380D02*
X80778571Y-48782380D01*
X80778571Y-48782380D02*
X81111904Y-47782380D01*
X81635714Y-47782380D02*
X81730952Y-47782380D01*
X81730952Y-47782380D02*
X81826190Y-47830000D01*
X81826190Y-47830000D02*
X81873809Y-47877619D01*
X81873809Y-47877619D02*
X81921428Y-47972857D01*
X81921428Y-47972857D02*
X81969047Y-48163333D01*
X81969047Y-48163333D02*
X81969047Y-48401428D01*
X81969047Y-48401428D02*
X81921428Y-48591904D01*
X81921428Y-48591904D02*
X81873809Y-48687142D01*
X81873809Y-48687142D02*
X81826190Y-48734761D01*
X81826190Y-48734761D02*
X81730952Y-48782380D01*
X81730952Y-48782380D02*
X81635714Y-48782380D01*
X81635714Y-48782380D02*
X81540476Y-48734761D01*
X81540476Y-48734761D02*
X81492857Y-48687142D01*
X81492857Y-48687142D02*
X81445238Y-48591904D01*
X81445238Y-48591904D02*
X81397619Y-48401428D01*
X81397619Y-48401428D02*
X81397619Y-48163333D01*
X81397619Y-48163333D02*
X81445238Y-47972857D01*
X81445238Y-47972857D02*
X81492857Y-47877619D01*
X81492857Y-47877619D02*
X81540476Y-47830000D01*
X81540476Y-47830000D02*
X81635714Y-47782380D01*
X82397619Y-48687142D02*
X82445238Y-48734761D01*
X82445238Y-48734761D02*
X82397619Y-48782380D01*
X82397619Y-48782380D02*
X82350000Y-48734761D01*
X82350000Y-48734761D02*
X82397619Y-48687142D01*
X82397619Y-48687142D02*
X82397619Y-48782380D01*
X83064285Y-47782380D02*
X83159523Y-47782380D01*
X83159523Y-47782380D02*
X83254761Y-47830000D01*
X83254761Y-47830000D02*
X83302380Y-47877619D01*
X83302380Y-47877619D02*
X83349999Y-47972857D01*
X83349999Y-47972857D02*
X83397618Y-48163333D01*
X83397618Y-48163333D02*
X83397618Y-48401428D01*
X83397618Y-48401428D02*
X83349999Y-48591904D01*
X83349999Y-48591904D02*
X83302380Y-48687142D01*
X83302380Y-48687142D02*
X83254761Y-48734761D01*
X83254761Y-48734761D02*
X83159523Y-48782380D01*
X83159523Y-48782380D02*
X83064285Y-48782380D01*
X83064285Y-48782380D02*
X82969047Y-48734761D01*
X82969047Y-48734761D02*
X82921428Y-48687142D01*
X82921428Y-48687142D02*
X82873809Y-48591904D01*
X82873809Y-48591904D02*
X82826190Y-48401428D01*
X82826190Y-48401428D02*
X82826190Y-48163333D01*
X82826190Y-48163333D02*
X82873809Y-47972857D01*
X82873809Y-47972857D02*
X82921428Y-47877619D01*
X82921428Y-47877619D02*
X82969047Y-47830000D01*
X82969047Y-47830000D02*
X83064285Y-47782380D01*
M02*
