%TF.GenerationSoftware,KiCad,Pcbnew,(7.0.0)*%
%TF.CreationDate,2023-05-27T11:23:17+01:00*%
%TF.ProjectId,FF_Filter_PCB,46465f46-696c-4746-9572-5f5043422e6b,rev?*%
%TF.SameCoordinates,Original*%
%TF.FileFunction,Legend,Bot*%
%TF.FilePolarity,Positive*%
%FSLAX46Y46*%
G04 Gerber Fmt 4.6, Leading zero omitted, Abs format (unit mm)*
G04 Created by KiCad (PCBNEW (7.0.0)) date 2023-05-27 11:23:17*
%MOMM*%
%LPD*%
G01*
G04 APERTURE LIST*
%ADD10C,0.150000*%
%ADD11C,0.120000*%
G04 APERTURE END LIST*
D10*
X76278000Y-46120000D02*
X84660000Y-46120000D01*
X84660000Y-46120000D02*
X84660000Y-55010000D01*
X84660000Y-55010000D02*
X76278000Y-55010000D01*
X76278000Y-55010000D02*
X76278000Y-46120000D01*
X84660000Y-51962000D02*
X76278000Y-51962000D01*
X80469000Y-51962000D02*
X80469000Y-49168000D01*
X76278000Y-60852000D02*
X84660000Y-60852000D01*
X80469000Y-58058000D02*
X80469000Y-60852000D01*
X76278000Y-58058000D02*
X84660000Y-58058000D01*
X84660000Y-49168000D02*
X76278000Y-49168000D01*
X76278000Y-55010000D02*
X84660000Y-55010000D01*
X84660000Y-55010000D02*
X84660000Y-63900000D01*
X84660000Y-63900000D02*
X76278000Y-63900000D01*
X76278000Y-63900000D02*
X76278000Y-55010000D01*
X75468476Y-60634380D02*
X75801809Y-60158190D01*
X76039904Y-60634380D02*
X76039904Y-59634380D01*
X76039904Y-59634380D02*
X75658952Y-59634380D01*
X75658952Y-59634380D02*
X75563714Y-59682000D01*
X75563714Y-59682000D02*
X75516095Y-59729619D01*
X75516095Y-59729619D02*
X75468476Y-59824857D01*
X75468476Y-59824857D02*
X75468476Y-59967714D01*
X75468476Y-59967714D02*
X75516095Y-60062952D01*
X75516095Y-60062952D02*
X75563714Y-60110571D01*
X75563714Y-60110571D02*
X75658952Y-60158190D01*
X75658952Y-60158190D02*
X76039904Y-60158190D01*
X75563714Y-51744380D02*
X76039904Y-51744380D01*
X76039904Y-51744380D02*
X76039904Y-50744380D01*
%TO.C,J1*%
X73436071Y-50267380D02*
X73436071Y-50981666D01*
X73436071Y-50981666D02*
X73483690Y-51124523D01*
X73483690Y-51124523D02*
X73578928Y-51219761D01*
X73578928Y-51219761D02*
X73721785Y-51267380D01*
X73721785Y-51267380D02*
X73817023Y-51267380D01*
X72436071Y-51267380D02*
X73007499Y-51267380D01*
X72721785Y-51267380D02*
X72721785Y-50267380D01*
X72721785Y-50267380D02*
X72817023Y-50410238D01*
X72817023Y-50410238D02*
X72912261Y-50505476D01*
X72912261Y-50505476D02*
X73007499Y-50553095D01*
D11*
%TO.C,R18*%
X78988379Y-53821000D02*
X79323621Y-53821000D01*
X78988379Y-54581000D02*
X79323621Y-54581000D01*
%TO.C,C3*%
X81975835Y-57745000D02*
X81744165Y-57745000D01*
X81975835Y-57025000D02*
X81744165Y-57025000D01*
%TO.C,C6*%
X76750000Y-62518335D02*
X76750000Y-62286665D01*
X77470000Y-62518335D02*
X77470000Y-62286665D01*
%TO.C,R4*%
X80830000Y-59700121D02*
X80830000Y-59364879D01*
X81590000Y-59700121D02*
X81590000Y-59364879D01*
%TO.C,C12*%
X83200165Y-49588500D02*
X83431835Y-49588500D01*
X83200165Y-50308500D02*
X83431835Y-50308500D01*
%TO.C,C1*%
X81744165Y-55525000D02*
X81975835Y-55525000D01*
X81744165Y-56245000D02*
X81975835Y-56245000D01*
%TO.C,R5*%
X83377621Y-60662500D02*
X83042379Y-60662500D01*
X83377621Y-59902500D02*
X83042379Y-59902500D01*
%TO.C,C7*%
X81975835Y-63512500D02*
X81744165Y-63512500D01*
X81975835Y-62792500D02*
X81744165Y-62792500D01*
%TO.C,R14*%
X83423621Y-51711000D02*
X83088379Y-51711000D01*
X83423621Y-50951000D02*
X83088379Y-50951000D01*
%TO.C,C16*%
X77896000Y-50699335D02*
X77896000Y-50467665D01*
X78616000Y-50699335D02*
X78616000Y-50467665D01*
%TO.C,R16*%
X80136000Y-50415879D02*
X80136000Y-50751121D01*
X79376000Y-50415879D02*
X79376000Y-50751121D01*
%TO.C,R9*%
X78942379Y-62772500D02*
X79277621Y-62772500D01*
X78942379Y-63532500D02*
X79277621Y-63532500D01*
%TO.C,C10*%
X76796000Y-47799335D02*
X76796000Y-47567665D01*
X77516000Y-47799335D02*
X77516000Y-47567665D01*
%TO.C,R1*%
X79277621Y-56265000D02*
X78942379Y-56265000D01*
X79277621Y-55505000D02*
X78942379Y-55505000D01*
%TO.C,C11*%
X82021835Y-48793500D02*
X81790165Y-48793500D01*
X82021835Y-48073500D02*
X81790165Y-48073500D01*
%TO.C,C2*%
X76750000Y-56750835D02*
X76750000Y-56519165D01*
X77470000Y-56750835D02*
X77470000Y-56519165D01*
%TO.C,C8*%
X77850000Y-59650835D02*
X77850000Y-59419165D01*
X78570000Y-59650835D02*
X78570000Y-59419165D01*
%TO.C,R12*%
X78988379Y-48053500D02*
X79323621Y-48053500D01*
X78988379Y-48813500D02*
X79323621Y-48813500D01*
%TO.C,R17*%
X83526000Y-53618621D02*
X83526000Y-53283379D01*
X84286000Y-53618621D02*
X84286000Y-53283379D01*
%TO.C,C4*%
X83154165Y-58540000D02*
X83385835Y-58540000D01*
X83154165Y-59260000D02*
X83385835Y-59260000D01*
%TO.C,C15*%
X82021835Y-54561000D02*
X81790165Y-54561000D01*
X82021835Y-53841000D02*
X81790165Y-53841000D01*
%TO.C,R2*%
X83480000Y-56802621D02*
X83480000Y-56467379D01*
X84240000Y-56802621D02*
X84240000Y-56467379D01*
%TO.C,C14*%
X77516000Y-53335165D02*
X77516000Y-53566835D01*
X76796000Y-53335165D02*
X76796000Y-53566835D01*
%TO.C,R7*%
X80090000Y-59367379D02*
X80090000Y-59702621D01*
X79330000Y-59367379D02*
X79330000Y-59702621D01*
%TO.C,R11*%
X83526000Y-47851121D02*
X83526000Y-47515879D01*
X84286000Y-47851121D02*
X84286000Y-47515879D01*
%TO.C,R10*%
X79323621Y-47313500D02*
X78988379Y-47313500D01*
X79323621Y-46553500D02*
X78988379Y-46553500D01*
%TO.C,C13*%
X81790165Y-52341000D02*
X82021835Y-52341000D01*
X81790165Y-53061000D02*
X82021835Y-53061000D01*
%TO.C,R13*%
X80876000Y-50748621D02*
X80876000Y-50413379D01*
X81636000Y-50748621D02*
X81636000Y-50413379D01*
%TO.C,R8*%
X83480000Y-62570121D02*
X83480000Y-62234879D01*
X84240000Y-62570121D02*
X84240000Y-62234879D01*
%TO.C,R3*%
X78942379Y-57005000D02*
X79277621Y-57005000D01*
X78942379Y-57765000D02*
X79277621Y-57765000D01*
%TO.C,J1*%
X76012738Y-56810000D02*
X76012738Y-52990000D01*
X76012738Y-52990000D02*
X75012738Y-52990000D01*
X75012738Y-56810000D02*
X76012738Y-56810000D01*
X75012738Y-52990000D02*
X75012738Y-52566667D01*
X71192738Y-56810000D02*
X70192738Y-56810000D01*
X70192738Y-56810000D02*
X70192738Y-52990000D01*
X70192738Y-52990000D02*
X71192738Y-52990000D01*
%TO.C,C9*%
X81790165Y-46573500D02*
X82021835Y-46573500D01*
X81790165Y-47293500D02*
X82021835Y-47293500D01*
%TO.C,C5*%
X81744165Y-61292500D02*
X81975835Y-61292500D01*
X81744165Y-62012500D02*
X81975835Y-62012500D01*
%TO.C,R15*%
X79323621Y-53081000D02*
X78988379Y-53081000D01*
X79323621Y-52321000D02*
X78988379Y-52321000D01*
%TO.C,R6*%
X79277621Y-62032500D02*
X78942379Y-62032500D01*
X79277621Y-61272500D02*
X78942379Y-61272500D01*
%TD*%
M02*
