0
SECTION
2
HEADER
9
$INSUNITS
70
4
9
$ACADVER
1
AC1014
9
$HANDSEED
5
FFFF
0
ENDSEC
0
SECTION
2
TABLES
0
TABLE
2
VPORT
5
8
100
AcDbSymbolTable
0
ENDTAB
0
TABLE
2
LTYPE
5
5
100
AcDbSymbolTable
0
LTYPE
5
14
100
AcDbSymbolTableRecord
100
AcDbLinetypeTableRecord
2
BYBLOCK
70
0
0
LTYPE
5
15
100
AcDbSymbolTableRecord
100
AcDbLinetypeTableRecord
2
BYLAYER
70
0
0
ENDTAB
0
TABLE
2
LAYER
5
2
100
AcDbSymbolTable
70
2
0
LAYER
5
50
100
AcDbSymbolTableRecord
100
AcDbLayerTableRecord
2
0
70
0
6
CONTINUOUS
0
ENDTAB
0
TABLE
2
STYLE
5
3
100
AcDbSymbolTable
70
1
0
STYLE
5
11
100
AcDbSymbolTableRecord
100
AcDbTextStyleTableRecord
2
STANDARD
70
0
0
ENDTAB
0
TABLE
2
VIEW
5
6
100
AcDbSymbolTable
70
0
0
ENDTAB
0
TABLE
2
UCS
5
7
100
AcDbSymbolTable
70
0
0
ENDTAB
0
TABLE
2
APPID
5
9
100
AcDbSymbolTable
70
2
0
APPID
5
12
100
AcDbSymbolTableRecord
100
AcDbRegAppTableRecord
2
ACAD
70
0
0
ENDTAB
0
TABLE
2
DIMSTYLE
5
A
100
AcDbSymbolTable
70
1
0
ENDTAB
0
TABLE
2
BLOCK_RECORD
5
1
100
AcDbSymbolTable
70
1
0
BLOCK_RECORD
5
1F
100
AcDbSymbolTableRecord
100
AcDbBlockTableRecord
2
*MODEL_SPACE
0
BLOCK_RECORD
5
1B
100
AcDbSymbolTableRecord
100
AcDbBlockTableRecord
2
*PAPER_SPACE
0
ENDTAB
0
ENDSEC
0
SECTION
2
BLOCKS
0
BLOCK
5
20
100
AcDbEntity
100
AcDbBlockBegin
2
*MODEL_SPACE
0
ENDBLK
5
21
100
AcDbEntity
100
AcDbBlockEnd
0
BLOCK
5
1C
100
AcDbEntity
100
AcDbBlockBegin
2
*PAPER_SPACE
0
ENDBLK
5
1D
100
AcDbEntity
100
AcDbBlockEnd
0
ENDSEC
0
SECTION
2
ENTITIES
0
LWPOLYLINE
5
100
100
AcDbEntity
8
0
100
AcDbPolyline
90
43
70
1
43
0.0
10
-14.800663009715135
20
-43.620878327430894
10
-29.813632580685248
20
-28.062851642467383
10
-33.887986456876426
20
-10.520539510385177
42
-0.40919178117468369
10
-32.425707837356676
20
-8.1279799167711317
10
-31.175189923980795
20
-7.8148060707409259
42
-0.061424157276837713
10
-30.932256885775097
20
-7.7848491310986265
10
-29.129066787866428
20
-7.7848491313864256
42
-0.37608140536875589
10
-28.633411378865887
20
-8.219078957998903
42
0.87607200234163973
10
-26.155134334599012
20
-8.2190789578739878
42
-0.37608140539751567
10
-25.659478925791465
20
-7.7848491313864185
10
-24.373054941799342
20
-7.7848491313960899
42
-0.2753014325132776
10
-24.153206910019573
20
-7.9158248525660833
10
-23.421825676383115
20
-9.2667513709873397
42
-0.59140451176182096
10
-23.896141679830528
20
-10.003599836496937
42
1.2425363278648003
10
-23.469285072866271
20
-12.902976003400292
42
-0.50574931917926291
10
-22.117244238187798
20
-13.778836601423377
10
-21.704141557058136
20
-20.714498920678608
42
0.10056217200744284
10
-21.499435940328794
20
-21.484185411500004
10
-17.694324555689516
20
-29.156739975625552
42
0.17193697172707306
10
-16.735064750309942
20
-30.086642095592786
10
-11.951317287275835
20
-32.27660509135346
42
0.55194551019534621
10
-9.1191178491260025
20
-30.423642343585225
10
-9.1787326719908453
20
-26.964279135938195
42
-0.45045379293822591
10
-8.0741798009156938
20
-25.952549019939639
10
-2.4682893159196757
20
-26.542758932975033
10
-1.921096033689371
20
-28.139781461741151
42
0.31809752889557363
10
-0.98387928638570599
20
-28.81560786171519
10
0.60991909575051806
20
-28.829624445652868
42
0.31920516814357697
10
1.5602398385459879
20
-28.166601690674874
10
2.250577234177094
20
-26.237552634908283
10
6.5584981657258448
20
-25.800394292640092
10
11.734897596265153
20
-25.800394292640092
10
12.864032025791122
20
-34.629206075066264
42
-0.27439528250042977
10
12.053274189927079
20
-36.502761710911798
10
9.3446508665482337
20
-38.46434158526867
42
0.28335908967422968
10
8.9440402729192403
20
-39.434042240686253
10
9.5368436517020001
20
-43.096459881661175
42
-0.42097827393422188
10
8.2616098364967954
20
-44.821989707371188
10
0.61560297375614281
20
-45.879435977284572
10
0.061175068585813119
20
-46.750254244309765
10
-4.2162620552806658
20
-46.750254243609206
10
-5.3455583333762764
20
-48.408236342512168
10
-14.874696993700276
20
-45.709715963706195
0
CIRCLE
5
101
100
AcDbEntity
8
0
100
AcDbCircle
10
-24.000000000000004
20
-15.999999999999861
30
0
40
1
210
0
220
0
230
1
0
CIRCLE
5
102
100
AcDbEntity
8
0
100
AcDbCircle
10
-24.212638324784741
20
-21.104747705986149
30
0
40
1.3500000000000001
210
0
220
0
230
1
0
CIRCLE
5
103
100
AcDbEntity
8
0
100
AcDbCircle
10
-2
20
-43.999999999999815
30
0
40
1.5000000000000002
210
0
220
0
230
1
0
LINE
5
104
100
AcDbEntity
8
0
100
AcDbLine
10
1.5681661364243504
20
-32.698696013102925
30
0
11
-7.5251677666105774
21
-32.698696013102925
31
0
0
LINE
5
105
100
AcDbEntity
8
0
100
AcDbLine
10
6.4153548175813002
20
-36.581584506156354
30
0
11
7.4403048293535781
21
-43.992622822640357
31
0
0
LINE
5
106
100
AcDbEntity
8
0
100
AcDbLine
10
1.8270719154998276
20
-39.497019544468181
30
0
11
2.6716422117923795
21
-45.603798172610119
31
0
0
CIRCLE
5
107
100
AcDbEntity
8
0
100
AcDbCircle
10
3.9401213699968536
20
-37.776779782748243
30
0
40
0.75000000000000011
210
0
220
0
230
1
0
CIRCLE
5
108
100
AcDbEntity
8
0
100
AcDbCircle
10
4.8675373868452212
20
-42.8054355185483
30
0
40
0.75
210
0
220
0
230
1
0
ENDSEC
0
SECTION
2
OBJECTS
0
DICTIONARY
5
C
100
AcDbDictionary
3
ACAD_GROUP
350
D
3
ACAD_MLINESTYLE
350
17
0
DICTIONARY
5
D
100
AcDbDictionary
0
DICTIONARY
5
1A
330
C
100
AcDbDictionary
0
DICTIONARY
5
17
100
AcDbDictionary
0
ENDSEC
0
EOF
