0
SECTION
2
HEADER
9
$INSUNITS
70
4
9
$ACADVER
1
AC1014
9
$HANDSEED
5
FFFF
0
ENDSEC
0
SECTION
2
TABLES
0
TABLE
2
VPORT
5
8
100
AcDbSymbolTable
0
ENDTAB
0
TABLE
2
LTYPE
5
5
100
AcDbSymbolTable
0
LTYPE
5
14
100
AcDbSymbolTableRecord
100
AcDbLinetypeTableRecord
2
BYBLOCK
70
0
0
LTYPE
5
15
100
AcDbSymbolTableRecord
100
AcDbLinetypeTableRecord
2
BYLAYER
70
0
0
ENDTAB
0
TABLE
2
LAYER
5
2
100
AcDbSymbolTable
70
2
0
LAYER
5
50
100
AcDbSymbolTableRecord
100
AcDbLayerTableRecord
2
0
70
0
6
CONTINUOUS
0
ENDTAB
0
TABLE
2
STYLE
5
3
100
AcDbSymbolTable
70
1
0
STYLE
5
11
100
AcDbSymbolTableRecord
100
AcDbTextStyleTableRecord
2
STANDARD
70
0
0
ENDTAB
0
TABLE
2
VIEW
5
6
100
AcDbSymbolTable
70
0
0
ENDTAB
0
TABLE
2
UCS
5
7
100
AcDbSymbolTable
70
0
0
ENDTAB
0
TABLE
2
APPID
5
9
100
AcDbSymbolTable
70
2
0
APPID
5
12
100
AcDbSymbolTableRecord
100
AcDbRegAppTableRecord
2
ACAD
70
0
0
ENDTAB
0
TABLE
2
DIMSTYLE
5
A
100
AcDbSymbolTable
70
1
0
ENDTAB
0
TABLE
2
BLOCK_RECORD
5
1
100
AcDbSymbolTable
70
1
0
BLOCK_RECORD
5
1F
100
AcDbSymbolTableRecord
100
AcDbBlockTableRecord
2
*MODEL_SPACE
0
BLOCK_RECORD
5
1B
100
AcDbSymbolTableRecord
100
AcDbBlockTableRecord
2
*PAPER_SPACE
0
ENDTAB
0
ENDSEC
0
SECTION
2
BLOCKS
0
BLOCK
5
20
100
AcDbEntity
100
AcDbBlockBegin
2
*MODEL_SPACE
0
ENDBLK
5
21
100
AcDbEntity
100
AcDbBlockEnd
0
BLOCK
5
1C
100
AcDbEntity
100
AcDbBlockBegin
2
*PAPER_SPACE
0
ENDBLK
5
1D
100
AcDbEntity
100
AcDbBlockEnd
0
ENDSEC
0
SECTION
2
ENTITIES
0
SPLINE
5
100
100
AcDbEntity
8
0
100
AcDbSpline
70
4
71
5
72
21
73
15
74
0
42
0.000000001
43
0.0000000001
44
0.0000000001
40
0
40
0
40
0
40
0
40
0
40
0
40
0.10000000000000001
40
0.20000000000000001
40
0.30000000000000004
40
0.40000000000000002
40
0.5
40
0.59999999999999998
40
0.69999999999999996
40
0.79999999999999993
40
0.89999999999999991
40
1
40
1
40
1
40
1
40
1
40
1
41
1
41
1
41
1
41
1
41
1
41
1
41
1
41
1
41
1
41
1
41
1
41
1
41
1
41
1
41
1
10
-39
20
-1.3211653993039363e-14
30
0
10
-39
20
-2.8478495562459045
30
0
10
-38.890519831876361
20
-8.2155107072807994
30
0
10
-38.397871869962891
20
-15.282933671255162
30
0
10
-37.119949527158454
20
-22.853399360810521
30
0
10
-34.667343409290396
20
-29.839018925497328
30
0
10
-31.560205602044103
20
-35.082652756533818
30
0
10
-27.958334833946104
20
-39.275805848944366
30
0
10
-23.933969210773324
20
-42.937734307115257
30
0
10
-19.406146944568508
20
-46.241395359772525
30
0
10
-14.147220583461626
20
-49.008808060696083
30
0
10
-9.1316258699233206
20
-50.529229647063389
30
0
10
-4.8013722621614505
20
-51.125790212389703
30
0
10
-1.6453304729477254
20
-51.258377654219331
30
0
10
0
20
-51.258377654219331
30
0
0
SPLINE
5
101
100
AcDbEntity
8
0
100
AcDbSpline
70
0
71
3
72
23
73
19
74
0
42
0.000000001
43
0.0000000001
44
0.0000000001
40
0
40
0
40
0
40
0
40
0.16652320497933784
40
0.16652320497933784
40
0.16652320497933784
40
0.37489240373450339
40
0.37489240373450339
40
0.37489240373450339
40
0.54978996461525287
40
0.54978996461525287
40
0.54978996461525287
40
0.74302003406274264
40
0.74302003406274264
40
0.74302003406274264
40
0.97695897364891549
40
0.97695897364891549
40
0.97695897364891549
40
1
40
1
40
1
40
1
10
-37
20
-1.3211653993039363e-14
30
0
10
-37
20
-7.8185283449126111
30
0
10
-36.48480127747991
20
-14.042707159049058
30
0
10
-35.564265523312713
20
-18.952717772199435
30
0
10
-34.412406252137252
20
-25.096576085930842
30
0
10
-32.663500720688049
20
-29.218431467382672
30
0
10
-30.570923877250415
20
-32.513405994014306
30
0
10
-28.814490642111778
20
-35.279088308458533
30
0
10
-26.79862719257806
20
-37.505895692757669
30
0
10
-24.54615858033749
20
-39.568077131527829
30
0
10
-22.057589476344667
20
-41.846413436621155
30
0
10
-19.303776112498198
20
-43.905839646176474
30
0
10
-16.11046370680182
20
-45.574759435840249
30
0
10
-12.244398140029414
20
-47.595279984037958
30
0
10
-7.6875381435015031
20
-48.997392169640889
30
0
10
-1.7828632744836079
20
-49.224705243839523
30
0
10
-1.2013022505160138
20
-49.247093677940406
30
0
10
-0.60707851436448956
20
-49.258377654219323
30
0
10
0
20
-49.258377654219323
30
0
0
LWPOLYLINE
5
102
100
AcDbEntity
8
0
100
AcDbPolyline
90
8
70
1
43
0.0
10
-25.156758652362736
20
-33.688971129870325
10
-24.788589716019285
20
-34.070221224049632
10
-24.823322634542251
20
-34.034254234032716
10
-24.858055553065221
20
-33.998287244015799
10
-25.969508945800172
20
-32.847343563474489
10
-25.601340009456717
20
-33.228593657653796
10
-25.566607090933751
20
-33.264560647670713
10
-25.191491570885706
20
-33.653004139853408
0
LWPOLYLINE
5
103
100
AcDbEntity
8
0
100
AcDbPolyline
90
8
70
1
43
0.0
10
-17.856758414154971
20
-41.188970961992624
10
-17.488589477811519
20
-41.570221056171938
10
-17.523322396334486
20
-41.534254066155015
10
-17.558055314857452
20
-41.498287076138098
10
-18.669508707592403
20
-40.347343395596795
10
-18.301339771248951
20
-40.728593489776102
10
-18.266606852725985
20
-40.764560479793026
10
-17.891491332677937
20
-41.153003971975714
0
LINE
5
104
100
AcDbEntity
8
0
100
AcDbLine
10
-16.585287081348309
20
-44.959596292093202
30
0
11
-19.529748903258277
21
-47.320996367090302
31
0
0
LINE
5
105
100
AcDbEntity
8
0
100
AcDbLine
10
-30.607922094602699
20
-30.703736580073667
30
0
11
-34.19375183811681
21
-33.240055179144633
31
0
0
ENDSEC
0
SECTION
2
OBJECTS
0
DICTIONARY
5
C
100
AcDbDictionary
3
ACAD_GROUP
350
D
3
ACAD_MLINESTYLE
350
17
0
DICTIONARY
5
D
100
AcDbDictionary
0
DICTIONARY
5
1A
330
C
100
AcDbDictionary
0
DICTIONARY
5
17
100
AcDbDictionary
0
ENDSEC
0
EOF
