0
SECTION
2
HEADER
9
$INSUNITS
70
4
9
$ACADVER
1
AC1014
9
$HANDSEED
5
FFFF
0
ENDSEC
0
SECTION
2
TABLES
0
TABLE
2
VPORT
5
8
100
AcDbSymbolTable
0
ENDTAB
0
TABLE
2
LTYPE
5
5
100
AcDbSymbolTable
0
LTYPE
5
14
100
AcDbSymbolTableRecord
100
AcDbLinetypeTableRecord
2
BYBLOCK
70
0
0
LTYPE
5
15
100
AcDbSymbolTableRecord
100
AcDbLinetypeTableRecord
2
BYLAYER
70
0
0
ENDTAB
0
TABLE
2
LAYER
5
2
100
AcDbSymbolTable
70
2
0
LAYER
5
50
100
AcDbSymbolTableRecord
100
AcDbLayerTableRecord
2
0
70
0
6
CONTINUOUS
0
ENDTAB
0
TABLE
2
STYLE
5
3
100
AcDbSymbolTable
70
1
0
STYLE
5
11
100
AcDbSymbolTableRecord
100
AcDbTextStyleTableRecord
2
STANDARD
70
0
0
ENDTAB
0
TABLE
2
VIEW
5
6
100
AcDbSymbolTable
70
0
0
ENDTAB
0
TABLE
2
UCS
5
7
100
AcDbSymbolTable
70
0
0
ENDTAB
0
TABLE
2
APPID
5
9
100
AcDbSymbolTable
70
2
0
APPID
5
12
100
AcDbSymbolTableRecord
100
AcDbRegAppTableRecord
2
ACAD
70
0
0
ENDTAB
0
TABLE
2
DIMSTYLE
5
A
100
AcDbSymbolTable
70
1
0
ENDTAB
0
TABLE
2
BLOCK_RECORD
5
1
100
AcDbSymbolTable
70
1
0
BLOCK_RECORD
5
1F
100
AcDbSymbolTableRecord
100
AcDbBlockTableRecord
2
*MODEL_SPACE
0
BLOCK_RECORD
5
1B
100
AcDbSymbolTableRecord
100
AcDbBlockTableRecord
2
*PAPER_SPACE
0
ENDTAB
0
ENDSEC
0
SECTION
2
BLOCKS
0
BLOCK
5
20
100
AcDbEntity
100
AcDbBlockBegin
2
*MODEL_SPACE
0
ENDBLK
5
21
100
AcDbEntity
100
AcDbBlockEnd
0
BLOCK
5
1C
100
AcDbEntity
100
AcDbBlockBegin
2
*PAPER_SPACE
0
ENDBLK
5
1D
100
AcDbEntity
100
AcDbBlockEnd
0
ENDSEC
0
SECTION
2
ENTITIES
0
CIRCLE
5
100
100
AcDbEntity
8
0
100
AcDbCircle
10
-27.5
20
-7.0000000000000124
30
0
40
1.5000000000000002
210
0
220
0
230
1
0
CIRCLE
5
101
100
AcDbEntity
8
0
100
AcDbCircle
10
20
20
-24.000000000000014
30
0
40
1.5000000000000002
210
0
220
0
230
1
0
CIRCLE
5
102
100
AcDbEntity
8
0
100
AcDbCircle
10
-2
20
-44
30
0
40
1.5000000000000002
210
0
220
0
230
1
0
LINE
5
103
100
AcDbEntity
8
0
100
AcDbLine
10
-17.694324555689516
20
-29.156739975625552
30
0
11
-21.499435940328794
21
-21.484185411500004
31
0
0
LINE
5
104
100
AcDbEntity
8
0
100
AcDbLine
10
-11.951317287275835
20
-32.27660509135346
30
0
11
-16.735064750309942
21
-30.086642095592786
31
0
0
ARC
5
105
100
AcDbEntity
8
0
100
AcDbCircle
10
-15.902568405843066
20
-28.268140009695529
30
0
40
1.9999999999908511
210
0
220
0
230
1
100
AcDbArc
50
206.3785605745328
51
245.40205554354486
0
LINE
5
106
100
AcDbEntity
8
0
100
AcDbLine
10
-14.800663009715135
20
-43.620878327430894
30
0
11
-29.813632580685248
21
-28.062851642467383
31
0
0
LINE
5
107
100
AcDbEntity
8
0
100
AcDbLine
10
-29.813632580685248
20
-28.062851642467383
30
0
11
-33.887986456876426
21
-10.520539510385174
31
0
0
LINE
5
108
100
AcDbEntity
8
0
100
AcDbLine
10
-1.921096033689371
20
-28.139781461741151
30
0
11
-2.4682893159196757
21
-26.542758932975033
31
0
0
ARC
5
109
100
AcDbEntity
8
0
100
AcDbCircle
10
-0.97508517410139894
20
-27.815646530668268
30
0
40
0.99999999999999822
210
0
220
0
230
1
100
AcDbArc
50
198.91317329376363
51
269.49612798679391
0
LINE
5
110
100
AcDbEntity
8
0
100
AcDbLine
10
0.60991909575051806
20
-28.829624445652868
30
0
11
-0.98387928638570599
21
-28.81560786171519
31
0
0
ARC
5
111
100
AcDbEntity
8
0
100
AcDbCircle
10
0.61871320803485796
20
-27.829663114602173
30
0
40
1.0000000000037748
210
0
220
0
230
1
100
AcDbArc
50
269.49612798679391
51
340.30953505142827
0
LINE
5
112
100
AcDbEntity
8
0
100
AcDbLine
10
2.250577234177094
20
-26.237552634908283
30
0
11
1.5602398385459879
21
-28.166601690674874
31
0
0
LINE
5
113
100
AcDbEntity
8
0
100
AcDbLine
10
-4.2162620552806658
20
-46.750254243609206
30
0
11
0.061175068585813119
21
-46.750254244309765
31
0
0
LINE
5
114
100
AcDbEntity
8
0
100
AcDbLine
10
-14.800663009715135
20
-43.620878327430894
30
0
11
-6.0000000000000009
21
-43.620878327430894
31
0
0
LINE
5
115
100
AcDbEntity
8
0
100
AcDbLine
10
-6.0000000000000009
20
-43.620878327430894
30
0
11
-4.2162620552806658
21
-46.750254243609206
31
0
0
LINE
5
116
100
AcDbEntity
8
0
100
AcDbLine
10
0.061175068585813119
20
-46.750254244309765
30
0
11
2
21
-42.996109340168701
31
0
0
LINE
5
117
100
AcDbEntity
8
0
100
AcDbLine
10
2
20
-42.996109340168701
30
0
11
28.276053075034746
21
-28.466997639855389
31
0
0
LINE
5
118
100
AcDbEntity
8
0
100
AcDbLine
10
28.276053075034746
20
-28.466997639855389
30
0
11
23.302809664688112
21
-19.472834025398708
31
0
0
LINE
5
119
100
AcDbEntity
8
0
100
AcDbLine
10
23.302809664688112
20
-19.472834025398708
30
0
11
19.51889931770387
21
-18.380789879417762
31
0
0
LINE
5
120
100
AcDbEntity
8
0
100
AcDbLine
10
-21.499435940328794
20
-21.484185411500004
30
0
11
-24.746916235567863
21
-4.0369609534810049
31
0
0
LINE
5
121
100
AcDbEntity
8
0
100
AcDbLine
10
-11.951317287275835
20
-32.27660509135346
30
0
11
-7.3583948897762541
21
-33.779526445075312
31
0
0
LINE
5
122
100
AcDbEntity
8
0
100
AcDbLine
10
-6.0479309199799891
20
-32.861808844918848
30
0
11
-5.8624762495692995
21
-27.19219463522052
31
0
0
LINE
5
123
100
AcDbEntity
8
0
100
AcDbLine
10
-4.7276508089341078
20
-26.234090946437263
30
0
11
-2.4682893159196757
21
-26.542758932975033
31
0
0
ARC
5
124
100
AcDbEntity
8
0
100
AcDbCircle
10
2.3069756450914092
20
-3.4561687578792988
30
0
40
22.781453687886334
210
0
220
0
230
1
100
AcDbArc
50
269.85815680326471
51
319.07113327012092
0
ARC
5
125
100
AcDbEntity
8
0
100
AcDbCircle
10
-7.0473963676838594
20
-32.829116049900492
30
0
40
1.0000000000000047
210
0
220
0
230
1
100
AcDbArc
50
251.88058363423033
51
358.12650698640005
0
ARC
5
126
100
AcDbEntity
8
0
100
AcDbCircle
10
-4.8630108018654381
20
-27.224887430238866
30
0
40
0.99999999999999556
210
0
220
-0
230
1
100
AcDbArc
50
82.220562956208951
51
178.12650698640039
0
CIRCLE
5
127
100
AcDbEntity
8
0
100
AcDbCircle
10
24.600000000000005
20
-27.500000000000004
30
0
40
1.3999999999999999
210
0
220
0
230
1
0
CIRCLE
5
128
100
AcDbEntity
8
0
100
AcDbCircle
10
-23.975265270900003
20
-26.500000000000018
30
0
40
1.3999999999999999
210
0
220
0
230
1
0
LWPOLYLINE
5
129
100
AcDbEntity
8
0
100
AcDbPolyline
90
4
70
1
43
0.0
10
3.5000000000000004
20
-28.5
10
7.0005072469280796
20
-26.564425404639763
10
8.4037988285642502
20
-29.102293158662626
10
4.9032915816361653
20
-31.037867754022869
0
LINE
5
130
100
AcDbEntity
8
0
100
AcDbLine
10
0
20
85.973273426880496
30
0
11
0
21
-52.482101882517433
31
0
0
LINE
5
131
100
AcDbEntity
8
0
100
AcDbLine
10
-60.268435706073561
20
-1.5572924694903631e-14
30
0
11
78.424427382585819
21
-1.7492369968221312e-16
31
0
0
CIRCLE
5
132
100
AcDbEntity
8
0
100
AcDbCircle
10
-27.5
20
-15.000000000000011
30
0
40
0.76157358501443728
210
0
220
0
230
1
0
LINE
5
133
100
AcDbEntity
8
0
100
AcDbLine
10
-27.063556469737517
20
-24.193740680745911
30
0
11
-26.360790321692285
21
-27.219531640365521
31
0
0
LINE
5
134
100
AcDbEntity
8
0
100
AcDbLine
10
-26.360790321692285
20
-27.219531640365521
30
0
11
-29.813632580685248
21
-28.062851642467383
31
0
0
LINE
5
135
100
AcDbEntity
8
0
100
AcDbLine
10
-27.063556469737517
20
-24.193740680745911
30
0
11
-31.32958474693972
21
-21.535852052877914
31
0
0
LINE
5
136
100
AcDbEntity
8
0
100
AcDbLine
10
-31.32958474693972
20
-21.535852052877914
30
0
11
-33.818188847945699
21
-10.821056225217154
31
0
0
LINE
5
137
100
AcDbEntity
8
0
100
AcDbLine
10
-33.818188847945699
20
-10.821056225217154
30
0
11
-31.160300220077705
21
-6.5550279480148905
31
0
0
LINE
5
138
100
AcDbEntity
8
0
100
AcDbLine
10
-31.160300220077705
20
-6.5550279480148905
30
0
11
-31.460338982343107
21
-5.2631976899360939
31
0
0
LINE
5
139
100
AcDbEntity
8
0
100
AcDbLine
10
-27.5
20
-15.000000000000011
30
0
11
-32.573886797442711
21
-16.178454139047531
31
0
0
LINE
5
140
100
AcDbEntity
8
0
100
AcDbLine
10
-24.746916235567863
20
-4.0369609534810049
30
0
11
-30.486266634373948
21
-4.0369609534810049
31
0
0
CIRCLE
5
141
100
AcDbEntity
8
0
100
AcDbCircle
10
-23.251792619470493
20
-14.013317054365412
30
0
40
0.76157358501443895
210
0
220
0
230
1
0
LINE
5
142
100
AcDbEntity
8
0
100
AcDbLine
10
-27.5
20
-15.000000000000011
30
0
11
-23.251792619470493
21
-14.013317054365412
31
0
0
ARC
5
143
100
AcDbEntity
8
0
100
AcDbCircle
10
-30.486266634373948
20
-5.0369609534810031
30
0
40
0.99999999999999867
210
0
220
-0
230
1
100
AcDbArc
50
90
51
193.07561336952563
0
ENDSEC
0
SECTION
2
OBJECTS
0
DICTIONARY
5
C
100
AcDbDictionary
3
ACAD_GROUP
350
D
3
ACAD_MLINESTYLE
350
17
0
DICTIONARY
5
D
100
AcDbDictionary
0
DICTIONARY
5
1A
330
C
100
AcDbDictionary
0
DICTIONARY
5
17
100
AcDbDictionary
0
ENDSEC
0
EOF
