%TF.GenerationSoftware,KiCad,Pcbnew,(7.0.0)*%
%TF.CreationDate,2023-05-27T11:40:30+01:00*%
%TF.ProjectId,right,72696768-742e-46b6-9963-61645f706362,rev?*%
%TF.SameCoordinates,Original*%
%TF.FileFunction,Copper,L2,Bot*%
%TF.FilePolarity,Positive*%
%FSLAX46Y46*%
G04 Gerber Fmt 4.6, Leading zero omitted, Abs format (unit mm)*
G04 Created by KiCad (PCBNEW (7.0.0)) date 2023-05-27 11:40:30*
%MOMM*%
%LPD*%
G01*
G04 APERTURE LIST*
G04 Aperture macros list*
%AMRoundRect*
0 Rectangle with rounded corners*
0 $1 Rounding radius*
0 $2 $3 $4 $5 $6 $7 $8 $9 X,Y pos of 4 corners*
0 Add a 4 corners polygon primitive as box body*
4,1,4,$2,$3,$4,$5,$6,$7,$8,$9,$2,$3,0*
0 Add four circle primitives for the rounded corners*
1,1,$1+$1,$2,$3*
1,1,$1+$1,$4,$5*
1,1,$1+$1,$6,$7*
1,1,$1+$1,$8,$9*
0 Add four rect primitives between the rounded corners*
20,1,$1+$1,$2,$3,$4,$5,0*
20,1,$1+$1,$4,$5,$6,$7,0*
20,1,$1+$1,$6,$7,$8,$9,0*
20,1,$1+$1,$8,$9,$2,$3,0*%
%AMRotRect*
0 Rectangle, with rotation*
0 The origin of the aperture is its center*
0 $1 length*
0 $2 width*
0 $3 Rotation angle, in degrees counterclockwise*
0 Add horizontal line*
21,1,$1,$2,0,0,$3*%
G04 Aperture macros list end*
%TA.AperFunction,ComponentPad*%
%ADD10C,1.750000*%
%TD*%
%TA.AperFunction,SMDPad,CuDef*%
%ADD11RotRect,1.244600X0.660400X285.000000*%
%TD*%
%TA.AperFunction,SMDPad,CuDef*%
%ADD12RoundRect,0.155000X-0.155000X0.212500X-0.155000X-0.212500X0.155000X-0.212500X0.155000X0.212500X0*%
%TD*%
%TA.AperFunction,SMDPad,CuDef*%
%ADD13RoundRect,0.155000X0.155000X-0.212500X0.155000X0.212500X-0.155000X0.212500X-0.155000X-0.212500X0*%
%TD*%
%TA.AperFunction,SMDPad,CuDef*%
%ADD14RoundRect,0.150000X-0.512500X-0.150000X0.512500X-0.150000X0.512500X0.150000X-0.512500X0.150000X0*%
%TD*%
%TA.AperFunction,SMDPad,CuDef*%
%ADD15RoundRect,0.062500X-0.062500X0.362500X-0.062500X-0.362500X0.062500X-0.362500X0.062500X0.362500X0*%
%TD*%
%TA.AperFunction,SMDPad,CuDef*%
%ADD16RoundRect,0.062500X-0.362500X0.062500X-0.362500X-0.062500X0.362500X-0.062500X0.362500X0.062500X0*%
%TD*%
%TA.AperFunction,SMDPad,CuDef*%
%ADD17R,2.600000X2.600000*%
%TD*%
%TA.AperFunction,SMDPad,CuDef*%
%ADD18RotRect,1.600000X1.000000X254.101000*%
%TD*%
%TA.AperFunction,SMDPad,CuDef*%
%ADD19RoundRect,0.160000X-0.197500X-0.160000X0.197500X-0.160000X0.197500X0.160000X-0.197500X0.160000X0*%
%TD*%
%TA.AperFunction,SMDPad,CuDef*%
%ADD20RoundRect,0.160000X-0.160000X0.197500X-0.160000X-0.197500X0.160000X-0.197500X0.160000X0.197500X0*%
%TD*%
%TA.AperFunction,SMDPad,CuDef*%
%ADD21R,2.000000X2.400000*%
%TD*%
%TA.AperFunction,ViaPad*%
%ADD22C,0.800000*%
%TD*%
%TA.AperFunction,Conductor*%
%ADD23C,0.150000*%
%TD*%
%TA.AperFunction,Conductor*%
%ADD24C,0.500000*%
%TD*%
G04 APERTURE END LIST*
D10*
%TO.P,J5,1,Pin_1*%
%TO.N,/MISO*%
X38100000Y-86100000D03*
%TO.P,J5,2,Pin_2*%
%TO.N,+3V3*%
X35349842Y-86807909D03*
%TO.P,J5,3,Pin_3*%
%TO.N,/SCK*%
X36433610Y-84183038D03*
%TO.P,J5,4,Pin_4*%
%TO.N,/MOSI*%
X33683452Y-84890946D03*
%TO.P,J5,5,Pin_5*%
%TO.N,/~{reset}*%
X34767220Y-82266075D03*
%TO.P,J5,6,Pin_6*%
%TO.N,GND*%
X32017062Y-82973984D03*
%TD*%
D11*
%TO.P,SW3,1,1*%
%TO.N,GND*%
X30145102Y-86471746D03*
X31196942Y-90397269D03*
%TO.P,SW3,2,2*%
%TO.N,/vol_down*%
X31574674Y-86088693D03*
X32626514Y-90014216D03*
%TD*%
D12*
%TO.P,C5,1*%
%TO.N,Net-(U2-OUT)*%
X65100000Y-93432500D03*
%TO.P,C5,2*%
%TO.N,GND*%
X65100000Y-94567500D03*
%TD*%
D13*
%TO.P,C4,1*%
%TO.N,+3V3*%
X57900000Y-93967500D03*
%TO.P,C4,2*%
%TO.N,GND*%
X57900000Y-92832500D03*
%TD*%
D14*
%TO.P,U2,1,OUT*%
%TO.N,Net-(U2-OUT)*%
X60362500Y-93750000D03*
%TO.P,U2,2,GND*%
%TO.N,GND*%
X60362500Y-92800000D03*
%TO.P,U2,3,~{FLG}*%
%TO.N,unconnected-(U2-~{FLG}-Pad3)*%
X60362500Y-91850000D03*
%TO.P,U2,4,EN*%
%TO.N,/opto_en*%
X62637500Y-91850000D03*
%TO.P,U2,5,IN*%
%TO.N,+3V3*%
X62637500Y-93750000D03*
%TD*%
D12*
%TO.P,C3,1*%
%TO.N,+3V3*%
X49300000Y-92665000D03*
%TO.P,C3,2*%
%TO.N,GND*%
X49300000Y-93800000D03*
%TD*%
D11*
%TO.P,SW2,1,1*%
%TO.N,GND*%
X27396450Y-76372988D03*
X28448290Y-80298511D03*
%TO.P,SW2,2,2*%
%TO.N,/vol_up*%
X28826022Y-75989935D03*
X29877862Y-79915458D03*
%TD*%
D15*
%TO.P,U1,1,PA4*%
%TO.N,/SCK*%
X42900000Y-89950000D03*
%TO.P,U1,2,PA3*%
%TO.N,/vol_down*%
X43400000Y-89950000D03*
%TO.P,U1,3,PA2*%
%TO.N,/vol_up*%
X43900000Y-89950000D03*
%TO.P,U1,4,PA1*%
%TO.N,/opto_out*%
X44400000Y-89950000D03*
%TO.P,U1,5,AREF/PA0*%
%TO.N,/opto_en*%
X44900000Y-89950000D03*
D16*
%TO.P,U1,6,NC*%
%TO.N,unconnected-(U1-NC-Pad6)*%
X45825000Y-90875000D03*
%TO.P,U1,7,NC*%
%TO.N,unconnected-(U1-NC-Pad7)*%
X45825000Y-91375000D03*
%TO.P,U1,8,GND*%
%TO.N,GND*%
X45825000Y-91875000D03*
%TO.P,U1,9,VCC*%
%TO.N,+3V3*%
X45825000Y-92375000D03*
%TO.P,U1,10,NC*%
%TO.N,unconnected-(U1-NC-Pad10)*%
X45825000Y-92875000D03*
D15*
%TO.P,U1,11,XTAL1/PB0*%
%TO.N,Net-(U1-XTAL1{slash}PB0)*%
X44900000Y-93800000D03*
%TO.P,U1,12,XTAL2/PB1*%
%TO.N,Net-(U1-XTAL2{slash}PB1)*%
X44400000Y-93800000D03*
%TO.P,U1,13,~{RESET}/PB3*%
%TO.N,/~{reset}*%
X43900000Y-93800000D03*
%TO.P,U1,14,PB2*%
%TO.N,/opto_LDR*%
X43400000Y-93800000D03*
%TO.P,U1,15,PA7*%
%TO.N,/right_side_data*%
X42900000Y-93800000D03*
D16*
%TO.P,U1,16,PA6*%
%TO.N,/MOSI*%
X41975000Y-92875000D03*
%TO.P,U1,17,NC*%
%TO.N,unconnected-(U1-NC-Pad17)*%
X41975000Y-92375000D03*
%TO.P,U1,18,NC*%
%TO.N,unconnected-(U1-NC-Pad18)*%
X41975000Y-91875000D03*
%TO.P,U1,19,NC*%
%TO.N,unconnected-(U1-NC-Pad19)*%
X41975000Y-91375000D03*
%TO.P,U1,20,PA5*%
%TO.N,/MISO*%
X41975000Y-90875000D03*
D17*
%TO.P,U1,21,GND*%
%TO.N,GND*%
X43899999Y-91874999D03*
%TD*%
D18*
%TO.P,SW1,1,GND*%
%TO.N,GND*%
X35057584Y-57741127D03*
%TO.P,SW1,2,CCW*%
%TO.N,/MOSI*%
X36740640Y-58220527D03*
%TO.P,SW1,3,GND*%
%TO.N,GND*%
X38423695Y-58699926D03*
%TO.P,SW1,4,GND*%
X32866045Y-65435096D03*
%TO.P,SW1,5,CW*%
%TO.N,/MISO*%
X34549100Y-65914495D03*
%TO.P,SW1,6,PUSH*%
%TO.N,/SCK*%
X36232156Y-66393895D03*
%TD*%
D19*
%TO.P,R2,1*%
%TO.N,/opto_out*%
X65402500Y-91400000D03*
%TO.P,R2,2*%
%TO.N,GND*%
X66597500Y-91400000D03*
%TD*%
D20*
%TO.P,R1,1*%
%TO.N,+3V3*%
X34900000Y-88502500D03*
%TO.P,R1,2*%
%TO.N,/~{reset}*%
X34900000Y-89697500D03*
%TD*%
D12*
%TO.P,C1,1*%
%TO.N,Net-(U1-XTAL1{slash}PB0)*%
X53400000Y-96132500D03*
%TO.P,C1,2*%
%TO.N,GND*%
X53400000Y-97267500D03*
%TD*%
D20*
%TO.P,R3,1*%
%TO.N,Net-(OC1-Pad2)*%
X67200000Y-93402500D03*
%TO.P,R3,2*%
%TO.N,GND*%
X67200000Y-94597500D03*
%TD*%
D21*
%TO.P,Y1,1,1*%
%TO.N,Net-(U1-XTAL2{slash}PB1)*%
X47849999Y-96699999D03*
%TO.P,Y1,2,2*%
%TO.N,Net-(U1-XTAL1{slash}PB0)*%
X51549999Y-96699999D03*
%TD*%
D12*
%TO.P,C2,1*%
%TO.N,Net-(U1-XTAL2{slash}PB1)*%
X46000000Y-95132500D03*
%TO.P,C2,2*%
%TO.N,GND*%
X46000000Y-96267500D03*
%TD*%
D22*
%TO.N,GND*%
X30500000Y-81500000D03*
X52200000Y-88500000D03*
X35900000Y-51300000D03*
X31900000Y-92100000D03*
X68800000Y-99500000D03*
X39600000Y-96700000D03*
X31300000Y-88200000D03*
X45400000Y-87100000D03*
X34600000Y-92300000D03*
X39700000Y-100000000D03*
X42400000Y-101600000D03*
X36800000Y-64800000D03*
X29100000Y-73600000D03*
X47200000Y-89000000D03*
X36400000Y-94600000D03*
X63400000Y-94900000D03*
X29200000Y-83300000D03*
X40700000Y-94100000D03*
X40900000Y-90274500D03*
X33400000Y-63700000D03*
X48192277Y-91428604D03*
X64300000Y-97600000D03*
X40200000Y-86600000D03*
X75000000Y-94900000D03*
X50900000Y-99400000D03*
X44200000Y-96900000D03*
X32900000Y-70700000D03*
X50800000Y-93700000D03*
X32300000Y-67400000D03*
X54600000Y-99300000D03*
X40400000Y-53700000D03*
X60300000Y-99400000D03*
X30900000Y-55400000D03*
X75000000Y-90700000D03*
X68700000Y-94600000D03*
X59800000Y-88800000D03*
X26400000Y-72900000D03*
X58800000Y-91500000D03*
X50600000Y-91400000D03*
X56400000Y-92900000D03*
X63900000Y-91600000D03*
X75200000Y-99600000D03*
X46400000Y-99300000D03*
X68600000Y-89700000D03*
X33400000Y-78500000D03*
X28200000Y-65300000D03*
X48200000Y-93700000D03*
X49000000Y-86700000D03*
X53900000Y-94400000D03*
X38000000Y-60600000D03*
X54400000Y-91500000D03*
X32800000Y-75200000D03*
X56800000Y-94900000D03*
X39100000Y-93700000D03*
X30400000Y-69600000D03*
X72900000Y-88400000D03*
X54400000Y-86800000D03*
X30400000Y-77600000D03*
X31000000Y-84800000D03*
X47900000Y-83600000D03*
X39000000Y-91100000D03*
X28100000Y-78300000D03*
X34500000Y-59600000D03*
%TO.N,+3V3*%
X47200000Y-90425500D03*
%TO.N,Net-(U2-OUT)*%
X63900000Y-92900000D03*
%TO.N,/MOSI*%
X40600000Y-92900000D03*
%TO.N,/opto_out*%
X63900000Y-90400000D03*
%TO.N,Net-(OC1-Pad2)*%
X66400000Y-92900000D03*
%TO.N,/vol_up*%
X36663491Y-91019654D03*
X39655096Y-87873535D03*
%TO.N,/vol_down*%
X37911753Y-91151830D03*
X39715071Y-88871235D03*
%TO.N,/right_side_data*%
X41912115Y-94847963D03*
%TO.N,/opto_LDR*%
X65328194Y-90371806D03*
X43200000Y-95600000D03*
X50600000Y-89500000D03*
%TD*%
D23*
%TO.N,Net-(U1-XTAL1{slash}PB0)*%
X50075000Y-95225000D02*
X51550000Y-96700000D01*
X52150000Y-96100000D02*
X51550000Y-96700000D01*
X47068112Y-95225000D02*
X50075000Y-95225000D01*
X44900000Y-93800000D02*
X45475000Y-94375000D01*
X53400000Y-96132500D02*
X53367500Y-96100000D01*
X53367500Y-96100000D02*
X52150000Y-96100000D01*
X45475000Y-94375000D02*
X46218112Y-94375000D01*
X46218112Y-94375000D02*
X47068112Y-95225000D01*
%TO.N,GND*%
X43877297Y-91875000D02*
X42276797Y-90274500D01*
X43900000Y-91875000D02*
X43900000Y-91852297D01*
X43900000Y-91897703D02*
X45702297Y-93700000D01*
X42276797Y-90274500D02*
X40900000Y-90274500D01*
X43900000Y-91875000D02*
X43877297Y-91875000D01*
X43900000Y-91852297D02*
X45752297Y-90000000D01*
X43900000Y-91875000D02*
X42075000Y-93700000D01*
X43900000Y-91875000D02*
X43900000Y-91897703D01*
%TO.N,Net-(U1-XTAL2{slash}PB1)*%
X45592500Y-94725000D02*
X46000000Y-95132500D01*
X46282500Y-95132500D02*
X47850000Y-96700000D01*
X44922703Y-94725000D02*
X44400000Y-94202297D01*
X44400000Y-94202297D02*
X44400000Y-93800000D01*
X46000000Y-95132500D02*
X46282500Y-95132500D01*
X44922703Y-94725000D02*
X45592500Y-94725000D01*
D24*
%TO.N,+3V3*%
X54565000Y-92665000D02*
X55867500Y-93967500D01*
X47200000Y-90425500D02*
X47200000Y-92000000D01*
D23*
X47200000Y-91800000D02*
X46625000Y-92375000D01*
X47200000Y-90425500D02*
X47200000Y-91800000D01*
D24*
X47900000Y-92700000D02*
X49265000Y-92700000D01*
X49300000Y-92665000D02*
X54565000Y-92665000D01*
X62637500Y-93750000D02*
X61887500Y-94500000D01*
X47200000Y-92000000D02*
X47900000Y-92700000D01*
X49265000Y-92700000D02*
X49300000Y-92665000D01*
X55867500Y-93967500D02*
X57900000Y-93967500D01*
D23*
X46625000Y-92375000D02*
X45825000Y-92375000D01*
D24*
X61887500Y-94500000D02*
X58432500Y-94500000D01*
X58432500Y-94500000D02*
X57900000Y-93967500D01*
D23*
X35349842Y-88052658D02*
X35349842Y-86807909D01*
X34900000Y-88502500D02*
X35349842Y-88052658D01*
D24*
%TO.N,Net-(U2-OUT)*%
X64567500Y-92900000D02*
X65100000Y-93432500D01*
X61976472Y-92900000D02*
X61126472Y-93750000D01*
X63900000Y-92900000D02*
X61976472Y-92900000D01*
X64567500Y-92900000D02*
X63900000Y-92900000D01*
X61126472Y-93750000D02*
X60362500Y-93750000D01*
D23*
%TO.N,/~{reset}*%
X34900000Y-89697500D02*
X34199842Y-88997342D01*
X43454595Y-96300000D02*
X41859953Y-96300000D01*
X39450180Y-90345154D02*
X35547654Y-90345154D01*
X43900000Y-95854595D02*
X43454595Y-96300000D01*
X35547654Y-90345154D02*
X34900000Y-89697500D01*
X41859953Y-96300000D02*
X39825000Y-94265047D01*
X34900000Y-85631405D02*
X34900000Y-82398855D01*
X34199842Y-88997342D02*
X34199842Y-86331563D01*
X34900000Y-82398855D02*
X34767220Y-82266075D01*
X43900000Y-93800000D02*
X43900000Y-95854595D01*
X34199842Y-86331563D02*
X34900000Y-85631405D01*
X39825000Y-94265047D02*
X39825000Y-90719974D01*
X39825000Y-90719974D02*
X39450180Y-90345154D01*
%TO.N,/SCK*%
X39250000Y-85623654D02*
X37809384Y-84183038D01*
X35218543Y-79885276D02*
X35100000Y-79400000D01*
X35100000Y-79400000D02*
X35100000Y-67525987D01*
X38980596Y-89090648D02*
X38980596Y-86845750D01*
X36900000Y-82277535D02*
X35300000Y-80677535D01*
X36900000Y-83716648D02*
X36900000Y-82277535D01*
X35100000Y-67525987D02*
X36232081Y-66393906D01*
X39489948Y-89600000D02*
X38980596Y-89090648D01*
X36433610Y-84183038D02*
X36900000Y-83716648D01*
X42900000Y-89950000D02*
X42550000Y-89600000D01*
X38980596Y-86845750D02*
X39250000Y-86576346D01*
X42550000Y-89600000D02*
X39489948Y-89600000D01*
X37809384Y-84183038D02*
X36433610Y-84183038D01*
X35300000Y-80677535D02*
X35218543Y-79885276D01*
X39250000Y-86576346D02*
X39250000Y-85623654D01*
%TO.N,/MISO*%
X34762120Y-79562120D02*
X34857416Y-79933426D01*
X34857416Y-79933426D02*
X34900000Y-80772509D01*
X38630596Y-86630596D02*
X38100000Y-86100000D01*
X38630596Y-89235622D02*
X38630596Y-86630596D01*
X41900500Y-90949500D02*
X40549500Y-90949500D01*
X34900000Y-80772509D02*
X36315477Y-82187986D01*
X39344974Y-89950000D02*
X38630596Y-89235622D01*
X34549034Y-65914477D02*
X34750000Y-66115443D01*
X35283610Y-84659384D02*
X36724226Y-86100000D01*
X39550000Y-89950000D02*
X39344974Y-89950000D01*
X34750000Y-66115443D02*
X34750000Y-79506969D01*
X36315477Y-82187986D02*
X36315477Y-82674825D01*
X41975000Y-90875000D02*
X41900500Y-90949500D01*
X34750000Y-79506969D02*
X34762120Y-79562120D01*
X35283610Y-83706692D02*
X35283610Y-84659384D01*
X36315477Y-82674825D02*
X35283610Y-83706692D01*
X40549500Y-90949500D02*
X39550000Y-89950000D01*
X36724226Y-86100000D02*
X38100000Y-86100000D01*
%TO.N,/MOSI*%
X34400000Y-67700000D02*
X33400000Y-66700000D01*
X34500000Y-80000000D02*
X34400000Y-79544975D01*
X41572703Y-92875000D02*
X41975000Y-92875000D01*
X34500000Y-80809840D02*
X34500000Y-80000000D01*
X41547703Y-92900000D02*
X41572703Y-92875000D01*
X33617220Y-81692620D02*
X34500000Y-80809840D01*
X33400000Y-66700000D02*
X34000000Y-64600000D01*
X33617220Y-84824714D02*
X33617220Y-81692620D01*
X33683452Y-84890946D02*
X33617220Y-84824714D01*
X40600000Y-92900000D02*
X41547703Y-92900000D01*
X34400000Y-79544975D02*
X34400000Y-67700000D01*
X34000000Y-64600000D02*
X36740708Y-58220547D01*
%TO.N,/opto_out*%
X64402500Y-90400000D02*
X65402500Y-91400000D01*
X50345405Y-90200000D02*
X48045405Y-87900000D01*
X63900000Y-90400000D02*
X64402500Y-90400000D01*
X63700000Y-90200000D02*
X50345405Y-90200000D01*
X44400000Y-89400000D02*
X44400000Y-89950000D01*
X48045405Y-87900000D02*
X45900000Y-87900000D01*
X63900000Y-90400000D02*
X63700000Y-90200000D01*
X45900000Y-87900000D02*
X44400000Y-89400000D01*
D24*
%TO.N,Net-(OC1-Pad2)*%
X66400000Y-92900000D02*
X66902500Y-93402500D01*
X66902500Y-93402500D02*
X67200000Y-93402500D01*
D23*
%TO.N,/vol_up*%
X43252297Y-88900000D02*
X43900000Y-89547703D01*
X40698431Y-88900000D02*
X43252297Y-88900000D01*
X36663491Y-91019654D02*
X35019654Y-91019654D01*
X33167062Y-82497638D02*
X30584883Y-79915459D01*
X39655096Y-87873535D02*
X39977796Y-88196235D01*
X33167062Y-83450330D02*
X33167062Y-82497638D01*
X32493408Y-84123984D02*
X33167062Y-83450330D01*
X29877863Y-79915459D02*
X29400000Y-78000000D01*
X32493408Y-85393408D02*
X32493408Y-84123984D01*
X35019654Y-91019654D02*
X33800000Y-89800000D01*
X39977796Y-88196235D02*
X39994666Y-88196235D01*
X43900000Y-89547703D02*
X43900000Y-89950000D01*
X33800000Y-86700000D02*
X32493408Y-85393408D01*
X29400000Y-78000000D02*
X28826023Y-75989936D01*
X33800000Y-89800000D02*
X33800000Y-86700000D01*
X39994666Y-88196235D02*
X40698431Y-88900000D01*
X30584883Y-79915459D02*
X29877863Y-79915459D01*
%TO.N,/vol_down*%
X39715071Y-88871235D02*
X39715071Y-89015071D01*
X37911753Y-91151830D02*
X37368929Y-91694654D01*
X35199680Y-91694654D02*
X33519243Y-90014217D01*
X39950000Y-89250000D02*
X43102297Y-89250000D01*
X39715071Y-89015071D02*
X39950000Y-89250000D01*
X33519243Y-90014217D02*
X32626515Y-90014217D01*
X43400000Y-89547703D02*
X43400000Y-89950000D01*
X31574675Y-86088694D02*
X32626515Y-90014217D01*
X43102297Y-89250000D02*
X43400000Y-89547703D01*
X37368929Y-91694654D02*
X35199680Y-91694654D01*
%TO.N,/right_side_data*%
X42252037Y-94847963D02*
X42900000Y-94200000D01*
X42900000Y-94200000D02*
X42900000Y-93800000D01*
X41912115Y-94847963D02*
X42252037Y-94847963D01*
%TO.N,/opto_LDR*%
X64656388Y-89700000D02*
X50800000Y-89700000D01*
X65328194Y-90371806D02*
X64656388Y-89700000D01*
X50800000Y-89700000D02*
X50600000Y-89500000D01*
X43200000Y-95600000D02*
X43400000Y-95400000D01*
X43400000Y-95400000D02*
X43400000Y-93800000D01*
%TO.N,/opto_en*%
X47655026Y-88250000D02*
X46600000Y-88250000D01*
X62637500Y-91850000D02*
X62363000Y-91850000D01*
X62363000Y-91850000D02*
X61387500Y-90874500D01*
X46600000Y-88250000D02*
X44900000Y-89950000D01*
X50005026Y-90600000D02*
X47655026Y-88250000D01*
X61113000Y-90600000D02*
X50005026Y-90600000D01*
X61387500Y-90874500D02*
X61113000Y-90600000D01*
%TD*%
%TA.AperFunction,Conductor*%
%TO.N,GND*%
G36*
X35993450Y-50558360D02*
G01*
X36018055Y-50560987D01*
X36119919Y-50582307D01*
X36149878Y-50588578D01*
X36173471Y-50596038D01*
X36302920Y-50651721D01*
X36314033Y-50657174D01*
X36343494Y-50673506D01*
X36357280Y-50681148D01*
X36357295Y-50681153D01*
X41076374Y-53296982D01*
X41092488Y-53305914D01*
X41134547Y-53344109D01*
X41155157Y-53397052D01*
X41149992Y-53453631D01*
X39727431Y-57715115D01*
X39690303Y-57770175D01*
X39630088Y-57798182D01*
X39564057Y-57791101D01*
X39511150Y-57750964D01*
X39478005Y-57707428D01*
X39362208Y-57622198D01*
X39306698Y-57599731D01*
X39020257Y-57518142D01*
X38595647Y-59008849D01*
X38308006Y-60018681D01*
X38594448Y-60100271D01*
X38653465Y-60110425D01*
X38748522Y-60102852D01*
X38808209Y-60112916D01*
X38856021Y-60150036D01*
X38880564Y-60205367D01*
X38875991Y-60265724D01*
X38421176Y-61628188D01*
X38391948Y-61675888D01*
X38344730Y-61705889D01*
X38289131Y-61712082D01*
X37718984Y-61645304D01*
X37718051Y-61645191D01*
X37628011Y-61633952D01*
X37458962Y-61645191D01*
X37444356Y-61646162D01*
X37266348Y-61692968D01*
X37100441Y-61772671D01*
X36952654Y-61882382D01*
X36952654Y-61882383D01*
X36828343Y-62018126D01*
X36732027Y-62174963D01*
X36667187Y-62347230D01*
X36636183Y-62528658D01*
X36640137Y-62712673D01*
X36678905Y-62892603D01*
X36751082Y-63061921D01*
X36854051Y-63214485D01*
X36984070Y-63344756D01*
X36984073Y-63344758D01*
X36984074Y-63344759D01*
X37136437Y-63448022D01*
X37164940Y-63460243D01*
X37195718Y-63473440D01*
X37214196Y-63483286D01*
X37615962Y-63743137D01*
X37653865Y-63781686D01*
X37671763Y-63832700D01*
X37666253Y-63886481D01*
X37148449Y-65439392D01*
X37114440Y-65491727D01*
X37059245Y-65520865D01*
X36996847Y-65519425D01*
X36397877Y-65348815D01*
X36015327Y-65239850D01*
X35948287Y-65234399D01*
X35941078Y-65233813D01*
X35941077Y-65233813D01*
X35846221Y-65264360D01*
X35770272Y-65328887D01*
X35736279Y-65395175D01*
X35333186Y-66810334D01*
X35301611Y-66864046D01*
X35300158Y-66865499D01*
X35244195Y-66897693D01*
X35179632Y-66897389D01*
X35123974Y-66864670D01*
X35092309Y-66808406D01*
X35093219Y-66743851D01*
X35496805Y-65326963D01*
X35502843Y-65252710D01*
X35472295Y-65157852D01*
X35407770Y-65081906D01*
X35407769Y-65081905D01*
X35407768Y-65081904D01*
X35341485Y-65047913D01*
X34426079Y-64787170D01*
X34367394Y-64750322D01*
X34337643Y-64687740D01*
X34346116Y-64618970D01*
X36595214Y-59383821D01*
X36630770Y-59336679D01*
X36684102Y-59311326D01*
X36743109Y-59313514D01*
X36957468Y-59374573D01*
X37031720Y-59380611D01*
X37075768Y-59366425D01*
X37137704Y-59362787D01*
X37193653Y-59389610D01*
X37229602Y-59440181D01*
X37282294Y-59578029D01*
X37369386Y-59692426D01*
X37485183Y-59777655D01*
X37540693Y-59800121D01*
X37827134Y-59881710D01*
X38251746Y-58391005D01*
X38251745Y-58391005D01*
X38539383Y-57381171D01*
X38252943Y-57299582D01*
X38193925Y-57289428D01*
X38050602Y-57300846D01*
X37916301Y-57352184D01*
X37798881Y-57441577D01*
X37741681Y-57465615D01*
X37679996Y-57458932D01*
X37629272Y-57423203D01*
X37599310Y-57387938D01*
X37599309Y-57387937D01*
X37599308Y-57387936D01*
X37533025Y-57353945D01*
X36523811Y-57066482D01*
X36449562Y-57060445D01*
X36405515Y-57074630D01*
X36343576Y-57078268D01*
X36287628Y-57051444D01*
X36251679Y-57000874D01*
X36198986Y-56863025D01*
X36111894Y-56748628D01*
X35996097Y-56663399D01*
X35940587Y-56640932D01*
X35654146Y-56559343D01*
X35229536Y-58050050D01*
X34941895Y-59059882D01*
X35228337Y-59141472D01*
X35287355Y-59151626D01*
X35430678Y-59140208D01*
X35564979Y-59088870D01*
X35682398Y-58999478D01*
X35739598Y-58975440D01*
X35801284Y-58982122D01*
X35852010Y-59017852D01*
X35881972Y-59053118D01*
X35899186Y-59061945D01*
X35945218Y-59102670D01*
X35966040Y-59160501D01*
X35956532Y-59221227D01*
X33801505Y-64237405D01*
X33765947Y-64284551D01*
X33712616Y-64309904D01*
X33653605Y-64307716D01*
X33462607Y-64253312D01*
X33037997Y-65744019D01*
X32750356Y-66753851D01*
X33036791Y-66835439D01*
X33054704Y-66838521D01*
X33100949Y-66856559D01*
X33136414Y-66891289D01*
X33162459Y-66929825D01*
X33171716Y-66936536D01*
X33180118Y-66942628D01*
X33195008Y-66955334D01*
X34038181Y-67798507D01*
X34065061Y-67838735D01*
X34074500Y-67886188D01*
X34074500Y-79187344D01*
X34056509Y-79251672D01*
X34007757Y-79297333D01*
X33942390Y-79311079D01*
X33879377Y-79288919D01*
X33714200Y-79173262D01*
X33507963Y-79077091D01*
X33288155Y-79018194D01*
X33118252Y-79003330D01*
X33118250Y-79003330D01*
X33004682Y-79003330D01*
X33004680Y-79003330D01*
X32834776Y-79018194D01*
X32614968Y-79077091D01*
X32408730Y-79173262D01*
X32222325Y-79303783D01*
X32061419Y-79464689D01*
X31930898Y-79651094D01*
X31834727Y-79857332D01*
X31775830Y-80077140D01*
X31755997Y-80303830D01*
X31757217Y-80317770D01*
X31747831Y-80377028D01*
X31711725Y-80424943D01*
X31657349Y-80450299D01*
X31597435Y-80447159D01*
X31546008Y-80416258D01*
X30828926Y-79699176D01*
X30821617Y-79691200D01*
X30797337Y-79662264D01*
X30764619Y-79643374D01*
X30755510Y-79637571D01*
X30724567Y-79615905D01*
X30723686Y-79615288D01*
X30698990Y-79605058D01*
X30660735Y-79598312D01*
X30650179Y-79595971D01*
X30613690Y-79586194D01*
X30576063Y-79589487D01*
X30565255Y-79589959D01*
X30486979Y-79589959D01*
X30434574Y-79578341D01*
X30391989Y-79545665D01*
X30367204Y-79498052D01*
X30271327Y-79140235D01*
X30271327Y-79140234D01*
X30238377Y-79073419D01*
X30163453Y-79007711D01*
X30110094Y-78989598D01*
X30049179Y-78968921D01*
X30027464Y-78965272D01*
X29981412Y-78931664D01*
X29955266Y-78881002D01*
X29890165Y-78620052D01*
X29723495Y-77951977D01*
X29721411Y-77940119D01*
X29715070Y-77917911D01*
X29713991Y-77913877D01*
X29708399Y-77891462D01*
X29704282Y-77880131D01*
X29409387Y-76847410D01*
X29406748Y-76790496D01*
X29429839Y-76738409D01*
X29448595Y-76722932D01*
X29461517Y-76708198D01*
X29527225Y-76633274D01*
X29559257Y-76538907D01*
X29554385Y-76464569D01*
X29219487Y-75214711D01*
X29186537Y-75147896D01*
X29111613Y-75082188D01*
X29017246Y-75050156D01*
X28942906Y-75055028D01*
X28257345Y-75238723D01*
X28190528Y-75271674D01*
X28118513Y-75353790D01*
X28073589Y-75386235D01*
X28019017Y-75395871D01*
X27965698Y-75380774D01*
X27924280Y-75343959D01*
X27919924Y-75337843D01*
X27806906Y-75248965D01*
X27673430Y-75195528D01*
X27530299Y-75181861D01*
X27471124Y-75191090D01*
X27347460Y-75224224D01*
X27573228Y-76066804D01*
X27928404Y-77392342D01*
X28052070Y-77359207D01*
X28107932Y-77337611D01*
X28225051Y-77254209D01*
X28313928Y-77141192D01*
X28367365Y-77007716D01*
X28368079Y-77000243D01*
X28385540Y-76947649D01*
X28424168Y-76907914D01*
X28476247Y-76888973D01*
X28531376Y-76894609D01*
X28540431Y-76897682D01*
X28540433Y-76897684D01*
X28634800Y-76929716D01*
X28653779Y-76928472D01*
X28708717Y-76937389D01*
X28754221Y-76969437D01*
X28781123Y-77018160D01*
X29084932Y-78082099D01*
X29086010Y-78086131D01*
X29325758Y-79047132D01*
X29326776Y-79102740D01*
X29303385Y-79153199D01*
X29260291Y-79188358D01*
X29253751Y-79191583D01*
X29242368Y-79197197D01*
X29170353Y-79279313D01*
X29125429Y-79311758D01*
X29070857Y-79321394D01*
X29017538Y-79306297D01*
X28976120Y-79269482D01*
X28971764Y-79263366D01*
X28858746Y-79174488D01*
X28725270Y-79121051D01*
X28582139Y-79107384D01*
X28522964Y-79116613D01*
X28399300Y-79149747D01*
X28625068Y-79992327D01*
X28980244Y-81317865D01*
X29103910Y-81284730D01*
X29159772Y-81263134D01*
X29276891Y-81179732D01*
X29365768Y-81066715D01*
X29419205Y-80933239D01*
X29419919Y-80925766D01*
X29437380Y-80873172D01*
X29476008Y-80833437D01*
X29528087Y-80814496D01*
X29583216Y-80820132D01*
X29592271Y-80823205D01*
X29592273Y-80823207D01*
X29686640Y-80855239D01*
X29760978Y-80850367D01*
X30446542Y-80666671D01*
X30513357Y-80633721D01*
X30579065Y-80558797D01*
X30579066Y-80558793D01*
X30579998Y-80557731D01*
X30635938Y-80521229D01*
X30702699Y-80519044D01*
X30760907Y-80551809D01*
X32805243Y-82596145D01*
X32832123Y-82636373D01*
X32841562Y-82683826D01*
X32841562Y-83264142D01*
X32832123Y-83311595D01*
X32805243Y-83351823D01*
X32277122Y-83879942D01*
X32269149Y-83887248D01*
X32240214Y-83911528D01*
X32221322Y-83944248D01*
X32215514Y-83953364D01*
X32193239Y-83985177D01*
X32183005Y-84009883D01*
X32176260Y-84048132D01*
X32173920Y-84058688D01*
X32164143Y-84095176D01*
X32167436Y-84132804D01*
X32167908Y-84143612D01*
X32167908Y-85186755D01*
X32150474Y-85250155D01*
X32103076Y-85295728D01*
X32039040Y-85310659D01*
X31976373Y-85290750D01*
X31944247Y-85254597D01*
X31860266Y-85180947D01*
X31860265Y-85180946D01*
X31765898Y-85148914D01*
X31691558Y-85153786D01*
X31005997Y-85337481D01*
X30939180Y-85370432D01*
X30867165Y-85452548D01*
X30822241Y-85484993D01*
X30767669Y-85494629D01*
X30714350Y-85479532D01*
X30672932Y-85442717D01*
X30668576Y-85436601D01*
X30555558Y-85347723D01*
X30422082Y-85294286D01*
X30278951Y-85280619D01*
X30219776Y-85289848D01*
X30096112Y-85322982D01*
X30321880Y-86165562D01*
X30677056Y-87491100D01*
X30800722Y-87457965D01*
X30856584Y-87436369D01*
X30973703Y-87352967D01*
X31062580Y-87239950D01*
X31116017Y-87106474D01*
X31116731Y-87099001D01*
X31134192Y-87046407D01*
X31172820Y-87006672D01*
X31224899Y-86987731D01*
X31280028Y-86993367D01*
X31289083Y-86996440D01*
X31289085Y-86996442D01*
X31383452Y-87028474D01*
X31386125Y-87028299D01*
X31441688Y-87037471D01*
X31487465Y-87070274D01*
X31514012Y-87119939D01*
X32058358Y-89151462D01*
X32060201Y-89207746D01*
X32036960Y-89259041D01*
X31993429Y-89294767D01*
X31991021Y-89295954D01*
X31919005Y-89378071D01*
X31874081Y-89410516D01*
X31819509Y-89420152D01*
X31766190Y-89405055D01*
X31724772Y-89368240D01*
X31720416Y-89362124D01*
X31607398Y-89273246D01*
X31473922Y-89219809D01*
X31330791Y-89206142D01*
X31271616Y-89215371D01*
X31147952Y-89248505D01*
X31373720Y-90091085D01*
X31728896Y-91416623D01*
X31852562Y-91383488D01*
X31908424Y-91361892D01*
X32025543Y-91278490D01*
X32114420Y-91165473D01*
X32167857Y-91031997D01*
X32168571Y-91024524D01*
X32186032Y-90971930D01*
X32224660Y-90932195D01*
X32276739Y-90913254D01*
X32331868Y-90918890D01*
X32340923Y-90921963D01*
X32340925Y-90921965D01*
X32435292Y-90953997D01*
X32509630Y-90949125D01*
X33195194Y-90765429D01*
X33262009Y-90732479D01*
X33327717Y-90657555D01*
X33358536Y-90566760D01*
X33392682Y-90514741D01*
X33447798Y-90485857D01*
X33510005Y-90487384D01*
X33563637Y-90518937D01*
X34955630Y-91910930D01*
X34962938Y-91918904D01*
X34987225Y-91947848D01*
X35000089Y-91955275D01*
X35019936Y-91966734D01*
X35029059Y-91972546D01*
X35039515Y-91979867D01*
X35059996Y-91994208D01*
X35059997Y-91994208D01*
X35060878Y-91994825D01*
X35085571Y-92005054D01*
X35086634Y-92005241D01*
X35086635Y-92005242D01*
X35123823Y-92011799D01*
X35134381Y-92014139D01*
X35170873Y-92023918D01*
X35208503Y-92020625D01*
X35219310Y-92020154D01*
X37349302Y-92020154D01*
X37360109Y-92020625D01*
X37397736Y-92023918D01*
X37434253Y-92014132D01*
X37444759Y-92011803D01*
X37481974Y-92005242D01*
X37481976Y-92005240D01*
X37483041Y-92005053D01*
X37507728Y-91994827D01*
X37508611Y-91994208D01*
X37508613Y-91994208D01*
X37539554Y-91972541D01*
X37548651Y-91966745D01*
X37581384Y-91947848D01*
X37605677Y-91918895D01*
X37612965Y-91910942D01*
X37694114Y-91829793D01*
X37748497Y-91798030D01*
X37811468Y-91797080D01*
X37832768Y-91802330D01*
X37990738Y-91802330D01*
X38144118Y-91764526D01*
X38283993Y-91691113D01*
X38402236Y-91586360D01*
X38491973Y-91456353D01*
X38547990Y-91308648D01*
X38567031Y-91151830D01*
X38547990Y-90995012D01*
X38491973Y-90847307D01*
X38491972Y-90847305D01*
X38488680Y-90838625D01*
X38481526Y-90779708D01*
X38502572Y-90724214D01*
X38546996Y-90684857D01*
X38604622Y-90670654D01*
X39263992Y-90670654D01*
X39311445Y-90680093D01*
X39351673Y-90706973D01*
X39463181Y-90818481D01*
X39490061Y-90858709D01*
X39499500Y-90906162D01*
X39499500Y-94245419D01*
X39499028Y-94256227D01*
X39495735Y-94293854D01*
X39505512Y-94330343D01*
X39507853Y-94340899D01*
X39514599Y-94379154D01*
X39524829Y-94403850D01*
X39525446Y-94404731D01*
X39547112Y-94435674D01*
X39552915Y-94444783D01*
X39571806Y-94477502D01*
X39600742Y-94501782D01*
X39608718Y-94509091D01*
X41615903Y-96516276D01*
X41623211Y-96524250D01*
X41647498Y-96553194D01*
X41671547Y-96567079D01*
X41680209Y-96572080D01*
X41689332Y-96577892D01*
X41720269Y-96599554D01*
X41720270Y-96599554D01*
X41721151Y-96600171D01*
X41745844Y-96610400D01*
X41746907Y-96610587D01*
X41746908Y-96610588D01*
X41784099Y-96617145D01*
X41794657Y-96619486D01*
X41831144Y-96629263D01*
X41831145Y-96629262D01*
X41831146Y-96629263D01*
X41868764Y-96625971D01*
X41879571Y-96625500D01*
X43434968Y-96625500D01*
X43445775Y-96625971D01*
X43483402Y-96629264D01*
X43519919Y-96619478D01*
X43530425Y-96617149D01*
X43567640Y-96610588D01*
X43567642Y-96610586D01*
X43568707Y-96610399D01*
X43593394Y-96600173D01*
X43594277Y-96599554D01*
X43594279Y-96599554D01*
X43625220Y-96577887D01*
X43634317Y-96572091D01*
X43667050Y-96553194D01*
X43691343Y-96524241D01*
X43697520Y-96517500D01*
X45190000Y-96517500D01*
X45190000Y-96546148D01*
X45192922Y-96583282D01*
X45239092Y-96742198D01*
X45323335Y-96884645D01*
X45440354Y-97001664D01*
X45582801Y-97085907D01*
X45741720Y-97132078D01*
X45750000Y-97132730D01*
X45750000Y-96517500D01*
X45190000Y-96517500D01*
X43697520Y-96517500D01*
X43698631Y-96516288D01*
X44116290Y-96098629D01*
X44124258Y-96091329D01*
X44153192Y-96067052D01*
X44153192Y-96067051D01*
X44153194Y-96067050D01*
X44172091Y-96034317D01*
X44177887Y-96025220D01*
X44199554Y-95994279D01*
X44199554Y-95994277D01*
X44200173Y-95993394D01*
X44210399Y-95968707D01*
X44210586Y-95967642D01*
X44210588Y-95967640D01*
X44217149Y-95930425D01*
X44219478Y-95919919D01*
X44229264Y-95883402D01*
X44225971Y-95845771D01*
X44225500Y-95834965D01*
X44225500Y-94787485D01*
X44239015Y-94731190D01*
X44276615Y-94687167D01*
X44330102Y-94665012D01*
X44387818Y-94669554D01*
X44437181Y-94699804D01*
X44678653Y-94941276D01*
X44685961Y-94949250D01*
X44710248Y-94978194D01*
X44723507Y-94985849D01*
X44742959Y-94997080D01*
X44752082Y-95002892D01*
X44760401Y-95008717D01*
X44783019Y-95024554D01*
X44783020Y-95024554D01*
X44783901Y-95025171D01*
X44808594Y-95035400D01*
X44809657Y-95035587D01*
X44809658Y-95035588D01*
X44846846Y-95042145D01*
X44857404Y-95044485D01*
X44893896Y-95054264D01*
X44931526Y-95050971D01*
X44942333Y-95050500D01*
X45315500Y-95050500D01*
X45377500Y-95067113D01*
X45422887Y-95112500D01*
X45439500Y-95174500D01*
X45439500Y-95376916D01*
X45443358Y-95401274D01*
X45451120Y-95450283D01*
X45446577Y-95507998D01*
X45416328Y-95557360D01*
X45323335Y-95650354D01*
X45239092Y-95792801D01*
X45192922Y-95951717D01*
X45190000Y-95988852D01*
X45190000Y-96017500D01*
X46126000Y-96017500D01*
X46188000Y-96034113D01*
X46233387Y-96079500D01*
X46250000Y-96141500D01*
X46250000Y-97132730D01*
X46258279Y-97132078D01*
X46432242Y-97081537D01*
X46432699Y-97083112D01*
X46474528Y-97071494D01*
X46536938Y-97087780D01*
X46582725Y-97133210D01*
X46599500Y-97195490D01*
X46599500Y-97924675D01*
X46614033Y-97997738D01*
X46614033Y-97997739D01*
X46614034Y-97997740D01*
X46669399Y-98080601D01*
X46752260Y-98135966D01*
X46771072Y-98139708D01*
X46825325Y-98150500D01*
X46825326Y-98150500D01*
X48874674Y-98150500D01*
X48874675Y-98150500D01*
X48899029Y-98145655D01*
X48947740Y-98135966D01*
X49030601Y-98080601D01*
X49085966Y-97997740D01*
X49100500Y-97924674D01*
X49100500Y-95674500D01*
X49117113Y-95612500D01*
X49162500Y-95567113D01*
X49224500Y-95550500D01*
X49888812Y-95550500D01*
X49936265Y-95559939D01*
X49976493Y-95586819D01*
X50263181Y-95873507D01*
X50290061Y-95913735D01*
X50299500Y-95961188D01*
X50299500Y-97924675D01*
X50314033Y-97997738D01*
X50314033Y-97997739D01*
X50314034Y-97997740D01*
X50369399Y-98080601D01*
X50452260Y-98135966D01*
X50471072Y-98139708D01*
X50525325Y-98150500D01*
X50525326Y-98150500D01*
X52574674Y-98150500D01*
X52574675Y-98150500D01*
X52599029Y-98145655D01*
X52647740Y-98135966D01*
X52730601Y-98080601D01*
X52734287Y-98075083D01*
X52780516Y-98033785D01*
X52840960Y-98020024D01*
X52900511Y-98037241D01*
X52982801Y-98085907D01*
X53141720Y-98132078D01*
X53150000Y-98132730D01*
X53150000Y-97517500D01*
X53650000Y-97517500D01*
X53650000Y-98132730D01*
X53658279Y-98132078D01*
X53817198Y-98085907D01*
X53959645Y-98001664D01*
X54076664Y-97884645D01*
X54160907Y-97742198D01*
X54171308Y-97706399D01*
X71604801Y-97706399D01*
X71624567Y-97957548D01*
X71683376Y-98202509D01*
X71701480Y-98246215D01*
X71779784Y-98435258D01*
X71911414Y-98650058D01*
X72075026Y-98841623D01*
X72266591Y-99005235D01*
X72481391Y-99136865D01*
X72714139Y-99233272D01*
X72959102Y-99292082D01*
X73210250Y-99311848D01*
X73461398Y-99292082D01*
X73706361Y-99233272D01*
X73939109Y-99136865D01*
X74153909Y-99005235D01*
X74345474Y-98841623D01*
X74509086Y-98650058D01*
X74640716Y-98435258D01*
X74737123Y-98202510D01*
X74795933Y-97957547D01*
X74815699Y-97706399D01*
X74795933Y-97455251D01*
X74737123Y-97210288D01*
X74640716Y-96977540D01*
X74509086Y-96762740D01*
X74345474Y-96571175D01*
X74153909Y-96407563D01*
X73939109Y-96275933D01*
X73822735Y-96227729D01*
X73706360Y-96179525D01*
X73461399Y-96120716D01*
X73210250Y-96100950D01*
X72959100Y-96120716D01*
X72714139Y-96179525D01*
X72481389Y-96275934D01*
X72266592Y-96407562D01*
X72075026Y-96571175D01*
X71911413Y-96762741D01*
X71779785Y-96977538D01*
X71779784Y-96977540D01*
X71769792Y-97001664D01*
X71683376Y-97210288D01*
X71624567Y-97455249D01*
X71604801Y-97706399D01*
X54171308Y-97706399D01*
X54207077Y-97583282D01*
X54210000Y-97546148D01*
X54210000Y-97517500D01*
X53650000Y-97517500D01*
X53150000Y-97517500D01*
X53150000Y-97141500D01*
X53166613Y-97079500D01*
X53212000Y-97034113D01*
X53274000Y-97017500D01*
X54210000Y-97017500D01*
X54210000Y-96988852D01*
X54207077Y-96951717D01*
X54160907Y-96792801D01*
X54076664Y-96650354D01*
X53983672Y-96557362D01*
X53953422Y-96507999D01*
X53948880Y-96450283D01*
X53960500Y-96376918D01*
X53960500Y-95888082D01*
X53945461Y-95793131D01*
X53887146Y-95678681D01*
X53796318Y-95587853D01*
X53681868Y-95529538D01*
X53586918Y-95514500D01*
X53586916Y-95514500D01*
X53213084Y-95514500D01*
X53213082Y-95514500D01*
X53118131Y-95529538D01*
X52986182Y-95596770D01*
X52985605Y-95595639D01*
X52962818Y-95609604D01*
X52905102Y-95614146D01*
X52851615Y-95591991D01*
X52814015Y-95547968D01*
X52800500Y-95491673D01*
X52800500Y-95475325D01*
X52785966Y-95402261D01*
X52785966Y-95402260D01*
X52730601Y-95319399D01*
X52647740Y-95264034D01*
X52647739Y-95264033D01*
X52647738Y-95264033D01*
X52574675Y-95249500D01*
X52574674Y-95249500D01*
X50611188Y-95249500D01*
X50563735Y-95240061D01*
X50523507Y-95213181D01*
X50319043Y-95008717D01*
X50311734Y-95000741D01*
X50298663Y-94985163D01*
X50287455Y-94971806D01*
X50287454Y-94971805D01*
X50254736Y-94952915D01*
X50245627Y-94947112D01*
X50214684Y-94925446D01*
X50213803Y-94924829D01*
X50189107Y-94914599D01*
X50150852Y-94907853D01*
X50140296Y-94905512D01*
X50103807Y-94895735D01*
X50066180Y-94899028D01*
X50055372Y-94899500D01*
X49620942Y-94899500D01*
X49564070Y-94885689D01*
X49519866Y-94847331D01*
X49498179Y-94792972D01*
X49503839Y-94734721D01*
X49535586Y-94685554D01*
X49586347Y-94656424D01*
X49717198Y-94618407D01*
X49859645Y-94534164D01*
X49976664Y-94417145D01*
X50060907Y-94274698D01*
X50107077Y-94115782D01*
X50110000Y-94078648D01*
X50110000Y-94050000D01*
X48490000Y-94050000D01*
X48490000Y-94078648D01*
X48492922Y-94115782D01*
X48539092Y-94274698D01*
X48623335Y-94417145D01*
X48740354Y-94534164D01*
X48882801Y-94618407D01*
X49013653Y-94656424D01*
X49064414Y-94685554D01*
X49096161Y-94734721D01*
X49101821Y-94792972D01*
X49080134Y-94847331D01*
X49035930Y-94885689D01*
X48979058Y-94899500D01*
X47254300Y-94899500D01*
X47206847Y-94890061D01*
X47166619Y-94863181D01*
X46462155Y-94158717D01*
X46454846Y-94150741D01*
X46430566Y-94121805D01*
X46397848Y-94102915D01*
X46388739Y-94097112D01*
X46357796Y-94075446D01*
X46356915Y-94074829D01*
X46332219Y-94064599D01*
X46293964Y-94057853D01*
X46283408Y-94055512D01*
X46246919Y-94045735D01*
X46209292Y-94049028D01*
X46198484Y-94049500D01*
X45661188Y-94049500D01*
X45613735Y-94040061D01*
X45573507Y-94013181D01*
X45386670Y-93826344D01*
X45355374Y-93773597D01*
X45353185Y-93712303D01*
X45380640Y-93657458D01*
X45431021Y-93622480D01*
X45442089Y-93618352D01*
X45557188Y-93532188D01*
X45643352Y-93417088D01*
X45675400Y-93331166D01*
X45701839Y-93288929D01*
X45742769Y-93260511D01*
X45791579Y-93250499D01*
X46224178Y-93250499D01*
X46269760Y-93244499D01*
X46369799Y-93197850D01*
X46447850Y-93119799D01*
X46494499Y-93019760D01*
X46500500Y-92974179D01*
X46500499Y-92826173D01*
X46518961Y-92761076D01*
X46568849Y-92715362D01*
X46635306Y-92702645D01*
X46653807Y-92704264D01*
X46690324Y-92694478D01*
X46700830Y-92692149D01*
X46738045Y-92685588D01*
X46738047Y-92685586D01*
X46739112Y-92685399D01*
X46763799Y-92675173D01*
X46764682Y-92674554D01*
X46764684Y-92674554D01*
X46795625Y-92652887D01*
X46804722Y-92647091D01*
X46837455Y-92628194D01*
X46861743Y-92599247D01*
X46869043Y-92591282D01*
X46888577Y-92571749D01*
X46944164Y-92539657D01*
X47008351Y-92539657D01*
X47063937Y-92571751D01*
X47498613Y-93006427D01*
X47515246Y-93027067D01*
X47517854Y-93031125D01*
X47517856Y-93031127D01*
X47517857Y-93031128D01*
X47555401Y-93063659D01*
X47561865Y-93069679D01*
X47571403Y-93079218D01*
X47582207Y-93087305D01*
X47589103Y-93092862D01*
X47626627Y-93125377D01*
X47631014Y-93127380D01*
X47653813Y-93140908D01*
X47657669Y-93143795D01*
X47704203Y-93161151D01*
X47712366Y-93164533D01*
X47757543Y-93185165D01*
X47762316Y-93185851D01*
X47788005Y-93192408D01*
X47792517Y-93194091D01*
X47842039Y-93197632D01*
X47850839Y-93198578D01*
X47864201Y-93200500D01*
X47877701Y-93200500D01*
X47886547Y-93200816D01*
X47936072Y-93204358D01*
X47936072Y-93204357D01*
X47936073Y-93204358D01*
X47940780Y-93203333D01*
X47967139Y-93200500D01*
X48410198Y-93200500D01*
X48465623Y-93213576D01*
X48509359Y-93250048D01*
X48532180Y-93302222D01*
X48529274Y-93359095D01*
X48492922Y-93484217D01*
X48490000Y-93521352D01*
X48490000Y-93550000D01*
X50110000Y-93550000D01*
X50110000Y-93521352D01*
X50107077Y-93484217D01*
X50060557Y-93324095D01*
X50057651Y-93267222D01*
X50080472Y-93215048D01*
X50124208Y-93178577D01*
X50179633Y-93165500D01*
X54306324Y-93165500D01*
X54353777Y-93174939D01*
X54394005Y-93201819D01*
X55466113Y-94273927D01*
X55482746Y-94294567D01*
X55485354Y-94298625D01*
X55485356Y-94298627D01*
X55485357Y-94298628D01*
X55522901Y-94331159D01*
X55529365Y-94337179D01*
X55538906Y-94346721D01*
X55549707Y-94354806D01*
X55556600Y-94360360D01*
X55594127Y-94392877D01*
X55598509Y-94394878D01*
X55621306Y-94408404D01*
X55625169Y-94411296D01*
X55625170Y-94411296D01*
X55625171Y-94411297D01*
X55671692Y-94428648D01*
X55679872Y-94432036D01*
X55687810Y-94435661D01*
X55725043Y-94452665D01*
X55729816Y-94453351D01*
X55755498Y-94459905D01*
X55760017Y-94461591D01*
X55809552Y-94465133D01*
X55818337Y-94466078D01*
X55831701Y-94468000D01*
X55845192Y-94468000D01*
X55854038Y-94468315D01*
X55903573Y-94471859D01*
X55908286Y-94470834D01*
X55934644Y-94468000D01*
X57408173Y-94468000D01*
X57455626Y-94477439D01*
X57495854Y-94504319D01*
X57503681Y-94512146D01*
X57618131Y-94570461D01*
X57713082Y-94585500D01*
X57713084Y-94585500D01*
X57758824Y-94585500D01*
X57806277Y-94594939D01*
X57846505Y-94621819D01*
X58031113Y-94806427D01*
X58047746Y-94827067D01*
X58050354Y-94831125D01*
X58050356Y-94831127D01*
X58050357Y-94831128D01*
X58087901Y-94863659D01*
X58094365Y-94869679D01*
X58103906Y-94879221D01*
X58114707Y-94887306D01*
X58121600Y-94892860D01*
X58138903Y-94907853D01*
X58159127Y-94925377D01*
X58163509Y-94927378D01*
X58186306Y-94940904D01*
X58190169Y-94943796D01*
X58190170Y-94943796D01*
X58190171Y-94943797D01*
X58236692Y-94961148D01*
X58244872Y-94964536D01*
X58260789Y-94971805D01*
X58290043Y-94985165D01*
X58294816Y-94985851D01*
X58320498Y-94992405D01*
X58325017Y-94994091D01*
X58374552Y-94997633D01*
X58383337Y-94998578D01*
X58396701Y-95000500D01*
X58410192Y-95000500D01*
X58419038Y-95000815D01*
X58468573Y-95004359D01*
X58473286Y-95003334D01*
X58499644Y-95000500D01*
X61820356Y-95000500D01*
X61846714Y-95003334D01*
X61851426Y-95004359D01*
X61851426Y-95004358D01*
X61851427Y-95004359D01*
X61900961Y-95000815D01*
X61909808Y-95000500D01*
X61923297Y-95000500D01*
X61923299Y-95000500D01*
X61936659Y-94998578D01*
X61945451Y-94997633D01*
X61994983Y-94994091D01*
X61999501Y-94992405D01*
X62025181Y-94985851D01*
X62029957Y-94985165D01*
X62075137Y-94964530D01*
X62083291Y-94961153D01*
X62129831Y-94943796D01*
X62133689Y-94940907D01*
X62156497Y-94927375D01*
X62160873Y-94925377D01*
X62198406Y-94892853D01*
X62205282Y-94887313D01*
X62216093Y-94879221D01*
X62225655Y-94869658D01*
X62232103Y-94863654D01*
X62269643Y-94831128D01*
X62272253Y-94827067D01*
X62279962Y-94817500D01*
X64290000Y-94817500D01*
X64290000Y-94846148D01*
X64292922Y-94883282D01*
X64339092Y-95042198D01*
X64423335Y-95184645D01*
X64540354Y-95301664D01*
X64682801Y-95385907D01*
X64841720Y-95432078D01*
X64850000Y-95432730D01*
X64850000Y-94817500D01*
X65350000Y-94817500D01*
X65350000Y-95432730D01*
X65358279Y-95432078D01*
X65517198Y-95385907D01*
X65659645Y-95301664D01*
X65776664Y-95184645D01*
X65860907Y-95042198D01*
X65907077Y-94883282D01*
X65909894Y-94847500D01*
X66380000Y-94847500D01*
X66380000Y-94848341D01*
X66386043Y-94914843D01*
X66433725Y-95067861D01*
X66516642Y-95205024D01*
X66629975Y-95318357D01*
X66767138Y-95401274D01*
X66920156Y-95448956D01*
X66950000Y-95451668D01*
X66950000Y-94847500D01*
X67450000Y-94847500D01*
X67450000Y-95451668D01*
X67479843Y-95448956D01*
X67632861Y-95401274D01*
X67770024Y-95318357D01*
X67883357Y-95205024D01*
X67966274Y-95067861D01*
X68013956Y-94914843D01*
X68020000Y-94848341D01*
X68020000Y-94847500D01*
X67450000Y-94847500D01*
X66950000Y-94847500D01*
X66380000Y-94847500D01*
X65909894Y-94847500D01*
X65910000Y-94846148D01*
X65910000Y-94817500D01*
X65350000Y-94817500D01*
X64850000Y-94817500D01*
X64290000Y-94817500D01*
X62279962Y-94817500D01*
X62288882Y-94806430D01*
X62758494Y-94336818D01*
X62798723Y-94309938D01*
X62846176Y-94300499D01*
X63181514Y-94300499D01*
X63181518Y-94300499D01*
X63275304Y-94285646D01*
X63388342Y-94228050D01*
X63478050Y-94138342D01*
X63535646Y-94025304D01*
X63550500Y-93931519D01*
X63550499Y-93642098D01*
X63563012Y-93587816D01*
X63598025Y-93544489D01*
X63648473Y-93520861D01*
X63704173Y-93521702D01*
X63821015Y-93550500D01*
X63978985Y-93550500D01*
X64132365Y-93512696D01*
X64272240Y-93439283D01*
X64272243Y-93439279D01*
X64274558Y-93438065D01*
X64324697Y-93424087D01*
X64376155Y-93431919D01*
X64419866Y-93460180D01*
X64503181Y-93543495D01*
X64530061Y-93583723D01*
X64539500Y-93631176D01*
X64539500Y-93676916D01*
X64542343Y-93694863D01*
X64551120Y-93750283D01*
X64546577Y-93807998D01*
X64516328Y-93857360D01*
X64423335Y-93950354D01*
X64339092Y-94092801D01*
X64292922Y-94251717D01*
X64290000Y-94288852D01*
X64290000Y-94317500D01*
X65910000Y-94317500D01*
X65910000Y-94288852D01*
X65907077Y-94251717D01*
X65860907Y-94092801D01*
X65776664Y-93950354D01*
X65683672Y-93857362D01*
X65653422Y-93807999D01*
X65648880Y-93750283D01*
X65660500Y-93676918D01*
X65660500Y-93371696D01*
X65676128Y-93311434D01*
X65719073Y-93266362D01*
X65778509Y-93247841D01*
X65839456Y-93260539D01*
X65886549Y-93301255D01*
X65909517Y-93334530D01*
X66027760Y-93439283D01*
X66167635Y-93512696D01*
X66316212Y-93549316D01*
X66374219Y-93582032D01*
X66501114Y-93708927D01*
X66517748Y-93729568D01*
X66520356Y-93733627D01*
X66555053Y-93763692D01*
X66591962Y-93819649D01*
X66594355Y-93886639D01*
X66561532Y-93945085D01*
X66516642Y-93989974D01*
X66433725Y-94127138D01*
X66386043Y-94280156D01*
X66380000Y-94346659D01*
X66380000Y-94347500D01*
X68020000Y-94347500D01*
X68020000Y-94346659D01*
X68013956Y-94280156D01*
X67966274Y-94127138D01*
X67883357Y-93989975D01*
X67773931Y-93880549D01*
X67745848Y-93837305D01*
X67737782Y-93786378D01*
X67751128Y-93736572D01*
X67752628Y-93733628D01*
X67755275Y-93728433D01*
X67770500Y-93632307D01*
X67770499Y-93172694D01*
X67755275Y-93076567D01*
X67710148Y-92988000D01*
X67696241Y-92960705D01*
X67604295Y-92868759D01*
X67488431Y-92809724D01*
X67392309Y-92794500D01*
X67392307Y-92794500D01*
X67141290Y-92794500D01*
X67092686Y-92784577D01*
X67051861Y-92756398D01*
X67025348Y-92714471D01*
X67020863Y-92702645D01*
X66980220Y-92595477D01*
X66927957Y-92519760D01*
X66890484Y-92465471D01*
X66883286Y-92459094D01*
X66850097Y-92429692D01*
X66839832Y-92415105D01*
X69178565Y-92415105D01*
X69197611Y-92669260D01*
X69254326Y-92917742D01*
X69347442Y-93154997D01*
X69474872Y-93375713D01*
X69474874Y-93375716D01*
X69474875Y-93375717D01*
X69599657Y-93532188D01*
X69633784Y-93574982D01*
X69820613Y-93748335D01*
X69820616Y-93748337D01*
X70031200Y-93891911D01*
X70260829Y-94002494D01*
X70504375Y-94077618D01*
X70756398Y-94115605D01*
X71011268Y-94115605D01*
X71263291Y-94077618D01*
X71506837Y-94002494D01*
X71736467Y-93891911D01*
X71947050Y-93748337D01*
X72133882Y-93574982D01*
X72292791Y-93375717D01*
X72420225Y-93154994D01*
X72513340Y-92917742D01*
X72570054Y-92669263D01*
X72589100Y-92415106D01*
X72570054Y-92160949D01*
X72513340Y-91912470D01*
X72420225Y-91675218D01*
X72416335Y-91668481D01*
X72292793Y-91454498D01*
X72264988Y-91419632D01*
X72133882Y-91255230D01*
X72103882Y-91227394D01*
X71947052Y-91081876D01*
X71789090Y-90974179D01*
X71736467Y-90938301D01*
X71736464Y-90938300D01*
X71736462Y-90938298D01*
X71506839Y-90827719D01*
X71506837Y-90827718D01*
X71263291Y-90752594D01*
X71011268Y-90714607D01*
X70756398Y-90714607D01*
X70504375Y-90752594D01*
X70260826Y-90827719D01*
X70031204Y-90938298D01*
X69820613Y-91081876D01*
X69633784Y-91255229D01*
X69474872Y-91454498D01*
X69347442Y-91675214D01*
X69254326Y-91912469D01*
X69197611Y-92160951D01*
X69178565Y-92415105D01*
X66839832Y-92415105D01*
X66817199Y-92382941D01*
X66808770Y-92326397D01*
X66826603Y-92272081D01*
X66866909Y-92231538D01*
X66902793Y-92219521D01*
X66902279Y-92217872D01*
X67067861Y-92166274D01*
X67205024Y-92083357D01*
X67318357Y-91970024D01*
X67401274Y-91832861D01*
X67448956Y-91679843D01*
X67451669Y-91650000D01*
X66471500Y-91650000D01*
X66409500Y-91633387D01*
X66364113Y-91588000D01*
X66347500Y-91526000D01*
X66347500Y-90580000D01*
X66847500Y-90580000D01*
X66847500Y-91150000D01*
X67451668Y-91150000D01*
X67448956Y-91120156D01*
X67401274Y-90967138D01*
X67318357Y-90829975D01*
X67205024Y-90716642D01*
X67067861Y-90633725D01*
X66914843Y-90586043D01*
X66848341Y-90580000D01*
X66847500Y-90580000D01*
X66347500Y-90580000D01*
X66346659Y-90580000D01*
X66280160Y-90586042D01*
X66127872Y-90633497D01*
X66066790Y-90636728D01*
X66011595Y-90610367D01*
X65975717Y-90560828D01*
X65967886Y-90500166D01*
X65983472Y-90371806D01*
X65964431Y-90214988D01*
X65908414Y-90067283D01*
X65821118Y-89940812D01*
X65818678Y-89937277D01*
X65766535Y-89891083D01*
X65700434Y-89832523D01*
X65662861Y-89812803D01*
X65560558Y-89759109D01*
X65407179Y-89721306D01*
X65249209Y-89721306D01*
X65249208Y-89721306D01*
X65227905Y-89726556D01*
X65164934Y-89725603D01*
X65110553Y-89693839D01*
X64900431Y-89483717D01*
X64893122Y-89475741D01*
X64868842Y-89446805D01*
X64836124Y-89427915D01*
X64827015Y-89422112D01*
X64796072Y-89400446D01*
X64795191Y-89399829D01*
X64770495Y-89389599D01*
X64732240Y-89382853D01*
X64721684Y-89380512D01*
X64685195Y-89370735D01*
X64647568Y-89374028D01*
X64636760Y-89374500D01*
X51333706Y-89374500D01*
X51285102Y-89364578D01*
X51244277Y-89336398D01*
X51217764Y-89294471D01*
X51180220Y-89195477D01*
X51090484Y-89065471D01*
X51057490Y-89036241D01*
X50972240Y-88960717D01*
X50940949Y-88944294D01*
X50832364Y-88887303D01*
X50678985Y-88849500D01*
X50521015Y-88849500D01*
X50367635Y-88887303D01*
X50227761Y-88960716D01*
X50109515Y-89065471D01*
X50015043Y-89202339D01*
X49975533Y-89238973D01*
X49924215Y-89255390D01*
X49870778Y-89248492D01*
X49825312Y-89219580D01*
X48289448Y-87683717D01*
X48282139Y-87675741D01*
X48274834Y-87667035D01*
X48257860Y-87646806D01*
X48257859Y-87646805D01*
X48225141Y-87627915D01*
X48216032Y-87622112D01*
X48185089Y-87600446D01*
X48184208Y-87599829D01*
X48159512Y-87589599D01*
X48121257Y-87582853D01*
X48110701Y-87580512D01*
X48074212Y-87570735D01*
X48036585Y-87574028D01*
X48025777Y-87574500D01*
X45919617Y-87574500D01*
X45908809Y-87574028D01*
X45871191Y-87570736D01*
X45834710Y-87580511D01*
X45824155Y-87582852D01*
X45812814Y-87584851D01*
X45786955Y-87589412D01*
X45786953Y-87589412D01*
X45785897Y-87589599D01*
X45761192Y-87599832D01*
X45729378Y-87622107D01*
X45720261Y-87627915D01*
X45687545Y-87646804D01*
X45663262Y-87675743D01*
X45655956Y-87683715D01*
X44183714Y-89155958D01*
X44175740Y-89163265D01*
X44154115Y-89181411D01*
X44099484Y-89207861D01*
X44038845Y-89205214D01*
X43986729Y-89174105D01*
X43496339Y-88683716D01*
X43489031Y-88675741D01*
X43464751Y-88646805D01*
X43432033Y-88627915D01*
X43422924Y-88622112D01*
X43391981Y-88600446D01*
X43391100Y-88599829D01*
X43366404Y-88589599D01*
X43328149Y-88582853D01*
X43317593Y-88580512D01*
X43281104Y-88570735D01*
X43243477Y-88574028D01*
X43232669Y-88574500D01*
X40884619Y-88574500D01*
X40837166Y-88565061D01*
X40796938Y-88538181D01*
X40333784Y-88075027D01*
X40304248Y-88027795D01*
X40298369Y-87972402D01*
X40310374Y-87873535D01*
X40291333Y-87716717D01*
X40235316Y-87569012D01*
X40187331Y-87499493D01*
X40145580Y-87439006D01*
X40145579Y-87439005D01*
X40027336Y-87334252D01*
X39952046Y-87294736D01*
X39887460Y-87260838D01*
X39734081Y-87223035D01*
X39576111Y-87223035D01*
X39459769Y-87251710D01*
X39404070Y-87252551D01*
X39353623Y-87228924D01*
X39318609Y-87185596D01*
X39306096Y-87131313D01*
X39306096Y-87031939D01*
X39315535Y-86984487D01*
X39342414Y-86944258D01*
X39425178Y-86861493D01*
X39466296Y-86820374D01*
X39474249Y-86813087D01*
X39503194Y-86788801D01*
X39522091Y-86756068D01*
X39527887Y-86746971D01*
X39549554Y-86716030D01*
X39549554Y-86716028D01*
X39550173Y-86715145D01*
X39560399Y-86690458D01*
X39560586Y-86689393D01*
X39560588Y-86689391D01*
X39567149Y-86652176D01*
X39569478Y-86641670D01*
X39579264Y-86605153D01*
X39575971Y-86567522D01*
X39575500Y-86556716D01*
X39575500Y-85643281D01*
X39575972Y-85632473D01*
X39576268Y-85629090D01*
X39579264Y-85594847D01*
X39576639Y-85585052D01*
X39569487Y-85558360D01*
X39567145Y-85547797D01*
X39565721Y-85539723D01*
X39560588Y-85510609D01*
X39560587Y-85510607D01*
X39560400Y-85509546D01*
X39549093Y-85482250D01*
X39545463Y-85468704D01*
X39545702Y-85403631D01*
X39578861Y-85347639D01*
X39635808Y-85316150D01*
X39700860Y-85317834D01*
X39756101Y-85352228D01*
X42048333Y-87820640D01*
X42053559Y-87826268D01*
X42053609Y-87826322D01*
X42136476Y-87915670D01*
X42136480Y-87915673D01*
X42297511Y-88039062D01*
X42476961Y-88133684D01*
X42669744Y-88196856D01*
X42842512Y-88222628D01*
X42870392Y-88226787D01*
X42870392Y-88226786D01*
X42870393Y-88226787D01*
X43073220Y-88222629D01*
X43272473Y-88184500D01*
X43462505Y-88113480D01*
X43637927Y-88011583D01*
X43793766Y-87881698D01*
X43925604Y-87727508D01*
X43976432Y-87642366D01*
X46885153Y-82777144D01*
X46892365Y-82766399D01*
X46980861Y-82648408D01*
X46998461Y-82629444D01*
X47104615Y-82536704D01*
X47125774Y-82521806D01*
X47248866Y-82453140D01*
X47272661Y-82442960D01*
X47407340Y-82401355D01*
X47432728Y-82396341D01*
X47573100Y-82383618D01*
X47598988Y-82383985D01*
X47738937Y-82400693D01*
X47764182Y-82406430D01*
X47897610Y-82451841D01*
X47921116Y-82462697D01*
X48047956Y-82538259D01*
X48058727Y-82545465D01*
X49715721Y-83784127D01*
X49719591Y-83787020D01*
X49760667Y-83840756D01*
X49767431Y-83908054D01*
X49515373Y-85324989D01*
X49515371Y-85324995D01*
X49515372Y-85324996D01*
X49506803Y-85373172D01*
X49500485Y-85408688D01*
X49500476Y-85408822D01*
X49490620Y-85464354D01*
X49486539Y-85649536D01*
X49510906Y-85833142D01*
X49563147Y-86010847D01*
X49642022Y-86178430D01*
X49642023Y-86178432D01*
X49642024Y-86178433D01*
X49745671Y-86331939D01*
X49745673Y-86331941D01*
X49745675Y-86331944D01*
X49871629Y-86467729D01*
X49871633Y-86467732D01*
X49871634Y-86467733D01*
X49996850Y-86566722D01*
X50016938Y-86582602D01*
X50065130Y-86609897D01*
X50065231Y-86609971D01*
X50077862Y-86617118D01*
X50077863Y-86617119D01*
X50096502Y-86627666D01*
X50097517Y-86628241D01*
X50132227Y-86647884D01*
X50146183Y-86655782D01*
X50146201Y-86655788D01*
X51372137Y-87349500D01*
X51440005Y-87387904D01*
X51440233Y-87388099D01*
X51484683Y-87413215D01*
X51484683Y-87413216D01*
X51565577Y-87458925D01*
X51739467Y-87524465D01*
X51921370Y-87562466D01*
X52106955Y-87572023D01*
X52291800Y-87552909D01*
X52471501Y-87505578D01*
X52607873Y-87445977D01*
X52641776Y-87431160D01*
X52641777Y-87431159D01*
X52641780Y-87431158D01*
X52798578Y-87331422D01*
X52840370Y-87294736D01*
X52840524Y-87294631D01*
X52851431Y-87285045D01*
X52851434Y-87285044D01*
X54235291Y-86068884D01*
X54279184Y-86043983D01*
X54329369Y-86038634D01*
X54377528Y-86053726D01*
X54569306Y-86160650D01*
X55362859Y-86563327D01*
X55369550Y-86566722D01*
X56185037Y-86941251D01*
X57014521Y-87283664D01*
X57856739Y-87593439D01*
X58710405Y-87870105D01*
X59574221Y-88113239D01*
X60042430Y-88225500D01*
X60446859Y-88322469D01*
X60446862Y-88322469D01*
X60446868Y-88322471D01*
X61327017Y-88497483D01*
X62213326Y-88638007D01*
X63104445Y-88743829D01*
X63999015Y-88814788D01*
X64895673Y-88850776D01*
X65785340Y-88851729D01*
X65793045Y-88851738D01*
X65793045Y-88851737D01*
X65793053Y-88851738D01*
X66689786Y-88817673D01*
X66689791Y-88817672D01*
X66689807Y-88817672D01*
X67481960Y-88756544D01*
X67584506Y-88748632D01*
X68475850Y-88644720D01*
X69362458Y-88506097D01*
X70242980Y-88332973D01*
X70528705Y-88265113D01*
X71116067Y-88125614D01*
X71358797Y-88057855D01*
X71980409Y-87884330D01*
X71980413Y-87884328D01*
X71980419Y-87884327D01*
X72834664Y-87609497D01*
X72859436Y-87600446D01*
X73061300Y-87526690D01*
X73130720Y-87522106D01*
X73191683Y-87555628D01*
X75730540Y-90103206D01*
X75757334Y-90143441D01*
X75766708Y-90190866D01*
X75756426Y-100009631D01*
X75739748Y-100071613D01*
X75694314Y-100116953D01*
X75632296Y-100133501D01*
X45945061Y-100102417D01*
X45934633Y-100101967D01*
X45902659Y-100099234D01*
X45881177Y-100107407D01*
X45864559Y-100112429D01*
X45842143Y-100117521D01*
X45817024Y-100137509D01*
X45808592Y-100143657D01*
X42468642Y-102369942D01*
X42404936Y-102390659D01*
X42339751Y-102375216D01*
X42330236Y-102369942D01*
X39685968Y-100904200D01*
X38936383Y-100488698D01*
X38890034Y-100443815D01*
X38872508Y-100381723D01*
X38869635Y-100140757D01*
X38858916Y-99241689D01*
X40240739Y-99241689D01*
X40259785Y-99495843D01*
X40316500Y-99744325D01*
X40409616Y-99981580D01*
X40537046Y-100202296D01*
X40537048Y-100202299D01*
X40537049Y-100202300D01*
X40695651Y-100401180D01*
X40695958Y-100401565D01*
X40882787Y-100574918D01*
X40882790Y-100574920D01*
X41093374Y-100718494D01*
X41323003Y-100829077D01*
X41566549Y-100904201D01*
X41818572Y-100942188D01*
X42073442Y-100942188D01*
X42325465Y-100904201D01*
X42569011Y-100829077D01*
X42798641Y-100718494D01*
X43009224Y-100574920D01*
X43196056Y-100401565D01*
X43354965Y-100202300D01*
X43482399Y-99981577D01*
X43575514Y-99744325D01*
X43632228Y-99495846D01*
X43651274Y-99241689D01*
X43632228Y-98987532D01*
X43575514Y-98739053D01*
X43482399Y-98501801D01*
X43354965Y-98281078D01*
X43196056Y-98081813D01*
X43148019Y-98037241D01*
X43009226Y-97908459D01*
X42910115Y-97840886D01*
X42798641Y-97764884D01*
X42798638Y-97764883D01*
X42798636Y-97764881D01*
X42569013Y-97654302D01*
X42569011Y-97654301D01*
X42325465Y-97579177D01*
X42073442Y-97541190D01*
X41818572Y-97541190D01*
X41566549Y-97579177D01*
X41323000Y-97654302D01*
X41093378Y-97764881D01*
X40882787Y-97908459D01*
X40695958Y-98081812D01*
X40537046Y-98281081D01*
X40409616Y-98501797D01*
X40316500Y-98739052D01*
X40259785Y-98987534D01*
X40240739Y-99241689D01*
X38858916Y-99241689D01*
X38831949Y-96979699D01*
X38832144Y-96971120D01*
X38834122Y-96936667D01*
X38826281Y-96917672D01*
X38820352Y-96899403D01*
X38815286Y-96878363D01*
X38800021Y-96852797D01*
X38783904Y-96838358D01*
X38770629Y-96824467D01*
X38757627Y-96808556D01*
X38726351Y-96793951D01*
X38718703Y-96790052D01*
X31151836Y-92595667D01*
X31114224Y-92563538D01*
X31092165Y-92519263D01*
X31064042Y-92414149D01*
X30883485Y-91739295D01*
X30882273Y-91680136D01*
X30908616Y-91627149D01*
X30956515Y-91592403D01*
X31015062Y-91583811D01*
X31063092Y-91588397D01*
X31122266Y-91579169D01*
X31245932Y-91546032D01*
X31020166Y-90703456D01*
X30664988Y-89377914D01*
X30541323Y-89411051D01*
X30485460Y-89432647D01*
X30446946Y-89460073D01*
X30391924Y-89481907D01*
X30333049Y-89475746D01*
X30283740Y-89442993D01*
X30255234Y-89391116D01*
X29833259Y-87813927D01*
X29832047Y-87754769D01*
X29858389Y-87701781D01*
X29906287Y-87667035D01*
X29964834Y-87658442D01*
X30011254Y-87662874D01*
X30070426Y-87653646D01*
X30194092Y-87620509D01*
X29968326Y-86777933D01*
X29613148Y-85452391D01*
X29489483Y-85485528D01*
X29433622Y-85507123D01*
X29396428Y-85533610D01*
X29341405Y-85555444D01*
X29282531Y-85549283D01*
X29233221Y-85516531D01*
X29204715Y-85464653D01*
X28182803Y-81645115D01*
X28181592Y-81585959D01*
X28207934Y-81532971D01*
X28255834Y-81498225D01*
X28314381Y-81489634D01*
X28314441Y-81489639D01*
X28373614Y-81480411D01*
X28497280Y-81447274D01*
X28271514Y-80604698D01*
X27916336Y-79279156D01*
X27792671Y-79312293D01*
X27722281Y-79339506D01*
X27722251Y-79339430D01*
X27682535Y-79355190D01*
X27623661Y-79349028D01*
X27574353Y-79316275D01*
X27545846Y-79264396D01*
X27132577Y-77719747D01*
X27131366Y-77660589D01*
X27157709Y-77607602D01*
X27205609Y-77572856D01*
X27247246Y-77566746D01*
X27247211Y-77566517D01*
X27321774Y-77554888D01*
X27445440Y-77521751D01*
X27219674Y-76679175D01*
X26864496Y-75353633D01*
X26740831Y-75386770D01*
X26670441Y-75413983D01*
X26670272Y-75413546D01*
X26632014Y-75428727D01*
X26573141Y-75422565D01*
X26523833Y-75389812D01*
X26495328Y-75337937D01*
X25945272Y-73282024D01*
X29604726Y-73282024D01*
X29624492Y-73533173D01*
X29683301Y-73778134D01*
X29731505Y-73894509D01*
X29779709Y-74010883D01*
X29911339Y-74225683D01*
X30074951Y-74417248D01*
X30266516Y-74580860D01*
X30481316Y-74712490D01*
X30714064Y-74808897D01*
X30959027Y-74867707D01*
X31210175Y-74887473D01*
X31461323Y-74867707D01*
X31706286Y-74808897D01*
X31939034Y-74712490D01*
X32153834Y-74580860D01*
X32345399Y-74417248D01*
X32509011Y-74225683D01*
X32640641Y-74010883D01*
X32737048Y-73778135D01*
X32795858Y-73533172D01*
X32815624Y-73282024D01*
X32795858Y-73030876D01*
X32737048Y-72785913D01*
X32640641Y-72553165D01*
X32509011Y-72338365D01*
X32345399Y-72146800D01*
X32153834Y-71983188D01*
X31939034Y-71851558D01*
X31822659Y-71803354D01*
X31706285Y-71755150D01*
X31461324Y-71696341D01*
X31210175Y-71676575D01*
X30959025Y-71696341D01*
X30714064Y-71755150D01*
X30515399Y-71837440D01*
X30488878Y-71848426D01*
X30481314Y-71851559D01*
X30266517Y-71983187D01*
X30074951Y-72146800D01*
X29911338Y-72338366D01*
X29779710Y-72553163D01*
X29683301Y-72785913D01*
X29624492Y-73030874D01*
X29604726Y-73282024D01*
X25945272Y-73282024D01*
X25685835Y-72312341D01*
X25685895Y-72248025D01*
X25718168Y-72192388D01*
X25773971Y-72160404D01*
X25838289Y-72160675D01*
X28720421Y-72947775D01*
X28721538Y-72948087D01*
X28763908Y-72960177D01*
X28774807Y-72958295D01*
X28801130Y-72956600D01*
X28812176Y-72957067D01*
X28818916Y-72954164D01*
X28846871Y-72945860D01*
X28854100Y-72944613D01*
X28863108Y-72938186D01*
X28886075Y-72925245D01*
X28896239Y-72920869D01*
X28901046Y-72915335D01*
X28922636Y-72895720D01*
X28928609Y-72891460D01*
X28933934Y-72881764D01*
X28949020Y-72860129D01*
X28956271Y-72851785D01*
X28956270Y-72851785D01*
X28956273Y-72851783D01*
X28967904Y-72809186D01*
X28968174Y-72808222D01*
X29804872Y-69875714D01*
X29816457Y-69851501D01*
X29817393Y-69845905D01*
X29817394Y-69845904D01*
X29821936Y-69818744D01*
X29824994Y-69805187D01*
X29826196Y-69800979D01*
X29826430Y-69796605D01*
X29827950Y-69782795D01*
X29832495Y-69755633D01*
X29832494Y-69755631D01*
X29833430Y-69750039D01*
X29832038Y-69737957D01*
X29829854Y-69732722D01*
X29819248Y-69707302D01*
X29814623Y-69694192D01*
X29813403Y-69690000D01*
X29813403Y-69689999D01*
X29811281Y-69686184D01*
X29805215Y-69673671D01*
X29794611Y-69648254D01*
X29794609Y-69648253D01*
X29792427Y-69643021D01*
X29775632Y-69622069D01*
X27781413Y-66035574D01*
X31661888Y-66035574D01*
X31673307Y-66178897D01*
X31724644Y-66313199D01*
X31811736Y-66427596D01*
X31927533Y-66512825D01*
X31983043Y-66535291D01*
X32269483Y-66616880D01*
X32557122Y-65607047D01*
X32557123Y-65607047D01*
X31835814Y-65401590D01*
X31672042Y-65976556D01*
X31661888Y-66035574D01*
X27781413Y-66035574D01*
X27425161Y-65394874D01*
X27410350Y-65348815D01*
X27414293Y-65300593D01*
X27415426Y-65296624D01*
X27522679Y-64920717D01*
X31972784Y-64920717D01*
X32694094Y-65126173D01*
X32981734Y-64116341D01*
X32695293Y-64034752D01*
X32636275Y-64024598D01*
X32492952Y-64036016D01*
X32358651Y-64087354D01*
X32244253Y-64174446D01*
X32159025Y-64290244D01*
X32136553Y-64345765D01*
X31972784Y-64920717D01*
X27522679Y-64920717D01*
X28493070Y-61519627D01*
X32915813Y-61519627D01*
X32936010Y-61698878D01*
X32936010Y-61698880D01*
X32936011Y-61698882D01*
X32995590Y-61869149D01*
X33052357Y-61959494D01*
X33091564Y-62021891D01*
X33219114Y-62149441D01*
X33219116Y-62149442D01*
X33219117Y-62149443D01*
X33371857Y-62245416D01*
X33542124Y-62304995D01*
X33609274Y-62312561D01*
X33676422Y-62320127D01*
X33676425Y-62320127D01*
X33766333Y-62320127D01*
X33766336Y-62320127D01*
X33823890Y-62313641D01*
X33900634Y-62304995D01*
X34070901Y-62245416D01*
X34223641Y-62149443D01*
X34351195Y-62021889D01*
X34447168Y-61869149D01*
X34506747Y-61698882D01*
X34526944Y-61519627D01*
X34506747Y-61340372D01*
X34447168Y-61170105D01*
X34351195Y-61017365D01*
X34351194Y-61017364D01*
X34351193Y-61017362D01*
X34223643Y-60889812D01*
X34161246Y-60850606D01*
X34070901Y-60793838D01*
X33900634Y-60734259D01*
X33900632Y-60734258D01*
X33900630Y-60734258D01*
X33766336Y-60719127D01*
X33766333Y-60719127D01*
X33676425Y-60719127D01*
X33676422Y-60719127D01*
X33542127Y-60734258D01*
X33542124Y-60734258D01*
X33542124Y-60734259D01*
X33371857Y-60793838D01*
X33371855Y-60793838D01*
X33371855Y-60793839D01*
X33219114Y-60889812D01*
X33091564Y-61017362D01*
X32995591Y-61170103D01*
X32936010Y-61340375D01*
X32915813Y-61519627D01*
X28493070Y-61519627D01*
X29399815Y-58341605D01*
X33853427Y-58341605D01*
X33864846Y-58484928D01*
X33916183Y-58619230D01*
X34003275Y-58733627D01*
X34119072Y-58818856D01*
X34174582Y-58841322D01*
X34461022Y-58922911D01*
X34748661Y-57913078D01*
X34748662Y-57913078D01*
X34027353Y-57707621D01*
X33863581Y-58282587D01*
X33853427Y-58341605D01*
X29399815Y-58341605D01*
X29717903Y-57226748D01*
X34164323Y-57226748D01*
X34885633Y-57432204D01*
X35173273Y-56422372D01*
X34886832Y-56340783D01*
X34827814Y-56330629D01*
X34684491Y-56342047D01*
X34550190Y-56393385D01*
X34435792Y-56480477D01*
X34350564Y-56596275D01*
X34328092Y-56651796D01*
X34164323Y-57226748D01*
X29717903Y-57226748D01*
X30358590Y-54981228D01*
X30380686Y-54938187D01*
X30417570Y-54906879D01*
X31116743Y-54518114D01*
X35875890Y-54518114D01*
X35894936Y-54772268D01*
X35942630Y-54981229D01*
X35951651Y-55020751D01*
X36044766Y-55258002D01*
X36172201Y-55478726D01*
X36331109Y-55677991D01*
X36331111Y-55677993D01*
X36331112Y-55677994D01*
X36517936Y-55851342D01*
X36517938Y-55851343D01*
X36517942Y-55851347D01*
X36728526Y-55994920D01*
X36958155Y-56105504D01*
X37201702Y-56180628D01*
X37453725Y-56218615D01*
X37708595Y-56218615D01*
X37960618Y-56180628D01*
X38204165Y-56105504D01*
X38433795Y-55994920D01*
X38644378Y-55851347D01*
X38831211Y-55677991D01*
X38990119Y-55478726D01*
X39117554Y-55258002D01*
X39210669Y-55020751D01*
X39267383Y-54772271D01*
X39286429Y-54518114D01*
X39267383Y-54263957D01*
X39210669Y-54015477D01*
X39117554Y-53778226D01*
X38990119Y-53557502D01*
X38831211Y-53358237D01*
X38815985Y-53344109D01*
X38644380Y-53184882D01*
X38541409Y-53114678D01*
X38433795Y-53041308D01*
X38204165Y-52930724D01*
X37960618Y-52855600D01*
X37708595Y-52817613D01*
X37453725Y-52817613D01*
X37201702Y-52855600D01*
X36958155Y-52930724D01*
X36728526Y-53041308D01*
X36559986Y-53156215D01*
X36517936Y-53184885D01*
X36331112Y-53358233D01*
X36172200Y-53557503D01*
X36044766Y-53778225D01*
X35951651Y-54015476D01*
X35894936Y-54263959D01*
X35875890Y-54518114D01*
X31116743Y-54518114D01*
X34644766Y-52556408D01*
X34670087Y-52547476D01*
X34697117Y-52528192D01*
X34708873Y-52520763D01*
X34712694Y-52518639D01*
X34715941Y-52515721D01*
X34726785Y-52507026D01*
X34749213Y-52491028D01*
X34749214Y-52491025D01*
X34753840Y-52487726D01*
X34761386Y-52478213D01*
X34774016Y-52447497D01*
X34780025Y-52434938D01*
X34782123Y-52431119D01*
X34782124Y-52431118D01*
X34783327Y-52426899D01*
X34787879Y-52413781D01*
X34798353Y-52388312D01*
X34798352Y-52388309D01*
X34800511Y-52383061D01*
X34803448Y-52356376D01*
X35136912Y-51187632D01*
X35136918Y-51187618D01*
X35150492Y-51140039D01*
X35154477Y-51128318D01*
X35206470Y-50997331D01*
X35217848Y-50975359D01*
X35291404Y-50862535D01*
X35306909Y-50843271D01*
X35401417Y-50747286D01*
X35420432Y-50731491D01*
X35532107Y-50656190D01*
X35553891Y-50644478D01*
X35678293Y-50592852D01*
X35701969Y-50585698D01*
X35834156Y-50559801D01*
X35858773Y-50557493D01*
X35993450Y-50558360D01*
G37*
%TD.AperFunction*%
%TA.AperFunction,Conductor*%
G36*
X41514411Y-93237118D02*
G01*
X41519955Y-93239703D01*
X41530240Y-93244499D01*
X41575821Y-93250500D01*
X42008419Y-93250499D01*
X42057229Y-93260511D01*
X42098160Y-93288929D01*
X42124598Y-93331165D01*
X42156645Y-93417086D01*
X42242811Y-93532188D01*
X42357910Y-93618352D01*
X42443834Y-93650400D01*
X42486070Y-93676839D01*
X42514488Y-93717769D01*
X42524500Y-93766582D01*
X42524500Y-94063811D01*
X42515061Y-94111264D01*
X42488183Y-94151489D01*
X42411623Y-94228050D01*
X42379458Y-94260215D01*
X42335748Y-94288475D01*
X42284290Y-94296307D01*
X42234151Y-94282330D01*
X42174138Y-94250833D01*
X42144480Y-94235267D01*
X42144477Y-94235266D01*
X41991100Y-94197463D01*
X41833130Y-94197463D01*
X41679750Y-94235266D01*
X41539876Y-94308679D01*
X41421630Y-94413434D01*
X41331895Y-94543439D01*
X41275878Y-94691144D01*
X41256836Y-94847963D01*
X41267228Y-94933545D01*
X41259534Y-94993860D01*
X41224092Y-95043266D01*
X41169424Y-95069884D01*
X41108675Y-95067313D01*
X41056451Y-95036172D01*
X40186819Y-94166540D01*
X40159939Y-94126312D01*
X40150500Y-94078859D01*
X40150500Y-93603856D01*
X40166494Y-93542940D01*
X40210350Y-93497739D01*
X40270755Y-93479913D01*
X40332126Y-93494060D01*
X40367633Y-93512696D01*
X40521015Y-93550500D01*
X40678985Y-93550500D01*
X40832365Y-93512696D01*
X40972240Y-93439283D01*
X41090483Y-93334530D01*
X41128771Y-93279059D01*
X41173195Y-93239703D01*
X41230821Y-93225500D01*
X41462006Y-93225500D01*
X41514411Y-93237118D01*
G37*
%TD.AperFunction*%
%TA.AperFunction,Conductor*%
G36*
X47516291Y-88584939D02*
G01*
X47556519Y-88611819D01*
X49760976Y-90816276D01*
X49768284Y-90824250D01*
X49792571Y-90853194D01*
X49816620Y-90867079D01*
X49825282Y-90872080D01*
X49834405Y-90877892D01*
X49865342Y-90899554D01*
X49865343Y-90899554D01*
X49866224Y-90900171D01*
X49890917Y-90910400D01*
X49891980Y-90910587D01*
X49891981Y-90910588D01*
X49929169Y-90917145D01*
X49939727Y-90919485D01*
X49976219Y-90929264D01*
X50013849Y-90925971D01*
X50024656Y-90925500D01*
X60926812Y-90925500D01*
X60974265Y-90934939D01*
X61014493Y-90961819D01*
X61194399Y-91141725D01*
X61227732Y-91202356D01*
X61223387Y-91271409D01*
X61182719Y-91327385D01*
X61118388Y-91352856D01*
X61050423Y-91339891D01*
X61000302Y-91314353D01*
X60906521Y-91299500D01*
X59818485Y-91299500D01*
X59771588Y-91306927D01*
X59724696Y-91314354D01*
X59724694Y-91314354D01*
X59724693Y-91314355D01*
X59611657Y-91371949D01*
X59521950Y-91461656D01*
X59464353Y-91574697D01*
X59449500Y-91668478D01*
X59449500Y-92031515D01*
X59449501Y-92031519D01*
X59453254Y-92055217D01*
X59453255Y-92055220D01*
X59448712Y-92112935D01*
X59418463Y-92162297D01*
X59332316Y-92248444D01*
X59248719Y-92389799D01*
X59202900Y-92547511D01*
X59202704Y-92549999D01*
X59202705Y-92550000D01*
X60488500Y-92550000D01*
X60550500Y-92566613D01*
X60595887Y-92612000D01*
X60612500Y-92674000D01*
X60612500Y-92926000D01*
X60595887Y-92988000D01*
X60550500Y-93033387D01*
X60488500Y-93050000D01*
X59202704Y-93050000D01*
X59202900Y-93052488D01*
X59248719Y-93210200D01*
X59332317Y-93351557D01*
X59418461Y-93437701D01*
X59448711Y-93487063D01*
X59453254Y-93544777D01*
X59449500Y-93568481D01*
X59449500Y-93748337D01*
X59449501Y-93875500D01*
X59432888Y-93937500D01*
X59387501Y-93982887D01*
X59325501Y-93999500D01*
X58691176Y-93999500D01*
X58643723Y-93990061D01*
X58603495Y-93963181D01*
X58496819Y-93856505D01*
X58469939Y-93816277D01*
X58460500Y-93768824D01*
X58460500Y-93723082D01*
X58448880Y-93649716D01*
X58453422Y-93592000D01*
X58483672Y-93542636D01*
X58576666Y-93449642D01*
X58660907Y-93307198D01*
X58707077Y-93148282D01*
X58710000Y-93111148D01*
X58710000Y-93082500D01*
X57090000Y-93082500D01*
X57090000Y-93111148D01*
X57092922Y-93148282D01*
X57139443Y-93308405D01*
X57142349Y-93365278D01*
X57119528Y-93417452D01*
X57075792Y-93453923D01*
X57020367Y-93467000D01*
X56126176Y-93467000D01*
X56078723Y-93457561D01*
X56038495Y-93430681D01*
X55190314Y-92582500D01*
X57090000Y-92582500D01*
X57650000Y-92582500D01*
X57650000Y-91967269D01*
X58149999Y-91967269D01*
X58150000Y-91967270D01*
X58150000Y-92582500D01*
X58710000Y-92582500D01*
X58710000Y-92553852D01*
X58707077Y-92516717D01*
X58660907Y-92357801D01*
X58576664Y-92215354D01*
X58459645Y-92098335D01*
X58317198Y-92014092D01*
X58158279Y-91967921D01*
X58149999Y-91967269D01*
X57650000Y-91967269D01*
X57641720Y-91967921D01*
X57482801Y-92014092D01*
X57340354Y-92098335D01*
X57223335Y-92215354D01*
X57139092Y-92357801D01*
X57092922Y-92516717D01*
X57090000Y-92553852D01*
X57090000Y-92582500D01*
X55190314Y-92582500D01*
X54966385Y-92358571D01*
X54949749Y-92337927D01*
X54947142Y-92333870D01*
X54909615Y-92301354D01*
X54903135Y-92295321D01*
X54893593Y-92285779D01*
X54882786Y-92277689D01*
X54875907Y-92272147D01*
X54838373Y-92239623D01*
X54838372Y-92239622D01*
X54833987Y-92237620D01*
X54811194Y-92224095D01*
X54807331Y-92221204D01*
X54807329Y-92221203D01*
X54760790Y-92203845D01*
X54752622Y-92200461D01*
X54728511Y-92189450D01*
X54707458Y-92179835D01*
X54706603Y-92179712D01*
X54702676Y-92179147D01*
X54677001Y-92172594D01*
X54672483Y-92170909D01*
X54622947Y-92167365D01*
X54614153Y-92166419D01*
X54600803Y-92164500D01*
X54600799Y-92164500D01*
X54587308Y-92164500D01*
X54578461Y-92164184D01*
X54528926Y-92160640D01*
X54524214Y-92161666D01*
X54497856Y-92164500D01*
X49791827Y-92164500D01*
X49744374Y-92155061D01*
X49704146Y-92128181D01*
X49696318Y-92120353D01*
X49581868Y-92062038D01*
X49486918Y-92047000D01*
X49486916Y-92047000D01*
X49113084Y-92047000D01*
X49113082Y-92047000D01*
X49018131Y-92062038D01*
X48903681Y-92120353D01*
X48860856Y-92163180D01*
X48820627Y-92190061D01*
X48773174Y-92199500D01*
X48158676Y-92199500D01*
X48111223Y-92190061D01*
X48070995Y-92163181D01*
X47736819Y-91829005D01*
X47709939Y-91788777D01*
X47700500Y-91741324D01*
X47700500Y-90884158D01*
X47706115Y-90847268D01*
X47722450Y-90813718D01*
X47764640Y-90752594D01*
X47780220Y-90730023D01*
X47836237Y-90582318D01*
X47855278Y-90425500D01*
X47836237Y-90268682D01*
X47780220Y-90120977D01*
X47722735Y-90037695D01*
X47690484Y-89990971D01*
X47664278Y-89967755D01*
X47572240Y-89886217D01*
X47491788Y-89843992D01*
X47432364Y-89812803D01*
X47278985Y-89775000D01*
X47121015Y-89775000D01*
X46967635Y-89812803D01*
X46827761Y-89886216D01*
X46709515Y-89990971D01*
X46619780Y-90120976D01*
X46563763Y-90268681D01*
X46542907Y-90440447D01*
X46542279Y-90440370D01*
X46535167Y-90489005D01*
X46494318Y-90539810D01*
X46433345Y-90562874D01*
X46369098Y-90551823D01*
X46269760Y-90505500D01*
X46224180Y-90499500D01*
X45791582Y-90499500D01*
X45742769Y-90489488D01*
X45701839Y-90461070D01*
X45675400Y-90418834D01*
X45643352Y-90332910D01*
X45557188Y-90217811D01*
X45442088Y-90131647D01*
X45431017Y-90127518D01*
X45380638Y-90092539D01*
X45353184Y-90037695D01*
X45355373Y-89976401D01*
X45386667Y-89923657D01*
X46698506Y-88611819D01*
X46738735Y-88584939D01*
X46786188Y-88575500D01*
X47468838Y-88575500D01*
X47516291Y-88584939D01*
G37*
%TD.AperFunction*%
%TA.AperFunction,Conductor*%
G36*
X63214898Y-90535422D02*
G01*
X63255723Y-90563602D01*
X63282236Y-90605529D01*
X63319779Y-90704522D01*
X63409515Y-90834528D01*
X63409516Y-90834529D01*
X63409517Y-90834530D01*
X63527760Y-90939283D01*
X63667635Y-91012696D01*
X63821015Y-91050500D01*
X63978985Y-91050500D01*
X64132366Y-91012696D01*
X64219167Y-90967138D01*
X64272240Y-90939283D01*
X64295806Y-90918404D01*
X64350785Y-90890251D01*
X64412530Y-90892115D01*
X64465713Y-90923539D01*
X64758181Y-91216007D01*
X64785061Y-91256235D01*
X64794500Y-91303688D01*
X64794500Y-91592309D01*
X64809724Y-91688432D01*
X64868758Y-91804294D01*
X64960704Y-91896240D01*
X64960706Y-91896241D01*
X65076567Y-91955275D01*
X65172693Y-91970500D01*
X65632306Y-91970499D01*
X65728433Y-91955275D01*
X65736576Y-91951125D01*
X65786374Y-91937781D01*
X65837303Y-91945846D01*
X65880548Y-91973930D01*
X65989975Y-92083357D01*
X66064974Y-92128695D01*
X66109738Y-92175533D01*
X66124768Y-92238555D01*
X66105962Y-92300555D01*
X66058454Y-92344607D01*
X66027761Y-92360716D01*
X65909515Y-92465471D01*
X65819780Y-92595476D01*
X65763763Y-92743181D01*
X65749838Y-92857862D01*
X65723186Y-92920854D01*
X65667191Y-92960132D01*
X65598888Y-92963746D01*
X65539061Y-92930596D01*
X65496318Y-92887853D01*
X65381868Y-92829538D01*
X65286918Y-92814500D01*
X65286916Y-92814500D01*
X65241176Y-92814500D01*
X65193723Y-92805061D01*
X65153495Y-92778181D01*
X64968885Y-92593571D01*
X64952249Y-92572927D01*
X64949642Y-92568870D01*
X64912115Y-92536354D01*
X64905635Y-92530321D01*
X64896093Y-92520779D01*
X64885286Y-92512689D01*
X64878407Y-92507147D01*
X64840873Y-92474623D01*
X64840872Y-92474622D01*
X64836487Y-92472620D01*
X64813694Y-92459095D01*
X64809831Y-92456204D01*
X64809829Y-92456203D01*
X64763290Y-92438845D01*
X64755122Y-92435461D01*
X64732504Y-92425132D01*
X64709958Y-92414835D01*
X64709103Y-92414712D01*
X64705176Y-92414147D01*
X64679501Y-92407594D01*
X64674983Y-92405909D01*
X64625447Y-92402365D01*
X64616653Y-92401419D01*
X64603303Y-92399500D01*
X64603299Y-92399500D01*
X64589808Y-92399500D01*
X64580961Y-92399184D01*
X64531426Y-92395640D01*
X64526714Y-92396666D01*
X64500356Y-92399500D01*
X64363044Y-92399500D01*
X64319073Y-92391442D01*
X64280817Y-92368315D01*
X64272240Y-92360717D01*
X64132366Y-92287303D01*
X63978985Y-92249500D01*
X63821015Y-92249500D01*
X63821014Y-92249500D01*
X63684952Y-92283035D01*
X63624512Y-92282761D01*
X63571382Y-92253947D01*
X63538183Y-92203440D01*
X63532805Y-92143240D01*
X63539917Y-92098335D01*
X63550500Y-92031519D01*
X63550499Y-91668482D01*
X63535646Y-91574696D01*
X63484430Y-91474179D01*
X63478050Y-91461657D01*
X63388343Y-91371950D01*
X63275302Y-91314353D01*
X63181521Y-91299500D01*
X63181519Y-91299500D01*
X62324189Y-91299500D01*
X62276736Y-91290061D01*
X62236508Y-91263181D01*
X61984154Y-91010827D01*
X61710506Y-90737180D01*
X61680257Y-90687818D01*
X61675715Y-90630102D01*
X61697870Y-90576615D01*
X61741893Y-90539015D01*
X61798188Y-90525500D01*
X63166294Y-90525500D01*
X63214898Y-90535422D01*
G37*
%TD.AperFunction*%
%TA.AperFunction,Conductor*%
G36*
X45203442Y-91634439D02*
G01*
X45243671Y-91661320D01*
X45280200Y-91697850D01*
X45380239Y-91744499D01*
X45387149Y-91745408D01*
X45425821Y-91750500D01*
X45826001Y-91750499D01*
X45888000Y-91767112D01*
X45933387Y-91812499D01*
X45950000Y-91874499D01*
X45950000Y-91875500D01*
X45933387Y-91937500D01*
X45888000Y-91982887D01*
X45826000Y-91999500D01*
X45425824Y-91999500D01*
X45380238Y-92005501D01*
X45280200Y-92052149D01*
X45243671Y-92088680D01*
X45203442Y-92115561D01*
X45155989Y-92125000D01*
X43774000Y-92125000D01*
X43712000Y-92108387D01*
X43666613Y-92063000D01*
X43650000Y-92001000D01*
X43650000Y-91749000D01*
X43666613Y-91687000D01*
X43712000Y-91641613D01*
X43774000Y-91625000D01*
X45155989Y-91625000D01*
X45203442Y-91634439D01*
G37*
%TD.AperFunction*%
%TA.AperFunction,Conductor*%
G36*
X42320158Y-89940668D02*
G01*
X42365046Y-89982460D01*
X42384415Y-90040654D01*
X42373526Y-90101011D01*
X42335042Y-90148767D01*
X42242811Y-90217810D01*
X42156647Y-90332910D01*
X42124600Y-90418834D01*
X42098161Y-90461070D01*
X42057231Y-90489488D01*
X42008418Y-90499500D01*
X41575824Y-90499500D01*
X41530238Y-90505501D01*
X41430200Y-90552149D01*
X41394671Y-90587680D01*
X41354442Y-90614561D01*
X41306989Y-90624000D01*
X40735689Y-90624000D01*
X40688236Y-90614561D01*
X40648008Y-90587681D01*
X40432132Y-90371805D01*
X40197506Y-90137180D01*
X40167257Y-90087818D01*
X40162715Y-90030102D01*
X40184870Y-89976615D01*
X40228893Y-89939015D01*
X40285188Y-89925500D01*
X42260731Y-89925500D01*
X42320158Y-89940668D01*
G37*
%TD.AperFunction*%
%TD*%
M02*
