%TF.GenerationSoftware,KiCad,Pcbnew,(7.0.0)*%
%TF.CreationDate,2023-05-27T11:40:30+01:00*%
%TF.ProjectId,right,72696768-742e-46b6-9963-61645f706362,rev?*%
%TF.SameCoordinates,Original*%
%TF.FileFunction,Soldermask,Bot*%
%TF.FilePolarity,Negative*%
%FSLAX46Y46*%
G04 Gerber Fmt 4.6, Leading zero omitted, Abs format (unit mm)*
G04 Created by KiCad (PCBNEW (7.0.0)) date 2023-05-27 11:40:30*
%MOMM*%
%LPD*%
G01*
G04 APERTURE LIST*
G04 Aperture macros list*
%AMRoundRect*
0 Rectangle with rounded corners*
0 $1 Rounding radius*
0 $2 $3 $4 $5 $6 $7 $8 $9 X,Y pos of 4 corners*
0 Add a 4 corners polygon primitive as box body*
4,1,4,$2,$3,$4,$5,$6,$7,$8,$9,$2,$3,0*
0 Add four circle primitives for the rounded corners*
1,1,$1+$1,$2,$3*
1,1,$1+$1,$4,$5*
1,1,$1+$1,$6,$7*
1,1,$1+$1,$8,$9*
0 Add four rect primitives between the rounded corners*
20,1,$1+$1,$2,$3,$4,$5,0*
20,1,$1+$1,$4,$5,$6,$7,0*
20,1,$1+$1,$6,$7,$8,$9,0*
20,1,$1+$1,$8,$9,$2,$3,0*%
%AMRotRect*
0 Rectangle, with rotation*
0 The origin of the aperture is its center*
0 $1 length*
0 $2 width*
0 $3 Rotation angle, in degrees counterclockwise*
0 Add horizontal line*
21,1,$1,$2,0,0,$3*%
G04 Aperture macros list end*
%ADD10C,2.100000*%
%ADD11C,2.500000*%
%ADD12C,1.750000*%
%ADD13RotRect,1.244600X0.660400X285.000000*%
%ADD14RoundRect,0.155000X-0.155000X0.212500X-0.155000X-0.212500X0.155000X-0.212500X0.155000X0.212500X0*%
%ADD15RoundRect,0.155000X0.155000X-0.212500X0.155000X0.212500X-0.155000X0.212500X-0.155000X-0.212500X0*%
%ADD16RoundRect,0.150000X-0.512500X-0.150000X0.512500X-0.150000X0.512500X0.150000X-0.512500X0.150000X0*%
%ADD17RoundRect,0.062500X-0.062500X0.362500X-0.062500X-0.362500X0.062500X-0.362500X0.062500X0.362500X0*%
%ADD18RoundRect,0.062500X-0.362500X0.062500X-0.362500X-0.062500X0.362500X-0.062500X0.362500X0.062500X0*%
%ADD19R,2.600000X2.600000*%
%ADD20C,1.100000*%
%ADD21RotRect,1.600000X1.000000X254.101000*%
%ADD22RoundRect,0.160000X-0.197500X-0.160000X0.197500X-0.160000X0.197500X0.160000X-0.197500X0.160000X0*%
%ADD23RoundRect,0.160000X-0.160000X0.197500X-0.160000X-0.197500X0.160000X-0.197500X0.160000X0.197500X0*%
%ADD24R,2.000000X2.400000*%
G04 APERTURE END LIST*
D10*
%TO.C,J5*%
X33061466Y-80303830D03*
D11*
X37055596Y-88770154D03*
D12*
X38100000Y-86100000D03*
X35349842Y-86807909D03*
X36433610Y-84183038D03*
X33683452Y-84890946D03*
X34767220Y-82266075D03*
X32017062Y-82973984D03*
%TD*%
D13*
%TO.C,SW3*%
X30145102Y-86471746D03*
X31196942Y-90397269D03*
X31574674Y-86088693D03*
X32626514Y-90014216D03*
%TD*%
D14*
%TO.C,C5*%
X65100000Y-93432500D03*
X65100000Y-94567500D03*
%TD*%
D15*
%TO.C,C4*%
X57900000Y-93967500D03*
X57900000Y-92832500D03*
%TD*%
D16*
%TO.C,U2*%
X60362500Y-93750000D03*
X60362500Y-92800000D03*
X60362500Y-91850000D03*
X62637500Y-91850000D03*
X62637500Y-93750000D03*
%TD*%
D14*
%TO.C,C3*%
X49300000Y-92665000D03*
X49300000Y-93800000D03*
%TD*%
D13*
%TO.C,SW2*%
X27396450Y-76372988D03*
X28448290Y-80298511D03*
X28826022Y-75989935D03*
X29877862Y-79915458D03*
%TD*%
D17*
%TO.C,U1*%
X42900000Y-89950000D03*
X43400000Y-89950000D03*
X43900000Y-89950000D03*
X44400000Y-89950000D03*
X44900000Y-89950000D03*
D18*
X45825000Y-90875000D03*
X45825000Y-91375000D03*
X45825000Y-91875000D03*
X45825000Y-92375000D03*
X45825000Y-92875000D03*
D17*
X44900000Y-93800000D03*
X44400000Y-93800000D03*
X43900000Y-93800000D03*
X43400000Y-93800000D03*
X42900000Y-93800000D03*
D18*
X41975000Y-92875000D03*
X41975000Y-92375000D03*
X41975000Y-91875000D03*
X41975000Y-91375000D03*
X41975000Y-90875000D03*
D19*
X43899999Y-91874999D03*
%TD*%
D20*
%TO.C,SW1*%
X37568363Y-62615397D03*
X33721379Y-61519627D03*
D21*
X35057584Y-57741127D03*
X36740640Y-58220527D03*
X38423695Y-58699926D03*
X32866045Y-65435096D03*
X34549100Y-65914495D03*
X36232156Y-66393895D03*
%TD*%
D22*
%TO.C,R2*%
X65402500Y-91400000D03*
X66597500Y-91400000D03*
%TD*%
D23*
%TO.C,R1*%
X34900000Y-88502500D03*
X34900000Y-89697500D03*
%TD*%
D14*
%TO.C,C1*%
X53400000Y-96132500D03*
X53400000Y-97267500D03*
%TD*%
D23*
%TO.C,R3*%
X67200000Y-93402500D03*
X67200000Y-94597500D03*
%TD*%
D24*
%TO.C,Y1*%
X47849999Y-96699999D03*
X51549999Y-96699999D03*
%TD*%
D14*
%TO.C,C2*%
X46000000Y-95132500D03*
X46000000Y-96267500D03*
%TD*%
M02*
