M48
; DRILL file {KiCad (7.0.0)} date Sat May 27 11:40:33 2023
; FORMAT={-:-/ absolute / inch / decimal}
; #@! TF.CreationDate,2023-05-27T11:40:33+01:00
; #@! TF.GenerationSoftware,Kicad,Pcbnew,(7.0.0)
; #@! TF.FileFunction,Plated,1,2,PTH
FMAT,2
INCH
; #@! TA.AperFunction,Plated,PTH,ViaDrill
T1C0.0157
; #@! TA.AperFunction,Plated,PTH,ComponentDrill
T2C0.0551
%
G90
G05
T1
X1.0394Y-2.8701
X1.1063Y-3.0827
X1.1102Y-2.5709
X1.1457Y-2.8976
X1.1496Y-3.2795
X1.1969Y-2.7402
X1.1969Y-3.0551
X1.2008Y-3.2087
X1.2165Y-2.1811
X1.2205Y-3.3386
X1.2323Y-3.4724
X1.2559Y-3.626
X1.2717Y-2.6535
X1.2913Y-2.9606
X1.2953Y-2.7835
X1.315Y-2.5079
X1.315Y-3.0906
X1.3583Y-2.3465
X1.3622Y-3.6339
X1.4134Y-2.0197
X1.4331Y-3.7244
X1.4434Y-3.5835
X1.4488Y-2.5512
X1.4926Y-3.5887
X1.4961Y-2.3858
X1.5354Y-3.5866
X1.5394Y-3.689
X1.5591Y-3.8071
X1.5612Y-3.4596
X1.563Y-3.937
X1.5636Y-3.4989
X1.5827Y-3.4094
X1.5906Y-2.1142
X1.5984Y-3.6575
X1.6024Y-3.7047
X1.6102Y-3.5541
X1.6501Y-3.7342
X1.6693Y-4.0
X1.7008Y-3.7638
X1.7402Y-3.815
X1.7874Y-3.4291
X1.8268Y-3.9094
X1.8583Y-3.5039
X1.8583Y-3.5601
X1.8858Y-3.2913
X1.8973Y-3.5996
X1.8976Y-3.689
X1.9291Y-3.4134
X1.9921Y-3.5236
X1.9921Y-3.5984
X2.0Y-3.689
X2.0039Y-3.9134
X2.0551Y-3.4843
X2.122Y-3.7165
X2.1417Y-3.4173
X2.1417Y-3.6024
X2.1496Y-3.9094
X2.2205Y-3.6575
X2.2362Y-3.7362
X2.315Y-3.6024
X2.3543Y-3.4961
X2.374Y-3.9134
X2.4961Y-3.7362
X2.5157Y-3.5591
X2.5157Y-3.6063
X2.5157Y-3.6575
X2.5315Y-3.8425
X2.572Y-3.5579
X2.6142Y-3.6575
X2.7008Y-3.5315
X2.7047Y-3.7244
X2.7087Y-3.9173
X2.8701Y-3.4803
X2.9528Y-3.5709
X2.9528Y-3.7362
X2.9606Y-3.9213
T2
X1.2605Y-3.2667
X1.3261Y-3.3422
X1.3688Y-3.2388
X1.3917Y-3.4176
X1.4344Y-3.3143
X1.5Y-3.3898
T0
M30
