%TF.GenerationSoftware,KiCad,Pcbnew,(7.0.0)*%
%TF.CreationDate,2023-05-27T11:40:30+01:00*%
%TF.ProjectId,right,72696768-742e-46b6-9963-61645f706362,rev?*%
%TF.SameCoordinates,Original*%
%TF.FileFunction,Legend,Bot*%
%TF.FilePolarity,Positive*%
%FSLAX46Y46*%
G04 Gerber Fmt 4.6, Leading zero omitted, Abs format (unit mm)*
G04 Created by KiCad (PCBNEW (7.0.0)) date 2023-05-27 11:40:30*
%MOMM*%
%LPD*%
G01*
G04 APERTURE LIST*
%ADD10C,0.150000*%
%ADD11C,0.152400*%
%ADD12C,0.120000*%
G04 APERTURE END LIST*
D10*
%TO.C,SW3*%
X32170661Y-85363774D02*
X32044996Y-85446744D01*
X32044996Y-85446744D02*
X31815014Y-85508368D01*
X31815014Y-85508368D02*
X31710696Y-85487021D01*
X31710696Y-85487021D02*
X31652375Y-85453349D01*
X31652375Y-85453349D02*
X31581729Y-85373681D01*
X31581729Y-85373681D02*
X31557079Y-85281688D01*
X31557079Y-85281688D02*
X31578426Y-85177370D01*
X31578426Y-85177370D02*
X31612098Y-85119049D01*
X31612098Y-85119049D02*
X31691766Y-85048403D01*
X31691766Y-85048403D02*
X31863428Y-84953108D01*
X31863428Y-84953108D02*
X31943096Y-84882462D01*
X31943096Y-84882462D02*
X31976768Y-84824141D01*
X31976768Y-84824141D02*
X31998115Y-84719823D01*
X31998115Y-84719823D02*
X31973465Y-84627830D01*
X31973465Y-84627830D02*
X31902819Y-84548162D01*
X31902819Y-84548162D02*
X31844498Y-84514490D01*
X31844498Y-84514490D02*
X31740180Y-84493143D01*
X31740180Y-84493143D02*
X31510198Y-84554767D01*
X31510198Y-84554767D02*
X31384533Y-84637738D01*
X31050233Y-84678014D02*
X31079070Y-85705564D01*
X31079070Y-85705564D02*
X30710213Y-85064915D01*
X30710213Y-85064915D02*
X30711098Y-85804161D01*
X30711098Y-85804161D02*
X30222297Y-84899859D01*
X29946318Y-84973807D02*
X29348364Y-85134029D01*
X29348364Y-85134029D02*
X29768937Y-85415727D01*
X29768937Y-85415727D02*
X29630948Y-85452701D01*
X29630948Y-85452701D02*
X29551280Y-85523347D01*
X29551280Y-85523347D02*
X29517608Y-85581669D01*
X29517608Y-85581669D02*
X29496261Y-85685986D01*
X29496261Y-85685986D02*
X29557884Y-85915969D01*
X29557884Y-85915969D02*
X29628530Y-85995637D01*
X29628530Y-85995637D02*
X29686851Y-86029309D01*
X29686851Y-86029309D02*
X29791169Y-86050656D01*
X29791169Y-86050656D02*
X30067148Y-85976707D01*
X30067148Y-85976707D02*
X30146816Y-85906061D01*
X30146816Y-85906061D02*
X30180488Y-85847740D01*
%TO.C,C5*%
X65266666Y-96272142D02*
X65314285Y-96319761D01*
X65314285Y-96319761D02*
X65457142Y-96367380D01*
X65457142Y-96367380D02*
X65552380Y-96367380D01*
X65552380Y-96367380D02*
X65695237Y-96319761D01*
X65695237Y-96319761D02*
X65790475Y-96224523D01*
X65790475Y-96224523D02*
X65838094Y-96129285D01*
X65838094Y-96129285D02*
X65885713Y-95938809D01*
X65885713Y-95938809D02*
X65885713Y-95795952D01*
X65885713Y-95795952D02*
X65838094Y-95605476D01*
X65838094Y-95605476D02*
X65790475Y-95510238D01*
X65790475Y-95510238D02*
X65695237Y-95415000D01*
X65695237Y-95415000D02*
X65552380Y-95367380D01*
X65552380Y-95367380D02*
X65457142Y-95367380D01*
X65457142Y-95367380D02*
X65314285Y-95415000D01*
X65314285Y-95415000D02*
X65266666Y-95462619D01*
X64361904Y-95367380D02*
X64838094Y-95367380D01*
X64838094Y-95367380D02*
X64885713Y-95843571D01*
X64885713Y-95843571D02*
X64838094Y-95795952D01*
X64838094Y-95795952D02*
X64742856Y-95748333D01*
X64742856Y-95748333D02*
X64504761Y-95748333D01*
X64504761Y-95748333D02*
X64409523Y-95795952D01*
X64409523Y-95795952D02*
X64361904Y-95843571D01*
X64361904Y-95843571D02*
X64314285Y-95938809D01*
X64314285Y-95938809D02*
X64314285Y-96176904D01*
X64314285Y-96176904D02*
X64361904Y-96272142D01*
X64361904Y-96272142D02*
X64409523Y-96319761D01*
X64409523Y-96319761D02*
X64504761Y-96367380D01*
X64504761Y-96367380D02*
X64742856Y-96367380D01*
X64742856Y-96367380D02*
X64838094Y-96319761D01*
X64838094Y-96319761D02*
X64885713Y-96272142D01*
%TO.C,C4*%
X56972142Y-93033333D02*
X57019761Y-92985714D01*
X57019761Y-92985714D02*
X57067380Y-92842857D01*
X57067380Y-92842857D02*
X57067380Y-92747619D01*
X57067380Y-92747619D02*
X57019761Y-92604762D01*
X57019761Y-92604762D02*
X56924523Y-92509524D01*
X56924523Y-92509524D02*
X56829285Y-92461905D01*
X56829285Y-92461905D02*
X56638809Y-92414286D01*
X56638809Y-92414286D02*
X56495952Y-92414286D01*
X56495952Y-92414286D02*
X56305476Y-92461905D01*
X56305476Y-92461905D02*
X56210238Y-92509524D01*
X56210238Y-92509524D02*
X56115000Y-92604762D01*
X56115000Y-92604762D02*
X56067380Y-92747619D01*
X56067380Y-92747619D02*
X56067380Y-92842857D01*
X56067380Y-92842857D02*
X56115000Y-92985714D01*
X56115000Y-92985714D02*
X56162619Y-93033333D01*
X56400714Y-93890476D02*
X57067380Y-93890476D01*
X56019761Y-93652381D02*
X56734047Y-93414286D01*
X56734047Y-93414286D02*
X56734047Y-94033333D01*
%TO.C,U2*%
X62261904Y-94867380D02*
X62261904Y-95676904D01*
X62261904Y-95676904D02*
X62214285Y-95772142D01*
X62214285Y-95772142D02*
X62166666Y-95819761D01*
X62166666Y-95819761D02*
X62071428Y-95867380D01*
X62071428Y-95867380D02*
X61880952Y-95867380D01*
X61880952Y-95867380D02*
X61785714Y-95819761D01*
X61785714Y-95819761D02*
X61738095Y-95772142D01*
X61738095Y-95772142D02*
X61690476Y-95676904D01*
X61690476Y-95676904D02*
X61690476Y-94867380D01*
X61261904Y-94962619D02*
X61214285Y-94915000D01*
X61214285Y-94915000D02*
X61119047Y-94867380D01*
X61119047Y-94867380D02*
X60880952Y-94867380D01*
X60880952Y-94867380D02*
X60785714Y-94915000D01*
X60785714Y-94915000D02*
X60738095Y-94962619D01*
X60738095Y-94962619D02*
X60690476Y-95057857D01*
X60690476Y-95057857D02*
X60690476Y-95153095D01*
X60690476Y-95153095D02*
X60738095Y-95295952D01*
X60738095Y-95295952D02*
X61309523Y-95867380D01*
X61309523Y-95867380D02*
X60690476Y-95867380D01*
%TO.C,C3*%
X48412142Y-93065833D02*
X48459761Y-93018214D01*
X48459761Y-93018214D02*
X48507380Y-92875357D01*
X48507380Y-92875357D02*
X48507380Y-92780119D01*
X48507380Y-92780119D02*
X48459761Y-92637262D01*
X48459761Y-92637262D02*
X48364523Y-92542024D01*
X48364523Y-92542024D02*
X48269285Y-92494405D01*
X48269285Y-92494405D02*
X48078809Y-92446786D01*
X48078809Y-92446786D02*
X47935952Y-92446786D01*
X47935952Y-92446786D02*
X47745476Y-92494405D01*
X47745476Y-92494405D02*
X47650238Y-92542024D01*
X47650238Y-92542024D02*
X47555000Y-92637262D01*
X47555000Y-92637262D02*
X47507380Y-92780119D01*
X47507380Y-92780119D02*
X47507380Y-92875357D01*
X47507380Y-92875357D02*
X47555000Y-93018214D01*
X47555000Y-93018214D02*
X47602619Y-93065833D01*
X47507380Y-93399167D02*
X47507380Y-94018214D01*
X47507380Y-94018214D02*
X47888333Y-93684881D01*
X47888333Y-93684881D02*
X47888333Y-93827738D01*
X47888333Y-93827738D02*
X47935952Y-93922976D01*
X47935952Y-93922976D02*
X47983571Y-93970595D01*
X47983571Y-93970595D02*
X48078809Y-94018214D01*
X48078809Y-94018214D02*
X48316904Y-94018214D01*
X48316904Y-94018214D02*
X48412142Y-93970595D01*
X48412142Y-93970595D02*
X48459761Y-93922976D01*
X48459761Y-93922976D02*
X48507380Y-93827738D01*
X48507380Y-93827738D02*
X48507380Y-93542024D01*
X48507380Y-93542024D02*
X48459761Y-93446786D01*
X48459761Y-93446786D02*
X48412142Y-93399167D01*
%TO.C,SW2*%
X29370661Y-75163774D02*
X29244996Y-75246744D01*
X29244996Y-75246744D02*
X29015014Y-75308368D01*
X29015014Y-75308368D02*
X28910696Y-75287021D01*
X28910696Y-75287021D02*
X28852375Y-75253349D01*
X28852375Y-75253349D02*
X28781729Y-75173681D01*
X28781729Y-75173681D02*
X28757079Y-75081688D01*
X28757079Y-75081688D02*
X28778426Y-74977370D01*
X28778426Y-74977370D02*
X28812098Y-74919049D01*
X28812098Y-74919049D02*
X28891766Y-74848403D01*
X28891766Y-74848403D02*
X29063428Y-74753108D01*
X29063428Y-74753108D02*
X29143096Y-74682462D01*
X29143096Y-74682462D02*
X29176768Y-74624141D01*
X29176768Y-74624141D02*
X29198115Y-74519823D01*
X29198115Y-74519823D02*
X29173465Y-74427830D01*
X29173465Y-74427830D02*
X29102819Y-74348162D01*
X29102819Y-74348162D02*
X29044498Y-74314490D01*
X29044498Y-74314490D02*
X28940180Y-74293143D01*
X28940180Y-74293143D02*
X28710198Y-74354767D01*
X28710198Y-74354767D02*
X28584533Y-74437738D01*
X28250233Y-74478014D02*
X28279070Y-75505564D01*
X28279070Y-75505564D02*
X27910213Y-74864915D01*
X27910213Y-74864915D02*
X27911098Y-75604161D01*
X27911098Y-75604161D02*
X27422297Y-74699859D01*
X27124971Y-74878125D02*
X27066650Y-74844453D01*
X27066650Y-74844453D02*
X26962332Y-74823106D01*
X26962332Y-74823106D02*
X26732350Y-74884730D01*
X26732350Y-74884730D02*
X26652682Y-74955376D01*
X26652682Y-74955376D02*
X26619010Y-75013697D01*
X26619010Y-75013697D02*
X26597663Y-75118014D01*
X26597663Y-75118014D02*
X26622312Y-75210007D01*
X26622312Y-75210007D02*
X26705283Y-75335672D01*
X26705283Y-75335672D02*
X27405137Y-75739733D01*
X27405137Y-75739733D02*
X26807183Y-75899954D01*
%TO.C,U1*%
X45761904Y-87767380D02*
X45761904Y-88576904D01*
X45761904Y-88576904D02*
X45714285Y-88672142D01*
X45714285Y-88672142D02*
X45666666Y-88719761D01*
X45666666Y-88719761D02*
X45571428Y-88767380D01*
X45571428Y-88767380D02*
X45380952Y-88767380D01*
X45380952Y-88767380D02*
X45285714Y-88719761D01*
X45285714Y-88719761D02*
X45238095Y-88672142D01*
X45238095Y-88672142D02*
X45190476Y-88576904D01*
X45190476Y-88576904D02*
X45190476Y-87767380D01*
X44190476Y-88767380D02*
X44761904Y-88767380D01*
X44476190Y-88767380D02*
X44476190Y-87767380D01*
X44476190Y-87767380D02*
X44571428Y-87910238D01*
X44571428Y-87910238D02*
X44666666Y-88005476D01*
X44666666Y-88005476D02*
X44761904Y-88053095D01*
%TO.C,SW1*%
X35294836Y-68772813D02*
X35144399Y-68779475D01*
X35144399Y-68779475D02*
X34915411Y-68714251D01*
X34915411Y-68714251D02*
X34836861Y-68642364D01*
X34836861Y-68642364D02*
X34804109Y-68583522D01*
X34804109Y-68583522D02*
X34784401Y-68478882D01*
X34784401Y-68478882D02*
X34810491Y-68387287D01*
X34810491Y-68387287D02*
X34882378Y-68308737D01*
X34882378Y-68308737D02*
X34941220Y-68275984D01*
X34941220Y-68275984D02*
X35045860Y-68256277D01*
X35045860Y-68256277D02*
X35242095Y-68262659D01*
X35242095Y-68262659D02*
X35346735Y-68242951D01*
X35346735Y-68242951D02*
X35405577Y-68210199D01*
X35405577Y-68210199D02*
X35477464Y-68131649D01*
X35477464Y-68131649D02*
X35503554Y-68040054D01*
X35503554Y-68040054D02*
X35483846Y-67935414D01*
X35483846Y-67935414D02*
X35451094Y-67876572D01*
X35451094Y-67876572D02*
X35372544Y-67804685D01*
X35372544Y-67804685D02*
X35143556Y-67739460D01*
X35143556Y-67739460D02*
X34993119Y-67746123D01*
X34685582Y-67609011D02*
X34182652Y-68505533D01*
X34182652Y-68505533D02*
X34195136Y-67766392D01*
X34195136Y-67766392D02*
X33816273Y-68401174D01*
X33816273Y-68401174D02*
X33861228Y-67374204D01*
X32717135Y-68088097D02*
X33266704Y-68244636D01*
X32991919Y-68166366D02*
X33265862Y-67204620D01*
X33265862Y-67204620D02*
X33318322Y-67368102D01*
X33318322Y-67368102D02*
X33383827Y-67485787D01*
X33383827Y-67485787D02*
X33462377Y-67557674D01*
%TO.C,R2*%
X66266666Y-90467380D02*
X66599999Y-89991190D01*
X66838094Y-90467380D02*
X66838094Y-89467380D01*
X66838094Y-89467380D02*
X66457142Y-89467380D01*
X66457142Y-89467380D02*
X66361904Y-89515000D01*
X66361904Y-89515000D02*
X66314285Y-89562619D01*
X66314285Y-89562619D02*
X66266666Y-89657857D01*
X66266666Y-89657857D02*
X66266666Y-89800714D01*
X66266666Y-89800714D02*
X66314285Y-89895952D01*
X66314285Y-89895952D02*
X66361904Y-89943571D01*
X66361904Y-89943571D02*
X66457142Y-89991190D01*
X66457142Y-89991190D02*
X66838094Y-89991190D01*
X65885713Y-89562619D02*
X65838094Y-89515000D01*
X65838094Y-89515000D02*
X65742856Y-89467380D01*
X65742856Y-89467380D02*
X65504761Y-89467380D01*
X65504761Y-89467380D02*
X65409523Y-89515000D01*
X65409523Y-89515000D02*
X65361904Y-89562619D01*
X65361904Y-89562619D02*
X65314285Y-89657857D01*
X65314285Y-89657857D02*
X65314285Y-89753095D01*
X65314285Y-89753095D02*
X65361904Y-89895952D01*
X65361904Y-89895952D02*
X65933332Y-90467380D01*
X65933332Y-90467380D02*
X65314285Y-90467380D01*
%TO.C,R1*%
X35066666Y-91467380D02*
X35399999Y-90991190D01*
X35638094Y-91467380D02*
X35638094Y-90467380D01*
X35638094Y-90467380D02*
X35257142Y-90467380D01*
X35257142Y-90467380D02*
X35161904Y-90515000D01*
X35161904Y-90515000D02*
X35114285Y-90562619D01*
X35114285Y-90562619D02*
X35066666Y-90657857D01*
X35066666Y-90657857D02*
X35066666Y-90800714D01*
X35066666Y-90800714D02*
X35114285Y-90895952D01*
X35114285Y-90895952D02*
X35161904Y-90943571D01*
X35161904Y-90943571D02*
X35257142Y-90991190D01*
X35257142Y-90991190D02*
X35638094Y-90991190D01*
X34114285Y-91467380D02*
X34685713Y-91467380D01*
X34399999Y-91467380D02*
X34399999Y-90467380D01*
X34399999Y-90467380D02*
X34495237Y-90610238D01*
X34495237Y-90610238D02*
X34590475Y-90705476D01*
X34590475Y-90705476D02*
X34685713Y-90753095D01*
%TO.C,C1*%
X54966666Y-96972142D02*
X55014285Y-97019761D01*
X55014285Y-97019761D02*
X55157142Y-97067380D01*
X55157142Y-97067380D02*
X55252380Y-97067380D01*
X55252380Y-97067380D02*
X55395237Y-97019761D01*
X55395237Y-97019761D02*
X55490475Y-96924523D01*
X55490475Y-96924523D02*
X55538094Y-96829285D01*
X55538094Y-96829285D02*
X55585713Y-96638809D01*
X55585713Y-96638809D02*
X55585713Y-96495952D01*
X55585713Y-96495952D02*
X55538094Y-96305476D01*
X55538094Y-96305476D02*
X55490475Y-96210238D01*
X55490475Y-96210238D02*
X55395237Y-96115000D01*
X55395237Y-96115000D02*
X55252380Y-96067380D01*
X55252380Y-96067380D02*
X55157142Y-96067380D01*
X55157142Y-96067380D02*
X55014285Y-96115000D01*
X55014285Y-96115000D02*
X54966666Y-96162619D01*
X54014285Y-97067380D02*
X54585713Y-97067380D01*
X54299999Y-97067380D02*
X54299999Y-96067380D01*
X54299999Y-96067380D02*
X54395237Y-96210238D01*
X54395237Y-96210238D02*
X54490475Y-96305476D01*
X54490475Y-96305476D02*
X54585713Y-96353095D01*
%TO.C,R3*%
X67466666Y-96367380D02*
X67799999Y-95891190D01*
X68038094Y-96367380D02*
X68038094Y-95367380D01*
X68038094Y-95367380D02*
X67657142Y-95367380D01*
X67657142Y-95367380D02*
X67561904Y-95415000D01*
X67561904Y-95415000D02*
X67514285Y-95462619D01*
X67514285Y-95462619D02*
X67466666Y-95557857D01*
X67466666Y-95557857D02*
X67466666Y-95700714D01*
X67466666Y-95700714D02*
X67514285Y-95795952D01*
X67514285Y-95795952D02*
X67561904Y-95843571D01*
X67561904Y-95843571D02*
X67657142Y-95891190D01*
X67657142Y-95891190D02*
X68038094Y-95891190D01*
X67133332Y-95367380D02*
X66514285Y-95367380D01*
X66514285Y-95367380D02*
X66847618Y-95748333D01*
X66847618Y-95748333D02*
X66704761Y-95748333D01*
X66704761Y-95748333D02*
X66609523Y-95795952D01*
X66609523Y-95795952D02*
X66561904Y-95843571D01*
X66561904Y-95843571D02*
X66514285Y-95938809D01*
X66514285Y-95938809D02*
X66514285Y-96176904D01*
X66514285Y-96176904D02*
X66561904Y-96272142D01*
X66561904Y-96272142D02*
X66609523Y-96319761D01*
X66609523Y-96319761D02*
X66704761Y-96367380D01*
X66704761Y-96367380D02*
X66990475Y-96367380D01*
X66990475Y-96367380D02*
X67085713Y-96319761D01*
X67085713Y-96319761D02*
X67133332Y-96272142D01*
%TO.C,Y1*%
X51776190Y-93891190D02*
X51776190Y-94367380D01*
X52109523Y-93367380D02*
X51776190Y-93891190D01*
X51776190Y-93891190D02*
X51442857Y-93367380D01*
X50585714Y-94367380D02*
X51157142Y-94367380D01*
X50871428Y-94367380D02*
X50871428Y-93367380D01*
X50871428Y-93367380D02*
X50966666Y-93510238D01*
X50966666Y-93510238D02*
X51061904Y-93605476D01*
X51061904Y-93605476D02*
X51157142Y-93653095D01*
%TO.C,C2*%
X44666666Y-95972142D02*
X44714285Y-96019761D01*
X44714285Y-96019761D02*
X44857142Y-96067380D01*
X44857142Y-96067380D02*
X44952380Y-96067380D01*
X44952380Y-96067380D02*
X45095237Y-96019761D01*
X45095237Y-96019761D02*
X45190475Y-95924523D01*
X45190475Y-95924523D02*
X45238094Y-95829285D01*
X45238094Y-95829285D02*
X45285713Y-95638809D01*
X45285713Y-95638809D02*
X45285713Y-95495952D01*
X45285713Y-95495952D02*
X45238094Y-95305476D01*
X45238094Y-95305476D02*
X45190475Y-95210238D01*
X45190475Y-95210238D02*
X45095237Y-95115000D01*
X45095237Y-95115000D02*
X44952380Y-95067380D01*
X44952380Y-95067380D02*
X44857142Y-95067380D01*
X44857142Y-95067380D02*
X44714285Y-95115000D01*
X44714285Y-95115000D02*
X44666666Y-95162619D01*
X44285713Y-95162619D02*
X44238094Y-95115000D01*
X44238094Y-95115000D02*
X44142856Y-95067380D01*
X44142856Y-95067380D02*
X43904761Y-95067380D01*
X43904761Y-95067380D02*
X43809523Y-95115000D01*
X43809523Y-95115000D02*
X43761904Y-95162619D01*
X43761904Y-95162619D02*
X43714285Y-95257857D01*
X43714285Y-95257857D02*
X43714285Y-95353095D01*
X43714285Y-95353095D02*
X43761904Y-95495952D01*
X43761904Y-95495952D02*
X44333332Y-96067380D01*
X44333332Y-96067380D02*
X43714285Y-96067380D01*
D11*
%TO.C,SW3*%
X32739421Y-85934378D02*
X33712374Y-89565486D01*
X32254470Y-86064320D02*
X32739421Y-85934378D01*
X30824898Y-86447373D02*
X30973768Y-86407483D01*
X29059244Y-86920478D02*
X29544196Y-86790536D01*
X33712374Y-89565486D02*
X33227422Y-89695428D01*
X31946720Y-90038591D02*
X31797850Y-90078481D01*
X30517148Y-90421644D02*
X30032197Y-90551586D01*
X30032197Y-90551586D02*
X29059244Y-86920478D01*
X29689440Y-84392012D02*
G75*
G03*
X29689440Y-84392012I-101600J0D01*
G01*
D12*
%TO.C,C5*%
X65460000Y-93884165D02*
X65460000Y-94115835D01*
X64740000Y-93884165D02*
X64740000Y-94115835D01*
%TO.C,C4*%
X57540000Y-93515835D02*
X57540000Y-93284165D01*
X58260000Y-93515835D02*
X58260000Y-93284165D01*
%TO.C,U2*%
X61500000Y-91240000D02*
X60700000Y-91240000D01*
X61500000Y-91240000D02*
X62300000Y-91240000D01*
X61500000Y-94360000D02*
X59700000Y-94360000D01*
X61500000Y-94360000D02*
X62300000Y-94360000D01*
%TO.C,C3*%
X49660000Y-93116665D02*
X49660000Y-93348335D01*
X48940000Y-93116665D02*
X48940000Y-93348335D01*
D11*
%TO.C,SW2*%
X29990769Y-75835620D02*
X30963722Y-79466728D01*
X29505818Y-75965562D02*
X29990769Y-75835620D01*
X28076246Y-76348615D02*
X28225116Y-76308725D01*
X26310592Y-76821720D02*
X26795544Y-76691778D01*
X30963722Y-79466728D02*
X30478770Y-79596670D01*
X29198068Y-79939833D02*
X29049198Y-79979723D01*
X27768496Y-80322886D02*
X27283545Y-80452828D01*
X27283545Y-80452828D02*
X26310592Y-76821720D01*
X26940788Y-74293254D02*
G75*
G03*
X26940788Y-74293254I-101600J0D01*
G01*
D12*
%TO.C,U1*%
X46010000Y-89765000D02*
X45285000Y-89765000D01*
X46010000Y-90490000D02*
X46010000Y-89765000D01*
X41790000Y-90490000D02*
X41790000Y-89765000D01*
X46010000Y-93260000D02*
X46010000Y-93985000D01*
X41790000Y-93260000D02*
X41790000Y-93985000D01*
X46010000Y-93985000D02*
X45285000Y-93985000D01*
X41790000Y-93985000D02*
X42515000Y-93985000D01*
D10*
%TO.C,SW1*%
X35604435Y-61999026D02*
G75*
G03*
X35604435Y-61999026I-200001J0D01*
G01*
D12*
%TO.C,R2*%
X65832379Y-91020000D02*
X66167621Y-91020000D01*
X65832379Y-91780000D02*
X66167621Y-91780000D01*
%TO.C,R1*%
X35280000Y-88932379D02*
X35280000Y-89267621D01*
X34520000Y-88932379D02*
X34520000Y-89267621D01*
%TO.C,C1*%
X53760000Y-96584165D02*
X53760000Y-96815835D01*
X53040000Y-96584165D02*
X53040000Y-96815835D01*
%TO.C,R3*%
X67580000Y-93832379D02*
X67580000Y-94167621D01*
X66820000Y-93832379D02*
X66820000Y-94167621D01*
%TO.C,Y1*%
X46650000Y-94900000D02*
X52400000Y-94900000D01*
X46650000Y-98500000D02*
X46650000Y-94900000D01*
X52400000Y-98500000D02*
X46650000Y-98500000D01*
%TO.C,C2*%
X46360000Y-95584165D02*
X46360000Y-95815835D01*
X45640000Y-95584165D02*
X45640000Y-95815835D01*
%TD*%
M02*
