%TF.GenerationSoftware,KiCad,Pcbnew,(7.0.0)*%
%TF.CreationDate,2023-05-27T11:40:30+01:00*%
%TF.ProjectId,right,72696768-742e-46b6-9963-61645f706362,rev?*%
%TF.SameCoordinates,Original*%
%TF.FileFunction,Copper,L1,Top*%
%TF.FilePolarity,Positive*%
%FSLAX46Y46*%
G04 Gerber Fmt 4.6, Leading zero omitted, Abs format (unit mm)*
G04 Created by KiCad (PCBNEW (7.0.0)) date 2023-05-27 11:40:30*
%MOMM*%
%LPD*%
G01*
G04 APERTURE LIST*
G04 Aperture macros list*
%AMRoundRect*
0 Rectangle with rounded corners*
0 $1 Rounding radius*
0 $2 $3 $4 $5 $6 $7 $8 $9 X,Y pos of 4 corners*
0 Add a 4 corners polygon primitive as box body*
4,1,4,$2,$3,$4,$5,$6,$7,$8,$9,$2,$3,0*
0 Add four circle primitives for the rounded corners*
1,1,$1+$1,$2,$3*
1,1,$1+$1,$4,$5*
1,1,$1+$1,$6,$7*
1,1,$1+$1,$8,$9*
0 Add four rect primitives between the rounded corners*
20,1,$1+$1,$2,$3,$4,$5,0*
20,1,$1+$1,$4,$5,$6,$7,0*
20,1,$1+$1,$6,$7,$8,$9,0*
20,1,$1+$1,$8,$9,$2,$3,0*%
G04 Aperture macros list end*
%TA.AperFunction,SMDPad,CuDef*%
%ADD10RoundRect,0.237500X0.287500X0.237500X-0.287500X0.237500X-0.287500X-0.237500X0.287500X-0.237500X0*%
%TD*%
%TA.AperFunction,SMDPad,CuDef*%
%ADD11C,1.000000*%
%TD*%
%TA.AperFunction,SMDPad,CuDef*%
%ADD12RoundRect,0.150000X-0.151091X-0.624737X0.148909X-0.625261X0.151091X0.624737X-0.148909X0.625261X0*%
%TD*%
%TA.AperFunction,SMDPad,CuDef*%
%ADD13RoundRect,0.250000X-0.351134X-0.649388X0.348865X-0.650610X0.351134X0.649388X-0.348865X0.650610X0*%
%TD*%
%TA.AperFunction,SMDPad,CuDef*%
%ADD14RoundRect,0.160000X0.197500X0.160000X-0.197500X0.160000X-0.197500X-0.160000X0.197500X-0.160000X0*%
%TD*%
%TA.AperFunction,ComponentPad*%
%ADD15C,1.750000*%
%TD*%
%TA.AperFunction,ViaPad*%
%ADD16C,0.800000*%
%TD*%
%TA.AperFunction,Conductor*%
%ADD17C,0.500000*%
%TD*%
%TA.AperFunction,Conductor*%
%ADD18C,0.150000*%
%TD*%
G04 APERTURE END LIST*
D10*
%TO.P,D1,1,K*%
%TO.N,GND*%
X61875000Y-93700000D03*
%TO.P,D1,2,A*%
%TO.N,Net-(D1-A)*%
X60125000Y-93700000D03*
%TD*%
D11*
%TO.P,TP8,1,1*%
%TO.N,+3V3*%
X41912115Y-92347962D03*
%TD*%
%TO.P,TP16,1,1*%
%TO.N,/FF_mic_R_+*%
X46912115Y-94847963D03*
%TD*%
%TO.P,TP13,1,1*%
%TO.N,/FF_mic_R_-*%
X47012115Y-92347962D03*
%TD*%
%TO.P,TP17,1,1*%
%TO.N,Net-(U2-OUT)*%
X63900000Y-92900000D03*
%TD*%
%TO.P,TP18,1,1*%
%TO.N,Net-(OC1-Pad2)*%
X66400000Y-92900000D03*
%TD*%
%TO.P,TP3,1,1*%
%TO.N,/FB_mic_R_+*%
X59060237Y-98808576D03*
%TD*%
%TO.P,TP19,1,1*%
%TO.N,/opto_out*%
X63900000Y-90400000D03*
%TD*%
%TO.P,TP1,1,1*%
%TO.N,/FF_mic_R_+*%
X64060236Y-98808576D03*
%TD*%
%TO.P,TP7,1,1*%
%TO.N,GND*%
X49412115Y-92347962D03*
%TD*%
%TO.P,TP6,1,1*%
%TO.N,/HP_R_-*%
X66900000Y-98800000D03*
%TD*%
%TO.P,TP9,1,1*%
%TO.N,+BATT*%
X51912115Y-92347962D03*
%TD*%
%TO.P,TP15,1,1*%
%TO.N,/FB_mic_R_-*%
X44412115Y-94847963D03*
%TD*%
%TO.P,TP12,1,1*%
%TO.N,/right_side_data*%
X41912115Y-94847963D03*
%TD*%
D12*
%TO.P,J6,1,Pin_1*%
%TO.N,+BATT*%
X55807451Y-91470819D03*
%TO.P,J6,2,Pin_2*%
%TO.N,GND*%
X56807450Y-91472565D03*
D13*
%TO.P,J6,MP,MP*%
X54511860Y-88943554D03*
X58111855Y-88949837D03*
%TD*%
D11*
%TO.P,TP5,1,1*%
%TO.N,/HP_R_+*%
X66900000Y-96400000D03*
%TD*%
%TO.P,TP4,1,1*%
%TO.N,/FB_mic_R_-*%
X56560236Y-98808576D03*
%TD*%
%TO.P,TP20,1,1*%
%TO.N,/opto_LDR*%
X66400000Y-90400000D03*
%TD*%
%TO.P,TP2,1,1*%
%TO.N,/FF_mic_R_-*%
X61560237Y-98808576D03*
%TD*%
%TO.P,TP14,1,1*%
%TO.N,/FB_mic_R_+*%
X44412115Y-92347962D03*
%TD*%
D14*
%TO.P,R4,1*%
%TO.N,Net-(U2-OUT)*%
X61597500Y-91600000D03*
%TO.P,R4,2*%
%TO.N,Net-(D1-A)*%
X60402500Y-91600000D03*
%TD*%
D15*
%TO.P,J5,1,Pin_1*%
%TO.N,/MISO*%
X38100000Y-86100000D03*
%TO.P,J5,2,Pin_2*%
%TO.N,+3V3*%
X35349842Y-86807909D03*
%TO.P,J5,3,Pin_3*%
%TO.N,/SCK*%
X36433610Y-84183038D03*
%TO.P,J5,4,Pin_4*%
%TO.N,/MOSI*%
X33683452Y-84890946D03*
%TO.P,J5,5,Pin_5*%
%TO.N,/~{reset}*%
X34767220Y-82266075D03*
%TO.P,J5,6,Pin_6*%
%TO.N,GND*%
X32017062Y-82973984D03*
%TD*%
D11*
%TO.P,TP11,1,1*%
%TO.N,/HP_R_-*%
X49412115Y-94847963D03*
%TD*%
%TO.P,TP10,1,1*%
%TO.N,/HP_R_+*%
X51912115Y-94847963D03*
%TD*%
D16*
%TO.N,GND*%
X30500000Y-81500000D03*
X52200000Y-88500000D03*
X35900000Y-51300000D03*
X31900000Y-92100000D03*
X68800000Y-99500000D03*
X39600000Y-96700000D03*
X31300000Y-88200000D03*
X45400000Y-87100000D03*
X34600000Y-92300000D03*
X39700000Y-100000000D03*
X42400000Y-101600000D03*
X36800000Y-64800000D03*
X29100000Y-73600000D03*
X47200000Y-89000000D03*
X36400000Y-94600000D03*
X63400000Y-94900000D03*
X29200000Y-83300000D03*
X40700000Y-94100000D03*
X40900000Y-90274500D03*
X33400000Y-63700000D03*
X48192277Y-91428604D03*
X64300000Y-97600000D03*
X40200000Y-86600000D03*
X75000000Y-94900000D03*
X50900000Y-99400000D03*
X44200000Y-96900000D03*
X32900000Y-70700000D03*
X50800000Y-93700000D03*
X32300000Y-67400000D03*
X54600000Y-99300000D03*
X40400000Y-53700000D03*
X60300000Y-99400000D03*
X30900000Y-55400000D03*
X75000000Y-90700000D03*
X68700000Y-94600000D03*
X59800000Y-88800000D03*
X26400000Y-72900000D03*
X58800000Y-91500000D03*
X50600000Y-91400000D03*
X56400000Y-92900000D03*
X63900000Y-91600000D03*
X75200000Y-99600000D03*
X46400000Y-99300000D03*
X68600000Y-89700000D03*
X33400000Y-78500000D03*
X28200000Y-65300000D03*
X48200000Y-93700000D03*
X49000000Y-86700000D03*
X53900000Y-94400000D03*
X38000000Y-60600000D03*
X54400000Y-91500000D03*
X32800000Y-75200000D03*
X56800000Y-94900000D03*
X39100000Y-93700000D03*
X30400000Y-69600000D03*
X72900000Y-88400000D03*
X54400000Y-86800000D03*
X30400000Y-77600000D03*
X31000000Y-84800000D03*
X47900000Y-83600000D03*
X39000000Y-91100000D03*
X28100000Y-78300000D03*
X34500000Y-59600000D03*
%TO.N,+3V3*%
X47200000Y-90425500D03*
%TO.N,Net-(U2-OUT)*%
X63900000Y-92900000D03*
%TO.N,/MOSI*%
X40600000Y-92900000D03*
%TO.N,/opto_out*%
X63900000Y-90400000D03*
%TO.N,Net-(OC1-Pad2)*%
X66400000Y-92900000D03*
%TO.N,/vol_up*%
X36663491Y-91019654D03*
X39655096Y-87873535D03*
%TO.N,/vol_down*%
X37911753Y-91151830D03*
X39715071Y-88871235D03*
%TO.N,/right_side_data*%
X41912115Y-94847963D03*
%TO.N,/opto_LDR*%
X65328194Y-90371806D03*
X43200000Y-95600000D03*
X50600000Y-89500000D03*
%TD*%
D17*
%TO.N,GND*%
X56807450Y-92492550D02*
X56400000Y-92900000D01*
X56807450Y-91472565D02*
X56807450Y-92492550D01*
%TO.N,+3V3*%
X41912115Y-92347962D02*
X41565483Y-92001330D01*
X47200000Y-90425500D02*
X43274500Y-90425500D01*
X41565483Y-92001330D02*
X36443792Y-92001330D01*
X35305596Y-90863134D02*
X35305596Y-86852155D01*
X41912115Y-91787885D02*
X41912115Y-92347962D01*
X35305596Y-86852155D02*
X35349842Y-86807909D01*
X43274500Y-90425500D02*
X41912115Y-91787885D01*
X36443792Y-92001330D02*
X35305596Y-90863134D01*
D18*
%TO.N,Net-(U2-OUT)*%
X61597500Y-91600000D02*
X62897500Y-92900000D01*
X62897500Y-92900000D02*
X63900000Y-92900000D01*
%TO.N,/MOSI*%
X36600000Y-92900000D02*
X33683452Y-89983452D01*
X40600000Y-92900000D02*
X36600000Y-92900000D01*
X33683452Y-89983452D02*
X33683452Y-84890946D01*
D17*
%TO.N,+BATT*%
X55807428Y-91731691D02*
X55807428Y-91470811D01*
X54939119Y-92600000D02*
X55807428Y-91731691D01*
X51912115Y-92347962D02*
X52164153Y-92600000D01*
X52164153Y-92600000D02*
X54939119Y-92600000D01*
D18*
%TO.N,/vol_up*%
X37033482Y-91019654D02*
X36663491Y-91019654D01*
X39655096Y-87873535D02*
X39040071Y-88488560D01*
X39040071Y-88488560D02*
X39040071Y-89013065D01*
X39040071Y-89013065D02*
X37033482Y-91019654D01*
%TO.N,/vol_down*%
X37911753Y-91151830D02*
X37911753Y-90636357D01*
X39676875Y-88871235D02*
X39715071Y-88871235D01*
X37911753Y-90636357D02*
X39676875Y-88871235D01*
%TO.N,/FF_mic_R_+*%
X62375662Y-97124002D02*
X49188153Y-97124001D01*
X49188153Y-97124001D02*
X46912115Y-94847963D01*
X64060236Y-98808576D02*
X62375662Y-97124002D01*
%TO.N,/FF_mic_R_-*%
X45900000Y-93460077D02*
X47012115Y-92347962D01*
X61560237Y-98808576D02*
X60225164Y-97473503D01*
X48073503Y-97473503D02*
X45900000Y-95300000D01*
X45900000Y-95300000D02*
X45900000Y-93460077D01*
X60225164Y-97473503D02*
X48073503Y-97473503D01*
%TO.N,/FB_mic_R_+*%
X45500000Y-93435847D02*
X44412115Y-92347962D01*
X58074665Y-97823004D02*
X47823004Y-97823004D01*
X47823004Y-97823004D02*
X45500000Y-95500000D01*
X45500000Y-95500000D02*
X45500000Y-93435847D01*
X59060237Y-98808576D02*
X58074665Y-97823004D01*
%TO.N,/FB_mic_R_-*%
X56560236Y-98808576D02*
X55924164Y-98172504D01*
X44412115Y-95555069D02*
X44412115Y-94847963D01*
X55924164Y-98172504D02*
X47029550Y-98172504D01*
X47029550Y-98172504D02*
X44412115Y-95555069D01*
D17*
%TO.N,/HP_R_+*%
X52964152Y-95900000D02*
X66400000Y-95900000D01*
X51912115Y-94847963D02*
X52964152Y-95900000D01*
X66400000Y-95900000D02*
X66900000Y-96400000D01*
%TO.N,/HP_R_-*%
X64699501Y-96599501D02*
X66900000Y-98800000D01*
X51163653Y-96599501D02*
X64699501Y-96599501D01*
X49412115Y-94847963D02*
X51163653Y-96599501D01*
D18*
%TO.N,/opto_LDR*%
X48879539Y-90753604D02*
X47912682Y-90753604D01*
X43200000Y-91900000D02*
X43200000Y-95600000D01*
X47566286Y-91100000D02*
X44000000Y-91100000D01*
X47912682Y-90753604D02*
X47566286Y-91100000D01*
X50133143Y-89500000D02*
X48879539Y-90753604D01*
X65328194Y-90371806D02*
X66371806Y-90371806D01*
X66371806Y-90371806D02*
X66400000Y-90400000D01*
X50600000Y-89500000D02*
X50133143Y-89500000D01*
X44000000Y-91100000D02*
X43200000Y-91900000D01*
%TO.N,Net-(D1-A)*%
X60402500Y-91600000D02*
X60402500Y-93372500D01*
X60402500Y-93372500D02*
X60075000Y-93700000D01*
%TD*%
%TA.AperFunction,Conductor*%
%TO.N,GND*%
G36*
X35993450Y-50558360D02*
G01*
X36018055Y-50560987D01*
X36119919Y-50582307D01*
X36149878Y-50588578D01*
X36173471Y-50596038D01*
X36302920Y-50651721D01*
X36314033Y-50657174D01*
X36343494Y-50673506D01*
X36357280Y-50681148D01*
X36357295Y-50681153D01*
X41076374Y-53296982D01*
X41092488Y-53305914D01*
X41134547Y-53344109D01*
X41155157Y-53397052D01*
X41149992Y-53453631D01*
X38421176Y-61628188D01*
X38391948Y-61675888D01*
X38344730Y-61705889D01*
X38289131Y-61712082D01*
X37718984Y-61645304D01*
X37718051Y-61645191D01*
X37628011Y-61633952D01*
X37458962Y-61645191D01*
X37444356Y-61646162D01*
X37266348Y-61692968D01*
X37100441Y-61772671D01*
X36952654Y-61882382D01*
X36952654Y-61882383D01*
X36828343Y-62018126D01*
X36732027Y-62174963D01*
X36667187Y-62347230D01*
X36636183Y-62528658D01*
X36640137Y-62712673D01*
X36678905Y-62892603D01*
X36751082Y-63061921D01*
X36854051Y-63214485D01*
X36984070Y-63344756D01*
X36984073Y-63344758D01*
X36984074Y-63344759D01*
X37136437Y-63448022D01*
X37164940Y-63460243D01*
X37195718Y-63473440D01*
X37214196Y-63483286D01*
X37615962Y-63743137D01*
X37653865Y-63781686D01*
X37671763Y-63832700D01*
X37666253Y-63886481D01*
X35637744Y-69970047D01*
X35630433Y-69982805D01*
X35616316Y-70033784D01*
X35614450Y-70039905D01*
X35608863Y-70056662D01*
X35608200Y-70060233D01*
X35607393Y-70077843D01*
X35606935Y-70084228D01*
X35601785Y-70136913D01*
X35604023Y-70151445D01*
X35217130Y-78601710D01*
X35215306Y-78641550D01*
X35214965Y-78648998D01*
X35214963Y-78649044D01*
X35209543Y-78766451D01*
X35226475Y-79015936D01*
X35271557Y-79261900D01*
X35344210Y-79501178D01*
X35443500Y-79730688D01*
X35568144Y-79947468D01*
X35642293Y-80047958D01*
X35642295Y-80047960D01*
X38753899Y-84268119D01*
X38761454Y-84279658D01*
X38763711Y-84283563D01*
X38766582Y-84286655D01*
X38775519Y-84297442D01*
X38778033Y-84300851D01*
X38781453Y-84303797D01*
X38791386Y-84313365D01*
X41596660Y-87334252D01*
X42048333Y-87820640D01*
X42053559Y-87826268D01*
X42053609Y-87826322D01*
X42136476Y-87915670D01*
X42136480Y-87915673D01*
X42297511Y-88039062D01*
X42476961Y-88133684D01*
X42669744Y-88196856D01*
X42842512Y-88222628D01*
X42870392Y-88226787D01*
X42870392Y-88226786D01*
X42870393Y-88226787D01*
X43073220Y-88222629D01*
X43272473Y-88184500D01*
X43462505Y-88113480D01*
X43637927Y-88011583D01*
X43793766Y-87881698D01*
X43925604Y-87727508D01*
X43976432Y-87642366D01*
X46885153Y-82777144D01*
X46892365Y-82766399D01*
X46980861Y-82648408D01*
X46998461Y-82629444D01*
X47104615Y-82536704D01*
X47125774Y-82521806D01*
X47248866Y-82453140D01*
X47272661Y-82442960D01*
X47407340Y-82401355D01*
X47432728Y-82396341D01*
X47573100Y-82383618D01*
X47598988Y-82383985D01*
X47738937Y-82400693D01*
X47764182Y-82406430D01*
X47897610Y-82451841D01*
X47921116Y-82462697D01*
X48047956Y-82538259D01*
X48058727Y-82545465D01*
X49719591Y-83787020D01*
X49760667Y-83840756D01*
X49767431Y-83908054D01*
X49515373Y-85324989D01*
X49515371Y-85324995D01*
X49515372Y-85324996D01*
X49506803Y-85373172D01*
X49500485Y-85408688D01*
X49500476Y-85408822D01*
X49490620Y-85464354D01*
X49486539Y-85649536D01*
X49510906Y-85833142D01*
X49563147Y-86010847D01*
X49642022Y-86178430D01*
X49642023Y-86178432D01*
X49642024Y-86178433D01*
X49745671Y-86331939D01*
X49745673Y-86331941D01*
X49745675Y-86331944D01*
X49871629Y-86467729D01*
X49871633Y-86467732D01*
X49871634Y-86467733D01*
X49996850Y-86566722D01*
X50016938Y-86582602D01*
X50065130Y-86609897D01*
X50065231Y-86609971D01*
X50077862Y-86617118D01*
X50077863Y-86617119D01*
X50096502Y-86627666D01*
X50097517Y-86628241D01*
X50132227Y-86647884D01*
X50146183Y-86655782D01*
X50146201Y-86655788D01*
X51422513Y-87378006D01*
X51440005Y-87387904D01*
X51440233Y-87388099D01*
X51484683Y-87413215D01*
X51484683Y-87413216D01*
X51565577Y-87458925D01*
X51739467Y-87524465D01*
X51921370Y-87562466D01*
X52106955Y-87572023D01*
X52291800Y-87552909D01*
X52471501Y-87505578D01*
X52578249Y-87458924D01*
X52641776Y-87431160D01*
X52641777Y-87431159D01*
X52641780Y-87431158D01*
X52798578Y-87331422D01*
X52840370Y-87294736D01*
X52840524Y-87294631D01*
X52851431Y-87285045D01*
X52851434Y-87285044D01*
X54235291Y-86068884D01*
X54279184Y-86043983D01*
X54329369Y-86038634D01*
X54377528Y-86053726D01*
X54569306Y-86160650D01*
X55275501Y-86518998D01*
X55369550Y-86566722D01*
X56185037Y-86941251D01*
X56796492Y-87193661D01*
X57014518Y-87283663D01*
X57018278Y-87285046D01*
X57380596Y-87418309D01*
X57435840Y-87458777D01*
X57461180Y-87522399D01*
X57448884Y-87589769D01*
X57402703Y-87640338D01*
X57295678Y-87706094D01*
X57171491Y-87829849D01*
X57079190Y-87978910D01*
X57023752Y-88145240D01*
X57013077Y-88247940D01*
X57012293Y-88697917D01*
X57862292Y-88699400D01*
X57862295Y-88699401D01*
X59212288Y-88701755D01*
X59213073Y-88251782D01*
X59206434Y-88185653D01*
X59214949Y-88126554D01*
X59250097Y-88078285D01*
X59303730Y-88052040D01*
X59363409Y-88053902D01*
X59574221Y-88113239D01*
X60047797Y-88226787D01*
X60446859Y-88322469D01*
X60446862Y-88322469D01*
X60446868Y-88322471D01*
X61327017Y-88497483D01*
X62213326Y-88638007D01*
X63104445Y-88743829D01*
X63999015Y-88814788D01*
X64895673Y-88850776D01*
X65785340Y-88851729D01*
X65793045Y-88851738D01*
X65793045Y-88851737D01*
X65793053Y-88851738D01*
X66689786Y-88817673D01*
X66689791Y-88817672D01*
X66689807Y-88817672D01*
X67481960Y-88756544D01*
X67584506Y-88748632D01*
X68475850Y-88644720D01*
X69362458Y-88506097D01*
X70242980Y-88332973D01*
X70615420Y-88244518D01*
X71116067Y-88125614D01*
X71412592Y-88042838D01*
X71980409Y-87884330D01*
X71980413Y-87884328D01*
X71980419Y-87884327D01*
X72834664Y-87609497D01*
X72878614Y-87593439D01*
X73061300Y-87526690D01*
X73130720Y-87522106D01*
X73191683Y-87555628D01*
X75730540Y-90103206D01*
X75757334Y-90143441D01*
X75766708Y-90190866D01*
X75756426Y-100009631D01*
X75739748Y-100071613D01*
X75694314Y-100116953D01*
X75632296Y-100133501D01*
X45945061Y-100102417D01*
X45934633Y-100101967D01*
X45902659Y-100099234D01*
X45881177Y-100107407D01*
X45864559Y-100112429D01*
X45842143Y-100117521D01*
X45817024Y-100137509D01*
X45808592Y-100143657D01*
X42468642Y-102369942D01*
X42404936Y-102390659D01*
X42339751Y-102375216D01*
X42330236Y-102369942D01*
X39685968Y-100904200D01*
X38936383Y-100488698D01*
X38890034Y-100443815D01*
X38872508Y-100381723D01*
X38869635Y-100140757D01*
X38858916Y-99241689D01*
X40240739Y-99241689D01*
X40259785Y-99495843D01*
X40316500Y-99744325D01*
X40409616Y-99981580D01*
X40537046Y-100202296D01*
X40537048Y-100202299D01*
X40537049Y-100202300D01*
X40695651Y-100401180D01*
X40695958Y-100401565D01*
X40882787Y-100574918D01*
X40882790Y-100574920D01*
X41093374Y-100718494D01*
X41323003Y-100829077D01*
X41566549Y-100904201D01*
X41818572Y-100942188D01*
X42073442Y-100942188D01*
X42325465Y-100904201D01*
X42569011Y-100829077D01*
X42798641Y-100718494D01*
X43009224Y-100574920D01*
X43196056Y-100401565D01*
X43354965Y-100202300D01*
X43482399Y-99981577D01*
X43575514Y-99744325D01*
X43632228Y-99495846D01*
X43651274Y-99241689D01*
X43632228Y-98987532D01*
X43575514Y-98739053D01*
X43482399Y-98501801D01*
X43480479Y-98498476D01*
X43354967Y-98281081D01*
X43327162Y-98246215D01*
X43196056Y-98081813D01*
X43185764Y-98072263D01*
X43009226Y-97908459D01*
X42848684Y-97799003D01*
X42798641Y-97764884D01*
X42798638Y-97764883D01*
X42798636Y-97764881D01*
X42569013Y-97654302D01*
X42569011Y-97654301D01*
X42325465Y-97579177D01*
X42073442Y-97541190D01*
X41818572Y-97541190D01*
X41566549Y-97579177D01*
X41323000Y-97654302D01*
X41093378Y-97764881D01*
X40882787Y-97908459D01*
X40695958Y-98081812D01*
X40537046Y-98281081D01*
X40409616Y-98501797D01*
X40316500Y-98739052D01*
X40259785Y-98987534D01*
X40240739Y-99241689D01*
X38858916Y-99241689D01*
X38831949Y-96979699D01*
X38832144Y-96971120D01*
X38834122Y-96936667D01*
X38826281Y-96917672D01*
X38820352Y-96899403D01*
X38815286Y-96878363D01*
X38800021Y-96852797D01*
X38783904Y-96838358D01*
X38770629Y-96824467D01*
X38757627Y-96808556D01*
X38726351Y-96793951D01*
X38718703Y-96790052D01*
X31151836Y-92595667D01*
X31114224Y-92563538D01*
X31092165Y-92519263D01*
X30918767Y-91871162D01*
X29051221Y-84890946D01*
X32553130Y-84890946D01*
X32572375Y-85098644D01*
X32629457Y-85299265D01*
X32722430Y-85485981D01*
X32848134Y-85652440D01*
X33002278Y-85792960D01*
X33002280Y-85792961D01*
X33002281Y-85792962D01*
X33179624Y-85902769D01*
X33278747Y-85941169D01*
X33320273Y-85967775D01*
X33348144Y-86008463D01*
X33357952Y-86056796D01*
X33357952Y-89963824D01*
X33357480Y-89974632D01*
X33354187Y-90012259D01*
X33363964Y-90048748D01*
X33366305Y-90059304D01*
X33373051Y-90097559D01*
X33383281Y-90122255D01*
X33383898Y-90123136D01*
X33405564Y-90154079D01*
X33411367Y-90163188D01*
X33430258Y-90195907D01*
X33459194Y-90220187D01*
X33467170Y-90227496D01*
X36355950Y-93116276D01*
X36363258Y-93124250D01*
X36387545Y-93153194D01*
X36411594Y-93167079D01*
X36420256Y-93172080D01*
X36429379Y-93177892D01*
X36460316Y-93199554D01*
X36460317Y-93199554D01*
X36461198Y-93200171D01*
X36485891Y-93210400D01*
X36486954Y-93210587D01*
X36486955Y-93210588D01*
X36524143Y-93217145D01*
X36534701Y-93219485D01*
X36571193Y-93229264D01*
X36608823Y-93225971D01*
X36619630Y-93225500D01*
X39969179Y-93225500D01*
X40026805Y-93239703D01*
X40071229Y-93279060D01*
X40109515Y-93334528D01*
X40109516Y-93334529D01*
X40109517Y-93334530D01*
X40227760Y-93439283D01*
X40367635Y-93512696D01*
X40521015Y-93550500D01*
X40678985Y-93550500D01*
X40832365Y-93512696D01*
X40972240Y-93439283D01*
X41090483Y-93334530D01*
X41180220Y-93204523D01*
X41236237Y-93056818D01*
X41240561Y-93021198D01*
X41262993Y-92963739D01*
X41310337Y-92924195D01*
X41370877Y-92912356D01*
X41429629Y-92931152D01*
X41441223Y-92938437D01*
X41441225Y-92938439D01*
X41584425Y-93028418D01*
X41744056Y-93084275D01*
X41912115Y-93103211D01*
X42080174Y-93084275D01*
X42239805Y-93028418D01*
X42383005Y-92938439D01*
X42502592Y-92818852D01*
X42592571Y-92675652D01*
X42633458Y-92558800D01*
X42673187Y-92502809D01*
X42736616Y-92476536D01*
X42804302Y-92488036D01*
X42855494Y-92533784D01*
X42874500Y-92599756D01*
X42874500Y-94596169D01*
X42855494Y-94662141D01*
X42804302Y-94707889D01*
X42736616Y-94719389D01*
X42673187Y-94693116D01*
X42633458Y-94637123D01*
X42624126Y-94610453D01*
X42592571Y-94520273D01*
X42502592Y-94377073D01*
X42383005Y-94257486D01*
X42239805Y-94167507D01*
X42080174Y-94111650D01*
X42080173Y-94111649D01*
X42080171Y-94111649D01*
X41912115Y-94092713D01*
X41744058Y-94111649D01*
X41584425Y-94167507D01*
X41441223Y-94257487D01*
X41321639Y-94377071D01*
X41231659Y-94520273D01*
X41175801Y-94679906D01*
X41156865Y-94847962D01*
X41175801Y-95016019D01*
X41175801Y-95016021D01*
X41175802Y-95016022D01*
X41231659Y-95175653D01*
X41321638Y-95318853D01*
X41441225Y-95438440D01*
X41584425Y-95528419D01*
X41744056Y-95584276D01*
X41912115Y-95603212D01*
X42080174Y-95584276D01*
X42239805Y-95528419D01*
X42358866Y-95453607D01*
X42425103Y-95434601D01*
X42491260Y-95453892D01*
X42536902Y-95505522D01*
X42547933Y-95573545D01*
X42544721Y-95599997D01*
X42563763Y-95756818D01*
X42619780Y-95904523D01*
X42709515Y-96034528D01*
X42709516Y-96034529D01*
X42709517Y-96034530D01*
X42827760Y-96139283D01*
X42967635Y-96212696D01*
X43121015Y-96250500D01*
X43278985Y-96250500D01*
X43432365Y-96212696D01*
X43572240Y-96139283D01*
X43690483Y-96034530D01*
X43780220Y-95904523D01*
X43836237Y-95756818D01*
X43850329Y-95640756D01*
X43877796Y-95576766D01*
X43935423Y-95537670D01*
X44005034Y-95535800D01*
X44064677Y-95571744D01*
X44095541Y-95634168D01*
X44101714Y-95669176D01*
X44111944Y-95693872D01*
X44112561Y-95694753D01*
X44134227Y-95725696D01*
X44140030Y-95734805D01*
X44158921Y-95767524D01*
X44187857Y-95791804D01*
X44195833Y-95799113D01*
X46785500Y-98388780D01*
X46792808Y-98396754D01*
X46817095Y-98425698D01*
X46833655Y-98435259D01*
X46849806Y-98444584D01*
X46858929Y-98450396D01*
X46889866Y-98472058D01*
X46889867Y-98472058D01*
X46890748Y-98472675D01*
X46915441Y-98482904D01*
X46916504Y-98483091D01*
X46916505Y-98483092D01*
X46953693Y-98489649D01*
X46964256Y-98491991D01*
X47000742Y-98501768D01*
X47000742Y-98501767D01*
X47000743Y-98501768D01*
X47038369Y-98498475D01*
X47049177Y-98498004D01*
X55701224Y-98498004D01*
X55767196Y-98517010D01*
X55812944Y-98568203D01*
X55824444Y-98635888D01*
X55804986Y-98808575D01*
X55823922Y-98976632D01*
X55823922Y-98976634D01*
X55823923Y-98976635D01*
X55879780Y-99136266D01*
X55969759Y-99279466D01*
X56089346Y-99399053D01*
X56232546Y-99489032D01*
X56392177Y-99544889D01*
X56560236Y-99563825D01*
X56728295Y-99544889D01*
X56887926Y-99489032D01*
X57031126Y-99399053D01*
X57150713Y-99279466D01*
X57240692Y-99136266D01*
X57296549Y-98976635D01*
X57315485Y-98808576D01*
X57296549Y-98640517D01*
X57240692Y-98480886D01*
X57151208Y-98338474D01*
X57132252Y-98275982D01*
X57147675Y-98212523D01*
X57193202Y-98165701D01*
X57256203Y-98148504D01*
X57888477Y-98148504D01*
X57935930Y-98157943D01*
X57976158Y-98184823D01*
X58296806Y-98505471D01*
X58330016Y-98565558D01*
X58326168Y-98634103D01*
X58323923Y-98640517D01*
X58304987Y-98808575D01*
X58323923Y-98976632D01*
X58323923Y-98976634D01*
X58323924Y-98976635D01*
X58379781Y-99136266D01*
X58469760Y-99279466D01*
X58589347Y-99399053D01*
X58732547Y-99489032D01*
X58892178Y-99544889D01*
X59060237Y-99563825D01*
X59228296Y-99544889D01*
X59387927Y-99489032D01*
X59531127Y-99399053D01*
X59650714Y-99279466D01*
X59740693Y-99136266D01*
X59796550Y-98976635D01*
X59815486Y-98808576D01*
X59796550Y-98640517D01*
X59740693Y-98480886D01*
X59650714Y-98337686D01*
X59531127Y-98218099D01*
X59387927Y-98128120D01*
X59228296Y-98072263D01*
X59228295Y-98072262D01*
X59228293Y-98072262D01*
X59060237Y-98053326D01*
X58892178Y-98072262D01*
X58885764Y-98074507D01*
X58817219Y-98078355D01*
X58757132Y-98045145D01*
X58722671Y-98010684D01*
X58692421Y-97961321D01*
X58687879Y-97903605D01*
X58710034Y-97850118D01*
X58754057Y-97812518D01*
X58810352Y-97799003D01*
X60038976Y-97799003D01*
X60086429Y-97808442D01*
X60126657Y-97835322D01*
X60796806Y-98505471D01*
X60830016Y-98565558D01*
X60826168Y-98634103D01*
X60823923Y-98640517D01*
X60804987Y-98808575D01*
X60823923Y-98976632D01*
X60823923Y-98976634D01*
X60823924Y-98976635D01*
X60879781Y-99136266D01*
X60969760Y-99279466D01*
X61089347Y-99399053D01*
X61232547Y-99489032D01*
X61392178Y-99544889D01*
X61560237Y-99563825D01*
X61728296Y-99544889D01*
X61887927Y-99489032D01*
X62031127Y-99399053D01*
X62150714Y-99279466D01*
X62240693Y-99136266D01*
X62296550Y-98976635D01*
X62315486Y-98808576D01*
X62296550Y-98640517D01*
X62240693Y-98480886D01*
X62150714Y-98337686D01*
X62031127Y-98218099D01*
X61887927Y-98128120D01*
X61728296Y-98072263D01*
X61728295Y-98072262D01*
X61728293Y-98072262D01*
X61560237Y-98053326D01*
X61392178Y-98072262D01*
X61385764Y-98074507D01*
X61317219Y-98078355D01*
X61257132Y-98045145D01*
X60873170Y-97661182D01*
X60842920Y-97611819D01*
X60838378Y-97554103D01*
X60860533Y-97500616D01*
X60904556Y-97463016D01*
X60960851Y-97449501D01*
X62189473Y-97449501D01*
X62236926Y-97458940D01*
X62277154Y-97485820D01*
X63296805Y-98505471D01*
X63330015Y-98565558D01*
X63326167Y-98634103D01*
X63323922Y-98640517D01*
X63304986Y-98808575D01*
X63323922Y-98976632D01*
X63323922Y-98976634D01*
X63323923Y-98976635D01*
X63379780Y-99136266D01*
X63469759Y-99279466D01*
X63589346Y-99399053D01*
X63732546Y-99489032D01*
X63892177Y-99544889D01*
X64060236Y-99563825D01*
X64228295Y-99544889D01*
X64387926Y-99489032D01*
X64531126Y-99399053D01*
X64650713Y-99279466D01*
X64740692Y-99136266D01*
X64796549Y-98976635D01*
X64815485Y-98808576D01*
X64796549Y-98640517D01*
X64740692Y-98480886D01*
X64650713Y-98337686D01*
X64531126Y-98218099D01*
X64387926Y-98128120D01*
X64228295Y-98072263D01*
X64228294Y-98072262D01*
X64228292Y-98072262D01*
X64060236Y-98053326D01*
X63892177Y-98072262D01*
X63885763Y-98074507D01*
X63817218Y-98078355D01*
X63757131Y-98045145D01*
X63023668Y-97311682D01*
X62993418Y-97262319D01*
X62988876Y-97204603D01*
X63011031Y-97151116D01*
X63055054Y-97113516D01*
X63111349Y-97100001D01*
X64440825Y-97100001D01*
X64488278Y-97109440D01*
X64528506Y-97136320D01*
X66108045Y-98715859D01*
X66132084Y-98749738D01*
X66143584Y-98789655D01*
X66163686Y-98968056D01*
X66163686Y-98968058D01*
X66163687Y-98968059D01*
X66219544Y-99127690D01*
X66309523Y-99270890D01*
X66429110Y-99390477D01*
X66572310Y-99480456D01*
X66731941Y-99536313D01*
X66900000Y-99555249D01*
X67068059Y-99536313D01*
X67227690Y-99480456D01*
X67370890Y-99390477D01*
X67490477Y-99270890D01*
X67580456Y-99127690D01*
X67636313Y-98968059D01*
X67655249Y-98800000D01*
X67636313Y-98631941D01*
X67580456Y-98472310D01*
X67490477Y-98329110D01*
X67370890Y-98209523D01*
X67227690Y-98119544D01*
X67068059Y-98063687D01*
X67068058Y-98063686D01*
X67068056Y-98063686D01*
X66889655Y-98043584D01*
X66849738Y-98032084D01*
X66815859Y-98008045D01*
X66514213Y-97706399D01*
X71604801Y-97706399D01*
X71624567Y-97957548D01*
X71683376Y-98202509D01*
X71701480Y-98246215D01*
X71779784Y-98435258D01*
X71911414Y-98650058D01*
X72075026Y-98841623D01*
X72266591Y-99005235D01*
X72481391Y-99136865D01*
X72714139Y-99233272D01*
X72959102Y-99292082D01*
X73210250Y-99311848D01*
X73461398Y-99292082D01*
X73706361Y-99233272D01*
X73939109Y-99136865D01*
X74153909Y-99005235D01*
X74345474Y-98841623D01*
X74509086Y-98650058D01*
X74640716Y-98435258D01*
X74737123Y-98202510D01*
X74795933Y-97957547D01*
X74815699Y-97706399D01*
X74795933Y-97455251D01*
X74737123Y-97210288D01*
X74640716Y-96977540D01*
X74509086Y-96762740D01*
X74345474Y-96571175D01*
X74153909Y-96407563D01*
X73939109Y-96275933D01*
X73786441Y-96212696D01*
X73706360Y-96179525D01*
X73461399Y-96120716D01*
X73210250Y-96100950D01*
X72959100Y-96120716D01*
X72714139Y-96179525D01*
X72481389Y-96275934D01*
X72266592Y-96407562D01*
X72075026Y-96571175D01*
X71911413Y-96762741D01*
X71779785Y-96977538D01*
X71683376Y-97210288D01*
X71624567Y-97455249D01*
X71604801Y-97706399D01*
X66514213Y-97706399D01*
X65419995Y-96612181D01*
X65389745Y-96562818D01*
X65385203Y-96505102D01*
X65407358Y-96451615D01*
X65451381Y-96414015D01*
X65507676Y-96400500D01*
X66033994Y-96400500D01*
X66091935Y-96414870D01*
X66136447Y-96454648D01*
X66157214Y-96510616D01*
X66163686Y-96568056D01*
X66163686Y-96568058D01*
X66163687Y-96568059D01*
X66219544Y-96727690D01*
X66309523Y-96870890D01*
X66429110Y-96990477D01*
X66572310Y-97080456D01*
X66731941Y-97136313D01*
X66900000Y-97155249D01*
X67068059Y-97136313D01*
X67227690Y-97080456D01*
X67370890Y-96990477D01*
X67490477Y-96870890D01*
X67580456Y-96727690D01*
X67636313Y-96568059D01*
X67655249Y-96400000D01*
X67636313Y-96231941D01*
X67580456Y-96072310D01*
X67490477Y-95929110D01*
X67370890Y-95809523D01*
X67227690Y-95719544D01*
X67068059Y-95663687D01*
X67068058Y-95663686D01*
X67068056Y-95663686D01*
X66889655Y-95643584D01*
X66849738Y-95632084D01*
X66815859Y-95608045D01*
X66801385Y-95593571D01*
X66784749Y-95572927D01*
X66782142Y-95568870D01*
X66744615Y-95536354D01*
X66738135Y-95530321D01*
X66728593Y-95520779D01*
X66717786Y-95512689D01*
X66710907Y-95507147D01*
X66673373Y-95474623D01*
X66673372Y-95474622D01*
X66668987Y-95472620D01*
X66646194Y-95459095D01*
X66642331Y-95456204D01*
X66642329Y-95456203D01*
X66595790Y-95438845D01*
X66587622Y-95435461D01*
X66565004Y-95425132D01*
X66542458Y-95414835D01*
X66541603Y-95414712D01*
X66537676Y-95414147D01*
X66512001Y-95407594D01*
X66507483Y-95405909D01*
X66457947Y-95402365D01*
X66449153Y-95401419D01*
X66435803Y-95399500D01*
X66435799Y-95399500D01*
X66422308Y-95399500D01*
X66413461Y-95399184D01*
X66363926Y-95395640D01*
X66359214Y-95396666D01*
X66332856Y-95399500D01*
X53222828Y-95399500D01*
X53175375Y-95390061D01*
X53135147Y-95363181D01*
X52704068Y-94932102D01*
X52680029Y-94898223D01*
X52668529Y-94858304D01*
X52651581Y-94707889D01*
X52648428Y-94679904D01*
X52592571Y-94520273D01*
X52502592Y-94377073D01*
X52383005Y-94257486D01*
X52239805Y-94167507D01*
X52080174Y-94111650D01*
X52080173Y-94111649D01*
X52080171Y-94111649D01*
X51912115Y-94092713D01*
X51744058Y-94111649D01*
X51584425Y-94167507D01*
X51441223Y-94257487D01*
X51321639Y-94377071D01*
X51231659Y-94520273D01*
X51175801Y-94679906D01*
X51156865Y-94847962D01*
X51175801Y-95016019D01*
X51175801Y-95016021D01*
X51175802Y-95016022D01*
X51231659Y-95175653D01*
X51321638Y-95318853D01*
X51441225Y-95438440D01*
X51584425Y-95528419D01*
X51744056Y-95584276D01*
X51912115Y-95603212D01*
X51912115Y-95603211D01*
X51922456Y-95604377D01*
X51962375Y-95615877D01*
X51996254Y-95639916D01*
X52243658Y-95887320D01*
X52273908Y-95936683D01*
X52278450Y-95994399D01*
X52256295Y-96047886D01*
X52212272Y-96085486D01*
X52155977Y-96099001D01*
X51422329Y-96099001D01*
X51374876Y-96089562D01*
X51334648Y-96062682D01*
X50204068Y-94932102D01*
X50180029Y-94898223D01*
X50168529Y-94858304D01*
X50151581Y-94707889D01*
X50148428Y-94679904D01*
X50092571Y-94520273D01*
X50002592Y-94377073D01*
X49883005Y-94257486D01*
X49739805Y-94167507D01*
X49580174Y-94111650D01*
X49580173Y-94111649D01*
X49580171Y-94111649D01*
X49412115Y-94092713D01*
X49244058Y-94111649D01*
X49084425Y-94167507D01*
X48941223Y-94257487D01*
X48821639Y-94377071D01*
X48731659Y-94520273D01*
X48675801Y-94679906D01*
X48656865Y-94847962D01*
X48675801Y-95016019D01*
X48675801Y-95016021D01*
X48675802Y-95016022D01*
X48731659Y-95175653D01*
X48821638Y-95318853D01*
X48941225Y-95438440D01*
X49084425Y-95528419D01*
X49244056Y-95584276D01*
X49412115Y-95603212D01*
X49412115Y-95603211D01*
X49422456Y-95604377D01*
X49462375Y-95615877D01*
X49496254Y-95639916D01*
X50443158Y-96586820D01*
X50473408Y-96636183D01*
X50477950Y-96693899D01*
X50455795Y-96747386D01*
X50411772Y-96784986D01*
X50355477Y-96798501D01*
X49374341Y-96798501D01*
X49326888Y-96789062D01*
X49286660Y-96762182D01*
X47675545Y-95151067D01*
X47642334Y-95090976D01*
X47646185Y-95022429D01*
X47648428Y-95016022D01*
X47667364Y-94847963D01*
X47648428Y-94679904D01*
X47592571Y-94520273D01*
X47502592Y-94377073D01*
X47383005Y-94257486D01*
X47239805Y-94167507D01*
X47080174Y-94111650D01*
X47080173Y-94111649D01*
X47080171Y-94111649D01*
X46912115Y-94092713D01*
X46744058Y-94111649D01*
X46584425Y-94167507D01*
X46441223Y-94257487D01*
X46437181Y-94261530D01*
X46387818Y-94291780D01*
X46330102Y-94296322D01*
X46276615Y-94274167D01*
X46239015Y-94230144D01*
X46225500Y-94173849D01*
X46225500Y-93984174D01*
X59349500Y-93984174D01*
X59355749Y-94042299D01*
X59404788Y-94173778D01*
X59488884Y-94286116D01*
X59601222Y-94370212D01*
X59732701Y-94419251D01*
X59790826Y-94425500D01*
X60459170Y-94425500D01*
X60459174Y-94425500D01*
X60517299Y-94419251D01*
X60648778Y-94370212D01*
X60761116Y-94286116D01*
X60761118Y-94286113D01*
X60772151Y-94277854D01*
X60835436Y-94253612D01*
X60902015Y-94266261D01*
X60952001Y-94312024D01*
X61005056Y-94398040D01*
X61126959Y-94519943D01*
X61273698Y-94610453D01*
X61437348Y-94664681D01*
X61538353Y-94675000D01*
X61625000Y-94675000D01*
X61625000Y-93950000D01*
X62125000Y-93950000D01*
X62125000Y-94674999D01*
X62211647Y-94674999D01*
X62312650Y-94664681D01*
X62476301Y-94610453D01*
X62623040Y-94519943D01*
X62744943Y-94398040D01*
X62835453Y-94251301D01*
X62889681Y-94087651D01*
X62900000Y-93986647D01*
X62900000Y-93950000D01*
X62125000Y-93950000D01*
X61625000Y-93950000D01*
X61625000Y-92725001D01*
X61538353Y-92725001D01*
X61437349Y-92735318D01*
X61273698Y-92789546D01*
X61126959Y-92880056D01*
X61005054Y-93001961D01*
X60957538Y-93078997D01*
X60911484Y-93122701D01*
X60849836Y-93137881D01*
X60788755Y-93120558D01*
X60744254Y-93075274D01*
X60728000Y-93013900D01*
X60728000Y-92231483D01*
X60746273Y-92166693D01*
X60795706Y-92120998D01*
X60844294Y-92096241D01*
X60912319Y-92028217D01*
X60967906Y-91996123D01*
X61032094Y-91996123D01*
X61087681Y-92028217D01*
X61155704Y-92096240D01*
X61155706Y-92096241D01*
X61271567Y-92155275D01*
X61367693Y-92170500D01*
X61656311Y-92170499D01*
X61703764Y-92179938D01*
X61743992Y-92206818D01*
X62105906Y-92568732D01*
X62138000Y-92624319D01*
X62138000Y-92688507D01*
X62125000Y-92711023D01*
X62125000Y-93450000D01*
X62899999Y-93450000D01*
X62899999Y-93413355D01*
X62894763Y-93362102D01*
X62906776Y-93294926D01*
X62952513Y-93244278D01*
X63018121Y-93225500D01*
X63149636Y-93225500D01*
X63209617Y-93240972D01*
X63254628Y-93283526D01*
X63309523Y-93370890D01*
X63429110Y-93490477D01*
X63572310Y-93580456D01*
X63731941Y-93636313D01*
X63900000Y-93655249D01*
X64068059Y-93636313D01*
X64227690Y-93580456D01*
X64370890Y-93490477D01*
X64490477Y-93370890D01*
X64580456Y-93227690D01*
X64636313Y-93068059D01*
X64655249Y-92900000D01*
X65644750Y-92900000D01*
X65663686Y-93068056D01*
X65663686Y-93068058D01*
X65663687Y-93068059D01*
X65719544Y-93227690D01*
X65809523Y-93370890D01*
X65929110Y-93490477D01*
X66072310Y-93580456D01*
X66231941Y-93636313D01*
X66400000Y-93655249D01*
X66568059Y-93636313D01*
X66727690Y-93580456D01*
X66870890Y-93490477D01*
X66990477Y-93370890D01*
X67080456Y-93227690D01*
X67136313Y-93068059D01*
X67155249Y-92900000D01*
X67136313Y-92731941D01*
X67080456Y-92572310D01*
X66990477Y-92429110D01*
X66976472Y-92415105D01*
X69178565Y-92415105D01*
X69197611Y-92669260D01*
X69254326Y-92917742D01*
X69347442Y-93154997D01*
X69474872Y-93375713D01*
X69474874Y-93375716D01*
X69474875Y-93375717D01*
X69506861Y-93415826D01*
X69633784Y-93574982D01*
X69820613Y-93748335D01*
X69820616Y-93748337D01*
X70031200Y-93891911D01*
X70260829Y-94002494D01*
X70504375Y-94077618D01*
X70756398Y-94115605D01*
X71011268Y-94115605D01*
X71263291Y-94077618D01*
X71506837Y-94002494D01*
X71736467Y-93891911D01*
X71947050Y-93748337D01*
X72133882Y-93574982D01*
X72292791Y-93375717D01*
X72420225Y-93154994D01*
X72513340Y-92917742D01*
X72570054Y-92669263D01*
X72589100Y-92415106D01*
X72570054Y-92160949D01*
X72513340Y-91912470D01*
X72420225Y-91675218D01*
X72415772Y-91667506D01*
X72292793Y-91454498D01*
X72270044Y-91425972D01*
X72133882Y-91255230D01*
X72100181Y-91223960D01*
X71947052Y-91081876D01*
X71819645Y-90995011D01*
X71736467Y-90938301D01*
X71736464Y-90938300D01*
X71736462Y-90938298D01*
X71506839Y-90827719D01*
X71506837Y-90827718D01*
X71263291Y-90752594D01*
X71011268Y-90714607D01*
X70756398Y-90714607D01*
X70504375Y-90752594D01*
X70307442Y-90813340D01*
X70260826Y-90827719D01*
X70031204Y-90938298D01*
X69820613Y-91081876D01*
X69633784Y-91255229D01*
X69474872Y-91454498D01*
X69347442Y-91675214D01*
X69254326Y-91912469D01*
X69197611Y-92160951D01*
X69178565Y-92415105D01*
X66976472Y-92415105D01*
X66870890Y-92309523D01*
X66727690Y-92219544D01*
X66568059Y-92163687D01*
X66568058Y-92163686D01*
X66568056Y-92163686D01*
X66400000Y-92144750D01*
X66231943Y-92163686D01*
X66072310Y-92219544D01*
X65929108Y-92309524D01*
X65809524Y-92429108D01*
X65719544Y-92572310D01*
X65663686Y-92731943D01*
X65644750Y-92900000D01*
X64655249Y-92900000D01*
X64636313Y-92731941D01*
X64580456Y-92572310D01*
X64490477Y-92429110D01*
X64370890Y-92309523D01*
X64227690Y-92219544D01*
X64068059Y-92163687D01*
X64068058Y-92163686D01*
X64068056Y-92163686D01*
X63900000Y-92144750D01*
X63731943Y-92163686D01*
X63572310Y-92219544D01*
X63429108Y-92309524D01*
X63309524Y-92429108D01*
X63309522Y-92429110D01*
X63309523Y-92429110D01*
X63267096Y-92496633D01*
X63254630Y-92516472D01*
X63209617Y-92559028D01*
X63149636Y-92574500D01*
X63083688Y-92574500D01*
X63036235Y-92565061D01*
X62996007Y-92538181D01*
X62241818Y-91783992D01*
X62214938Y-91743764D01*
X62205499Y-91696311D01*
X62205499Y-91407698D01*
X62205499Y-91407694D01*
X62190275Y-91311567D01*
X62145148Y-91223000D01*
X62131241Y-91195705D01*
X62039295Y-91103759D01*
X61923431Y-91044724D01*
X61827309Y-91029500D01*
X61367697Y-91029500D01*
X61319630Y-91037112D01*
X61271567Y-91044725D01*
X61271565Y-91044725D01*
X61271564Y-91044726D01*
X61155705Y-91103758D01*
X61087681Y-91171783D01*
X61032094Y-91203877D01*
X60967906Y-91203877D01*
X60912319Y-91171783D01*
X60844295Y-91103759D01*
X60728431Y-91044724D01*
X60632309Y-91029500D01*
X60172697Y-91029500D01*
X60124630Y-91037112D01*
X60076567Y-91044725D01*
X60076565Y-91044725D01*
X60076564Y-91044726D01*
X59960705Y-91103758D01*
X59868759Y-91195704D01*
X59809724Y-91311568D01*
X59794500Y-91407690D01*
X59794500Y-91792309D01*
X59809724Y-91888432D01*
X59868758Y-92004294D01*
X59960705Y-92096241D01*
X60009294Y-92120998D01*
X60058727Y-92166693D01*
X60077000Y-92231483D01*
X60077000Y-92850500D01*
X60060387Y-92912500D01*
X60015000Y-92957887D01*
X59953000Y-92974500D01*
X59790826Y-92974500D01*
X59746914Y-92979221D01*
X59732700Y-92980749D01*
X59601222Y-93029788D01*
X59488884Y-93113884D01*
X59404788Y-93226222D01*
X59386107Y-93276309D01*
X59355749Y-93357701D01*
X59349500Y-93415826D01*
X59349500Y-93984174D01*
X46225500Y-93984174D01*
X46225500Y-93646265D01*
X46234939Y-93598812D01*
X46261819Y-93558584D01*
X46370403Y-93450000D01*
X46610364Y-93210038D01*
X48903591Y-93210038D01*
X49027580Y-93276311D01*
X49216084Y-93333493D01*
X49412115Y-93352800D01*
X49608145Y-93333493D01*
X49796653Y-93276309D01*
X49920637Y-93210039D01*
X49920637Y-93210038D01*
X49412116Y-92701515D01*
X49412115Y-92701515D01*
X48903591Y-93210038D01*
X46610364Y-93210038D01*
X46709011Y-93111390D01*
X46769098Y-93078182D01*
X46837645Y-93082031D01*
X46844056Y-93084275D01*
X46931174Y-93094091D01*
X47012114Y-93103211D01*
X47012114Y-93103210D01*
X47012115Y-93103211D01*
X47180174Y-93084275D01*
X47339805Y-93028418D01*
X47483005Y-92938439D01*
X47602592Y-92818852D01*
X47692571Y-92675652D01*
X47748428Y-92516021D01*
X47767364Y-92347962D01*
X47767364Y-92347961D01*
X48407276Y-92347961D01*
X48426583Y-92543994D01*
X48483765Y-92732499D01*
X48550036Y-92856484D01*
X48550037Y-92856484D01*
X49058561Y-92347961D01*
X49765668Y-92347961D01*
X50274192Y-92856485D01*
X50340462Y-92732500D01*
X50397646Y-92543992D01*
X50416953Y-92347962D01*
X51156865Y-92347962D01*
X51175801Y-92516018D01*
X51175801Y-92516020D01*
X51175802Y-92516021D01*
X51231659Y-92675652D01*
X51321638Y-92818852D01*
X51441225Y-92938439D01*
X51584425Y-93028418D01*
X51744056Y-93084275D01*
X51819885Y-93092819D01*
X51912113Y-93103211D01*
X51912113Y-93103210D01*
X51912115Y-93103211D01*
X52012461Y-93091904D01*
X52038719Y-93095135D01*
X52038885Y-93092819D01*
X52056669Y-93094090D01*
X52056670Y-93094091D01*
X52106202Y-93097633D01*
X52114990Y-93098578D01*
X52128354Y-93100500D01*
X52141845Y-93100500D01*
X52150691Y-93100815D01*
X52200226Y-93104359D01*
X52204939Y-93103334D01*
X52231297Y-93100500D01*
X54871975Y-93100500D01*
X54898333Y-93103334D01*
X54903045Y-93104359D01*
X54903045Y-93104358D01*
X54903046Y-93104359D01*
X54952580Y-93100815D01*
X54961427Y-93100500D01*
X54974916Y-93100500D01*
X54974918Y-93100500D01*
X54988278Y-93098578D01*
X54997070Y-93097633D01*
X55046602Y-93094091D01*
X55051120Y-93092405D01*
X55076800Y-93085851D01*
X55081576Y-93085165D01*
X55126756Y-93064530D01*
X55134910Y-93061153D01*
X55181450Y-93043796D01*
X55185308Y-93040907D01*
X55208116Y-93027375D01*
X55212492Y-93025377D01*
X55250025Y-92992853D01*
X55256901Y-92987313D01*
X55267712Y-92979221D01*
X55277274Y-92969658D01*
X55283722Y-92963654D01*
X55321262Y-92931128D01*
X55323870Y-92927069D01*
X55340501Y-92906430D01*
X55501637Y-92745294D01*
X57055229Y-92745294D01*
X57057717Y-92745103D01*
X57215507Y-92699560D01*
X57357011Y-92616208D01*
X57473339Y-92500286D01*
X57557185Y-92359073D01*
X57603278Y-92201446D01*
X57606242Y-92164602D01*
X57607011Y-91723960D01*
X57057013Y-91723000D01*
X57055229Y-92745294D01*
X55501637Y-92745294D01*
X55714305Y-92532626D01*
X55754630Y-92505708D01*
X55802195Y-92496310D01*
X55987179Y-92496633D01*
X56054064Y-92486160D01*
X56111770Y-92490803D01*
X56161080Y-92521139D01*
X56253898Y-92614283D01*
X56395111Y-92698128D01*
X56552741Y-92744222D01*
X56555229Y-92744422D01*
X56557014Y-91722128D01*
X56559669Y-90199834D01*
X56557181Y-90200025D01*
X56399392Y-90245569D01*
X56257888Y-90328921D01*
X56164746Y-90421739D01*
X56115330Y-90451903D01*
X56057606Y-90456344D01*
X55990762Y-90445637D01*
X55627719Y-90445004D01*
X55533913Y-90459693D01*
X55420771Y-90517094D01*
X55359155Y-90578496D01*
X55330909Y-90606644D01*
X55287158Y-90692139D01*
X55273114Y-90719583D01*
X55258097Y-90813336D01*
X55256858Y-91523300D01*
X55247378Y-91570636D01*
X55220539Y-91610764D01*
X54768124Y-92063181D01*
X54727896Y-92090061D01*
X54680443Y-92099500D01*
X52708277Y-92099500D01*
X52658691Y-92089154D01*
X52617380Y-92059843D01*
X52600482Y-92031801D01*
X52600004Y-92032102D01*
X52576319Y-91994408D01*
X52502592Y-91877072D01*
X52383005Y-91757485D01*
X52239805Y-91667506D01*
X52080174Y-91611649D01*
X52080173Y-91611648D01*
X52080171Y-91611648D01*
X51912115Y-91592712D01*
X51744058Y-91611648D01*
X51584425Y-91667506D01*
X51441223Y-91757486D01*
X51321639Y-91877070D01*
X51231659Y-92020272D01*
X51175801Y-92179905D01*
X51156865Y-92347962D01*
X50416953Y-92347962D01*
X50416953Y-92347961D01*
X50397646Y-92151931D01*
X50340464Y-91963427D01*
X50274191Y-91839438D01*
X49765668Y-92347960D01*
X49765668Y-92347961D01*
X49058561Y-92347961D01*
X49058561Y-92347960D01*
X48550038Y-91839437D01*
X48550037Y-91839438D01*
X48483764Y-91963428D01*
X48426583Y-92151929D01*
X48407276Y-92347961D01*
X47767364Y-92347961D01*
X47748428Y-92179903D01*
X47692571Y-92020272D01*
X47602592Y-91877072D01*
X47483005Y-91757485D01*
X47339805Y-91667506D01*
X47337047Y-91666541D01*
X47281056Y-91626813D01*
X47254783Y-91563384D01*
X47266283Y-91495699D01*
X47275054Y-91485884D01*
X48903591Y-91485884D01*
X49412115Y-91994408D01*
X49412116Y-91994408D01*
X49920637Y-91485884D01*
X49920637Y-91485883D01*
X49796652Y-91419612D01*
X49608147Y-91362430D01*
X49412114Y-91343123D01*
X49216082Y-91362430D01*
X49027581Y-91419611D01*
X48903591Y-91485884D01*
X47275054Y-91485884D01*
X47312031Y-91444506D01*
X47378003Y-91425500D01*
X47546659Y-91425500D01*
X47557466Y-91425971D01*
X47595093Y-91429264D01*
X47631610Y-91419478D01*
X47642116Y-91417149D01*
X47679331Y-91410588D01*
X47679333Y-91410586D01*
X47680398Y-91410399D01*
X47705085Y-91400173D01*
X47705968Y-91399554D01*
X47705970Y-91399554D01*
X47736911Y-91377887D01*
X47746008Y-91372091D01*
X47778741Y-91353194D01*
X47803034Y-91324241D01*
X47810310Y-91316300D01*
X48011191Y-91115420D01*
X48051418Y-91088543D01*
X48098870Y-91079104D01*
X48859912Y-91079104D01*
X48870719Y-91079575D01*
X48908346Y-91082868D01*
X48944863Y-91073082D01*
X48955369Y-91070753D01*
X48992584Y-91064192D01*
X48992586Y-91064190D01*
X48993651Y-91064003D01*
X49018338Y-91053777D01*
X49019221Y-91053158D01*
X49019223Y-91053158D01*
X49050164Y-91031491D01*
X49059261Y-91025695D01*
X49091994Y-91006798D01*
X49116287Y-90977845D01*
X49123575Y-90969892D01*
X49749481Y-90343986D01*
X54759417Y-90343986D01*
X54909393Y-90344248D01*
X55012130Y-90333934D01*
X55178653Y-90279077D01*
X55328034Y-90187297D01*
X55452223Y-90063541D01*
X55544524Y-89914480D01*
X55599962Y-89748150D01*
X55610383Y-89647893D01*
X57010636Y-89647893D01*
X57020950Y-89750630D01*
X57075807Y-89917153D01*
X57132059Y-90008709D01*
X57150407Y-90073573D01*
X57132110Y-90138451D01*
X57082575Y-90184171D01*
X57076273Y-90185414D01*
X57059669Y-90200706D01*
X57057885Y-91223000D01*
X57607883Y-91223960D01*
X57608653Y-90783322D01*
X57605817Y-90746464D01*
X57560275Y-90588679D01*
X57524926Y-90528668D01*
X57507791Y-90463335D01*
X57527049Y-90399999D01*
X63144750Y-90399999D01*
X63163686Y-90568056D01*
X63163686Y-90568058D01*
X63163687Y-90568059D01*
X63219544Y-90727690D01*
X63309523Y-90870890D01*
X63429110Y-90990477D01*
X63572310Y-91080456D01*
X63731941Y-91136313D01*
X63900000Y-91155249D01*
X64068059Y-91136313D01*
X64227690Y-91080456D01*
X64370890Y-90990477D01*
X64490477Y-90870890D01*
X64577047Y-90733114D01*
X64620889Y-90691216D01*
X64679362Y-90675119D01*
X64738476Y-90688678D01*
X64784088Y-90728650D01*
X64837709Y-90806334D01*
X64837710Y-90806335D01*
X64837711Y-90806336D01*
X64955954Y-90911089D01*
X65095829Y-90984502D01*
X65249209Y-91022306D01*
X65407179Y-91022306D01*
X65560559Y-90984502D01*
X65700434Y-90911089D01*
X65700436Y-90911087D01*
X65713764Y-90904092D01*
X65715104Y-90906646D01*
X65747192Y-90890211D01*
X65808942Y-90892072D01*
X65862130Y-90923497D01*
X65929110Y-90990477D01*
X66072310Y-91080456D01*
X66231941Y-91136313D01*
X66400000Y-91155249D01*
X66568059Y-91136313D01*
X66727690Y-91080456D01*
X66870890Y-90990477D01*
X66990477Y-90870890D01*
X67080456Y-90727690D01*
X67136313Y-90568059D01*
X67155249Y-90400000D01*
X67136313Y-90231941D01*
X67080456Y-90072310D01*
X66990477Y-89929110D01*
X66870890Y-89809523D01*
X66727690Y-89719544D01*
X66568059Y-89663687D01*
X66568058Y-89663686D01*
X66568056Y-89663686D01*
X66400000Y-89644750D01*
X66231943Y-89663686D01*
X66072310Y-89719543D01*
X66072310Y-89719544D01*
X65937068Y-89804523D01*
X65929107Y-89809525D01*
X65892029Y-89846603D01*
X65838848Y-89878025D01*
X65777106Y-89879891D01*
X65722124Y-89851738D01*
X65700435Y-89832524D01*
X65700434Y-89832523D01*
X65619220Y-89789898D01*
X65560558Y-89759109D01*
X65407179Y-89721306D01*
X65249209Y-89721306D01*
X65095829Y-89759109D01*
X64955955Y-89832522D01*
X64837711Y-89937276D01*
X64765541Y-90041832D01*
X64719928Y-90081803D01*
X64660816Y-90095362D01*
X64602343Y-90079265D01*
X64558498Y-90037364D01*
X64528235Y-89989201D01*
X64490477Y-89929110D01*
X64370890Y-89809523D01*
X64227690Y-89719544D01*
X64068059Y-89663687D01*
X64068058Y-89663686D01*
X64068056Y-89663686D01*
X63900000Y-89644750D01*
X63731943Y-89663686D01*
X63572310Y-89719544D01*
X63429108Y-89809524D01*
X63309524Y-89929108D01*
X63219544Y-90072310D01*
X63163686Y-90231943D01*
X63144750Y-90399999D01*
X57527049Y-90399999D01*
X57527440Y-90398713D01*
X57578044Y-90353976D01*
X57599348Y-90350269D01*
X58359412Y-90350269D01*
X58509388Y-90350531D01*
X58612125Y-90340217D01*
X58778648Y-90285360D01*
X58928029Y-90193580D01*
X59052218Y-90069824D01*
X59144519Y-89920763D01*
X59199957Y-89754433D01*
X59210632Y-89651732D01*
X59211415Y-89201755D01*
X58361418Y-89200272D01*
X58359412Y-90350269D01*
X57599348Y-90350269D01*
X57644587Y-90342397D01*
X57709435Y-90349136D01*
X57859411Y-90349397D01*
X57861418Y-89199400D01*
X57011420Y-89197917D01*
X57010636Y-89647893D01*
X55610383Y-89647893D01*
X55610637Y-89645449D01*
X55611420Y-89195472D01*
X54761423Y-89193989D01*
X54759417Y-90343986D01*
X49749481Y-90343986D01*
X50053186Y-90040281D01*
X50106365Y-90008860D01*
X50168107Y-90006994D01*
X50223089Y-90035146D01*
X50227759Y-90039283D01*
X50367633Y-90112696D01*
X50521015Y-90150500D01*
X50678985Y-90150500D01*
X50832365Y-90112696D01*
X50972240Y-90039283D01*
X51090483Y-89934530D01*
X51180220Y-89804523D01*
X51236237Y-89656818D01*
X51238084Y-89641608D01*
X53410641Y-89641608D01*
X53420955Y-89744347D01*
X53475812Y-89910870D01*
X53567592Y-90060251D01*
X53691348Y-90184440D01*
X53840409Y-90276741D01*
X54006739Y-90332180D01*
X54109438Y-90342853D01*
X54259416Y-90343114D01*
X54261423Y-89193117D01*
X53411425Y-89191634D01*
X53410641Y-89641608D01*
X51238084Y-89641608D01*
X51255278Y-89500000D01*
X51236237Y-89343182D01*
X51180220Y-89195477D01*
X51090483Y-89065470D01*
X50972240Y-88960717D01*
X50958994Y-88953764D01*
X50832364Y-88887303D01*
X50678985Y-88849500D01*
X50521015Y-88849500D01*
X50367635Y-88887303D01*
X50227758Y-88960718D01*
X50109518Y-89065467D01*
X50047449Y-89155390D01*
X50016874Y-89186277D01*
X50007265Y-89190778D01*
X49962523Y-89222106D01*
X49953407Y-89227914D01*
X49920688Y-89246805D01*
X49896405Y-89275744D01*
X49889099Y-89283716D01*
X48781032Y-90391785D01*
X48740804Y-90418665D01*
X48693351Y-90428104D01*
X47965449Y-90428104D01*
X47907824Y-90413901D01*
X47863399Y-90374544D01*
X47842353Y-90319051D01*
X47837499Y-90279077D01*
X47836237Y-90268682D01*
X47780220Y-90120977D01*
X47702832Y-90008860D01*
X47690484Y-89990971D01*
X47680024Y-89981704D01*
X47572240Y-89886217D01*
X47504870Y-89850858D01*
X47432364Y-89812803D01*
X47278985Y-89775000D01*
X47121015Y-89775000D01*
X46967633Y-89812803D01*
X46827759Y-89886217D01*
X46819183Y-89893815D01*
X46780927Y-89916942D01*
X46736956Y-89925000D01*
X43341644Y-89925000D01*
X43315286Y-89922166D01*
X43310573Y-89921140D01*
X43261039Y-89924684D01*
X43252192Y-89925000D01*
X43238701Y-89925000D01*
X43225337Y-89926920D01*
X43216553Y-89927865D01*
X43167013Y-89931409D01*
X43162490Y-89933096D01*
X43136823Y-89939647D01*
X43132045Y-89940334D01*
X43086865Y-89960966D01*
X43078691Y-89964351D01*
X43032168Y-89981703D01*
X43028302Y-89984598D01*
X43005519Y-89998116D01*
X43001127Y-90000123D01*
X42963588Y-90032649D01*
X42956716Y-90038188D01*
X42945904Y-90046282D01*
X42936362Y-90055823D01*
X42929894Y-90061844D01*
X42892356Y-90094372D01*
X42889745Y-90098435D01*
X42873114Y-90119071D01*
X41605684Y-91386500D01*
X41585051Y-91403129D01*
X41580987Y-91405740D01*
X41548466Y-91443271D01*
X41542445Y-91449738D01*
X41527684Y-91464502D01*
X41487453Y-91491389D01*
X41439994Y-91500830D01*
X38654750Y-91500830D01*
X38597124Y-91486627D01*
X38552700Y-91447270D01*
X38531654Y-91391777D01*
X38538808Y-91332859D01*
X38542071Y-91324255D01*
X38547990Y-91308648D01*
X38567031Y-91151830D01*
X38547990Y-90995012D01*
X38500917Y-90870890D01*
X38491973Y-90847306D01*
X38437043Y-90767727D01*
X38415568Y-90736615D01*
X38394849Y-90683599D01*
X38400000Y-90626910D01*
X38429936Y-90578498D01*
X39466789Y-89541646D01*
X39521170Y-89509883D01*
X39584141Y-89508932D01*
X39636086Y-89521735D01*
X39794056Y-89521735D01*
X39947436Y-89483931D01*
X40087311Y-89410518D01*
X40205554Y-89305765D01*
X40295291Y-89175758D01*
X40351308Y-89028053D01*
X40370349Y-88871235D01*
X40351308Y-88714417D01*
X40343561Y-88693989D01*
X54762295Y-88693989D01*
X55612293Y-88695472D01*
X55613078Y-88245497D01*
X55602764Y-88142760D01*
X55547907Y-87976237D01*
X55456127Y-87826856D01*
X55332371Y-87702667D01*
X55183310Y-87610366D01*
X55016980Y-87554927D01*
X54914280Y-87544253D01*
X54764302Y-87543991D01*
X54762295Y-88693989D01*
X40343561Y-88693989D01*
X40342668Y-88691634D01*
X53412298Y-88691634D01*
X54262295Y-88693117D01*
X54264301Y-87543120D01*
X54114326Y-87542859D01*
X54011589Y-87553173D01*
X53845066Y-87608030D01*
X53695685Y-87699810D01*
X53571496Y-87823566D01*
X53479195Y-87972627D01*
X53423757Y-88138957D01*
X53413082Y-88241657D01*
X53412298Y-88691634D01*
X40342668Y-88691634D01*
X40295291Y-88566712D01*
X40205554Y-88436705D01*
X40195464Y-88427766D01*
X40161749Y-88378922D01*
X40154595Y-88320004D01*
X40175638Y-88264515D01*
X40235316Y-88178058D01*
X40291333Y-88030353D01*
X40310374Y-87873535D01*
X40291333Y-87716717D01*
X40235316Y-87569012D01*
X40150394Y-87445981D01*
X40145580Y-87439006D01*
X40127395Y-87422896D01*
X40027336Y-87334252D01*
X39952046Y-87294736D01*
X39887460Y-87260838D01*
X39734081Y-87223035D01*
X39576111Y-87223035D01*
X39422731Y-87260838D01*
X39282857Y-87334251D01*
X39164611Y-87439006D01*
X39074876Y-87569011D01*
X39018859Y-87716716D01*
X38999817Y-87873535D01*
X39013648Y-87987443D01*
X39007769Y-88042838D01*
X38978233Y-88090070D01*
X38823785Y-88244518D01*
X38815812Y-88251824D01*
X38786877Y-88276104D01*
X38767985Y-88308824D01*
X38762177Y-88317940D01*
X38739902Y-88349753D01*
X38728584Y-88377072D01*
X38725901Y-88381718D01*
X38687473Y-88422767D01*
X38634867Y-88442625D01*
X38578899Y-88437207D01*
X38531079Y-88407628D01*
X38501239Y-88359970D01*
X38497430Y-88348876D01*
X38434424Y-88165344D01*
X38316070Y-87946645D01*
X38316067Y-87946641D01*
X38316066Y-87946639D01*
X38163336Y-87750413D01*
X38163334Y-87750410D01*
X37980381Y-87581990D01*
X37772203Y-87445981D01*
X37772197Y-87445977D01*
X37719579Y-87422896D01*
X37672344Y-87386529D01*
X37647538Y-87332322D01*
X37650895Y-87272804D01*
X37681638Y-87221730D01*
X37732663Y-87190905D01*
X37792167Y-87187452D01*
X37995707Y-87225500D01*
X38204291Y-87225500D01*
X38204293Y-87225500D01*
X38409327Y-87187173D01*
X38603828Y-87111823D01*
X38781171Y-87002016D01*
X38935318Y-86861493D01*
X39061019Y-86695038D01*
X39061019Y-86695036D01*
X39061021Y-86695035D01*
X39153994Y-86508319D01*
X39211076Y-86307698D01*
X39213866Y-86277578D01*
X39230322Y-86100000D01*
X39215589Y-85941012D01*
X39211076Y-85892301D01*
X39153994Y-85691680D01*
X39061021Y-85504964D01*
X38935317Y-85338505D01*
X38781173Y-85197985D01*
X38603827Y-85088176D01*
X38409328Y-85012827D01*
X38340982Y-85000051D01*
X38204293Y-84974500D01*
X37995707Y-84974500D01*
X37893189Y-84993663D01*
X37790671Y-85012827D01*
X37596172Y-85088176D01*
X37418826Y-85197985D01*
X37264682Y-85338505D01*
X37138978Y-85504964D01*
X37046005Y-85691680D01*
X36988923Y-85892301D01*
X36969678Y-86100000D01*
X36988923Y-86307698D01*
X37046005Y-86508319D01*
X37138978Y-86695035D01*
X37264682Y-86861494D01*
X37418830Y-87002017D01*
X37589304Y-87107572D01*
X37635717Y-87159135D01*
X37647168Y-87227558D01*
X37620075Y-87291424D01*
X37562917Y-87330741D01*
X37493587Y-87333203D01*
X37303417Y-87285046D01*
X37303415Y-87285045D01*
X37303412Y-87285045D01*
X37117669Y-87269654D01*
X37117663Y-87269654D01*
X36993529Y-87269654D01*
X36993523Y-87269654D01*
X36807779Y-87285045D01*
X36807775Y-87285045D01*
X36807775Y-87285046D01*
X36566715Y-87346091D01*
X36566714Y-87346091D01*
X36559963Y-87347801D01*
X36495734Y-87346903D01*
X36440572Y-87313988D01*
X36409280Y-87257889D01*
X36410257Y-87193661D01*
X36460918Y-87015607D01*
X36467683Y-86942595D01*
X36480164Y-86807909D01*
X36465335Y-86647884D01*
X36460918Y-86600210D01*
X36403836Y-86399589D01*
X36310863Y-86212873D01*
X36185159Y-86046414D01*
X36031015Y-85905894D01*
X35853669Y-85796085D01*
X35659170Y-85720736D01*
X35590824Y-85707960D01*
X35454135Y-85682409D01*
X35245549Y-85682409D01*
X35143031Y-85701572D01*
X35040513Y-85720736D01*
X34846014Y-85796085D01*
X34668668Y-85905894D01*
X34514524Y-86046414D01*
X34388820Y-86212873D01*
X34295847Y-86399589D01*
X34252218Y-86552932D01*
X34223292Y-86603937D01*
X34174164Y-86635949D01*
X34115821Y-86641809D01*
X34061308Y-86620206D01*
X34022816Y-86575972D01*
X34008952Y-86518998D01*
X34008952Y-86056796D01*
X34018760Y-86008463D01*
X34046631Y-85967775D01*
X34088156Y-85941169D01*
X34187280Y-85902769D01*
X34364623Y-85792962D01*
X34518770Y-85652439D01*
X34644471Y-85485984D01*
X34644471Y-85485982D01*
X34644473Y-85485981D01*
X34737446Y-85299265D01*
X34794528Y-85098644D01*
X34802480Y-85012827D01*
X34813774Y-84890946D01*
X34794528Y-84683250D01*
X34794528Y-84683247D01*
X34737446Y-84482626D01*
X34644473Y-84295910D01*
X34559236Y-84183038D01*
X35303288Y-84183038D01*
X35322533Y-84390736D01*
X35379615Y-84591357D01*
X35472588Y-84778073D01*
X35598292Y-84944532D01*
X35752436Y-85085052D01*
X35752438Y-85085053D01*
X35752439Y-85085054D01*
X35929782Y-85194861D01*
X36124283Y-85270211D01*
X36329317Y-85308538D01*
X36537901Y-85308538D01*
X36537903Y-85308538D01*
X36742937Y-85270211D01*
X36937438Y-85194861D01*
X37114781Y-85085054D01*
X37268928Y-84944531D01*
X37394629Y-84778076D01*
X37394629Y-84778074D01*
X37394631Y-84778073D01*
X37487604Y-84591357D01*
X37544686Y-84390736D01*
X37553015Y-84300848D01*
X37563932Y-84183038D01*
X37544686Y-83975342D01*
X37544686Y-83975339D01*
X37487604Y-83774718D01*
X37394631Y-83588002D01*
X37268927Y-83421543D01*
X37114783Y-83281023D01*
X36937437Y-83171214D01*
X36742938Y-83095865D01*
X36674592Y-83083089D01*
X36537903Y-83057538D01*
X36329317Y-83057538D01*
X36226799Y-83076701D01*
X36124281Y-83095865D01*
X35929782Y-83171214D01*
X35752436Y-83281023D01*
X35598292Y-83421543D01*
X35472588Y-83588002D01*
X35379615Y-83774718D01*
X35322533Y-83975339D01*
X35303288Y-84183038D01*
X34559236Y-84183038D01*
X34518769Y-84129451D01*
X34364625Y-83988931D01*
X34187279Y-83879122D01*
X33992780Y-83803773D01*
X33903157Y-83787020D01*
X33787745Y-83765446D01*
X33579159Y-83765446D01*
X33485279Y-83782995D01*
X33374123Y-83803773D01*
X33179624Y-83879122D01*
X33002278Y-83988931D01*
X32848134Y-84129451D01*
X32722430Y-84295910D01*
X32629457Y-84482626D01*
X32572375Y-84683247D01*
X32553130Y-84890946D01*
X29051221Y-84890946D01*
X27823945Y-80303829D01*
X31755997Y-80303829D01*
X31775830Y-80530519D01*
X31834727Y-80750327D01*
X31930898Y-80956565D01*
X32061419Y-81142970D01*
X32222325Y-81303876D01*
X32408730Y-81434397D01*
X32408731Y-81434397D01*
X32408732Y-81434398D01*
X32614970Y-81530569D01*
X32834774Y-81589465D01*
X32919728Y-81596897D01*
X33004680Y-81604330D01*
X33004682Y-81604330D01*
X33118250Y-81604330D01*
X33118252Y-81604330D01*
X33186213Y-81598384D01*
X33288158Y-81589465D01*
X33507962Y-81530569D01*
X33680313Y-81450199D01*
X33744410Y-81439135D01*
X33805291Y-81462039D01*
X33846201Y-81512611D01*
X33855883Y-81576934D01*
X33831671Y-81637307D01*
X33806200Y-81671036D01*
X33713225Y-81857755D01*
X33656143Y-82058376D01*
X33636898Y-82266075D01*
X33656143Y-82473773D01*
X33713225Y-82674394D01*
X33806198Y-82861110D01*
X33931902Y-83027569D01*
X34086046Y-83168089D01*
X34086048Y-83168090D01*
X34086049Y-83168091D01*
X34263392Y-83277898D01*
X34457893Y-83353248D01*
X34662927Y-83391575D01*
X34871511Y-83391575D01*
X34871513Y-83391575D01*
X35076547Y-83353248D01*
X35271048Y-83277898D01*
X35448391Y-83168091D01*
X35602538Y-83027568D01*
X35728239Y-82861113D01*
X35728239Y-82861111D01*
X35728241Y-82861110D01*
X35821214Y-82674394D01*
X35878296Y-82473773D01*
X35884536Y-82406431D01*
X35897542Y-82266075D01*
X35878296Y-82058379D01*
X35878296Y-82058376D01*
X35821214Y-81857755D01*
X35728241Y-81671039D01*
X35602537Y-81504580D01*
X35448393Y-81364060D01*
X35271047Y-81254251D01*
X35076548Y-81178902D01*
X35008202Y-81166126D01*
X34871513Y-81140575D01*
X34662927Y-81140575D01*
X34457893Y-81178902D01*
X34430720Y-81189429D01*
X34259730Y-81255670D01*
X34197553Y-81262818D01*
X34139804Y-81238689D01*
X34101196Y-81189429D01*
X34091564Y-81127588D01*
X34113362Y-81068920D01*
X34192034Y-80956564D01*
X34288205Y-80750326D01*
X34347101Y-80530522D01*
X34366934Y-80303830D01*
X34347101Y-80077138D01*
X34288205Y-79857334D01*
X34192034Y-79651096D01*
X34087061Y-79501178D01*
X34061512Y-79464689D01*
X33900606Y-79303783D01*
X33714201Y-79173262D01*
X33507963Y-79077091D01*
X33288155Y-79018194D01*
X33118252Y-79003330D01*
X33118250Y-79003330D01*
X33004682Y-79003330D01*
X33004680Y-79003330D01*
X32834776Y-79018194D01*
X32614968Y-79077091D01*
X32408730Y-79173262D01*
X32222325Y-79303783D01*
X32061419Y-79464689D01*
X31930898Y-79651094D01*
X31834727Y-79857332D01*
X31775830Y-80077140D01*
X31755997Y-80303829D01*
X27823945Y-80303829D01*
X25945272Y-73282024D01*
X29604726Y-73282024D01*
X29624492Y-73533173D01*
X29683301Y-73778134D01*
X29731505Y-73894509D01*
X29779709Y-74010883D01*
X29911339Y-74225683D01*
X30074951Y-74417248D01*
X30266516Y-74580860D01*
X30481316Y-74712490D01*
X30714064Y-74808897D01*
X30959027Y-74867707D01*
X31210175Y-74887473D01*
X31461323Y-74867707D01*
X31706286Y-74808897D01*
X31939034Y-74712490D01*
X32153834Y-74580860D01*
X32345399Y-74417248D01*
X32509011Y-74225683D01*
X32640641Y-74010883D01*
X32737048Y-73778135D01*
X32795858Y-73533172D01*
X32815624Y-73282024D01*
X32795858Y-73030876D01*
X32737048Y-72785913D01*
X32640641Y-72553165D01*
X32509011Y-72338365D01*
X32345399Y-72146800D01*
X32153834Y-71983188D01*
X31939034Y-71851558D01*
X31822659Y-71803354D01*
X31706285Y-71755150D01*
X31461324Y-71696341D01*
X31210175Y-71676575D01*
X30959025Y-71696341D01*
X30714064Y-71755150D01*
X30515399Y-71837440D01*
X30488878Y-71848426D01*
X30481314Y-71851559D01*
X30266517Y-71983187D01*
X30074951Y-72146800D01*
X29911338Y-72338366D01*
X29779710Y-72553163D01*
X29683301Y-72785913D01*
X29624492Y-73030874D01*
X29604726Y-73282024D01*
X25945272Y-73282024D01*
X25685835Y-72312341D01*
X25685895Y-72248025D01*
X25718168Y-72192388D01*
X25773971Y-72160404D01*
X25838289Y-72160675D01*
X28720421Y-72947775D01*
X28721538Y-72948087D01*
X28763908Y-72960177D01*
X28774807Y-72958295D01*
X28801130Y-72956600D01*
X28812176Y-72957067D01*
X28818916Y-72954164D01*
X28846871Y-72945860D01*
X28854100Y-72944613D01*
X28863108Y-72938186D01*
X28886075Y-72925245D01*
X28896239Y-72920869D01*
X28901046Y-72915335D01*
X28922636Y-72895720D01*
X28928609Y-72891460D01*
X28933934Y-72881764D01*
X28949020Y-72860129D01*
X28956271Y-72851785D01*
X28956270Y-72851785D01*
X28956273Y-72851783D01*
X28967904Y-72809186D01*
X28968174Y-72808222D01*
X29804872Y-69875714D01*
X29816457Y-69851501D01*
X29817393Y-69845905D01*
X29817394Y-69845904D01*
X29821936Y-69818744D01*
X29824994Y-69805187D01*
X29826196Y-69800979D01*
X29826430Y-69796605D01*
X29827950Y-69782795D01*
X29832495Y-69755633D01*
X29832494Y-69755631D01*
X29833430Y-69750039D01*
X29832038Y-69737957D01*
X29829854Y-69732722D01*
X29819248Y-69707302D01*
X29814623Y-69694192D01*
X29813403Y-69690000D01*
X29813403Y-69689999D01*
X29811281Y-69686184D01*
X29805215Y-69673671D01*
X29794611Y-69648254D01*
X29794609Y-69648253D01*
X29792427Y-69643021D01*
X29775632Y-69622069D01*
X27425161Y-65394874D01*
X27410350Y-65348815D01*
X27414293Y-65300593D01*
X27415426Y-65296624D01*
X28493070Y-61519627D01*
X32915813Y-61519627D01*
X32936010Y-61698878D01*
X32936010Y-61698880D01*
X32936011Y-61698882D01*
X32995590Y-61869149D01*
X33052357Y-61959494D01*
X33091564Y-62021891D01*
X33219114Y-62149441D01*
X33219116Y-62149442D01*
X33219117Y-62149443D01*
X33371857Y-62245416D01*
X33542124Y-62304995D01*
X33609274Y-62312561D01*
X33676422Y-62320127D01*
X33676425Y-62320127D01*
X33766333Y-62320127D01*
X33766336Y-62320127D01*
X33823890Y-62313641D01*
X33900634Y-62304995D01*
X34070901Y-62245416D01*
X34223641Y-62149443D01*
X34351195Y-62021889D01*
X34447168Y-61869149D01*
X34506747Y-61698882D01*
X34526944Y-61519627D01*
X34506747Y-61340372D01*
X34447168Y-61170105D01*
X34351195Y-61017365D01*
X34351194Y-61017364D01*
X34351193Y-61017362D01*
X34223643Y-60889812D01*
X34161246Y-60850606D01*
X34070901Y-60793838D01*
X33900634Y-60734259D01*
X33900632Y-60734258D01*
X33900630Y-60734258D01*
X33766336Y-60719127D01*
X33766333Y-60719127D01*
X33676425Y-60719127D01*
X33676422Y-60719127D01*
X33542127Y-60734258D01*
X33542124Y-60734258D01*
X33542124Y-60734259D01*
X33371857Y-60793838D01*
X33371855Y-60793838D01*
X33371855Y-60793839D01*
X33219114Y-60889812D01*
X33091564Y-61017362D01*
X32995591Y-61170103D01*
X32936010Y-61340375D01*
X32915813Y-61519627D01*
X28493070Y-61519627D01*
X30358590Y-54981228D01*
X30380686Y-54938187D01*
X30417570Y-54906879D01*
X31116743Y-54518114D01*
X35875890Y-54518114D01*
X35894936Y-54772268D01*
X35942630Y-54981229D01*
X35951651Y-55020751D01*
X36044766Y-55258002D01*
X36172201Y-55478726D01*
X36331109Y-55677991D01*
X36331111Y-55677993D01*
X36331112Y-55677994D01*
X36517936Y-55851342D01*
X36517938Y-55851343D01*
X36517942Y-55851347D01*
X36728526Y-55994920D01*
X36958155Y-56105504D01*
X37201702Y-56180628D01*
X37453725Y-56218615D01*
X37708595Y-56218615D01*
X37960618Y-56180628D01*
X38204165Y-56105504D01*
X38433795Y-55994920D01*
X38644378Y-55851347D01*
X38831211Y-55677991D01*
X38990119Y-55478726D01*
X39117554Y-55258002D01*
X39210669Y-55020751D01*
X39267383Y-54772271D01*
X39286429Y-54518114D01*
X39267383Y-54263957D01*
X39210669Y-54015477D01*
X39117554Y-53778226D01*
X38990119Y-53557502D01*
X38831211Y-53358237D01*
X38815985Y-53344109D01*
X38644380Y-53184882D01*
X38541409Y-53114678D01*
X38433795Y-53041308D01*
X38204165Y-52930724D01*
X37960618Y-52855600D01*
X37708595Y-52817613D01*
X37453725Y-52817613D01*
X37201702Y-52855600D01*
X36958155Y-52930724D01*
X36728526Y-53041308D01*
X36559986Y-53156215D01*
X36517936Y-53184885D01*
X36331112Y-53358233D01*
X36172200Y-53557503D01*
X36044766Y-53778225D01*
X35951651Y-54015476D01*
X35894936Y-54263959D01*
X35875890Y-54518114D01*
X31116743Y-54518114D01*
X34644766Y-52556408D01*
X34670087Y-52547476D01*
X34697117Y-52528192D01*
X34708873Y-52520763D01*
X34712694Y-52518639D01*
X34715941Y-52515721D01*
X34726785Y-52507026D01*
X34749213Y-52491028D01*
X34749214Y-52491025D01*
X34753840Y-52487726D01*
X34761386Y-52478213D01*
X34774016Y-52447497D01*
X34780025Y-52434938D01*
X34782123Y-52431119D01*
X34782124Y-52431118D01*
X34783327Y-52426899D01*
X34787879Y-52413781D01*
X34798353Y-52388312D01*
X34798352Y-52388309D01*
X34800511Y-52383061D01*
X34803448Y-52356376D01*
X35136912Y-51187632D01*
X35136918Y-51187618D01*
X35150492Y-51140039D01*
X35154477Y-51128318D01*
X35206470Y-50997331D01*
X35217848Y-50975359D01*
X35291404Y-50862535D01*
X35306909Y-50843271D01*
X35401417Y-50747286D01*
X35420432Y-50731491D01*
X35532107Y-50656190D01*
X35553891Y-50644478D01*
X35678293Y-50592852D01*
X35701969Y-50585698D01*
X35834156Y-50559801D01*
X35858773Y-50557493D01*
X35993450Y-50558360D01*
G37*
%TD.AperFunction*%
%TD*%
M02*
