%TF.GenerationSoftware,KiCad,Pcbnew,(7.0.0)*%
%TF.CreationDate,2023-05-27T11:40:30+01:00*%
%TF.ProjectId,right,72696768-742e-46b6-9963-61645f706362,rev?*%
%TF.SameCoordinates,Original*%
%TF.FileFunction,Profile,NP*%
%FSLAX46Y46*%
G04 Gerber Fmt 4.6, Leading zero omitted, Abs format (unit mm)*
G04 Created by KiCad (PCBNEW (7.0.0)) date 2023-05-27 11:40:30*
%MOMM*%
%LPD*%
G01*
G04 APERTURE LIST*
%TA.AperFunction,Profile*%
%ADD10C,0.200000*%
%TD*%
G04 APERTURE END LIST*
D10*
X38926004Y-84163682D02*
X42214433Y-87704859D01*
X41425572Y-53261303D02*
X36405822Y-50478811D01*
X42415401Y-102646392D02*
X45931182Y-100302904D01*
X51583438Y-87238693D02*
X50196266Y-86453745D01*
X54275045Y-85767032D02*
G75*
G03*
X73187299Y-87267192I11093955J19897732D01*
G01*
X48173423Y-82380896D02*
G75*
G03*
X46716395Y-82668686I-598723J-801004D01*
G01*
X30202663Y-54796966D02*
X34595516Y-52354384D01*
X36405822Y-50478811D02*
G75*
G03*
X34959388Y-51079062I-484822J-874589D01*
G01*
X51583425Y-87238716D02*
G75*
G03*
X52736047Y-87119525I492475J870316D01*
G01*
X28774912Y-72754815D02*
X25346138Y-71818428D01*
X35415599Y-78650721D02*
G75*
G03*
X35803758Y-79929090I1997901J-91479D01*
G01*
X37694462Y-61844304D02*
G75*
G03*
X37300000Y-63300000I-94462J-755696D01*
G01*
X38926004Y-84163682D02*
X35803758Y-79929090D01*
X38631330Y-96970863D02*
X38674271Y-100572650D01*
X27184609Y-65374837D02*
X30202663Y-54796966D01*
X29627192Y-69767691D02*
X28774912Y-72754815D01*
X29627192Y-69767691D02*
X27184609Y-65374837D01*
X39081161Y-54518114D02*
G75*
G03*
X39081161Y-54518114I-1500001J0D01*
G01*
X35807300Y-70095399D02*
X37936002Y-63711349D01*
X38674271Y-100572650D02*
X42415401Y-102646392D01*
X74610250Y-97706399D02*
G75*
G03*
X74610250Y-97706399I-1400000J0D01*
G01*
X72383832Y-92415106D02*
G75*
G03*
X72383832Y-92415106I-1499999J0D01*
G01*
X38527827Y-61941911D02*
X37694462Y-61844304D01*
X38527827Y-61941911D02*
X41425572Y-53261303D01*
X30934097Y-92704216D02*
X38631330Y-96970863D01*
X43805509Y-87537531D02*
X46716395Y-82668686D01*
X49704207Y-85408282D02*
G75*
G03*
X50196266Y-86453745I984593J-175118D01*
G01*
X75967349Y-90056792D02*
X73187299Y-87267192D01*
X35415596Y-78650721D02*
X35807300Y-70095399D01*
X34595516Y-52354384D02*
X34959388Y-51079062D01*
X75956588Y-100334341D02*
X75967349Y-90056792D01*
X54275050Y-85767023D02*
X52736047Y-87119525D01*
X30934097Y-92704216D02*
X25346138Y-71818428D01*
X49704205Y-85408282D02*
X49999870Y-83746211D01*
X37936002Y-63711349D02*
X37300000Y-63300000D01*
X42214424Y-87704867D02*
G75*
G03*
X43805508Y-87537531I732776J680467D01*
G01*
X45931182Y-100302904D02*
X75956588Y-100334341D01*
X32610175Y-73282024D02*
G75*
G03*
X32610175Y-73282024I-1400000J0D01*
G01*
X48173433Y-82380883D02*
X49999870Y-83746211D01*
X43446006Y-99241689D02*
G75*
G03*
X43446006Y-99241689I-1499999J0D01*
G01*
M02*
