%TF.GenerationSoftware,KiCad,Pcbnew,(7.0.0)*%
%TF.CreationDate,2023-05-27T11:40:30+01:00*%
%TF.ProjectId,right,72696768-742e-46b6-9963-61645f706362,rev?*%
%TF.SameCoordinates,Original*%
%TF.FileFunction,Legend,Top*%
%TF.FilePolarity,Positive*%
%FSLAX46Y46*%
G04 Gerber Fmt 4.6, Leading zero omitted, Abs format (unit mm)*
G04 Created by KiCad (PCBNEW (7.0.0)) date 2023-05-27 11:40:30*
%MOMM*%
%LPD*%
G01*
G04 APERTURE LIST*
%ADD10C,0.150000*%
%ADD11C,0.300000*%
%ADD12C,0.120000*%
%ADD13C,0.200000*%
G04 APERTURE END LIST*
D10*
X64700000Y-91000000D02*
X64900000Y-91100000D01*
X64800000Y-92400000D02*
X64800000Y-93400000D01*
X64800000Y-93400000D02*
X65400000Y-92900000D01*
X64700000Y-91000000D02*
X64600000Y-91200000D01*
X65400000Y-93400000D02*
X65400000Y-92400000D01*
X64400000Y-91500000D02*
X66200000Y-91500000D01*
X64800000Y-92900000D02*
X64600000Y-92900000D01*
X65600000Y-91500000D02*
X64900000Y-91500000D01*
X65400000Y-92900000D02*
X64800000Y-92400000D01*
X64900000Y-91500000D02*
X64600000Y-90800000D01*
X65900000Y-90900000D02*
X65600000Y-91500000D01*
X65400000Y-92900000D02*
X65700000Y-92900000D01*
X59538095Y-97801428D02*
X60300000Y-97801428D01*
X59919047Y-98182380D02*
X59919047Y-97420476D01*
X68238095Y-97882380D02*
X68238095Y-96882380D01*
X68238095Y-97358571D02*
X68809523Y-97358571D01*
X68809523Y-97882380D02*
X68809523Y-96882380D01*
X69285714Y-97882380D02*
X69285714Y-96882380D01*
X69285714Y-96882380D02*
X69666666Y-96882380D01*
X69666666Y-96882380D02*
X69761904Y-96930000D01*
X69761904Y-96930000D02*
X69809523Y-96977619D01*
X69809523Y-96977619D02*
X69857142Y-97072857D01*
X69857142Y-97072857D02*
X69857142Y-97215714D01*
X69857142Y-97215714D02*
X69809523Y-97310952D01*
X69809523Y-97310952D02*
X69761904Y-97358571D01*
X69761904Y-97358571D02*
X69666666Y-97406190D01*
X69666666Y-97406190D02*
X69285714Y-97406190D01*
X57871428Y-96858571D02*
X57538095Y-96858571D01*
X57538095Y-97382380D02*
X57538095Y-96382380D01*
X57538095Y-96382380D02*
X58014285Y-96382380D01*
X58728571Y-96858571D02*
X58871428Y-96906190D01*
X58871428Y-96906190D02*
X58919047Y-96953809D01*
X58919047Y-96953809D02*
X58966666Y-97049047D01*
X58966666Y-97049047D02*
X58966666Y-97191904D01*
X58966666Y-97191904D02*
X58919047Y-97287142D01*
X58919047Y-97287142D02*
X58871428Y-97334761D01*
X58871428Y-97334761D02*
X58776190Y-97382380D01*
X58776190Y-97382380D02*
X58395238Y-97382380D01*
X58395238Y-97382380D02*
X58395238Y-96382380D01*
X58395238Y-96382380D02*
X58728571Y-96382380D01*
X58728571Y-96382380D02*
X58823809Y-96430000D01*
X58823809Y-96430000D02*
X58871428Y-96477619D01*
X58871428Y-96477619D02*
X58919047Y-96572857D01*
X58919047Y-96572857D02*
X58919047Y-96668095D01*
X58919047Y-96668095D02*
X58871428Y-96763333D01*
X58871428Y-96763333D02*
X58823809Y-96810952D01*
X58823809Y-96810952D02*
X58728571Y-96858571D01*
X58728571Y-96858571D02*
X58395238Y-96858571D01*
D11*
G36*
X36415144Y-61710093D02*
G01*
X32088620Y-58603990D01*
X31746765Y-58574082D01*
X31474183Y-61689710D01*
X31987574Y-61734626D01*
X32199062Y-59317307D01*
X36060641Y-62090973D01*
X36379382Y-62118860D01*
X36415144Y-61710093D01*
G37*
G36*
X36294765Y-63086031D02*
G01*
X35971158Y-63057719D01*
X34017820Y-64002374D01*
X34114677Y-62895297D01*
X33601285Y-62850382D01*
X33477607Y-64264033D01*
X31691789Y-65115466D01*
X31902958Y-62701797D01*
X31389566Y-62656881D01*
X31116984Y-65772510D01*
X31452757Y-65801886D01*
X33425560Y-64858934D01*
X33328703Y-65966010D01*
X33842095Y-66010926D01*
X33965773Y-64597275D01*
X36259322Y-63491147D01*
X36294765Y-63086031D01*
G37*
G36*
X31372034Y-66808626D02*
G01*
X31381766Y-66809477D01*
X33380920Y-68255617D01*
X35609337Y-67179342D01*
X35934160Y-67207760D01*
X35898611Y-67614093D01*
X33856175Y-68596311D01*
X35696383Y-69925571D01*
X35658279Y-70361102D01*
X30753080Y-69931953D01*
X30789907Y-69511021D01*
X30829953Y-69491557D01*
X31996649Y-69491557D01*
X34527108Y-69712944D01*
X33328873Y-68850518D01*
X31996649Y-69491557D01*
X30829953Y-69491557D01*
X32852507Y-68508501D01*
X30994689Y-67170345D01*
X31028962Y-66778611D01*
X31372034Y-66808626D01*
G37*
D10*
X67338095Y-95501428D02*
X68100000Y-95501428D01*
X67719047Y-95882380D02*
X67719047Y-95120476D01*
X64538095Y-97801428D02*
X65300000Y-97801428D01*
X64919047Y-98182380D02*
X64919047Y-97420476D01*
X62771428Y-97058571D02*
X62438095Y-97058571D01*
X62438095Y-97582380D02*
X62438095Y-96582380D01*
X62438095Y-96582380D02*
X62914285Y-96582380D01*
X63628571Y-97058571D02*
X63295238Y-97058571D01*
X63295238Y-97582380D02*
X63295238Y-96582380D01*
X63295238Y-96582380D02*
X63771428Y-96582380D01*
%TO.C,D1*%
X60261905Y-95497380D02*
X60261905Y-94497380D01*
X60261905Y-94497380D02*
X60500000Y-94497380D01*
X60500000Y-94497380D02*
X60642857Y-94545000D01*
X60642857Y-94545000D02*
X60738095Y-94640238D01*
X60738095Y-94640238D02*
X60785714Y-94735476D01*
X60785714Y-94735476D02*
X60833333Y-94925952D01*
X60833333Y-94925952D02*
X60833333Y-95068809D01*
X60833333Y-95068809D02*
X60785714Y-95259285D01*
X60785714Y-95259285D02*
X60738095Y-95354523D01*
X60738095Y-95354523D02*
X60642857Y-95449761D01*
X60642857Y-95449761D02*
X60500000Y-95497380D01*
X60500000Y-95497380D02*
X60261905Y-95497380D01*
X61785714Y-95497380D02*
X61214286Y-95497380D01*
X61500000Y-95497380D02*
X61500000Y-94497380D01*
X61500000Y-94497380D02*
X61404762Y-94640238D01*
X61404762Y-94640238D02*
X61309524Y-94735476D01*
X61309524Y-94735476D02*
X61214286Y-94783095D01*
%TO.C,J6*%
X55867771Y-92866800D02*
X55866524Y-93581084D01*
X55866524Y-93581084D02*
X55818656Y-93723858D01*
X55818656Y-93723858D02*
X55723252Y-93818930D01*
X55723252Y-93818930D02*
X55580311Y-93866299D01*
X55580311Y-93866299D02*
X55485074Y-93866133D01*
X56772531Y-92868379D02*
X56582056Y-92868046D01*
X56582056Y-92868046D02*
X56486734Y-92915499D01*
X56486734Y-92915499D02*
X56439032Y-92963035D01*
X56439032Y-92963035D02*
X56343545Y-93105726D01*
X56343545Y-93105726D02*
X56295594Y-93296118D01*
X56295594Y-93296118D02*
X56294929Y-93677070D01*
X56294929Y-93677070D02*
X56342382Y-93772391D01*
X56342382Y-93772391D02*
X56389917Y-93820093D01*
X56389917Y-93820093D02*
X56485072Y-93867879D01*
X56485072Y-93867879D02*
X56675548Y-93868211D01*
X56675548Y-93868211D02*
X56770869Y-93820758D01*
X56770869Y-93820758D02*
X56818571Y-93773222D01*
X56818571Y-93773222D02*
X56866356Y-93678068D01*
X56866356Y-93678068D02*
X56866772Y-93439973D01*
X56866772Y-93439973D02*
X56819319Y-93344652D01*
X56819319Y-93344652D02*
X56771783Y-93296950D01*
X56771783Y-93296950D02*
X56676629Y-93249164D01*
X56676629Y-93249164D02*
X56486153Y-93248832D01*
X56486153Y-93248832D02*
X56390832Y-93296285D01*
X56390832Y-93296285D02*
X56343130Y-93343820D01*
X56343130Y-93343820D02*
X56295344Y-93438975D01*
%TO.C,R4*%
X60833333Y-90667380D02*
X60500000Y-90191190D01*
X60261905Y-90667380D02*
X60261905Y-89667380D01*
X60261905Y-89667380D02*
X60642857Y-89667380D01*
X60642857Y-89667380D02*
X60738095Y-89715000D01*
X60738095Y-89715000D02*
X60785714Y-89762619D01*
X60785714Y-89762619D02*
X60833333Y-89857857D01*
X60833333Y-89857857D02*
X60833333Y-90000714D01*
X60833333Y-90000714D02*
X60785714Y-90095952D01*
X60785714Y-90095952D02*
X60738095Y-90143571D01*
X60738095Y-90143571D02*
X60642857Y-90191190D01*
X60642857Y-90191190D02*
X60261905Y-90191190D01*
X61690476Y-90000714D02*
X61690476Y-90667380D01*
X61452381Y-89619761D02*
X61214286Y-90334047D01*
X61214286Y-90334047D02*
X61833333Y-90334047D01*
%TO.C,J5*%
X34158757Y-76633394D02*
X33619678Y-77102008D01*
X33619678Y-77102008D02*
X33480622Y-77159792D01*
X33480622Y-77159792D02*
X33346263Y-77150397D01*
X33346263Y-77150397D02*
X33216602Y-77073822D01*
X33216602Y-77073822D02*
X33154120Y-77001945D01*
X34783575Y-77352165D02*
X34471166Y-76992780D01*
X34471166Y-76992780D02*
X34080540Y-77269250D01*
X34080540Y-77269250D02*
X34147719Y-77273948D01*
X34147719Y-77273948D02*
X34246139Y-77314584D01*
X34246139Y-77314584D02*
X34402344Y-77494277D01*
X34402344Y-77494277D02*
X34428887Y-77597395D01*
X34428887Y-77597395D02*
X34424189Y-77664574D01*
X34424189Y-77664574D02*
X34383553Y-77762995D01*
X34383553Y-77762995D02*
X34203861Y-77919199D01*
X34203861Y-77919199D02*
X34100743Y-77945743D01*
X34100743Y-77945743D02*
X34033563Y-77941045D01*
X34033563Y-77941045D02*
X33935143Y-77900409D01*
X33935143Y-77900409D02*
X33778938Y-77720716D01*
X33778938Y-77720716D02*
X33752395Y-77617598D01*
X33752395Y-77617598D02*
X33757093Y-77550418D01*
D12*
%TO.C,D1*%
X62660000Y-94435000D02*
X62660000Y-92965000D01*
X62660000Y-92965000D02*
X60200000Y-92965000D01*
X60200000Y-94435000D02*
X62660000Y-94435000D01*
%TO.C,TP8*%
X42612115Y-92347962D02*
G75*
G03*
X42612115Y-92347962I-700000J0D01*
G01*
%TO.C,TP16*%
X47612115Y-94847963D02*
G75*
G03*
X47612115Y-94847963I-700000J0D01*
G01*
%TO.C,TP13*%
X47712115Y-92347962D02*
G75*
G03*
X47712115Y-92347962I-700000J0D01*
G01*
%TO.C,TP17*%
X64600000Y-92900000D02*
G75*
G03*
X64600000Y-92900000I-700000J0D01*
G01*
%TO.C,TP18*%
X67100000Y-92900000D02*
G75*
G03*
X67100000Y-92900000I-700000J0D01*
G01*
%TO.C,TP3*%
X59760237Y-98808576D02*
G75*
G03*
X59760237Y-98808576I-700000J0D01*
G01*
%TO.C,TP19*%
X64600000Y-90400000D02*
G75*
G03*
X64600000Y-90400000I-700000J0D01*
G01*
%TO.C,TP1*%
X64760236Y-98808576D02*
G75*
G03*
X64760236Y-98808576I-700000J0D01*
G01*
%TO.C,TP7*%
X50112115Y-92347962D02*
G75*
G03*
X50112115Y-92347962I-700000J0D01*
G01*
%TO.C,TP6*%
X67600000Y-98800000D02*
G75*
G03*
X67600000Y-98800000I-700000J0D01*
G01*
%TO.C,TP9*%
X52612115Y-92347962D02*
G75*
G03*
X52612115Y-92347962I-700000J0D01*
G01*
%TO.C,TP15*%
X45112115Y-94847963D02*
G75*
G03*
X45112115Y-94847963I-700000J0D01*
G01*
%TO.C,TP12*%
X42612115Y-94847963D02*
G75*
G03*
X42612115Y-94847963I-700000J0D01*
G01*
%TO.C,J6*%
X54199836Y-90103011D02*
X54197829Y-91253010D01*
X54197829Y-91253010D02*
X55247827Y-91254842D01*
X55247827Y-91254842D02*
X55246099Y-92244841D01*
X55373273Y-88135056D02*
X57253270Y-88138338D01*
X58419830Y-90110377D02*
X58417822Y-91260375D01*
X58417822Y-91260375D02*
X57367824Y-91258542D01*
%TO.C,TP5*%
X67600000Y-96400000D02*
G75*
G03*
X67600000Y-96400000I-700000J0D01*
G01*
%TO.C,TP4*%
X57260236Y-98808576D02*
G75*
G03*
X57260236Y-98808576I-700000J0D01*
G01*
%TO.C,TP20*%
X67100000Y-90400000D02*
G75*
G03*
X67100000Y-90400000I-700000J0D01*
G01*
%TO.C,TP2*%
X62260237Y-98808576D02*
G75*
G03*
X62260237Y-98808576I-700000J0D01*
G01*
%TO.C,TP14*%
X45112115Y-92347962D02*
G75*
G03*
X45112115Y-92347962I-700000J0D01*
G01*
%TO.C,R4*%
X61167621Y-91980000D02*
X60832379Y-91980000D01*
X61167621Y-91220000D02*
X60832379Y-91220000D01*
D13*
%TO.C,J5*%
X32192254Y-76819384D02*
X42302124Y-88449458D01*
X27814938Y-80624526D02*
X32192254Y-76819384D01*
X42302124Y-88449458D02*
X37924808Y-92254600D01*
X37924808Y-92254600D02*
X27814938Y-80624526D01*
X39836764Y-86565326D02*
G75*
G03*
X39836764Y-86565326I-100000J0D01*
G01*
D12*
%TO.C,TP11*%
X50112115Y-94847963D02*
G75*
G03*
X50112115Y-94847963I-700000J0D01*
G01*
%TO.C,TP10*%
X52612115Y-94847963D02*
G75*
G03*
X52612115Y-94847963I-700000J0D01*
G01*
%TD*%
M02*
